<svg width="48" height="48" viewBox="0 0 48 48" fill="none" xmlns="http://www.w3.org/2000/svg">
<path fill-rule="evenodd" clip-rule="evenodd" d="M25.2734 1.90687C36.375 2.47346 45.5391 10.3862 48 20.8818H47.9961L44.8203 24.6291L41.7656 20.8818H41.3516L38.1602 24.6486L35.0898 20.8818H34.3281L31.1523 24.6291L28.0977 20.8818H27.6953C27.6953 20.9013 27.6953 20.9209 27.6953 20.9404C27.6953 21.8235 26.9453 22.5894 25.8594 22.9489V40.5327C25.8594 42.5881 25.0195 44.4559 23.668 45.8079C22.3164 47.1599 20.4492 48 18.3945 48C16.3477 48 14.4844 47.1599 13.1289 45.8079L13.125 45.804L13.1211 45.8001C11.7695 44.4442 10.9297 42.5803 10.9297 40.5327V39.8411H14.125V40.5327C14.125 41.7089 14.6055 42.7795 15.375 43.5493L15.3828 43.5571C16.1523 44.3269 17.2227 44.8076 18.3984 44.8076C19.5703 44.8076 20.6367 44.3269 21.4141 43.5493C22.1875 42.7756 22.6719 41.705 22.6719 40.5327V22.8004C21.793 22.4018 21.2109 21.718 21.2109 20.9404C21.2109 20.9209 21.2109 20.9013 21.2109 20.8818H19.9219L16.8672 24.6291L13.6914 20.8818H12.9297L9.85938 24.6486L6.66797 20.8818H6.25L3.19531 24.6291L0.0195312 20.8818H0C2.44141 10.4683 11.4805 2.59459 22.4688 1.9225L23.9336 0L25.2734 1.90687Z" fill="#00723F"/>
</svg>
