<svg width="48" height="44" viewBox="0 0 48 44" fill="none" xmlns="http://www.w3.org/2000/svg">
<path fill-rule="evenodd" clip-rule="evenodd" d="M28.2649 16.0656C28.4215 16.3492 28.5065 16.674 28.511 17.0061C28.511 18.7792 26.027 20.2201 22.9611 20.2201C19.8952 20.2201 17.4151 18.7792 17.4151 17.0061C17.4194 16.666 17.5072 16.3335 17.669 16.0441C18.3759 17.3383 20.4771 18.296 22.9611 18.296C25.4451 18.296 27.5268 17.3599 28.2454 16.0699C28.2454 16.0397 28.2454 16.0354 28.2688 16.0699L28.2649 16.0656ZM9.807 38.171V21.4367H16.6262C19.5281 22.0018 22.4026 23.7274 25.2928 25.7464H30.5849C32.9829 25.906 34.2366 28.5894 31.9089 30.3496C30.0537 31.8552 27.6127 31.7689 25.0897 31.523C23.3595 31.4281 23.2853 33.9949 25.0897 34.0036C25.7185 34.0597 26.402 33.8957 26.9956 33.8957C30.1201 33.8957 32.7095 33.2314 34.2874 30.4962L35.0685 28.4514L42.9618 24.1588C46.9025 22.7266 49.7068 27.2779 46.801 30.4445C41.308 34.8754 35.4313 38.6947 29.257 41.8466C24.91 44.7672 20.5631 44.668 16.2239 41.8466L9.807 38.171ZM0 19.8448H7.75655V39.8535H0V19.8448ZM44.3287 17.2951C44.4475 17.5823 44.5101 17.894 44.5123 18.2097C44.5123 20.3668 41.4659 22.1485 37.7126 22.1485C33.9593 22.1485 30.9129 20.384 30.9129 18.2097C30.9188 17.7932 31.0267 17.3861 31.2254 17.032C32.0924 18.6325 34.6701 19.793 37.7126 19.793C40.5793 19.793 43.0164 18.8051 44.0241 17.3297C44.2428 17.0061 44.1608 16.8983 44.3287 17.2951ZM44.2545 12.3728C44.4191 12.702 44.5077 13.071 44.5123 13.447C44.5123 15.604 41.4659 17.3857 37.7126 17.3857C33.9593 17.3857 30.9129 15.6213 30.9129 13.447C30.9228 13.0227 31.0376 12.6094 31.2449 12.252C32.112 13.8525 34.6897 15.013 37.7321 15.013C40.7043 15.013 43.2273 13.9129 44.1491 12.3771C44.2389 12.2304 44.2038 12.2045 44.2741 12.3555L44.2545 12.3728ZM40.1614 2.4504L40.0911 3.31321L36.7518 2.98966C37.0285 3.37951 37.2245 3.83158 37.326 4.31408L36.5214 4.23211C36.4462 3.92357 36.3233 3.63169 36.1582 3.3693C35.9948 3.0697 35.754 2.83084 35.4669 2.68336L35.5411 1.88957L40.1224 2.32098C40.2122 2.32098 40.1849 2.32098 40.1732 2.43746L40.1614 2.4504ZM38.0798 0.811047C40.9933 0.8887 43.3016 1.94565 43.3016 3.22262C43.3016 4.5643 40.7981 5.64713 37.7126 5.64713C34.6272 5.64713 32.1237 4.55998 32.1237 3.22262C32.1237 1.94996 34.3968 0.905957 37.2752 0.811047C37.5447 0.811047 37.8142 0.811047 38.0798 0.811047ZM38.1735 0C41.712 0.142365 44.524 1.85505 44.524 3.93876C44.524 6.0958 41.4776 7.87751 37.7243 7.87751C33.971 7.87751 30.9247 6.10874 30.9247 3.93876C30.9129 1.85937 33.7016 0.150993 37.2322 0C37.5447 0 37.861 0 38.1735 0ZM44.524 8.7619C44.524 10.9189 41.4776 12.7007 37.7243 12.7007C33.971 12.7007 30.9247 10.9362 30.9247 8.7619C30.9278 8.36338 31.0276 7.97308 31.2137 7.63161C32.026 9.2537 34.635 10.4401 37.7126 10.4401C39.7279 10.4401 43.1219 9.77139 44.2272 7.63161C44.4105 7.97417 44.5088 8.36401 44.5123 8.7619H44.524ZM24.9959 7.95085L24.9295 8.74464L22.1956 8.4858C22.4175 8.80565 22.5735 9.17522 22.6526 9.56863L21.9847 9.49098C21.9244 9.23705 21.8253 8.99634 21.6918 8.77915C21.5547 8.53695 21.3584 8.34252 21.1255 8.21832L21.1762 7.57552L24.9647 7.93791L24.9959 7.95085ZM23.7032 6.72565C25.8825 6.87233 27.5502 7.692 27.5502 8.67562C27.5502 9.76708 25.5076 10.6515 22.9885 10.6515C20.4693 10.6515 18.4306 9.76276 18.4306 8.67562C18.4306 7.71357 20.0163 6.91116 22.1175 6.73859C22.6453 6.69545 23.1753 6.69545 23.7032 6.73859V6.72565ZM23.8047 6.07854C26.4527 6.30718 28.511 7.64455 28.511 9.25801C28.511 11.0311 26.027 12.472 22.9611 12.472C19.8952 12.472 17.4151 11.0311 17.4151 9.25801C17.4151 7.64023 19.4773 6.30287 22.1605 6.07854C22.6986 6.03106 23.2393 6.03106 23.7774 6.07854H23.8047ZM28.3001 12.321C28.4312 12.5859 28.5022 12.882 28.5071 13.1838C28.511 14.9699 26.0231 16.3935 22.9572 16.3935C19.8913 16.3935 17.4112 14.9526 17.4112 13.1795C17.4113 12.8539 17.4924 12.5345 17.6456 12.2563C18.3291 13.5807 20.4459 14.5471 22.9572 14.5471C25.4685 14.5471 27.5385 13.6023 28.2493 12.3038C28.2806 12.2434 28.2493 12.239 28.3001 12.3038V12.321Z" fill="#00723F"/>
</svg>
