<svg width="50" height="48" viewBox="0 0 50 48" fill="none" xmlns="http://www.w3.org/2000/svg">
<g clip-path="url(#clip0_692_1274)">
<path d="M14.0951 8.5051H35.9049C36.6434 8.50586 37.3744 8.65848 38.0559 8.95418C38.7375 9.24988 39.3561 9.68284 39.8763 10.2282C40.3998 10.7705 40.8152 11.4151 41.0987 12.1248C41.3822 12.8346 41.5282 13.5957 41.5283 14.3643V33.6397C41.524 35.19 40.9302 36.6756 39.8765 37.7719C38.8229 38.8681 37.395 39.486 35.9049 39.4905H14.0951C12.6043 39.4871 11.1754 38.8697 10.1208 37.7734C9.06631 36.677 8.47191 35.1908 8.46761 33.6397V14.3601C8.46812 13.5928 8.61432 12.8331 8.89783 12.1248C9.18133 11.4164 9.59655 10.7733 10.1196 10.2324C10.6403 9.68948 11.2586 9.25862 11.9393 8.96443C12.62 8.67023 13.3498 8.51847 14.0869 8.5178L14.0951 8.5051ZM23.2544 31.3663C23.0469 31.3663 22.9167 31.3282 22.762 31.3028L21.9035 31.1715L21.3704 31.0784C21.1995 31.0488 21.0246 31.0107 20.8577 30.9726L20.3451 30.8286L20.1457 30.7736V27.3105L21.0856 27.391L21.7773 27.4333L22.5016 27.4672L23.2341 27.4926H23.9502H24.6134C24.8128 27.4926 24.9919 27.4926 25.1424 27.4926C25.2792 27.478 25.415 27.4553 25.5493 27.4248C25.6503 27.4025 25.7486 27.3684 25.8423 27.3232C25.9062 27.29 25.9652 27.2472 26.0173 27.1962C26.0581 27.1567 26.0888 27.1072 26.1068 27.0523C26.1313 26.9789 26.1424 26.9013 26.1393 26.8237V26.5951C26.1458 26.5195 26.1339 26.4435 26.1047 26.3739C26.0756 26.3044 26.0301 26.2436 25.9725 26.1971C25.903 26.1464 25.826 26.1078 25.7446 26.0828C25.6525 26.0527 25.5563 26.0384 25.4598 26.0405H24.5158C23.8592 26.0506 23.2046 25.9651 22.5708 25.7865C22.0347 25.6298 21.5377 25.3539 21.1141 24.9778C20.6938 24.5984 20.3814 24.1064 20.2108 23.5554C20.0111 22.8972 19.919 22.2089 19.9382 21.519V20.8925C19.9274 20.2309 20.0364 19.5731 20.2596 18.9535C20.4685 18.4025 20.8087 17.9158 21.2484 17.5395C21.5424 17.2724 21.8695 17.0475 22.2209 16.8706C22.5555 16.7096 22.9103 16.5984 23.2747 16.5404V15.0036H26.3428V16.4769C26.8126 16.5216 27.2799 16.5923 27.7425 16.6886L27.9989 16.7351C28.2145 16.7732 28.4302 16.8156 28.6418 16.8621C28.8534 16.9087 29.0487 16.951 29.2155 16.9976L29.423 17.0484V20.5157L29.13 20.486L28.2389 20.4183L27.2217 20.3633C26.8677 20.3633 26.534 20.3379 26.2248 20.3294C25.9155 20.3209 25.6348 20.3209 25.3215 20.3209C25.1546 20.3209 25 20.3209 24.8576 20.3209C24.7211 20.3298 24.5853 20.3468 24.4507 20.3717C24.351 20.3902 24.254 20.4215 24.1618 20.4649C24.0919 20.4976 24.0284 20.5435 23.9746 20.6004C23.9282 20.6476 23.8933 20.7056 23.8729 20.7697C23.8466 20.866 23.8342 20.9659 23.8363 21.066V21.2566C23.8339 21.3618 23.8505 21.4666 23.8851 21.5656C23.9155 21.6423 23.9646 21.7094 24.0275 21.7603C24.1058 21.8256 24.1978 21.8705 24.2961 21.8916C24.4451 21.9301 24.5982 21.9486 24.7518 21.9466H25.9725C26.3828 21.944 26.7921 21.988 27.1932 22.0779C27.5557 22.1658 27.9039 22.3084 28.2267 22.5012C28.8206 22.8425 29.3035 23.3597 29.6143 23.9872C29.7722 24.3005 29.8911 24.6333 29.9683 24.9778C30.0438 25.3423 30.082 25.7142 30.0822 26.087V26.7178C30.0878 27.2712 30.0346 27.8235 29.9235 28.3647C29.8338 28.8153 29.667 29.2455 29.4312 29.6348C29.2145 29.9757 28.9385 30.2715 28.6174 30.5069C28.2926 30.7497 27.9288 30.9303 27.5431 31.0403L27.4414 31.0699C27.0735 31.1938 26.6945 31.2789 26.3102 31.3239V32.9835H23.2544V31.3493V31.3663ZM44.4621 25.8034V28.9151C44.4631 29.0697 44.5226 29.2176 44.6277 29.3269C44.7328 29.4363 44.875 29.4982 45.0236 29.4993H49.4385C49.5871 29.4982 49.7293 29.4363 49.8344 29.3269C49.9394 29.2176 49.9989 29.0697 50 28.9151V25.7865C50 25.6315 49.9408 25.4829 49.8355 25.3733C49.7302 25.2638 49.5874 25.2022 49.4385 25.2022H45.0236C44.8747 25.2022 44.7319 25.2638 44.6265 25.3733C44.5212 25.4829 44.4621 25.6315 44.4621 25.7865V25.8034ZM44.4621 18.6275V21.7519C44.4621 21.9068 44.5212 22.0554 44.6265 22.165C44.7319 22.2746 44.8747 22.3361 45.0236 22.3361H49.4385C49.5874 22.3361 49.7302 22.2746 49.8355 22.165C49.9408 22.0554 50 21.9068 50 21.7519V18.6275C50 18.4726 49.9408 18.324 49.8355 18.2144C49.7302 18.1048 49.5874 18.0433 49.4385 18.0433H45.0236C44.8747 18.0433 44.7319 18.1048 44.6265 18.2144C44.5212 18.324 44.4621 18.4726 44.4621 18.6275ZM44.4621 32.9835V36.1079C44.4621 36.2628 44.5212 36.4114 44.6265 36.521C44.7319 36.6305 44.8747 36.6921 45.0236 36.6921H49.4385C49.5874 36.6921 49.7302 36.6305 49.8355 36.521C49.9408 36.4114 50 36.2628 50 36.1079V32.9666C50 32.8116 49.9408 32.663 49.8355 32.5534C49.7302 32.4439 49.5874 32.3823 49.4385 32.3823H45.0236C44.8747 32.3823 44.7319 32.4439 44.6265 32.5534C44.5212 32.663 44.4621 32.8116 44.4621 32.9666V32.9835ZM44.4621 11.4474V14.576C44.4621 14.731 44.5212 14.8796 44.6265 14.9891C44.7319 15.0987 44.8747 15.1602 45.0236 15.1602H49.4385C49.5874 15.1602 49.7302 15.0987 49.8355 14.9891C49.9408 14.8796 50 14.731 50 14.576V11.4305C49.9989 11.2759 49.9394 11.1279 49.8344 11.0186C49.7293 10.9093 49.5871 10.8474 49.4385 10.8463H45.0236C44.875 10.8474 44.7328 10.9093 44.6277 11.0186C44.5226 11.1279 44.4631 11.2759 44.4621 11.4305V11.4474ZM5.53792 25.7865V28.9151C5.53686 29.0697 5.47736 29.2176 5.37228 29.3269C5.2672 29.4363 5.125 29.4982 4.9764 29.4993H0.561523C0.412927 29.4982 0.27072 29.4363 0.165644 29.3269C0.0605676 29.2176 0.00106525 29.0697 0 28.9151L0 25.7865C0 25.6315 0.0591603 25.4829 0.164466 25.3733C0.269772 25.2638 0.412598 25.2022 0.561523 25.2022H4.9764C5.12533 25.2022 5.26815 25.2638 5.37346 25.3733C5.47876 25.4829 5.53792 25.6315 5.53792 25.7865ZM5.53792 18.6106V21.7349C5.53792 21.8899 5.47876 22.0385 5.37346 22.1481C5.26815 22.2576 5.12533 22.3192 4.9764 22.3192H0.561523C0.412598 22.3192 0.269772 22.2576 0.164466 22.1481C0.0591603 22.0385 0 21.8899 0 21.7349L0 18.6275C0 18.4726 0.0591603 18.324 0.164466 18.2144C0.269772 18.1048 0.412598 18.0433 0.561523 18.0433H4.9764C5.12533 18.0433 5.26815 18.1048 5.37346 18.2144C5.47876 18.324 5.53792 18.4726 5.53792 18.6275V18.6106ZM5.53792 32.9666V36.0909C5.53792 36.2459 5.47876 36.3945 5.37346 36.504C5.26815 36.6136 5.12533 36.6751 4.9764 36.6751H0.561523C0.412598 36.6751 0.269772 36.6136 0.164466 36.504C0.0591603 36.3945 0 36.2459 0 36.0909L0 32.9666C0 32.8116 0.0591603 32.663 0.164466 32.5534C0.269772 32.4439 0.412598 32.3823 0.561523 32.3823H4.9764C5.12533 32.3823 5.26815 32.4439 5.37346 32.5534C5.47876 32.663 5.53792 32.8116 5.53792 32.9666ZM5.53792 11.4305V14.5591C5.53792 14.714 5.47876 14.8626 5.37346 14.9722C5.26815 15.0818 5.12533 15.1433 4.9764 15.1433H0.561523C0.412598 15.1433 0.269772 15.0818 0.164466 14.9722C0.0591603 14.8626 0 14.714 0 14.5591L0 11.4305C0.00106525 11.2759 0.0605676 11.1279 0.165644 11.0186C0.27072 10.9093 0.412927 10.8474 0.561523 10.8463H4.9764C5.125 10.8474 5.2672 10.9093 5.37228 11.0186C5.47736 11.1279 5.53686 11.2759 5.53792 11.4305ZM33.846 42.238H36.849C36.9979 42.238 37.1407 42.2996 37.246 42.4092C37.3513 42.5187 37.4105 42.6673 37.4105 42.8223V47.4157C37.4105 47.5706 37.3513 47.7192 37.246 47.8288C37.1407 47.9383 36.9979 47.9999 36.849 47.9999H33.846C33.6971 47.9999 33.5543 47.9383 33.449 47.8288C33.3437 47.7192 33.2845 47.5706 33.2845 47.4157V42.8223C33.2845 42.6673 33.3437 42.5187 33.449 42.4092C33.5543 42.2996 33.6971 42.238 33.846 42.238ZM26.9287 42.238H29.9357C30.0111 42.2352 30.0864 42.2482 30.1569 42.2763C30.2273 42.3044 30.2917 42.3469 30.346 42.4015C30.4003 42.456 30.4435 42.5214 30.473 42.5937C30.5025 42.666 30.5176 42.7437 30.5176 42.8223V47.4157C30.5176 47.5706 30.4584 47.7192 30.3531 47.8288C30.2478 47.9383 30.105 47.9999 29.9561 47.9999H26.945C26.7964 47.9988 26.6542 47.9369 26.5491 47.8276C26.444 47.7182 26.3845 47.5703 26.3835 47.4157V42.8223C26.3845 42.6677 26.444 42.5197 26.5491 42.4104C26.6542 42.3011 26.7964 42.2391 26.945 42.238H26.9287ZM20.0317 42.238H23.0347C23.184 42.238 23.3272 42.2994 23.4332 42.4089C23.5391 42.5183 23.5992 42.6669 23.6003 42.8223V47.4157C23.5992 47.571 23.5391 47.7196 23.4332 47.829C23.3272 47.9385 23.184 47.9999 23.0347 47.9999H20.048C19.9743 47.9999 19.9013 47.9848 19.8331 47.9554C19.765 47.9261 19.7031 47.883 19.651 47.8288C19.5988 47.7745 19.5575 47.7101 19.5292 47.6392C19.501 47.5684 19.4865 47.4924 19.4865 47.4157V42.8223C19.4865 42.7455 19.501 42.6696 19.5292 42.5987C19.5575 42.5278 19.5988 42.4634 19.651 42.4092C19.7031 42.3549 19.765 42.3119 19.8331 42.2825C19.9013 42.2531 19.9743 42.238 20.048 42.238H20.0317ZM13.1144 42.238H16.154C16.3029 42.238 16.4457 42.2996 16.551 42.4092C16.6563 42.5187 16.7155 42.6673 16.7155 42.8223V47.4157C16.7155 47.5706 16.6563 47.7192 16.551 47.8288C16.4457 47.9383 16.3029 47.9999 16.154 47.9999H13.151C13.0021 47.9999 12.8593 47.9383 12.754 47.8288C12.6487 47.7192 12.5895 47.5706 12.5895 47.4157V42.8223C12.5895 42.6673 12.6487 42.5187 12.754 42.4092C12.8593 42.2996 13.0021 42.238 13.151 42.238H13.1144ZM33.846 -0.000104655H36.849C36.9979 -0.000104655 37.1407 0.061448 37.246 0.171012C37.3513 0.280577 37.4105 0.429178 37.4105 0.584125V5.17753C37.4105 5.33248 37.3513 5.48108 37.246 5.59064C37.1407 5.70021 36.9979 5.76176 36.849 5.76176H33.846C33.6971 5.76176 33.5543 5.70021 33.449 5.59064C33.3437 5.48108 33.2845 5.33248 33.2845 5.17753V0.584125C33.2845 0.429178 33.3437 0.280577 33.449 0.171012C33.5543 0.061448 33.6971 -0.000104655 33.846 -0.000104655ZM26.9287 -0.000104655H29.9357C30.0111 -0.00295019 30.0864 0.0100576 30.1569 0.0381412C30.2273 0.0662248 30.2917 0.108808 30.346 0.163345C30.4003 0.217881 30.4435 0.283253 30.473 0.35555C30.5025 0.427848 30.5176 0.505589 30.5176 0.584125V5.17753C30.5176 5.33248 30.4584 5.48108 30.3531 5.59064C30.2478 5.70021 30.105 5.76176 29.9561 5.76176H26.945C26.7964 5.76065 26.6542 5.69874 26.5491 5.58942C26.444 5.48009 26.3845 5.33213 26.3835 5.17753V0.584125C26.3845 0.42952 26.444 0.281562 26.5491 0.172237C26.6542 0.0629122 26.7964 0.00100367 26.945 -0.000104655H26.9287ZM20.048 -0.000104655H23.0509C23.1974 0.00427889 23.3365 0.06763 23.439 0.176606C23.5415 0.285583 23.5993 0.431679 23.6003 0.584125V5.17753C23.5992 5.33286 23.5391 5.48146 23.4332 5.5909C23.3272 5.70035 23.184 5.76176 23.0347 5.76176H20.048C19.9743 5.76176 19.9013 5.74665 19.8331 5.71729C19.765 5.68793 19.7031 5.64489 19.651 5.59064C19.5988 5.53639 19.5575 5.47199 19.5292 5.4011C19.501 5.33022 19.4865 5.25425 19.4865 5.17753V0.584125C19.4865 0.507403 19.501 0.431432 19.5292 0.36055C19.5575 0.289668 19.5988 0.225263 19.651 0.171012C19.7031 0.116762 19.765 0.0737275 19.8331 0.0443672C19.9013 0.0150069 19.9743 -0.000104655 20.048 -0.000104655ZM13.1307 -0.000104655H16.154C16.3029 -0.000104655 16.4457 0.061448 16.551 0.171012C16.6563 0.280577 16.7155 0.429178 16.7155 0.584125V5.17753C16.7155 5.33248 16.6563 5.48108 16.551 5.59064C16.4457 5.70021 16.3029 5.76176 16.154 5.76176H13.151C13.0021 5.76176 12.8593 5.70021 12.754 5.59064C12.6487 5.48108 12.5895 5.33248 12.5895 5.17753V0.584125C12.5895 0.429178 12.6487 0.280577 12.754 0.171012C12.8593 0.061448 13.0021 -0.000104655 13.151 -0.000104655H13.1307ZM35.9049 11.4305H14.0951C13.7281 11.4292 13.3645 11.5034 13.0251 11.6487C12.6858 11.794 12.3773 12.0076 12.1175 12.2772C11.8584 12.5475 11.6531 12.8684 11.5134 13.2215C11.3738 13.5746 11.3025 13.9529 11.3037 14.3347V33.6397C11.309 34.4112 11.6063 35.1495 12.131 35.6946C12.6557 36.2398 13.3657 36.5479 14.1073 36.5524H35.9172C36.6587 36.5479 37.3687 36.2398 37.8934 35.6946C38.4182 35.1495 38.7154 34.4112 38.7207 33.6397V14.3601C38.7218 13.5892 38.4292 12.8494 37.9069 12.3026C37.6471 12.033 37.3386 11.8194 36.9993 11.6741C36.6599 11.5288 36.2963 11.4546 35.9294 11.4559L35.9049 11.4305Z" fill="#00723F"/>
</g>
<defs>
<clipPath id="clip0_692_1274">
<rect width="50" height="48" fill="white"/>
</clipPath>
</defs>
</svg>
