<svg width="40" height="48" viewBox="0 0 40 48" fill="none" xmlns="http://www.w3.org/2000/svg">
<path d="M6.86533 25.4182C7.16948 25.7542 7.13569 26.2542 6.7724 26.5354C6.40911 26.8167 5.8684 26.7854 5.56425 26.4495C1.86375 22.4495 -0.0456392 17.9221 0.00082826 13.3401C0.0472957 8.86744 1.93556 4.37135 5.80926 0.265881C6.11341 -0.0583378 6.65412 -0.0895878 7.01741 0.191662C7.36803 0.472912 7.40604 0.972912 7.09767 1.30885C3.50278 5.10963 1.74547 9.25807 1.71167 13.3518C1.67788 17.5549 3.43519 21.7112 6.86533 25.4182ZM22.0095 15.6839C22.4911 21.1917 23.5767 26.3323 25.1566 30.8518H14.5578C16.1504 26.2776 17.2571 21.0706 17.7598 15.4768L17.7387 15.4573C17.1515 14.9143 16.8009 14.1799 16.8009 13.3557C16.8009 12.5315 17.1642 11.7971 17.7387 11.2542C18.3259 10.7112 19.1201 10.387 20.0114 10.387C20.9027 10.387 21.6969 10.7229 22.2841 11.2542C22.8712 11.7971 23.2219 12.5315 23.2219 13.3557C23.2219 13.8128 23.112 14.2385 22.9135 14.6253C22.6812 15.0628 22.377 15.4182 22.0095 15.6839ZM25.7142 32.3713C26.1197 33.426 26.5548 34.4456 27.0195 35.4221H12.7076C13.1638 34.4456 13.5947 33.426 14.0002 32.3713H25.7142ZM27.7757 36.9495C29.0937 39.4573 35.2358 46.3909 35.2358 46.9846C35.2358 47.3245 35.1429 47.6643 34.9528 48.0042H28.4135C28.4769 41.2424 19.251 38.0237 14.1438 42.5901C12.6231 43.9495 11.8289 45.8245 11.4656 48.0042H5.04466C4.84189 47.6721 4.77008 47.3128 4.79542 46.9338C4.83766 46.3128 10.6841 39.4104 11.9556 36.9534H27.7757V36.9495ZM11.3389 21.5706C11.6557 21.8948 11.6219 22.3948 11.2671 22.6878C10.9164 22.9807 10.3757 22.9495 10.0589 22.6213C7.21173 19.6448 5.75012 16.4924 5.80926 13.2971C5.8684 10.1878 7.35535 7.07057 10.3884 4.0901C10.7179 3.7776 11.2544 3.75416 11.5966 4.05885C11.9345 4.36354 11.9599 4.85963 11.6304 5.17604C8.90145 7.86354 7.5539 10.6135 7.50743 13.3206C7.46096 16.1135 8.7705 18.9104 11.3262 21.5862L11.3389 21.5706ZM15.2971 17.9104C15.5885 18.2463 15.5421 18.7424 15.1661 19.0159C14.8028 19.2854 14.2663 19.2424 13.9706 18.8987C12.4372 17.1565 11.6388 15.2581 11.6261 13.3323C11.6135 11.4573 12.3738 9.57447 13.9326 7.80885C14.2241 7.47291 14.7648 7.41822 15.1281 7.68776C15.4914 7.95729 15.5505 8.45729 15.259 8.79322C13.958 10.2659 13.3285 11.8167 13.3285 13.3206C13.3285 14.8674 14.0086 16.4299 15.2844 17.8909L15.2971 17.9104ZM34.4374 26.4456C34.1333 26.7815 33.5926 26.8128 33.2293 26.5315C32.866 26.2503 32.8322 25.7503 33.1363 25.4143C36.5665 21.7112 38.3364 17.5393 38.29 13.3479C38.2562 9.25807 36.4989 5.10963 32.904 1.30885C32.5998 0.984631 32.6336 0.484631 32.9842 0.191662C33.3349 -0.0895878 33.8756 -0.0583378 34.1924 0.265881C38.0703 4.37135 39.9544 8.86744 40.0008 13.3401C40.0473 17.9221 38.1379 22.4495 34.4374 26.4456ZM29.9512 22.6096C29.6344 22.9339 29.0979 22.969 28.743 22.676C28.3924 22.3831 28.3544 21.887 28.6712 21.5588C31.2354 18.8831 32.5365 16.0901 32.49 13.2932C32.4435 10.5745 31.096 7.82447 28.3671 5.14869C28.0376 4.83619 28.0629 4.33619 28.4009 4.03151C28.7388 3.72682 29.2795 3.75026 29.609 4.06276C32.6463 7.04713 34.1333 10.1565 34.1924 13.2737C34.2515 16.469 32.7984 19.6213 29.9427 22.5979L29.9512 22.6096ZM26.0395 18.8948C25.748 19.2307 25.2073 19.2854 24.844 19.012C24.4807 18.7424 24.4216 18.2424 24.713 17.9065C26.0015 16.4456 26.6689 14.8831 26.6689 13.3362C26.6689 11.8206 26.0479 10.2815 24.7384 8.80885C24.4469 8.47291 24.4934 7.97291 24.8693 7.70338C25.2326 7.43385 25.7733 7.47682 26.0648 7.82057C27.6236 9.58619 28.384 11.469 28.3713 13.344C28.3586 15.2737 27.5645 17.1565 26.0268 18.9104L26.0395 18.8948Z" fill="#00723F"/>
</svg>
