<svg width="46" height="48" viewBox="0 0 46 48" fill="none" xmlns="http://www.w3.org/2000/svg">
<path d="M11.4259 25.5415L11.1559 33.6383L8.18641 31.5604L5.2169 33.2829L5.82905 24.6041L1.62382 24.0105V42.2038L17.114 44.0122V26.1899L11.4259 25.5415ZM37.2124 2.32535C37.372 2.29411 37.5355 2.32535 37.6724 2.41128C37.9044 2.50893 38.0678 2.74328 38.0716 3.02059L38.2047 21.7646L45.0068 22.6825C45.1665 22.6512 45.33 22.6825 45.4669 22.7684C45.6988 22.8661 45.8623 23.1004 45.8661 23.3777L45.9992 42.5904C46.0106 42.8248 45.8966 43.0591 45.6874 43.188L38.0488 47.8672C37.9424 47.9492 37.8055 48 37.661 48C37.6268 48 37.5888 47.9961 37.5584 47.9922L17.7375 45.7268C17.6881 45.7229 17.6425 45.7151 17.5968 45.7034L0.612439 43.4614C0.270242 43.4458 0.000285942 43.1529 0.000285942 42.8014V23.2605C-0.00731845 22.9989 0.137165 22.745 0.384307 22.6356L9.32707 18.5931V5.1727C9.31946 4.91101 9.46395 4.65713 9.71109 4.54776L19.6538 0.0560725C19.7565 0.00920264 19.8744 -0.0103265 19.996 0.00529682L37.2124 2.32535ZM37.5888 23.0145L31.6117 26.6781L37.5469 27.4554L43.2312 23.7761L37.5888 23.0145ZM9.32707 21.7334V20.0382L2.98501 22.9012L6.62371 23.3777L9.32707 21.7334ZM30.5091 8.52779V25.8149L36.2162 22.3153L36.912 21.7099L36.7903 4.46184L30.5091 8.52779ZM28.8741 26.2407V8.35984L20.7641 7.25059L20.4865 15.5505L17.517 13.4726L14.5475 15.195L15.1596 6.5163L10.6122 5.91871V24.112L28.8741 26.2407ZM27.8818 2.40347L21.6462 6.03979L29.7563 7.10217L35.4405 3.42289L27.8818 2.40347ZM15.9581 5.28987L22.0036 1.60668L20.0112 1.33718L12.3194 4.80945L15.9581 5.28987ZM38.2998 28.881V46.1682L44.7065 42.2428L44.581 24.8151L38.2998 28.881ZM36.6648 46.5939V28.7131L28.5548 27.6038L28.2772 35.9037L25.3077 33.8258L22.3382 35.5483L22.9503 26.8695L18.7451 26.4477V44.641L36.6648 46.5939Z" fill="#00723F"/>
</svg>
