<svg width="103" height="122" viewBox="0 0 103 122" fill="none" xmlns="http://www.w3.org/2000/svg">
<g filter="url(#filter0_d_153_3590)">
<rect x="4.5" width="94" height="94" rx="16" fill="#E5EAE8"/>
</g>
<path d="M38.4453 112.93H35.5391L35.5234 111.414H38.0156C38.4427 111.414 38.7995 111.354 39.0859 111.234C39.3724 111.115 39.5885 110.94 39.7344 110.711C39.8854 110.482 39.9609 110.203 39.9609 109.875C39.9609 109.51 39.8906 109.214 39.75 108.984C39.6146 108.755 39.401 108.589 39.1094 108.484C38.8177 108.375 38.4479 108.32 38 108.32H36.2344V118H34.0859V106.625H38C38.6458 106.625 39.2214 106.688 39.7266 106.812C40.237 106.932 40.6693 107.12 41.0234 107.375C41.3776 107.63 41.6458 107.951 41.8281 108.336C42.0156 108.721 42.1094 109.18 42.1094 109.711C42.1094 110.18 42 110.612 41.7812 111.008C41.5677 111.398 41.237 111.716 40.7891 111.961C40.3464 112.206 39.7839 112.346 39.1016 112.383L38.4453 112.93ZM38.3516 118H34.9062L35.8047 116.312H38.3516C38.7786 116.312 39.1302 116.242 39.4062 116.102C39.6875 115.961 39.8958 115.768 40.0312 115.523C40.1719 115.273 40.2422 114.987 40.2422 114.664C40.2422 114.31 40.1797 114.003 40.0547 113.742C39.9349 113.482 39.7422 113.281 39.4766 113.141C39.2161 113 38.8724 112.93 38.4453 112.93H36.2109L36.2266 111.414H39.0703L39.5625 112C40.2188 112.005 40.7526 112.135 41.1641 112.391C41.5807 112.646 41.888 112.974 42.0859 113.375C42.2839 113.776 42.3828 114.208 42.3828 114.672C42.3828 115.401 42.224 116.013 41.9062 116.508C41.5938 117.003 41.1354 117.375 40.5312 117.625C39.9323 117.875 39.2057 118 38.3516 118ZM48.7422 116.203V112.305C48.7422 112.018 48.6927 111.771 48.5938 111.562C48.4948 111.354 48.3438 111.193 48.1406 111.078C47.9375 110.964 47.6797 110.906 47.3672 110.906C47.0911 110.906 46.849 110.953 46.6406 111.047C46.4375 111.141 46.2812 111.273 46.1719 111.445C46.0625 111.612 46.0078 111.805 46.0078 112.023H43.9375C43.9375 111.674 44.0208 111.344 44.1875 111.031C44.3542 110.714 44.5911 110.432 44.8984 110.188C45.2109 109.938 45.5833 109.742 46.0156 109.602C46.4531 109.461 46.9427 109.391 47.4844 109.391C48.125 109.391 48.6953 109.5 49.1953 109.719C49.7005 109.932 50.0964 110.255 50.3828 110.688C50.6745 111.12 50.8203 111.664 50.8203 112.32V116.008C50.8203 116.43 50.8464 116.792 50.8984 117.094C50.9557 117.391 51.0391 117.648 51.1484 117.867V118H49.0469C48.9479 117.786 48.8724 117.516 48.8203 117.188C48.7682 116.854 48.7422 116.526 48.7422 116.203ZM49.0312 112.852L49.0469 114.078H47.7422C47.4193 114.078 47.1354 114.112 46.8906 114.18C46.6458 114.242 46.4453 114.336 46.2891 114.461C46.1328 114.581 46.0156 114.727 45.9375 114.898C45.8594 115.065 45.8203 115.255 45.8203 115.469C45.8203 115.677 45.8672 115.865 45.9609 116.031C46.0599 116.198 46.2005 116.331 46.3828 116.43C46.5703 116.523 46.7891 116.57 47.0391 116.57C47.4036 116.57 47.7214 116.497 47.9922 116.352C48.263 116.201 48.474 116.018 48.625 115.805C48.776 115.591 48.8568 115.388 48.8672 115.195L49.4609 116.086C49.388 116.299 49.2786 116.526 49.1328 116.766C48.987 117.005 48.7995 117.229 48.5703 117.438C48.3411 117.646 48.0651 117.818 47.7422 117.953C47.4193 118.089 47.0443 118.156 46.6172 118.156C46.0703 118.156 45.5807 118.047 45.1484 117.828C44.7161 117.609 44.375 117.31 44.125 116.93C43.875 116.549 43.75 116.117 43.75 115.633C43.75 115.185 43.8333 114.789 44 114.445C44.1667 114.102 44.4141 113.812 44.7422 113.578C45.0703 113.339 45.4766 113.159 45.9609 113.039C46.4505 112.914 47.0104 112.852 47.6406 112.852H49.0312ZM54.7031 111.352V118H52.6406V109.547H54.5781L54.7031 111.352ZM54.375 113.469H53.7656C53.7708 112.854 53.8542 112.297 54.0156 111.797C54.1771 111.297 54.4036 110.867 54.6953 110.508C54.9922 110.148 55.3438 109.872 55.75 109.68C56.1562 109.487 56.6094 109.391 57.1094 109.391C57.5156 109.391 57.8828 109.448 58.2109 109.562C58.5391 109.677 58.8203 109.859 59.0547 110.109C59.2943 110.359 59.4766 110.688 59.6016 111.094C59.7318 111.495 59.7969 111.99 59.7969 112.578V118H57.7188V112.562C57.7188 112.177 57.6615 111.872 57.5469 111.648C57.4375 111.424 57.276 111.266 57.0625 111.172C56.8542 111.078 56.5964 111.031 56.2891 111.031C55.9714 111.031 55.6927 111.096 55.4531 111.227C55.2188 111.352 55.0208 111.526 54.8594 111.75C54.7031 111.974 54.5833 112.232 54.5 112.523C54.4167 112.815 54.375 113.13 54.375 113.469ZM63.6797 105.992V118H61.6172V105.992H63.6797ZM68.9766 109.547L65.2969 113.68L63.3047 115.703L62.6484 114.102L64.1875 112.164L66.4844 109.547H68.9766ZM66.8672 118L64.25 114.062L65.625 112.727L69.2578 118H66.8672Z" fill="#002E19"/>
<path fill-rule="evenodd" clip-rule="evenodd" d="M28.1125 41.7119L51.5 23L75.0071 41.7119H28.1125ZM27 69.0171H30.6208V66.1691H31.1471V64.8104H32.6824V48.5101H29.5441V44.6048H73.4519V48.5101H70.3176V64.8104H71.8529V66.1691H72.3792V69.0171H76V72H27V69.0171ZM39.9957 66.1691H41.7662V64.8104H43.3014V48.5101H38.4604V64.8104H39.9957V66.1691ZM50.6147 66.1691H52.3892V64.8104H53.9205V48.5101H49.0795V64.8104H50.6147V66.1691ZM61.2338 66.1691H63.0083V64.8104H64.5435V48.5101H59.6986V64.8104H61.2338V66.1691ZM43.6244 36.9923L51.5359 30.1446L59.4912 36.9923H43.6244Z" fill="#00723F"/>
<defs>
<filter id="filter0_d_153_3590" x="0.5" y="0" width="102" height="102" filterUnits="userSpaceOnUse" color-interpolation-filters="sRGB">
<feFlood flood-opacity="0" result="BackgroundImageFix"/>
<feColorMatrix in="SourceAlpha" type="matrix" values="0 0 0 0 0 0 0 0 0 0 0 0 0 0 0 0 0 0 127 0" result="hardAlpha"/>
<feOffset dy="4"/>
<feGaussianBlur stdDeviation="2"/>
<feComposite in2="hardAlpha" operator="out"/>
<feColorMatrix type="matrix" values="0 0 0 0 0 0 0 0 0 0 0 0 0 0 0 0 0 0 0.05 0"/>
<feBlend mode="normal" in2="BackgroundImageFix" result="effect1_dropShadow_153_3590"/>
<feBlend mode="normal" in="SourceGraphic" in2="effect1_dropShadow_153_3590" result="shape"/>
</filter>
</defs>
</svg>
