<svg width="95" height="122" viewBox="0 0 95 122" fill="none" xmlns="http://www.w3.org/2000/svg">
<rect x="0.5" width="94" height="94" rx="16" fill="#E5EAE8"/>
<path d="M23.7344 106.625V118H21.5859V106.625H23.7344ZM28.3203 111.539V113.234H23.1719V111.539H28.3203ZM28.9219 106.625V108.32H23.1719V106.625H28.9219ZM32.4141 109.547V118H30.3438V109.547H32.4141ZM30.2031 107.336C30.2031 107.029 30.3073 106.773 30.5156 106.57C30.7292 106.367 31.0156 106.266 31.375 106.266C31.7344 106.266 32.0182 106.367 32.2266 106.57C32.4401 106.773 32.5469 107.029 32.5469 107.336C32.5469 107.638 32.4401 107.891 32.2266 108.094C32.0182 108.297 31.7344 108.398 31.375 108.398C31.0156 108.398 30.7292 108.297 30.5156 108.094C30.3073 107.891 30.2031 107.638 30.2031 107.336ZM36.4062 111.352V118H34.3438V109.547H36.2812L36.4062 111.352ZM36.0781 113.469H35.4688C35.474 112.854 35.5573 112.297 35.7188 111.797C35.8802 111.297 36.1068 110.867 36.3984 110.508C36.6953 110.148 37.0469 109.872 37.4531 109.68C37.8594 109.487 38.3125 109.391 38.8125 109.391C39.2188 109.391 39.5859 109.448 39.9141 109.562C40.2422 109.677 40.5234 109.859 40.7578 110.109C40.9974 110.359 41.1797 110.688 41.3047 111.094C41.4349 111.495 41.5 111.99 41.5 112.578V118H39.4219V112.562C39.4219 112.177 39.3646 111.872 39.25 111.648C39.1406 111.424 38.9792 111.266 38.7656 111.172C38.5573 111.078 38.2995 111.031 37.9922 111.031C37.6745 111.031 37.3958 111.096 37.1562 111.227C36.9219 111.352 36.724 111.526 36.5625 111.75C36.4062 111.974 36.2865 112.232 36.2031 112.523C36.1198 112.815 36.0781 113.13 36.0781 113.469ZM47.3203 109.547V111.031H42.4766V109.547H47.3203ZM43.7734 107.469H45.8438V115.562C45.8438 115.812 45.8776 116.005 45.9453 116.141C46.013 116.276 46.1146 116.367 46.25 116.414C46.3854 116.461 46.5469 116.484 46.7344 116.484C46.8698 116.484 46.9948 116.477 47.1094 116.461C47.224 116.445 47.3203 116.43 47.3984 116.414L47.4062 117.961C47.2344 118.018 47.0391 118.065 46.8203 118.102C46.6068 118.138 46.3646 118.156 46.0938 118.156C45.6302 118.156 45.224 118.078 44.875 117.922C44.526 117.76 44.2552 117.503 44.0625 117.148C43.8698 116.789 43.7734 116.315 43.7734 115.727V107.469ZM52.4922 118.156C51.8516 118.156 51.276 118.052 50.7656 117.844C50.2552 117.635 49.8203 117.346 49.4609 116.977C49.1068 116.602 48.8333 116.167 48.6406 115.672C48.4531 115.172 48.3594 114.635 48.3594 114.062V113.75C48.3594 113.099 48.4531 112.508 48.6406 111.977C48.8281 111.44 49.0938 110.979 49.4375 110.594C49.7812 110.208 50.1927 109.911 50.6719 109.703C51.151 109.495 51.6797 109.391 52.2578 109.391C52.8568 109.391 53.3854 109.492 53.8438 109.695C54.3021 109.893 54.6849 110.174 54.9922 110.539C55.2995 110.904 55.5312 111.341 55.6875 111.852C55.8438 112.357 55.9219 112.917 55.9219 113.531V114.398H49.2969V112.977H53.8906V112.82C53.8802 112.492 53.8177 112.193 53.7031 111.922C53.5885 111.646 53.4115 111.427 53.1719 111.266C52.9323 111.099 52.6224 111.016 52.2422 111.016C51.9349 111.016 51.6667 111.083 51.4375 111.219C51.2135 111.349 51.026 111.536 50.875 111.781C50.7292 112.021 50.6198 112.307 50.5469 112.641C50.474 112.974 50.4375 113.344 50.4375 113.75V114.062C50.4375 114.417 50.4844 114.745 50.5781 115.047C50.6771 115.349 50.8203 115.612 51.0078 115.836C51.2005 116.055 51.4297 116.227 51.6953 116.352C51.9661 116.471 52.2734 116.531 52.6172 116.531C53.0495 116.531 53.4401 116.448 53.7891 116.281C54.1432 116.109 54.4505 115.857 54.7109 115.523L55.75 116.602C55.5729 116.862 55.3333 117.112 55.0312 117.352C54.7344 117.591 54.375 117.786 53.9531 117.938C53.5312 118.083 53.0443 118.156 52.4922 118.156ZM60.7734 116.531C61.0651 116.531 61.3255 116.474 61.5547 116.359C61.7839 116.245 61.9661 116.083 62.1016 115.875C62.2422 115.667 62.3177 115.424 62.3281 115.148H64.2734C64.263 115.721 64.1016 116.234 63.7891 116.688C63.4766 117.141 63.0599 117.5 62.5391 117.766C62.0234 118.026 61.4453 118.156 60.8047 118.156C60.1536 118.156 59.5859 118.047 59.1016 117.828C58.6172 117.609 58.2135 117.305 57.8906 116.914C57.5729 116.523 57.3333 116.07 57.1719 115.555C57.0156 115.039 56.9375 114.487 56.9375 113.898V113.648C56.9375 113.06 57.0156 112.508 57.1719 111.992C57.3333 111.477 57.5729 111.023 57.8906 110.633C58.2135 110.242 58.6172 109.938 59.1016 109.719C59.5859 109.5 60.151 109.391 60.7969 109.391C61.4792 109.391 62.0781 109.523 62.5938 109.789C63.1146 110.055 63.5208 110.43 63.8125 110.914C64.1094 111.398 64.263 111.969 64.2734 112.625H62.3281C62.3177 112.323 62.25 112.052 62.125 111.812C62 111.573 61.8229 111.38 61.5938 111.234C61.3646 111.089 61.0859 111.016 60.7578 111.016C60.4089 111.016 60.1172 111.089 59.8828 111.234C59.6536 111.38 59.474 111.581 59.3438 111.836C59.2188 112.086 59.1302 112.367 59.0781 112.68C59.0312 112.987 59.0078 113.31 59.0078 113.648V113.898C59.0078 114.242 59.0312 114.57 59.0781 114.883C59.1302 115.195 59.2188 115.477 59.3438 115.727C59.474 115.971 59.6536 116.167 59.8828 116.312C60.1172 116.458 60.4141 116.531 60.7734 116.531ZM67.6719 106V118H65.6016V106H67.6719ZM67.3438 113.469H66.7344C66.7344 112.88 66.8125 112.339 66.9688 111.844C67.125 111.349 67.3464 110.919 67.6328 110.555C67.9193 110.185 68.2604 109.898 68.6562 109.695C69.0573 109.492 69.5 109.391 69.9844 109.391C70.401 109.391 70.7786 109.451 71.1172 109.57C71.4609 109.685 71.7552 109.87 72 110.125C72.2448 110.38 72.4323 110.714 72.5625 111.125C72.6979 111.531 72.7656 112.026 72.7656 112.609V118H70.6875V112.594C70.6875 112.203 70.6302 111.896 70.5156 111.672C70.401 111.443 70.237 111.279 70.0234 111.18C69.8151 111.081 69.5573 111.031 69.25 111.031C68.9167 111.031 68.6302 111.096 68.3906 111.227C68.151 111.352 67.9531 111.526 67.7969 111.75C67.6458 111.974 67.5312 112.232 67.4531 112.523C67.3802 112.815 67.3438 113.13 67.3438 113.469Z" fill="#002E19"/>
<g clip-path="url(#clip0_153_3650)">
<path d="M36.0951 31.5051H57.9049C58.6434 31.5059 59.3744 31.6585 60.0559 31.9542C60.7375 32.2499 61.3561 32.6828 61.8763 33.2282C62.3998 33.7705 62.8152 34.4151 63.0987 35.1248C63.3822 35.8346 63.5282 36.5957 63.5283 37.3643V56.6397C63.524 58.19 62.9302 59.6756 61.8765 60.7719C60.8229 61.8681 59.395 62.486 57.9049 62.4905H36.0951C34.6043 62.4871 33.1754 61.8697 32.1208 60.7734C31.0663 59.677 30.4719 58.1908 30.4676 56.6397V37.3601C30.4681 36.5928 30.6143 35.8331 30.8978 35.1248C31.1813 34.4164 31.5965 33.7733 32.1196 33.2324C32.6403 32.6895 33.2586 32.2586 33.9393 31.9644C34.62 31.6702 35.3498 31.5185 36.0869 31.5178L36.0951 31.5051ZM45.2544 54.3663C45.0469 54.3663 44.9167 54.3282 44.762 54.3028L43.9035 54.1715L43.3704 54.0784C43.1995 54.0488 43.0246 54.0107 42.8577 53.9726L42.3451 53.8286L42.1457 53.7736V50.3105L43.0856 50.391L43.7773 50.4333L44.5016 50.4672L45.2341 50.4926H45.9502H46.6134C46.8128 50.4926 46.9919 50.4926 47.1424 50.4926C47.2792 50.478 47.415 50.4553 47.5493 50.4248C47.6503 50.4025 47.7486 50.3684 47.8423 50.3232C47.9062 50.29 47.9652 50.2472 48.0173 50.1962C48.0581 50.1567 48.0888 50.1072 48.1068 50.0523C48.1313 49.9789 48.1424 49.9013 48.1393 49.8237V49.5951C48.1458 49.5195 48.1339 49.4435 48.1047 49.3739C48.0756 49.3044 48.0301 49.2436 47.9725 49.1971C47.903 49.1464 47.826 49.1078 47.7446 49.0828C47.6525 49.0527 47.5563 49.0384 47.4598 49.0405H46.5158C45.8592 49.0506 45.2046 48.9651 44.5708 48.7865C44.0347 48.6298 43.5377 48.3539 43.1141 47.9778C42.6938 47.5984 42.3814 47.1064 42.2108 46.5554C42.0111 45.8972 41.919 45.2089 41.9382 44.519V43.8925C41.9274 43.2309 42.0364 42.5731 42.2596 41.9535C42.4685 41.4025 42.8087 40.9158 43.2484 40.5395C43.5424 40.2724 43.8695 40.0475 44.2209 39.8706C44.5555 39.7096 44.9103 39.5984 45.2747 39.5404V38.0036H48.3428V39.4769C48.8126 39.5216 49.2799 39.5923 49.7425 39.6886L49.9989 39.7351C50.2145 39.7732 50.4302 39.8156 50.6418 39.8621C50.8534 39.9087 51.0487 39.951 51.2155 39.9976L51.423 40.0484V43.5157L51.13 43.486L50.2389 43.4183L49.2217 43.3633C48.8677 43.3633 48.534 43.3379 48.2248 43.3294C47.9155 43.3209 47.6348 43.3209 47.3215 43.3209C47.1546 43.3209 47 43.3209 46.8576 43.3209C46.7211 43.3298 46.5853 43.3468 46.4507 43.3717C46.351 43.3902 46.254 43.4215 46.1618 43.4649C46.0919 43.4976 46.0284 43.5435 45.9746 43.6004C45.9282 43.6476 45.8933 43.7056 45.8729 43.7697C45.8466 43.866 45.8342 43.9659 45.8363 44.066V44.2566C45.8339 44.3618 45.8505 44.4666 45.8851 44.5656C45.9155 44.6423 45.9646 44.7094 46.0275 44.7603C46.1058 44.8256 46.1978 44.8705 46.2961 44.8916C46.4451 44.9301 46.5982 44.9486 46.7518 44.9466H47.9725C48.3828 44.944 48.7921 44.988 49.1932 45.0779C49.5557 45.1658 49.9039 45.3084 50.2267 45.5012C50.8206 45.8425 51.3035 46.3597 51.6143 46.9872C51.7722 47.3005 51.8911 47.6333 51.9683 47.9778C52.0438 48.3423 52.082 48.7142 52.0822 49.087V49.7178C52.0878 50.2712 52.0346 50.8235 51.9235 51.3647C51.8338 51.8153 51.667 52.2455 51.4312 52.6348C51.2145 52.9757 50.9385 53.2715 50.6174 53.5069C50.2926 53.7497 49.9288 53.9303 49.5431 54.0403L49.4414 54.0699C49.0735 54.1938 48.6945 54.2789 48.3102 54.3239V55.9835H45.2544V54.3493V54.3663ZM66.4621 48.8034V51.9151C66.4631 52.0697 66.5226 52.2176 66.6277 52.3269C66.7328 52.4363 66.875 52.4982 67.0236 52.4993H71.4385C71.5871 52.4982 71.7293 52.4363 71.8344 52.3269C71.9394 52.2176 71.9989 52.0697 72 51.9151V48.7865C72 48.6315 71.9408 48.4829 71.8355 48.3733C71.7302 48.2638 71.5874 48.2022 71.4385 48.2022H67.0236C66.8747 48.2022 66.7319 48.2638 66.6265 48.3733C66.5212 48.4829 66.4621 48.6315 66.4621 48.7865V48.8034ZM66.4621 41.6275V44.7519C66.4621 44.9068 66.5212 45.0554 66.6265 45.165C66.7319 45.2746 66.8747 45.3361 67.0236 45.3361H71.4385C71.5874 45.3361 71.7302 45.2746 71.8355 45.165C71.9408 45.0554 72 44.9068 72 44.7519V41.6275C72 41.4726 71.9408 41.324 71.8355 41.2144C71.7302 41.1048 71.5874 41.0433 71.4385 41.0433H67.0236C66.8747 41.0433 66.7319 41.1048 66.6265 41.2144C66.5212 41.324 66.4621 41.4726 66.4621 41.6275ZM66.4621 55.9835V59.1079C66.4621 59.2628 66.5212 59.4114 66.6265 59.521C66.7319 59.6305 66.8747 59.6921 67.0236 59.6921H71.4385C71.5874 59.6921 71.7302 59.6305 71.8355 59.521C71.9408 59.4114 72 59.2628 72 59.1079V55.9666C72 55.8116 71.9408 55.663 71.8355 55.5534C71.7302 55.4439 71.5874 55.3823 71.4385 55.3823H67.0236C66.8747 55.3823 66.7319 55.4439 66.6265 55.5534C66.5212 55.663 66.4621 55.8116 66.4621 55.9666V55.9835ZM66.4621 34.4474V37.576C66.4621 37.731 66.5212 37.8796 66.6265 37.9891C66.7319 38.0987 66.8747 38.1602 67.0236 38.1602H71.4385C71.5874 38.1602 71.7302 38.0987 71.8355 37.9891C71.9408 37.8796 72 37.731 72 37.576V34.4305C71.9989 34.2759 71.9394 34.1279 71.8344 34.0186C71.7293 33.9093 71.5871 33.8474 71.4385 33.8463H67.0236C66.875 33.8474 66.7328 33.9093 66.6277 34.0186C66.5226 34.1279 66.4631 34.2759 66.4621 34.4305V34.4474ZM27.5379 48.7865V51.9151C27.5369 52.0697 27.4774 52.2176 27.3723 52.3269C27.2672 52.4363 27.125 52.4982 26.9764 52.4993H22.5615C22.4129 52.4982 22.2707 52.4363 22.1656 52.3269C22.0606 52.2176 22.0011 52.0697 22 51.9151V48.7865C22 48.6315 22.0592 48.4829 22.1645 48.3733C22.2698 48.2638 22.4126 48.2022 22.5615 48.2022H26.9764C27.1253 48.2022 27.2682 48.2638 27.3735 48.3733C27.4788 48.4829 27.5379 48.6315 27.5379 48.7865ZM27.5379 41.6106V44.7349C27.5379 44.8899 27.4788 45.0385 27.3735 45.1481C27.2682 45.2576 27.1253 45.3192 26.9764 45.3192H22.5615C22.4126 45.3192 22.2698 45.2576 22.1645 45.1481C22.0592 45.0385 22 44.8899 22 44.7349V41.6275C22 41.4726 22.0592 41.324 22.1645 41.2144C22.2698 41.1048 22.4126 41.0433 22.5615 41.0433H26.9764C27.1253 41.0433 27.2682 41.1048 27.3735 41.2144C27.4788 41.324 27.5379 41.4726 27.5379 41.6275V41.6106ZM27.5379 55.9666V59.0909C27.5379 59.2459 27.4788 59.3945 27.3735 59.504C27.2682 59.6136 27.1253 59.6751 26.9764 59.6751H22.5615C22.4126 59.6751 22.2698 59.6136 22.1645 59.504C22.0592 59.3945 22 59.2459 22 59.0909V55.9666C22 55.8116 22.0592 55.663 22.1645 55.5534C22.2698 55.4439 22.4126 55.3823 22.5615 55.3823H26.9764C27.1253 55.3823 27.2682 55.4439 27.3735 55.5534C27.4788 55.663 27.5379 55.8116 27.5379 55.9666ZM27.5379 34.4305V37.5591C27.5379 37.714 27.4788 37.8626 27.3735 37.9722C27.2682 38.0818 27.1253 38.1433 26.9764 38.1433H22.5615C22.4126 38.1433 22.2698 38.0818 22.1645 37.9722C22.0592 37.8626 22 37.714 22 37.5591V34.4305C22.0011 34.2759 22.0606 34.1279 22.1656 34.0186C22.2707 33.9093 22.4129 33.8474 22.5615 33.8463H26.9764C27.125 33.8474 27.2672 33.9093 27.3723 34.0186C27.4774 34.1279 27.5369 34.2759 27.5379 34.4305ZM55.846 65.238H58.849C58.9979 65.238 59.1407 65.2996 59.246 65.4092C59.3513 65.5187 59.4105 65.6673 59.4105 65.8223V70.4157C59.4105 70.5706 59.3513 70.7192 59.246 70.8288C59.1407 70.9383 58.9979 70.9999 58.849 70.9999H55.846C55.6971 70.9999 55.5543 70.9383 55.449 70.8288C55.3437 70.7192 55.2845 70.5706 55.2845 70.4157V65.8223C55.2845 65.6673 55.3437 65.5187 55.449 65.4092C55.5543 65.2996 55.6971 65.238 55.846 65.238ZM48.9287 65.238H51.9357C52.0111 65.2352 52.0864 65.2482 52.1569 65.2763C52.2273 65.3044 52.2917 65.3469 52.346 65.4015C52.4003 65.456 52.4435 65.5214 52.473 65.5937C52.5025 65.666 52.5176 65.7437 52.5176 65.8223V70.4157C52.5176 70.5706 52.4584 70.7192 52.3531 70.8288C52.2478 70.9383 52.105 70.9999 51.9561 70.9999H48.945C48.7964 70.9988 48.6542 70.9369 48.5491 70.8276C48.444 70.7182 48.3845 70.5703 48.3835 70.4157V65.8223C48.3845 65.6677 48.444 65.5197 48.5491 65.4104C48.6542 65.3011 48.7964 65.2391 48.945 65.238H48.9287ZM42.0317 65.238H45.0347C45.184 65.238 45.3272 65.2994 45.4332 65.4089C45.5391 65.5183 45.5992 65.6669 45.6003 65.8223V70.4157C45.5992 70.571 45.5391 70.7196 45.4332 70.829C45.3272 70.9385 45.184 70.9999 45.0347 70.9999H42.048C41.9743 70.9999 41.9013 70.9848 41.8331 70.9554C41.765 70.9261 41.7031 70.883 41.651 70.8288C41.5988 70.7745 41.5575 70.7101 41.5292 70.6392C41.501 70.5684 41.4865 70.4924 41.4865 70.4157V65.8223C41.4865 65.7455 41.501 65.6696 41.5292 65.5987C41.5575 65.5278 41.5988 65.4634 41.651 65.4092C41.7031 65.3549 41.765 65.3119 41.8331 65.2825C41.9013 65.2531 41.9743 65.238 42.048 65.238H42.0317ZM35.1144 65.238H38.154C38.3029 65.238 38.4457 65.2996 38.551 65.4092C38.6563 65.5187 38.7155 65.6673 38.7155 65.8223V70.4157C38.7155 70.5706 38.6563 70.7192 38.551 70.8288C38.4457 70.9383 38.3029 70.9999 38.154 70.9999H35.151C35.0021 70.9999 34.8593 70.9383 34.754 70.8288C34.6487 70.7192 34.5895 70.5706 34.5895 70.4157V65.8223C34.5895 65.6673 34.6487 65.5187 34.754 65.4092C34.8593 65.2996 35.0021 65.238 35.151 65.238H35.1144ZM55.846 22.9999H58.849C58.9979 22.9999 59.1407 23.0614 59.246 23.171C59.3513 23.2806 59.4105 23.4292 59.4105 23.5841V28.1775C59.4105 28.3325 59.3513 28.4811 59.246 28.5906C59.1407 28.7002 58.9979 28.7618 58.849 28.7618H55.846C55.6971 28.7618 55.5543 28.7002 55.449 28.5906C55.3437 28.4811 55.2845 28.3325 55.2845 28.1775V23.5841C55.2845 23.4292 55.3437 23.2806 55.449 23.171C55.5543 23.0614 55.6971 22.9999 55.846 22.9999ZM48.9287 22.9999H51.9357C52.0111 22.997 52.0864 23.0101 52.1569 23.0381C52.2273 23.0662 52.2917 23.1088 52.346 23.1633C52.4003 23.2179 52.4435 23.2833 52.473 23.3556C52.5025 23.4278 52.5176 23.5056 52.5176 23.5841V28.1775C52.5176 28.3325 52.4584 28.4811 52.3531 28.5906C52.2478 28.7002 52.105 28.7618 51.9561 28.7618H48.945C48.7964 28.7606 48.6542 28.6987 48.5491 28.5894C48.444 28.4801 48.3845 28.3321 48.3835 28.1775V23.5841C48.3845 23.4295 48.444 23.2816 48.5491 23.1722C48.6542 23.0629 48.7964 23.001 48.945 22.9999H48.9287ZM42.048 22.9999H45.0509C45.1974 23.0043 45.3365 23.0676 45.439 23.1766C45.5415 23.2856 45.5993 23.4317 45.6003 23.5841V28.1775C45.5992 28.3329 45.5391 28.4815 45.4332 28.5909C45.3272 28.7003 45.184 28.7618 45.0347 28.7618H42.048C41.9743 28.7618 41.9013 28.7466 41.8331 28.7173C41.765 28.6879 41.7031 28.6449 41.651 28.5906C41.5988 28.5364 41.5575 28.472 41.5292 28.4011C41.501 28.3302 41.4865 28.2543 41.4865 28.1775V23.5841C41.4865 23.5074 41.501 23.4314 41.5292 23.3606C41.5575 23.2897 41.5988 23.2253 41.651 23.171C41.7031 23.1168 41.765 23.0737 41.8331 23.0444C41.9013 23.015 41.9743 22.9999 42.048 22.9999ZM35.1307 22.9999H38.154C38.3029 22.9999 38.4457 23.0614 38.551 23.171C38.6563 23.2806 38.7155 23.4292 38.7155 23.5841V28.1775C38.7155 28.3325 38.6563 28.4811 38.551 28.5906C38.4457 28.7002 38.3029 28.7618 38.154 28.7618H35.151C35.0021 28.7618 34.8593 28.7002 34.754 28.5906C34.6487 28.4811 34.5895 28.3325 34.5895 28.1775V23.5841C34.5895 23.4292 34.6487 23.2806 34.754 23.171C34.8593 23.0614 35.0021 22.9999 35.151 22.9999H35.1307ZM57.9049 34.4305H36.0951C35.7281 34.4292 35.3645 34.5034 35.0251 34.6487C34.6858 34.794 34.3773 35.0076 34.1175 35.2772C33.8584 35.5475 33.6531 35.8684 33.5134 36.2215C33.3738 36.5746 33.3025 36.9529 33.3037 37.3347V56.6397C33.309 57.4112 33.6063 58.1495 34.131 58.6946C34.6557 59.2398 35.3657 59.5479 36.1073 59.5524H57.9172C58.6587 59.5479 59.3687 59.2398 59.8934 58.6946C60.4182 58.1495 60.7154 57.4112 60.7207 56.6397V37.3601C60.7218 36.5892 60.4292 35.8494 59.9069 35.3026C59.6471 35.033 59.3386 34.8194 58.9993 34.6741C58.6599 34.5288 58.2963 34.4546 57.9294 34.4559L57.9049 34.4305Z" fill="#00723F"/>
</g>
<defs>
<clipPath id="clip0_153_3650">
<rect width="50" height="48" fill="white" transform="translate(22 23)"/>
</clipPath>
</defs>
</svg>
