<svg width="95" height="120" viewBox="0 0 95 120" fill="none" xmlns="http://www.w3.org/2000/svg">
<rect x="0.5" y="0.5" width="94" height="94" rx="16" fill="#E5EAE8"/>
<path d="M15.375 106.125V117.5H13.2266V106.125H15.375ZM19.5625 110.852V117.5H17.5V109.047H19.4375L19.5625 110.852ZM19.2344 112.969H18.625C18.6302 112.354 18.7135 111.797 18.875 111.297C19.0365 110.797 19.263 110.367 19.5547 110.008C19.8516 109.648 20.2031 109.372 20.6094 109.18C21.0156 108.987 21.4688 108.891 21.9688 108.891C22.375 108.891 22.7422 108.948 23.0703 109.062C23.3984 109.177 23.6797 109.359 23.9141 109.609C24.1536 109.859 24.3359 110.188 24.4609 110.594C24.5911 110.995 24.6562 111.49 24.6562 112.078V117.5H22.5781V112.062C22.5781 111.677 22.5208 111.372 22.4062 111.148C22.2969 110.924 22.1354 110.766 21.9219 110.672C21.7135 110.578 21.4557 110.531 21.1484 110.531C20.8307 110.531 20.5521 110.596 20.3125 110.727C20.0781 110.852 19.8802 111.026 19.7188 111.25C19.5625 111.474 19.4427 111.732 19.3594 112.023C19.276 112.315 19.2344 112.63 19.2344 112.969ZM31.125 115.188C31.125 115.01 31.0781 114.852 30.9844 114.711C30.8906 114.57 30.7135 114.443 30.4531 114.328C30.1979 114.208 29.8229 114.096 29.3281 113.992C28.8906 113.898 28.487 113.781 28.1172 113.641C27.7474 113.5 27.4297 113.331 27.1641 113.133C26.8984 112.93 26.6901 112.693 26.5391 112.422C26.3932 112.146 26.3203 111.828 26.3203 111.469C26.3203 111.12 26.3958 110.792 26.5469 110.484C26.6979 110.172 26.9167 109.898 27.2031 109.664C27.4896 109.424 27.8385 109.237 28.25 109.102C28.6615 108.961 29.125 108.891 29.6406 108.891C30.3594 108.891 30.9766 109.008 31.4922 109.242C32.013 109.477 32.4115 109.799 32.6875 110.211C32.9635 110.617 33.1016 111.076 33.1016 111.586H31.0391C31.0391 111.362 30.987 111.159 30.8828 110.977C30.7839 110.794 30.6302 110.648 30.4219 110.539C30.2135 110.424 29.9505 110.367 29.6328 110.367C29.3464 110.367 29.1042 110.414 28.9062 110.508C28.7135 110.602 28.5677 110.724 28.4688 110.875C28.3698 111.026 28.3203 111.193 28.3203 111.375C28.3203 111.51 28.3464 111.633 28.3984 111.742C28.4557 111.846 28.5469 111.943 28.6719 112.031C28.7969 112.12 28.9661 112.201 29.1797 112.273C29.3984 112.346 29.6667 112.417 29.9844 112.484C30.6146 112.609 31.1641 112.776 31.6328 112.984C32.1068 113.188 32.4766 113.458 32.7422 113.797C33.0078 114.135 33.1406 114.568 33.1406 115.094C33.1406 115.469 33.0599 115.812 32.8984 116.125C32.737 116.432 32.5026 116.701 32.1953 116.93C31.888 117.159 31.5208 117.339 31.0938 117.469C30.6667 117.594 30.1849 117.656 29.6484 117.656C28.8724 117.656 28.2161 117.518 27.6797 117.242C27.1432 116.961 26.737 116.607 26.4609 116.18C26.1849 115.747 26.0469 115.299 26.0469 114.836H28.0234C28.0391 115.164 28.1276 115.427 28.2891 115.625C28.4505 115.823 28.6536 115.966 28.8984 116.055C29.1484 116.138 29.4115 116.18 29.6875 116.18C30 116.18 30.263 116.138 30.4766 116.055C30.6901 115.966 30.8516 115.849 30.9609 115.703C31.0703 115.552 31.125 115.38 31.125 115.188ZM39.7422 115.492V109.047H41.8203V117.5H39.8672L39.7422 115.492ZM40.0078 113.742L40.6484 113.727C40.6484 114.294 40.5859 114.818 40.4609 115.297C40.3359 115.776 40.1406 116.193 39.875 116.547C39.6146 116.896 39.2839 117.169 38.8828 117.367C38.4818 117.56 38.0078 117.656 37.4609 117.656C37.0443 117.656 36.6641 117.599 36.3203 117.484C35.9766 117.365 35.6797 117.18 35.4297 116.93C35.1849 116.674 34.9948 116.349 34.8594 115.953C34.724 115.552 34.6562 115.07 34.6562 114.508V109.047H36.7188V114.523C36.7188 114.805 36.75 115.039 36.8125 115.227C36.8802 115.414 36.9714 115.568 37.0859 115.688C37.2057 115.802 37.3438 115.885 37.5 115.938C37.6615 115.984 37.8333 116.008 38.0156 116.008C38.5156 116.008 38.9089 115.909 39.1953 115.711C39.487 115.508 39.6953 115.237 39.8203 114.898C39.9453 114.555 40.0078 114.169 40.0078 113.742ZM45.7109 110.773V117.5H43.6484V109.047H45.6016L45.7109 110.773ZM48.2812 108.992L48.25 110.914C48.1354 110.893 48.0052 110.878 47.8594 110.867C47.7188 110.857 47.5859 110.852 47.4609 110.852C47.1432 110.852 46.8646 110.896 46.625 110.984C46.3854 111.068 46.1849 111.19 46.0234 111.352C45.8672 111.513 45.7474 111.711 45.6641 111.945C45.5807 112.174 45.5339 112.435 45.5234 112.727L45.0781 112.672C45.0781 112.135 45.1328 111.638 45.2422 111.18C45.3516 110.721 45.5104 110.32 45.7188 109.977C45.9271 109.633 46.1875 109.367 46.5 109.18C46.8177 108.987 47.1823 108.891 47.5938 108.891C47.7083 108.891 47.8307 108.901 47.9609 108.922C48.0964 108.938 48.2031 108.961 48.2812 108.992ZM53.8047 115.703V111.805C53.8047 111.518 53.7552 111.271 53.6562 111.062C53.5573 110.854 53.4062 110.693 53.2031 110.578C53 110.464 52.7422 110.406 52.4297 110.406C52.1536 110.406 51.9115 110.453 51.7031 110.547C51.5 110.641 51.3438 110.773 51.2344 110.945C51.125 111.112 51.0703 111.305 51.0703 111.523H49C49 111.174 49.0833 110.844 49.25 110.531C49.4167 110.214 49.6536 109.932 49.9609 109.688C50.2734 109.438 50.6458 109.242 51.0781 109.102C51.5156 108.961 52.0052 108.891 52.5469 108.891C53.1875 108.891 53.7578 109 54.2578 109.219C54.763 109.432 55.1589 109.755 55.4453 110.188C55.737 110.62 55.8828 111.164 55.8828 111.82V115.508C55.8828 115.93 55.9089 116.292 55.9609 116.594C56.0182 116.891 56.1016 117.148 56.2109 117.367V117.5H54.1094C54.0104 117.286 53.9349 117.016 53.8828 116.688C53.8307 116.354 53.8047 116.026 53.8047 115.703ZM54.0938 112.352L54.1094 113.578H52.8047C52.4818 113.578 52.1979 113.612 51.9531 113.68C51.7083 113.742 51.5078 113.836 51.3516 113.961C51.1953 114.081 51.0781 114.227 51 114.398C50.9219 114.565 50.8828 114.755 50.8828 114.969C50.8828 115.177 50.9297 115.365 51.0234 115.531C51.1224 115.698 51.263 115.831 51.4453 115.93C51.6328 116.023 51.8516 116.07 52.1016 116.07C52.4661 116.07 52.7839 115.997 53.0547 115.852C53.3255 115.701 53.5365 115.518 53.6875 115.305C53.8385 115.091 53.9193 114.888 53.9297 114.695L54.5234 115.586C54.4505 115.799 54.3411 116.026 54.1953 116.266C54.0495 116.505 53.862 116.729 53.6328 116.938C53.4036 117.146 53.1276 117.318 52.8047 117.453C52.4818 117.589 52.1068 117.656 51.6797 117.656C51.1328 117.656 50.6432 117.547 50.2109 117.328C49.7786 117.109 49.4375 116.81 49.1875 116.43C48.9375 116.049 48.8125 115.617 48.8125 115.133C48.8125 114.685 48.8958 114.289 49.0625 113.945C49.2292 113.602 49.4766 113.312 49.8047 113.078C50.1328 112.839 50.5391 112.659 51.0234 112.539C51.513 112.414 52.0729 112.352 52.7031 112.352H54.0938ZM59.7656 110.852V117.5H57.7031V109.047H59.6406L59.7656 110.852ZM59.4375 112.969H58.8281C58.8333 112.354 58.9167 111.797 59.0781 111.297C59.2396 110.797 59.4661 110.367 59.7578 110.008C60.0547 109.648 60.4062 109.372 60.8125 109.18C61.2188 108.987 61.6719 108.891 62.1719 108.891C62.5781 108.891 62.9453 108.948 63.2734 109.062C63.6016 109.177 63.8828 109.359 64.1172 109.609C64.3568 109.859 64.5391 110.188 64.6641 110.594C64.7943 110.995 64.8594 111.49 64.8594 112.078V117.5H62.7812V112.062C62.7812 111.677 62.724 111.372 62.6094 111.148C62.5 110.924 62.3385 110.766 62.125 110.672C61.9167 110.578 61.6589 110.531 61.3516 110.531C61.0339 110.531 60.7552 110.596 60.5156 110.727C60.2812 110.852 60.0833 111.026 59.9219 111.25C59.7656 111.474 59.6458 111.732 59.5625 112.023C59.4792 112.315 59.4375 112.63 59.4375 112.969ZM70.1484 116.031C70.4401 116.031 70.7005 115.974 70.9297 115.859C71.1589 115.745 71.3411 115.583 71.4766 115.375C71.6172 115.167 71.6927 114.924 71.7031 114.648H73.6484C73.638 115.221 73.4766 115.734 73.1641 116.188C72.8516 116.641 72.4349 117 71.9141 117.266C71.3984 117.526 70.8203 117.656 70.1797 117.656C69.5286 117.656 68.9609 117.547 68.4766 117.328C67.9922 117.109 67.5885 116.805 67.2656 116.414C66.9479 116.023 66.7083 115.57 66.5469 115.055C66.3906 114.539 66.3125 113.987 66.3125 113.398V113.148C66.3125 112.56 66.3906 112.008 66.5469 111.492C66.7083 110.977 66.9479 110.523 67.2656 110.133C67.5885 109.742 67.9922 109.438 68.4766 109.219C68.9609 109 69.526 108.891 70.1719 108.891C70.8542 108.891 71.4531 109.023 71.9688 109.289C72.4896 109.555 72.8958 109.93 73.1875 110.414C73.4844 110.898 73.638 111.469 73.6484 112.125H71.7031C71.6927 111.823 71.625 111.552 71.5 111.312C71.375 111.073 71.1979 110.88 70.9688 110.734C70.7396 110.589 70.4609 110.516 70.1328 110.516C69.7839 110.516 69.4922 110.589 69.2578 110.734C69.0286 110.88 68.849 111.081 68.7188 111.336C68.5938 111.586 68.5052 111.867 68.4531 112.18C68.4062 112.487 68.3828 112.81 68.3828 113.148V113.398C68.3828 113.742 68.4062 114.07 68.4531 114.383C68.5052 114.695 68.5938 114.977 68.7188 115.227C68.849 115.471 69.0286 115.667 69.2578 115.812C69.4922 115.958 69.7891 116.031 70.1484 116.031ZM78.8203 117.656C78.1797 117.656 77.6042 117.552 77.0938 117.344C76.5833 117.135 76.1484 116.846 75.7891 116.477C75.4349 116.102 75.1615 115.667 74.9688 115.172C74.7812 114.672 74.6875 114.135 74.6875 113.562V113.25C74.6875 112.599 74.7812 112.008 74.9688 111.477C75.1562 110.94 75.4219 110.479 75.7656 110.094C76.1094 109.708 76.5208 109.411 77 109.203C77.4792 108.995 78.0078 108.891 78.5859 108.891C79.1849 108.891 79.7135 108.992 80.1719 109.195C80.6302 109.393 81.013 109.674 81.3203 110.039C81.6276 110.404 81.8594 110.841 82.0156 111.352C82.1719 111.857 82.25 112.417 82.25 113.031V113.898H75.625V112.477H80.2188V112.32C80.2083 111.992 80.1458 111.693 80.0312 111.422C79.9167 111.146 79.7396 110.927 79.5 110.766C79.2604 110.599 78.9505 110.516 78.5703 110.516C78.263 110.516 77.9948 110.583 77.7656 110.719C77.5417 110.849 77.3542 111.036 77.2031 111.281C77.0573 111.521 76.9479 111.807 76.875 112.141C76.8021 112.474 76.7656 112.844 76.7656 113.25V113.562C76.7656 113.917 76.8125 114.245 76.9062 114.547C77.0052 114.849 77.1484 115.112 77.3359 115.336C77.5286 115.555 77.7578 115.727 78.0234 115.852C78.2943 115.971 78.6016 116.031 78.9453 116.031C79.3776 116.031 79.7682 115.948 80.1172 115.781C80.4714 115.609 80.7786 115.357 81.0391 115.023L82.0781 116.102C81.901 116.362 81.6615 116.612 81.3594 116.852C81.0625 117.091 80.7031 117.286 80.2812 117.438C79.8594 117.583 79.3724 117.656 78.8203 117.656Z" fill="#002E19"/>
<g clip-path="url(#clip0_153_3597)">
<path fill-rule="evenodd" clip-rule="evenodd" d="M50.1063 28.2492C50.1063 27.7945 50.2869 27.3585 50.6084 27.037C50.9299 26.7155 51.3659 26.5349 51.8206 26.5349H57.392C57.8467 26.5349 58.2827 26.7155 58.6042 27.037C58.9257 27.3585 59.1063 27.7945 59.1063 28.2492V33.0732H63.9269C64.3815 33.0732 64.8175 33.2538 65.139 33.5753C65.4605 33.8968 65.6411 34.3328 65.6411 34.7875V40.3589C65.6411 40.8136 65.4605 41.2496 65.139 41.5711C64.8175 41.8926 64.3815 42.0732 63.9269 42.0732H59.1063V46.8938C59.1063 47.3484 58.9257 47.7845 58.6042 48.106C58.2827 48.4274 57.8467 48.6081 57.392 48.6081H51.8206C51.3659 48.6081 50.9299 48.4274 50.6084 48.106C50.2869 47.7845 50.1063 47.3484 50.1063 46.8938V42.0732H45.2857C44.8311 42.0732 44.395 41.8926 44.0735 41.5711C43.752 41.2496 43.5714 40.8136 43.5714 40.3589V34.7875C43.5714 34.3328 43.752 33.8968 44.0735 33.5753C44.395 33.2538 44.8311 33.0732 45.2857 33.0732H50.1063V28.2492ZM29.3189 47.0001H23V60.7143L29.2674 66.9818C30.541 68.2558 32.0531 69.2663 33.7174 69.9558C35.3817 70.6453 37.1654 71.0001 38.9669 71.0001H59C60.364 71.0001 61.6721 70.4582 62.6366 69.4937C63.601 68.5293 64.1429 67.2212 64.1429 65.8572C64.1429 64.4932 63.601 63.1851 62.6366 62.2206C61.6721 61.2562 60.364 60.7143 59 60.7143H49.4789C49.1224 61.9163 48.4597 63.0049 47.5558 63.8736C46.6519 64.7423 45.5377 65.3612 44.3226 65.6695C43.1074 65.9779 41.833 65.9652 40.6242 65.6326C39.4155 65.3001 38.3139 64.6592 37.4274 63.7726L32.456 58.8012C32.257 58.6022 32.0991 58.3659 31.9914 58.1059C31.8837 57.8459 31.8283 57.5672 31.8283 57.2858C31.8283 57.0043 31.8837 56.7256 31.9914 56.4656C32.0991 56.2056 32.257 55.9693 32.456 55.7703C32.655 55.5713 32.8913 55.4135 33.1513 55.3058C33.4113 55.1981 33.69 55.1426 33.9714 55.1426C34.2529 55.1426 34.5316 55.1981 34.7916 55.3058C35.0516 55.4135 35.2878 55.5713 35.4869 55.7703L40.4583 60.7418C40.9819 61.2643 41.6829 61.5709 42.422 61.6007C43.1612 61.6305 43.8846 61.3814 44.4486 60.9028C45.0127 60.4242 45.3763 59.751 45.4672 59.0169C45.5581 58.2827 45.3697 57.5412 44.9394 56.9395L39.0183 51.0183C37.7447 49.7444 36.2326 48.7338 34.5683 48.0443C32.9041 47.3548 31.1203 47 29.3189 47.0001Z" fill="#00723F"/>
</g>
<defs>
<clipPath id="clip0_153_3597">
<rect width="55" height="68.75" fill="white" transform="translate(19.5 19.75)"/>
</clipPath>
</defs>
</svg>
