<svg width="33" height="34" viewBox="0 0 33 34" fill="none" xmlns="http://www.w3.org/2000/svg">
<rect y="0.791504" width="33" height="33" rx="16.5" fill="#004224"/>
<path d="M17.875 13.1665C17.875 13.5312 17.7301 13.8809 17.4723 14.1388C17.2144 14.3966 16.8647 14.5415 16.5 14.5415C16.1353 14.5415 15.7856 14.3966 15.5277 14.1388C15.2699 13.8809 15.125 13.5312 15.125 13.1665C15.125 12.8018 15.2699 12.4521 15.5277 12.1942C15.7856 11.9364 16.1353 11.7915 16.5 11.7915C16.8647 11.7915 17.2144 11.9364 17.4723 12.1942C17.7301 12.4521 17.875 12.8018 17.875 13.1665Z" stroke="#E5EAE8" stroke-width="2.75" stroke-linejoin="round"/>
<path d="M24.0625 13.854C24.0625 18.0313 21.3125 22.7915 16.5 28.2915C11.6875 22.7915 8.9375 18.0313 8.9375 13.854C8.9375 11.8483 9.73426 9.92475 11.1525 8.50651C12.5707 7.08827 14.4943 6.2915 16.5 6.2915C18.5057 6.2915 20.4293 7.08827 21.8475 8.50651C23.2657 9.92475 24.0625 11.8483 24.0625 13.854Z" stroke="#E5EAE8" stroke-width="2.75" stroke-linejoin="round"/>
</svg>
