<svg width="60" height="74" viewBox="0 0 60 74" fill="none" xmlns="http://www.w3.org/2000/svg">
<path d="M15.3694 50.5326L15.537 51.7603C15.5558 51.8986 15.516 52.039 15.4364 52.1542C15.3568 52.2695 15.2395 52.3575 15.1054 52.391L11.2565 53.3171C11.2419 53.3213 11.2251 53.3234 11.2084 53.3255C11.0994 53.3401 10.9967 53.315 10.915 53.2605C10.8354 53.206 10.7747 53.1201 10.7495 53.0154C10.7453 53.0028 10.7432 52.986 10.7411 52.9672L9.11107 41.0771C9.09222 40.9388 9.13202 40.7984 9.21164 40.6832C9.29126 40.568 9.40859 40.48 9.54268 40.4464L13.3915 39.5203C13.4062 39.5162 13.4229 39.5141 13.4397 39.512C13.5487 39.4973 13.6513 39.5224 13.733 39.5769C13.8127 39.6314 13.8734 39.7173 13.8985 39.8221C13.9027 39.8346 13.9048 39.8514 13.9069 39.8702L14.0494 40.9053C14.0515 40.9157 14.0515 40.9262 14.0536 40.9346L15.3673 50.5157L15.3693 50.524L15.3714 50.5303L15.3694 50.5326ZM24.494 18.9858C25.462 20.641 26.4027 22.2521 27.5404 23.0441C27.5802 23.0714 27.6137 23.0944 27.6409 23.1112C28.2423 23.482 29.0887 23.6182 29.9372 23.4506C30.5595 23.327 31.1776 23.0357 31.7014 22.5518C33.7609 25.6903 34.444 28.6717 34.2889 33.7714C34.2889 33.7819 34.2931 33.7903 34.2952 33.8028C32.7846 33.8887 31.3976 34.4251 30.2704 35.2904C29.0866 36.1976 28.1878 37.4589 27.731 38.915C28.1459 38.9632 28.5502 38.9779 28.9462 38.9674C29.7591 38.9465 30.5427 38.8207 31.2991 38.6552C31.3116 38.6531 31.3221 38.651 31.3347 38.6489C32.1455 38.5358 33.0862 38.3137 34.027 38.0916C34.9802 37.8653 35.9357 37.6411 36.7842 37.5238C37.0147 37.4924 37.2367 37.4882 37.4421 37.5112C37.8905 37.5615 38.2781 37.7396 38.5735 38.0371C38.8647 38.3325 39.0596 38.7411 39.1308 39.2607C39.1685 39.5393 39.1706 39.8474 39.1329 40.1889V40.191C39.068 40.7378 38.7621 41.2847 38.3347 41.7707C39.4786 41.3056 40.6456 40.7839 41.8147 40.2664L41.9803 40.193C41.7603 38.408 40.895 36.8219 39.6274 35.6758C38.4289 34.5906 36.8639 33.9033 35.1416 33.8048C35.1416 33.8027 35.1437 33.8006 35.1437 33.7986C35.1689 32.9856 35.1689 32.2272 35.15 31.5085C35.15 31.5023 35.1542 31.496 35.1542 31.4897C35.1437 27.2616 36.25 26.0928 37.3185 24.9654C37.4254 24.8522 37.5343 24.7328 37.6412 24.6134C37.8884 24.9381 38.2132 25.1979 38.5756 25.3969C39.5478 25.9333 40.7693 26.0674 41.4838 25.971C42.7555 25.7992 43.9078 24.7894 45.1294 23.7166C46.6002 22.426 48.1716 21.0495 50.25 20.8169C48.7561 19.3336 46.7133 18.2588 44.6643 17.7056C42.3994 17.0959 40.1366 17.1253 38.6093 17.9465C37.7 18.4368 36.8975 19.1994 36.621 20.2785C36.4156 21.0851 36.4995 22.0741 37.0379 23.2746C37.1615 23.1614 37.2893 23.0525 37.4192 22.9477C38.7937 21.8373 40.5033 21.1375 42.4099 20.4733C42.544 20.4251 42.6928 20.4985 42.7389 20.6325C42.7871 20.7666 42.7137 20.9154 42.5796 20.9615C40.7191 21.6089 39.0577 22.2898 37.7419 23.35C37.568 23.4903 37.4025 23.637 37.2412 23.79C37.2433 23.7941 37.2433 23.7983 37.2454 23.8025C37.2244 23.8193 37.1993 23.8319 37.1804 23.8528C37.0275 24.0288 36.8682 24.1964 36.7006 24.3745C35.9862 25.1287 35.2131 25.948 34.7437 27.6031C34.3079 25.4723 33.5097 23.6852 32.2463 21.8185C32.24 21.8101 32.2317 21.8059 32.2275 21.7996C30.9201 19.6562 29.0973 17.7455 26.7882 16.0546C26.673 15.9708 26.6478 15.8074 26.7316 15.6942C26.8154 15.579 26.9789 15.5539 27.092 15.6377C29.4532 17.3704 31.3242 19.3273 32.6675 21.5269C34.044 20.6302 34.6328 19.6434 34.7606 18.6985C34.8905 17.7452 34.5573 16.8191 34.1006 16.067L34.0922 16.0523C34.0754 16.023 34.0503 15.9853 34.0189 15.9371C33.9832 15.8805 33.9455 15.8281 33.9099 15.7758C32.789 14.2044 30.3921 13.1212 27.7583 12.7566C25.1687 12.3962 22.3652 12.7357 20.3308 13.9865C22.0719 14.8455 23.2997 16.947 24.4918 18.9835L24.494 18.9858ZM50.8262 38.8377C50.7487 38.6491 50.6041 38.4857 50.3946 38.36C49.8583 38.0436 48.9301 37.9912 47.652 38.4249C45.9801 38.9906 44.1824 39.7805 42.3722 40.585C42.368 40.5871 42.3638 40.5892 42.3596 40.5913L42.0286 40.738C40.3545 41.4838 38.6742 42.2297 37.0839 42.8143C36.6251 43.0971 36.1474 43.3046 35.7137 43.401C35.1585 43.5246 34.6891 43.6231 34.2576 43.7152C32.9691 43.9855 32.0367 44.1804 30.6204 44.6916C30.4863 44.7398 30.3396 44.6706 30.2914 44.5366C30.2433 44.4025 30.3124 44.2558 30.4465 44.2076C31.9026 43.6838 32.8455 43.4848 34.1529 43.2103C34.5887 43.1181 35.0663 43.0196 35.6006 42.8981C35.984 42.8122 36.4093 42.6257 36.82 42.3722C36.8305 42.3638 36.8409 42.3576 36.8535 42.3513C37.128 42.1795 37.3941 41.9762 37.635 41.752C38.1609 41.2639 38.5548 40.6877 38.6218 40.1325C38.6553 39.835 38.6532 39.5668 38.6218 39.3321C38.5673 38.9299 38.4207 38.6198 38.2069 38.4019C37.9974 38.1903 37.7167 38.0645 37.3878 38.0268C37.2201 38.008 37.0421 38.0122 36.8556 38.0373C36.0406 38.1483 35.0935 38.3725 34.1465 38.5967C33.1995 38.8209 32.2525 39.0451 31.4081 39.1624C30.6287 39.3321 29.8158 39.462 28.961 39.4851C28.4455 39.4977 27.9155 39.4725 27.3728 39.3908C27.3666 39.3908 27.3603 39.3887 27.3561 39.3887C26.9978 39.3342 26.6332 39.2567 26.2624 39.1499C25.8412 39.0304 25.3992 38.8859 24.9487 38.7371C23.4821 38.2573 21.9023 37.7398 20.3771 37.8802C19.3903 37.9703 18.4076 38.3369 17.4334 38.8921C16.4801 39.4348 15.5309 40.1618 14.5881 40.9915L15.8515 50.2019C18.68 49.808 21.4855 49.4351 23.4904 49.8625C24.2614 50.026 24.9025 50.3046 25.5353 50.5791C26.5577 51.0232 27.5487 51.4527 29.0091 51.304C30.6182 51.1385 31.8711 50.4387 33.7421 49.3932C34.6053 48.9113 35.5984 48.3561 36.8241 47.7422L36.8304 47.738C37.9827 47.078 39.9815 46.0011 42.2192 44.8278C44.4736 43.6441 46.9543 42.3681 49.0369 41.3289C50.1285 40.7842 50.7172 40.0969 50.8639 39.4894C50.9205 39.2526 50.9079 39.0326 50.8304 38.842L50.8262 38.8377Z" fill="#00723F"/>
</svg>
