<svg width="25" height="25" viewBox="0 0 25 25" fill="none" xmlns="http://www.w3.org/2000/svg">
<path d="M0.00298109 21.9911L4.50959 16.854L4.50039 24.0058L0.000398664 24L0.00298109 21.9911ZM6.01179 15.1416L10.5184 10.0046L10.5004 24.0135L6.00039 24.0077L6.01179 15.1416ZM21.0202 8.59842L22.5202 8.60034L22.5004 24.0289L18.0004 24.0231L18.0162 11.7285L21.0202 8.59842ZM15.7629 14.297L16.514 13.4408L16.5004 24.0212L12.0004 24.0154L12.0184 10.0065L15.7629 14.297ZM24.0312 0.0308513L24.0224 6.88799L22.5224 6.88606L22.5275 2.96196L15.7676 10.6542L11.2742 5.50553L0.00764666 18.3616L0.01078 15.9241L11.2773 3.09482L15.7707 8.24345L21.4626 1.74184L18.029 1.73742L18.0312 0.0231385L24.0312 0.0308513Z" fill="white"/>
</svg>
