<svg width="69" height="69" viewBox="0 0 69 69" fill="none" xmlns="http://www.w3.org/2000/svg">
<path d="M0.00779536 62.308L12.7765 47.753L12.7505 68.0163L0.000478501 67.9999L0.00779536 62.308ZM17.0328 42.9013L29.8015 28.3463L29.7505 68.0382L17.0005 68.0218L17.0328 42.9013ZM59.5566 24.3622L63.8066 24.3676L63.7504 68.0819L51.0004 68.0655L51.0452 33.2307L59.5566 24.3622ZM44.6609 40.5082L46.789 38.0824L46.7504 68.06L34.0005 68.0437L34.0515 28.3517L44.6609 40.5082ZM68.0878 0.0874121L68.0629 19.516L63.8129 19.5105L63.8272 8.39221L44.6741 30.1868L31.9429 15.599L0.0210145 52.0245L0.0298923 45.1183L31.9516 8.76865L44.6829 23.3565L60.8101 4.9352L51.0816 4.9227L51.0879 0.0655591L68.0878 0.0874121Z" fill="white"/>
</svg>
