<svg width="373" height="124" viewBox="0 0 373 124" fill="none" xmlns="http://www.w3.org/2000/svg">
<path d="M0 16C0 7.16344 7.16344 0 16 0H357C365.837 0 373 7.16344 373 16V108C373 116.837 365.837 124 357 124H16C7.16344 124 0 116.837 0 108V16Z" fill="#FFF1D1"/>
<path fill-rule="evenodd" clip-rule="evenodd" d="M150.86 64.2701L177.46 11.0701L182.58 21.3101C177.323 27.7597 174.457 35.8291 174.47 44.1501C174.472 45.7517 174.576 47.3516 174.78 48.9401C165.813 52.3018 157.66 57.5267 150.86 64.2701Z" fill="#00723F"/>
<path fill-rule="evenodd" clip-rule="evenodd" d="M196.81 54.51C198.245 56.435 200.064 58.0407 202.152 59.2252C204.24 60.4097 206.552 61.1471 208.94 61.3907C211.329 61.6342 213.742 61.3786 216.026 60.6399C218.311 59.9013 220.416 58.6958 222.21 57.1L229.39 71.44C225.712 73.9577 221.562 75.7059 217.192 76.5799C212.821 77.4538 208.318 77.4354 203.955 76.5257C199.591 75.616 195.456 73.8338 191.799 71.2861C188.141 68.7384 185.036 65.4777 182.67 61.7C187.051 58.6919 191.804 56.265 196.81 54.48M210.7 11.04C217.373 11.0324 223.89 13.0515 229.39 16.83L222.21 31.18C219.714 28.9622 216.63 27.5129 213.329 27.0063C210.029 26.4996 206.652 26.9573 203.606 28.3242C200.559 29.6912 197.972 31.9092 196.157 34.7114C194.341 37.5137 193.373 40.7808 193.37 44.12C193.37 44.36 193.37 44.59 193.37 44.82C188.088 45.2118 182.869 46.2186 177.82 47.82C177.296 43.1906 177.756 38.5028 179.169 34.0632C180.581 29.6236 182.915 25.5322 186.018 22.0567C189.121 18.5812 192.922 15.7998 197.174 13.8945C201.425 11.9892 206.031 11.0029 210.69 11L210.7 11.04Z" fill="#FDB813"/>
<path fill-rule="evenodd" clip-rule="evenodd" d="M198.52 47.8101C201.682 47.8112 204.841 48.0418 207.97 48.5001C198.904 49.8422 190.228 53.0982 182.518 58.0517C174.807 63.0052 168.239 69.5428 163.25 77.2301H144.34C150.199 68.195 158.226 60.7698 167.689 55.6312C177.152 50.4925 187.751 47.8038 198.52 47.8101Z" fill="#00723F"/>
<path fill-rule="evenodd" clip-rule="evenodd" d="M195.9 77.2301H167.05C170.673 72.0362 175.078 67.435 180.11 63.5901C183.926 69.5795 189.411 74.3211 195.89 77.2301" fill="#00723F"/>
<path fill-rule="evenodd" clip-rule="evenodd" d="M175.11 77.2301H167.11C170.715 72.0407 175.1 67.4397 180.11 63.5901C177.284 67.6238 175.561 72.3256 175.11 77.2301Z" fill="#00582D"/>
<path fill-rule="evenodd" clip-rule="evenodd" d="M152.01 77.2302H144.34C151.603 66.0658 162.126 57.4072 174.48 52.4302C169.224 54.787 164.514 58.2075 160.647 62.476C156.779 66.7444 153.838 71.7682 152.01 77.2302Z" fill="#00582D"/>
<path d="M213.31 76.57H213.25C213.65 76.57 214.05 76.52 214.44 76.48C211.41 76.1928 208.43 75.5208 205.57 74.48C201.195 72.7075 197.141 70.2278 193.57 67.14C191.31 65.0648 189.321 62.7129 187.65 60.14C190.548 57.7149 193.732 55.6529 197.13 54C193.551 55.2798 190.1 56.8901 186.82 58.81C186.19 59.17 185.57 59.55 184.95 59.94L184.87 59.99C184.24 60.39 183.62 60.8 183 61.22C185.974 65.9621 190.103 69.8718 195 72.5827C199.897 75.2937 205.403 76.7172 211 76.72C211.55 76.72 212.09 76.72 212.64 76.72H212.83L213.31 76.57Z" fill="#D09910"/>
<path d="M188.04 20.0601C184.292 23.586 181.418 27.9372 179.645 32.7682C177.873 37.5992 177.251 42.7769 177.83 47.8901C179.18 47.4501 180.56 47.0601 181.94 46.7101C181.631 44.7854 181.474 42.8394 181.47 40.8901C181.464 33.436 183.758 26.1616 188.04 20.0601Z" fill="#D09910"/>
<path d="M138.47 107.25H140.75L139.63 104.25L138.47 107.25ZM139.35 103.71H139.97L142.25 109.53H141.66L140.95 107.72H138.29L137.59 109.53H137L139.35 103.71Z" fill="#00582D"/>
<path d="M146.5 109.06H147.69C148.348 109.118 149.003 108.913 149.51 108.49C149.889 107.94 150.091 107.288 150.091 106.62C150.091 105.952 149.889 105.3 149.51 104.75C149.003 104.327 148.348 104.122 147.69 104.18H146.5V109.06ZM145.95 103.71H147.95C148.317 103.682 148.686 103.733 149.031 103.861C149.377 103.989 149.69 104.19 149.95 104.45C150.393 105.087 150.631 105.844 150.631 106.62C150.631 107.396 150.393 108.153 149.95 108.79C149.69 109.051 149.377 109.252 149.031 109.379C148.686 109.507 148.317 109.559 147.95 109.53H145.95V103.71Z" fill="#00582D"/>
<path d="M155.26 109.06H156.44C156.772 109.12 157.114 109.099 157.436 108.997C157.757 108.895 158.049 108.716 158.286 108.475C158.522 108.234 158.696 107.94 158.793 107.616C158.89 107.293 158.906 106.951 158.84 106.62C158.903 105.946 158.698 105.275 158.27 104.75C157.76 104.326 157.102 104.121 156.44 104.18H155.26V109.06ZM154.7 103.71H156.7C157.067 103.682 157.436 103.733 157.781 103.861C158.127 103.989 158.44 104.19 158.7 104.45C159.149 105.085 159.39 105.843 159.39 106.62C159.39 107.397 159.149 108.155 158.7 108.79C158.44 109.051 158.127 109.252 157.781 109.379C157.436 109.507 157.067 109.559 156.7 109.53H154.7V103.71Z" fill="#00582D"/>
<path d="M164.06 103.71H163.5V109.54H164.06V103.71Z" fill="#00582D"/>
<path d="M168.69 107.54C168.666 107.777 168.701 108.016 168.792 108.235C168.882 108.455 169.026 108.649 169.21 108.8C169.621 109.073 170.108 109.206 170.6 109.18C170.955 109.167 171.3 109.06 171.6 108.87C171.753 108.782 171.879 108.655 171.967 108.502C172.055 108.349 172.101 108.176 172.1 108C172.108 107.867 172.081 107.734 172.021 107.614C171.962 107.495 171.872 107.393 171.76 107.32C171.499 107.144 171.207 107.019 170.9 106.95L169.6 106.63C169.248 106.558 168.921 106.396 168.65 106.16C168.526 106.041 168.429 105.896 168.367 105.735C168.305 105.574 168.279 105.402 168.29 105.23C168.294 104.811 168.459 104.41 168.75 104.11C168.955 103.919 169.199 103.772 169.464 103.681C169.729 103.59 170.011 103.555 170.29 103.58C170.841 103.564 171.381 103.737 171.82 104.07C172.027 104.229 172.192 104.436 172.302 104.673C172.412 104.91 172.463 105.169 172.45 105.43H171.89C171.899 105.239 171.862 105.048 171.782 104.874C171.702 104.7 171.581 104.548 171.43 104.43C171.105 104.186 170.707 104.059 170.3 104.07C169.948 104.063 169.601 104.157 169.3 104.34C169.161 104.441 169.051 104.575 168.979 104.731C168.907 104.887 168.876 105.059 168.89 105.23C168.884 105.336 168.902 105.442 168.941 105.541C168.981 105.639 169.042 105.728 169.12 105.8C169.312 105.952 169.533 106.061 169.77 106.12L171.19 106.47C171.599 106.558 171.983 106.74 172.31 107C172.445 107.128 172.55 107.284 172.617 107.456C172.684 107.629 172.713 107.815 172.7 108C172.685 108.411 172.525 108.804 172.25 109.11C172.011 109.325 171.728 109.486 171.421 109.581C171.113 109.676 170.789 109.703 170.47 109.66C169.86 109.694 169.257 109.509 168.77 109.14C168.556 108.937 168.389 108.689 168.282 108.414C168.175 108.14 168.13 107.844 168.15 107.55L168.69 107.54Z" fill="#00582D"/>
<path d="M183.04 105.43C182.957 105.03 182.729 104.674 182.4 104.43C182.07 104.181 181.664 104.05 181.25 104.06C180.936 104.041 180.623 104.1 180.337 104.23C180.051 104.361 179.801 104.56 179.61 104.81C179.237 105.338 179.044 105.973 179.06 106.62C179.044 107.267 179.237 107.902 179.61 108.43C179.803 108.678 180.052 108.876 180.338 109.007C180.624 109.138 180.937 109.197 181.25 109.18C181.49 109.186 181.729 109.142 181.951 109.051C182.173 108.959 182.374 108.823 182.54 108.65C182.88 108.286 183.085 107.817 183.12 107.32H183.68C183.64 107.962 183.366 108.567 182.91 109.02C182.69 109.231 182.43 109.396 182.144 109.504C181.859 109.612 181.555 109.662 181.25 109.65C180.871 109.665 180.494 109.592 180.147 109.438C179.8 109.283 179.493 109.051 179.25 108.76C178.783 108.141 178.53 107.386 178.53 106.61C178.53 105.834 178.783 105.079 179.25 104.46C179.494 104.17 179.801 103.939 180.148 103.787C180.494 103.634 180.872 103.563 181.25 103.58C181.809 103.577 182.354 103.748 182.81 104.07C183.03 104.228 183.213 104.431 183.348 104.665C183.483 104.9 183.565 105.161 183.59 105.43H183.04Z" fill="#00582D"/>
<path d="M187.689 103.71H188.239V106.24H191.699V103.71H192.259V109.54H191.699V106.71H188.239V109.54H187.689V103.71Z" fill="#00582D"/>
<path d="M197.42 107.25H199.71L198.59 104.25L197.42 107.25ZM198.3 103.71H198.92L201.21 109.53H200.61L199.9 107.72H197.25L196.54 109.53H195.95L198.3 103.71Z" fill="#00582D"/>
<path d="M204.89 103.71H205.7L207.72 108.82L209.73 103.71H210.54V109.54H209.99V104.5L207.98 109.54H207.47L205.46 104.49L205.44 109.54H204.89V103.71Z" fill="#00582D"/>
<path d="M215.42 106.26H217.33C217.685 106.287 218.038 106.192 218.33 105.99C218.438 105.904 218.523 105.794 218.581 105.669C218.638 105.544 218.665 105.408 218.66 105.27C218.66 104.54 218.23 104.18 217.35 104.18H215.44L215.42 106.26ZM215.42 109.06H217.33C217.718 109.08 218.104 108.986 218.44 108.79C218.587 108.687 218.704 108.546 218.778 108.383C218.852 108.219 218.88 108.039 218.86 107.86C218.866 107.698 218.833 107.537 218.764 107.391C218.694 107.244 218.59 107.117 218.46 107.02C218.123 106.807 217.728 106.706 217.33 106.73H215.42V109.06ZM214.87 103.71H217.33C217.803 103.687 218.271 103.802 218.68 104.04C218.856 104.159 218.997 104.323 219.089 104.514C219.18 104.706 219.219 104.919 219.2 105.13C219.205 105.283 219.181 105.436 219.13 105.58C219.066 105.753 218.975 105.916 218.86 106.06C218.692 106.266 218.453 106.402 218.19 106.44C218.537 106.484 218.856 106.651 219.09 106.91C219.319 107.192 219.436 107.548 219.42 107.91C219.422 108.331 219.273 108.739 219 109.06C218.773 109.257 218.507 109.403 218.219 109.49C217.931 109.576 217.628 109.6 217.33 109.56H214.87V103.71Z" fill="#00582D"/>
<path d="M223.47 103.71H227.5V104.18H224.03V106.29H227.28V106.76H224.03V109.06H227.54V109.54H223.47V103.71Z" fill="#00582D"/>
<path d="M232.03 106.47H234.11C234.432 106.479 234.746 106.369 234.99 106.16C235.112 106.062 235.209 105.936 235.273 105.794C235.337 105.652 235.367 105.496 235.36 105.34C235.367 105.184 235.342 105.028 235.287 104.882C235.232 104.736 235.148 104.603 235.04 104.49C234.783 104.268 234.449 104.157 234.11 104.18H232.03V106.47ZM231.48 103.71H234.11C234.568 103.686 235.02 103.82 235.39 104.09C235.555 104.226 235.686 104.4 235.771 104.596C235.856 104.793 235.893 105.006 235.88 105.22C235.895 105.576 235.793 105.927 235.59 106.22C235.38 106.491 235.078 106.676 234.74 106.74C234.893 106.75 235.041 106.793 235.176 106.865C235.311 106.938 235.428 107.038 235.52 107.16C235.69 107.432 235.774 107.749 235.76 108.07C235.761 108.364 235.778 108.658 235.81 108.95C235.822 109.171 235.899 109.383 236.03 109.56H235.42C235.37 109.455 235.333 109.344 235.31 109.23C235.31 109.13 235.31 109.05 235.31 108.98C235.31 108.91 235.31 108.81 235.31 108.66C235.362 108.192 235.256 107.721 235.01 107.32C234.901 107.203 234.767 107.112 234.619 107.053C234.47 106.994 234.31 106.969 234.15 106.98H232.04V109.56H231.49L231.48 103.71Z" fill="#00582D"/>
<path fill-rule="evenodd" clip-rule="evenodd" d="M210.28 91.19C210.28 89.93 210.28 88.38 209.14 87.62C208.891 87.4564 208.622 87.3253 208.34 87.23C208.014 87.1319 207.679 87.0649 207.34 87.03C207.06 87.03 206.77 86.98 206.48 86.97V91.19H210.28ZM200.54 91.19V86.96C200.037 86.9787 199.536 87.0321 199.04 87.12C196.96 87.47 196.28 89.3 196.44 91.19H200.54ZM152.17 87.09V91.18H156.51C156.517 90.4551 156.429 89.7324 156.25 89.03C156.161 88.742 156.03 88.4689 155.86 88.22C155.11 87.1 153.44 87.05 152.17 87.1V87.09ZM199.83 93.36H194.39L194.25 93.24V93.15C194.2 92.72 194.15 92.29 194.12 91.86C194.09 91.43 194.12 91.08 194.12 90.69C194.121 89.7686 194.327 88.8589 194.723 88.027C195.119 87.195 195.695 86.4616 196.41 85.88C196.871 85.568 197.377 85.3286 197.91 85.17C198.456 84.9997 199.02 84.8891 199.59 84.84C200.18 84.79 200.77 84.76 201.36 84.76H205.77C206.341 84.7567 206.912 84.7834 207.48 84.84C208.028 84.8814 208.571 84.9786 209.1 85.13C209.603 85.2798 210.081 85.5022 210.52 85.79C210.971 86.0912 211.359 86.4786 211.66 86.93C211.992 87.4542 212.239 88.0281 212.39 88.63C212.576 89.4059 212.664 90.2022 212.65 91C212.65 91.36 212.65 91.72 212.65 92.07C212.65 92.42 212.58 92.79 212.53 93.16V93.25L212.39 93.36H204.39L204.25 93.22V86.96H202.93V92.85V92.91L199.65 98.55L199.54 98.61H197.11L196.97 98.37L199.83 93.36ZM213.83 91.08C213.712 89.3313 214.18 87.5929 215.16 86.14C215.66 85.5843 216.28 85.1497 216.973 84.8691C217.666 84.5884 218.414 84.469 219.16 84.52C219.873 84.4723 220.588 84.588 221.25 84.8584C221.912 85.1287 222.504 85.5465 222.98 86.08C223.916 87.4761 224.362 89.143 224.25 90.82V98.44L224.11 98.58H222.11L221.97 98.44V90.95C222.049 89.8034 221.788 88.659 221.22 87.66C220.969 87.3246 220.638 87.0574 220.257 86.8828C219.876 86.7081 219.458 86.6315 219.04 86.66C218.634 86.6378 218.229 86.7177 217.863 86.8924C217.496 87.0671 217.179 87.331 216.94 87.66C216.398 88.6209 216.147 89.719 216.22 90.82V98.48L216.08 98.62H214.03L213.89 98.48L213.83 91.08ZM141.38 88.56H144.27L144.41 88.82L144.33 88.94C143.95 89.4867 143.58 90.0467 143.22 90.62C142.93 91.11 142.64 91.62 142.36 92.1H145.63L145.76 92.2L147.36 98.44L147.22 98.62H145.22L145.09 98.52L144.01 94.17H141.39C140.87 95.1984 140.429 96.2648 140.07 97.36C139.96 97.71 139.86 98.08 139.77 98.44V98.52L139.64 98.62H137.64L137.5 98.44V98.32C137.766 97.2987 138.1 96.2964 138.5 95.32C139.133 93.6957 139.913 92.1325 140.83 90.65H138.97L138.83 90.51V88.79V88.72L141.54 84.84L141.65 84.79H143.73L143.87 85.05L141.38 88.56ZM156.7 96.62H150.83C150.722 97.3145 150.509 97.9887 150.2 98.62V98.7L150.03 98.77L148.17 98.01L148.1 97.81L148.11 97.7C148.521 96.8096 148.69 95.8266 148.6 94.85V94.7L148.74 94.55H150.11C150.11 91.41 150.11 88.27 150.11 85.13V85.04L150.23 84.91H150.31C150.68 84.91 151.04 84.83 151.4 84.8C151.76 84.77 152.11 84.75 152.47 84.75C153.268 84.7358 154.064 84.8232 154.84 85.01C155.443 85.1595 156.017 85.406 156.54 85.74C156.991 86.0412 157.379 86.4286 157.68 86.88C157.968 87.3187 158.19 87.7971 158.34 88.3C158.49 88.8296 158.59 89.3719 158.64 89.92C158.69 90.53 158.71 91.17 158.71 91.78V93.21L158.57 93.35H152.42V94.57H158.5H158.6L158.74 94.71V96.49H161.11L161.25 96.64V96.75C161.156 97.7364 161.325 98.7301 161.74 99.63L161.79 99.72L161.72 99.92L159.86 100.67L159.68 100.61V100.53C159.37 99.8992 159.157 99.2248 159.05 98.53H156.89L156.75 98.39L156.7 96.62ZM165.9 87.02L164.53 85.02L164.66 84.76H167.04L167.14 84.82L168.48 86.82C169.123 86.8462 169.753 87.0129 170.324 87.3083C170.896 87.6037 171.396 88.0207 171.79 88.53C172.629 89.9005 173.027 91.4958 172.93 93.1V98.49L172.79 98.63H170.74L170.6 98.49V93.22C170.673 92.0752 170.416 90.9334 169.86 89.93C169.607 89.5938 169.275 89.3262 168.892 89.1516C168.51 88.9769 168.089 88.9007 167.67 88.93C167.27 88.901 166.868 88.9717 166.502 89.1357C166.135 89.2998 165.815 89.552 165.57 89.87C165.028 90.8308 164.777 91.9291 164.85 93.03V98.47L164.71 98.61H162.66L162.52 98.47V93.33C162.45 91.8317 162.767 90.3406 163.44 89C163.971 88.0434 164.859 87.3353 165.91 87.03L165.9 87.02ZM232.84 86.96L228.84 87.04C228.559 87.0426 228.29 87.1548 228.09 87.3527C227.89 87.5507 227.775 87.8188 227.77 88.1V95.27C227.77 95.5521 227.881 95.8227 228.08 96.0231C228.278 96.2235 228.548 96.3374 228.83 96.34H234.83L234.97 96.48V96.58C234.987 97.2258 235.064 97.8686 235.2 98.5C235.28 98.9017 235.411 99.2916 235.59 99.66V99.75L235.51 99.95L233.66 100.7L233.48 100.64V100.56C233.309 100.22 233.169 99.865 233.06 99.5C232.978 99.207 232.911 98.9099 232.86 98.61C231.52 98.61 230.19 98.61 228.86 98.61C227.978 98.6021 227.134 98.2474 226.511 97.6225C225.887 96.9975 225.535 96.1525 225.53 95.27V88.1C225.533 87.2167 225.884 86.3702 226.508 85.7447C227.131 85.1192 227.977 84.7653 228.86 84.76H234.92L235.07 84.91V85.02C235.044 85.623 235.087 86.2271 235.2 86.82C235.28 87.2346 235.411 87.6377 235.59 88.02L235.64 88.11L235.56 88.3L233.71 89.08L233.53 89.01V88.93C233.351 88.5901 233.21 88.2312 233.11 87.86C232.97 87.57 232.9 87.27 232.85 86.97L232.84 86.96ZM190.11 86.82H187.5V91.2H192.71L192.85 91.34V93.24L192.71 93.38H187.51V98.5L187.37 98.64H182.59C182.54 98.81 182.49 99.02 182.45 99.17C182.41 99.32 182.36 99.49 182.31 99.65C182.202 99.9701 182.068 100.281 181.91 100.58V100.67L181.73 100.73L179.87 99.98L179.8 99.78V99.69C180.242 98.7857 180.485 97.7965 180.51 96.79V96.7L180.66 96.56H185.16V93.38H179.99L179.85 93.24V91.34L179.99 91.2H185.11V86.82H182.51C182.459 87.1307 182.389 87.438 182.3 87.74C182.198 88.1041 182.058 88.4562 181.88 88.79V88.87L181.71 88.94L179.85 88.18L179.78 87.99V87.89C179.97 87.5251 180.104 87.1342 180.18 86.73C180.26 86.3148 180.3 85.8929 180.3 85.47C180.3 85.32 180.3 85.17 180.3 85.03V84.92L180.44 84.77H192.2L192.34 84.92V85.03C192.34 85.17 192.34 85.32 192.34 85.47C192.34 85.8929 192.38 86.3148 192.46 86.73C192.537 87.1325 192.668 87.5228 192.85 87.89L192.9 87.99L192.83 88.18L190.97 88.94L190.8 88.87L190.75 88.79C190.58 88.454 190.443 88.1024 190.34 87.74C190.244 87.4384 190.167 87.1311 190.11 86.82Z" fill="#00582D"/>
<path fill-rule="evenodd" clip-rule="evenodd" d="M66.7725 25.3111C54.5592 37.5483 39.9152 47.0304 23.807 53.1318C24.1833 56.012 24.3725 58.9139 24.3733 61.8191C24.3806 70.814 22.5512 79.7138 18.9994 87.9625L18.9994 121.817L66.7725 25.3111Z" fill="#004224" fill-opacity="0.1"/>
<path fill-rule="evenodd" clip-rule="evenodd" d="M78.4795 1.81689L44.5286 1.81689C37.5989 12.5658 28.9775 22.0996 19.0048 30.0418V48.7925C43.4508 40.2498 64.379 23.7198 78.4795 1.81689Z" fill="#004224" fill-opacity="0.1"/>
<path fill-rule="evenodd" clip-rule="evenodd" d="M37.7061 1.81696L19.0039 1.81696L19.0039 22.6362C26.0808 16.5192 32.3646 9.52415 37.7061 1.81696Z" fill="#004224" fill-opacity="0.1"/>
<path fill-rule="evenodd" clip-rule="evenodd" d="M305.707 98.3229C317.92 86.0858 332.564 76.6036 348.673 70.5022C348.296 67.6221 348.107 64.7201 348.106 61.815C348.099 52.8201 349.928 43.9203 353.48 35.6716V1.81714L305.707 98.3229Z" fill="#004224" fill-opacity="0.1"/>
<path fill-rule="evenodd" clip-rule="evenodd" d="M294 121.817H327.951C334.881 111.068 343.502 101.534 353.475 93.5922V74.8416C329.029 83.3842 308.1 99.9143 294 121.817Z" fill="#004224" fill-opacity="0.1"/>
<path fill-rule="evenodd" clip-rule="evenodd" d="M334.773 121.817H353.476V100.998C346.399 107.115 340.115 114.11 334.773 121.817Z" fill="#004224" fill-opacity="0.1"/>
</svg>
