<svg width="364" height="124" viewBox="0 0 364 124" fill="none" xmlns="http://www.w3.org/2000/svg">
<path d="M0 16C0 7.16344 7.16344 0 16 0H348C356.837 0 364 7.16344 364 16V108C364 116.837 356.837 124 348 124H16C7.16344 124 0 116.837 0 108V16Z" fill="#E5EAE8"/>
<path fill-rule="evenodd" clip-rule="evenodd" d="M145.86 64.2701L172.46 11.0701L177.58 21.3101C172.323 27.7597 169.457 35.8291 169.47 44.1501C169.472 45.7517 169.576 47.3516 169.78 48.9401C160.813 52.3018 152.66 57.5267 145.86 64.2701Z" fill="#00723F"/>
<path fill-rule="evenodd" clip-rule="evenodd" d="M191.81 54.51C193.245 56.435 195.064 58.0407 197.152 59.2252C199.24 60.4097 201.552 61.1471 203.94 61.3907C206.329 61.6342 208.742 61.3786 211.026 60.6399C213.311 59.9013 215.416 58.6958 217.21 57.1L224.39 71.44C220.712 73.9577 216.562 75.7059 212.192 76.5799C207.821 77.4538 203.318 77.4354 198.955 76.5257C194.591 75.616 190.456 73.8338 186.799 71.2861C183.141 68.7384 180.036 65.4777 177.67 61.7C182.051 58.6919 186.804 56.265 191.81 54.48M205.7 11.04C212.373 11.0324 218.89 13.0515 224.39 16.83L217.21 31.18C214.714 28.9622 211.63 27.5129 208.329 27.0063C205.029 26.4996 201.652 26.9573 198.606 28.3242C195.559 29.6912 192.972 31.9092 191.157 34.7114C189.341 37.5137 188.373 40.7808 188.37 44.12C188.37 44.36 188.37 44.59 188.37 44.82C183.088 45.2118 177.869 46.2186 172.82 47.82C172.296 43.1906 172.756 38.5028 174.169 34.0632C175.581 29.6236 177.915 25.5322 181.018 22.0567C184.121 18.5812 187.922 15.7998 192.174 13.8945C196.425 11.9892 201.031 11.0029 205.69 11L205.7 11.04Z" fill="#FDB813"/>
<path fill-rule="evenodd" clip-rule="evenodd" d="M193.52 47.8101C196.682 47.8112 199.841 48.0418 202.97 48.5001C193.904 49.8422 185.228 53.0982 177.518 58.0517C169.807 63.0052 163.239 69.5428 158.25 77.2301H139.34C145.199 68.195 153.226 60.7698 162.689 55.6312C172.152 50.4925 182.751 47.8038 193.52 47.8101Z" fill="#00723F"/>
<path fill-rule="evenodd" clip-rule="evenodd" d="M190.9 77.2301H162.05C165.673 72.0362 170.078 67.435 175.11 63.5901C178.926 69.5795 184.411 74.3211 190.89 77.2301" fill="#00723F"/>
<path fill-rule="evenodd" clip-rule="evenodd" d="M170.11 77.2301H162.11C165.715 72.0407 170.1 67.4397 175.11 63.5901C172.284 67.6238 170.561 72.3256 170.11 77.2301Z" fill="#00582D"/>
<path fill-rule="evenodd" clip-rule="evenodd" d="M147.01 77.2302H139.34C146.603 66.0658 157.126 57.4072 169.48 52.4302C164.224 54.787 159.514 58.2075 155.647 62.476C151.779 66.7444 148.838 71.7682 147.01 77.2302Z" fill="#00582D"/>
<path d="M208.31 76.57H208.25C208.65 76.57 209.05 76.52 209.44 76.48C206.41 76.1928 203.43 75.5208 200.57 74.48C196.195 72.7075 192.141 70.2278 188.57 67.14C186.31 65.0648 184.321 62.7129 182.65 60.14C185.548 57.7149 188.732 55.6529 192.13 54C188.551 55.2798 185.1 56.8901 181.82 58.81C181.19 59.17 180.57 59.55 179.95 59.94L179.87 59.99C179.24 60.39 178.62 60.8 178 61.22C180.974 65.9621 185.103 69.8718 190 72.5827C194.897 75.2937 200.403 76.7172 206 76.72C206.55 76.72 207.09 76.72 207.64 76.72H207.83L208.31 76.57Z" fill="#D09910"/>
<path d="M183.04 20.0601C179.292 23.586 176.418 27.9372 174.645 32.7682C172.873 37.5992 172.251 42.7769 172.83 47.8901C174.18 47.4501 175.56 47.0601 176.94 46.7101C176.631 44.7854 176.474 42.8394 176.47 40.8901C176.464 33.436 178.758 26.1616 183.04 20.0601Z" fill="#D09910"/>
<path d="M133.47 107.25H135.75L134.63 104.25L133.47 107.25ZM134.35 103.71H134.97L137.25 109.53H136.66L135.95 107.72H133.29L132.59 109.53H132L134.35 103.71Z" fill="#00582D"/>
<path d="M141.5 109.06H142.69C143.348 109.118 144.003 108.913 144.51 108.49C144.889 107.94 145.091 107.288 145.091 106.62C145.091 105.952 144.889 105.3 144.51 104.75C144.003 104.327 143.348 104.122 142.69 104.18H141.5V109.06ZM140.95 103.71H142.95C143.317 103.682 143.686 103.733 144.031 103.861C144.377 103.989 144.69 104.19 144.95 104.45C145.393 105.087 145.631 105.844 145.631 106.62C145.631 107.396 145.393 108.153 144.95 108.79C144.69 109.051 144.377 109.252 144.031 109.379C143.686 109.507 143.317 109.559 142.95 109.53H140.95V103.71Z" fill="#00582D"/>
<path d="M150.26 109.06H151.44C151.772 109.12 152.114 109.099 152.436 108.997C152.757 108.895 153.049 108.716 153.286 108.475C153.522 108.234 153.696 107.94 153.793 107.616C153.89 107.293 153.906 106.951 153.84 106.62C153.903 105.946 153.698 105.275 153.27 104.75C152.76 104.326 152.102 104.121 151.44 104.18H150.26V109.06ZM149.7 103.71H151.7C152.067 103.682 152.436 103.733 152.781 103.861C153.127 103.989 153.44 104.19 153.7 104.45C154.149 105.085 154.39 105.843 154.39 106.62C154.39 107.397 154.149 108.155 153.7 108.79C153.44 109.051 153.127 109.252 152.781 109.379C152.436 109.507 152.067 109.559 151.7 109.53H149.7V103.71Z" fill="#00582D"/>
<path d="M159.06 103.71H158.5V109.54H159.06V103.71Z" fill="#00582D"/>
<path d="M163.69 107.54C163.666 107.777 163.701 108.016 163.792 108.235C163.882 108.455 164.026 108.649 164.21 108.8C164.621 109.073 165.108 109.206 165.6 109.18C165.955 109.167 166.3 109.06 166.6 108.87C166.753 108.782 166.879 108.655 166.967 108.502C167.055 108.349 167.101 108.176 167.1 108C167.108 107.867 167.081 107.734 167.021 107.614C166.962 107.495 166.872 107.393 166.76 107.32C166.499 107.144 166.207 107.019 165.9 106.95L164.6 106.63C164.248 106.558 163.921 106.396 163.65 106.16C163.526 106.041 163.429 105.896 163.367 105.735C163.305 105.574 163.279 105.402 163.29 105.23C163.294 104.811 163.459 104.41 163.75 104.11C163.955 103.919 164.199 103.772 164.464 103.681C164.729 103.59 165.011 103.555 165.29 103.58C165.841 103.564 166.381 103.737 166.82 104.07C167.027 104.229 167.192 104.436 167.302 104.673C167.412 104.91 167.463 105.169 167.45 105.43H166.89C166.899 105.239 166.862 105.048 166.782 104.874C166.702 104.7 166.581 104.548 166.43 104.43C166.105 104.186 165.707 104.059 165.3 104.07C164.948 104.063 164.601 104.157 164.3 104.34C164.161 104.441 164.051 104.575 163.979 104.731C163.907 104.887 163.876 105.059 163.89 105.23C163.884 105.336 163.902 105.442 163.941 105.541C163.981 105.639 164.042 105.728 164.12 105.8C164.312 105.952 164.533 106.061 164.77 106.12L166.19 106.47C166.599 106.558 166.983 106.74 167.31 107C167.445 107.128 167.55 107.284 167.617 107.456C167.684 107.629 167.713 107.815 167.7 108C167.685 108.411 167.525 108.804 167.25 109.11C167.011 109.325 166.728 109.486 166.421 109.581C166.113 109.676 165.789 109.703 165.47 109.66C164.86 109.694 164.257 109.509 163.77 109.14C163.556 108.937 163.389 108.689 163.282 108.414C163.175 108.14 163.13 107.844 163.15 107.55L163.69 107.54Z" fill="#00582D"/>
<path d="M178.04 105.43C177.957 105.03 177.729 104.674 177.4 104.43C177.07 104.181 176.664 104.05 176.25 104.06C175.936 104.041 175.623 104.1 175.337 104.23C175.051 104.361 174.801 104.56 174.61 104.81C174.237 105.338 174.044 105.973 174.06 106.62C174.044 107.267 174.237 107.902 174.61 108.43C174.803 108.678 175.052 108.876 175.338 109.007C175.624 109.138 175.937 109.197 176.25 109.18C176.49 109.186 176.729 109.142 176.951 109.051C177.173 108.959 177.374 108.823 177.54 108.65C177.88 108.286 178.085 107.817 178.12 107.32H178.68C178.64 107.962 178.366 108.567 177.91 109.02C177.69 109.231 177.43 109.396 177.144 109.504C176.859 109.612 176.555 109.662 176.25 109.65C175.871 109.665 175.494 109.592 175.147 109.438C174.8 109.283 174.493 109.051 174.25 108.76C173.783 108.141 173.53 107.386 173.53 106.61C173.53 105.834 173.783 105.079 174.25 104.46C174.494 104.17 174.801 103.939 175.148 103.787C175.494 103.634 175.872 103.563 176.25 103.58C176.809 103.577 177.354 103.748 177.81 104.07C178.03 104.228 178.213 104.431 178.348 104.665C178.483 104.9 178.565 105.161 178.59 105.43H178.04Z" fill="#00582D"/>
<path d="M182.689 103.71H183.239V106.24H186.699V103.71H187.259V109.54H186.699V106.71H183.239V109.54H182.689V103.71Z" fill="#00582D"/>
<path d="M192.42 107.25H194.71L193.59 104.25L192.42 107.25ZM193.3 103.71H193.92L196.21 109.53H195.61L194.9 107.72H192.25L191.54 109.53H190.95L193.3 103.71Z" fill="#00582D"/>
<path d="M199.89 103.71H200.7L202.72 108.82L204.73 103.71H205.54V109.54H204.99V104.5L202.98 109.54H202.47L200.46 104.49L200.44 109.54H199.89V103.71Z" fill="#00582D"/>
<path d="M210.42 106.26H212.33C212.685 106.287 213.038 106.192 213.33 105.99C213.438 105.904 213.523 105.794 213.581 105.669C213.638 105.544 213.665 105.408 213.66 105.27C213.66 104.54 213.23 104.18 212.35 104.18H210.44L210.42 106.26ZM210.42 109.06H212.33C212.718 109.08 213.104 108.986 213.44 108.79C213.587 108.687 213.704 108.546 213.778 108.383C213.852 108.219 213.88 108.039 213.86 107.86C213.866 107.698 213.833 107.537 213.764 107.391C213.694 107.244 213.59 107.117 213.46 107.02C213.123 106.807 212.728 106.706 212.33 106.73H210.42V109.06ZM209.87 103.71H212.33C212.803 103.687 213.271 103.802 213.68 104.04C213.856 104.159 213.997 104.323 214.089 104.514C214.18 104.706 214.219 104.919 214.2 105.13C214.205 105.283 214.181 105.436 214.13 105.58C214.066 105.753 213.975 105.916 213.86 106.06C213.692 106.266 213.453 106.402 213.19 106.44C213.537 106.484 213.856 106.651 214.09 106.91C214.319 107.192 214.436 107.548 214.42 107.91C214.422 108.331 214.273 108.739 214 109.06C213.773 109.257 213.507 109.403 213.219 109.49C212.931 109.576 212.628 109.6 212.33 109.56H209.87V103.71Z" fill="#00582D"/>
<path d="M218.47 103.71H222.5V104.18H219.03V106.29H222.28V106.76H219.03V109.06H222.54V109.54H218.47V103.71Z" fill="#00582D"/>
<path d="M227.03 106.47H229.11C229.432 106.479 229.746 106.369 229.99 106.16C230.112 106.062 230.209 105.936 230.273 105.794C230.337 105.652 230.367 105.496 230.36 105.34C230.367 105.184 230.342 105.028 230.287 104.882C230.232 104.736 230.148 104.603 230.04 104.49C229.783 104.268 229.449 104.157 229.11 104.18H227.03V106.47ZM226.48 103.71H229.11C229.568 103.686 230.02 103.82 230.39 104.09C230.555 104.226 230.686 104.4 230.771 104.596C230.856 104.793 230.893 105.006 230.88 105.22C230.895 105.576 230.793 105.927 230.59 106.22C230.38 106.491 230.078 106.676 229.74 106.74C229.893 106.75 230.041 106.793 230.176 106.865C230.311 106.938 230.428 107.038 230.52 107.16C230.69 107.432 230.774 107.749 230.76 108.07C230.761 108.364 230.778 108.658 230.81 108.95C230.822 109.171 230.899 109.383 231.03 109.56H230.42C230.37 109.455 230.333 109.344 230.31 109.23C230.31 109.13 230.31 109.05 230.31 108.98C230.31 108.91 230.31 108.81 230.31 108.66C230.362 108.192 230.256 107.721 230.01 107.32C229.901 107.203 229.767 107.112 229.619 107.053C229.47 106.994 229.31 106.969 229.15 106.98H227.04V109.56H226.49L226.48 103.71Z" fill="#00582D"/>
<path fill-rule="evenodd" clip-rule="evenodd" d="M205.28 91.19C205.28 89.93 205.28 88.38 204.14 87.62C203.891 87.4564 203.622 87.3253 203.34 87.23C203.014 87.1319 202.679 87.0649 202.34 87.03C202.06 87.03 201.77 86.98 201.48 86.97V91.19H205.28ZM195.54 91.19V86.96C195.037 86.9787 194.536 87.0321 194.04 87.12C191.96 87.47 191.28 89.3 191.44 91.19H195.54ZM147.17 87.09V91.18H151.51C151.517 90.4551 151.429 89.7324 151.25 89.03C151.161 88.742 151.03 88.4689 150.86 88.22C150.11 87.1 148.44 87.05 147.17 87.1V87.09ZM194.83 93.36H189.39L189.25 93.24V93.15C189.2 92.72 189.15 92.29 189.12 91.86C189.09 91.43 189.12 91.08 189.12 90.69C189.121 89.7686 189.327 88.8589 189.723 88.027C190.119 87.195 190.695 86.4616 191.41 85.88C191.871 85.568 192.377 85.3286 192.91 85.17C193.456 84.9997 194.02 84.8891 194.59 84.84C195.18 84.79 195.77 84.76 196.36 84.76H200.77C201.341 84.7567 201.912 84.7834 202.48 84.84C203.028 84.8814 203.571 84.9786 204.1 85.13C204.603 85.2798 205.081 85.5022 205.52 85.79C205.971 86.0912 206.359 86.4786 206.66 86.93C206.992 87.4542 207.239 88.0281 207.39 88.63C207.576 89.4059 207.664 90.2022 207.65 91C207.65 91.36 207.65 91.72 207.65 92.07C207.65 92.42 207.58 92.79 207.53 93.16V93.25L207.39 93.36H199.39L199.25 93.22V86.96H197.93V92.85V92.91L194.65 98.55L194.54 98.61H192.11L191.97 98.37L194.83 93.36ZM208.83 91.08C208.712 89.3313 209.18 87.5929 210.16 86.14C210.66 85.5843 211.28 85.1497 211.973 84.8691C212.666 84.5884 213.414 84.469 214.16 84.52C214.873 84.4723 215.588 84.588 216.25 84.8584C216.912 85.1287 217.504 85.5465 217.98 86.08C218.916 87.4761 219.362 89.143 219.25 90.82V98.44L219.11 98.58H217.11L216.97 98.44V90.95C217.049 89.8034 216.788 88.659 216.22 87.66C215.969 87.3246 215.638 87.0574 215.257 86.8828C214.876 86.7081 214.458 86.6315 214.04 86.66C213.634 86.6378 213.229 86.7177 212.863 86.8924C212.496 87.0671 212.179 87.331 211.94 87.66C211.398 88.6209 211.147 89.719 211.22 90.82V98.48L211.08 98.62H209.03L208.89 98.48L208.83 91.08ZM136.38 88.56H139.27L139.41 88.82L139.33 88.94C138.95 89.4867 138.58 90.0467 138.22 90.62C137.93 91.11 137.64 91.62 137.36 92.1H140.63L140.76 92.2L142.36 98.44L142.22 98.62H140.22L140.09 98.52L139.01 94.17H136.39C135.87 95.1984 135.429 96.2648 135.07 97.36C134.96 97.71 134.86 98.08 134.77 98.44V98.52L134.64 98.62H132.64L132.5 98.44V98.32C132.766 97.2987 133.1 96.2964 133.5 95.32C134.133 93.6957 134.913 92.1325 135.83 90.65H133.97L133.83 90.51V88.79V88.72L136.54 84.84L136.65 84.79H138.73L138.87 85.05L136.38 88.56ZM151.7 96.62H145.83C145.722 97.3145 145.509 97.9887 145.2 98.62V98.7L145.03 98.77L143.17 98.01L143.1 97.81L143.11 97.7C143.521 96.8096 143.69 95.8266 143.6 94.85V94.7L143.74 94.55H145.11C145.11 91.41 145.11 88.27 145.11 85.13V85.04L145.23 84.91H145.31C145.68 84.91 146.04 84.83 146.4 84.8C146.76 84.77 147.11 84.75 147.47 84.75C148.268 84.7358 149.064 84.8232 149.84 85.01C150.443 85.1595 151.017 85.406 151.54 85.74C151.991 86.0412 152.379 86.4286 152.68 86.88C152.968 87.3187 153.19 87.7971 153.34 88.3C153.49 88.8296 153.59 89.3719 153.64 89.92C153.69 90.53 153.71 91.17 153.71 91.78V93.21L153.57 93.35H147.42V94.57H153.5H153.6L153.74 94.71V96.49H156.11L156.25 96.64V96.75C156.156 97.7364 156.325 98.7301 156.74 99.63L156.79 99.72L156.72 99.92L154.86 100.67L154.68 100.61V100.53C154.37 99.8992 154.157 99.2248 154.05 98.53H151.89L151.75 98.39L151.7 96.62ZM160.9 87.02L159.53 85.02L159.66 84.76H162.04L162.14 84.82L163.48 86.82C164.123 86.8462 164.753 87.0129 165.324 87.3083C165.896 87.6037 166.396 88.0207 166.79 88.53C167.629 89.9005 168.027 91.4958 167.93 93.1V98.49L167.79 98.63H165.74L165.6 98.49V93.22C165.673 92.0752 165.416 90.9334 164.86 89.93C164.607 89.5938 164.275 89.3262 163.892 89.1516C163.51 88.9769 163.089 88.9007 162.67 88.93C162.27 88.901 161.868 88.9717 161.502 89.1357C161.135 89.2998 160.815 89.552 160.57 89.87C160.028 90.8308 159.777 91.9291 159.85 93.03V98.47L159.71 98.61H157.66L157.52 98.47V93.33C157.45 91.8317 157.767 90.3406 158.44 89C158.971 88.0434 159.859 87.3353 160.91 87.03L160.9 87.02ZM227.84 86.96L223.84 87.04C223.559 87.0426 223.29 87.1548 223.09 87.3527C222.89 87.5507 222.775 87.8188 222.77 88.1V95.27C222.77 95.5521 222.881 95.8227 223.08 96.0231C223.278 96.2235 223.548 96.3374 223.83 96.34H229.83L229.97 96.48V96.58C229.987 97.2258 230.064 97.8686 230.2 98.5C230.28 98.9017 230.411 99.2916 230.59 99.66V99.75L230.51 99.95L228.66 100.7L228.48 100.64V100.56C228.309 100.22 228.169 99.865 228.06 99.5C227.978 99.207 227.911 98.9099 227.86 98.61C226.52 98.61 225.19 98.61 223.86 98.61C222.978 98.6021 222.134 98.2474 221.511 97.6225C220.887 96.9975 220.535 96.1525 220.53 95.27V88.1C220.533 87.2167 220.884 86.3702 221.508 85.7447C222.131 85.1192 222.977 84.7653 223.86 84.76H229.92L230.07 84.91V85.02C230.044 85.623 230.087 86.2271 230.2 86.82C230.28 87.2346 230.411 87.6377 230.59 88.02L230.64 88.11L230.56 88.3L228.71 89.08L228.53 89.01V88.93C228.351 88.5901 228.21 88.2312 228.11 87.86C227.97 87.57 227.9 87.27 227.85 86.97L227.84 86.96ZM185.11 86.82H182.5V91.2H187.71L187.85 91.34V93.24L187.71 93.38H182.51V98.5L182.37 98.64H177.59C177.54 98.81 177.49 99.02 177.45 99.17C177.41 99.32 177.36 99.49 177.31 99.65C177.202 99.9701 177.068 100.281 176.91 100.58V100.67L176.73 100.73L174.87 99.98L174.8 99.78V99.69C175.242 98.7857 175.485 97.7965 175.51 96.79V96.7L175.66 96.56H180.16V93.38H174.99L174.85 93.24V91.34L174.99 91.2H180.11V86.82H177.51C177.459 87.1307 177.389 87.438 177.3 87.74C177.198 88.1041 177.058 88.4562 176.88 88.79V88.87L176.71 88.94L174.85 88.18L174.78 87.99V87.89C174.97 87.5251 175.104 87.1342 175.18 86.73C175.26 86.3148 175.3 85.8929 175.3 85.47C175.3 85.32 175.3 85.17 175.3 85.03V84.92L175.44 84.77H187.2L187.34 84.92V85.03C187.34 85.17 187.34 85.32 187.34 85.47C187.34 85.8929 187.38 86.3148 187.46 86.73C187.537 87.1325 187.668 87.5228 187.85 87.89L187.9 87.99L187.83 88.18L185.97 88.94L185.8 88.87L185.75 88.79C185.58 88.454 185.443 88.1024 185.34 87.74C185.244 87.4384 185.167 87.1311 185.11 86.82Z" fill="#00582D"/>
</svg>
