<svg width="36" height="36" viewBox="0 0 36 36" fill="none" xmlns="http://www.w3.org/2000/svg">
<rect width="36" height="36" rx="18" fill="#E5EAE8"/>
<path fill-rule="evenodd" clip-rule="evenodd" d="M9.3584 18.9559L15.8049 6.01709L17.0458 8.50756C15.7716 10.0762 15.0772 12.0387 15.0803 14.0625C15.0807 14.452 15.1058 14.8411 15.1554 15.2275C12.9822 16.0451 11.0064 17.3158 9.3584 18.9559Z" fill="#00723F"/>
<path fill-rule="evenodd" clip-rule="evenodd" d="M20.4949 16.5821C20.8426 17.0503 21.2834 17.4408 21.7895 17.7289C22.2956 18.017 22.8558 18.1963 23.4347 18.2555C24.0135 18.3148 24.5983 18.2526 25.1519 18.0729C25.7055 17.8933 26.2159 17.6001 26.6506 17.212L28.3906 20.6996C27.4992 21.312 26.4936 21.7372 25.4343 21.9497C24.375 22.1623 23.2839 22.1578 22.2263 21.9365C21.1688 21.7153 20.1667 21.2818 19.2803 20.6622C18.3939 20.0426 17.6414 19.2495 17.068 18.3308C18.1298 17.5992 19.2817 17.0089 20.4949 16.5748M23.8611 6.00973C25.4782 6.00789 27.0578 6.49895 28.3906 7.41791L26.6506 10.908C26.0456 10.3686 25.2982 10.0161 24.4983 9.89289C23.6985 9.76967 22.8801 9.88098 22.1418 10.2134C21.4035 10.5459 20.7766 11.0853 20.3365 11.7669C19.8964 12.4484 19.6619 13.243 19.6612 14.0551C19.6612 14.1135 19.6612 14.1694 19.6612 14.2254C18.381 14.3207 17.1162 14.5655 15.8926 14.955C15.7657 13.8291 15.8771 12.689 16.2195 11.6092C16.5618 10.5295 17.1275 9.53439 17.8794 8.68911C18.6314 7.84383 19.5526 7.16737 20.583 6.70398C21.6134 6.24058 22.7296 6.00069 23.8587 6L23.8611 6.00973Z" fill="#FDB813"/>
<path fill-rule="evenodd" clip-rule="evenodd" d="M20.9089 14.9526C21.6753 14.9529 22.4407 15.009 23.1991 15.1205C21.002 15.4469 18.8993 16.2388 17.0307 17.4435C15.1621 18.6482 13.5703 20.2383 12.3612 22.1079H7.77832C9.19826 19.9105 11.1436 18.1046 13.437 16.8548C15.7305 15.605 18.2991 14.9511 20.9089 14.9526Z" fill="#00723F"/>
<path fill-rule="evenodd" clip-rule="evenodd" d="M20.274 22.1079H13.2822C14.1602 20.8447 15.2279 19.7257 16.4473 18.7905C17.3721 20.2472 18.7015 21.4004 20.2716 22.1079" fill="#00723F"/>
<path fill-rule="evenodd" clip-rule="evenodd" d="M15.2357 22.1079H13.2969C14.1705 20.8458 15.2332 19.7268 16.4474 18.7905C15.7626 19.7716 15.3449 20.9151 15.2357 22.1079Z" fill="#00582D"/>
<path fill-rule="evenodd" clip-rule="evenodd" d="M9.63715 22.1083H7.77832C9.53851 19.393 12.0888 17.2871 15.0828 16.0767C13.809 16.6499 12.6675 17.4818 11.7303 18.5199C10.793 19.558 10.0803 20.7799 9.63715 22.1083Z" fill="#00582D"/>
<path d="M24.4238 22.0884H24.4092C24.5062 22.0884 24.6031 22.0762 24.6976 22.0665C23.9634 21.9966 23.241 21.8332 22.548 21.5801C21.4876 21.149 20.5051 20.5459 19.6398 19.7949C19.0921 19.2902 18.6101 18.7182 18.2051 18.0924C18.9074 17.5026 19.679 17.0011 20.5025 16.5991C19.6353 16.9104 18.7988 17.302 18.0039 17.769C17.8512 17.8565 17.701 17.9489 17.5507 18.0438L17.5313 18.056C17.3786 18.1532 17.2284 18.253 17.0781 18.3551C17.7989 19.5084 18.7995 20.4593 19.9864 21.1186C21.1732 21.778 22.5074 22.1242 23.8639 22.1249C23.9972 22.1249 24.1281 22.1249 24.2614 22.1249H24.3074L24.4238 22.0884Z" fill="#D09910"/>
<path d="M18.37 8.20361C17.4617 9.06116 16.7651 10.1194 16.3355 11.2944C15.906 12.4693 15.7554 13.7286 15.8956 14.9722C16.2228 14.8651 16.5572 14.7703 16.8917 14.6852C16.8167 14.2171 16.7787 13.7438 16.7777 13.2697C16.7762 11.4568 17.3323 9.68758 18.37 8.20361Z" fill="#D09910"/>
<path d="M6.35626 29.4093H6.90882L6.63738 28.6797L6.35626 29.4093ZM6.56953 28.5483H6.71978L7.27234 29.9638H7.12936L6.95728 29.5236H6.31263L6.14299 29.9638H6L6.56953 28.5483Z" fill="#00582D"/>
<path d="M8.30224 29.8494H8.59064C8.75014 29.8635 8.90872 29.8137 9.03171 29.7108C9.12342 29.577 9.17251 29.4184 9.17251 29.256C9.17251 29.0936 9.12342 28.935 9.03171 28.8012C8.90872 28.6983 8.75014 28.6484 8.59064 28.6625H8.30224V29.8494ZM8.16895 28.5482H8.65365C8.7426 28.5413 8.83198 28.5539 8.91565 28.5849C8.99931 28.616 9.07529 28.6649 9.13835 28.7282C9.24572 28.8831 9.30327 29.0673 9.30327 29.256C9.30327 29.4447 9.24572 29.6288 9.13835 29.7837C9.07529 29.8471 8.99931 29.8959 8.91565 29.927C8.83198 29.9581 8.7426 29.9706 8.65365 29.9637H8.16895V28.5482Z" fill="#00582D"/>
<path d="M10.4248 29.8494H10.7108C10.7912 29.8641 10.874 29.8587 10.952 29.8339C11.0299 29.8091 11.1006 29.7656 11.158 29.7071C11.2153 29.6486 11.2576 29.5769 11.281 29.4983C11.3044 29.4196 11.3083 29.3365 11.2924 29.256C11.3076 29.0921 11.258 28.9287 11.1543 28.8012C11.0305 28.6979 10.871 28.648 10.7108 28.6625H10.4248V29.8494ZM10.2891 28.5482H10.7738C10.8627 28.5413 10.9521 28.5539 11.0358 28.5849C11.1194 28.616 11.1954 28.6649 11.2585 28.7282C11.3672 28.8826 11.4255 29.0669 11.4255 29.256C11.4255 29.445 11.3672 29.6294 11.2585 29.7837C11.1954 29.8471 11.1194 29.8959 11.0358 29.927C10.9521 29.9581 10.8627 29.9706 10.7738 29.9637H10.2891V28.5482Z" fill="#00582D"/>
<path d="M12.5576 28.5483H12.4219V29.9663H12.5576V28.5483Z" fill="#00582D"/>
<path d="M13.6799 29.4796C13.674 29.5372 13.6825 29.5953 13.7045 29.6488C13.7265 29.7022 13.7613 29.7494 13.8059 29.7861C13.9054 29.8525 14.0235 29.8849 14.1428 29.8785C14.2288 29.8754 14.3124 29.8494 14.3851 29.8031C14.4221 29.7817 14.4528 29.7508 14.4741 29.7137C14.4953 29.6765 14.5065 29.6344 14.5063 29.5915C14.5082 29.5591 14.5016 29.5268 14.4872 29.4977C14.4727 29.4687 14.4509 29.444 14.4239 29.4261C14.3606 29.3834 14.2899 29.3529 14.2155 29.3361L13.9004 29.2583C13.8151 29.2409 13.7357 29.2015 13.6702 29.144C13.6401 29.115 13.6167 29.0797 13.6016 29.0406C13.5865 29.0015 13.5801 28.9596 13.5829 28.9178C13.5839 28.816 13.6238 28.7185 13.6944 28.6454C13.7441 28.5989 13.8031 28.5633 13.8674 28.5411C13.9317 28.5189 13.9999 28.5105 14.0676 28.5165C14.2012 28.5127 14.332 28.5548 14.4384 28.6357C14.4885 28.6744 14.5286 28.7247 14.5552 28.7823C14.5818 28.8399 14.5941 28.9031 14.5911 28.9665H14.4554C14.4575 28.9199 14.4485 28.8736 14.4291 28.8313C14.4097 28.789 14.3805 28.7519 14.3439 28.7233C14.2651 28.6639 14.1686 28.633 14.0701 28.6357C13.9847 28.6341 13.9007 28.6569 13.8277 28.7014C13.794 28.7259 13.7672 28.7586 13.7498 28.7965C13.7324 28.8345 13.725 28.8762 13.7283 28.9178C13.7269 28.9436 13.7311 28.9694 13.7407 28.9934C13.7504 29.0174 13.7652 29.0389 13.7841 29.0565C13.8305 29.0933 13.8842 29.1199 13.9416 29.1343L14.2858 29.2194C14.3849 29.2408 14.4778 29.285 14.5572 29.3483C14.5898 29.3794 14.6152 29.4173 14.6315 29.4593C14.6479 29.5013 14.6548 29.5465 14.6517 29.5915C14.6479 29.6915 14.6093 29.7871 14.5426 29.8615C14.4847 29.9138 14.4161 29.9529 14.3416 29.976C14.2671 29.9991 14.1885 30.0056 14.1113 29.9952C13.9633 30.0034 13.8173 29.9586 13.6993 29.8688C13.6473 29.8194 13.6069 29.7592 13.581 29.6923C13.555 29.6255 13.5441 29.5537 13.549 29.4821L13.6799 29.4796Z" fill="#00582D"/>
<path d="M17.1575 28.9666C17.1372 28.8692 17.082 28.7827 17.0024 28.7234C16.9222 28.6628 16.824 28.6311 16.7237 28.6334C16.6476 28.6288 16.5716 28.6431 16.5023 28.6749C16.433 28.7067 16.3725 28.7551 16.3262 28.8158C16.2356 28.9443 16.1889 29.0987 16.1929 29.256C16.1889 29.4134 16.2356 29.5678 16.3262 29.6963C16.3728 29.7567 16.4333 29.8048 16.5025 29.8366C16.5718 29.8684 16.6476 29.8828 16.7237 29.8787C16.7818 29.8801 16.8397 29.8694 16.8935 29.8472C16.9473 29.825 16.9959 29.7918 17.0363 29.7498C17.1187 29.6613 17.1684 29.5471 17.1768 29.4263H17.3126C17.3028 29.5824 17.2364 29.7295 17.126 29.8398C17.0726 29.8911 17.0095 29.9311 16.9403 29.9575C16.8712 29.9838 16.7975 29.9959 16.7237 29.993C16.6317 29.9965 16.5402 29.9788 16.4562 29.9413C16.3722 29.9038 16.2979 29.8474 16.2389 29.7765C16.1257 29.6259 16.0645 29.4423 16.0645 29.2536C16.0645 29.0649 16.1257 28.8813 16.2389 28.7307C16.298 28.6601 16.3724 28.6041 16.4564 28.567C16.5405 28.5299 16.6319 28.5127 16.7237 28.5167C16.859 28.5159 16.9911 28.5576 17.1017 28.6359C17.155 28.6742 17.1994 28.7236 17.232 28.7806C17.2646 28.8377 17.2847 28.9011 17.2908 28.9666H17.1575Z" fill="#00582D"/>
<path d="M18.2842 28.5483H18.4175V29.1637H19.256V28.5483H19.3917V29.9663H19.256V29.278H18.4175V29.9663H18.2842V28.5483Z" fill="#00582D"/>
<path d="M20.6424 29.4093H21.1974L20.9259 28.6797L20.6424 29.4093ZM20.8557 28.5483H21.0059L21.5609 29.9638H21.4155L21.2434 29.5236H20.6012L20.4291 29.9638H20.2861L20.8557 28.5483Z" fill="#00582D"/>
<path d="M22.4531 28.5483H22.6494L23.139 29.7911L23.6261 28.5483H23.8224V29.9663H23.6891V28.7405L23.202 29.9663H23.0784L22.5913 28.738L22.5864 29.9663H22.4531V28.5483Z" fill="#00582D"/>
<path d="M25.0054 29.1682H25.4683C25.5541 29.1749 25.6397 29.1517 25.7106 29.1026C25.7366 29.0817 25.7574 29.055 25.7713 29.0245C25.7852 28.9941 25.7918 28.9609 25.7906 28.9275C25.7906 28.7499 25.6864 28.6624 25.4731 28.6624H25.0102L25.0054 29.1682ZM25.0054 29.8492H25.4683C25.5624 29.854 25.6559 29.8312 25.7373 29.7836C25.7729 29.7585 25.8012 29.7243 25.8191 29.6845C25.837 29.6447 25.8439 29.6008 25.839 29.5574C25.8406 29.518 25.8326 29.4788 25.8157 29.4432C25.7988 29.4076 25.7736 29.3767 25.7421 29.3531C25.6605 29.3013 25.5646 29.2766 25.4683 29.2825H25.0054V29.8492ZM24.8721 28.548H25.4683C25.5827 28.5425 25.6964 28.5704 25.7954 28.6283C25.8381 28.6572 25.8723 28.697 25.8944 28.7436C25.9166 28.7902 25.9259 28.842 25.9214 28.8934C25.9225 28.9306 25.9168 28.9677 25.9045 29.0029C25.889 29.045 25.8669 29.0844 25.839 29.1196C25.7984 29.1697 25.7404 29.2027 25.6767 29.212C25.7607 29.2227 25.8381 29.2633 25.8948 29.3263C25.9503 29.3948 25.9787 29.4814 25.9748 29.5695C25.9753 29.672 25.9392 29.7712 25.873 29.8492C25.818 29.8971 25.7534 29.9327 25.6836 29.9537C25.6139 29.9747 25.5404 29.9805 25.4683 29.9708H24.8721V28.548Z" fill="#00582D"/>
<path d="M26.9561 28.5483H27.9327V28.6626H27.0918V29.1758H27.8794V29.2901H27.0918V29.8495H27.9424V29.9663H26.9561V28.5483Z" fill="#00582D"/>
<path d="M29.0308 29.2193H29.5348C29.6128 29.2215 29.6888 29.1946 29.7481 29.1439C29.7775 29.12 29.801 29.0895 29.8166 29.0549C29.8321 29.0202 29.8394 28.9824 29.8378 28.9444C29.8394 28.9065 29.8333 28.8687 29.82 28.8331C29.8067 28.7976 29.7863 28.7652 29.7602 28.7377C29.6979 28.6838 29.6169 28.6567 29.5348 28.6623H29.0308V29.2193ZM28.8975 28.548H29.5348C29.6457 28.5423 29.7553 28.5749 29.8451 28.6404C29.885 28.6736 29.9166 28.7158 29.9372 28.7636C29.9578 28.8113 29.967 28.8633 29.9638 28.9153C29.9673 29.0018 29.9427 29.0872 29.8935 29.1585C29.8425 29.2244 29.7692 29.2694 29.6875 29.2849C29.7245 29.2874 29.7605 29.2978 29.7931 29.3155C29.8257 29.3331 29.8541 29.3575 29.8766 29.3871C29.9176 29.4533 29.9379 29.5305 29.9347 29.6084C29.9349 29.6799 29.939 29.7514 29.9468 29.8224C29.9496 29.8761 29.9682 29.9277 30.0002 29.9708H29.8523C29.84 29.9453 29.831 29.9183 29.8257 29.8905C29.8257 29.8662 29.8257 29.8468 29.8257 29.8297C29.8257 29.8127 29.8257 29.7884 29.8257 29.7519C29.8381 29.6382 29.8126 29.5235 29.753 29.426C29.7265 29.3976 29.6941 29.3754 29.658 29.3611C29.622 29.3468 29.5832 29.3408 29.5445 29.3433H29.0332V29.9708H28.8999L28.8975 28.548Z" fill="#00582D"/>
<path fill-rule="evenodd" clip-rule="evenodd" d="M23.7594 25.5034C23.7594 25.197 23.7594 24.82 23.4831 24.6352C23.4228 24.5954 23.3576 24.5635 23.2892 24.5403C23.2102 24.5164 23.129 24.5002 23.0469 24.4917C22.979 24.4917 22.9087 24.4795 22.8385 24.4771V25.5034H23.7594ZM21.3989 25.5034V24.4746C21.277 24.4792 21.1555 24.4922 21.0354 24.5136C20.5313 24.5987 20.3665 25.0438 20.4052 25.5034H21.3989ZM9.67638 24.5063V25.501H10.7282C10.7298 25.3247 10.7086 25.1489 10.6652 24.9781C10.6437 24.908 10.6118 24.8416 10.5707 24.7811C10.3889 24.5087 9.98417 24.4965 9.67638 24.5087V24.5063ZM21.2268 26.0312H19.9084L19.8745 26.002V25.9801C19.8624 25.8755 19.8503 25.771 19.843 25.6664C19.8357 25.5618 19.843 25.4767 19.843 25.3818C19.8432 25.1577 19.8931 24.9365 19.9891 24.7341C20.0851 24.5318 20.2248 24.3534 20.398 24.212C20.5096 24.1361 20.6322 24.0779 20.7615 24.0393C20.8939 23.9979 21.0305 23.971 21.1687 23.959C21.3116 23.9469 21.4546 23.9396 21.5976 23.9396H22.6664C22.8048 23.9388 22.9431 23.9453 23.0808 23.959C23.2137 23.9691 23.3453 23.9927 23.4734 24.0296C23.5953 24.066 23.7112 24.1201 23.8176 24.1901C23.9269 24.2633 24.0208 24.3576 24.0938 24.4673C24.1744 24.5948 24.2341 24.7344 24.2707 24.8808C24.3159 25.0695 24.337 25.2632 24.3338 25.4572C24.3338 25.5448 24.3338 25.6323 24.3338 25.7174C24.3338 25.8026 24.3168 25.8926 24.3047 25.9825V26.0044L24.2707 26.0312H22.3319L22.298 25.9971V24.4746H21.9781V25.9071V25.9217L21.1832 27.2934L21.1565 27.308H20.5676L20.5337 27.2497L21.2268 26.0312ZM24.6197 25.4767C24.591 25.0514 24.7045 24.6286 24.9421 24.2752C25.0633 24.1401 25.2136 24.0344 25.3815 23.9661C25.5495 23.8978 25.7307 23.8688 25.9115 23.8812C26.0844 23.8696 26.2576 23.8978 26.4181 23.9635C26.5785 24.0292 26.7219 24.1309 26.8372 24.2606C27.064 24.6002 27.1723 25.0056 27.145 25.4134V27.2667L27.1111 27.3007H26.6264L26.5925 27.2667V25.445C26.6117 25.1662 26.5484 24.8878 26.4107 24.6449C26.3499 24.5633 26.2696 24.4983 26.1774 24.4559C26.0851 24.4134 25.9837 24.3947 25.8824 24.4017C25.784 24.3963 25.6859 24.4157 25.597 24.4582C25.5081 24.5007 25.4312 24.5649 25.3734 24.6449C25.242 24.8786 25.1814 25.1457 25.1989 25.4134V27.2764L25.165 27.3105H24.6682L24.6343 27.2764L24.6197 25.4767ZM7.06142 24.8638H7.76181L7.79574 24.927L7.77635 24.9562C7.68426 25.0892 7.59459 25.2253 7.50734 25.3648C7.43706 25.484 7.36678 25.608 7.29892 25.7247H8.09141L8.12291 25.7491L8.51067 27.2667L8.47674 27.3105H7.99204L7.96054 27.2862L7.6988 26.2282H7.06384C6.93781 26.4783 6.83087 26.7377 6.74394 27.004C6.71728 27.0892 6.69304 27.1791 6.67123 27.2667V27.2862L6.63972 27.3105H6.15502L6.12109 27.2667V27.2375C6.18547 26.9891 6.26644 26.7454 6.36344 26.5079C6.51685 26.1128 6.70586 25.7327 6.92812 25.3721H6.47735L6.44342 25.338V24.9197V24.9027L7.10019 23.959L7.12685 23.9469H7.63094L7.66487 24.0101L7.06142 24.8638ZM10.7742 26.824H9.35163C9.32536 26.993 9.27389 27.1569 9.19895 27.3105V27.3299L9.15775 27.347L8.70698 27.1621L8.69001 27.1135L8.69244 27.0867C8.79203 26.8702 8.83299 26.6311 8.81119 26.3936V26.3571L8.84512 26.3206H9.17714C9.17714 25.5569 9.17714 24.7932 9.17714 24.0296V24.0077L9.20622 23.9761H9.22561C9.31528 23.9761 9.40252 23.9566 9.48977 23.9493C9.57701 23.942 9.66184 23.9371 9.74909 23.9371C9.94244 23.9337 10.1354 23.9549 10.3235 24.0004C10.4695 24.0367 10.6086 24.0967 10.7355 24.1779C10.8448 24.2512 10.9387 24.3454 11.0117 24.4552C11.0815 24.5619 11.1354 24.6782 11.1717 24.8005C11.208 24.9293 11.2324 25.0612 11.2444 25.1945C11.2565 25.3429 11.2614 25.4986 11.2614 25.6469V25.9947L11.2274 26.0288H9.73697V26.3255H11.2105H11.2347L11.2686 26.3595V26.7924H11.843L11.8769 26.8289V26.8557C11.8542 27.0956 11.8951 27.3373 11.9957 27.5561L12.0078 27.578L11.9908 27.6266L11.5401 27.8091L11.4964 27.7945V27.775C11.4213 27.6216 11.3698 27.4576 11.3438 27.2886H10.8203L10.7863 27.2545L10.7742 26.824ZM13.0039 24.4892L12.6718 24.0028L12.7033 23.9396H13.2801L13.3044 23.9542L13.6291 24.4406C13.785 24.447 13.9375 24.4875 14.0761 24.5594C14.2147 24.6312 14.3359 24.7326 14.4313 24.8565C14.6347 25.1898 14.7312 25.5778 14.7076 25.9679V27.2789L14.6737 27.3129H14.1768L14.1429 27.2789V25.9971C14.1606 25.7187 14.0983 25.441 13.9636 25.197C13.9023 25.1152 13.8217 25.0501 13.729 25.0076C13.6363 24.9652 13.5345 24.9466 13.4328 24.9538C13.3358 24.9467 13.2385 24.9639 13.1497 25.0038C13.0609 25.0437 12.9833 25.105 12.9239 25.1824C12.7924 25.4161 12.7318 25.6832 12.7494 25.9509V27.274L12.7155 27.308H12.2186L12.1847 27.274V26.0239C12.1679 25.6595 12.2446 25.2968 12.4077 24.9708C12.5365 24.7381 12.7516 24.5659 13.0063 24.4917L13.0039 24.4892ZM29.2268 24.4746L28.2574 24.4941C28.1893 24.4947 28.124 24.522 28.0756 24.5701C28.0272 24.6183 27.9994 24.6835 27.9981 24.7519V26.4957C27.9981 26.5643 28.0251 26.6301 28.0732 26.6789C28.1213 26.7276 28.1866 26.7553 28.255 26.756H29.7091L29.743 26.79V26.8143C29.7471 26.9714 29.7657 27.1277 29.7988 27.2813C29.8181 27.379 29.8499 27.4738 29.8933 27.5634V27.5853L29.8739 27.6339L29.4255 27.8163L29.3819 27.8018V27.7823C29.3405 27.6995 29.3065 27.6133 29.2801 27.5245C29.2603 27.4532 29.2441 27.381 29.2317 27.308C28.9069 27.308 28.5846 27.308 28.2623 27.308C28.0484 27.3061 27.8439 27.2199 27.6929 27.0679C27.5419 26.9159 27.4565 26.7103 27.4552 26.4957V24.7519C27.4559 24.5371 27.541 24.3312 27.6922 24.1791C27.8433 24.0269 28.0482 23.9409 28.2623 23.9396H29.7309L29.7673 23.9761V24.0028C29.7608 24.1495 29.7714 24.2964 29.7988 24.4406C29.8181 24.5414 29.8499 24.6395 29.8933 24.7324L29.9054 24.7543L29.886 24.8005L29.4377 24.9902L29.394 24.9732V24.9538C29.3506 24.8711 29.3164 24.7838 29.2923 24.6935C29.2583 24.623 29.2414 24.55 29.2292 24.4771L29.2268 24.4746ZM18.8712 24.4406H18.2386V25.5059H19.5013L19.5352 25.5399V26.002L19.5013 26.036H18.2411V27.2813L18.2071 27.3153H17.0487C17.0366 27.3567 17.0245 27.4078 17.0148 27.4442C17.0051 27.4807 16.993 27.5221 16.9808 27.561C16.9546 27.6388 16.9221 27.7145 16.8839 27.7872V27.8091L16.8403 27.8236L16.3895 27.6412L16.3725 27.5926V27.5707C16.4798 27.3508 16.5385 27.1102 16.5446 26.8654V26.8435L16.581 26.8095H17.6715V26.036H16.4186L16.3847 26.002V25.5399L16.4186 25.5059H17.6594V24.4406H17.0293C17.017 24.5162 17 24.5909 16.9784 24.6643C16.9538 24.7529 16.9197 24.8385 16.8766 24.9197V24.9392L16.8354 24.9562L16.3847 24.7714L16.3677 24.7251V24.7008C16.4136 24.6121 16.4463 24.517 16.4646 24.4187C16.484 24.3177 16.4938 24.2151 16.4937 24.1123C16.4937 24.0758 16.4937 24.0393 16.4937 24.0052V23.9785L16.5276 23.942H19.3777L19.4116 23.9785V24.0052C19.4116 24.0393 19.4116 24.0758 19.4116 24.1123C19.4116 24.2151 19.4213 24.3177 19.4407 24.4187C19.4593 24.5166 19.4911 24.6115 19.5352 24.7008L19.5473 24.7251L19.5304 24.7714L19.0796 24.9562L19.0384 24.9392L19.0263 24.9197C18.9851 24.838 18.9518 24.7525 18.9269 24.6643C18.9037 24.591 18.8851 24.5163 18.8712 24.4406Z" fill="#00582D"/>
</svg>
