<svg width="25" height="24" viewBox="0 0 25 24" fill="none" xmlns="http://www.w3.org/2000/svg">
<path d="M12.2002 11.5C11.5372 11.5 10.9013 11.2366 10.4324 10.7678C9.96359 10.2989 9.7002 9.66304 9.7002 9C9.7002 8.33696 9.96359 7.70107 10.4324 7.23223C10.9013 6.76339 11.5372 6.5 12.2002 6.5C12.8632 6.5 13.4991 6.76339 13.968 7.23223C14.4368 7.70107 14.7002 8.33696 14.7002 9C14.7002 9.3283 14.6355 9.65339 14.5099 9.95671C14.3843 10.26 14.2001 10.5356 13.968 10.7678C13.7358 10.9999 13.4602 11.1841 13.1569 11.3097C12.8536 11.4353 12.5285 11.5 12.2002 11.5ZM12.2002 2C10.3437 2 8.5632 2.7375 7.25045 4.05025C5.93769 5.36301 5.2002 7.14348 5.2002 9C5.2002 14.25 12.2002 22 12.2002 22C12.2002 22 19.2002 14.25 19.2002 9C19.2002 7.14348 18.4627 5.36301 17.1499 4.05025C15.8372 2.7375 14.0567 2 12.2002 2Z" fill="white"/>
</svg>
