<svg width="33" height="33" viewBox="0 0 33 33" fill="none" xmlns="http://www.w3.org/2000/svg">
<rect width="33" height="33" rx="16.5" fill="#004224"/>
<path d="M10 25.4999C9.30533 25.4999 8.71533 25.2566 8.23 24.7699C7.74333 24.2846 7.5 23.6946 7.5 22.9999V15.9999C7.5 15.3053 7.74333 14.7153 8.23 14.2299C8.71467 13.7433 9.30467 13.4999 10 13.4999C10.4113 13.4999 10.7887 13.5916 11.132 13.7749C11.4753 13.9583 11.7693 14.1999 12.014 14.4999H13.5V9.84595H22.5V14.4999H24C24.6947 14.4999 25.2847 14.7433 25.77 15.2299C26.2567 15.7153 26.5 16.3053 26.5 16.9999V24.4999H12.014C11.7687 24.7999 11.4747 25.0416 11.132 25.2249C10.7893 25.4083 10.412 25.4999 10 25.4999ZM10 24.4999C10.4113 24.4999 10.7643 24.3529 11.059 24.0589C11.353 23.7643 11.5 23.4113 11.5 22.9999V15.9999C11.5 15.5886 11.353 15.2356 11.059 14.9409C10.7643 14.6469 10.4113 14.4999 10 14.4999C9.58867 14.4999 9.23567 14.6469 8.941 14.9409C8.647 15.2356 8.5 15.5886 8.5 15.9999V22.9999C8.5 23.4113 8.647 23.7643 8.941 24.0589C9.23567 24.3529 9.58867 24.4999 10 24.4999ZM14.5 14.4999H21.5V10.8459H14.5V14.4999ZM12.5 23.4999H25.5V16.9999C25.5 16.5886 25.353 16.2356 25.059 15.9409C24.7643 15.6469 24.4113 15.4999 24 15.4999H12.5V23.4999ZM20 18.9999C20.2833 18.9999 20.521 18.9039 20.713 18.7119C20.905 18.5199 21.0007 18.2826 21 17.9999C20.9993 17.7173 20.9033 17.4799 20.712 17.2879C20.5207 17.0959 20.2833 16.9999 20 16.9999C19.7167 16.9999 19.4793 17.0959 19.288 17.2879C19.0967 17.4799 19.0007 17.7173 19 17.9999C18.9993 18.2826 19.0953 18.5203 19.288 18.7129C19.4807 18.9056 19.718 19.0013 20 18.9999ZM23 18.9999C23.2833 18.9999 23.521 18.9039 23.713 18.7119C23.905 18.5199 24.0007 18.2826 24 17.9999C23.9993 17.7173 23.9033 17.4799 23.712 17.2879C23.5207 17.0959 23.2833 16.9999 23 16.9999C22.7167 16.9999 22.4793 17.0959 22.288 17.2879C22.0967 17.4799 22.0007 17.7173 22 17.9999C21.9993 18.2826 22.0953 18.5203 22.288 18.7129C22.4807 18.9056 22.718 19.0013 23 18.9999ZM20 21.9999C20.2833 21.9999 20.521 21.9039 20.713 21.7119C20.905 21.5199 21.0007 21.2826 21 20.9999C20.9993 20.7173 20.9033 20.4799 20.712 20.2879C20.5207 20.0959 20.2833 19.9999 20 19.9999C19.7167 19.9999 19.4793 20.0959 19.288 20.2879C19.0967 20.4799 19.0007 20.7173 19 20.9999C18.9993 21.2826 19.0953 21.5203 19.288 21.7129C19.4807 21.9056 19.718 22.0013 20 21.9999ZM23 21.9999C23.2833 21.9999 23.521 21.9039 23.713 21.7119C23.905 21.5199 24.0007 21.2826 24 20.9999C23.9993 20.7173 23.9033 20.4799 23.712 20.2879C23.5207 20.0959 23.2833 19.9999 23 19.9999C22.7167 19.9999 22.4793 20.0959 22.288 20.2879C22.0967 20.4799 22.0007 20.7173 22 20.9999C21.9993 21.2826 22.0953 21.5203 22.288 21.7129C22.4807 21.9056 22.718 22.0013 23 21.9999ZM14 21.9999H18V16.9999H14V21.9999Z" fill="#E5EAE8"/>
</svg>
