<svg width="49" height="49" viewBox="0 0 49 49" fill="none" xmlns="http://www.w3.org/2000/svg">
<path fill-rule="evenodd" clip-rule="evenodd" d="M1.11255 18.7119L24.5 0L48.0071 18.7119H1.11255ZM0 46.0171H3.62077V43.1691H4.14714V41.8104H5.68237V25.5101H2.54411V21.6048H46.4519V25.5101H43.3176V41.8104H44.8529V43.1691H45.3792V46.0171H49V49H0V46.0171ZM12.9957 43.1691H14.7662V41.8104H16.3014V25.5101H11.4604V41.8104H12.9957V43.1691ZM23.6147 43.1691H25.3892V41.8104H26.9205V25.5101H22.0795V41.8104H23.6147V43.1691ZM34.2338 43.1691H36.0083V41.8104H37.5435V25.5101H32.6986V41.8104H34.2338V43.1691ZM16.6244 13.9923L24.5359 7.14461L32.4912 13.9923H16.6244Z" fill="#00723F"/>
</svg>
