<svg width="68" height="69" viewBox="0 0 68 69" fill="none" xmlns="http://www.w3.org/2000/svg">
<path d="M26.86 10.3281C22.0615 8.03711 15.3545 6.91484 6.37501 6.875C5.52815 6.86349 4.69792 7.11043 3.99501 7.58289C3.41805 7.97286 2.94577 8.49864 2.61969 9.11397C2.29362 9.7293 2.12374 10.4153 2.12501 11.1117V49.1094C2.12501 51.678 3.95251 53.6157 6.37501 53.6157C15.814 53.6157 25.2822 54.4976 30.9533 59.8579C31.0309 59.9316 31.1284 59.9808 31.2337 59.9995C31.339 60.0182 31.4475 60.0055 31.5457 59.9631C31.6439 59.9207 31.7275 59.8503 31.786 59.7607C31.8446 59.6712 31.8755 59.5664 31.875 59.4594V14.687C31.8752 14.385 31.8105 14.0864 31.6854 13.8115C31.5603 13.5365 31.3777 13.2916 31.1498 13.0933C29.8508 11.9827 28.4079 11.0526 26.86 10.3281ZM64.005 7.5789C63.3018 7.10762 62.4715 6.86206 61.625 6.875C52.6456 6.91484 45.9385 8.03179 41.14 10.3281C39.5922 11.0513 38.1489 11.9796 36.8488 13.088C36.6215 13.2866 36.4392 13.5316 36.3144 13.8065C36.1895 14.0814 36.125 14.3798 36.125 14.6817V59.4568C36.1249 59.5596 36.1552 59.6601 36.2121 59.7458C36.2689 59.8314 36.3498 59.8984 36.4446 59.9382C36.5393 59.9781 36.6437 59.9891 36.7447 59.9698C36.8457 59.9506 36.9388 59.9019 37.0122 59.83C40.4215 56.4433 46.4047 53.6117 61.6303 53.613C62.7575 53.613 63.8385 53.1653 64.6355 52.3682C65.4326 51.5712 65.8803 50.4902 65.8803 49.363V11.113C65.8819 10.4153 65.7116 9.72787 65.3845 9.1115C65.0575 8.49514 64.5837 7.96878 64.005 7.5789Z" fill="white"/>
</svg>
