<svg width="33" height="33" viewBox="0 0 33 33" fill="none" xmlns="http://www.w3.org/2000/svg">
<rect width="33" height="33" rx="16.5" fill="#004224"/>
<path d="M10.54 9.5C10.6 10.39 10.75 11.26 10.99 12.09L9.79 13.29C9.38 12.09 9.12 10.82 9.03 9.5H10.54ZM20.4 21.52C21.25 21.76 22.12 21.91 23 21.97V23.46C21.68 23.37 20.41 23.11 19.2 22.71L20.4 21.52ZM11.5 7.5H8C7.45 7.5 7 7.95 7 8.5C7 17.89 14.61 25.5 24 25.5C24.55 25.5 25 25.05 25 24.5V21.01C25 20.46 24.55 20.01 24 20.01C22.76 20.01 21.55 19.81 20.43 19.44C20.3307 19.404 20.2256 19.387 20.12 19.39C19.86 19.39 19.61 19.49 19.41 19.68L17.21 21.88C14.3754 20.4304 12.0696 18.1246 10.62 15.29L12.82 13.09C13.1 12.81 13.18 12.42 13.07 12.07C12.6907 10.9181 12.4982 9.7128 12.5 8.5C12.5 7.95 12.05 7.5 11.5 7.5Z" fill="#E5EAE8"/>
</svg>
