<svg width="33" height="34" viewBox="0 0 33 34" fill="none" xmlns="http://www.w3.org/2000/svg">
<rect y="0.791504" width="33" height="33" rx="16.5" fill="#004224"/>
<g clip-path="url(#clip0_153_3280)">
<path d="M17 7.2915C22.523 7.2915 27 11.7685 27 17.2915C27 22.8145 22.523 27.2915 17 27.2915C11.477 27.2915 7 22.8145 7 17.2915C7 11.7685 11.477 7.2915 17 7.2915ZM17 9.2915C14.8783 9.2915 12.8434 10.1344 11.3431 11.6346C9.84285 13.1349 9 15.1698 9 17.2915C9 19.4132 9.84285 21.4481 11.3431 22.9484C12.8434 24.4487 14.8783 25.2915 17 25.2915C19.1217 25.2915 21.1566 24.4487 22.6569 22.9484C24.1571 21.4481 25 19.4132 25 17.2915C25 15.1698 24.1571 13.1349 22.6569 11.6346C21.1566 10.1344 19.1217 9.2915 17 9.2915ZM17 11.2915C17.2449 11.2915 17.4813 11.3815 17.6644 11.5442C17.8474 11.707 17.9643 11.9313 17.993 12.1745L18 12.2915V16.8775L20.707 19.5845C20.8863 19.7645 20.9905 20.0059 20.9982 20.2599C21.006 20.5138 20.9168 20.7612 20.7488 20.9518C20.5807 21.1423 20.3464 21.2618 20.0935 21.2859C19.8406 21.31 19.588 21.2369 19.387 21.0815L19.293 20.9985L16.293 17.9985C16.1376 17.843 16.0378 17.6405 16.009 17.4225L16 17.2915V12.2915C16 12.0263 16.1054 11.7719 16.2929 11.5844C16.4804 11.3969 16.7348 11.2915 17 11.2915Z" fill="#E5EAE8"/>
</g>
<defs>
<clipPath id="clip0_153_3280">
<rect width="24" height="24" fill="white" transform="translate(5 5.2915)"/>
</clipPath>
</defs>
</svg>
