<svg width="56" height="69" viewBox="0 0 56 69" fill="none" xmlns="http://www.w3.org/2000/svg">
<g clip-path="url(#clip0_153_3867)">
<path d="M43.9723 13.4965C44.308 13.8322 44.7477 14 45.1875 14C45.6273 14 46.067 13.8322 46.4027 13.4965C47.0741 12.8251 47.0741 11.7374 46.4027 11.066L45.8992 10.5625H50.3438C51.2938 10.5625 52.0625 9.79292 52.0625 8.84375C52.0625 7.89458 51.2938 7.125 50.3438 7.125H45.8992L46.4027 6.62146C47.0741 5.95007 47.0741 4.86243 46.4027 4.19104C45.7313 3.51965 44.6437 3.51965 43.9723 4.19104L40.5348 7.62854C39.8634 8.29993 39.8634 9.38757 40.5348 10.059L43.9723 13.4965Z" fill="#00723F"/>
<path d="M48.1215 16.2223C47.4501 15.5509 46.3624 15.5509 45.691 16.2223C45.0197 16.8937 45.0197 17.9813 45.691 18.6527L46.1946 19.1562H41.75C40.8 19.1562 40.0312 19.9258 40.0312 20.875C40.0312 21.8242 40.8 22.5938 41.75 22.5938H46.1946L45.691 23.0973C45.0197 23.7687 45.0197 24.8563 45.691 25.5277C46.0267 25.8634 46.4665 26.0312 46.9062 26.0312C47.346 26.0312 47.7858 25.8634 48.1215 25.5277L51.559 22.0902C52.2303 21.4188 52.2303 20.3312 51.559 19.6598L48.1215 16.2223Z" fill="#00723F"/>
<path d="M10.7585 46.6562H48.4203L51.6866 42.5734C52.0995 42.0581 52.1784 41.3506 51.893 40.7556C51.606 40.1597 51.0051 39.7812 50.3438 39.7812H21.6454L16.9222 36.6324C16.6402 36.4445 16.3079 36.3438 15.9688 36.3438H5.65631C4.98492 36.3438 4.37564 36.7348 4.09449 37.3441C3.81419 37.9542 3.9149 38.6718 4.3513 39.1812L10.7585 46.6562Z" fill="#00723F"/>
<path d="M12.2314 48.375L14.6635 51.2124C14.99 51.5935 15.4667 51.8125 15.9686 51.8125H43.4686C43.9906 51.8125 44.484 51.575 44.8113 51.1671L47.0451 48.375H12.2314Z" fill="#00723F"/>
<path d="M50.3438 29.4688H41.75V38.0625H50.3438V29.4688Z" fill="#00723F"/>
<path d="M40.0312 29.4688H31.4375V38.0625H40.0312V29.4688Z" fill="#00723F"/>
<path d="M29.7188 29.4688H21.125V38.0625H29.7188V29.4688Z" fill="#00723F"/>
<path d="M12.5312 17.4375C7.78507 17.4375 3.9375 21.2851 3.9375 26.0312C3.9375 30.7774 7.78507 34.625 12.5312 34.625C17.2774 34.625 21.125 30.7774 21.125 26.0312C21.125 21.2851 17.2774 17.4375 12.5312 17.4375ZM12.5312 25.1719C14.4262 25.1719 15.9688 26.7135 15.9688 28.6094C15.9688 30.2066 14.8687 31.5405 13.3906 31.9248V32.0469C13.3906 32.5219 13.0063 32.9062 12.5312 32.9062C12.0562 32.9062 11.6719 32.5219 11.6719 32.0469V31.9248C10.1938 31.5405 9.09375 30.2066 9.09375 28.6094C9.09375 28.1344 9.47812 27.75 9.95312 27.75C10.4281 27.75 10.8125 28.1344 10.8125 28.6094C10.8125 29.5569 11.5829 30.3281 12.5312 30.3281C13.4796 30.3281 14.25 29.5569 14.25 28.6094C14.25 27.6619 13.4796 26.8906 12.5312 26.8906C10.6363 26.8906 9.09375 25.349 9.09375 23.4531C9.09375 21.8559 10.1938 20.522 11.6719 20.1377V20.0156C11.6719 19.5406 12.0562 19.1562 12.5312 19.1562C13.0063 19.1562 13.3906 19.5406 13.3906 20.0156V20.1377C14.8687 20.522 15.9688 21.8559 15.9688 23.4531C15.9688 23.9281 15.5844 24.3125 15.1094 24.3125C14.6344 24.3125 14.25 23.9281 14.25 23.4531C14.25 22.5056 13.4796 21.7344 12.5312 21.7344C11.5829 21.7344 10.8125 22.5056 10.8125 23.4531C10.8125 24.4006 11.5829 25.1719 12.5312 25.1719Z" fill="#00723F"/>
<path d="M17.6875 13.9998C17.6875 15.0057 19.6481 16.2769 23.0016 16.9553C22.8997 15.9802 22.8438 14.9856 22.8438 13.9998C22.8438 13.0139 22.8997 12.0193 23.0016 11.0442C19.6481 11.7226 17.6875 12.9938 17.6875 13.9998Z" fill="#00723F"/>
<path d="M28.0005 8.84375C28.9864 8.84375 29.981 8.89966 30.9561 9.00163C30.2776 5.64805 29.0064 3.6875 28.0005 3.6875C26.9946 3.6875 25.7233 5.64805 25.0449 9.00163C26.02 8.89966 27.0146 8.84375 28.0005 8.84375Z" fill="#00723F"/>
<path d="M31.2326 10.7673C30.2338 10.6479 29.1746 10.5625 28 10.5625C26.8255 10.5625 25.7663 10.648 24.7674 10.7674C24.648 11.7663 24.5625 12.8255 24.5625 14C24.5625 15.1745 24.648 16.2337 24.7674 17.2326C25.7663 17.352 26.8255 17.4375 28 17.4375C29.1746 17.4375 30.2338 17.3521 31.2326 17.2327C31.352 16.2338 31.4375 15.1746 31.4375 14C31.4375 12.8254 31.352 11.7662 31.2326 10.7673Z" fill="#00723F"/>
<path d="M28.0005 19.1564C27.0146 19.1564 26.02 19.1005 25.0449 18.9985C25.7233 22.3521 26.9946 24.3127 28.0005 24.3127C29.0064 24.3127 30.2776 22.3521 30.9561 18.9985C29.981 19.1005 28.9864 19.1564 28.0005 19.1564Z" fill="#00723F"/>
<path d="M23.2522 9.252C23.6016 7.26239 24.1721 5.45982 24.9568 4.14526C21.7094 5.1472 19.1474 7.70917 18.1455 10.9566C19.4601 10.1719 21.2626 9.60133 23.2522 9.252Z" fill="#00723F"/>
<path d="M23.2522 18.748C21.2626 18.3987 19.4601 17.8281 18.1455 17.0435C19.1474 20.2909 21.7094 22.8528 24.9568 23.8548C24.1721 22.5402 23.6016 20.7377 23.2522 18.748Z" fill="#00723F"/>
<path d="M32.748 18.748C32.3985 20.7378 31.8277 22.5404 31.043 23.8549C34.2906 22.8533 36.8529 20.2911 37.8548 17.0435C36.5403 17.8281 34.7376 18.3987 32.748 18.748Z" fill="#00723F"/>
<path d="M38.3123 13.9999C38.3123 12.9938 36.3519 11.7225 32.998 11.0442C33.1 12.0193 33.156 13.014 33.156 13.9999C33.156 14.9858 33.1 15.9805 32.998 16.9555C36.3519 16.2772 38.3123 15.0059 38.3123 13.9999Z" fill="#00723F"/>
<path d="M32.748 9.25162C34.7376 9.60095 36.5403 10.1715 37.8548 10.9562C36.8529 7.70858 34.2906 5.1464 31.043 4.14478C31.8277 5.45922 32.3985 7.2619 32.748 9.25162Z" fill="#00723F"/>
</g>
<defs>
<clipPath id="clip0_153_3867">
<rect width="55" height="68.75" fill="white" transform="translate(0.5 0.25)"/>
</clipPath>
</defs>
</svg>
