<svg width="24" height="25" viewBox="0 0 24 25" fill="none" xmlns="http://www.w3.org/2000/svg">
<path d="M7.615 20.9407C7.16833 20.9407 6.78733 20.7833 6.472 20.4687C6.15733 20.154 6 19.773 6 19.3257V6.94065H5V5.94065H9V5.17065H15V5.94065H19V6.94065H18V19.3257C18 19.7857 17.846 20.1697 17.538 20.4777C17.23 20.7857 16.8457 20.94 16.385 20.9407H7.615ZM17 6.94065H7V19.3257C7 19.505 7.05767 19.6523 7.173 19.7677C7.28833 19.883 7.43567 19.9407 7.615 19.9407H16.385C16.5383 19.9407 16.6793 19.8767 16.808 19.7487C16.9367 19.6207 17.0007 19.4797 17 19.3257V6.94065ZM9.808 17.9407H10.808V8.94065H9.808V17.9407ZM13.192 17.9407H14.192V8.94065H13.192V17.9407Z" fill="black"/>
</svg>
