<svg width="20" height="17" viewBox="0 0 20 17" fill="none" xmlns="http://www.w3.org/2000/svg">
<path d="M3 17C2.16667 17 1.45833 16.7083 0.875 16.125C0.291667 15.5417 0 14.8333 0 14V7C0 6.16667 0.291667 5.45833 0.875 4.875C1.45833 4.29167 2.16667 4 3 4C3.45 4 3.86267 4.09167 4.238 4.275C4.61333 4.45833 4.94233 4.7 5.225 5H6V0H16V5H17C17.8333 5 18.5417 5.29167 19.125 5.875C19.7083 6.45833 20 7.16667 20 8V16H5.225C4.94167 16.3 4.61267 16.5417 4.238 16.725C3.86333 16.9083 3.45067 17 3 17ZM3 15C3.28333 15 3.521 14.904 3.713 14.712C3.905 14.52 4.00067 14.2827 4 14V7C4 6.71667 3.904 6.47933 3.712 6.288C3.52 6.09667 3.28267 6.00067 3 6C2.71733 5.99933 2.48 6.09533 2.288 6.288C2.096 6.48067 2 6.718 2 7V14C2 14.2833 2.096 14.521 2.288 14.713C2.48 14.905 2.71733 15.0007 3 15ZM8 5H14V2H8V5ZM6 14H18V8C18 7.71667 17.904 7.47933 17.712 7.288C17.52 7.09667 17.2827 7.00067 17 7H6V14ZM13 10C13.2833 10 13.521 9.904 13.713 9.712C13.905 9.52 14.0007 9.28267 14 9C13.9993 8.71733 13.9033 8.48 13.712 8.288C13.5207 8.096 13.2833 8 13 8C12.7167 8 12.4793 8.096 12.288 8.288C12.0967 8.48 12.0007 8.71733 12 9C11.9993 9.28267 12.0953 9.52033 12.288 9.713C12.4807 9.90567 12.718 10.0013 13 10ZM16 10C16.2833 10 16.521 9.904 16.713 9.712C16.905 9.52 17.0007 9.28267 17 9C16.9993 8.71733 16.9033 8.48 16.712 8.288C16.5207 8.096 16.2833 8 16 8C15.7167 8 15.4793 8.096 15.288 8.288C15.0967 8.48 15.0007 8.71733 15 9C14.9993 9.28267 15.0953 9.52033 15.288 9.713C15.4807 9.90567 15.718 10.0013 16 10ZM13 13C13.2833 13 13.521 12.904 13.713 12.712C13.905 12.52 14.0007 12.2827 14 12C13.9993 11.7173 13.9033 11.48 13.712 11.288C13.5207 11.096 13.2833 11 13 11C12.7167 11 12.4793 11.096 12.288 11.288C12.0967 11.48 12.0007 11.7173 12 12C11.9993 12.2827 12.0953 12.5203 12.288 12.713C12.4807 12.9057 12.718 13.0013 13 13ZM16 13C16.2833 13 16.521 12.904 16.713 12.712C16.905 12.52 17.0007 12.2827 17 12C16.9993 11.7173 16.9033 11.48 16.712 11.288C16.5207 11.096 16.2833 11 16 11C15.7167 11 15.4793 11.096 15.288 11.288C15.0967 11.48 15.0007 11.7173 15 12C14.9993 12.2827 15.0953 12.5203 15.288 12.713C15.4807 12.9057 15.718 13.0013 16 13ZM7 13H11V8H7V13Z" fill="black" fill-opacity="0.54"/>
</svg>
