<svg width="33" height="34" viewBox="0 0 33 34" fill="none" xmlns="http://www.w3.org/2000/svg">
<rect y="0.791504" width="33" height="33" rx="16.5" fill="#004224"/>
<g clip-path="url(#clip0_153_3273)">
<path d="M17 5.2915C18.1016 5.2915 19.1641 5.43213 20.1875 5.71338C21.2109 5.99463 22.168 6.39697 23.0586 6.92041C23.9492 7.44385 24.7578 8.06885 25.4844 8.79541C26.2109 9.52197 26.8359 10.3345 27.3594 11.2329C27.8828 12.1313 28.2852 13.0884 28.5664 14.104C28.8477 15.1196 28.9922 16.1821 29 17.2915C29 18.3931 28.8594 19.4556 28.5781 20.479C28.2969 21.5024 27.8945 22.4595 27.3711 23.3501C26.8477 24.2407 26.2227 25.0493 25.4961 25.7759C24.7695 26.5024 23.957 27.1274 23.0586 27.6509C22.1602 28.1743 21.2031 28.5767 20.1875 28.8579C19.1719 29.1392 18.1094 29.2837 17 29.2915C15.8984 29.2915 14.8359 29.1509 13.8125 28.8696C12.7891 28.5884 11.832 28.186 10.9414 27.6626C10.0508 27.1392 9.24219 26.5142 8.51562 25.7876C7.78906 25.061 7.16406 24.2485 6.64062 23.3501C6.11719 22.4517 5.71484 21.4985 5.43359 20.4907C5.15234 19.4829 5.00781 18.4165 5 17.2915C5 16.1899 5.14062 15.1274 5.42188 14.104C5.70312 13.0806 6.10547 12.1235 6.62891 11.2329C7.15234 10.3423 7.77734 9.53369 8.50391 8.80713C9.23047 8.08057 10.043 7.45557 10.9414 6.93213C11.8398 6.40869 12.793 6.00635 13.8008 5.7251C14.8086 5.44385 15.875 5.29932 17 5.2915ZM17 27.7915C17.9609 27.7915 18.8867 27.6665 19.7773 27.4165C20.668 27.1665 21.5039 26.8149 22.2852 26.3618C23.0664 25.9087 23.7773 25.3579 24.418 24.7095C25.0586 24.061 25.6055 23.354 26.0586 22.5884C26.5117 21.8228 26.8672 20.9868 27.125 20.0806C27.3828 19.1743 27.5078 18.2446 27.5 17.2915C27.5 16.3306 27.375 15.4048 27.125 14.5142C26.875 13.6235 26.5234 12.7876 26.0703 12.0063C25.6172 11.2251 25.0664 10.5142 24.418 9.87354C23.7695 9.23291 23.0625 8.68604 22.2969 8.23291C21.5312 7.77979 20.6953 7.42432 19.7891 7.1665C18.8828 6.90869 17.9531 6.78369 17 6.7915C16.0391 6.7915 15.1133 6.9165 14.2227 7.1665C13.332 7.4165 12.4961 7.76807 11.7148 8.22119C10.9336 8.67432 10.2227 9.2251 9.58203 9.87354C8.94141 10.522 8.39453 11.229 7.94141 11.9946C7.48828 12.7603 7.13281 13.5962 6.875 14.5024C6.61719 15.4087 6.49219 16.3384 6.5 17.2915C6.5 18.2524 6.625 19.1782 6.875 20.0688C7.125 20.9595 7.47656 21.7954 7.92969 22.5767C8.38281 23.3579 8.93359 24.0688 9.58203 24.7095C10.2305 25.3501 10.9375 25.897 11.7031 26.3501C12.4688 26.8032 13.3047 27.1587 14.2109 27.4165C15.1172 27.6743 16.0469 27.7993 17 27.7915ZM23.9961 17.479L24.5586 15.7915H25.4375L24.4414 18.7915H23.5625L23 17.104L22.4375 18.7915H21.5586L20.5625 15.7915H21.4414L22.0039 17.479L22.5664 15.7915H23.4336L23.9961 17.479ZM18.5586 15.7915H19.4375L18.4414 18.7915H17.5625L17 17.104L16.4375 18.7915H15.5586L14.5625 15.7915H15.4414L16.0039 17.479L16.5664 15.7915H17.4336L17.9961 17.479L18.5586 15.7915ZM12.5586 15.7915H13.4375L12.4414 18.7915H11.5625L11 17.104L10.4375 18.7915H9.55859L8.5625 15.7915H9.44141L10.0039 17.479L10.5664 15.7915H11.4336L11.9961 17.479L12.5586 15.7915Z" fill="#E5EAE8"/>
</g>
<defs>
<clipPath id="clip0_153_3273">
<rect width="24" height="24" fill="white" transform="translate(5 5.2915)"/>
</clipPath>
</defs>
</svg>
