<svg width="52" height="48" viewBox="0 0 52 48" fill="none" xmlns="http://www.w3.org/2000/svg">
<g clip-path="url(#clip0_705_1484)">
<path fill-rule="evenodd" clip-rule="evenodd" d="M19.2292 8.71854C19.2047 8.66104 19.189 8.59771 19.183 8.53217C19.177 8.46663 19.1808 8.40016 19.1942 8.33656C19.2075 8.27296 19.2302 8.21347 19.2609 8.1615C19.2916 8.10952 19.3297 8.06607 19.373 8.03363C19.4164 8.00119 19.4641 7.9804 19.5135 7.97244C19.5629 7.96447 19.613 7.9695 19.661 7.98722C19.7089 8.00495 19.7538 8.03502 19.7929 8.07574C19.8321 8.11645 19.8649 8.167 19.8893 8.22451L20.3633 9.34732C20.4121 9.45973 20.4253 9.59327 20.3999 9.71856C20.3745 9.84385 20.3126 9.95062 20.2279 10.0154C20.1431 10.0802 20.0425 10.0976 19.948 10.0639C19.8536 10.0302 19.7731 9.94815 19.7243 9.83574L19.2503 8.74661L19.2292 8.71854ZM40.1087 48.0168L35.6061 28.0701H36.7741L43.5872 47.9943H40.1087V48.0168ZM43.5872 28.0701V20.1768H38.6953C37.8744 20.2778 37.7093 19.4133 38.0606 18.7003L41.1878 13.8329L41.099 13.715H39.4063C38.7969 13.8329 38.5599 12.9628 38.9408 12.3452L42.3262 7.08486H41.3444C40.7308 7.08486 40.5785 6.35504 40.972 5.64205L44.0443 0.802755C44.2559 0.471527 44.4674 -0.0112799 44.8441 -5.1795e-05C45.2207 0.0111763 45.3477 0.404159 45.5339 0.696089L48.8008 5.74872C48.8848 5.87749 48.9374 6.03702 48.9516 6.20625C48.9659 6.37549 48.9411 6.54648 48.8806 6.69667C48.8201 6.84686 48.7267 6.96918 48.6127 7.04751C48.4988 7.12583 48.3696 7.15647 48.2422 7.13539H47.3535L50.7008 12.3508C50.7887 12.4554 50.8537 12.5894 50.8889 12.7388C50.9241 12.8883 50.9283 13.0475 50.901 13.1999C50.8737 13.3522 50.8159 13.4919 50.7338 13.6043C50.6517 13.7167 50.5482 13.7976 50.4342 13.8385H48.4876L51.4076 18.3803L51.7292 18.8799C51.7924 18.9958 51.8319 19.1314 51.8437 19.2735C51.8555 19.4157 51.8393 19.5594 51.7967 19.6908C51.754 19.8221 51.6863 19.9364 51.6003 20.0226C51.5143 20.1088 51.4129 20.1639 51.306 20.1824H46.0628V28.0701H51.9873V32.1122H40.6589L39.3893 28.0701H43.5872ZM7.05859 25.381V27.3796H6.44076V26.7452H6.5804V25.381H7.05859ZM3.48275 23.0175C3.28009 23.0955 3.07138 23.1426 2.86068 23.1578C2.40428 23.1974 1.94926 23.0568 1.55306 22.7536C1.15928 22.4426 0.847451 21.978 0.660156 21.4231C0.324618 20.3168 0.309544 19.085 0.617839 17.9649C0.181015 17.1711 -0.0207863 16.1922 0.0507812 15.214C0.125042 14.4923 0.369442 13.8203 0.749023 13.294C1.15425 12.739 1.66198 12.3344 2.22168 12.1207C3.33017 11.7238 4.5093 11.8692 5.54362 12.5305C5.67057 12.3957 5.79753 12.2778 5.92025 12.1656C6.56486 11.5485 7.36155 11.2778 8.15039 11.4077C9.01934 11.6416 9.79164 12.296 10.3171 13.2435C10.4679 13.4784 10.6092 13.7239 10.7402 13.9789C11.4433 13.9237 12.1405 14.1761 12.7249 14.6975C13.034 14.9865 13.2711 15.3911 13.4062 15.8596C13.5317 16.3377 13.5317 16.858 13.4062 17.3361C13.1623 18.1768 12.716 18.8872 12.1367 19.3571C12.0975 20.1005 11.9388 20.8241 11.6712 21.4792C11.4707 21.9655 11.1618 22.3577 10.7868 22.6021C10.4095 22.8297 9.98062 22.8558 9.58919 22.675C9.4589 22.6197 9.3328 22.5483 9.21257 22.4617L8.96289 23.2421C8.34082 25.1564 8.11654 25.8414 8.0446 28.0589H13.6771L12.4076 32.101H0V28.0701H4.9681C4.94694 25.9592 4.80729 25.6842 4.05404 24.1852C3.89323 23.8596 3.70703 23.4835 3.48275 23.0063V23.0175ZM3.93555 22.7929L4.45182 23.8371C5.29818 25.4877 5.42513 25.774 5.44629 28.0757H7.56217C7.63835 25.7235 7.86686 25.0161 8.51855 23.0231L8.80208 22.1473C8.74707 22.0912 8.69206 22.035 8.64128 21.9733C8.54334 22.1113 8.43873 22.2407 8.32812 22.3607C7.92335 22.8504 7.39482 23.1208 6.84701 23.1185C6.30237 23.0661 5.78879 22.7622 5.39551 22.2596C5.27702 22.1192 5.15853 21.9677 5.04004 21.7992C4.71503 22.2064 4.34192 22.5402 3.93555 22.7873V22.7929ZM5.37435 22.9277L6.34766 25.061L5.92448 25.381L4.95117 23.2533L5.37435 22.9277ZM16.9271 48L19.7454 28.0701H18.3532L13.859 48H16.9271ZM12.3779 48L16.8763 28.0701H15.7083L8.90788 48H12.3779ZM26.9606 48V28.0701H28.3529L29.779 48H26.9606ZM31.3151 48L29.762 28.0701H31.1755L34.1377 48.0112L31.3151 48ZM35.5469 48L32.737 28.0701H34.125L38.6234 48H35.5469ZM25.5133 48V28.0701H24.1211L22.6992 48H25.5133ZM21.1589 48L22.7161 28.0701H21.3027L18.3405 48.0112L21.1589 48ZM0 41.9256H9.05176L6.97396 48H0V41.9256ZM44.0104 41.9256H52.0127V48H46.0882L44.0104 41.9256ZM0 34.9529H11.4258L10.0166 39.0792H0V34.9529ZM41.6279 34.9529H52V39.0792H43.0329L41.6279 34.9529ZM22.1829 10.341C22.9484 10.3424 23.6898 10.6958 24.2808 11.3409C24.8719 11.9861 25.2762 12.8831 25.4247 13.8793C25.5732 14.8754 25.4569 15.909 25.0955 16.8042C24.734 17.6993 24.1499 18.4005 23.4425 18.7884C22.7351 19.1763 21.9483 19.2269 21.2159 18.9316C20.4836 18.6363 19.8511 18.0133 19.4261 17.1688C19.0011 16.3242 18.8099 15.3103 18.8851 14.2998C18.9603 13.2893 19.2973 12.3446 19.8385 11.6266C20.1465 11.2185 20.5121 10.895 20.9143 10.6744C21.3166 10.4538 21.7477 10.3405 22.1829 10.341ZM24.0238 12.2891C23.6598 11.8059 23.196 11.4769 22.691 11.3435C22.186 11.2102 21.6625 11.2785 21.1868 11.54C20.7112 11.8014 20.3046 12.2442 20.0187 12.8122C19.7327 13.3803 19.5802 14.0481 19.5804 14.7312C19.5804 15.6469 19.8546 16.5251 20.3427 17.1726C20.8307 17.82 21.4927 18.1838 22.1829 18.1838C22.8732 18.1838 23.5351 17.82 24.0232 17.1726C24.5113 16.5251 24.7855 15.6469 24.7855 14.7312C24.7875 14.2773 24.7212 13.8275 24.5903 13.4082C24.4595 12.9888 24.2669 12.6083 24.0238 12.2891ZM21.9079 7.56205C21.9023 7.49313 21.9077 7.42343 21.9238 7.35748C21.9399 7.29153 21.9662 7.2308 22.0012 7.17924C22.0361 7.12769 22.0788 7.08646 22.1265 7.05824C22.1742 7.03001 22.2259 7.01543 22.2782 7.01543C22.3304 7.01543 22.3821 7.03001 22.4298 7.05824C22.4775 7.08646 22.5202 7.12769 22.5551 7.17924C22.5901 7.2308 22.6164 7.29153 22.6325 7.35748C22.6486 7.42343 22.654 7.49313 22.6484 7.56205V8.82521C22.654 8.89413 22.6486 8.96383 22.6325 9.02979C22.6164 9.09574 22.5901 9.15647 22.5551 9.20802C22.5202 9.25958 22.4775 9.30081 22.4298 9.32903C22.3821 9.35725 22.3304 9.37184 22.2782 9.37184C22.2259 9.37184 22.1742 9.35725 22.1265 9.32903C22.0788 9.30081 22.0361 9.25958 22.0012 9.20802C21.9662 9.15647 21.9399 9.09574 21.9238 9.02979C21.9077 8.96383 21.9023 8.89413 21.9079 8.82521V7.56205ZM24.6501 8.32556C24.6996 8.21412 24.78 8.13288 24.8742 8.09929C24.9684 8.0657 25.0687 8.08244 25.1536 8.14591C25.1957 8.17791 25.2325 8.22059 25.2621 8.27152C25.2916 8.32244 25.3133 8.3806 25.3259 8.44266C25.3385 8.50472 25.3417 8.56947 25.3354 8.63319C25.329 8.69691 25.3133 8.75835 25.2891 8.81398L24.7982 9.90872C24.7446 10.0086 24.6649 10.0784 24.5747 10.1047C24.4844 10.1309 24.3901 10.1118 24.3099 10.0509C24.2297 9.98999 24.1694 9.89173 24.1408 9.7752C24.1122 9.65867 24.1172 9.53218 24.1549 9.4203L24.6331 8.29749L24.6501 8.32556ZM26.7363 10.807C26.7783 10.7748 26.8246 10.7539 26.8726 10.7455C26.9206 10.7372 26.9694 10.7414 27.0162 10.7581C27.063 10.7748 27.1068 10.8036 27.1452 10.8428C27.1836 10.882 27.2158 10.9309 27.2399 10.9866C27.2891 11.0998 27.3024 11.2343 27.2771 11.3606C27.2517 11.4868 27.1896 11.5946 27.1045 11.6603L26.2581 12.2891C26.2162 12.3211 26.1699 12.3419 26.1219 12.3503C26.0738 12.3586 26.0251 12.3543 25.9783 12.3376C25.8839 12.3039 25.8034 12.2218 25.7546 12.1094C25.7057 11.997 25.6926 11.8635 25.718 11.7382C25.7434 11.6129 25.8052 11.5061 25.89 11.4414L26.7363 10.807ZM27.6081 14.3438C27.7068 14.3438 27.8016 14.3959 27.8714 14.4885C27.9412 14.5812 27.9805 14.7068 27.9805 14.8378C27.9805 14.9689 27.9412 15.0945 27.8714 15.1872C27.8016 15.2798 27.7068 15.3319 27.6081 15.3319H26.6602C26.5614 15.3319 26.4667 15.2798 26.3968 15.1872C26.327 15.0945 26.2878 14.9689 26.2878 14.8378C26.2878 14.7068 26.327 14.5812 26.3968 14.4885C26.4667 14.3959 26.5614 14.3438 26.6602 14.3438H27.6081ZM27.0114 17.9649C27.0938 18.0299 27.1542 18.1345 27.1799 18.2571C27.2056 18.3796 27.1946 18.5106 27.1494 18.6227C27.1041 18.7349 27.028 18.8195 26.9369 18.8591C26.8457 18.8986 26.7466 18.89 26.6602 18.835L25.8138 18.2006C25.7291 18.1351 25.6674 18.0277 25.6424 17.9018C25.6174 17.776 25.6311 17.6422 25.6805 17.5298C25.7299 17.4174 25.8109 17.3356 25.9057 17.3024C26.0006 17.2692 26.1015 17.2874 26.1862 17.3529L27.0114 17.9649ZM25.141 20.7719C25.1652 20.8275 25.1809 20.889 25.1873 20.9527C25.1936 21.0164 25.1903 21.0811 25.1778 21.1432C25.1652 21.2053 25.1435 21.2634 25.1139 21.3143C25.0844 21.3653 25.0475 21.4079 25.0055 21.4399C24.9637 21.4729 24.9174 21.4944 24.8693 21.5032C24.8211 21.5119 24.7721 21.5078 24.7252 21.4911C24.6782 21.4743 24.6343 21.4453 24.596 21.4057C24.5576 21.366 24.5257 21.3166 24.502 21.2603L24.0238 20.1712C23.9995 20.1155 23.9838 20.0541 23.9775 19.9904C23.9711 19.9267 23.9744 19.8619 23.9869 19.7999C23.9995 19.7378 24.0212 19.6796 24.0508 19.6287C24.0803 19.5778 24.1172 19.5351 24.1592 19.5031C24.2008 19.4694 24.2472 19.4473 24.2955 19.438C24.3437 19.4288 24.3929 19.4328 24.44 19.4496C24.4871 19.4664 24.5312 19.4957 24.5695 19.5358C24.6077 19.5759 24.6395 19.6259 24.6628 19.6828L25.141 20.7719ZM22.4792 21.8947C22.4792 22.0257 22.4399 22.1514 22.3701 22.244C22.3003 22.3367 22.2055 22.3887 22.1068 22.3887C22.008 22.3887 21.9133 22.3367 21.8434 22.244C21.7736 22.1514 21.7344 22.0257 21.7344 21.8947V20.6484C21.7344 20.5173 21.7736 20.3917 21.8434 20.299C21.9133 20.2064 22.008 20.1543 22.1068 20.1543C22.2055 20.1543 22.3003 20.2064 22.3701 20.299C22.4399 20.3917 22.4792 20.5173 22.4792 20.6484V21.8947ZM19.737 21.1256C19.7132 21.1818 19.6813 21.2312 19.6431 21.2709C19.6049 21.3107 19.5611 21.3401 19.5143 21.3573C19.4675 21.3745 19.4185 21.3793 19.3703 21.3713C19.3221 21.3633 19.2756 21.3428 19.2334 21.3108C19.1909 21.2788 19.1535 21.2359 19.1235 21.1847C19.0935 21.1335 19.0714 21.0749 19.0584 21.0124C19.0454 20.9498 19.0419 20.8845 19.0479 20.8201C19.054 20.7557 19.0696 20.6935 19.0938 20.6371L19.5719 19.548C19.6208 19.4356 19.7012 19.3535 19.7957 19.3198C19.8901 19.2861 19.9908 19.3036 20.0755 19.3684C20.1603 19.4331 20.2221 19.5399 20.2475 19.6652C20.2729 19.7905 20.2598 19.924 20.2109 20.0364L19.737 21.1256ZM17.6507 18.6442C17.6088 18.6762 17.5625 18.697 17.5144 18.7054C17.4664 18.7137 17.4176 18.7094 17.3709 18.6927C17.3241 18.676 17.2803 18.6473 17.2419 18.6081C17.2035 18.569 17.1713 18.5202 17.1471 18.4645C17.123 18.4088 17.1073 18.3474 17.101 18.2837C17.0947 18.22 17.098 18.1553 17.1105 18.0933C17.1231 18.0312 17.1448 17.9731 17.1743 17.9222C17.2038 17.8712 17.2406 17.8285 17.2826 17.7964L18.1035 17.1677C18.1883 17.1029 18.2889 17.0854 18.3834 17.1191C18.4778 17.1528 18.5583 17.2349 18.6071 17.3473C18.6559 17.4597 18.6691 17.5933 18.6437 17.7186C18.6183 17.8438 18.5564 17.9506 18.4717 18.0154L17.6507 18.6442ZM16.779 15.1129C16.727 15.1203 16.6745 15.1131 16.6248 15.0918C16.5751 15.0705 16.5293 15.0355 16.4904 14.9892C16.4516 14.9428 16.4205 14.8862 16.3992 14.8229C16.3779 14.7596 16.3669 14.691 16.3669 14.6217C16.3669 14.5524 16.3779 14.4839 16.3992 14.4205C16.4205 14.3572 16.4516 14.3006 16.4904 14.2542C16.5293 14.2079 16.5751 14.173 16.6248 14.1516C16.6745 14.1303 16.727 14.1231 16.779 14.1305H17.7311C17.8225 14.1435 17.907 14.2008 17.9685 14.2915C18.0299 14.3822 18.0639 14.4998 18.0639 14.6217C18.0639 14.7436 18.0299 14.8612 17.9685 14.9519C17.907 15.0426 17.8225 15.1 17.7311 15.1129H16.779ZM17.3503 11.4863C17.2996 11.4609 17.2538 11.421 17.2161 11.3695C17.1784 11.318 17.1498 11.256 17.1322 11.1881C17.1146 11.1202 17.1085 11.048 17.1143 10.9766C17.1202 10.9052 17.1378 10.8364 17.166 10.7751C17.1942 10.7138 17.2322 10.6615 17.2773 10.6219C17.3225 10.5823 17.3737 10.5564 17.4272 10.546C17.4808 10.5357 17.5354 10.5411 17.5872 10.5619C17.639 10.5828 17.6867 10.6185 17.7269 10.6666L18.5479 11.2954C18.6038 11.3719 18.6396 11.4705 18.6499 11.5762C18.6601 11.682 18.6443 11.7894 18.6048 11.8822C18.5653 11.9751 18.5042 12.0485 18.4306 12.0915C18.357 12.1344 18.2749 12.1447 18.1966 12.1207L17.3503 11.4863Z" fill="#00723F"/>
</g>
<defs>
<clipPath id="clip0_705_1484">
<rect width="52" height="48" fill="white"/>
</clipPath>
</defs>
</svg>
