<svg width="52" height="44" viewBox="0 0 52 44" fill="none" xmlns="http://www.w3.org/2000/svg">
<g clip-path="url(#clip0_705_1576)">
<path d="M28.1857 4.47732C27.851 4.11131 27.4587 3.93084 27.0042 3.93084C26.5501 3.93084 26.1523 4.11131 25.8231 4.47732L24.0225 6.43974C23.5396 6.09825 23.0289 5.79979 22.4948 5.5328C21.9612 5.2658 21.4157 5.03676 20.8647 4.83778V1.81897C20.8647 1.30997 20.7061 0.88149 20.3819 0.527506C20.059 0.173522 19.6672 0 19.2012 0H15.7367C15.2936 0 14.9081 0.173522 14.5729 0.527506C14.2437 0.88149 14.0787 1.30997 14.0787 1.81897V4.58282C13.4998 4.73136 12.9374 4.91784 12.3974 5.14781C11.8528 5.37732 11.3361 5.63876 10.8473 5.93028L8.85371 3.78138C8.54141 3.42138 8.16097 3.23491 7.70098 3.23491C7.24606 3.23491 6.85462 3.42138 6.51947 3.78138L4.09466 6.43974C3.75993 6.80575 3.59489 7.2347 3.59489 7.73074C3.59489 8.2277 3.75993 8.66266 4.09466 9.02266L5.88978 10.9916C5.57747 11.5191 5.30495 12.078 5.06077 12.6611C4.81618 13.245 4.60671 13.8419 4.42432 14.4439H1.66436C1.19801 14.4439 0.806152 14.6175 0.482845 14.9714C0.159115 15.3259 0 15.7544 0 16.2638V20.0522C0 20.5357 0.159115 20.9586 0.482422 21.3251C0.805729 21.6847 1.19801 21.8651 1.66393 21.8651H4.19072C4.32699 22.4977 4.4971 23.1126 4.70785 23.7026C4.91859 24.299 5.15684 24.8765 5.42344 25.435L3.4582 27.5774C3.12855 27.9194 2.95843 28.3354 2.95843 28.8388C2.95843 29.3353 3.12855 29.7643 3.4582 30.1308L5.88936 32.8197C6.22409 33.1611 6.61595 33.3296 7.07087 33.3296C7.52451 33.3296 7.92188 33.1616 8.25195 32.8197L10.0521 30.8202C10.5346 31.1613 11.0462 31.4592 11.5798 31.7272C12.1139 31.9932 12.6589 32.2237 13.2099 32.4222V35.4405C13.2099 35.9495 13.369 36.3775 13.6923 36.7311C14.016 37.086 14.4083 37.26 14.8738 37.26H18.338C18.781 37.26 19.167 37.086 19.5021 36.7311C19.8309 36.3775 19.996 35.9495 19.996 35.4405V32.6767C20.5753 32.5281 21.1373 32.3417 21.6768 32.1112C22.2223 31.8817 22.7508 31.6203 23.2612 31.3288L25.2205 33.4781C25.5332 33.8381 25.9188 34.0246 26.3855 34.0246C26.8561 34.0246 27.2424 33.8386 27.5556 33.4781L30.0147 30.8202C30.327 30.4533 30.481 30.0248 30.481 29.5283C30.481 29.0318 30.3274 28.5968 30.0147 28.2368L28.1861 26.2679C28.4984 25.74 28.771 25.1815 29.0156 24.598C29.2589 24.0145 29.4692 23.4176 29.6512 22.8156H32.4116C32.8771 22.8156 33.2685 22.6406 33.5918 22.2876C33.916 21.9331 34.0751 21.5051 34.0751 20.9957V17.2078C34.0751 16.7233 33.916 16.3018 33.5918 15.9344C33.2685 15.5744 32.8771 15.3944 32.4116 15.3944H29.8839C29.7477 14.7859 29.5771 14.1774 29.3668 13.5754C29.1569 12.9665 28.9178 12.3955 28.6512 11.8606L30.6169 9.68158C30.9461 9.34009 31.1166 8.92364 31.1166 8.42112C31.1166 7.92369 30.9465 7.49567 30.6169 7.12919L28.1857 4.47732ZM47.3611 24.8247C47.147 24.6604 46.9193 24.6031 46.6726 24.6507C46.4259 24.6975 46.2253 24.8363 46.0798 25.069L45.2723 26.3193C44.9812 26.1842 44.679 26.0759 44.365 25.9857C44.0532 25.8959 43.737 25.827 43.4209 25.777L43.1603 24.1399C43.1158 23.8641 42.9931 23.648 42.7862 23.4893C42.5805 23.3306 42.3528 23.2769 42.1002 23.3255L40.2209 23.6836C39.9813 23.7294 39.7871 23.8641 39.6356 24.0904C39.4875 24.3157 39.4346 24.5656 39.4795 24.8423L39.7181 26.3406C39.4164 26.4808 39.1278 26.6404 38.8561 26.8209C38.5794 27.0023 38.3216 27.1966 38.0826 27.4058L36.8151 26.4466C36.6137 26.2837 36.3924 26.2226 36.1423 26.2693C35.8956 26.317 35.6996 26.4577 35.549 26.6876L34.464 28.3807C34.3142 28.614 34.2613 28.8638 34.3044 29.1317C34.3476 29.4024 34.4745 29.6208 34.6874 29.7814L35.8312 30.6638C35.7077 30.9817 35.6082 31.3126 35.5261 31.6559C35.4436 31.9974 35.381 32.3426 35.3349 32.6882L33.8377 32.9733C33.5854 33.0214 33.3878 33.1565 33.2427 33.3823C33.0971 33.6072 33.0489 33.8566 33.0929 34.1324L33.42 36.1874C33.4619 36.4493 33.5842 36.6621 33.7924 36.8273C33.9985 36.9893 34.227 37.0466 34.4796 36.9981L35.8503 36.7371C35.9789 37.067 36.1245 37.3821 36.2896 37.6806C36.4554 37.9823 36.6344 38.2701 36.8278 38.5454L35.9472 39.9114C35.7978 40.1312 35.742 40.3736 35.7851 40.6471C35.8283 40.9169 35.9569 41.1316 36.1677 41.2958L37.7186 42.5022C37.9298 42.6525 38.157 42.7039 38.4033 42.6567C38.65 42.61 38.8515 42.4767 39 42.2578L39.8036 40.9872C40.0948 41.1228 40.3973 41.2315 40.7109 41.3208C41.0232 41.4106 41.3389 41.4795 41.6546 41.5291L41.9161 43.1671C41.9601 43.4433 42.0837 43.659 42.2898 43.8168C42.4954 43.9759 42.7235 44.0296 42.9757 43.9815L44.8542 43.6229C45.095 43.5766 45.2893 43.4429 45.4408 43.2161C45.5884 42.9903 45.6413 42.7419 45.5965 42.4647L45.3574 40.965C45.6591 40.8248 45.9481 40.6661 46.2207 40.4851C46.4962 40.3033 46.7598 40.1085 47.012 39.8975L48.2608 40.8604C48.4618 41.0233 48.6874 41.0839 48.9396 41.0353C49.1952 40.9872 49.3886 40.8461 49.527 40.6184L50.631 38.9225C50.7681 38.6912 50.8151 38.4431 50.7715 38.1738C50.7288 37.9041 50.6077 37.6838 50.4076 37.5214L49.2447 36.6427C49.3691 36.3243 49.4681 35.9935 49.5502 35.6506C49.6323 35.3091 49.695 34.9639 49.7415 34.6178L51.2383 34.3328C51.4909 34.2846 51.6881 34.1505 51.8328 33.9242C51.9784 33.6984 52.0271 33.4503 51.9831 33.1741L51.6551 31.1191C51.6132 30.8568 51.4905 30.6448 51.2831 30.4787C51.077 30.3163 50.8485 30.2599 50.5959 30.308L49.2252 30.5694C49.0987 30.2529 48.9535 29.941 48.7872 29.6361C48.6201 29.3275 48.4419 29.0424 48.2511 28.7801L49.1287 27.3942C49.2781 27.1744 49.3336 26.9324 49.2896 26.6585C49.2468 26.3887 49.1182 26.1749 48.907 26.0102L47.3611 24.8247ZM41.9622 30.0442C42.4155 29.9572 42.8585 29.9693 43.294 30.0789C43.7277 30.1928 44.1204 30.3829 44.4691 30.6486C44.8183 30.9179 45.1136 31.2575 45.3582 31.6656C45.6007 32.077 45.7603 32.5286 45.8402 33.0242C45.9194 33.5202 45.9079 34.0047 45.8081 34.4818C45.704 34.9551 45.5309 35.3836 45.2863 35.7663C45.04 36.1471 44.7302 36.4706 44.357 36.738C43.9808 37.0031 43.5678 37.1781 43.1141 37.265C42.6613 37.3511 42.2183 37.3386 41.782 37.2294C41.3482 37.1156 40.9568 36.9263 40.6068 36.6593C40.259 36.39 39.9627 36.0513 39.7181 35.6432C39.4761 35.2318 39.3153 34.7798 39.2366 34.2842C39.157 33.7891 39.168 33.3046 39.2683 32.8275C39.3724 32.3532 39.5463 31.9247 39.7892 31.5421C40.0359 31.1622 40.3461 30.8383 40.7194 30.5708C41.0964 30.3057 41.5094 30.1308 41.9622 30.0442ZM17.038 11.209C17.9694 11.209 18.8492 11.402 19.6837 11.7865C20.5135 12.178 21.235 12.7055 21.8482 13.3695C22.4555 14.04 22.9379 14.8299 23.2959 15.7354C23.6484 16.6484 23.824 17.6113 23.824 18.6293C23.824 19.6477 23.6484 20.6107 23.2959 21.5232C22.9379 22.4296 22.4555 23.2195 21.8482 23.89C21.235 24.5545 20.5135 25.0815 19.6837 25.473C18.8492 25.8584 17.9694 26.0505 17.038 26.0505C16.1065 26.0505 15.2259 25.8584 14.391 25.473C13.5624 25.0815 12.8405 24.5545 12.2277 23.89C11.6196 23.2195 11.1372 22.4301 10.7792 21.5232C10.4275 20.6107 10.251 19.6477 10.251 18.6293C10.251 17.6113 10.4275 16.6484 10.7792 15.7354C11.1372 14.8294 11.6196 14.04 12.2277 13.3695C12.8405 12.7055 13.5624 12.1775 14.391 11.7865C15.2255 11.402 16.1065 11.209 17.038 11.209Z" fill="#00723F"/>
</g>
<defs>
<clipPath id="clip0_705_1576">
<rect width="52" height="44" fill="white"/>
</clipPath>
</defs>
</svg>
