<svg width="45" height="50" viewBox="0 0 45 50" fill="none" xmlns="http://www.w3.org/2000/svg">
<g clip-path="url(#clip0_705_1584)">
<path d="M12.6219 11.6863C12.6774 11.9101 12.5279 12.1298 12.2974 12.1786C12.0625 12.2275 11.832 12.0891 11.7807 11.8694C11.6825 11.4665 11.7039 11.1044 11.8064 10.7707C11.9088 10.4452 12.0882 10.1563 12.3145 9.89184C12.4639 9.71688 12.7372 9.68839 12.9208 9.83081C12.9421 9.84708 12.9635 9.86743 12.9805 9.88777C13.6253 10.5347 14.3682 10.9172 15.0727 11.019C15.41 11.0678 15.7388 11.0515 16.042 10.9701C16.3409 10.8888 16.6098 10.7463 16.8447 10.5429C17.229 10.197 17.515 9.67212 17.6303 8.9519C17.6645 8.72811 17.8865 8.56941 18.1213 8.60604C18.211 8.61824 18.2879 8.65486 18.3476 8.70776C18.9625 9.19197 19.5645 9.44425 20.1538 9.46867C20.7473 9.49308 21.3536 9.28963 21.9641 8.86238C22.152 8.73217 22.4125 8.7688 22.5534 8.93563C23.3561 9.88777 24.1289 10.2947 24.8761 10.2214C25.6532 10.1441 26.4559 9.55818 27.2843 8.53279C27.3782 8.41479 27.5319 8.35783 27.6771 8.3741C29.4448 8.57348 30.508 8.08113 31.0075 7.36092C31.2851 6.95809 31.3918 6.48201 31.3491 6.01001C31.3064 5.53393 31.1143 5.07413 30.794 4.71199C30.2603 4.10978 29.3594 3.77612 28.1852 4.11792C28.0187 4.16675 27.8436 4.11385 27.7326 3.99585C27.0921 3.30005 26.4559 2.8077 25.8454 2.52286C25.3586 2.29093 24.8932 2.19327 24.4662 2.2299C24.0521 2.26245 23.6678 2.42521 23.3219 2.71411C23.0188 2.96639 22.7455 3.32039 22.5107 3.77205C22.4082 3.96736 22.1691 4.05281 21.9641 3.97143C21.6354 3.84529 21.3109 3.76391 20.9906 3.72322C20.6704 3.68253 20.3502 3.68253 20.0299 3.72322C19.825 3.74764 19.6371 3.63777 19.5688 3.46281C19.1247 2.35604 18.5312 1.83113 17.8481 1.68872C17.1308 1.53816 16.2597 1.77417 15.3246 2.18514C15.141 2.26652 14.9276 2.21362 14.808 2.06714C14.095 1.35099 13.2495 0.960365 12.434 0.85457C11.832 0.777259 11.247 0.850501 10.7432 1.05802C10.2479 1.26147 9.82945 1.59513 9.54765 2.04272C9.23168 2.54728 9.08651 3.20239 9.20606 3.98771C9.24022 4.2115 9.0737 4.42309 8.83886 4.45564H8.82606C7.59636 4.58992 6.75522 5.23689 6.40509 5.98559C6.27273 6.27042 6.20868 6.57153 6.22576 6.86043C6.23857 7.14119 6.32824 7.40975 6.49476 7.64982C6.89185 8.21948 7.75007 8.61824 9.14202 8.56128C9.38113 8.55314 9.58181 8.72811 9.59034 8.95597C9.59461 9.06583 9.55192 9.17163 9.47933 9.24894C9.19753 9.55412 8.95842 9.86743 8.77055 10.1889C8.58695 10.5022 8.45459 10.8277 8.37773 11.1654C8.33076 11.3892 8.10019 11.5317 7.86536 11.4869C7.63052 11.4421 7.48108 11.2224 7.52804 10.9986C7.62198 10.5795 7.78423 10.1767 8.01053 9.79012C8.09592 9.64363 8.18559 9.50529 8.28806 9.36287C7.04983 9.24487 6.22576 8.75252 5.7689 8.10555C5.51271 7.73934 5.37608 7.3243 5.35473 6.89705C5.33338 6.48201 5.41878 6.0507 5.61092 5.64786C6.03362 4.74861 6.96017 3.96329 8.30087 3.69881C8.25391 2.88908 8.44178 2.18921 8.80044 1.61954C9.17618 1.0214 9.73552 0.573809 10.3931 0.301185C11.0421 0.0326301 11.785 -0.0609571 12.5408 0.0366991C13.4673 0.158769 14.4152 0.56974 15.2307 1.31437C16.2213 0.907467 17.1692 0.699948 18.0274 0.878984C18.9283 1.07023 19.6884 1.6643 20.2477 2.8728C20.5338 2.85652 20.8198 2.86873 21.1017 2.90535C21.3749 2.94197 21.6482 2.99894 21.9172 3.08032C22.1648 2.68156 22.4424 2.35197 22.7541 2.09155C23.2408 1.68465 23.7959 1.45678 24.3936 1.40389C24.9786 1.35506 25.5977 1.4812 26.2296 1.77824C26.8787 2.08341 27.5447 2.57576 28.2023 3.25936C29.6327 2.93383 30.7599 3.39363 31.4558 4.18302C31.8956 4.67944 32.1561 5.30607 32.2159 5.9449C32.2714 6.58781 32.1219 7.25105 31.7334 7.81665C31.0972 8.74031 29.8333 9.38729 27.8265 9.22046C26.9 10.315 25.9521 10.9457 24.9743 11.0434C24.0094 11.141 23.0657 10.726 22.1435 9.74536C21.4774 10.136 20.807 10.3232 20.1239 10.2947C19.5218 10.2703 18.9241 10.079 18.3348 9.72094C18.1427 10.3191 17.8267 10.7952 17.4339 11.1451C17.0966 11.4462 16.7038 11.6537 16.2768 11.7677C15.8541 11.8816 15.4058 11.906 14.9446 11.8368C14.1932 11.727 13.4203 11.3811 12.7244 10.7952C12.6902 10.8643 12.6603 10.9335 12.639 11.0027C12.5706 11.2061 12.5578 11.434 12.6219 11.6863ZM0.5 47.9127H40.5248V50.0001H0.5V47.9127ZM20.5082 18.3106L20.0342 22.6563H25.1579L24.684 18.3106H20.5082ZM7.03702 12.7239L6.37521 18.7948H13.5313L12.8695 12.7239H7.03702ZM6.25138 19.9504L5.92688 22.929H13.9839L13.6594 19.9504H6.25138ZM5.80306 24.0886L5.32057 28.3977L2.30611 27.8687V46.871H38.7187V34.2408L25.9991 32.0151L25.5678 26.4446H19.6243L19.334 30.8472L14.7738 30.0497L14.1078 24.0886H5.80306ZM19.9445 23.4864L19.714 25.6186H25.4782L25.2476 23.4864H19.9445ZM24.5004 36.9263H30.5848V43.8925H24.5004V36.9263ZM16.691 36.9263H22.7754V43.8925H16.691V36.9263ZM8.88156 36.9263H14.966V43.8925H8.88156V36.9263ZM33.279 7.94686C33.0613 7.85734 32.9588 7.6132 33.057 7.40568C33.1509 7.19816 33.4071 7.1005 33.6249 7.19409C33.7829 7.25919 33.9152 7.34464 34.0476 7.43416C34.2824 6.89705 34.6155 6.45353 35.004 6.1158C35.4865 5.70076 36.0587 5.44848 36.6564 5.38338C37.2542 5.31827 37.8776 5.43628 38.4583 5.7618C38.9749 6.0507 39.4574 6.50236 39.8545 7.12898C41.699 6.75464 42.9885 7.2714 43.74 8.12996C44.2737 8.74031 44.5214 9.52156 44.5 10.2784C44.4787 11.0474 44.1798 11.7961 43.6162 12.3414C42.8818 13.0494 41.7161 13.4075 40.1534 12.9802C39.7776 13.6638 39.2226 14.1846 38.5906 14.5102C38.1722 14.7299 37.7196 14.8601 37.2713 14.9008C36.8101 14.9415 36.3533 14.8845 35.9263 14.7177C35.4481 14.5346 35.0126 14.2172 34.671 13.7574C33.9921 13.9934 33.3303 14.144 32.6855 14.1643C32.0451 14.1846 31.426 14.0748 30.8367 13.8022C30.1279 14.8276 29.2953 15.446 28.3304 15.6373C27.4593 15.8082 26.5072 15.621 25.4696 15.0554V17.2161C25.4696 17.4439 25.2775 17.6311 25.0341 17.6311H21.7336C21.4945 17.6311 21.2981 17.448 21.2981 17.2161V13.4156C20.8711 13.379 20.4526 13.2691 20.047 13.0982C19.5133 12.8704 19.0052 12.5326 18.5142 12.085C18.3391 11.9263 18.3348 11.6659 18.4971 11.5032C18.6636 11.3363 18.9369 11.3323 19.1077 11.4869C19.5261 11.8694 19.9573 12.1583 20.3971 12.3455C20.8156 12.5245 21.2426 12.6099 21.6823 12.6059C21.708 12.614 21.7208 12.614 21.7378 12.614C21.977 12.614 22.1734 12.7971 22.1734 13.029V16.8132H24.6071V14.3067C24.6071 14.2253 24.6328 14.1399 24.6883 14.0666C24.8249 13.8795 25.0982 13.8388 25.2903 13.969C26.3876 14.7177 27.3441 14.9985 28.1596 14.8357C28.9708 14.677 29.6839 14.0707 30.3115 13.0453L30.3201 13.0331C30.4482 12.8419 30.7172 12.7849 30.9179 12.907C31.4601 13.2366 32.0451 13.3627 32.6599 13.3464C33.2961 13.3261 33.9707 13.1552 34.6667 12.8826C34.8717 12.793 35.1193 12.8663 35.2303 13.0575C35.4908 13.5092 35.8494 13.8022 36.2508 13.9568C36.5497 14.0707 36.8699 14.1114 37.1944 14.0829C37.5275 14.0544 37.8648 13.9527 38.1807 13.79C38.7443 13.497 39.2311 13.0006 39.5172 12.3373C39.5983 12.1257 39.8417 12.0159 40.068 12.0891C41.4514 12.557 42.4292 12.317 43.0013 11.7636C43.4069 11.373 43.6204 10.8236 43.6375 10.2581C43.6546 9.68432 43.471 9.10246 43.0782 8.65486C42.4847 7.97534 41.3916 7.59285 39.7648 7.99161C39.5684 8.04858 39.3549 7.9672 39.2567 7.78816C38.9066 7.1534 38.4796 6.72208 38.0228 6.46574C37.6129 6.2338 37.1731 6.14835 36.7546 6.19718C36.3362 6.24194 35.9306 6.42505 35.5847 6.71801C35.1919 7.05574 34.8759 7.54402 34.6966 8.16251C34.6923 8.18286 34.6838 8.19913 34.6753 8.21948C34.577 8.427 34.3251 8.52059 34.1074 8.43107C33.9195 8.35376 33.7701 8.24796 33.6206 8.14624C33.4968 8.06893 33.3815 7.99162 33.279 7.94686Z" fill="#00723F"/>
</g>
<defs>
<clipPath id="clip0_705_1584">
<rect width="44" height="50" fill="white" transform="translate(0.5)"/>
</clipPath>
</defs>
</svg>
