<svg width="48" height="49" viewBox="0 0 48 49" fill="none" xmlns="http://www.w3.org/2000/svg">
<g clip-path="url(#clip0_705_1592)">
<path fill-rule="evenodd" clip-rule="evenodd" d="M26.2059 9.77777C30.0792 14.6148 31.9683 20.329 31.7228 25.5608C29.9327 21.1425 27.1525 16.6644 23.4653 12.5412L22.2297 13.7853C22.0911 13.9249 21.8614 13.9249 21.7228 13.7853L17.8139 9.84955C17.6752 9.70998 17.6752 9.4787 17.8139 9.33913L19.0139 8.13088C14.8119 4.46625 10.2812 1.7427 5.84158 0.0519431C11.0772 -0.342832 16.8554 1.47553 21.7624 5.35948L22.301 4.81716C22.4396 4.67759 22.6693 4.67759 22.8079 4.81716L26.7168 8.75295C26.8554 8.89252 26.8554 9.1238 26.7168 9.26337L26.2059 9.77777ZM19.5327 23.4035V21.7885L27.101 22.602L19.5327 23.4035ZM22.903 29.6521L21.7663 28.5077L27.6911 23.6946L22.903 29.6521ZM44.2653 14.0286L45.1842 16.0304L35.3426 19.38L44.2653 14.0286ZM36.5386 8.22659L38.5941 8.98822L33.9881 18.3631L36.5386 8.22659ZM40.6733 22.9689L48 27.5427V49.0001H10.1901C17.8891 41.2481 28.4238 38.7878 34.5149 28.1687C36.8277 24.1332 36.0436 19.8186 40.6733 22.9689ZM17.6634 11.0897L20.8277 14.2758L3.81782 31.4067C2.94653 32.284 1.52079 32.284 0.653465 31.4067C-0.217822 30.5294 -0.217822 29.0939 0.653465 28.2206L17.6634 11.0897Z" fill="#00723F"/>
</g>
<defs>
<clipPath id="clip0_705_1592">
<rect width="48" height="49" fill="white"/>
</clipPath>
</defs>
</svg>
