<svg width="50" height="48" viewBox="0 0 50 48" fill="none" xmlns="http://www.w3.org/2000/svg">
<g clip-path="url(#clip0_705_1635)">
<path fill-rule="evenodd" clip-rule="evenodd" d="M42.9281 41.5238H40.4622V45.3055C40.4633 45.6604 40.3927 46.012 40.2544 46.3403C40.1162 46.6686 39.9129 46.9671 39.6564 47.2188C39.3998 47.4704 39.095 47.6704 38.7592 47.8071C38.4234 47.9439 38.0633 48.0148 37.6994 48.0159H36.0718C35.34 48.0127 34.6391 47.7278 34.1217 47.2232C33.6043 46.7186 33.3121 46.0351 33.3089 45.3214V41.5397H16.6097V45.3214C16.6065 46.0371 16.3127 46.7224 15.7926 47.2274C15.2725 47.7324 14.5685 48.0159 13.8346 48.0159H12.207C11.4756 48.0127 10.7752 47.7277 10.2584 47.223C9.7416 46.7182 9.45038 46.0347 9.44824 45.3214V41.5397H7.36491C5.92448 41.5159 5.23275 40.746 5.12695 39.4405V8.53968C4.31315 8.61904 3.9266 8.80158 3.73128 9.20634V18.0357H1.98161C1.45638 18.0347 0.952978 17.8307 0.581587 17.4685C0.210196 17.1063 0.00107518 16.6154 0 16.1032L0 10.8889C0.00183148 10.3864 0.20344 9.90425 0.562404 9.54381C0.921368 9.18337 1.4097 8.97278 1.92464 8.95634C2.09147 7.44047 2.76286 6.99999 5.17985 6.88888C5.52436 4.24338 7.37305 2.28703 10.7259 1.01983C17.9403 -0.269849 31.6284 -0.396833 39.2741 1.01983C42.6432 2.28571 44.4824 4.24206 44.8161 6.88888C47.2575 7.00793 47.9126 7.45237 48.0713 8.95634C48.5862 8.97278 49.0746 9.18337 49.4335 9.54381C49.7925 9.90425 49.9941 10.3864 49.9959 10.8889V16.1032C49.9949 16.6154 49.7857 17.1063 49.4143 17.4685C49.043 17.8307 48.5396 18.0347 48.0143 18.0357H46.2646V9.18253C46.0693 8.78571 45.6665 8.6111 44.869 8.53571V39.123C44.869 40.8928 44.283 41.504 42.924 41.504L42.9281 41.5238ZM6.56331 33.6786L6.67725 31.0238C6.74235 30.5595 6.99463 30.3532 7.44629 30.4286C9.7269 31.6158 11.9151 32.9647 13.9933 34.4643C14.4368 34.75 14.2619 35.3016 13.6759 35.1984L7.51953 34.7619C7.25282 34.7245 7.00902 34.5942 6.83323 34.395C6.65744 34.1959 6.56155 33.9413 6.56331 33.6786ZM21.1589 37.0833H29.012C29.1135 37.0833 29.2108 37.1226 29.2825 37.1926C29.3542 37.2625 29.3945 37.3574 29.3945 37.4563V38.7421C29.3945 38.841 29.3542 38.9359 29.2825 39.0058C29.2108 39.0758 29.1135 39.1151 29.012 39.1151H21.1589C21.0574 39.1151 20.9601 39.0758 20.8884 39.0058C20.8167 38.9359 20.7764 38.841 20.7764 38.7421V37.4563C20.7764 37.3574 20.8167 37.2625 20.8884 37.1926C20.9601 37.1226 21.0574 37.0833 21.1589 37.0833ZM41.6463 37.0833C41.8473 37.0849 42.0433 37.1443 42.2098 37.254C42.3763 37.3637 42.5059 37.5189 42.5824 37.7001C42.659 37.8813 42.679 38.0805 42.6399 38.2727C42.6009 38.465 42.5046 38.6417 42.3631 38.7808C42.2215 38.92 42.0411 39.0153 41.8443 39.0548C41.6474 39.0944 41.443 39.0765 41.2566 39.0033C41.0702 38.9301 40.9101 38.8049 40.7963 38.6434C40.6825 38.4819 40.6201 38.2912 40.6169 38.0952C40.6169 37.8318 40.7239 37.579 40.9146 37.3923C41.1052 37.2057 41.364 37.1002 41.6341 37.0992L41.6463 37.0833ZM8.01595 37.0833C8.21671 37.0857 8.41231 37.1457 8.57829 37.2559C8.74426 37.3661 8.87326 37.5215 8.94916 37.7028C9.02505 37.8841 9.04448 38.0831 9.005 38.2751C8.96553 38.4671 8.86891 38.6435 8.72721 38.7822C8.58552 38.9209 8.40505 39.0159 8.20835 39.0551C8.01164 39.0943 7.80744 39.0762 7.62127 39.0029C7.43509 38.9296 7.2752 38.8044 7.16157 38.643C7.04795 38.4815 6.98564 38.291 6.98242 38.0952C6.98242 37.8311 7.09003 37.5777 7.28156 37.3909C7.4731 37.2041 7.73287 37.0992 8.00374 37.0992L8.01595 37.0833ZM43.4489 33.6587L43.335 31.004C43.2699 30.5397 43.0176 30.3333 42.57 30.4087C40.2875 31.5951 38.0979 32.944 36.0189 34.4444C35.5754 34.7302 35.7503 35.2817 36.3363 35.1786L42.4927 34.7421C42.7598 34.7055 43.004 34.5754 43.18 34.376C43.3559 34.1767 43.4515 33.9217 43.4489 33.6587ZM19.6086 2.4246H30.3914C30.5659 2.42564 30.733 2.4937 30.8564 2.61403C30.9798 2.73437 31.0496 2.89728 31.0506 3.06745V4.7619C31.0496 4.93207 30.9798 5.09498 30.8564 5.21532C30.733 5.33565 30.5659 5.40371 30.3914 5.40475H19.6086C19.4341 5.40371 19.267 5.33565 19.1436 5.21532C19.0202 5.09498 18.9504 4.93207 18.9494 4.7619V3.06745C18.9504 2.89728 19.0202 2.73437 19.1436 2.61403C19.267 2.4937 19.4341 2.42564 19.6086 2.4246ZM8.26823 7.50396H41.5853C41.8011 7.50396 42.0081 7.58758 42.1607 7.73642C42.3134 7.88525 42.3991 8.08712 42.3991 8.29761V25.4325C42.3991 25.8611 42.0369 26.1032 41.5853 26.2262C30.1554 29.6111 19.694 29.4722 8.26823 26.2262C7.81657 26.1071 7.45443 25.869 7.45443 25.4325V8.28967C7.45443 8.07919 7.54017 7.87732 7.69278 7.72848C7.8454 7.57964 8.0524 7.49602 8.26823 7.49602V7.50396Z" fill="#00723F"/>
</g>
<defs>
<clipPath id="clip0_705_1635">
<rect width="50" height="48" fill="white"/>
</clipPath>
</defs>
</svg>
