<svg width="50" height="44" viewBox="0 0 50 44" fill="none" xmlns="http://www.w3.org/2000/svg">
<g clip-path="url(#clip0_705_1601)">
<path d="M6.96247 39.8006H11.0393C11.1117 40.3006 11.2778 40.7835 11.5276 41.2239L11.834 41.8612H4.69476V40.8271H4.68418V23.3696C3.73241 23.7263 2.84087 23.7346 2.1007 23.4886C1.52289 23.2982 1.03459 22.9569 0.67651 22.5165C0.318429 22.0765 0.0909656 21.5408 0.0213838 20.9496C-0.084413 20.033 0.196356 18.9978 0.99797 18.0252C1.03866 17.9776 1.08342 17.93 1.13632 17.8903L24.3522 0.218902C24.6533 -0.0509153 25.1168 -0.0786906 25.4505 0.175255L48.7201 17.8149C48.7567 17.8427 48.7889 17.8705 48.8214 17.9062C49.8997 19.037 50.1683 20.2905 49.9079 21.3499C49.7781 21.8737 49.5217 22.3419 49.1677 22.7304C48.8137 23.1192 48.362 23.4208 47.8493 23.5989C47.0355 23.885 46.067 23.8767 45.0868 23.4247V39.8003H45.088V41.8608H31.4919L31.6319 41.3509L31.6258 41.3493C31.7067 41.0537 31.7531 40.7506 31.7649 40.447C31.8776 40.2427 31.9741 40.0264 32.0514 39.8003H42.8081V22.449C42.8081 22.0483 26.8462 9.74503 25.0847 8.40785C23.2173 9.79264 6.96247 21.9967 6.96247 22.5125V39.8006ZM38.1489 1.40927L45.1352 1.68702V10.8878L38.1489 6.39255V1.40927ZM28.9279 26.2423C28.569 26.4328 28.121 26.3035 27.9277 25.9555C27.7328 25.6055 27.8655 25.1686 28.2244 24.9806C29.9212 24.0826 30.7114 22.922 30.8709 21.7868C30.9552 21.1805 30.8587 20.5718 30.6252 20.008C30.3863 19.437 30.0079 18.9176 29.5285 18.4994C28.5959 17.6864 27.2873 17.2586 25.9209 17.59C25.3666 17.7237 24.8873 17.9943 24.4678 18.3748C24.0218 18.7791 23.6365 19.3081 23.2987 19.933C23.1087 20.2857 22.6627 20.4195 22.3034 20.2361C21.9421 20.0504 21.8045 19.616 21.9925 19.2656C22.4072 18.4994 22.8914 17.8415 23.4652 17.3197C24.0653 16.7769 24.762 16.3869 25.5713 16.1917C27.4508 15.7381 29.2417 16.3163 30.5141 17.4257C31.1598 17.9895 31.6734 18.6922 31.9965 19.4676C32.3216 20.25 32.4542 21.1103 32.3313 21.982C32.112 23.5374 31.0899 25.098 28.9279 26.2423ZM23.2743 31.9224C20.4788 28.2608 20.4113 24.7921 23.8045 21.5682L21.361 20.252C19.4038 19.5096 15.8132 24.9829 17.2012 26.4443L19.1051 29.1984L18.7124 29.9976C18.6038 30.2352 18.71 30.4019 18.9753 30.517L19.2333 30.5852L15.2179 39.2289L16.2205 41.3136L18.2258 40.7379L18.7413 39.7602L18.2473 38.8579L19.3366 38.6301L19.5897 38.1508L19.0209 37.3044L19.3944 36.5974L20.4813 36.4633L20.8357 35.7935L20.2286 35.0205L20.6164 34.2873L21.7252 34.1111L22.2965 32.2168L22.5516 32.3533C22.9948 32.6156 23.2239 32.4466 23.2743 31.9224ZM28.5353 34.2182L28.7346 35.9883L27.7105 36.3831L27.496 37.1656L28.2431 37.7838L28.0482 38.496L27.0362 38.8436L26.8287 39.5959L27.5542 40.2891L27.4142 40.799L26.4189 41.2386L27.0842 42.0024L26.7973 43.0432L25.0021 43.9999L23.5994 42.2064L25.3369 33.3842L24.6891 33.2151C24.5565 33.1798 24.4747 33.0457 24.5109 32.914L24.7831 31.9248C22.8214 30.4749 21.8501 27.9652 22.5248 25.5043C23.3923 22.3435 26.6647 20.4353 29.909 21.1452C29.9232 21.3142 29.9208 21.4856 29.8968 21.6574C29.837 22.0852 29.6465 22.5248 29.2946 22.9502C29.2465 23.0065 29.1957 23.0653 29.1428 23.1216C28.1064 23.0557 27.1351 23.7092 26.8559 24.7246C26.7351 25.1619 26.7619 25.6035 26.904 26.0007C26.9377 26.1416 26.9931 26.2781 27.0651 26.4118C27.2364 26.7177 27.4867 26.9498 27.7809 27.0978C27.9737 27.222 28.1906 27.3165 28.4246 27.3799C29.5884 27.6831 30.7814 27.0296 31.1285 25.9134C31.4805 25.6103 31.7865 25.2908 32.0493 24.9619C32.5604 24.3203 32.9096 23.639 33.1171 22.9454C34.5246 24.4258 35.1435 26.5578 34.5677 28.654C33.8931 31.1145 31.76 32.816 29.321 33.1143L29.0484 34.1035C29.0126 34.2329 28.875 34.3127 28.7399 34.2773L28.5353 34.2182Z" fill="#00723F"/>
</g>
<defs>
<clipPath id="clip0_705_1601">
<rect width="50" height="44" fill="white"/>
</clipPath>
</defs>
</svg>
