<svg width="50" height="48" viewBox="0 0 50 48" fill="none" xmlns="http://www.w3.org/2000/svg">
<g clip-path="url(#clip0_705_1524)">
<path fill-rule="evenodd" clip-rule="evenodd" d="M45.6907 40.0474C45.6907 40.4578 45.3571 40.7951 44.942 40.7951H40.1284L39.6279 38.6698H43.5586V20.1638C43.5586 20.1151 43.5626 20.0663 43.5708 20.0216L25.073 7.55023L6.21318 20.0257C6.22945 20.0866 6.23759 20.1517 6.23759 20.2167V38.6616H10.2456L9.87122 40.7869H4.85413C4.44316 40.7869 4.10543 40.4537 4.10543 40.0392V20.9969C3.26721 21.3179 2.49003 21.322 1.83899 21.1066C1.33036 20.9359 0.903118 20.6312 0.589805 20.2329C0.276491 19.8387 0.0771094 19.3552 0.0160743 18.8269C-0.073444 18.002 0.174766 17.0673 0.874635 16.1936C0.911256 16.1489 0.951947 16.1083 0.996706 16.0717L24.4342 0.194997C24.6987 -0.0488224 25.1056 -0.0732044 25.3986 0.154361L48.8808 15.9986C48.9134 16.023 48.9419 16.0514 48.9703 16.0799C49.9143 17.0958 50.1504 18.2214 49.9225 19.1764C49.8086 19.6437 49.5848 20.0704 49.2755 20.4158C48.9663 20.7653 48.5716 21.0335 48.1199 21.196C47.4038 21.4561 46.5574 21.4439 45.6948 21.0375C45.6907 27.3768 45.6907 33.7121 45.6907 40.0474ZM22.5503 20.7937C22.0416 19.2983 21.5859 17.7825 21.1993 16.2465C22.6398 14.6698 28.2021 14.877 29.8012 16.2221L28.3201 19.7412C29.1176 18.6969 29.3862 18.2661 29.8582 17.685C30.0576 17.815 30.2448 17.9613 30.4238 18.1239C30.847 18.5059 31.2213 18.9244 31.2986 19.5137C31.3475 19.8956 31.2376 20.2817 30.8999 20.6759L27.5022 24.6298C27.0628 24.5567 26.6355 24.4551 26.2205 24.3047C26.4117 23.8536 26.6437 23.3538 26.839 22.8987L25.602 24.2316C24.3121 23.9593 23.2745 24.1219 22.3102 24.6339L18.8637 20.5011C18.6603 20.2532 18.5667 20.0094 18.5667 19.7615C18.5708 18.7619 20.06 17.9004 20.8413 17.5753L22.5503 20.7937ZM26.9692 28.2587L26.2978 25.1865C29.1787 25.7229 33.797 31.5746 35.2903 34.2363C36.0512 35.5936 36.7185 37.0931 37.2638 38.7632C38.3502 42.8106 37.3045 46.602 32.9059 47.4839C30.1512 48.0365 25.012 48.0772 22.1108 47.9268C18.9939 47.7642 14.1722 47.7724 12.9148 44.5743C10.8803 39.4175 14.6075 33.2732 18.0011 29.5143C18.4487 29.0186 18.9085 28.5594 19.3886 28.1327C20.6256 27.0477 21.9562 25.7595 23.5472 25.2231L22.0131 28.0799L24.243 25.1256H25.4189L26.9692 28.2587ZM25.5369 30.7781V31.3227C26.1147 31.3836 26.6111 31.5015 27.018 31.6762C27.4331 31.855 27.7911 32.1232 28.1004 32.4808C28.3445 32.7571 28.5317 33.0416 28.6619 33.3301C28.7962 33.6227 28.8613 33.8868 28.8613 34.1266C28.8613 34.3948 28.7636 34.6305 28.5683 34.8255C28.3689 35.0206 28.1329 35.1181 27.8522 35.1181C27.3232 35.1181 26.9773 34.8337 26.8227 34.2607C26.6437 33.5902 26.2164 33.1391 25.5369 32.9197V36.2763C26.2042 36.4591 26.7373 36.6257 27.132 36.7761C27.5307 36.9265 27.8847 37.1418 28.194 37.4304C28.5276 37.7229 28.788 38.0805 28.9671 38.491C29.1461 38.9055 29.2356 39.3525 29.2356 39.8442C29.2356 40.4578 29.0932 41.0308 28.8043 41.5631C28.5154 42.0995 28.0922 42.5343 27.5307 42.8757C26.9692 43.2129 26.306 43.4161 25.5328 43.4771V44.0257C25.5328 44.3426 25.5003 44.5743 25.4393 44.7206C25.3782 44.8669 25.2439 44.94 25.0324 44.94C24.8411 44.94 24.7028 44.8831 24.6255 44.7653C24.5481 44.6474 24.5115 44.4646 24.5115 44.2167V43.5015C23.8849 43.4324 23.3315 43.282 22.8595 43.0585C22.3875 42.831 21.9928 42.5506 21.6795 42.2173C21.3662 41.8801 21.1302 41.5306 20.9837 41.1689C20.8331 40.8073 20.7558 40.4497 20.7558 40.0961C20.7558 39.8401 20.8535 39.6044 21.061 39.4012C21.2604 39.194 21.5127 39.0883 21.8138 39.0883C22.0579 39.0883 22.2614 39.1452 22.4282 39.2549C22.595 39.3687 22.7089 39.5272 22.774 39.7304C22.9165 40.1693 23.0426 40.5106 23.1525 40.7422C23.2623 40.9779 23.4251 41.1892 23.6448 41.3843C23.8645 41.5753 24.1534 41.7256 24.5115 41.8272V38.0765C23.7872 37.8774 23.1891 37.6539 22.7049 37.41C22.2207 37.1662 21.826 36.8167 21.5249 36.3657C21.2238 35.9146 21.0732 35.3335 21.0732 34.6224C21.0732 33.6958 21.3662 32.9359 21.9562 32.3467C22.5462 31.7534 23.3966 31.4121 24.5115 31.3145V30.7863C24.5115 30.3352 24.6824 30.1076 25.0201 30.1076C25.366 30.1198 25.5369 30.3393 25.5369 30.7781ZM24.5115 35.9837V32.8953C24.0599 33.0294 23.7059 33.2082 23.4536 33.4276C23.2013 33.6471 23.0752 33.9844 23.0752 34.4314C23.0752 34.854 23.1932 35.1791 23.4292 35.3945C23.6652 35.6098 24.0273 35.8089 24.5115 35.9837ZM25.5369 38.3772V41.9126C26.0781 41.8069 26.4972 41.5875 26.7983 41.2624C27.0913 40.9332 27.2418 40.5512 27.2418 40.1164C27.2418 39.6491 27.0994 39.2874 26.8105 39.0314C26.5216 38.7714 26.0984 38.556 25.5369 38.3772Z" fill="#00723F"/>
</g>
<defs>
<clipPath id="clip0_705_1524">
<rect width="50" height="48" fill="white"/>
</clipPath>
</defs>
</svg>
