<svg width="50" height="36" viewBox="0 0 50 36" fill="none" xmlns="http://www.w3.org/2000/svg">
<g clip-path="url(#clip0_705_1499)">
<path fill-rule="evenodd" clip-rule="evenodd" d="M37.4146 32.7774L38.2243 28.9312L37.6668 28.171C37.4146 27.7149 37.3617 27.3146 37.5 26.97C37.8011 26.2251 38.4277 26.3619 39.0137 26.3619C39.6281 26.3619 40.3849 26.2149 40.5762 27.1727C40.6413 27.492 40.5599 27.8264 40.3809 28.171L39.8234 28.9312L40.3076 31.242L43.5181 27.7656L45.1823 27.8163C44.6086 26.3822 43.8802 25.166 43.0339 24.0207C44.6289 24.791 46.2606 25.5511 47.4691 26.4937C48.2381 27.0916 48.6328 27.5477 48.9461 28.2724C49.6053 29.818 49.6786 31.2014 49.7762 32.8737L50.0081 34.3231H40.9587L40.9668 34.3585H37.5041C37.4268 35.3467 36.971 35.9193 36.0799 36.0004H25.0977H13.9323C13.0371 35.9143 12.5814 35.3416 12.5081 34.3433L12.8174 28.242C12.9028 26.8332 13.2202 25.7183 13.737 24.867C14.0788 24.3045 14.502 23.8889 14.9699 23.5646C16.4551 22.5359 19.9219 22.2318 21.2687 20.7217L23.3317 28.2774L24.3693 23.7927L23.8607 23.0984C23.6328 22.6829 23.5799 22.318 23.7101 22.0038C23.9868 21.3247 24.5565 21.4514 25.0895 21.4514C25.647 21.4514 26.3346 21.3197 26.5096 22.1913C26.5666 22.4802 26.4933 22.7842 26.3306 23.0984L25.8219 23.7927L26.8595 28.2774L28.7272 20.7217C30.0741 22.2318 33.5449 22.5359 35.026 23.5646C35.494 23.8889 35.9212 24.3045 36.259 24.867C36.7757 25.7183 37.0931 26.8281 37.1786 28.242L37.4146 32.7774ZM6.22152 24.4514L7.60498 29.5139L8.30078 26.5089L7.95898 26.0426C7.80436 25.7639 7.77181 25.5207 7.85726 25.3079C8.04037 24.8518 8.42285 24.9379 8.78092 24.9379C9.15527 24.9379 9.61507 24.8518 9.73307 25.4345C9.77376 25.6271 9.72087 25.8349 9.61507 26.0426L9.27328 26.5089L9.96908 29.5139L11.2223 24.4514C11.4054 24.6541 11.6577 24.8264 11.9548 24.9734C11.853 25.242 11.7594 25.5258 11.6781 25.8197C11.4665 26.5849 11.3281 27.4362 11.2712 28.3839H11.2752C11.2752 28.4041 11.2712 28.4295 11.2712 28.4497L10.9701 34.318H8.79313H0.956217C0.354004 34.2622 0.0488281 33.8771 0 33.2082L0.20752 29.4886C0.264486 28.546 0.480143 27.8011 0.826009 27.2285C1.05387 26.8535 1.3387 26.5747 1.65202 26.3568C2.64486 25.6676 5.3182 25.4649 6.22152 24.4514ZM5.54199 17.2758C5.40771 17.291 5.30599 17.3264 5.23275 17.3872C5.19206 17.4227 5.15951 17.4683 5.13916 17.519C5.11475 17.5798 5.10661 17.6609 5.10661 17.747C5.11475 18.0258 5.23275 18.4008 5.46468 18.8315L5.46875 18.8416L6.24186 20.372C6.55111 20.9802 6.87256 21.6035 7.27132 22.0595C7.64974 22.4903 8.10954 22.7842 8.71989 22.7842C9.37907 22.7842 9.85921 22.4801 10.2539 22.0241C10.6649 21.5426 10.9904 20.8839 11.3118 20.2251L12.1785 18.4464C12.3535 17.9497 12.4064 17.6508 12.3494 17.5089C12.3128 17.4227 12.1704 17.3974 11.9344 17.4227C11.7839 17.4633 11.6252 17.4278 11.4583 17.3214L11.8937 15.6997C10.3027 15.6744 9.21631 15.3298 7.92643 14.3062C7.50326 13.9717 7.37712 13.5866 6.95394 13.622C6.63249 13.6981 6.36393 13.8754 6.15234 14.1643C5.94889 14.4379 5.79427 14.8129 5.69255 15.2943L5.94889 17.2352C5.81869 17.3366 5.68034 17.3467 5.54199 17.2758ZM12.4308 16.7943C12.618 16.8653 12.7563 16.997 12.8377 17.2048C12.9679 17.5342 12.9191 18.0258 12.6709 18.7251C12.6668 18.7403 12.6628 18.7504 12.6546 18.7656L11.7757 20.5697C11.4339 21.269 11.0881 21.9683 10.6242 22.5106C10.14 23.0781 9.54183 23.4531 8.72396 23.4481C7.95898 23.4481 7.38525 23.0832 6.91325 22.546C6.46159 22.0291 6.11572 21.3704 5.7902 20.7217L5.01709 19.1913C4.72819 18.6541 4.58171 18.1677 4.5695 17.7622C4.56543 17.5646 4.58984 17.3872 4.65088 17.2352C4.71191 17.068 4.8055 16.9312 4.93571 16.8247C4.99675 16.7741 5.06999 16.7285 5.1473 16.693C5.09847 15.872 5.08219 14.8585 5.11475 14.0072C5.13102 13.7994 5.16357 13.5916 5.20833 13.3839C5.40772 12.5072 5.90007 11.7977 6.51449 11.3112C6.73014 11.1389 6.96615 10.997 7.21842 10.8856C8.70361 10.2166 10.6689 10.5815 11.7228 12.0004C12.1501 12.5781 12.4227 13.3433 12.4797 14.3568L12.4308 16.7943ZM20.2026 10.019C20.0317 10.0443 19.8975 10.1001 19.7998 10.1812C19.7388 10.2318 19.6899 10.3028 19.6615 10.3788C19.6289 10.47 19.6126 10.5866 19.6126 10.7183C19.6208 11.1389 19.7998 11.6913 20.1497 12.3298L20.1579 12.3399L21.3094 14.6254C21.7692 15.5376 22.2493 16.4649 22.8434 17.1389C23.409 17.7825 24.0967 18.2183 25 18.2234C25.9847 18.2285 26.7008 17.7724 27.2868 17.0933C27.9012 16.3788 28.3895 15.3906 28.8696 14.4075L30.1636 11.7521C30.424 11.0122 30.5054 10.5663 30.4199 10.3535C30.367 10.2166 30.1392 10.1862 29.7567 10.2318C29.7282 10.2369 29.6997 10.2369 29.6712 10.2318C29.5125 10.2318 29.3416 10.1812 29.1545 10.0747L29.7363 7.65245C27.36 7.61698 25.7365 7.10008 23.8159 5.56968C23.1852 5.06799 22.994 4.49535 22.3633 4.5511C21.8872 4.66765 21.4844 4.93116 21.167 5.35684C20.8618 5.76731 20.6299 6.32475 20.4793 7.03927L20.8903 9.96833C20.6462 10.1254 20.4183 10.1356 20.2026 10.019ZM30.5379 9.29434C30.8187 9.39569 31.0221 9.59839 31.1483 9.90751C31.3436 10.4041 31.2703 11.1339 30.9001 12.1778C30.8919 12.1981 30.8838 12.2183 30.8757 12.2335L29.5614 14.9295C29.0527 15.9734 28.536 17.0224 27.8402 17.8281C27.1159 18.6744 26.2248 19.2369 25.0041 19.2318C23.8647 19.2268 23.0062 18.6845 22.3022 17.8839C21.6268 17.1136 21.1141 16.1305 20.6258 15.1626L19.4743 12.8771C19.047 12.0815 18.8232 11.3467 18.807 10.7437C18.7988 10.4497 18.8395 10.1862 18.929 9.95312C19.0226 9.70481 19.161 9.49704 19.3522 9.33995C19.4458 9.25887 19.5516 9.19299 19.6696 9.14231C19.6004 7.92103 19.576 6.41089 19.6208 5.13894C19.6452 4.82981 19.694 4.52069 19.7632 4.21157C20.0562 2.89907 20.7967 1.84502 21.7122 1.12035C22.0337 0.866976 22.3877 0.654138 22.762 0.486908C24.9756 -0.511403 27.9134 0.0358949 29.4841 2.15414C30.1229 3.01562 30.5257 4.16089 30.6112 5.67103L30.5379 9.29434ZM34.5378 21.7707L35.555 21.7352L36.3973 21.7099C35.4126 17.9345 35.7422 14.4633 38.1144 11.5139C38.5173 13.1356 39.4165 14.4683 40.9505 15.4565C41.6829 16.1356 42.395 16.9565 43.0786 17.894C43.2007 17.2707 42.7368 16.5106 42.1712 15.7302C42.6921 16.0494 43.1722 16.5004 43.5099 17.3619C43.9046 18.3653 43.8965 19.2065 43.7703 20.296C43.7093 20.8028 43.6117 21.2741 43.4692 21.7048H44.873C46.3542 17.7572 45.4142 11.9041 42.3869 9.42103C41.4591 8.66089 40.7918 8.68623 39.7013 8.6913C38.4521 8.6913 37.8174 8.74197 36.7472 9.61866C35.1725 10.916 34.2041 13.1609 33.7972 16.2774C33.7199 17.8332 33.667 20.519 34.5378 21.7707Z" fill="#00723F"/>
</g>
<defs>
<clipPath id="clip0_705_1499">
<rect width="50" height="36" fill="white"/>
</clipPath>
</defs>
</svg>
