<svg width="48" height="52" viewBox="0 0 48 52" fill="none" xmlns="http://www.w3.org/2000/svg">
<g clip-path="url(#clip0_705_1508)">
<path d="M15.1807 34.889C13.9786 33.497 12.7348 32.05 11.7497 29.9218C10.7856 27.8232 10.2513 25.6569 10.268 23.406C10.2889 21.1551 10.8523 18.8365 12.0795 16.4418C12.0878 16.4249 12.0962 16.4122 12.1045 16.3953C13.7115 13.6366 15.9612 11.7919 18.4656 10.7595C20.5651 9.88796 22.8482 9.59178 25.0854 9.7991C27.3143 10.0064 29.4973 10.7172 31.4048 11.8596C33.8298 13.3151 35.8249 15.4729 36.9227 18.1977C37.5154 19.6743 37.9161 21.3201 37.9662 23.1226C38.0163 24.9207 37.7116 26.8585 36.8935 28.9064C35.6413 32.05 32.7154 35.4179 30.7995 38.5107C30.6952 38.4896 30.5867 38.4854 30.4781 38.5023L27.8945 38.8915L31.8305 25.0138C31.9432 24.6203 31.7136 24.2099 31.3255 24.0957C30.9373 23.9857 30.5324 24.2142 30.4197 24.6076L26.3 39.1369L22.3933 39.7251L18.2652 26.4227C18.5616 26.482 18.8746 26.3508 19.0374 26.0716L21.9633 21.024L23.4534 24.4892C23.6162 24.8657 24.0461 25.035 24.4134 24.8742C24.5971 24.7938 24.7306 24.6415 24.8016 24.468L26.1206 21.0917L27.6649 25.2211C27.8068 25.6062 28.2284 25.7966 28.6082 25.6527C28.9881 25.5089 29.1759 25.0815 29.034 24.6965L26.8343 18.8154C26.7717 18.6081 26.6173 18.4304 26.4044 18.3457C26.0287 18.1934 25.603 18.3838 25.4527 18.7646L24.0879 22.2637L22.7272 19.0989C22.6687 18.9592 22.5644 18.8365 22.4266 18.7562C22.0802 18.5488 21.6294 18.6673 21.4291 19.0185L17.8729 25.1534L17.6183 24.3369C17.4972 23.9476 17.0882 23.7276 16.7042 23.8503C16.3202 23.973 16.1031 24.3876 16.2242 24.7769L20.9282 39.9451L18.0983 40.3724C17.4138 38.3204 16.3703 36.2725 15.1807 34.889ZM5.95216 7.82322C5.62242 7.51013 5.44712 7.09126 5.43042 6.66816C5.41372 6.24505 5.55981 5.81349 5.86451 5.47924C6.17338 5.14499 6.5866 4.96729 7.00399 4.95036C7.42138 4.93344 7.84712 5.08153 8.17686 5.39039L10.7981 7.86553C11.1278 8.17863 11.3031 8.5975 11.3198 9.0206C11.3365 9.44793 11.1904 9.87526 10.8857 10.2095C10.5769 10.5438 10.1637 10.7215 9.74626 10.7384C9.32469 10.7553 8.90313 10.6072 8.57339 10.2984L5.95216 7.82322ZM1.66554 26.0885C1.2231 26.097 0.818232 25.9235 0.51771 25.64C0.213013 25.3481 0.0168385 24.9419 0.000142794 24.4807C-0.0165529 24.0238 0.154578 23.6007 0.442579 23.2918C0.73058 22.9829 1.13128 22.7841 1.58623 22.7714L5.16329 22.6487C5.61407 22.6318 6.03147 22.8052 6.33616 23.0972C6.64086 23.3891 6.83703 23.7953 6.84955 24.2565V24.2819H6.85373L6.84955 24.3411C6.84121 24.7684 6.67425 25.1534 6.40712 25.4454C6.11912 25.7542 5.71842 25.9489 5.26346 25.9658H5.23842V25.97H5.20085L1.66554 26.0885ZM46.2097 20.9478L46.2639 20.9436C46.6897 20.9182 47.0862 21.0578 47.3951 21.3117C47.7206 21.5782 47.9419 21.976 47.9919 22.4287V22.4456C47.9961 22.4456 47.9961 22.4921 47.9961 22.5006C48.0212 22.9322 47.8834 23.3341 47.633 23.6472C47.37 23.9772 46.9777 24.2015 46.5311 24.2522L42.9707 24.633C42.5199 24.6796 42.0942 24.5357 41.7728 24.2692C41.4472 24.0026 41.2218 23.6049 41.1759 23.1522C41.13 22.6995 41.2719 22.2637 41.5349 21.9379C41.7978 21.6079 42.1902 21.3794 42.6368 21.3328C43.8264 21.2017 45.0201 21.0621 46.2097 20.9478ZM39.1557 6.50315C39.4103 6.12235 39.786 5.88542 40.195 5.8008C40.6041 5.72041 41.0424 5.79657 41.4222 6.05043L41.4264 6.05466C41.802 6.30852 42.0399 6.69354 42.1192 7.10818C42.1985 7.52282 42.1234 7.96708 41.873 8.3521L39.882 11.3688C39.6316 11.7496 39.2517 11.9908 38.8385 12.0754C38.4295 12.1558 37.9912 12.0796 37.6114 11.8258C37.2357 11.5719 36.9978 11.1826 36.9143 10.768C36.835 10.3534 36.9102 9.90911 37.1606 9.52409L39.1557 6.50315ZM23.6955 1.62056C23.708 1.15938 23.9 0.74897 24.2047 0.45703C24.5011 0.169321 24.9101 -0.00415039 25.3526 8.06213e-05V-0.00415039C25.3901 -0.00415039 25.4277 8.06213e-05 25.4653 0.00431163C25.8785 0.0381597 26.25 0.228555 26.5171 0.512033C26.8009 0.812435 26.9721 1.22284 26.9679 1.67556H26.9721C26.9721 1.70518 26.9721 1.7348 26.9679 1.76018L26.8802 5.30154H26.8844C26.8844 5.33962 26.8802 5.3777 26.8761 5.41578C26.8427 5.83888 26.6548 6.21121 26.3752 6.48199C26.0747 6.7697 25.6698 6.94317 25.2273 6.93894V6.94317C25.1898 6.94317 25.1522 6.93894 25.1147 6.93471C24.6973 6.90086 24.33 6.71047 24.0628 6.42699C23.779 6.12235 23.6079 5.71195 23.612 5.26346H23.6079C23.6079 5.23384 23.6079 5.20423 23.612 5.17884L23.6955 1.62056ZM29.8103 40.5501L29.5474 41.7982L29.4806 42.6868L18.908 44.2819C18.8705 43.643 18.7703 42.9533 18.6117 42.2383L29.8103 40.5501ZM29.4597 44.633L29.4681 45.1704L29.4806 45.3565C29.5098 45.7077 29.514 46.0631 29.4931 46.4143L29.3345 47.1886L19.5132 48.6694L19.3421 48.2717L18.9581 46.6808L18.9498 46.2197L29.4597 44.633ZM28.6875 49.2279C28.1783 50.1122 27.4771 50.8018 26.6757 51.2715C25.962 51.6946 25.1647 51.9358 24.3675 51.9865C23.5578 52.0373 22.7397 51.8807 21.9926 51.5169C21.4833 51.263 21.0075 50.9118 20.5859 50.4549L28.6875 49.2279Z" fill="#00723F"/>
</g>
<defs>
<clipPath id="clip0_705_1508">
<rect width="48" height="52" fill="white"/>
</clipPath>
</defs>
</svg>
