<svg width="49" height="50" viewBox="0 0 49 50" fill="none" xmlns="http://www.w3.org/2000/svg">
<g clip-path="url(#clip0_705_1516)">
<path fill-rule="evenodd" clip-rule="evenodd" d="M19.3339 19.3237L43.5059 23.7386L25.8008 11.4502C25.3597 11.7106 24.8498 11.8815 24.3278 11.9303C23.7733 11.9832 23.1987 11.9059 22.6726 11.6699L4.70446 21.8384V47.8353L0.79113 47.1639C0.645442 47.1395 0.524036 47.0418 0.524036 46.8953V22.5627C0.422864 22.0988 0.633301 21.6024 1.07036 21.3623L21.0903 10.022C20.8151 9.38314 20.6775 8.57341 20.7422 7.56836L22.5795 7.68229C22.531 8.43099 22.6281 8.97624 22.8142 9.35872C23.1258 9.41976 23.4091 9.611 23.571 9.91211C23.5953 9.96094 23.6196 10.0098 23.6357 10.0586C23.7814 10.0952 23.9352 10.1074 24.085 10.0993C23.9109 9.75342 23.9271 9.3221 24.1618 8.98031C24.3804 8.65885 24.7405 8.49202 25.1048 8.50423C25.04 8.42692 24.9672 8.36588 24.8984 8.30485C24.4168 7.8776 23.9514 7.46256 23.83 6.09538L23.826 6.09131L23.8138 5.96924C22.9316 5.61523 22.3043 4.74447 22.3043 3.73128C22.3043 2.73438 22.9073 1.87581 23.7693 1.5096V0H25.6106V1.50553C26.4807 1.86768 27.0958 2.72624 27.0958 3.73535C27.0958 4.72412 26.505 5.57454 25.6551 5.94482C25.7158 6.57145 25.9101 6.74642 26.1124 6.92546C26.4767 7.25098 26.853 7.58463 27.1039 8.43099C27.2375 8.88672 27.2456 9.3221 27.1525 9.7168L48.0222 24.1984C48.2367 24.349 48.3824 24.5605 48.4512 24.7965C48.4836 24.8494 48.4998 24.9105 48.4998 24.9756V44.1528C48.4998 44.3685 48.3176 44.5068 48.1072 44.5475L19.3299 49.8372C19.1194 49.8779 18.9373 49.6582 18.9373 49.4425V19.7184C18.9414 19.5028 19.1194 19.2871 19.3339 19.3237ZM6.22608 21.049L10.6898 20.3003V48.8607L6.22608 48.0957V21.049ZM12.2114 20.0439L17.3307 19.1854C17.4764 19.161 17.5978 19.3075 17.5978 19.4539V49.7233C17.5978 49.8698 17.4764 50.0163 17.3307 49.9919L12.2114 49.117V20.1457V20.0439ZM47.1157 26.3306V42.8385H46.6099V26.3306H47.1157ZM23.0247 23.0428V46.6187H21.503V22.5708L23.0247 23.0428ZM27.1808 23.4334V45.9961H25.7887V23.2503L27.1808 23.4334ZM30.9039 24.0397V45.3695H29.6373V23.8037L30.9039 24.0397ZM34.2224 24.5605V44.9097H33.0812V24.292L34.2224 24.5605ZM37.2818 25.0529V44.34H36.2701V24.8413L37.2818 25.0529ZM40.1065 25.411V43.9046H39.2203V25.2075L40.1065 25.411ZM42.6358 25.8748V43.5099H41.875V25.6348L42.6358 25.8748ZM44.9911 26.2736V43.1396H44.3558V25.9806L44.9911 26.2736Z" fill="#00723F"/>
</g>
<defs>
<clipPath id="clip0_705_1516">
<rect width="48" height="50" fill="white" transform="translate(0.5)"/>
</clipPath>
</defs>
</svg>
