<svg width="48" height="50" viewBox="0 0 48 50" fill="none" xmlns="http://www.w3.org/2000/svg">
<path fill-rule="evenodd" clip-rule="evenodd" d="M0 40.6413H6.18823V16.0197L0.123765 16.9434L0 9.14307L6.18823 8.17057V1.17188C6.18823 0.524902 6.72041 0 7.37636 0H18.7173C19.3733 0 19.9055 0.524902 19.9055 1.17188V6.01807L42.2285 2.51465L43.4908 10.319L40.8959 10.7137V12.8215L45.5742 17.8752C45.6526 17.9565 45.7104 18.0501 45.7599 18.1437H47.2079C47.3441 18.1437 47.4554 18.2536 47.4554 18.3879V23.9217C47.4554 24.056 47.3441 24.1659 47.2079 24.1659H31.2959C31.1598 24.1659 31.0484 24.056 31.0484 23.9217V18.3919C31.0484 18.2577 31.1598 18.1478 31.2959 18.1478H32.7935C32.8471 18.0583 32.9172 17.9728 32.9997 17.8955L38.6228 12.7523V11.0636L19.9137 13.9201V40.6413H26.2381V49.8942H0V40.6413ZM8.56863 7.79622L12.6611 7.15332L8.56863 3.97542V7.79622ZM15.7222 6.67725L17.5292 6.39242V2.34782H10.1487L15.7222 6.67725ZM17.5292 14.2863L15.4664 14.5996L17.5292 16.2028V14.2863ZM12.3888 15.0716L8.5645 15.6535V17.1956H15.124L12.3888 15.0716ZM36.0237 18.1478H42.7771L39.6789 14.8031L36.0237 18.1478ZM11.2708 35.6445L17.5292 40.5029V35.6445H11.2708ZM14.0266 40.6413L8.56863 36.4054V40.6453H14.0266V40.6413ZM11.2708 27.5472L17.5292 32.4056V27.5472H11.2708ZM8.56863 33.3984H15.1281L8.56863 28.3081V33.3984ZM11.2667 19.4417L17.5292 24.3042V19.4417H11.2667ZM8.56863 25.297H15.1281L8.56863 20.2067V25.297ZM30.541 28.1413C30.541 27.8605 30.7761 27.6327 31.0566 27.6327H47.4719C47.7566 27.6327 47.9876 27.8646 47.9876 28.1413C47.9876 40.21 47.9835 37.9313 48 50H30.5079L30.541 28.1413ZM40.3761 40.743H43.7343C43.8374 40.743 43.9199 40.8285 43.9199 40.9261V44.9382C43.9199 45.0399 43.8333 45.1213 43.7343 45.1213H40.3761C40.273 45.1213 40.1905 45.0358 40.1905 44.9382V40.9261C40.1905 40.8244 40.2771 40.743 40.3761 40.743ZM34.6871 40.743H38.0452C38.1483 40.743 38.2309 40.8285 38.2309 40.9261V44.9382C38.2309 45.0399 38.1442 45.1213 38.0452 45.1213H34.6871C34.5839 45.1213 34.5014 45.0358 34.5014 44.9382V40.9261C34.5014 40.8244 34.5881 40.743 34.6871 40.743ZM40.3761 33.3415H43.7343C43.8374 33.3415 43.9199 33.4269 43.9199 33.5246V37.5366C43.9199 37.6383 43.8333 37.7197 43.7343 37.7197H40.3761C40.273 37.7197 40.1905 37.6343 40.1905 37.5366V33.5246C40.1905 33.4269 40.2771 33.3415 40.3761 33.3415ZM34.6871 33.3415H38.0452C38.1483 33.3415 38.2309 33.4269 38.2309 33.5246V37.5366C38.2309 37.6383 38.1442 37.7197 38.0452 37.7197H34.6871C34.5839 37.7197 34.5014 37.6343 34.5014 37.5366V33.5246C34.5014 33.4269 34.5881 33.3415 34.6871 33.3415ZM33.3215 30.009H45.1493C45.3514 30.009 45.5206 30.2083 45.5206 30.4484V46.7163C45.5206 46.9564 45.3514 47.1558 45.1493 47.1558H33.3215C33.1194 47.1558 32.9502 46.9564 32.9502 46.7163V30.4484C32.9502 30.2083 33.1194 30.009 33.3215 30.009Z" fill="#00723F"/>
</svg>
