<svg width="48" height="52" viewBox="0 0 48 52" fill="none" xmlns="http://www.w3.org/2000/svg">
<g clip-path="url(#clip0_705_1533)">
<path d="M10.7419 40.7435V41.8861C10.7419 41.9919 10.8314 42.0807 10.9379 42.0807H14.2274C14.334 42.0807 14.4234 41.9919 14.4234 41.8861V38.5895C14.4234 38.4837 14.334 38.3949 14.2274 38.3949H10.9379C10.8314 38.3949 10.7419 38.4837 10.7419 38.5895V40.7435ZM5.39015 46.3294V12.7757H3.63036C3.42583 12.7757 3.25965 12.6107 3.25965 12.4076V0.943685C3.25965 0.685547 3.36618 0.448568 3.54088 0.279297C3.71132 0.105794 3.94993 0 4.20985 0C9.02477 0 16.5795 0.00846354 24.1172 0.0169271C30.2487 0.0253906 36.3419 0.0296224 43.7901 0.0296224C44.0501 0.0296224 44.2887 0.135417 44.4591 0.304688C44.6296 0.47819 44.7361 0.710938 44.7361 0.969076V12.4033C44.7361 12.6064 44.5699 12.7715 44.3654 12.7715H42.6099V46.3294H48.0043V52H0V46.3294H5.39015ZM6.53635 46.3294H41.4594L41.4636 12.8138L6.53635 12.7926V46.3294ZM33.6447 18.387H36.9342C37.0407 18.387 37.1302 18.4759 37.1302 18.5817V21.8783C37.1302 21.9841 37.0407 22.0729 36.9342 22.0729H33.6447C33.5382 22.0729 33.4487 21.9841 33.4487 21.8783V18.5817C33.4487 18.4717 33.5382 18.387 33.6447 18.387ZM27.8967 18.387H31.1862C31.2927 18.387 31.3822 18.4759 31.3822 18.5817V21.8783C31.3822 21.9841 31.2927 22.0729 31.1862 22.0729H27.8967C27.7901 22.0729 27.7007 21.9841 27.7007 21.8783V18.5817C27.7007 18.4717 27.7901 18.387 27.8967 18.387ZM33.6447 38.3949H36.9342C37.0407 38.3949 37.1302 38.4837 37.1302 38.5895V41.8861C37.1302 41.9919 37.0407 42.0807 36.9342 42.0807H33.6447C33.5382 42.0807 33.4487 41.9919 33.4487 41.8861V38.5895C33.4487 38.4837 33.5382 38.3949 33.6447 38.3949ZM27.8967 38.3949H31.1862C31.2927 38.3949 31.3822 38.4837 31.3822 38.5895V41.8861C31.3822 41.9919 31.2927 42.0807 31.1862 42.0807H27.8967C27.7901 42.0807 27.7007 41.9919 27.7007 41.8861V38.5895C27.7007 38.4837 27.7901 38.3949 27.8967 38.3949ZM33.6447 31.7256H36.9342C37.0407 31.7256 37.1302 31.8145 37.1302 31.9202V35.2168C37.1302 35.3226 37.0407 35.4115 36.9342 35.4115H33.6447C33.5382 35.4115 33.4487 35.3226 33.4487 35.2168V31.9202C33.4487 31.8145 33.5382 31.7256 33.6447 31.7256ZM27.8967 31.7256H31.1862C31.2927 31.7256 31.3822 31.8145 31.3822 31.9202V35.2168C31.3822 35.3226 31.2927 35.4115 31.1862 35.4115H27.8967C27.7901 35.4115 27.7007 35.3226 27.7007 35.2168V31.9202C27.7007 31.8145 27.7901 31.7256 27.8967 31.7256ZM33.6447 25.0563H36.9342C37.0407 25.0563 37.1302 25.1452 37.1302 25.251V28.5475C37.1302 28.6533 37.0407 28.7422 36.9342 28.7422H33.6447C33.5382 28.7422 33.4487 28.6533 33.4487 28.5475V25.251C33.4487 25.1452 33.5382 25.0563 33.6447 25.0563ZM27.8967 25.0563H31.1862C31.2927 25.0563 31.3822 25.1452 31.3822 25.251V28.5475C31.3822 28.6533 31.2927 28.7422 31.1862 28.7422H27.8967C27.7901 28.7422 27.7007 28.6533 27.7007 28.5475V25.251C27.7007 25.1452 27.7901 25.0563 27.8967 25.0563ZM16.8181 18.387H20.1076C20.2141 18.387 20.3036 18.4759 20.3036 18.5817V21.8783C20.3036 21.9841 20.2141 22.0729 20.1076 22.0729H16.8181C16.7116 22.0729 16.6221 21.9841 16.6221 21.8783V18.5817C16.6221 18.4717 16.7116 18.387 16.8181 18.387ZM11.07 18.387H14.3595C14.466 18.387 14.5555 18.4759 14.5555 18.5817V21.8783C14.5555 21.9841 14.466 22.0729 14.3595 22.0729H11.07C10.9635 22.0729 10.874 21.9841 10.874 21.8783V18.5817C10.874 18.4717 10.9593 18.387 11.07 18.387ZM16.686 38.3949H19.9755C20.082 38.3949 20.1715 38.4837 20.1715 38.5895V41.8861C20.1715 41.9919 20.082 42.0807 19.9755 42.0807H16.686C16.5795 42.0807 16.49 41.9919 16.49 41.8861V38.5895C16.49 38.4837 16.5795 38.3949 16.686 38.3949ZM16.686 31.7256H19.9755C20.082 31.7256 20.1715 31.8145 20.1715 31.9202V35.2168C20.1715 35.3226 20.082 35.4115 19.9755 35.4115H16.686C16.5795 35.4115 16.49 35.3226 16.49 35.2168V31.9202C16.49 31.8145 16.5795 31.7256 16.686 31.7256ZM10.9337 31.7256H14.2232C14.3297 31.7256 14.4192 31.8145 14.4192 31.9202V35.2168C14.4192 35.3226 14.3297 35.4115 14.2232 35.4115H10.9337C10.8272 35.4115 10.7377 35.3226 10.7377 35.2168V31.9202C10.7419 31.8145 10.8272 31.7256 10.9337 31.7256ZM16.686 25.0563H19.9755C20.082 25.0563 20.1715 25.1452 20.1715 25.251V28.5475C20.1715 28.6533 20.082 28.7422 19.9755 28.7422H16.686C16.5795 28.7422 16.49 28.6533 16.49 28.5475V25.251C16.49 25.1452 16.5795 25.0563 16.686 25.0563ZM10.9337 25.0563H14.2232C14.3297 25.0563 14.4192 25.1452 14.4192 25.251V28.5475C14.4192 28.6533 14.3297 28.7422 14.2232 28.7422H10.9337C10.8272 28.7422 10.7377 28.6533 10.7377 28.5475V25.251C10.7419 25.1452 10.8272 25.0563 10.9337 25.0563ZM8.48362 3.33887H10.3244V5.46745H12.3398V3.33887H14.1891V9.43685H12.3398V6.96549H10.3244V9.43685H8.48362V3.33887ZM15.3353 6.38997C15.3353 5.39551 15.608 4.62109 16.1491 4.06673C16.6903 3.51237 17.4487 3.23307 18.416 3.23307C19.4088 3.23307 20.1758 3.50391 20.7127 4.0498C21.2495 4.5957 21.518 5.35742 21.518 6.33919C21.518 7.05013 21.4029 7.63412 21.1686 8.09115C20.9342 8.54818 20.5933 8.90365 20.1502 9.15755C19.7071 9.41146 19.1531 9.53841 18.4927 9.53841C17.8194 9.53841 17.2655 9.42839 16.8224 9.20833C16.3835 8.98828 16.0256 8.64128 15.7486 8.16732C15.4759 7.69759 15.3353 7.10514 15.3353 6.38997ZM17.1803 6.39421C17.1803 7.00781 17.2911 7.45215 17.5169 7.71875C17.7427 7.98535 18.0453 8.12077 18.433 8.12077C18.8293 8.12077 19.1361 7.98958 19.3534 7.72721C19.5707 7.46484 19.6815 6.99089 19.6815 6.30957C19.6815 5.73405 19.5664 5.3151 19.3406 5.05273C19.1148 4.78613 18.808 4.65495 18.416 4.65495C18.0453 4.65495 17.7427 4.79036 17.5169 5.05697C17.2911 5.3278 17.1803 5.77637 17.1803 6.39421ZM22.0336 3.33887H27.641V4.84538H25.7577V9.43685H23.9169V4.84538H22.0336V3.33887ZM28.621 3.33887H33.5553V4.64225H30.4746V5.61556H33.3337V6.8597H30.4746V8.06152H33.649V9.44108H28.621V3.33887ZM34.7909 3.33887H36.6317V7.9388H39.5164V9.43685H34.7909V3.33887ZM4.40586 1.34993V11.6331H43.5899V1.37956C43.5899 1.32031 43.5686 1.26953 43.5302 1.23145C43.4919 1.19336 43.4407 1.1722 43.3811 1.1722C38.7153 1.1722 31.6165 1.16374 24.1172 1.15527C17.9387 1.14681 12.1438 1.14258 4.61891 1.14258C4.55925 1.14258 4.50812 1.16797 4.46977 1.20605C4.43142 1.23991 4.40586 1.29069 4.40586 1.34993ZM25.681 14.8112H39.1457C39.3758 14.8112 39.5803 14.917 39.7252 15.0905C39.853 15.2428 39.934 15.4502 39.934 15.6745V44.3659C39.934 44.5902 39.853 44.7975 39.7252 44.9499C39.7166 44.9583 39.7081 44.971 39.6996 44.9795C39.559 45.1318 39.363 45.2292 39.1499 45.2292H25.6852C25.4551 45.2292 25.2549 45.1234 25.11 44.9499C24.9779 44.7975 24.8969 44.5902 24.8969 44.3659V15.6745C24.8969 15.4502 24.9779 15.2428 25.1057 15.0905C25.2463 14.917 25.4509 14.8112 25.681 14.8112ZM38.7366 15.9495H26.09C26.09 15.9495 26.0858 15.9538 26.0772 15.9622C26.0559 15.9876 26.0431 16.0299 26.0431 16.0765V43.9554C26.0431 44.002 26.0559 44.0443 26.0772 44.0697C26.0858 44.0781 26.09 44.0824 26.09 44.0824H38.7366C38.7366 44.0824 38.7366 44.0824 38.7409 44.0824L39.1585 44.0697C39.1798 44.0443 38.7835 44.002 38.7835 43.9554V16.0765C38.7835 16.0299 39.1798 15.9876 39.1585 15.9622C39.1499 15.9538 38.7366 15.9495 38.7366 15.9495ZM8.79041 14.7816H22.2509C22.481 14.7816 22.6855 14.8874 22.8304 15.0566C22.9582 15.209 23.0391 15.4163 23.0391 15.6406V44.3617C23.0391 44.5859 22.9582 44.7933 22.8304 44.9456C22.6855 45.1149 22.481 45.2207 22.2509 45.2207H8.79041C8.56458 45.2207 8.36005 45.1149 8.21518 44.9414C8.08309 44.7891 8.00213 44.5817 8.00213 44.3574V15.6406C8.00213 15.4163 8.08309 15.209 8.21518 15.0566C8.36005 14.8874 8.56458 14.7816 8.79041 14.7816ZM21.8461 15.9199H9.19947C9.19947 15.9199 9.19094 15.9242 9.18668 15.9326C9.16538 15.958 9.1526 15.9961 9.1526 16.0469V43.9554C9.1526 44.002 9.16538 44.0443 9.18668 44.0697C9.19521 44.0781 9.19947 44.0824 9.19947 44.0824H21.8418C21.8418 44.0824 21.8461 44.0781 21.8546 44.0697C21.8759 44.0443 21.8887 44.002 21.8887 43.9554V16.0469C21.8887 16.0003 21.8759 15.958 21.8546 15.9326C21.8503 15.9242 21.8461 15.9199 21.8461 15.9199Z" fill="#00723F"/>
</g>
<defs>
<clipPath id="clip0_705_1533">
<rect width="48" height="52" fill="white"/>
</clipPath>
</defs>
</svg>
