<svg width="56" height="69" viewBox="0 0 56 69" fill="none" xmlns="http://www.w3.org/2000/svg">
<g clip-path="url(#clip0_705_1541)">
<path d="M44.9723 13.4965C45.308 13.8322 45.7477 14 46.1875 14C46.6273 14 47.067 13.8322 47.4027 13.4965C48.0741 12.8251 48.0741 11.7374 47.4027 11.066L46.8992 10.5625H51.3438C52.2938 10.5625 53.0625 9.79292 53.0625 8.84375C53.0625 7.89458 52.2938 7.125 51.3438 7.125H46.8992L47.4027 6.62146C48.0741 5.95007 48.0741 4.86243 47.4027 4.19104C46.7313 3.51965 45.6437 3.51965 44.9723 4.19104L41.5348 7.62854C40.8634 8.29993 40.8634 9.38757 41.5348 10.059L44.9723 13.4965Z" fill="#00723F"/>
<path d="M49.1215 16.2223C48.4501 15.5509 47.3624 15.5509 46.691 16.2223C46.0197 16.8937 46.0197 17.9813 46.691 18.6527L47.1946 19.1562H42.75C41.8 19.1562 41.0312 19.9258 41.0312 20.875C41.0312 21.8242 41.8 22.5938 42.75 22.5938H47.1946L46.691 23.0973C46.0197 23.7687 46.0197 24.8563 46.691 25.5277C47.0267 25.8634 47.4665 26.0312 47.9062 26.0312C48.346 26.0312 48.7858 25.8634 49.1215 25.5277L52.559 22.0902C53.2303 21.4188 53.2303 20.3312 52.559 19.6598L49.1215 16.2223Z" fill="#00723F"/>
<path d="M11.7585 46.6562H49.4203L52.6866 42.5734C53.0995 42.0581 53.1784 41.3506 52.893 40.7556C52.606 40.1597 52.0051 39.7812 51.3438 39.7812H22.6454L17.9222 36.6324C17.6402 36.4445 17.3079 36.3438 16.9688 36.3438H6.65631C5.98492 36.3438 5.37564 36.7348 5.09449 37.3441C4.81419 37.9542 4.9149 38.6718 5.3513 39.1812L11.7585 46.6562Z" fill="#00723F"/>
<path d="M13.2314 48.375L15.6635 51.2124C15.99 51.5935 16.4667 51.8125 16.9686 51.8125H44.4686C44.9906 51.8125 45.484 51.575 45.8113 51.1671L48.0451 48.375H13.2314Z" fill="#00723F"/>
<path d="M51.3438 29.4688H42.75V38.0625H51.3438V29.4688Z" fill="#00723F"/>
<path d="M41.0312 29.4688H32.4375V38.0625H41.0312V29.4688Z" fill="#00723F"/>
<path d="M30.7188 29.4688H22.125V38.0625H30.7188V29.4688Z" fill="#00723F"/>
<path d="M13.5312 17.4375C8.78507 17.4375 4.9375 21.2851 4.9375 26.0312C4.9375 30.7774 8.78507 34.625 13.5312 34.625C18.2774 34.625 22.125 30.7774 22.125 26.0312C22.125 21.2851 18.2774 17.4375 13.5312 17.4375ZM13.5312 25.1719C15.4262 25.1719 16.9688 26.7135 16.9688 28.6094C16.9688 30.2066 15.8687 31.5405 14.3906 31.9248V32.0469C14.3906 32.5219 14.0063 32.9062 13.5312 32.9062C13.0562 32.9062 12.6719 32.5219 12.6719 32.0469V31.9248C11.1938 31.5405 10.0938 30.2066 10.0938 28.6094C10.0938 28.1344 10.4781 27.75 10.9531 27.75C11.4281 27.75 11.8125 28.1344 11.8125 28.6094C11.8125 29.5569 12.5829 30.3281 13.5312 30.3281C14.4796 30.3281 15.25 29.5569 15.25 28.6094C15.25 27.6619 14.4796 26.8906 13.5312 26.8906C11.6363 26.8906 10.0938 25.349 10.0938 23.4531C10.0938 21.8559 11.1938 20.522 12.6719 20.1377V20.0156C12.6719 19.5406 13.0562 19.1562 13.5312 19.1562C14.0063 19.1562 14.3906 19.5406 14.3906 20.0156V20.1377C15.8687 20.522 16.9688 21.8559 16.9688 23.4531C16.9688 23.9281 16.5844 24.3125 16.1094 24.3125C15.6344 24.3125 15.25 23.9281 15.25 23.4531C15.25 22.5056 14.4796 21.7344 13.5312 21.7344C12.5829 21.7344 11.8125 22.5056 11.8125 23.4531C11.8125 24.4006 12.5829 25.1719 13.5312 25.1719Z" fill="#00723F"/>
<path d="M18.6875 13.9998C18.6875 15.0057 20.6481 16.2769 24.0016 16.9553C23.8997 15.9802 23.8438 14.9856 23.8438 13.9998C23.8438 13.0139 23.8997 12.0193 24.0016 11.0442C20.6481 11.7226 18.6875 12.9938 18.6875 13.9998Z" fill="#00723F"/>
<path d="M29.0005 8.84375C29.9864 8.84375 30.981 8.89966 31.9561 9.00163C31.2776 5.64805 30.0064 3.6875 29.0005 3.6875C27.9946 3.6875 26.7233 5.64805 26.0449 9.00163C27.02 8.89966 28.0146 8.84375 29.0005 8.84375Z" fill="#00723F"/>
<path d="M32.2326 10.7673C31.2338 10.6479 30.1746 10.5625 29 10.5625C27.8255 10.5625 26.7663 10.648 25.7674 10.7674C25.648 11.7663 25.5625 12.8255 25.5625 14C25.5625 15.1745 25.648 16.2337 25.7674 17.2326C26.7663 17.352 27.8255 17.4375 29 17.4375C30.1746 17.4375 31.2338 17.3521 32.2326 17.2327C32.352 16.2338 32.4375 15.1746 32.4375 14C32.4375 12.8254 32.352 11.7662 32.2326 10.7673Z" fill="#00723F"/>
<path d="M29.0005 19.1564C28.0146 19.1564 27.02 19.1005 26.0449 18.9985C26.7233 22.3521 27.9946 24.3127 29.0005 24.3127C30.0064 24.3127 31.2776 22.3521 31.9561 18.9985C30.981 19.1005 29.9864 19.1564 29.0005 19.1564Z" fill="#00723F"/>
<path d="M24.2522 9.252C24.6016 7.26239 25.1721 5.45982 25.9568 4.14526C22.7094 5.1472 20.1474 7.70917 19.1455 10.9566C20.4601 10.1719 22.2626 9.60133 24.2522 9.252Z" fill="#00723F"/>
<path d="M24.2522 18.748C22.2626 18.3987 20.4601 17.8281 19.1455 17.0435C20.1474 20.2909 22.7094 22.8528 25.9568 23.8548C25.1721 22.5402 24.6016 20.7377 24.2522 18.748Z" fill="#00723F"/>
<path d="M33.748 18.748C33.3985 20.7378 32.8277 22.5404 32.043 23.8549C35.2906 22.8533 37.8529 20.2911 38.8548 17.0435C37.5403 17.8281 35.7376 18.3987 33.748 18.748Z" fill="#00723F"/>
<path d="M39.3123 13.9999C39.3123 12.9938 37.3519 11.7225 33.998 11.0442C34.1 12.0193 34.156 13.014 34.156 13.9999C34.156 14.9858 34.1 15.9805 33.998 16.9555C37.3519 16.2772 39.3123 15.0059 39.3123 13.9999Z" fill="#00723F"/>
<path d="M33.748 9.25162C35.7376 9.60095 37.5403 10.1715 38.8548 10.9562C37.8529 7.70858 35.2906 5.1464 32.043 4.14478C32.8277 5.45922 33.3985 7.2619 33.748 9.25162Z" fill="#00723F"/>
</g>
<defs>
<clipPath id="clip0_705_1541">
<rect width="55" height="68.75" fill="white" transform="translate(0.5 0.25)"/>
</clipPath>
</defs>
</svg>
