<svg width="48" height="48" viewBox="0 0 48 48" fill="none" xmlns="http://www.w3.org/2000/svg">
<path fill-rule="evenodd" clip-rule="evenodd" d="M8.87233 4.92188H45.4516C47.8432 4.92188 47.7138 5.88672 47.506 8.34766L46.1455 25.625C45.9142 28.3789 46.1103 27.7109 43.1816 28.1289L16.2784 31.5391L17.7015 35.6523C29.3732 35.6523 35.0149 35.6523 46.6788 35.6523C47.0708 37.1133 47.604 39.4922 47.9961 41.1211H43.1816L42.7189 39.457C32.9958 39.457 29.2909 39.457 19.5638 39.457C14.2514 39.3672 14.7846 40.8008 13.5104 36.2266L4.38324 3.16797H0V0H7.68831C8.04509 1.33203 8.53908 3.57422 8.87233 4.92188ZM21.0497 40.5938C23.1002 40.5938 24.7665 42.2539 24.7665 44.2969C24.7665 46.3438 23.1041 48 21.0497 48C18.9953 48 17.333 46.3438 17.333 44.2969C17.333 42.2539 18.9953 40.5938 21.0497 40.5938ZM36.3793 40.5938C38.4298 40.5938 40.0961 42.2539 40.0961 44.2969C40.0961 46.3438 38.4298 48 36.3793 48C34.3249 48 32.6626 46.3438 32.6626 44.2969C32.6626 42.2539 34.3249 40.5938 36.3793 40.5938ZM12.0755 16.8242H17.9956L15.8471 7.875C13.73 7.875 11.6442 7.87109 9.60157 7.87109L10.323 10.5508L10.3465 10.5469L12.0755 16.8242ZM18.9405 7.87891L21.0889 16.8242H26.7895L24.6332 7.88672L18.9405 7.87891ZM27.7344 7.89063L29.8907 16.8242H35.3443L33.1958 7.89844L27.7344 7.89063ZM36.297 7.90234L38.4455 16.8281H43.903L44.5067 9.65625C44.6753 7.65625 45.0282 7.91016 43.0836 7.91016C40.8645 7.90625 38.5945 7.90234 36.297 7.90234ZM43.7109 19.0977H38.9904L40.5469 25.5664L40.9311 25.5156C43.311 25.1758 43.1541 25.7188 43.3423 23.4805L43.7109 19.0977ZM37.5477 25.9766L35.8932 19.0977H30.4435L32.2744 26.6914L37.5477 25.9766ZM29.2713 27.0977L27.3384 19.0938H21.6339L23.7393 27.8477L29.2713 27.0977ZM20.74 28.2578L18.5406 19.0977H12.7028L15.4315 28.9805L20.74 28.2578Z" fill="#00723F"/>
</svg>
