<svg width="141" height="158" viewBox="0 0 141 158" fill="none" xmlns="http://www.w3.org/2000/svg">
<rect x="23.5" width="94" height="94" rx="16" fill="#E5EAE8"/>
<path d="M27.0371 109.373L24.0635 118H22.2656L26.0117 108.047H27.1602L27.0371 109.373ZM29.5254 118L26.5449 109.373L26.415 108.047H27.5703L31.3301 118H29.5254ZM29.3818 114.309V115.669H23.9678V114.309H29.3818ZM39.9775 112.914V116.715C39.8363 116.902 39.6152 117.107 39.3145 117.33C39.0182 117.549 38.624 117.738 38.1318 117.897C37.6396 118.057 37.0267 118.137 36.293 118.137C35.6686 118.137 35.0967 118.032 34.5771 117.822C34.0576 117.608 33.6087 117.296 33.2305 116.886C32.8568 116.476 32.5674 115.977 32.3623 115.389C32.1572 114.796 32.0547 114.122 32.0547 113.365V112.675C32.0547 111.923 32.1481 111.253 32.335 110.665C32.5264 110.073 32.7998 109.571 33.1553 109.161C33.5107 108.751 33.9391 108.441 34.4404 108.231C34.9463 108.017 35.5182 107.91 36.1562 107.91C36.972 107.91 37.6465 108.047 38.1797 108.32C38.7174 108.589 39.1322 108.963 39.4238 109.441C39.7155 109.92 39.9001 110.467 39.9775 111.082H38.2959C38.2412 110.736 38.1341 110.426 37.9746 110.152C37.8197 109.879 37.5964 109.665 37.3047 109.51C37.0176 109.35 36.6439 109.271 36.1836 109.271C35.7871 109.271 35.4385 109.346 35.1377 109.496C34.8369 109.646 34.5863 109.868 34.3857 110.159C34.1898 110.451 34.0417 110.806 33.9414 111.226C33.8411 111.645 33.791 112.123 33.791 112.661V113.365C33.791 113.912 33.848 114.397 33.9619 114.821C34.0804 115.245 34.249 115.603 34.4678 115.895C34.6911 116.186 34.9622 116.407 35.2812 116.558C35.6003 116.703 35.9603 116.776 36.3613 116.776C36.7533 116.776 37.0745 116.744 37.3252 116.681C37.5758 116.612 37.7741 116.533 37.9199 116.441C38.0703 116.346 38.1865 116.255 38.2686 116.168V114.192H36.1973V112.914H39.9775ZM41.8779 108.047H45.3984C46.1549 108.047 46.7998 108.161 47.333 108.389C47.8662 108.617 48.2741 108.954 48.5566 109.4C48.8438 109.842 48.9873 110.389 48.9873 111.041C48.9873 111.538 48.8962 111.975 48.7139 112.354C48.5316 112.732 48.2741 113.051 47.9414 113.311C47.6087 113.566 47.2122 113.764 46.752 113.905L46.2324 114.158H43.0674L43.0537 112.798H45.4258C45.8359 112.798 46.1777 112.725 46.4512 112.579C46.7246 112.433 46.9297 112.235 47.0664 111.984C47.2077 111.729 47.2783 111.442 47.2783 111.123C47.2783 110.777 47.21 110.476 47.0732 110.221C46.9411 109.961 46.736 109.763 46.458 109.626C46.18 109.485 45.8268 109.414 45.3984 109.414H43.5938V118H41.8779V108.047ZM47.5586 118L45.2207 113.529L47.0186 113.522L49.3906 117.911V118H47.5586ZM52.5283 108.047V118H50.8125V108.047H52.5283ZM60.54 114.76H62.249C62.1943 115.411 62.012 115.993 61.7021 116.503C61.3923 117.009 60.957 117.408 60.3965 117.699C59.8359 117.991 59.1546 118.137 58.3525 118.137C57.7373 118.137 57.1836 118.027 56.6914 117.809C56.1992 117.585 55.7777 117.271 55.4268 116.865C55.0758 116.455 54.807 115.961 54.6201 115.382C54.4378 114.803 54.3467 114.156 54.3467 113.44V112.613C54.3467 111.898 54.4401 111.251 54.627 110.672C54.8184 110.093 55.0918 109.599 55.4473 109.188C55.8027 108.774 56.2288 108.457 56.7256 108.238C57.2269 108.02 57.7897 107.91 58.4141 107.91C59.207 107.91 59.877 108.056 60.4238 108.348C60.9707 108.639 61.3945 109.043 61.6953 109.558C62.0007 110.073 62.1875 110.663 62.2559 111.328H60.5469C60.5013 110.9 60.401 110.533 60.2461 110.228C60.0957 109.922 59.8724 109.69 59.5762 109.53C59.2799 109.366 58.8926 109.284 58.4141 109.284C58.0221 109.284 57.6803 109.357 57.3887 109.503C57.097 109.649 56.8532 109.863 56.6572 110.146C56.4613 110.428 56.3132 110.777 56.2129 111.191C56.1172 111.602 56.0693 112.071 56.0693 112.6V113.44C56.0693 113.942 56.1126 114.397 56.1992 114.808C56.2904 115.213 56.4271 115.562 56.6094 115.854C56.7962 116.145 57.0332 116.371 57.3203 116.53C57.6074 116.69 57.9515 116.77 58.3525 116.77C58.8402 116.77 59.2344 116.692 59.5352 116.537C59.8405 116.382 60.0706 116.157 60.2256 115.86C60.3851 115.56 60.4899 115.193 60.54 114.76ZM69.3926 108.047H71.1016V114.698C71.1016 115.455 70.9375 116.088 70.6094 116.599C70.2812 117.109 69.8346 117.494 69.2695 117.754C68.709 118.009 68.0824 118.137 67.3896 118.137C66.6742 118.137 66.0361 118.009 65.4756 117.754C64.915 117.494 64.473 117.109 64.1494 116.599C63.8304 116.088 63.6709 115.455 63.6709 114.698V108.047H65.3799V114.698C65.3799 115.177 65.4619 115.571 65.626 115.881C65.79 116.186 66.0225 116.412 66.3232 116.558C66.624 116.703 66.9795 116.776 67.3896 116.776C67.7998 116.776 68.153 116.703 68.4492 116.558C68.75 116.412 68.9824 116.186 69.1465 115.881C69.3105 115.571 69.3926 115.177 69.3926 114.698V108.047ZM79.2021 116.64V118H74.2051V116.64H79.2021ZM74.6836 108.047V118H72.9678V108.047H74.6836ZM82.9141 108.047V118H81.2119V108.047H82.9141ZM86.0381 108.047V109.414H78.1152V108.047H86.0381ZM92.9355 108.047H94.6445V114.698C94.6445 115.455 94.4805 116.088 94.1523 116.599C93.8242 117.109 93.3776 117.494 92.8125 117.754C92.252 118.009 91.6253 118.137 90.9326 118.137C90.2171 118.137 89.5791 118.009 89.0186 117.754C88.458 117.494 88.016 117.109 87.6924 116.599C87.3734 116.088 87.2139 115.455 87.2139 114.698V108.047H88.9229V114.698C88.9229 115.177 89.0049 115.571 89.1689 115.881C89.333 116.186 89.5654 116.412 89.8662 116.558C90.167 116.703 90.5225 116.776 90.9326 116.776C91.3428 116.776 91.696 116.703 91.9922 116.558C92.293 116.412 92.5254 116.186 92.6895 115.881C92.8535 115.571 92.9355 115.177 92.9355 114.698V108.047ZM96.5107 108.047H100.031C100.788 108.047 101.433 108.161 101.966 108.389C102.499 108.617 102.907 108.954 103.189 109.4C103.477 109.842 103.62 110.389 103.62 111.041C103.62 111.538 103.529 111.975 103.347 112.354C103.164 112.732 102.907 113.051 102.574 113.311C102.242 113.566 101.845 113.764 101.385 113.905L100.865 114.158H97.7002L97.6865 112.798H100.059C100.469 112.798 100.811 112.725 101.084 112.579C101.357 112.433 101.562 112.235 101.699 111.984C101.84 111.729 101.911 111.442 101.911 111.123C101.911 110.777 101.843 110.476 101.706 110.221C101.574 109.961 101.369 109.763 101.091 109.626C100.813 109.485 100.46 109.414 100.031 109.414H98.2266V118H96.5107V108.047ZM102.191 118L99.8535 113.529L101.651 113.522L104.023 117.911V118H102.191ZM111.844 116.64V118H106.56V116.64H111.844ZM107.045 108.047V118H105.329V108.047H107.045ZM111.153 112.203V113.543H106.56V112.203H111.153ZM111.81 108.047V109.414H106.56V108.047H111.81ZM114.626 116.414L114.619 117.59C114.619 118.055 114.503 118.533 114.271 119.025C114.038 119.518 113.73 119.923 113.348 120.242L112.466 119.729C112.593 119.524 112.71 119.317 112.814 119.107C112.919 118.898 113.004 118.674 113.067 118.438C113.131 118.201 113.163 117.938 113.163 117.651V116.414H114.626ZM7.73926 130.203V131.563H2.45508V130.203H7.73926ZM2.87891 126.047V136H1.16309V126.047H2.87891ZM9.05859 126.047V136H7.34961V126.047H9.05859ZM16.6875 126.047H18.3965V132.698C18.3965 133.455 18.2324 134.088 17.9043 134.599C17.5762 135.109 17.1296 135.494 16.5645 135.754C16.0039 136.009 15.3773 136.137 14.6846 136.137C13.9691 136.137 13.3311 136.009 12.7705 135.754C12.21 135.494 11.7679 135.109 11.4443 134.599C11.1253 134.088 10.9658 133.455 10.9658 132.698V126.047H12.6748V132.698C12.6748 133.177 12.7568 133.571 12.9209 133.881C13.085 134.186 13.3174 134.412 13.6182 134.558C13.9189 134.703 14.2744 134.776 14.6846 134.776C15.0947 134.776 15.4479 134.703 15.7441 134.558C16.0449 134.412 16.2773 134.186 16.4414 133.881C16.6055 133.571 16.6875 133.177 16.6875 132.698V126.047ZM28.1582 126.047V136H26.4424L21.9785 128.87V136H20.2627V126.047H21.9785L26.4561 133.19V126.047H28.1582ZM34.0918 126.047V136H32.3896V126.047H34.0918ZM37.2158 126.047V127.414H29.293V126.047H37.2158ZM40.3604 126.047V136H38.6445V126.047H40.3604ZM50.3887 126.047V136H48.6729L44.209 128.87V136H42.4932V126.047H44.209L48.6865 133.19V126.047H50.3887ZM60.0752 130.914V134.715C59.9339 134.902 59.7129 135.107 59.4121 135.33C59.1159 135.549 58.7217 135.738 58.2295 135.897C57.7373 136.057 57.1243 136.137 56.3906 136.137C55.7663 136.137 55.1943 136.032 54.6748 135.822C54.1553 135.608 53.7064 135.296 53.3281 134.886C52.9544 134.476 52.665 133.977 52.46 133.389C52.2549 132.796 52.1523 132.122 52.1523 131.365V130.675C52.1523 129.923 52.2458 129.253 52.4326 128.665C52.624 128.073 52.8975 127.571 53.2529 127.161C53.6084 126.751 54.0368 126.441 54.5381 126.231C55.0439 126.017 55.6159 125.91 56.2539 125.91C57.0697 125.91 57.7441 126.047 58.2773 126.32C58.8151 126.589 59.2298 126.963 59.5215 127.441C59.8132 127.92 59.9977 128.467 60.0752 129.082H58.3936C58.3389 128.736 58.2318 128.426 58.0723 128.152C57.9173 127.879 57.694 127.665 57.4023 127.51C57.1152 127.35 56.7415 127.271 56.2812 127.271C55.8848 127.271 55.5361 127.346 55.2354 127.496C54.9346 127.646 54.6839 127.868 54.4834 128.159C54.2874 128.451 54.1393 128.806 54.0391 129.226C53.9388 129.645 53.8887 130.123 53.8887 130.661V131.365C53.8887 131.912 53.9456 132.397 54.0596 132.821C54.1781 133.245 54.3467 133.603 54.5654 133.895C54.7887 134.186 55.0599 134.407 55.3789 134.558C55.6979 134.703 56.0579 134.776 56.459 134.776C56.8509 134.776 57.1722 134.744 57.4229 134.681C57.6735 134.612 57.8717 134.533 58.0176 134.441C58.168 134.346 58.2842 134.255 58.3662 134.168V132.192H56.2949V130.914H60.0752ZM63.3564 134.414L63.3496 135.59C63.3496 136.055 63.2334 136.533 63.001 137.025C62.7686 137.518 62.4609 137.923 62.0781 138.242L61.1963 137.729C61.3239 137.524 61.4401 137.317 61.5449 137.107C61.6497 136.898 61.734 136.674 61.7979 136.438C61.8617 136.201 61.8936 135.938 61.8936 135.651V134.414H63.3564ZM70.3086 126.047V136H68.5928V126.047H70.3086ZM74.3691 130.401V131.762H69.8711V130.401H74.3691ZM74.9365 126.047V127.414H69.8711V126.047H74.9365ZM84.2402 130.75V131.297C84.2402 132.049 84.1423 132.723 83.9463 133.32C83.7503 133.917 83.4701 134.425 83.1055 134.845C82.7454 135.264 82.3125 135.585 81.8066 135.809C81.3008 136.027 80.7402 136.137 80.125 136.137C79.5143 136.137 78.9561 136.027 78.4502 135.809C77.9489 135.585 77.5137 135.264 77.1445 134.845C76.7754 134.425 76.4883 133.917 76.2832 133.32C76.0827 132.723 75.9824 132.049 75.9824 131.297V130.75C75.9824 129.998 76.0827 129.326 76.2832 128.733C76.4837 128.136 76.7663 127.628 77.1309 127.209C77.5 126.785 77.9352 126.464 78.4365 126.245C78.9424 126.022 79.5007 125.91 80.1113 125.91C80.7266 125.91 81.2871 126.022 81.793 126.245C82.2988 126.464 82.734 126.785 83.0986 127.209C83.4632 127.628 83.7435 128.136 83.9395 128.733C84.14 129.326 84.2402 129.998 84.2402 130.75ZM82.5244 131.297V130.736C82.5244 130.18 82.4697 129.69 82.3604 129.267C82.2555 128.838 82.0983 128.48 81.8887 128.193C81.6836 127.902 81.4307 127.683 81.1299 127.537C80.8291 127.387 80.4896 127.312 80.1113 127.312C79.7331 127.312 79.3958 127.387 79.0996 127.537C78.8034 127.683 78.5505 127.902 78.3408 128.193C78.1357 128.48 77.9785 128.838 77.8691 129.267C77.7598 129.69 77.7051 130.18 77.7051 130.736V131.297C77.7051 131.853 77.7598 132.345 77.8691 132.773C77.9785 133.202 78.138 133.564 78.3477 133.86C78.5618 134.152 78.8171 134.373 79.1133 134.523C79.4095 134.669 79.7467 134.742 80.125 134.742C80.5078 134.742 80.8473 134.669 81.1436 134.523C81.4398 134.373 81.6904 134.152 81.8955 133.86C82.1006 133.564 82.2555 133.202 82.3604 132.773C82.4697 132.345 82.5244 131.853 82.5244 131.297ZM85.9561 126.047H89.4766C90.2331 126.047 90.8779 126.161 91.4111 126.389C91.9443 126.617 92.3522 126.954 92.6348 127.4C92.9219 127.842 93.0654 128.389 93.0654 129.041C93.0654 129.538 92.9743 129.975 92.792 130.354C92.6097 130.732 92.3522 131.051 92.0195 131.311C91.6868 131.566 91.2904 131.764 90.8301 131.905L90.3105 132.158H87.1455L87.1318 130.798H89.5039C89.9141 130.798 90.2559 130.725 90.5293 130.579C90.8027 130.433 91.0078 130.235 91.1445 129.984C91.2858 129.729 91.3564 129.442 91.3564 129.123C91.3564 128.777 91.2881 128.476 91.1514 128.221C91.0192 127.961 90.8141 127.763 90.5361 127.626C90.2581 127.485 89.9049 127.414 89.4766 127.414H87.6719V136H85.9561V126.047ZM91.6367 136L89.2988 131.529L91.0967 131.522L93.4688 135.911V136H91.6367ZM101.289 134.64V136H96.0049V134.64H101.289ZM96.4902 126.047V136H94.7744V126.047H96.4902ZM100.599 130.203V131.543H96.0049V130.203H100.599ZM101.255 126.047V127.414H96.0049V126.047H101.255ZM107.927 133.437C107.927 133.231 107.895 133.049 107.831 132.89C107.772 132.73 107.665 132.584 107.51 132.452C107.355 132.32 107.136 132.192 106.854 132.069C106.576 131.942 106.22 131.812 105.787 131.68C105.313 131.534 104.876 131.372 104.475 131.194C104.078 131.012 103.732 130.802 103.436 130.565C103.139 130.324 102.909 130.048 102.745 129.738C102.581 129.424 102.499 129.062 102.499 128.651C102.499 128.246 102.583 127.877 102.752 127.544C102.925 127.211 103.169 126.924 103.483 126.683C103.802 126.437 104.178 126.247 104.611 126.115C105.044 125.979 105.523 125.91 106.047 125.91C106.785 125.91 107.421 126.047 107.954 126.32C108.492 126.594 108.904 126.961 109.191 127.421C109.483 127.881 109.629 128.389 109.629 128.945H107.927C107.927 128.617 107.856 128.328 107.715 128.077C107.578 127.822 107.368 127.621 107.086 127.476C106.808 127.33 106.455 127.257 106.026 127.257C105.621 127.257 105.284 127.318 105.015 127.441C104.746 127.564 104.545 127.731 104.413 127.94C104.281 128.15 104.215 128.387 104.215 128.651C104.215 128.838 104.258 129.009 104.345 129.164C104.431 129.314 104.563 129.456 104.741 129.588C104.919 129.715 105.142 129.836 105.411 129.95C105.68 130.064 105.997 130.174 106.361 130.278C106.913 130.442 107.394 130.625 107.804 130.825C108.214 131.021 108.556 131.244 108.829 131.495C109.103 131.746 109.308 132.031 109.444 132.35C109.581 132.664 109.649 133.022 109.649 133.423C109.649 133.842 109.565 134.22 109.396 134.558C109.228 134.89 108.986 135.175 108.672 135.412C108.362 135.645 107.988 135.825 107.551 135.952C107.118 136.075 106.635 136.137 106.102 136.137C105.623 136.137 105.151 136.073 104.687 135.945C104.226 135.818 103.807 135.624 103.429 135.364C103.05 135.1 102.75 134.772 102.526 134.38C102.303 133.983 102.191 133.521 102.191 132.992H103.907C103.907 133.316 103.962 133.591 104.071 133.819C104.185 134.047 104.342 134.234 104.543 134.38C104.743 134.521 104.976 134.626 105.24 134.694C105.509 134.763 105.796 134.797 106.102 134.797C106.503 134.797 106.838 134.74 107.106 134.626C107.38 134.512 107.585 134.353 107.722 134.147C107.858 133.942 107.927 133.705 107.927 133.437ZM115.262 126.047V136H113.56V126.047H115.262ZM118.386 126.047V127.414H110.463V126.047H118.386ZM119.698 126.047H123.219C123.975 126.047 124.62 126.161 125.153 126.389C125.687 126.617 126.094 126.954 126.377 127.4C126.664 127.842 126.808 128.389 126.808 129.041C126.808 129.538 126.716 129.975 126.534 130.354C126.352 130.732 126.094 131.051 125.762 131.311C125.429 131.566 125.033 131.764 124.572 131.905L124.053 132.158H120.888L120.874 130.798H123.246C123.656 130.798 123.998 130.725 124.271 130.579C124.545 130.433 124.75 130.235 124.887 129.984C125.028 129.729 125.099 129.442 125.099 129.123C125.099 128.777 125.03 128.476 124.894 128.221C124.761 127.961 124.556 127.763 124.278 127.626C124 127.485 123.647 127.414 123.219 127.414H121.414V136H119.698V126.047ZM125.379 136L123.041 131.529L124.839 131.522L127.211 135.911V136H125.379ZM129.139 126.047L131.449 130.798L133.76 126.047H135.66L132.311 132.336V136H130.581V132.336L127.231 126.047H129.139ZM136.624 134.414L136.617 135.59C136.617 136.055 136.501 136.533 136.269 137.025C136.036 137.518 135.729 137.923 135.346 138.242L134.464 137.729C134.591 137.524 134.708 137.317 134.812 137.107C134.917 136.898 135.002 136.674 135.065 136.438C135.129 136.201 135.161 135.938 135.161 135.651V134.414H136.624ZM32.6904 145.373L29.7168 154H27.9189L31.665 144.047H32.8135L32.6904 145.373ZM35.1787 154L32.1982 145.373L32.0684 144.047H33.2236L36.9834 154H35.1787ZM35.0352 150.309V151.669H29.6211V150.309H35.0352ZM45.9932 144.047V154H44.2773L39.8135 146.87V154H38.0977V144.047H39.8135L44.291 151.19V144.047H45.9932ZM50.9287 154H48.8027L48.8164 152.64H50.9287C51.5439 152.64 52.0589 152.505 52.4736 152.236C52.8929 151.967 53.2074 151.582 53.417 151.081C53.6312 150.58 53.7383 149.983 53.7383 149.29V148.75C53.7383 148.212 53.6768 147.736 53.5537 147.321C53.4352 146.907 53.2575 146.558 53.0205 146.275C52.7881 145.993 52.501 145.779 52.1592 145.633C51.8219 145.487 51.4323 145.414 50.9902 145.414H48.7617V144.047H50.9902C51.651 144.047 52.2549 144.159 52.8018 144.382C53.3486 144.601 53.8203 144.917 54.2168 145.332C54.6178 145.747 54.9255 146.243 55.1396 146.822C55.3538 147.401 55.4609 148.048 55.4609 148.764V149.29C55.4609 150.006 55.3538 150.653 55.1396 151.231C54.9255 151.81 54.6178 152.307 54.2168 152.722C53.8158 153.132 53.3372 153.449 52.7812 153.672C52.2298 153.891 51.6123 154 50.9287 154ZM49.7529 144.047V154H48.0371V144.047H49.7529ZM62.3857 144.047V154H60.6699V144.047H62.3857ZM66.4463 148.401V149.762H61.9482V148.401H66.4463ZM67.0137 144.047V145.414H61.9482V144.047H67.0137ZM70.2129 144.047V154H68.4971V144.047H70.2129ZM77.582 151.437C77.582 151.231 77.5501 151.049 77.4863 150.89C77.4271 150.73 77.32 150.584 77.165 150.452C77.0101 150.32 76.7913 150.192 76.5088 150.069C76.2308 149.942 75.8753 149.812 75.4424 149.68C74.9684 149.534 74.5309 149.372 74.1299 149.194C73.7334 149.012 73.387 148.802 73.0908 148.565C72.7946 148.324 72.5645 148.048 72.4004 147.738C72.2363 147.424 72.1543 147.062 72.1543 146.651C72.1543 146.246 72.2386 145.877 72.4072 145.544C72.5804 145.211 72.8242 144.924 73.1387 144.683C73.4577 144.437 73.8337 144.247 74.2666 144.115C74.6995 143.979 75.1781 143.91 75.7021 143.91C76.4404 143.91 77.0762 144.047 77.6094 144.32C78.1471 144.594 78.5596 144.961 78.8467 145.421C79.1383 145.881 79.2842 146.389 79.2842 146.945H77.582C77.582 146.617 77.5114 146.328 77.3701 146.077C77.2334 145.822 77.0238 145.621 76.7412 145.476C76.4632 145.33 76.11 145.257 75.6816 145.257C75.276 145.257 74.9388 145.318 74.6699 145.441C74.401 145.564 74.2005 145.731 74.0684 145.94C73.9362 146.15 73.8701 146.387 73.8701 146.651C73.8701 146.838 73.9134 147.009 74 147.164C74.0866 147.314 74.2188 147.456 74.3965 147.588C74.5742 147.715 74.7975 147.836 75.0664 147.95C75.3353 148.064 75.652 148.174 76.0166 148.278C76.568 148.442 77.0488 148.625 77.459 148.825C77.8691 149.021 78.2109 149.244 78.4844 149.495C78.7578 149.746 78.9629 150.031 79.0996 150.35C79.2363 150.664 79.3047 151.022 79.3047 151.423C79.3047 151.842 79.2204 152.22 79.0518 152.558C78.8831 152.89 78.6416 153.175 78.3271 153.412C78.0173 153.645 77.6436 153.825 77.2061 153.952C76.7731 154.075 76.29 154.137 75.7568 154.137C75.2783 154.137 74.8066 154.073 74.3418 153.945C73.8815 153.818 73.4622 153.624 73.084 153.364C72.7057 153.1 72.4049 152.772 72.1816 152.38C71.9583 151.983 71.8467 151.521 71.8467 150.992H73.5625C73.5625 151.316 73.6172 151.591 73.7266 151.819C73.8405 152.047 73.9977 152.234 74.1982 152.38C74.3988 152.521 74.6312 152.626 74.8955 152.694C75.1644 152.763 75.4515 152.797 75.7568 152.797C76.1579 152.797 76.4928 152.74 76.7617 152.626C77.0352 152.512 77.2402 152.353 77.377 152.147C77.5137 151.942 77.582 151.705 77.582 151.437ZM87.3984 148.203V149.563H82.1143V148.203H87.3984ZM82.5381 144.047V154H80.8223V144.047H82.5381ZM88.7178 144.047V154H87.0088V144.047H88.7178ZM92.5938 144.047V154H90.8779V144.047H92.5938ZM102.622 144.047V154H100.906L96.4424 146.87V154H94.7266V144.047H96.4424L100.92 151.19V144.047H102.622ZM112.309 148.914V152.715C112.167 152.902 111.946 153.107 111.646 153.33C111.349 153.549 110.955 153.738 110.463 153.897C109.971 154.057 109.358 154.137 108.624 154.137C108 154.137 107.428 154.032 106.908 153.822C106.389 153.608 105.94 153.296 105.562 152.886C105.188 152.476 104.898 151.977 104.693 151.389C104.488 150.796 104.386 150.122 104.386 149.365V148.675C104.386 147.923 104.479 147.253 104.666 146.665C104.857 146.073 105.131 145.571 105.486 145.161C105.842 144.751 106.27 144.441 106.771 144.231C107.277 144.017 107.849 143.91 108.487 143.91C109.303 143.91 109.978 144.047 110.511 144.32C111.049 144.589 111.463 144.963 111.755 145.441C112.047 145.92 112.231 146.467 112.309 147.082H110.627C110.572 146.736 110.465 146.426 110.306 146.152C110.151 145.879 109.927 145.665 109.636 145.51C109.349 145.35 108.975 145.271 108.515 145.271C108.118 145.271 107.77 145.346 107.469 145.496C107.168 145.646 106.917 145.868 106.717 146.159C106.521 146.451 106.373 146.806 106.272 147.226C106.172 147.645 106.122 148.123 106.122 148.661V149.365C106.122 149.912 106.179 150.397 106.293 150.821C106.411 151.245 106.58 151.603 106.799 151.895C107.022 152.186 107.293 152.407 107.612 152.558C107.931 152.703 108.291 152.776 108.692 152.776C109.084 152.776 109.406 152.744 109.656 152.681C109.907 152.612 110.105 152.533 110.251 152.441C110.401 152.346 110.518 152.255 110.6 152.168V150.192H108.528V148.914H112.309Z" fill="#002E19"/>
<g clip-path="url(#clip0_153_3795)">
<path fill-rule="evenodd" clip-rule="evenodd" d="M63.2292 31.7185C63.2047 31.661 63.189 31.5977 63.183 31.5322C63.177 31.4666 63.1808 31.4002 63.1942 31.3366C63.2075 31.273 63.2302 31.2135 63.2609 31.1615C63.2916 31.1095 63.3297 31.0661 63.373 31.0336C63.4164 31.0012 63.4641 30.9804 63.5135 30.9724C63.5629 30.9645 63.613 30.9695 63.661 30.9872C63.7089 31.0049 63.7538 31.035 63.7929 31.0757C63.8321 31.1165 63.8649 31.167 63.8893 31.2245L64.3633 32.3473C64.4121 32.4597 64.4253 32.5933 64.3999 32.7186C64.3745 32.8438 64.3126 32.9506 64.2279 33.0154C64.1431 33.0802 64.0425 33.0976 63.948 33.0639C63.8536 33.0302 63.7731 32.9482 63.7243 32.8357L63.2503 31.7466L63.2292 31.7185ZM84.1087 71.0168L79.6061 51.0701H80.7741L87.5872 70.9943H84.1087V71.0168ZM87.5872 51.0701V43.1768H82.6953C81.8744 43.2778 81.7093 42.4133 82.0606 41.7003L85.1878 36.8329L85.099 36.715H83.4063C82.7969 36.8329 82.5599 35.9628 82.9408 35.3452L86.3262 30.0849H85.3444C84.7308 30.0849 84.5785 29.355 84.972 28.6421L88.0443 23.8028C88.2559 23.4715 88.4674 22.9887 88.8441 22.9999C89.2207 23.0112 89.3477 23.4042 89.5339 23.6961L92.8008 28.7487C92.8848 28.8775 92.9374 29.037 92.9516 29.2063C92.9659 29.3755 92.9411 29.5465 92.8806 29.6967C92.8201 29.8469 92.7267 29.9692 92.6127 30.0475C92.4988 30.1258 92.3696 30.1565 92.2422 30.1354H91.3535L94.7008 35.3508C94.7887 35.4554 94.8537 35.5894 94.8889 35.7388C94.9241 35.8883 94.9283 36.0475 94.901 36.1999C94.8737 36.3522 94.8159 36.4919 94.7338 36.6043C94.6517 36.7167 94.5482 36.7976 94.4342 36.8385H92.4876L95.4076 41.3803L95.7292 41.8799C95.7924 41.9958 95.8319 42.1314 95.8437 42.2735C95.8555 42.4157 95.8393 42.5594 95.7967 42.6908C95.754 42.8221 95.6863 42.9364 95.6003 43.0226C95.5143 43.1088 95.4129 43.1639 95.306 43.1824H90.0628V51.0701H95.9873V55.1122H84.6589L83.3893 51.0701H87.5872ZM51.0586 48.381V50.3796H50.4408V49.7452H50.5804V48.381H51.0586ZM47.4827 46.0175C47.2801 46.0955 47.0714 46.1426 46.8607 46.1578C46.4043 46.1974 45.9493 46.0568 45.5531 45.7536C45.1593 45.4426 44.8475 44.978 44.6602 44.4231C44.3246 43.3168 44.3095 42.085 44.6178 40.9649C44.181 40.1711 43.9792 39.1922 44.0508 38.214C44.125 37.4923 44.3694 36.8203 44.749 36.294C45.1542 35.739 45.662 35.3344 46.2217 35.1207C47.3302 34.7238 48.5093 34.8692 49.5436 35.5305C49.6706 35.3957 49.7975 35.2778 49.9202 35.1656C50.5649 34.5485 51.3615 34.2778 52.1504 34.4077C53.0193 34.6416 53.7916 35.296 54.3171 36.2435C54.4679 36.4784 54.6092 36.7239 54.7402 36.9789C55.4433 36.9237 56.1405 37.1761 56.7249 37.6975C57.034 37.9865 57.2711 38.3911 57.4062 38.8596C57.5317 39.3377 57.5317 39.858 57.4062 40.3361C57.1623 41.1768 56.716 41.8872 56.1367 42.3571C56.0975 43.1005 55.9388 43.8241 55.6712 44.4792C55.4707 44.9655 55.1618 45.3577 54.7868 45.6021C54.4095 45.8297 53.9806 45.8558 53.5892 45.675C53.4589 45.6197 53.3328 45.5483 53.2126 45.4617L52.9629 46.2421C52.3408 48.1564 52.1165 48.8414 52.0446 51.0589H57.6771L56.4076 55.101H44V51.0701H48.9681C48.9469 48.9592 48.8073 48.6842 48.054 47.1852C47.8932 46.8596 47.707 46.4835 47.4827 46.0063V46.0175ZM47.9355 45.7929L48.4518 46.8371C49.2982 48.4877 49.4251 48.774 49.4463 51.0757H51.5622C51.6383 48.7235 51.8669 48.0161 52.5186 46.0231L52.8021 45.1473C52.7471 45.0912 52.6921 45.035 52.6413 44.9733C52.5433 45.1113 52.4387 45.2407 52.3281 45.3607C51.9234 45.8504 51.3948 46.1208 50.847 46.1185C50.3024 46.0661 49.7888 45.7622 49.3955 45.2596C49.277 45.1192 49.1585 44.9677 49.04 44.7992C48.715 45.2064 48.3419 45.5402 47.9355 45.7873V45.7929ZM49.3743 45.9277L50.3477 48.061L49.9245 48.381L48.9512 46.2533L49.3743 45.9277ZM60.9271 71L63.7454 51.0701H62.3532L57.859 71H60.9271ZM56.3779 71L60.8763 51.0701H59.7083L52.9079 71H56.3779ZM70.9606 71V51.0701H72.3529L73.779 71H70.9606ZM75.3151 71L73.762 51.0701H75.1755L78.1377 71.0112L75.3151 71ZM79.5469 71L76.737 51.0701H78.125L82.6234 71H79.5469ZM69.5133 71V51.0701H68.1211L66.6992 71H69.5133ZM65.1589 71L66.7161 51.0701H65.3027L62.3405 71.0112L65.1589 71ZM44 64.9256H53.0518L50.974 71H44V64.9256ZM88.0104 64.9256H96.0127V71H90.0882L88.0104 64.9256ZM44 57.9529H55.4258L54.0166 62.0792H44V57.9529ZM85.6279 57.9529H96V62.0792H87.0329L85.6279 57.9529ZM66.1829 33.341C66.9484 33.3424 67.6898 33.6958 68.2808 34.3409C68.8719 34.9861 69.2762 35.8831 69.4247 36.8793C69.5732 37.8754 69.4569 38.909 69.0955 39.8042C68.734 40.6993 68.1499 41.4005 67.4425 41.7884C66.7351 42.1763 65.9483 42.2269 65.2159 41.9316C64.4836 41.6363 63.8511 41.0133 63.4261 40.1688C63.0011 39.3242 62.8099 38.3103 62.8851 37.2998C62.9603 36.2893 63.2973 35.3446 63.8385 34.6266C64.1465 34.2185 64.5121 33.895 64.9143 33.6744C65.3166 33.4538 65.7477 33.3405 66.1829 33.341ZM68.0238 35.2891C67.6598 34.8059 67.196 34.4769 66.691 34.3435C66.186 34.2102 65.6625 34.2785 65.1868 34.54C64.7112 34.8014 64.3046 35.2442 64.0187 35.8122C63.7327 36.3803 63.5802 37.0481 63.5804 37.7312C63.5804 38.6469 63.8546 39.5251 64.3427 40.1726C64.8307 40.82 65.4927 41.1838 66.1829 41.1838C66.8732 41.1838 67.5351 40.82 68.0232 40.1726C68.5113 39.5251 68.7855 38.6469 68.7855 37.7312C68.7875 37.2773 68.7212 36.8275 68.5903 36.4082C68.4595 35.9888 68.2669 35.6083 68.0238 35.2891ZM65.9079 30.5621C65.9023 30.4931 65.9077 30.4234 65.9238 30.3575C65.9399 30.2915 65.9662 30.2308 66.0012 30.1792C66.0361 30.1277 66.0788 30.0865 66.1265 30.0582C66.1742 30.03 66.2259 30.0154 66.2782 30.0154C66.3304 30.0154 66.3821 30.03 66.4298 30.0582C66.4775 30.0865 66.5202 30.1277 66.5551 30.1792C66.5901 30.2308 66.6164 30.2915 66.6325 30.3575C66.6486 30.4234 66.654 30.4931 66.6484 30.5621V31.8252C66.654 31.8941 66.6486 31.9638 66.6325 32.0298C66.6164 32.0957 66.5901 32.1565 66.5551 32.208C66.5202 32.2596 66.4775 32.3008 66.4298 32.329C66.3821 32.3573 66.3304 32.3718 66.2782 32.3718C66.2259 32.3718 66.1742 32.3573 66.1265 32.329C66.0788 32.3008 66.0361 32.2596 66.0012 32.208C65.9662 32.1565 65.9399 32.0957 65.9238 32.0298C65.9077 31.9638 65.9023 31.8941 65.9079 31.8252V30.5621ZM68.6501 31.3256C68.6996 31.2141 68.78 31.1329 68.8742 31.0993C68.9684 31.0657 69.0687 31.0824 69.1536 31.1459C69.1957 31.1779 69.2325 31.2206 69.2621 31.2715C69.2916 31.3224 69.3133 31.3806 69.3259 31.4427C69.3385 31.5047 69.3417 31.5695 69.3354 31.6332C69.329 31.6969 69.3133 31.7583 69.2891 31.814L68.7982 32.9087C68.7446 33.0086 68.6649 33.0784 68.5747 33.1047C68.4844 33.1309 68.3901 33.1118 68.3099 33.0509C68.2297 32.99 68.1694 32.8917 68.1408 32.7752C68.1122 32.6587 68.1172 32.5322 68.1549 32.4203L68.6331 31.2975L68.6501 31.3256ZM70.7363 33.807C70.7783 33.7748 70.8246 33.7539 70.8726 33.7455C70.9206 33.7372 70.9694 33.7414 71.0162 33.7581C71.063 33.7748 71.1068 33.8036 71.1452 33.8428C71.1836 33.882 71.2158 33.9309 71.2399 33.9866C71.2891 34.0998 71.3024 34.2343 71.2771 34.3606C71.2517 34.4868 71.1896 34.5946 71.1045 34.6603L70.2581 35.2891C70.2162 35.3211 70.1699 35.3419 70.1219 35.3503C70.0738 35.3586 70.0251 35.3543 69.9783 35.3376C69.8839 35.3039 69.8034 35.2218 69.7546 35.1094C69.7057 34.997 69.6926 34.8635 69.718 34.7382C69.7434 34.6129 69.8052 34.5061 69.89 34.4414L70.7363 33.807ZM71.6081 37.3438C71.7068 37.3438 71.8016 37.3959 71.8714 37.4885C71.9412 37.5812 71.9805 37.7068 71.9805 37.8378C71.9805 37.9689 71.9412 38.0945 71.8714 38.1872C71.8016 38.2798 71.7068 38.3319 71.6081 38.3319H70.6602C70.5614 38.3319 70.4667 38.2798 70.3968 38.1872C70.327 38.0945 70.2878 37.9689 70.2878 37.8378C70.2878 37.7068 70.327 37.5812 70.3968 37.4885C70.4667 37.3959 70.5614 37.3438 70.6602 37.3438H71.6081ZM71.0114 40.9649C71.0938 41.0299 71.1542 41.1345 71.1799 41.2571C71.2056 41.3796 71.1946 41.5106 71.1494 41.6227C71.1041 41.7349 71.028 41.8195 70.9369 41.8591C70.8457 41.8986 70.7466 41.89 70.6602 41.835L69.8138 41.2006C69.7291 41.1351 69.6674 41.0277 69.6424 40.9018C69.6174 40.776 69.6311 40.6422 69.6805 40.5298C69.7299 40.4174 69.8109 40.3356 69.9057 40.3024C70.0006 40.2692 70.1015 40.2874 70.1862 40.3529L71.0114 40.9649ZM69.141 43.7719C69.1652 43.8275 69.1809 43.889 69.1873 43.9527C69.1936 44.0164 69.1903 44.0811 69.1778 44.1432C69.1652 44.2053 69.1435 44.2634 69.1139 44.3143C69.0844 44.3653 69.0475 44.4079 69.0055 44.4399C68.9637 44.4729 68.9174 44.4944 68.8693 44.5032C68.8211 44.5119 68.7721 44.5078 68.7252 44.4911C68.6782 44.4743 68.6343 44.4453 68.596 44.4057C68.5576 44.366 68.5257 44.3166 68.502 44.2603L68.0238 43.1712C67.9995 43.1155 67.9838 43.0541 67.9775 42.9904C67.9711 42.9267 67.9744 42.8619 67.9869 42.7999C67.9995 42.7378 68.0212 42.6796 68.0508 42.6287C68.0803 42.5778 68.1172 42.5351 68.1592 42.5031C68.2008 42.4694 68.2472 42.4473 68.2955 42.438C68.3437 42.4288 68.3929 42.4328 68.44 42.4496C68.4871 42.4664 68.5312 42.4957 68.5695 42.5358C68.6077 42.5759 68.6395 42.6259 68.6628 42.6828L69.141 43.7719ZM66.4792 44.8947C66.4792 45.0257 66.4399 45.1514 66.3701 45.244C66.3003 45.3367 66.2055 45.3887 66.1068 45.3887C66.008 45.3887 65.9133 45.3367 65.8434 45.244C65.7736 45.1514 65.7344 45.0257 65.7344 44.8947V43.6484C65.7344 43.5173 65.7736 43.3917 65.8434 43.299C65.9133 43.2064 66.008 43.1543 66.1068 43.1543C66.2055 43.1543 66.3003 43.2064 66.3701 43.299C66.4399 43.3917 66.4792 43.5173 66.4792 43.6484V44.8947ZM63.737 44.1256C63.7132 44.1818 63.6813 44.2312 63.6431 44.2709C63.6049 44.3107 63.5611 44.3401 63.5143 44.3573C63.4675 44.3745 63.4185 44.3793 63.3703 44.3713C63.3221 44.3633 63.2756 44.3428 63.2334 44.3108C63.1909 44.2788 63.1535 44.2359 63.1235 44.1847C63.0935 44.1335 63.0714 44.0749 63.0584 44.0124C63.0454 43.9498 63.0419 43.8845 63.0479 43.8201C63.054 43.7557 63.0696 43.6935 63.0938 43.6371L63.5719 42.548C63.6208 42.4356 63.7012 42.3535 63.7957 42.3198C63.8901 42.2861 63.9908 42.3036 64.0755 42.3684C64.1603 42.4331 64.2221 42.5399 64.2475 42.6652C64.2729 42.7905 64.2598 42.924 64.2109 43.0364L63.737 44.1256ZM61.6507 41.6442C61.6088 41.6762 61.5625 41.697 61.5144 41.7054C61.4664 41.7137 61.4176 41.7094 61.3709 41.6927C61.3241 41.676 61.2803 41.6473 61.2419 41.6081C61.2035 41.569 61.1713 41.5202 61.1471 41.4645C61.123 41.4088 61.1073 41.3474 61.101 41.2837C61.0947 41.22 61.098 41.1553 61.1105 41.0933C61.1231 41.0312 61.1448 40.9731 61.1743 40.9222C61.2038 40.8712 61.2406 40.8285 61.2826 40.7964L62.1035 40.1677C62.1883 40.1029 62.2889 40.0854 62.3834 40.1191C62.4778 40.1528 62.5583 40.2349 62.6071 40.3473C62.6559 40.4597 62.6691 40.5933 62.6437 40.7186C62.6183 40.8438 62.5564 40.9506 62.4717 41.0154L61.6507 41.6442ZM60.779 38.1129C60.727 38.1203 60.6745 38.1131 60.6248 38.0918C60.5751 38.0705 60.5293 38.0355 60.4904 37.9892C60.4516 37.9428 60.4205 37.8862 60.3992 37.8229C60.3779 37.7596 60.3669 37.691 60.3669 37.6217C60.3669 37.5524 60.3779 37.4839 60.3992 37.4205C60.4205 37.3572 60.4516 37.3006 60.4904 37.2542C60.5293 37.2079 60.5751 37.173 60.6248 37.1516C60.6745 37.1303 60.727 37.1231 60.779 37.1305H61.7311C61.8225 37.1435 61.907 37.2008 61.9685 37.2915C62.0299 37.3822 62.0639 37.4998 62.0639 37.6217C62.0639 37.7436 62.0299 37.8612 61.9685 37.9519C61.907 38.0426 61.8225 38.1 61.7311 38.1129H60.779ZM61.3503 34.4863C61.2996 34.4609 61.2538 34.421 61.2161 34.3695C61.1784 34.318 61.1498 34.256 61.1322 34.1881C61.1146 34.1202 61.1085 34.048 61.1143 33.9766C61.1202 33.9052 61.1378 33.8364 61.166 33.7751C61.1942 33.7138 61.2322 33.6615 61.2773 33.6219C61.3225 33.5823 61.3737 33.5564 61.4272 33.546C61.4808 33.5357 61.5354 33.5411 61.5872 33.5619C61.639 33.5828 61.6867 33.6185 61.7269 33.6666L62.5479 34.2954C62.6038 34.3719 62.6396 34.4705 62.6499 34.5762C62.6601 34.682 62.6443 34.7894 62.6048 34.8822C62.5653 34.9751 62.5042 35.0485 62.4306 35.0915C62.357 35.1344 62.2749 35.1447 62.1966 35.1207L61.3503 34.4863Z" fill="#00723F"/>
</g>
<defs>
<clipPath id="clip0_153_3795">
<rect width="52" height="48" fill="white" transform="translate(44 23)"/>
</clipPath>
</defs>
</svg>
