<svg width="161" height="158" viewBox="0 0 161 158" fill="none" xmlns="http://www.w3.org/2000/svg">
<rect x="33.5" width="94" height="94" rx="16" fill="#E5EAE8"/>
<path d="M43.1553 114.76H44.8643C44.8096 115.411 44.6273 115.993 44.3174 116.503C44.0075 117.009 43.5723 117.408 43.0117 117.699C42.4512 117.991 41.7699 118.137 40.9678 118.137C40.3525 118.137 39.7988 118.027 39.3066 117.809C38.8145 117.585 38.3929 117.271 38.042 116.865C37.6911 116.455 37.4222 115.961 37.2354 115.382C37.0531 114.803 36.9619 114.156 36.9619 113.44V112.613C36.9619 111.898 37.0553 111.251 37.2422 110.672C37.4336 110.093 37.707 109.599 38.0625 109.188C38.418 108.774 38.8441 108.457 39.3408 108.238C39.8421 108.02 40.4049 107.91 41.0293 107.91C41.8223 107.91 42.4922 108.056 43.0391 108.348C43.5859 108.639 44.0098 109.043 44.3105 109.558C44.6159 110.073 44.8027 110.663 44.8711 111.328H43.1621C43.1165 110.9 43.0163 110.533 42.8613 110.228C42.7109 109.922 42.4876 109.69 42.1914 109.53C41.8952 109.366 41.5078 109.284 41.0293 109.284C40.6374 109.284 40.2956 109.357 40.0039 109.503C39.7122 109.649 39.4684 109.863 39.2725 110.146C39.0765 110.428 38.9284 110.777 38.8281 111.191C38.7324 111.602 38.6846 112.071 38.6846 112.6V113.44C38.6846 113.942 38.7279 114.397 38.8145 114.808C38.9056 115.213 39.0423 115.562 39.2246 115.854C39.4115 116.145 39.6484 116.371 39.9355 116.53C40.2227 116.69 40.5667 116.77 40.9678 116.77C41.4554 116.77 41.8496 116.692 42.1504 116.537C42.4557 116.382 42.6859 116.157 42.8408 115.86C43.0003 115.56 43.1051 115.193 43.1553 114.76ZM54.3594 112.75V113.297C54.3594 114.049 54.2614 114.723 54.0654 115.32C53.8695 115.917 53.5892 116.425 53.2246 116.845C52.8646 117.264 52.4316 117.585 51.9258 117.809C51.4199 118.027 50.8594 118.137 50.2441 118.137C49.6335 118.137 49.0752 118.027 48.5693 117.809C48.068 117.585 47.6328 117.264 47.2637 116.845C46.8945 116.425 46.6074 115.917 46.4023 115.32C46.2018 114.723 46.1016 114.049 46.1016 113.297V112.75C46.1016 111.998 46.2018 111.326 46.4023 110.733C46.6029 110.136 46.8854 109.628 47.25 109.209C47.6191 108.785 48.0544 108.464 48.5557 108.245C49.0615 108.022 49.6198 107.91 50.2305 107.91C50.8457 107.91 51.4062 108.022 51.9121 108.245C52.418 108.464 52.8532 108.785 53.2178 109.209C53.5824 109.628 53.8626 110.136 54.0586 110.733C54.2591 111.326 54.3594 111.998 54.3594 112.75ZM52.6436 113.297V112.736C52.6436 112.18 52.5889 111.69 52.4795 111.267C52.3747 110.838 52.2174 110.48 52.0078 110.193C51.8027 109.902 51.5498 109.683 51.249 109.537C50.9482 109.387 50.6087 109.312 50.2305 109.312C49.8522 109.312 49.515 109.387 49.2188 109.537C48.9225 109.683 48.6696 109.902 48.46 110.193C48.2549 110.48 48.0977 110.838 47.9883 111.267C47.8789 111.69 47.8242 112.18 47.8242 112.736V113.297C47.8242 113.853 47.8789 114.345 47.9883 114.773C48.0977 115.202 48.2572 115.564 48.4668 115.86C48.681 116.152 48.9362 116.373 49.2324 116.523C49.5286 116.669 49.8659 116.742 50.2441 116.742C50.627 116.742 50.9665 116.669 51.2627 116.523C51.5589 116.373 51.8096 116.152 52.0146 115.86C52.2197 115.564 52.3747 115.202 52.4795 114.773C52.5889 114.345 52.6436 113.853 52.6436 113.297ZM56.7725 108.047H58.3037L61.1816 115.724L64.0527 108.047H65.584L61.7832 118H60.5664L56.7725 108.047ZM56.0752 108.047H57.5312L57.7842 114.691V118H56.0752V108.047ZM64.8252 108.047H66.2881V118H64.5723V114.691L64.8252 108.047ZM69.0225 108.047H70.5537L73.4316 115.724L76.3027 108.047H77.834L74.0332 118H72.8164L69.0225 108.047ZM68.3252 108.047H69.7812L70.0342 114.691V118H68.3252V108.047ZM77.0752 108.047H78.5381V118H76.8223V114.691L77.0752 108.047ZM86.1602 108.047H87.8691V114.698C87.8691 115.455 87.7051 116.088 87.377 116.599C87.0488 117.109 86.6022 117.494 86.0371 117.754C85.4766 118.009 84.8499 118.137 84.1572 118.137C83.4417 118.137 82.8037 118.009 82.2432 117.754C81.6826 117.494 81.2406 117.109 80.917 116.599C80.598 116.088 80.4385 115.455 80.4385 114.698V108.047H82.1475V114.698C82.1475 115.177 82.2295 115.571 82.3936 115.881C82.5576 116.186 82.79 116.412 83.0908 116.558C83.3916 116.703 83.7471 116.776 84.1572 116.776C84.5674 116.776 84.9206 116.703 85.2168 116.558C85.5176 116.412 85.75 116.186 85.9141 115.881C86.0781 115.571 86.1602 115.177 86.1602 114.698V108.047ZM97.6309 108.047V118H95.915L91.4512 110.87V118H89.7354V108.047H91.4512L95.9287 115.19V108.047H97.6309ZM101.507 108.047V118H99.791V108.047H101.507ZM107.529 108.047V118H105.827V108.047H107.529ZM110.653 108.047V109.414H102.73V108.047H110.653ZM113.025 108.047L115.336 112.798L117.646 108.047H119.547L116.197 114.336V118H114.468V114.336L111.118 108.047H113.025ZM120.511 116.414L120.504 117.59C120.504 118.055 120.388 118.533 120.155 119.025C119.923 119.518 119.615 119.923 119.232 120.242L118.351 119.729C118.478 119.524 118.594 119.317 118.699 119.107C118.804 118.898 118.888 118.674 118.952 118.438C119.016 118.201 119.048 117.938 119.048 117.651V116.414H120.511ZM44.9736 133.437C44.9736 133.231 44.9417 133.049 44.8779 132.89C44.8187 132.73 44.7116 132.584 44.5566 132.452C44.4017 132.32 44.1829 132.192 43.9004 132.069C43.6224 131.942 43.2669 131.812 42.834 131.68C42.36 131.534 41.9225 131.372 41.5215 131.194C41.125 131.012 40.7786 130.802 40.4824 130.565C40.1862 130.324 39.9561 130.048 39.792 129.738C39.6279 129.424 39.5459 129.062 39.5459 128.651C39.5459 128.246 39.6302 127.877 39.7988 127.544C39.972 127.211 40.2158 126.924 40.5303 126.683C40.8493 126.437 41.2253 126.247 41.6582 126.115C42.0911 125.979 42.5697 125.91 43.0938 125.91C43.832 125.91 44.4678 126.047 45.001 126.32C45.5387 126.594 45.9512 126.961 46.2383 127.421C46.5299 127.881 46.6758 128.389 46.6758 128.945H44.9736C44.9736 128.617 44.903 128.328 44.7617 128.077C44.625 127.822 44.4154 127.621 44.1328 127.476C43.8548 127.33 43.5016 127.257 43.0732 127.257C42.6676 127.257 42.3304 127.318 42.0615 127.441C41.7926 127.564 41.5921 127.731 41.46 127.94C41.3278 128.15 41.2617 128.387 41.2617 128.651C41.2617 128.838 41.305 129.009 41.3916 129.164C41.4782 129.314 41.6104 129.456 41.7881 129.588C41.9658 129.715 42.1891 129.836 42.458 129.95C42.7269 130.064 43.0436 130.174 43.4082 130.278C43.9596 130.442 44.4404 130.625 44.8506 130.825C45.2607 131.021 45.6025 131.244 45.876 131.495C46.1494 131.746 46.3545 132.031 46.4912 132.35C46.6279 132.664 46.6963 133.022 46.6963 133.423C46.6963 133.842 46.612 134.22 46.4434 134.558C46.2747 134.89 46.0332 135.175 45.7188 135.412C45.4089 135.645 45.0352 135.825 44.5977 135.952C44.1647 136.075 43.6816 136.137 43.1484 136.137C42.6699 136.137 42.1982 136.073 41.7334 135.945C41.2731 135.818 40.8538 135.624 40.4756 135.364C40.0973 135.1 39.7965 134.772 39.5732 134.38C39.3499 133.983 39.2383 133.521 39.2383 132.992H40.9541C40.9541 133.316 41.0088 133.591 41.1182 133.819C41.2321 134.047 41.3893 134.234 41.5898 134.38C41.7904 134.521 42.0228 134.626 42.2871 134.694C42.556 134.763 42.8431 134.797 43.1484 134.797C43.5495 134.797 43.8844 134.74 44.1533 134.626C44.4268 134.512 44.6318 134.353 44.7686 134.147C44.9053 133.942 44.9736 133.705 44.9736 133.437ZM56.1504 130.75V131.297C56.1504 132.049 56.0524 132.723 55.8564 133.32C55.6605 133.917 55.3802 134.425 55.0156 134.845C54.6556 135.264 54.2227 135.585 53.7168 135.809C53.2109 136.027 52.6504 136.137 52.0352 136.137C51.4245 136.137 50.8662 136.027 50.3604 135.809C49.859 135.585 49.4238 135.264 49.0547 134.845C48.6855 134.425 48.3984 133.917 48.1934 133.32C47.9928 132.723 47.8926 132.049 47.8926 131.297V130.75C47.8926 129.998 47.9928 129.326 48.1934 128.733C48.3939 128.136 48.6764 127.628 49.041 127.209C49.4102 126.785 49.8454 126.464 50.3467 126.245C50.8525 126.022 51.4108 125.91 52.0215 125.91C52.6367 125.91 53.1973 126.022 53.7031 126.245C54.209 126.464 54.6442 126.785 55.0088 127.209C55.3734 127.628 55.6536 128.136 55.8496 128.733C56.0501 129.326 56.1504 129.998 56.1504 130.75ZM54.4346 131.297V130.736C54.4346 130.18 54.3799 129.69 54.2705 129.267C54.1657 128.838 54.0085 128.48 53.7988 128.193C53.5938 127.902 53.3408 127.683 53.04 127.537C52.7393 127.387 52.3997 127.312 52.0215 127.312C51.6432 127.312 51.306 127.387 51.0098 127.537C50.7135 127.683 50.4606 127.902 50.251 128.193C50.0459 128.48 49.8887 128.838 49.7793 129.267C49.6699 129.69 49.6152 130.18 49.6152 130.736V131.297C49.6152 131.853 49.6699 132.345 49.7793 132.773C49.8887 133.202 50.0482 133.564 50.2578 133.86C50.472 134.152 50.7272 134.373 51.0234 134.523C51.3197 134.669 51.6569 134.742 52.0352 134.742C52.418 134.742 52.7575 134.669 53.0537 134.523C53.3499 134.373 53.6006 134.152 53.8057 133.86C54.0107 133.564 54.1657 133.202 54.2705 132.773C54.3799 132.345 54.4346 131.853 54.4346 131.297ZM63.7451 132.76H65.4541C65.3994 133.411 65.2171 133.993 64.9072 134.503C64.5973 135.009 64.1621 135.408 63.6016 135.699C63.041 135.991 62.3597 136.137 61.5576 136.137C60.9424 136.137 60.3887 136.027 59.8965 135.809C59.4043 135.585 58.9827 135.271 58.6318 134.865C58.2809 134.455 58.012 133.961 57.8252 133.382C57.6429 132.803 57.5518 132.156 57.5518 131.44V130.613C57.5518 129.898 57.6452 129.251 57.832 128.672C58.0234 128.093 58.2969 127.599 58.6523 127.188C59.0078 126.774 59.4339 126.457 59.9307 126.238C60.432 126.02 60.9948 125.91 61.6191 125.91C62.4121 125.91 63.082 126.056 63.6289 126.348C64.1758 126.639 64.5996 127.043 64.9004 127.558C65.2057 128.073 65.3926 128.663 65.4609 129.328H63.752C63.7064 128.9 63.6061 128.533 63.4512 128.228C63.3008 127.922 63.0775 127.69 62.7812 127.53C62.485 127.366 62.0977 127.284 61.6191 127.284C61.2272 127.284 60.8854 127.357 60.5938 127.503C60.3021 127.649 60.0583 127.863 59.8623 128.146C59.6663 128.428 59.5182 128.777 59.418 129.191C59.3223 129.602 59.2744 130.071 59.2744 130.6V131.44C59.2744 131.942 59.3177 132.397 59.4043 132.808C59.4954 133.213 59.6322 133.562 59.8145 133.854C60.0013 134.145 60.2383 134.371 60.5254 134.53C60.8125 134.69 61.1566 134.77 61.5576 134.77C62.0452 134.77 62.4395 134.692 62.7402 134.537C63.0456 134.382 63.2757 134.157 63.4307 133.86C63.5902 133.56 63.695 133.193 63.7451 132.76ZM68.8447 126.047V136H67.1289V126.047H68.8447ZM74.9766 127.373L72.0029 136H70.2051L73.9512 126.047H75.0996L74.9766 127.373ZM77.4648 136L74.4844 127.373L74.3545 126.047H75.5098L79.2695 136H77.4648ZM77.3213 132.309V133.669H71.9072V132.309H77.3213ZM86.6182 134.64V136H81.6211V134.64H86.6182ZM82.0996 126.047V136H80.3838V126.047H82.0996ZM95.3066 127.373L92.333 136H90.5352L94.2812 126.047H95.4297L95.3066 127.373ZM97.7949 136L94.8145 127.373L94.6846 126.047H95.8398L99.5996 136H97.7949ZM97.6514 132.309V133.669H92.2373V132.309H97.6514ZM108.609 126.047V136H106.894L102.43 128.87V136H100.714V126.047H102.43L106.907 133.19V126.047H108.609ZM113.545 136H111.419L111.433 134.64H113.545C114.16 134.64 114.675 134.505 115.09 134.236C115.509 133.967 115.824 133.582 116.033 133.081C116.247 132.58 116.354 131.983 116.354 131.29V130.75C116.354 130.212 116.293 129.736 116.17 129.321C116.051 128.907 115.874 128.558 115.637 128.275C115.404 127.993 115.117 127.779 114.775 127.633C114.438 127.487 114.049 127.414 113.606 127.414H111.378V126.047H113.606C114.267 126.047 114.871 126.159 115.418 126.382C115.965 126.601 116.437 126.917 116.833 127.332C117.234 127.747 117.542 128.243 117.756 128.822C117.97 129.401 118.077 130.048 118.077 130.764V131.29C118.077 132.006 117.97 132.653 117.756 133.231C117.542 133.81 117.234 134.307 116.833 134.722C116.432 135.132 115.953 135.449 115.397 135.672C114.846 135.891 114.229 136 113.545 136ZM112.369 126.047V136H110.653V126.047H112.369ZM16.3857 150.288H13.7949V148.928H16.3857C16.8369 148.928 17.2015 148.855 17.4795 148.709C17.7575 148.563 17.9603 148.363 18.0879 148.107C18.2201 147.848 18.2861 147.551 18.2861 147.219C18.2861 146.904 18.2201 146.61 18.0879 146.337C17.9603 146.059 17.7575 145.836 17.4795 145.667C17.2015 145.498 16.8369 145.414 16.3857 145.414H14.3213V154H12.6055V144.047H16.3857C17.1559 144.047 17.8099 144.184 18.3477 144.457C18.89 144.726 19.3024 145.1 19.585 145.578C19.8675 146.052 20.0088 146.594 20.0088 147.205C20.0088 147.848 19.8675 148.399 19.585 148.859C19.3024 149.32 18.89 149.673 18.3477 149.919C17.8099 150.165 17.1559 150.288 16.3857 150.288ZM28.0615 152.64V154H22.7773V152.64H28.0615ZM23.2627 144.047V154H21.5469V144.047H23.2627ZM27.3711 148.203V149.543H22.7773V148.203H27.3711ZM28.0273 144.047V145.414H22.7773V144.047H28.0273ZM29.4629 144.047H32.9834C33.7399 144.047 34.3848 144.161 34.918 144.389C35.4512 144.617 35.859 144.954 36.1416 145.4C36.4287 145.842 36.5723 146.389 36.5723 147.041C36.5723 147.538 36.4811 147.975 36.2988 148.354C36.1165 148.732 35.859 149.051 35.5264 149.311C35.1937 149.566 34.7972 149.764 34.3369 149.905L33.8174 150.158H30.6523L30.6387 148.798H33.0107C33.4209 148.798 33.7627 148.725 34.0361 148.579C34.3096 148.433 34.5146 148.235 34.6514 147.984C34.7926 147.729 34.8633 147.442 34.8633 147.123C34.8633 146.777 34.7949 146.476 34.6582 146.221C34.526 145.961 34.321 145.763 34.043 145.626C33.765 145.485 33.4118 145.414 32.9834 145.414H31.1787V154H29.4629V144.047ZM35.1436 154L32.8057 149.529L34.6035 149.522L36.9756 153.911V154H35.1436ZM43.5176 151.437C43.5176 151.231 43.4857 151.049 43.4219 150.89C43.3626 150.73 43.2555 150.584 43.1006 150.452C42.9456 150.32 42.7269 150.192 42.4443 150.069C42.1663 149.942 41.8109 149.812 41.3779 149.68C40.904 149.534 40.4665 149.372 40.0654 149.194C39.6689 149.012 39.3226 148.802 39.0264 148.565C38.7301 148.324 38.5 148.048 38.3359 147.738C38.1719 147.424 38.0898 147.062 38.0898 146.651C38.0898 146.246 38.1742 145.877 38.3428 145.544C38.516 145.211 38.7598 144.924 39.0742 144.683C39.3932 144.437 39.7692 144.247 40.2021 144.115C40.6351 143.979 41.1136 143.91 41.6377 143.91C42.376 143.91 43.0117 144.047 43.5449 144.32C44.0827 144.594 44.4951 144.961 44.7822 145.421C45.0739 145.881 45.2197 146.389 45.2197 146.945H43.5176C43.5176 146.617 43.4469 146.328 43.3057 146.077C43.1689 145.822 42.9593 145.621 42.6768 145.476C42.3988 145.33 42.0456 145.257 41.6172 145.257C41.2116 145.257 40.8743 145.318 40.6055 145.441C40.3366 145.564 40.1361 145.731 40.0039 145.94C39.8717 146.15 39.8057 146.387 39.8057 146.651C39.8057 146.838 39.849 147.009 39.9355 147.164C40.0221 147.314 40.1543 147.456 40.332 147.588C40.5098 147.715 40.7331 147.836 41.002 147.95C41.2708 148.064 41.5876 148.174 41.9521 148.278C42.5036 148.442 42.9844 148.625 43.3945 148.825C43.8047 149.021 44.1465 149.244 44.4199 149.495C44.6934 149.746 44.8984 150.031 45.0352 150.35C45.1719 150.664 45.2402 151.022 45.2402 151.423C45.2402 151.842 45.1559 152.22 44.9873 152.558C44.8187 152.89 44.5771 153.175 44.2627 153.412C43.9528 153.645 43.5791 153.825 43.1416 153.952C42.7087 154.075 42.2256 154.137 41.6924 154.137C41.2139 154.137 40.7422 154.073 40.2773 153.945C39.8171 153.818 39.3978 153.624 39.0195 153.364C38.6413 153.1 38.3405 152.772 38.1172 152.38C37.8939 151.983 37.7822 151.521 37.7822 150.992H39.498C39.498 151.316 39.5527 151.591 39.6621 151.819C39.776 152.047 39.9333 152.234 40.1338 152.38C40.3343 152.521 40.5667 152.626 40.8311 152.694C41.0999 152.763 41.387 152.797 41.6924 152.797C42.0934 152.797 42.4284 152.74 42.6973 152.626C42.9707 152.512 43.1758 152.353 43.3125 152.147C43.4492 151.942 43.5176 151.705 43.5176 151.437ZM54.6943 148.75V149.297C54.6943 150.049 54.5964 150.723 54.4004 151.32C54.2044 151.917 53.9242 152.425 53.5596 152.845C53.1995 153.264 52.7666 153.585 52.2607 153.809C51.7549 154.027 51.1943 154.137 50.5791 154.137C49.9684 154.137 49.4102 154.027 48.9043 153.809C48.403 153.585 47.9678 153.264 47.5986 152.845C47.2295 152.425 46.9424 151.917 46.7373 151.32C46.5368 150.723 46.4365 150.049 46.4365 149.297V148.75C46.4365 147.998 46.5368 147.326 46.7373 146.733C46.9378 146.136 47.2204 145.628 47.585 145.209C47.9541 144.785 48.3893 144.464 48.8906 144.245C49.3965 144.022 49.9548 143.91 50.5654 143.91C51.1807 143.91 51.7412 144.022 52.2471 144.245C52.7529 144.464 53.1882 144.785 53.5527 145.209C53.9173 145.628 54.1976 146.136 54.3936 146.733C54.5941 147.326 54.6943 147.998 54.6943 148.75ZM52.9785 149.297V148.736C52.9785 148.18 52.9238 147.69 52.8145 147.267C52.7096 146.838 52.5524 146.48 52.3428 146.193C52.1377 145.902 51.8848 145.683 51.584 145.537C51.2832 145.387 50.9437 145.312 50.5654 145.312C50.1872 145.312 49.8499 145.387 49.5537 145.537C49.2575 145.683 49.0046 145.902 48.7949 146.193C48.5898 146.48 48.4326 146.838 48.3232 147.267C48.2139 147.69 48.1592 148.18 48.1592 148.736V149.297C48.1592 149.853 48.2139 150.345 48.3232 150.773C48.4326 151.202 48.5921 151.564 48.8018 151.86C49.016 152.152 49.2712 152.373 49.5674 152.523C49.8636 152.669 50.2008 152.742 50.5791 152.742C50.9619 152.742 51.3014 152.669 51.5977 152.523C51.8939 152.373 52.1445 152.152 52.3496 151.86C52.5547 151.564 52.7096 151.202 52.8145 150.773C52.9238 150.345 52.9785 149.853 52.9785 149.297ZM64.3057 144.047V154H62.5898L58.126 146.87V154H56.4102V144.047H58.126L62.6035 151.19V144.047H64.3057ZM70.3486 145.373L67.375 154H65.5771L69.3232 144.047H70.4717L70.3486 145.373ZM72.8369 154L69.8564 145.373L69.7266 144.047H70.8818L74.6416 154H72.8369ZM72.6934 150.309V151.669H67.2793V150.309H72.6934ZM81.9902 152.64V154H76.9932V152.64H81.9902ZM77.4717 144.047V154H75.7559V144.047H77.4717ZM92.0391 151.437C92.0391 151.231 92.0072 151.049 91.9434 150.89C91.8841 150.73 91.777 150.584 91.6221 150.452C91.4671 150.32 91.2484 150.192 90.9658 150.069C90.6878 149.942 90.3324 149.812 89.8994 149.68C89.4255 149.534 88.988 149.372 88.5869 149.194C88.1904 149.012 87.8441 148.802 87.5479 148.565C87.2516 148.324 87.0215 148.048 86.8574 147.738C86.6934 147.424 86.6113 147.062 86.6113 146.651C86.6113 146.246 86.6956 145.877 86.8643 145.544C87.0374 145.211 87.2812 144.924 87.5957 144.683C87.9147 144.437 88.2907 144.247 88.7236 144.115C89.1566 143.979 89.6351 143.91 90.1592 143.91C90.8975 143.91 91.5332 144.047 92.0664 144.32C92.6042 144.594 93.0166 144.961 93.3037 145.421C93.5954 145.881 93.7412 146.389 93.7412 146.945H92.0391C92.0391 146.617 91.9684 146.328 91.8271 146.077C91.6904 145.822 91.4808 145.621 91.1982 145.476C90.9202 145.33 90.5671 145.257 90.1387 145.257C89.7331 145.257 89.3958 145.318 89.127 145.441C88.8581 145.564 88.6576 145.731 88.5254 145.94C88.3932 146.15 88.3271 146.387 88.3271 146.651C88.3271 146.838 88.3704 147.009 88.457 147.164C88.5436 147.314 88.6758 147.456 88.8535 147.588C89.0312 147.715 89.2546 147.836 89.5234 147.95C89.7923 148.064 90.109 148.174 90.4736 148.278C91.0251 148.442 91.5059 148.625 91.916 148.825C92.3262 149.021 92.668 149.244 92.9414 149.495C93.2148 149.746 93.4199 150.031 93.5566 150.35C93.6934 150.664 93.7617 151.022 93.7617 151.423C93.7617 151.842 93.6774 152.22 93.5088 152.558C93.3402 152.89 93.0986 153.175 92.7842 153.412C92.4743 153.645 92.1006 153.825 91.6631 153.952C91.2301 154.075 90.7471 154.137 90.2139 154.137C89.7354 154.137 89.2637 154.073 88.7988 153.945C88.3385 153.818 87.9193 153.624 87.541 153.364C87.1628 153.1 86.862 152.772 86.6387 152.38C86.4154 151.983 86.3037 151.521 86.3037 150.992H88.0195C88.0195 151.316 88.0742 151.591 88.1836 151.819C88.2975 152.047 88.4548 152.234 88.6553 152.38C88.8558 152.521 89.0882 152.626 89.3525 152.694C89.6214 152.763 89.9085 152.797 90.2139 152.797C90.6149 152.797 90.9499 152.74 91.2188 152.626C91.4922 152.512 91.6973 152.353 91.834 152.147C91.9707 151.942 92.0391 151.705 92.0391 151.437ZM101.794 152.64V154H96.5098V152.64H101.794ZM96.9951 144.047V154H95.2793V144.047H96.9951ZM101.104 148.203V149.543H96.5098V148.203H101.104ZM101.76 144.047V145.414H96.5098V144.047H101.76ZM103.195 144.047H106.716C107.472 144.047 108.117 144.161 108.65 144.389C109.184 144.617 109.591 144.954 109.874 145.4C110.161 145.842 110.305 146.389 110.305 147.041C110.305 147.538 110.214 147.975 110.031 148.354C109.849 148.732 109.591 149.051 109.259 149.311C108.926 149.566 108.53 149.764 108.069 149.905L107.55 150.158H104.385L104.371 148.798H106.743C107.153 148.798 107.495 148.725 107.769 148.579C108.042 148.433 108.247 148.235 108.384 147.984C108.525 147.729 108.596 147.442 108.596 147.123C108.596 146.777 108.527 146.476 108.391 146.221C108.258 145.961 108.053 145.763 107.775 145.626C107.497 145.485 107.144 145.414 106.716 145.414H104.911V154H103.195V144.047ZM108.876 154L106.538 149.529L108.336 149.522L110.708 153.911V154H108.876ZM115.288 152.182L117.906 144.047H119.8L116.231 154H114.953L115.288 152.182ZM112.868 144.047L115.466 152.182L115.821 154H114.536L110.981 144.047H112.868ZM122.746 144.047V154H121.03V144.047H122.746ZM130.758 150.76H132.467C132.412 151.411 132.23 151.993 131.92 152.503C131.61 153.009 131.175 153.408 130.614 153.699C130.054 153.991 129.372 154.137 128.57 154.137C127.955 154.137 127.401 154.027 126.909 153.809C126.417 153.585 125.995 153.271 125.645 152.865C125.294 152.455 125.025 151.961 124.838 151.382C124.656 150.803 124.564 150.156 124.564 149.44V148.613C124.564 147.898 124.658 147.251 124.845 146.672C125.036 146.093 125.31 145.599 125.665 145.188C126.021 144.774 126.447 144.457 126.943 144.238C127.445 144.02 128.007 143.91 128.632 143.91C129.425 143.91 130.095 144.056 130.642 144.348C131.188 144.639 131.612 145.043 131.913 145.558C132.218 146.073 132.405 146.663 132.474 147.328H130.765C130.719 146.9 130.619 146.533 130.464 146.228C130.313 145.922 130.09 145.69 129.794 145.53C129.498 145.366 129.11 145.284 128.632 145.284C128.24 145.284 127.898 145.357 127.606 145.503C127.315 145.649 127.071 145.863 126.875 146.146C126.679 146.428 126.531 146.777 126.431 147.191C126.335 147.602 126.287 148.071 126.287 148.6V149.44C126.287 149.942 126.33 150.397 126.417 150.808C126.508 151.213 126.645 151.562 126.827 151.854C127.014 152.145 127.251 152.371 127.538 152.53C127.825 152.69 128.169 152.77 128.57 152.77C129.058 152.77 129.452 152.692 129.753 152.537C130.058 152.382 130.288 152.157 130.443 151.86C130.603 151.56 130.708 151.193 130.758 150.76ZM140.54 152.64V154H135.256V152.64H140.54ZM135.741 144.047V154H134.025V144.047H135.741ZM139.85 148.203V149.543H135.256V148.203H139.85ZM140.506 144.047V145.414H135.256V144.047H140.506ZM147.178 151.437C147.178 151.231 147.146 151.049 147.082 150.89C147.023 150.73 146.916 150.584 146.761 150.452C146.606 150.32 146.387 150.192 146.104 150.069C145.826 149.942 145.471 149.812 145.038 149.68C144.564 149.534 144.127 149.372 143.726 149.194C143.329 149.012 142.983 148.802 142.687 148.565C142.39 148.324 142.16 148.048 141.996 147.738C141.832 147.424 141.75 147.062 141.75 146.651C141.75 146.246 141.834 145.877 142.003 145.544C142.176 145.211 142.42 144.924 142.734 144.683C143.053 144.437 143.429 144.247 143.862 144.115C144.295 143.979 144.774 143.91 145.298 143.91C146.036 143.91 146.672 144.047 147.205 144.32C147.743 144.594 148.155 144.961 148.442 145.421C148.734 145.881 148.88 146.389 148.88 146.945H147.178C147.178 146.617 147.107 146.328 146.966 146.077C146.829 145.822 146.619 145.621 146.337 145.476C146.059 145.33 145.706 145.257 145.277 145.257C144.872 145.257 144.535 145.318 144.266 145.441C143.997 145.564 143.796 145.731 143.664 145.94C143.532 146.15 143.466 146.387 143.466 146.651C143.466 146.838 143.509 147.009 143.596 147.164C143.682 147.314 143.814 147.456 143.992 147.588C144.17 147.715 144.393 147.836 144.662 147.95C144.931 148.064 145.248 148.174 145.612 148.278C146.164 148.442 146.645 148.625 147.055 148.825C147.465 149.021 147.807 149.244 148.08 149.495C148.354 149.746 148.559 150.031 148.695 150.35C148.832 150.664 148.9 151.022 148.9 151.423C148.9 151.842 148.816 152.22 148.647 152.558C148.479 152.89 148.237 153.175 147.923 153.412C147.613 153.645 147.239 153.825 146.802 153.952C146.369 154.075 145.886 154.137 145.353 154.137C144.874 154.137 144.402 154.073 143.938 153.945C143.477 153.818 143.058 153.624 142.68 153.364C142.301 153.1 142.001 152.772 141.777 152.38C141.554 151.983 141.442 151.521 141.442 150.992H143.158C143.158 151.316 143.213 151.591 143.322 151.819C143.436 152.047 143.593 152.234 143.794 152.38C143.994 152.521 144.227 152.626 144.491 152.694C144.76 152.763 145.047 152.797 145.353 152.797C145.754 152.797 146.089 152.74 146.357 152.626C146.631 152.512 146.836 152.353 146.973 152.147C147.109 151.942 147.178 151.705 147.178 151.437Z" fill="#002E19"/>
<g clip-path="url(#clip0_153_3802)">
<path fill-rule="evenodd" clip-rule="evenodd" d="M92.4146 61.7774L93.2243 57.9312L92.6668 57.171C92.4146 56.7149 92.3617 56.3146 92.5 55.97C92.8011 55.2251 93.4277 55.3619 94.0137 55.3619C94.6281 55.3619 95.3849 55.2149 95.5762 56.1727C95.6413 56.492 95.5599 56.8264 95.3809 57.171L94.8234 57.9312L95.3076 60.242L98.5181 56.7656L100.182 56.8163C99.6086 55.3822 98.8802 54.166 98.0339 53.0207C99.6289 53.791 101.261 54.5511 102.469 55.4937C103.238 56.0916 103.633 56.5477 103.946 57.2724C104.605 58.818 104.679 60.2014 104.776 61.8737L105.008 63.3231H95.9587L95.9668 63.3585H92.5041C92.4268 64.3467 91.971 64.9193 91.0799 65.0004H80.0977H68.9323C68.0371 64.9143 67.5814 64.3416 67.5081 63.3433L67.8174 57.242C67.9028 55.8332 68.2202 54.7183 68.737 53.867C69.0788 53.3045 69.502 52.8889 69.9699 52.5646C71.4551 51.5359 74.9219 51.2318 76.2687 49.7217L78.3317 57.2774L79.3693 52.7927L78.8607 52.0984C78.6328 51.6829 78.5799 51.318 78.7101 51.0038C78.9868 50.3247 79.5565 50.4514 80.0895 50.4514C80.647 50.4514 81.3346 50.3197 81.5096 51.1913C81.5666 51.4802 81.4933 51.7842 81.3306 52.0984L80.8219 52.7927L81.8595 57.2774L83.7272 49.7217C85.0741 51.2318 88.5449 51.5359 90.026 52.5646C90.494 52.8889 90.9212 53.3045 91.259 53.867C91.7757 54.7183 92.0931 55.8281 92.1786 57.242L92.4146 61.7774ZM61.2215 53.4514L62.605 58.5139L63.3008 55.5089L62.959 55.0426C62.8044 54.7639 62.7718 54.5207 62.8573 54.3079C63.0404 53.8518 63.4229 53.9379 63.7809 53.9379C64.1553 53.9379 64.6151 53.8518 64.7331 54.4345C64.7738 54.6271 64.7209 54.8349 64.6151 55.0426L64.2733 55.5089L64.9691 58.5139L66.2223 53.4514C66.4054 53.6541 66.6577 53.8264 66.9548 53.9734C66.853 54.242 66.7594 54.5258 66.6781 54.8197C66.4665 55.5849 66.3281 56.4362 66.2712 57.3839H66.2752C66.2752 57.4041 66.2712 57.4295 66.2712 57.4497L65.9701 63.318H63.7931H55.9562C55.354 63.2622 55.0488 62.8771 55 62.2082L55.2075 58.4886C55.2645 57.546 55.4801 56.8011 55.826 56.2285C56.0539 55.8535 56.3387 55.5747 56.652 55.3568C57.6449 54.6676 60.3182 54.4649 61.2215 53.4514ZM60.542 46.2758C60.4077 46.291 60.306 46.3264 60.2327 46.3872C60.1921 46.4227 60.1595 46.4683 60.1392 46.519C60.1147 46.5798 60.1066 46.6609 60.1066 46.747C60.1147 47.0258 60.2327 47.4008 60.4647 47.8315L60.4688 47.8416L61.2419 49.372C61.5511 49.9802 61.8726 50.6035 62.2713 51.0595C62.6497 51.4903 63.1095 51.7842 63.7199 51.7842C64.3791 51.7842 64.8592 51.4801 65.2539 51.0241C65.6649 50.5426 65.9904 49.8839 66.3118 49.2251L67.1785 47.4464C67.3535 46.9497 67.4064 46.6508 67.3494 46.5089C67.3128 46.4227 67.1704 46.3974 66.9344 46.4227C66.7839 46.4633 66.6252 46.4278 66.4583 46.3214L66.8937 44.6997C65.3027 44.6744 64.2163 44.3298 62.9264 43.3062C62.5033 42.9717 62.3771 42.5866 61.9539 42.622C61.6325 42.6981 61.3639 42.8754 61.1523 43.1643C60.9489 43.4379 60.7943 43.8129 60.6925 44.2943L60.9489 46.2352C60.8187 46.3366 60.6803 46.3467 60.542 46.2758ZM67.4308 45.7943C67.618 45.8653 67.7563 45.997 67.8377 46.2048C67.9679 46.5342 67.9191 47.0258 67.6709 47.7251C67.6668 47.7403 67.6628 47.7504 67.6546 47.7656L66.7757 49.5697C66.4339 50.269 66.0881 50.9683 65.6242 51.5106C65.14 52.0781 64.5418 52.4531 63.724 52.4481C62.959 52.4481 62.3853 52.0832 61.9132 51.546C61.4616 51.0291 61.1157 50.3704 60.7902 49.7217L60.0171 48.1913C59.7282 47.6541 59.5817 47.1677 59.5695 46.7622C59.5654 46.5646 59.5898 46.3872 59.6509 46.2352C59.7119 46.068 59.8055 45.9312 59.9357 45.8247C59.9967 45.7741 60.07 45.7285 60.1473 45.693C60.0985 44.872 60.0822 43.8585 60.1147 43.0072C60.131 42.7994 60.1636 42.5916 60.2083 42.3839C60.4077 41.5072 60.9001 40.7977 61.5145 40.3112C61.7301 40.1389 61.9661 39.997 62.2184 39.8856C63.7036 39.2166 65.6689 39.5815 66.7228 41.0004C67.1501 41.5781 67.4227 42.3433 67.4797 43.3568L67.4308 45.7943ZM75.2026 39.019C75.0317 39.0443 74.8975 39.1001 74.7998 39.1812C74.7388 39.2318 74.6899 39.3028 74.6615 39.3788C74.6289 39.47 74.6126 39.5866 74.6126 39.7183C74.6208 40.1389 74.7998 40.6913 75.1497 41.3298L75.1579 41.3399L76.3094 43.6254C76.7692 44.5376 77.2493 45.4649 77.8434 46.1389C78.409 46.7825 79.0967 47.2183 80 47.2234C80.9847 47.2285 81.7008 46.7724 82.2868 46.0933C82.9012 45.3788 83.3895 44.3906 83.8696 43.4075L85.1636 40.7521C85.424 40.0122 85.5054 39.5663 85.4199 39.3535C85.367 39.2166 85.1392 39.1862 84.7567 39.2318C84.7282 39.2369 84.6997 39.2369 84.6712 39.2318C84.5125 39.2318 84.3416 39.1812 84.1545 39.0747L84.7363 36.6524C82.36 36.617 80.7365 36.1001 78.8159 34.5697C78.1852 34.068 77.994 33.4954 77.3633 33.5511C76.8872 33.6677 76.4844 33.9312 76.167 34.3568C75.8618 34.7673 75.6299 35.3247 75.4793 36.0393L75.8903 38.9683C75.6462 39.1254 75.4183 39.1356 75.2026 39.019ZM85.5379 38.2943C85.8187 38.3957 86.0221 38.5984 86.1483 38.9075C86.3436 39.4041 86.2703 40.1339 85.9001 41.1778C85.8919 41.1981 85.8838 41.2183 85.8757 41.2335L84.5614 43.9295C84.0527 44.9734 83.536 46.0224 82.8402 46.8281C82.1159 47.6744 81.2248 48.2369 80.0041 48.2318C78.8647 48.2268 78.0062 47.6845 77.3022 46.8839C76.6268 46.1136 76.1141 45.1305 75.6258 44.1626L74.4743 41.8771C74.047 41.0815 73.8232 40.3467 73.807 39.7437C73.7988 39.4497 73.8395 39.1862 73.929 38.9531C74.0226 38.7048 74.161 38.497 74.3522 38.3399C74.4458 38.2589 74.5516 38.193 74.6696 38.1423C74.6004 36.921 74.576 35.4109 74.6208 34.1389C74.6452 33.8298 74.694 33.5207 74.7632 33.2116C75.0562 31.8991 75.7967 30.845 76.7122 30.1204C77.0337 29.867 77.3877 29.6541 77.762 29.4869C79.9756 28.4886 82.9134 29.0359 84.4841 31.1541C85.1229 32.0156 85.5257 33.1609 85.6112 34.671L85.5379 38.2943ZM89.5378 50.7707L90.555 50.7352L91.3973 50.7099C90.4126 46.9345 90.7422 43.4633 93.1144 40.5139C93.5173 42.1356 94.4165 43.4683 95.9505 44.4565C96.6829 45.1356 97.395 45.9565 98.0786 46.894C98.2007 46.2707 97.7368 45.5106 97.1712 44.7302C97.6921 45.0494 98.1722 45.5004 98.5099 46.3619C98.9046 47.3653 98.8965 48.2065 98.7703 49.296C98.7093 49.8028 98.6117 50.2741 98.4692 50.7048H99.873C101.354 46.7572 100.414 40.9041 97.3869 38.421C96.4591 37.6609 95.7918 37.6862 94.7013 37.6913C93.4521 37.6913 92.8174 37.742 91.7472 38.6187C90.1725 39.916 89.2041 42.1609 88.7972 45.2774C88.7199 46.8332 88.667 49.519 89.5378 50.7707Z" fill="#00723F"/>
</g>
<defs>
<clipPath id="clip0_153_3802">
<rect width="50" height="36" fill="white" transform="translate(55 29)"/>
</clipPath>
</defs>
</svg>
