<svg width="162" height="119" viewBox="0 0 162 119" fill="none" xmlns="http://www.w3.org/2000/svg">
<rect x="34" width="94" height="94" rx="16" fill="#E5EAE8"/>
<path d="M35.5137 112.76H37.2227C37.168 113.411 36.9857 113.993 36.6758 114.503C36.3659 115.009 35.9307 115.408 35.3701 115.699C34.8096 115.991 34.1283 116.137 33.3262 116.137C32.7109 116.137 32.1572 116.027 31.665 115.809C31.1729 115.585 30.7513 115.271 30.4004 114.865C30.0495 114.455 29.7806 113.961 29.5938 113.382C29.4115 112.803 29.3203 112.156 29.3203 111.44V110.613C29.3203 109.898 29.4137 109.251 29.6006 108.672C29.792 108.093 30.0654 107.599 30.4209 107.188C30.7764 106.774 31.2025 106.457 31.6992 106.238C32.2005 106.02 32.7633 105.91 33.3877 105.91C34.1807 105.91 34.8506 106.056 35.3975 106.348C35.9443 106.639 36.3682 107.043 36.6689 107.558C36.9743 108.073 37.1611 108.663 37.2295 109.328H35.5205C35.4749 108.9 35.3747 108.533 35.2197 108.228C35.0693 107.922 34.846 107.69 34.5498 107.53C34.2536 107.366 33.8662 107.284 33.3877 107.284C32.9958 107.284 32.654 107.357 32.3623 107.503C32.0706 107.649 31.8268 107.863 31.6309 108.146C31.4349 108.428 31.2868 108.777 31.1865 109.191C31.0908 109.602 31.043 110.071 31.043 110.6V111.44C31.043 111.942 31.0863 112.397 31.1729 112.808C31.264 113.213 31.4007 113.562 31.583 113.854C31.7699 114.145 32.0068 114.371 32.2939 114.53C32.5811 114.69 32.9251 114.77 33.3262 114.77C33.8138 114.77 34.208 114.692 34.5088 114.537C34.8141 114.382 35.0443 114.157 35.1992 113.86C35.3587 113.56 35.4635 113.193 35.5137 112.76ZM46.7178 110.75V111.297C46.7178 112.049 46.6198 112.723 46.4238 113.32C46.2279 113.917 45.9476 114.425 45.583 114.845C45.223 115.264 44.79 115.585 44.2842 115.809C43.7783 116.027 43.2178 116.137 42.6025 116.137C41.9919 116.137 41.4336 116.027 40.9277 115.809C40.4264 115.585 39.9912 115.264 39.6221 114.845C39.2529 114.425 38.9658 113.917 38.7607 113.32C38.5602 112.723 38.46 112.049 38.46 111.297V110.75C38.46 109.998 38.5602 109.326 38.7607 108.733C38.9613 108.136 39.2438 107.628 39.6084 107.209C39.9775 106.785 40.4128 106.464 40.9141 106.245C41.4199 106.022 41.9782 105.91 42.5889 105.91C43.2041 105.91 43.7646 106.022 44.2705 106.245C44.7764 106.464 45.2116 106.785 45.5762 107.209C45.9408 107.628 46.221 108.136 46.417 108.733C46.6175 109.326 46.7178 109.998 46.7178 110.75ZM45.002 111.297V110.736C45.002 110.18 44.9473 109.69 44.8379 109.267C44.7331 108.838 44.5758 108.48 44.3662 108.193C44.1611 107.902 43.9082 107.683 43.6074 107.537C43.3066 107.387 42.9671 107.312 42.5889 107.312C42.2106 107.312 41.8734 107.387 41.5771 107.537C41.2809 107.683 41.028 107.902 40.8184 108.193C40.6133 108.48 40.4561 108.838 40.3467 109.267C40.2373 109.69 40.1826 110.18 40.1826 110.736V111.297C40.1826 111.853 40.2373 112.345 40.3467 112.773C40.4561 113.202 40.6156 113.564 40.8252 113.86C41.0394 114.152 41.2946 114.373 41.5908 114.523C41.887 114.669 42.2243 114.742 42.6025 114.742C42.9854 114.742 43.3249 114.669 43.6211 114.523C43.9173 114.373 44.168 114.152 44.373 113.86C44.5781 113.564 44.7331 113.202 44.8379 112.773C44.9473 112.345 45.002 111.853 45.002 111.297ZM56.3291 106.047V116H54.6133L50.1494 108.87V116H48.4336V106.047H50.1494L54.627 113.19V106.047H56.3291ZM63.6094 113.437C63.6094 113.231 63.5775 113.049 63.5137 112.89C63.4544 112.73 63.3473 112.584 63.1924 112.452C63.0374 112.32 62.8187 112.192 62.5361 112.069C62.2581 111.942 61.9027 111.812 61.4697 111.68C60.9958 111.534 60.5583 111.372 60.1572 111.194C59.7607 111.012 59.4144 110.802 59.1182 110.565C58.8219 110.324 58.5918 110.048 58.4277 109.738C58.2637 109.424 58.1816 109.062 58.1816 108.651C58.1816 108.246 58.266 107.877 58.4346 107.544C58.6077 107.211 58.8516 106.924 59.166 106.683C59.485 106.437 59.861 106.247 60.2939 106.115C60.7269 105.979 61.2054 105.91 61.7295 105.91C62.4678 105.91 63.1035 106.047 63.6367 106.32C64.1745 106.594 64.5869 106.961 64.874 107.421C65.1657 107.881 65.3115 108.389 65.3115 108.945H63.6094C63.6094 108.617 63.5387 108.328 63.3975 108.077C63.2607 107.822 63.0511 107.621 62.7686 107.476C62.4906 107.33 62.1374 107.257 61.709 107.257C61.3034 107.257 60.9661 107.318 60.6973 107.441C60.4284 107.564 60.2279 107.731 60.0957 107.94C59.9635 108.15 59.8975 108.387 59.8975 108.651C59.8975 108.838 59.9408 109.009 60.0273 109.164C60.1139 109.314 60.2461 109.456 60.4238 109.588C60.6016 109.715 60.8249 109.836 61.0938 109.95C61.3626 110.064 61.6794 110.174 62.0439 110.278C62.5954 110.442 63.0762 110.625 63.4863 110.825C63.8965 111.021 64.2383 111.244 64.5117 111.495C64.7852 111.746 64.9902 112.031 65.127 112.35C65.2637 112.664 65.332 113.022 65.332 113.423C65.332 113.842 65.2477 114.22 65.0791 114.558C64.9105 114.89 64.6689 115.175 64.3545 115.412C64.0446 115.645 63.6709 115.825 63.2334 115.952C62.8005 116.075 62.3174 116.137 61.7842 116.137C61.3057 116.137 60.834 116.073 60.3691 115.945C59.9089 115.818 59.4896 115.624 59.1113 115.364C58.7331 115.1 58.4323 114.772 58.209 114.38C57.9857 113.983 57.874 113.521 57.874 112.992H59.5898C59.5898 113.316 59.6445 113.591 59.7539 113.819C59.8678 114.047 60.0251 114.234 60.2256 114.38C60.4261 114.521 60.6585 114.626 60.9229 114.694C61.1917 114.763 61.4788 114.797 61.7842 114.797C62.1852 114.797 62.5202 114.74 62.7891 114.626C63.0625 114.512 63.2676 114.353 63.4043 114.147C63.541 113.942 63.6094 113.705 63.6094 113.437ZM70.9443 106.047V116H69.2422V106.047H70.9443ZM74.0684 106.047V107.414H66.1455V106.047H74.0684ZM75.3809 106.047H78.9014C79.6579 106.047 80.3027 106.161 80.8359 106.389C81.3691 106.617 81.777 106.954 82.0596 107.4C82.3467 107.842 82.4902 108.389 82.4902 109.041C82.4902 109.538 82.3991 109.975 82.2168 110.354C82.0345 110.732 81.777 111.051 81.4443 111.311C81.1117 111.566 80.7152 111.764 80.2549 111.905L79.7354 112.158H76.5703L76.5566 110.798H78.9287C79.3389 110.798 79.6807 110.725 79.9541 110.579C80.2275 110.433 80.4326 110.235 80.5693 109.984C80.7106 109.729 80.7812 109.442 80.7812 109.123C80.7812 108.777 80.7129 108.476 80.5762 108.221C80.444 107.961 80.2389 107.763 79.9609 107.626C79.6829 107.485 79.3298 107.414 78.9014 107.414H77.0967V116H75.3809V106.047ZM81.0615 116L78.7236 111.529L80.5215 111.522L82.8936 115.911V116H81.0615ZM89.7842 106.047H91.4932V112.698C91.4932 113.455 91.3291 114.088 91.001 114.599C90.6729 115.109 90.2262 115.494 89.6611 115.754C89.1006 116.009 88.474 116.137 87.7812 116.137C87.0658 116.137 86.4277 116.009 85.8672 115.754C85.3066 115.494 84.8646 115.109 84.541 114.599C84.222 114.088 84.0625 113.455 84.0625 112.698V106.047H85.7715V112.698C85.7715 113.177 85.8535 113.571 86.0176 113.881C86.1816 114.186 86.4141 114.412 86.7148 114.558C87.0156 114.703 87.3711 114.776 87.7812 114.776C88.1914 114.776 88.5446 114.703 88.8408 114.558C89.1416 114.412 89.374 114.186 89.5381 113.881C89.7021 113.571 89.7842 113.177 89.7842 112.698V106.047ZM99.2383 112.76H100.947C100.893 113.411 100.71 113.993 100.4 114.503C100.09 115.009 99.6553 115.408 99.0947 115.699C98.5342 115.991 97.8529 116.137 97.0508 116.137C96.4355 116.137 95.8818 116.027 95.3896 115.809C94.8975 115.585 94.4759 115.271 94.125 114.865C93.7741 114.455 93.5052 113.961 93.3184 113.382C93.1361 112.803 93.0449 112.156 93.0449 111.44V110.613C93.0449 109.898 93.1383 109.251 93.3252 108.672C93.5166 108.093 93.79 107.599 94.1455 107.188C94.501 106.774 94.9271 106.457 95.4238 106.238C95.9251 106.02 96.488 105.91 97.1123 105.91C97.9053 105.91 98.5752 106.056 99.1221 106.348C99.6689 106.639 100.093 107.043 100.394 107.558C100.699 108.073 100.886 108.663 100.954 109.328H99.2451C99.1995 108.9 99.0993 108.533 98.9443 108.228C98.7939 107.922 98.5706 107.69 98.2744 107.53C97.9782 107.366 97.5908 107.284 97.1123 107.284C96.7204 107.284 96.3786 107.357 96.0869 107.503C95.7952 107.649 95.5514 107.863 95.3555 108.146C95.1595 108.428 95.0114 108.777 94.9111 109.191C94.8154 109.602 94.7676 110.071 94.7676 110.6V111.44C94.7676 111.942 94.8109 112.397 94.8975 112.808C94.9886 113.213 95.1253 113.562 95.3076 113.854C95.4945 114.145 95.7314 114.371 96.0186 114.53C96.3057 114.69 96.6497 114.77 97.0508 114.77C97.5384 114.77 97.9326 114.692 98.2334 114.537C98.5387 114.382 98.7689 114.157 98.9238 113.86C99.0833 113.56 99.1882 113.193 99.2383 112.76ZM106.396 106.047V116H104.693V106.047H106.396ZM109.52 106.047V107.414H101.597V106.047H109.52ZM112.664 106.047V116H110.948V106.047H112.664ZM122.733 110.75V111.297C122.733 112.049 122.635 112.723 122.439 113.32C122.243 113.917 121.963 114.425 121.599 114.845C121.239 115.264 120.806 115.585 120.3 115.809C119.794 116.027 119.233 116.137 118.618 116.137C118.007 116.137 117.449 116.027 116.943 115.809C116.442 115.585 116.007 115.264 115.638 114.845C115.269 114.425 114.981 113.917 114.776 113.32C114.576 112.723 114.476 112.049 114.476 111.297V110.75C114.476 109.998 114.576 109.326 114.776 108.733C114.977 108.136 115.259 107.628 115.624 107.209C115.993 106.785 116.428 106.464 116.93 106.245C117.436 106.022 117.994 105.91 118.604 105.91C119.22 105.91 119.78 106.022 120.286 106.245C120.792 106.464 121.227 106.785 121.592 107.209C121.956 107.628 122.237 108.136 122.433 108.733C122.633 109.326 122.733 109.998 122.733 110.75ZM121.018 111.297V110.736C121.018 110.18 120.963 109.69 120.854 109.267C120.749 108.838 120.591 108.48 120.382 108.193C120.177 107.902 119.924 107.683 119.623 107.537C119.322 107.387 118.983 107.312 118.604 107.312C118.226 107.312 117.889 107.387 117.593 107.537C117.297 107.683 117.044 107.902 116.834 108.193C116.629 108.48 116.472 108.838 116.362 109.267C116.253 109.69 116.198 110.18 116.198 110.736V111.297C116.198 111.853 116.253 112.345 116.362 112.773C116.472 113.202 116.631 113.564 116.841 113.86C117.055 114.152 117.31 114.373 117.606 114.523C117.903 114.669 118.24 114.742 118.618 114.742C119.001 114.742 119.34 114.669 119.637 114.523C119.933 114.373 120.184 114.152 120.389 113.86C120.594 113.564 120.749 113.202 120.854 112.773C120.963 112.345 121.018 111.853 121.018 111.297ZM132.345 106.047V116H130.629L126.165 108.87V116H124.449V106.047H126.165L130.643 113.19V106.047H132.345Z" fill="#002E19"/>
<g clip-path="url(#clip0_153_3828)">
<path fill-rule="evenodd" clip-rule="evenodd" d="M55.5 65.4888H61.4896V23.6666C61.4896 23.3015 61.7785 23 62.1284 23H82.4165C82.7664 23 83.0553 23.3015 83.0553 23.6666V39.3467H101.008C101.358 39.3467 101.647 39.6482 101.647 40.0134V65.4846H105.5V71H55.5V65.4888ZM66.6165 29.2924H70.7669C70.8931 29.2924 70.9989 29.4028 70.9989 29.5345V34.7824C70.9989 34.914 70.8931 35.0244 70.7669 35.0244H66.6165C66.4904 35.0244 66.3846 34.914 66.3846 34.7824V29.5345C66.3846 29.4028 66.4904 29.2924 66.6165 29.2924ZM73.6478 55.3963H77.7982C77.9243 55.3963 78.0301 55.5067 78.0301 55.6383V60.8862C78.0301 61.0179 77.9243 61.1283 77.7982 61.1283H73.6478C73.5216 61.1283 73.4159 61.0179 73.4159 60.8862V55.6383C73.4159 55.5024 73.5216 55.3963 73.6478 55.3963ZM66.6165 55.3963H70.7669C70.8931 55.3963 70.9989 55.5067 70.9989 55.6383V60.8862C70.9989 61.0179 70.8931 61.1283 70.7669 61.1283H66.6165C66.4904 61.1283 66.3846 61.0179 66.3846 60.8862V55.6383C66.3846 55.5024 66.4904 55.3963 66.6165 55.3963ZM73.6478 46.6922H77.7982C77.9243 46.6922 78.0301 46.8026 78.0301 46.9342V52.1821C78.0301 52.3138 77.9243 52.4242 77.7982 52.4242H73.6478C73.5216 52.4242 73.4159 52.3138 73.4159 52.1821V46.9384C73.4159 46.8026 73.5216 46.6922 73.6478 46.6922ZM66.6165 46.6922H70.7669C70.8931 46.6922 70.9989 46.8026 70.9989 46.9342V52.1821C70.9989 52.3138 70.8931 52.4242 70.7669 52.4242H66.6165C66.4904 52.4242 66.3846 52.3138 66.3846 52.1821V46.9384C66.3846 46.8026 66.4904 46.6922 66.6165 46.6922ZM73.6478 37.9923H77.7982C77.9243 37.9923 78.0301 38.1027 78.0301 38.2343V43.4823C78.0301 43.6139 77.9243 43.7243 77.7982 43.7243H73.6478C73.5216 43.7243 73.4159 43.6139 73.4159 43.4823V38.2343C73.4159 38.1027 73.5216 37.9923 73.6478 37.9923ZM66.6165 37.9923H70.7669C70.8931 37.9923 70.9989 38.1027 70.9989 38.2343V43.4823C70.9989 43.6139 70.8931 43.7243 70.7669 43.7243H66.6165C66.4904 43.7243 66.3846 43.6139 66.3846 43.4823V38.2343C66.3846 38.1027 66.4904 37.9923 66.6165 37.9923ZM73.6478 29.2924H77.7982C77.9243 29.2924 78.0301 29.4028 78.0301 29.5345V34.7824C78.0301 34.914 77.9243 35.0244 77.7982 35.0244H73.6478C73.5216 35.0244 73.4159 34.914 73.4159 34.7824V29.5345C73.4159 29.4028 73.5216 29.2924 73.6478 29.2924ZM64.9279 26.108H79.5438C79.7961 26.108 80.0036 26.367 80.0036 26.6812V63.1408C80.0036 63.455 79.7961 63.714 79.5438 63.714H64.9279C64.6756 63.714 64.4681 63.455 64.4681 63.1408V26.6812C64.4681 26.367 64.6756 26.108 64.9279 26.108ZM85.0451 45.6859H89.1955C89.3216 45.6859 89.4274 45.7963 89.4274 45.9279V51.1759C89.4274 51.3075 89.3216 51.4179 89.1955 51.4179H85.0451C84.9189 51.4179 84.8132 51.3075 84.8132 51.1759V45.9279C84.8132 45.7963 84.9189 45.6859 85.0451 45.6859ZM92.0763 55.3963H96.2267C96.3529 55.3963 96.4587 55.5067 96.4587 55.6383V60.8862C96.4587 61.0179 96.3529 61.1283 96.2267 61.1283H92.0763C91.9502 61.1283 91.8444 61.0179 91.8444 60.8862V55.6383C91.8444 55.5024 91.9502 55.3963 92.0763 55.3963ZM85.0451 55.3963H89.1955C89.3216 55.3963 89.4274 55.5067 89.4274 55.6383V60.8862C89.4274 61.0179 89.3216 61.1283 89.1955 61.1283H85.0451C84.9189 61.1283 84.8132 61.0179 84.8132 60.8862V55.6383C84.8132 55.5024 84.9189 55.3963 85.0451 55.3963ZM92.0763 45.6859H96.2267C96.3529 45.6859 96.4587 45.7963 96.4587 45.9279V51.1759C96.4587 51.3075 96.3529 51.4179 96.2267 51.4179H92.0763C91.9502 51.4179 91.8444 51.3075 91.8444 51.1759V45.9279C91.8444 45.7963 91.9502 45.6859 92.0763 45.6859ZM83.5192 42.4548H98.1351C98.3874 42.4548 98.5949 42.7138 98.5949 43.028V63.1408C98.5949 63.455 98.3874 63.714 98.1351 63.714H83.5192C83.2669 63.714 83.0594 63.455 83.0594 63.1408V43.028C83.0594 42.7138 83.2669 42.4548 83.5192 42.4548Z" fill="#00723F"/>
</g>
<defs>
<clipPath id="clip0_153_3828">
<rect width="50" height="48" fill="white" transform="translate(55.5 23)"/>
</clipPath>
</defs>
</svg>
