<svg width="161" height="140" viewBox="0 0 161 140" fill="none" xmlns="http://www.w3.org/2000/svg">
<rect x="33.5" width="94" height="94" rx="16" fill="#E5EAE8"/>
<path d="M14.0137 116.64V118H8.72949V116.64H14.0137ZM9.21484 108.047V118H7.49902V108.047H9.21484ZM13.3232 112.203V113.543H8.72949V112.203H13.3232ZM13.9795 108.047V109.414H8.72949V108.047H13.9795ZM21.6494 116.64V118H16.6523V116.64H21.6494ZM17.1309 108.047V118H15.415V108.047H17.1309ZM29.4902 116.64V118H24.2061V116.64H29.4902ZM24.6914 108.047V118H22.9756V108.047H24.6914ZM28.7998 112.203V113.543H24.2061V112.203H28.7998ZM29.4561 108.047V109.414H24.2061V108.047H29.4561ZM36.7705 114.76H38.4795C38.4248 115.411 38.2425 115.993 37.9326 116.503C37.6227 117.009 37.1875 117.408 36.627 117.699C36.0664 117.991 35.3851 118.137 34.583 118.137C33.9678 118.137 33.4141 118.027 32.9219 117.809C32.4297 117.585 32.0081 117.271 31.6572 116.865C31.3063 116.455 31.0374 115.961 30.8506 115.382C30.6683 114.803 30.5771 114.156 30.5771 113.44V112.613C30.5771 111.898 30.6706 111.251 30.8574 110.672C31.0488 110.093 31.3223 109.599 31.6777 109.188C32.0332 108.774 32.4593 108.457 32.9561 108.238C33.4574 108.02 34.0202 107.91 34.6445 107.91C35.4375 107.91 36.1074 108.056 36.6543 108.348C37.2012 108.639 37.625 109.043 37.9258 109.558C38.2311 110.073 38.418 110.663 38.4863 111.328H36.7773C36.7318 110.9 36.6315 110.533 36.4766 110.228C36.3262 109.922 36.1029 109.69 35.8066 109.53C35.5104 109.366 35.123 109.284 34.6445 109.284C34.2526 109.284 33.9108 109.357 33.6191 109.503C33.3275 109.649 33.0837 109.863 32.8877 110.146C32.6917 110.428 32.5436 110.777 32.4434 111.191C32.3477 111.602 32.2998 112.071 32.2998 112.6V113.44C32.2998 113.942 32.3431 114.397 32.4297 114.808C32.5208 115.213 32.6576 115.562 32.8398 115.854C33.0267 116.145 33.2637 116.371 33.5508 116.53C33.8379 116.69 34.182 116.77 34.583 116.77C35.0706 116.77 35.4648 116.692 35.7656 116.537C36.071 116.382 36.3011 116.157 36.4561 115.86C36.6156 115.56 36.7204 115.193 36.7705 114.76ZM43.9277 108.047V118H42.2256V108.047H43.9277ZM47.0518 108.047V109.414H39.1289V108.047H47.0518ZM48.3643 108.047H51.8848C52.6413 108.047 53.2861 108.161 53.8193 108.389C54.3525 108.617 54.7604 108.954 55.043 109.4C55.3301 109.842 55.4736 110.389 55.4736 111.041C55.4736 111.538 55.3825 111.975 55.2002 112.354C55.0179 112.732 54.7604 113.051 54.4277 113.311C54.0951 113.566 53.6986 113.764 53.2383 113.905L52.7188 114.158H49.5537L49.54 112.798H51.9121C52.3223 112.798 52.6641 112.725 52.9375 112.579C53.2109 112.433 53.416 112.235 53.5527 111.984C53.694 111.729 53.7646 111.442 53.7646 111.123C53.7646 110.777 53.6963 110.476 53.5596 110.221C53.4274 109.961 53.2223 109.763 52.9443 109.626C52.6663 109.485 52.3132 109.414 51.8848 109.414H50.0801V118H48.3643V108.047ZM54.0449 118L51.707 113.529L53.5049 113.522L55.877 117.911V118H54.0449ZM59.0146 108.047V118H57.2988V108.047H59.0146ZM67.0264 114.76H68.7354C68.6807 115.411 68.4984 115.993 68.1885 116.503C67.8786 117.009 67.4434 117.408 66.8828 117.699C66.3223 117.991 65.641 118.137 64.8389 118.137C64.2236 118.137 63.6699 118.027 63.1777 117.809C62.6855 117.585 62.264 117.271 61.9131 116.865C61.5622 116.455 61.2933 115.961 61.1064 115.382C60.9242 114.803 60.833 114.156 60.833 113.44V112.613C60.833 111.898 60.9264 111.251 61.1133 110.672C61.3047 110.093 61.5781 109.599 61.9336 109.188C62.2891 108.774 62.7152 108.457 63.2119 108.238C63.7132 108.02 64.276 107.91 64.9004 107.91C65.6934 107.91 66.3633 108.056 66.9102 108.348C67.457 108.639 67.8809 109.043 68.1816 109.558C68.487 110.073 68.6738 110.663 68.7422 111.328H67.0332C66.9876 110.9 66.8874 110.533 66.7324 110.228C66.582 109.922 66.3587 109.69 66.0625 109.53C65.7663 109.366 65.3789 109.284 64.9004 109.284C64.5085 109.284 64.1667 109.357 63.875 109.503C63.5833 109.649 63.3395 109.863 63.1436 110.146C62.9476 110.428 62.7995 110.777 62.6992 111.191C62.6035 111.602 62.5557 112.071 62.5557 112.6V113.44C62.5557 113.942 62.599 114.397 62.6855 114.808C62.7767 115.213 62.9134 115.562 63.0957 115.854C63.2826 116.145 63.5195 116.371 63.8066 116.53C64.0938 116.69 64.4378 116.77 64.8389 116.77C65.3265 116.77 65.7207 116.692 66.0215 116.537C66.3268 116.382 66.557 116.157 66.7119 115.86C66.8714 115.56 66.9762 115.193 67.0264 114.76ZM72.126 108.047V118H70.4102V108.047H72.126ZM78.1484 108.047V118H76.4463V108.047H78.1484ZM81.2725 108.047V109.414H73.3496V108.047H81.2725ZM83.6445 108.047L85.9551 112.798L88.2656 108.047H90.166L86.8164 114.336V118H85.0869V114.336L81.7373 108.047H83.6445ZM91.1299 116.414L91.123 117.59C91.123 118.055 91.0068 118.533 90.7744 119.025C90.542 119.518 90.2344 119.923 89.8516 120.242L88.9697 119.729C89.0973 119.524 89.2135 119.317 89.3184 119.107C89.4232 118.898 89.5075 118.674 89.5713 118.438C89.6351 118.201 89.667 117.938 89.667 117.651V116.414H91.1299ZM104.009 112.914V116.715C103.868 116.902 103.646 117.107 103.346 117.33C103.049 117.549 102.655 117.738 102.163 117.897C101.671 118.057 101.058 118.137 100.324 118.137C99.6999 118.137 99.1279 118.032 98.6084 117.822C98.0889 117.608 97.64 117.296 97.2617 116.886C96.888 116.476 96.5986 115.977 96.3936 115.389C96.1885 114.796 96.0859 114.122 96.0859 113.365V112.675C96.0859 111.923 96.1794 111.253 96.3662 110.665C96.5576 110.073 96.8311 109.571 97.1865 109.161C97.542 108.751 97.9704 108.441 98.4717 108.231C98.9775 108.017 99.5495 107.91 100.188 107.91C101.003 107.91 101.678 108.047 102.211 108.32C102.749 108.589 103.163 108.963 103.455 109.441C103.747 109.92 103.931 110.467 104.009 111.082H102.327C102.272 110.736 102.165 110.426 102.006 110.152C101.851 109.879 101.628 109.665 101.336 109.51C101.049 109.35 100.675 109.271 100.215 109.271C99.8184 109.271 99.4697 109.346 99.1689 109.496C98.8682 109.646 98.6175 109.868 98.417 110.159C98.221 110.451 98.0729 110.806 97.9727 111.226C97.8724 111.645 97.8223 112.123 97.8223 112.661V113.365C97.8223 113.912 97.8792 114.397 97.9932 114.821C98.1117 115.245 98.2803 115.603 98.499 115.895C98.7223 116.186 98.9935 116.407 99.3125 116.558C99.6315 116.703 99.9915 116.776 100.393 116.776C100.785 116.776 101.106 116.744 101.356 116.681C101.607 116.612 101.805 116.533 101.951 116.441C102.102 116.346 102.218 116.255 102.3 116.168V114.192H100.229V112.914H104.009ZM109.785 109.373L106.812 118H105.014L108.76 108.047H109.908L109.785 109.373ZM112.273 118L109.293 109.373L109.163 108.047H110.318L114.078 118H112.273ZM112.13 114.309V115.669H106.716V114.309H112.13ZM120.429 115.437C120.429 115.231 120.397 115.049 120.333 114.89C120.274 114.73 120.167 114.584 120.012 114.452C119.857 114.32 119.638 114.192 119.355 114.069C119.077 113.942 118.722 113.812 118.289 113.68C117.815 113.534 117.378 113.372 116.977 113.194C116.58 113.012 116.234 112.802 115.938 112.565C115.641 112.324 115.411 112.048 115.247 111.738C115.083 111.424 115.001 111.062 115.001 110.651C115.001 110.246 115.085 109.877 115.254 109.544C115.427 109.211 115.671 108.924 115.985 108.683C116.304 108.437 116.68 108.247 117.113 108.115C117.546 107.979 118.025 107.91 118.549 107.91C119.287 107.91 119.923 108.047 120.456 108.32C120.994 108.594 121.406 108.961 121.693 109.421C121.985 109.881 122.131 110.389 122.131 110.945H120.429C120.429 110.617 120.358 110.328 120.217 110.077C120.08 109.822 119.87 109.621 119.588 109.476C119.31 109.33 118.957 109.257 118.528 109.257C118.123 109.257 117.785 109.318 117.517 109.441C117.248 109.564 117.047 109.731 116.915 109.94C116.783 110.15 116.717 110.387 116.717 110.651C116.717 110.838 116.76 111.009 116.847 111.164C116.933 111.314 117.065 111.456 117.243 111.588C117.421 111.715 117.644 111.836 117.913 111.95C118.182 112.064 118.499 112.174 118.863 112.278C119.415 112.442 119.896 112.625 120.306 112.825C120.716 113.021 121.058 113.244 121.331 113.495C121.604 113.746 121.81 114.031 121.946 114.35C122.083 114.664 122.151 115.022 122.151 115.423C122.151 115.842 122.067 116.22 121.898 116.558C121.73 116.89 121.488 117.175 121.174 117.412C120.864 117.645 120.49 117.825 120.053 117.952C119.62 118.075 119.137 118.137 118.604 118.137C118.125 118.137 117.653 118.073 117.188 117.945C116.728 117.818 116.309 117.624 115.931 117.364C115.552 117.1 115.252 116.772 115.028 116.38C114.805 115.983 114.693 115.521 114.693 114.992H116.409C116.409 115.316 116.464 115.591 116.573 115.819C116.687 116.047 116.844 116.234 117.045 116.38C117.245 116.521 117.478 116.626 117.742 116.694C118.011 116.763 118.298 116.797 118.604 116.797C119.005 116.797 119.34 116.74 119.608 116.626C119.882 116.512 120.087 116.353 120.224 116.147C120.36 115.942 120.429 115.705 120.429 115.437ZM131.031 109.373L128.058 118H126.26L130.006 108.047H131.154L131.031 109.373ZM133.52 118L130.539 109.373L130.409 108.047H131.564L135.324 118H133.52ZM133.376 114.309V115.669H127.962V114.309H133.376ZM144.334 108.047V118H142.618L138.154 110.87V118H136.438V108.047H138.154L142.632 115.19V108.047H144.334ZM149.27 118H147.144L147.157 116.64H149.27C149.885 116.64 150.4 116.505 150.814 116.236C151.234 115.967 151.548 115.582 151.758 115.081C151.972 114.58 152.079 113.983 152.079 113.29V112.75C152.079 112.212 152.018 111.736 151.895 111.321C151.776 110.907 151.598 110.558 151.361 110.275C151.129 109.993 150.842 109.779 150.5 109.633C150.163 109.487 149.773 109.414 149.331 109.414H147.103V108.047H149.331C149.992 108.047 150.596 108.159 151.143 108.382C151.689 108.601 152.161 108.917 152.558 109.332C152.959 109.747 153.266 110.243 153.48 110.822C153.695 111.401 153.802 112.048 153.802 112.764V113.29C153.802 114.006 153.695 114.653 153.48 115.231C153.266 115.81 152.959 116.307 152.558 116.722C152.157 117.132 151.678 117.449 151.122 117.672C150.571 117.891 149.953 118 149.27 118ZM148.094 108.047V118H146.378V108.047H148.094ZM34.4531 133.765L36.4355 126.047H37.4746L37.3584 128.036L35.2393 136H34.1592L34.4531 133.765ZM32.9697 126.047L34.5762 133.703L34.7197 136H33.5713L31.2676 126.047H32.9697ZM39.7236 133.683L41.3096 126.047H43.0186L40.7148 136H39.5664L39.7236 133.683ZM37.8779 126.047L39.8398 133.785L40.127 136H39.0469L36.9619 128.036L36.8525 126.047H37.8779ZM47.8652 127.373L44.8916 136H43.0938L46.8398 126.047H47.9883L47.8652 127.373ZM50.3535 136L47.373 127.373L47.2432 126.047H48.3984L52.1582 136H50.3535ZM50.21 132.309V133.669H44.7959V132.309H50.21ZM56.5059 126.047V136H54.8037V126.047H56.5059ZM59.6299 126.047V127.414H51.707V126.047H59.6299ZM67.457 134.64V136H62.1729V134.64H67.457ZM62.6582 126.047V136H60.9424V126.047H62.6582ZM66.7666 130.203V131.543H62.1729V130.203H66.7666ZM67.4229 126.047V127.414H62.1729V126.047H67.4229ZM68.8584 126.047H72.3789C73.1354 126.047 73.7803 126.161 74.3135 126.389C74.8467 126.617 75.2546 126.954 75.5371 127.4C75.8242 127.842 75.9678 128.389 75.9678 129.041C75.9678 129.538 75.8766 129.975 75.6943 130.354C75.512 130.732 75.2546 131.051 74.9219 131.311C74.5892 131.566 74.1927 131.764 73.7324 131.905L73.2129 132.158H70.0479L70.0342 130.798H72.4062C72.8164 130.798 73.1582 130.725 73.4316 130.579C73.7051 130.433 73.9102 130.235 74.0469 129.984C74.1882 129.729 74.2588 129.442 74.2588 129.123C74.2588 128.777 74.1904 128.476 74.0537 128.221C73.9215 127.961 73.7165 127.763 73.4385 127.626C73.1605 127.485 72.8073 127.414 72.3789 127.414H70.5742V136H68.8584V126.047ZM74.5391 136L72.2012 131.529L73.999 131.522L76.3711 135.911V136H74.5391ZM86.3994 133.437C86.3994 133.231 86.3675 133.049 86.3037 132.89C86.2445 132.73 86.1374 132.584 85.9824 132.452C85.8275 132.32 85.6087 132.192 85.3262 132.069C85.0482 131.942 84.6927 131.812 84.2598 131.68C83.7858 131.534 83.3483 131.372 82.9473 131.194C82.5508 131.012 82.2044 130.802 81.9082 130.565C81.612 130.324 81.3818 130.048 81.2178 129.738C81.0537 129.424 80.9717 129.062 80.9717 128.651C80.9717 128.246 81.056 127.877 81.2246 127.544C81.3978 127.211 81.6416 126.924 81.9561 126.683C82.2751 126.437 82.651 126.247 83.084 126.115C83.5169 125.979 83.9954 125.91 84.5195 125.91C85.2578 125.91 85.8936 126.047 86.4268 126.32C86.9645 126.594 87.377 126.961 87.6641 127.421C87.9557 127.881 88.1016 128.389 88.1016 128.945H86.3994C86.3994 128.617 86.3288 128.328 86.1875 128.077C86.0508 127.822 85.8411 127.621 85.5586 127.476C85.2806 127.33 84.9274 127.257 84.499 127.257C84.0934 127.257 83.7562 127.318 83.4873 127.441C83.2184 127.564 83.0179 127.731 82.8857 127.94C82.7536 128.15 82.6875 128.387 82.6875 128.651C82.6875 128.838 82.7308 129.009 82.8174 129.164C82.904 129.314 83.0361 129.456 83.2139 129.588C83.3916 129.715 83.6149 129.836 83.8838 129.95C84.1527 130.064 84.4694 130.174 84.834 130.278C85.3854 130.442 85.8662 130.625 86.2764 130.825C86.6865 131.021 87.0283 131.244 87.3018 131.495C87.5752 131.746 87.7803 132.031 87.917 132.35C88.0537 132.664 88.1221 133.022 88.1221 133.423C88.1221 133.842 88.0378 134.22 87.8691 134.558C87.7005 134.89 87.459 135.175 87.1445 135.412C86.8346 135.645 86.4609 135.825 86.0234 135.952C85.5905 136.075 85.1074 136.137 84.5742 136.137C84.0957 136.137 83.624 136.073 83.1592 135.945C82.6989 135.818 82.2796 135.624 81.9014 135.364C81.5231 135.1 81.2223 134.772 80.999 134.38C80.7757 133.983 80.6641 133.521 80.6641 132.992H82.3799C82.3799 133.316 82.4346 133.591 82.5439 133.819C82.6579 134.047 82.8151 134.234 83.0156 134.38C83.2161 134.521 83.4486 134.626 83.7129 134.694C83.9818 134.763 84.2689 134.797 84.5742 134.797C84.9753 134.797 85.3102 134.74 85.5791 134.626C85.8525 134.512 86.0576 134.353 86.1943 134.147C86.3311 133.942 86.3994 133.705 86.3994 133.437ZM95.2246 126.047H96.9336V132.698C96.9336 133.455 96.7695 134.088 96.4414 134.599C96.1133 135.109 95.6667 135.494 95.1016 135.754C94.541 136.009 93.9144 136.137 93.2217 136.137C92.5062 136.137 91.8682 136.009 91.3076 135.754C90.7471 135.494 90.305 135.109 89.9814 134.599C89.6624 134.088 89.5029 133.455 89.5029 132.698V126.047H91.2119V132.698C91.2119 133.177 91.2939 133.571 91.458 133.881C91.6221 134.186 91.8545 134.412 92.1553 134.558C92.4561 134.703 92.8115 134.776 93.2217 134.776C93.6318 134.776 93.985 134.703 94.2812 134.558C94.582 134.412 94.8145 134.186 94.9785 133.881C95.1426 133.571 95.2246 133.177 95.2246 132.698V126.047ZM102.58 132.288H99.9893V130.928H102.58C103.031 130.928 103.396 130.855 103.674 130.709C103.952 130.563 104.155 130.363 104.282 130.107C104.414 129.848 104.48 129.551 104.48 129.219C104.48 128.904 104.414 128.61 104.282 128.337C104.155 128.059 103.952 127.836 103.674 127.667C103.396 127.498 103.031 127.414 102.58 127.414H100.516V136H98.7998V126.047H102.58C103.35 126.047 104.004 126.184 104.542 126.457C105.084 126.726 105.497 127.1 105.779 127.578C106.062 128.052 106.203 128.594 106.203 129.205C106.203 129.848 106.062 130.399 105.779 130.859C105.497 131.32 105.084 131.673 104.542 131.919C104.004 132.165 103.35 132.288 102.58 132.288ZM111.521 132.288H108.931V130.928H111.521C111.973 130.928 112.337 130.855 112.615 130.709C112.893 130.563 113.096 130.363 113.224 130.107C113.356 129.848 113.422 129.551 113.422 129.219C113.422 128.904 113.356 128.61 113.224 128.337C113.096 128.059 112.893 127.836 112.615 127.667C112.337 127.498 111.973 127.414 111.521 127.414H109.457V136H107.741V126.047H111.521C112.292 126.047 112.946 126.184 113.483 126.457C114.026 126.726 114.438 127.1 114.721 127.578C115.003 128.052 115.145 128.594 115.145 129.205C115.145 129.848 115.003 130.399 114.721 130.859C114.438 131.32 114.026 131.673 113.483 131.919C112.946 132.165 112.292 132.288 111.521 132.288ZM122.917 134.64V136H117.92V134.64H122.917ZM118.398 126.047V136H116.683V126.047H118.398ZM123.457 126.047L125.768 130.798L128.078 126.047H129.979L126.629 132.336V136H124.899V132.336L121.55 126.047H123.457Z" fill="#002E19"/>
<g clip-path="url(#clip0_153_3855)">
<path d="M71.1807 55.889C69.9786 54.497 68.7348 53.05 67.7497 50.9218C66.7856 48.8232 66.2513 46.6569 66.268 44.406C66.2889 42.1551 66.8523 39.8365 68.0795 37.4418C68.0878 37.4249 68.0962 37.4122 68.1045 37.3953C69.7115 34.6366 71.9612 32.7919 74.4656 31.7595C76.5651 30.888 78.8482 30.5918 81.0854 30.7991C83.3143 31.0064 85.4973 31.7172 87.4048 32.8596C89.8298 34.3151 91.8249 36.4729 92.9227 39.1977C93.5154 40.6743 93.9161 42.3201 93.9662 44.1226C94.0163 45.9207 93.7116 47.8585 92.8935 49.9064C91.6413 53.05 88.7154 56.4179 86.7995 59.5107C86.6952 59.4896 86.5867 59.4854 86.4781 59.5023L83.8945 59.8915L87.8305 46.0138C87.9432 45.6203 87.7136 45.2099 87.3255 45.0957C86.9373 44.9857 86.5324 45.2142 86.4197 45.6076L82.3 60.1369L78.3933 60.7251L74.2652 47.4227C74.5616 47.482 74.8746 47.3508 75.0374 47.0716L77.9633 42.024L79.4534 45.4892C79.6162 45.8657 80.0461 46.035 80.4134 45.8742C80.5971 45.7938 80.7306 45.6415 80.8016 45.468L82.1206 42.0917L83.6649 46.2211C83.8068 46.6062 84.2284 46.7966 84.6082 46.6527C84.9881 46.5089 85.1759 46.0815 85.034 45.6965L82.8343 39.8154C82.7717 39.6081 82.6173 39.4304 82.4044 39.3457C82.0287 39.1934 81.603 39.3838 81.4527 39.7646L80.0879 43.2637L78.7272 40.0989C78.6687 39.9592 78.5644 39.8365 78.4266 39.7562C78.0802 39.5488 77.6294 39.6673 77.4291 40.0185L73.8729 46.1534L73.6183 45.3369C73.4972 44.9476 73.0882 44.7276 72.7042 44.8503C72.3202 44.973 72.1031 45.3876 72.2242 45.7769L76.9282 60.9451L74.0983 61.3724C73.4138 59.3204 72.3703 57.2725 71.1807 55.889ZM61.9522 28.8232C61.6224 28.5101 61.4471 28.0913 61.4304 27.6682C61.4137 27.2451 61.5598 26.8135 61.8645 26.4792C62.1734 26.145 62.5866 25.9673 63.004 25.9504C63.4214 25.9334 63.8471 26.0815 64.1769 26.3904L66.7981 28.8655C67.1278 29.1786 67.3031 29.5975 67.3198 30.0206C67.3365 30.4479 67.1904 30.8753 66.8857 31.2095C66.5769 31.5438 66.1637 31.7215 65.7463 31.7384C65.3247 31.7553 64.9031 31.6072 64.5734 31.2984L61.9522 28.8232ZM57.6655 47.0885C57.2231 47.097 56.8182 46.9235 56.5177 46.64C56.213 46.3481 56.0168 45.9419 56.0001 45.4807C55.9834 45.0238 56.1546 44.6007 56.4426 44.2918C56.7306 43.9829 57.1313 43.7841 57.5862 43.7714L61.1633 43.6487C61.6141 43.6318 62.0315 43.8052 62.3362 44.0972C62.6409 44.3891 62.837 44.7953 62.8496 45.2565V45.2819H62.8537L62.8496 45.3411C62.8412 45.7684 62.6742 46.1534 62.4071 46.4454C62.1191 46.7542 61.7184 46.9489 61.2635 46.9658H61.2384V46.97H61.2009L57.6655 47.0885ZM102.21 41.9478L102.264 41.9436C102.69 41.9182 103.086 42.0578 103.395 42.3117C103.721 42.5782 103.942 42.976 103.992 43.4287V43.4456C103.996 43.4456 103.996 43.4921 103.996 43.5006C104.021 43.9322 103.883 44.3341 103.633 44.6472C103.37 44.9772 102.978 45.2015 102.531 45.2522L98.9707 45.633C98.5199 45.6796 98.0942 45.5357 97.7728 45.2692C97.4472 45.0026 97.2218 44.6049 97.1759 44.1522C97.13 43.6995 97.2719 43.2637 97.5349 42.9379C97.7978 42.6079 98.1902 42.3794 98.6368 42.3328C99.8264 42.2017 101.02 42.0621 102.21 41.9478ZM95.1557 27.5031C95.4103 27.1224 95.786 26.8854 96.195 26.8008C96.6041 26.7204 97.0424 26.7966 97.4222 27.0504L97.4264 27.0547C97.802 27.3085 98.0399 27.6935 98.1192 28.1082C98.1985 28.5228 98.1234 28.9671 97.873 29.3521L95.882 32.3688C95.6316 32.7496 95.2517 32.9908 94.8385 33.0754C94.4295 33.1558 93.9912 33.0796 93.6114 32.8258C93.2357 32.5719 92.9978 32.1826 92.9143 31.768C92.835 31.3534 92.9102 30.9091 93.1606 30.5241L95.1557 27.5031ZM79.6955 22.6206C79.708 22.1594 79.9 21.749 80.2047 21.457C80.5011 21.1693 80.9101 20.9958 81.3526 21.0001V20.9958C81.3901 20.9958 81.4277 21.0001 81.4653 21.0043C81.8785 21.0382 82.25 21.2286 82.5171 21.512C82.8009 21.8124 82.9721 22.2228 82.9679 22.6756H82.9721C82.9721 22.7052 82.9721 22.7348 82.9679 22.7602L82.8802 26.3015H82.8844C82.8844 26.3396 82.8802 26.3777 82.8761 26.4158C82.8427 26.8389 82.6548 27.2112 82.3752 27.482C82.0747 27.7697 81.6698 27.9432 81.2273 27.9389V27.9432C81.1898 27.9432 81.1522 27.9389 81.1147 27.9347C80.6973 27.9009 80.33 27.7105 80.0628 27.427C79.779 27.1224 79.6079 26.7119 79.612 26.2635H79.6079C79.6079 26.2338 79.6079 26.2042 79.612 26.1788L79.6955 22.6206ZM85.8103 61.5501L85.5474 62.7982L85.4806 63.6868L74.908 65.2819C74.8705 64.643 74.7703 63.9533 74.6117 63.2383L85.8103 61.5501ZM85.4597 65.633L85.4681 66.1704L85.4806 66.3565C85.5098 66.7077 85.514 67.0631 85.4931 67.4143L85.3345 68.1886L75.5132 69.6694L75.3421 69.2717L74.9581 67.6808L74.9498 67.2197L85.4597 65.633ZM84.6875 70.2279C84.1783 71.1122 83.4771 71.8018 82.6757 72.2715C81.962 72.6946 81.1647 72.9358 80.3675 72.9865C79.5578 73.0373 78.7397 72.8807 77.9926 72.5169C77.4833 72.263 77.0075 71.9118 76.5859 71.4549L84.6875 70.2279Z" fill="#00723F"/>
</g>
<defs>
<clipPath id="clip0_153_3855">
<rect width="48" height="52" fill="white" transform="translate(56 21)"/>
</clipPath>
</defs>
</svg>
