<svg width="162" height="119" viewBox="0 0 162 119" fill="none" xmlns="http://www.w3.org/2000/svg">
<rect x="34" width="94" height="94" rx="16" fill="#E5EAE8"/>
<path d="M55.0264 114.64V116H49.7422V114.64H55.0264ZM50.2275 106.047V116H48.5117V106.047H50.2275ZM54.3359 110.203V111.543H49.7422V110.203H54.3359ZM54.9922 106.047V107.414H49.7422V106.047H54.9922ZM57.7334 106.047L59.8457 109.677L61.958 106.047H63.9336L60.9258 110.976L64.0088 116H62.0127L59.8457 112.302L57.6787 116H55.6758L58.7656 110.976L55.751 106.047H57.7334ZM69.0537 112.288H66.4629V110.928H69.0537C69.5049 110.928 69.8695 110.855 70.1475 110.709C70.4255 110.563 70.6283 110.363 70.7559 110.107C70.888 109.848 70.9541 109.551 70.9541 109.219C70.9541 108.904 70.888 108.61 70.7559 108.337C70.6283 108.059 70.4255 107.836 70.1475 107.667C69.8695 107.498 69.5049 107.414 69.0537 107.414H66.9893V116H65.2734V106.047H69.0537C69.8239 106.047 70.4779 106.184 71.0156 106.457C71.5579 106.726 71.9704 107.1 72.2529 107.578C72.5355 108.052 72.6768 108.594 72.6768 109.205C72.6768 109.848 72.5355 110.399 72.2529 110.859C71.9704 111.32 71.5579 111.673 71.0156 111.919C70.4779 112.165 69.8239 112.288 69.0537 112.288ZM82.1514 110.75V111.297C82.1514 112.049 82.0534 112.723 81.8574 113.32C81.6615 113.917 81.3812 114.425 81.0166 114.845C80.6566 115.264 80.2236 115.585 79.7178 115.809C79.2119 116.027 78.6514 116.137 78.0361 116.137C77.4255 116.137 76.8672 116.027 76.3613 115.809C75.86 115.585 75.4248 115.264 75.0557 114.845C74.6865 114.425 74.3994 113.917 74.1943 113.32C73.9938 112.723 73.8936 112.049 73.8936 111.297V110.75C73.8936 109.998 73.9938 109.326 74.1943 108.733C74.3949 108.136 74.6774 107.628 75.042 107.209C75.4111 106.785 75.8464 106.464 76.3477 106.245C76.8535 106.022 77.4118 105.91 78.0225 105.91C78.6377 105.91 79.1982 106.022 79.7041 106.245C80.21 106.464 80.6452 106.785 81.0098 107.209C81.3743 107.628 81.6546 108.136 81.8506 108.733C82.0511 109.326 82.1514 109.998 82.1514 110.75ZM80.4355 111.297V110.736C80.4355 110.18 80.3809 109.69 80.2715 109.267C80.1667 108.838 80.0094 108.48 79.7998 108.193C79.5947 107.902 79.3418 107.683 79.041 107.537C78.7402 107.387 78.4007 107.312 78.0225 107.312C77.6442 107.312 77.307 107.387 77.0107 107.537C76.7145 107.683 76.4616 107.902 76.252 108.193C76.0469 108.48 75.8896 108.838 75.7803 109.267C75.6709 109.69 75.6162 110.18 75.6162 110.736V111.297C75.6162 111.853 75.6709 112.345 75.7803 112.773C75.8896 113.202 76.0492 113.564 76.2588 113.86C76.473 114.152 76.7282 114.373 77.0244 114.523C77.3206 114.669 77.6579 114.742 78.0361 114.742C78.4189 114.742 78.7585 114.669 79.0547 114.523C79.3509 114.373 79.6016 114.152 79.8066 113.86C80.0117 113.564 80.1667 113.202 80.2715 112.773C80.3809 112.345 80.4355 111.853 80.4355 111.297ZM83.8672 106.047H87.3877C88.1442 106.047 88.7891 106.161 89.3223 106.389C89.8555 106.617 90.2633 106.954 90.5459 107.4C90.833 107.842 90.9766 108.389 90.9766 109.041C90.9766 109.538 90.8854 109.975 90.7031 110.354C90.5208 110.732 90.2633 111.051 89.9307 111.311C89.598 111.566 89.2015 111.764 88.7412 111.905L88.2217 112.158H85.0566L85.043 110.798H87.415C87.8252 110.798 88.167 110.725 88.4404 110.579C88.7139 110.433 88.9189 110.235 89.0557 109.984C89.1969 109.729 89.2676 109.442 89.2676 109.123C89.2676 108.777 89.1992 108.476 89.0625 108.221C88.9303 107.961 88.7253 107.763 88.4473 107.626C88.1693 107.485 87.8161 107.414 87.3877 107.414H85.583V116H83.8672V106.047ZM89.5479 116L87.21 111.529L89.0078 111.522L91.3799 115.911V116H89.5479ZM96.3154 106.047V116H94.6133V106.047H96.3154ZM99.4395 106.047V107.414H91.5166V106.047H99.4395Z" fill="#002E19"/>
<g clip-path="url(#clip0_153_3862)">
<path fill-rule="evenodd" clip-rule="evenodd" d="M75.3339 41.3237L99.5059 45.7386L81.8008 33.4502C81.3597 33.7106 80.8498 33.8815 80.3278 33.9303C79.7733 33.9832 79.1987 33.9059 78.6726 33.6699L60.7045 43.8384V69.8353L56.7911 69.1639C56.6454 69.1395 56.524 69.0418 56.524 68.8953V44.5627C56.4229 44.0988 56.6333 43.6024 57.0704 43.3623L77.0903 32.022C76.8151 31.3831 76.6775 30.5734 76.7422 29.5684L78.5795 29.6823C78.531 30.431 78.6281 30.9762 78.8142 31.3587C79.1258 31.4198 79.4091 31.611 79.571 31.9121C79.5953 31.9609 79.6196 32.0098 79.6357 32.0586C79.7814 32.0952 79.9352 32.1074 80.085 32.0993C79.9109 31.7534 79.9271 31.3221 80.1618 30.9803C80.3804 30.6589 80.7405 30.492 81.1048 30.5042C81.04 30.4269 80.9672 30.3659 80.8984 30.3048C80.4168 29.8776 79.9514 29.4626 79.83 28.0954L79.826 28.0913L79.8138 27.9692C78.9316 27.6152 78.3043 26.7445 78.3043 25.7313C78.3043 24.7344 78.9073 23.8758 79.7693 23.5096V22H81.6106V23.5055C82.4807 23.8677 83.0958 24.7262 83.0958 25.7354C83.0958 26.7241 82.505 27.5745 81.6551 27.9448C81.7158 28.5715 81.9101 28.7464 82.1124 28.9255C82.4767 29.251 82.853 29.5846 83.1039 30.431C83.2375 30.8867 83.2456 31.3221 83.1525 31.7168L104.022 46.1984C104.237 46.349 104.382 46.5605 104.451 46.7965C104.484 46.8494 104.5 46.9105 104.5 46.9756V66.1528C104.5 66.3685 104.318 66.5068 104.107 66.5475L75.3299 71.8372C75.1194 71.8779 74.9373 71.6582 74.9373 71.4425V41.7184C74.9414 41.5028 75.1194 41.2871 75.3339 41.3237ZM62.2261 43.049L66.6898 42.3003V70.8607L62.2261 70.0957V43.049ZM68.2114 42.0439L73.3307 41.1854C73.4764 41.161 73.5978 41.3075 73.5978 41.4539V71.7233C73.5978 71.8698 73.4764 72.0163 73.3307 71.9919L68.2114 71.117V42.1457V42.0439ZM103.116 48.3306V64.8385H102.61V48.3306H103.116ZM79.0247 45.0428V68.6187H77.503V44.5708L79.0247 45.0428ZM83.1808 45.4334V67.9961H81.7887V45.2503L83.1808 45.4334ZM86.9039 46.0397V67.3695H85.6373V45.8037L86.9039 46.0397ZM90.2224 46.5605V66.9097H89.0812V46.292L90.2224 46.5605ZM93.2818 47.0529V66.34H92.2701V46.8413L93.2818 47.0529ZM96.1065 47.411V65.9046H95.2203V47.2075L96.1065 47.411ZM98.6358 47.8748V65.5099H97.875V47.6348L98.6358 47.8748ZM100.991 48.2736V65.1396H100.356V47.9806L100.991 48.2736Z" fill="#00723F"/>
</g>
<defs>
<clipPath id="clip0_153_3862">
<rect width="48" height="50" fill="white" transform="translate(56.5 22)"/>
</clipPath>
</defs>
</svg>
