<svg width="161" height="158" viewBox="0 0 161 158" fill="none" xmlns="http://www.w3.org/2000/svg">
<rect x="33.5" width="94" height="94" rx="16" fill="#E5EAE8"/>
<path d="M26.4824 108.047V118H24.7666V108.047H26.4824ZM30.543 112.401V113.762H26.0449V112.401H30.543ZM31.1104 108.047V109.414H26.0449V108.047H31.1104ZM34.3096 108.047V118H32.5938V108.047H34.3096ZM44.3379 108.047V118H42.6221L38.1582 110.87V118H36.4424V108.047H38.1582L42.6357 115.19V108.047H44.3379ZM50.3809 109.373L47.4072 118H45.6094L49.3555 108.047H50.5039L50.3809 109.373ZM52.8691 118L49.8887 109.373L49.7588 108.047H50.9141L54.6738 118H52.8691ZM52.7256 114.309V115.669H47.3115V114.309H52.7256ZM63.6836 108.047V118H61.9678L57.5039 110.87V118H55.7881V108.047H57.5039L61.9814 115.19V108.047H63.6836ZM71.6064 114.76H73.3154C73.2607 115.411 73.0785 115.993 72.7686 116.503C72.4587 117.009 72.0234 117.408 71.4629 117.699C70.9023 117.991 70.221 118.137 69.4189 118.137C68.8037 118.137 68.25 118.027 67.7578 117.809C67.2656 117.585 66.8441 117.271 66.4932 116.865C66.1423 116.455 65.8734 115.961 65.6865 115.382C65.5042 114.803 65.4131 114.156 65.4131 113.44V112.613C65.4131 111.898 65.5065 111.251 65.6934 110.672C65.8848 110.093 66.1582 109.599 66.5137 109.188C66.8691 108.774 67.2952 108.457 67.792 108.238C68.2933 108.02 68.8561 107.91 69.4805 107.91C70.2734 107.91 70.9434 108.056 71.4902 108.348C72.0371 108.639 72.4609 109.043 72.7617 109.558C73.0671 110.073 73.2539 110.663 73.3223 111.328H71.6133C71.5677 110.9 71.4674 110.533 71.3125 110.228C71.1621 109.922 70.9388 109.69 70.6426 109.53C70.3464 109.366 69.959 109.284 69.4805 109.284C69.0885 109.284 68.7467 109.357 68.4551 109.503C68.1634 109.649 67.9196 109.863 67.7236 110.146C67.5277 110.428 67.3796 110.777 67.2793 111.191C67.1836 111.602 67.1357 112.071 67.1357 112.6V113.44C67.1357 113.942 67.179 114.397 67.2656 114.808C67.3568 115.213 67.4935 115.562 67.6758 115.854C67.8626 116.145 68.0996 116.371 68.3867 116.53C68.6738 116.69 69.0179 116.77 69.4189 116.77C69.9066 116.77 70.3008 116.692 70.6016 116.537C70.9069 116.382 71.137 116.157 71.292 115.86C71.4515 115.56 71.5563 115.193 71.6064 114.76ZM76.7061 108.047V118H74.9902V108.047H76.7061ZM82.8379 109.373L79.8643 118H78.0664L81.8125 108.047H82.9609L82.8379 109.373ZM85.3262 118L82.3457 109.373L82.2158 108.047H83.3711L87.1309 118H85.3262ZM85.1826 114.309V115.669H79.7686V114.309H85.1826ZM94.4795 116.64V118H89.4824V116.64H94.4795ZM89.9609 108.047V118H88.2451V108.047H89.9609ZM101.124 108.047V118H99.4082V108.047H101.124ZM111.152 108.047V118H109.437L104.973 110.87V118H103.257V108.047H104.973L109.45 115.19V108.047H111.152ZM117.086 108.047V118H115.384V108.047H117.086ZM120.21 108.047V109.414H112.287V108.047H120.21ZM128.037 116.64V118H122.753V116.64H128.037ZM123.238 108.047V118H121.522V108.047H123.238ZM127.347 112.203V113.543H122.753V112.203H127.347ZM128.003 108.047V109.414H122.753V108.047H128.003ZM129.438 108.047H132.959C133.715 108.047 134.36 108.161 134.894 108.389C135.427 108.617 135.835 108.954 136.117 109.4C136.404 109.842 136.548 110.389 136.548 111.041C136.548 111.538 136.457 111.975 136.274 112.354C136.092 112.732 135.835 113.051 135.502 113.311C135.169 113.566 134.773 113.764 134.312 113.905L133.793 114.158H130.628L130.614 112.798H132.986C133.396 112.798 133.738 112.725 134.012 112.579C134.285 112.433 134.49 112.235 134.627 111.984C134.768 111.729 134.839 111.442 134.839 111.123C134.839 110.777 134.771 110.476 134.634 110.221C134.502 109.961 134.297 109.763 134.019 109.626C133.741 109.485 133.387 109.414 132.959 109.414H131.154V118H129.438V108.047ZM135.119 118L132.781 113.529L134.579 113.522L136.951 117.911V118H135.119ZM29.3262 126.047H30.8574L33.7354 133.724L36.6064 126.047H38.1377L34.3369 136H33.1201L29.3262 126.047ZM28.6289 126.047H30.085L30.3379 132.691V136H28.6289V126.047ZM37.3789 126.047H38.8418V136H37.126V132.691L37.3789 126.047ZM47.3936 134.64V136H42.1094V134.64H47.3936ZM42.5947 126.047V136H40.8789V126.047H42.5947ZM46.7031 130.203V131.543H42.1094V130.203H46.7031ZM47.3594 126.047V127.414H42.1094V126.047H47.3594ZM51.6865 136H49.5605L49.5742 134.64H51.6865C52.3018 134.64 52.8167 134.505 53.2314 134.236C53.6507 133.967 53.9652 133.582 54.1748 133.081C54.389 132.58 54.4961 131.983 54.4961 131.29V130.75C54.4961 130.212 54.4346 129.736 54.3115 129.321C54.193 128.907 54.0153 128.558 53.7783 128.275C53.5459 127.993 53.2588 127.779 52.917 127.633C52.5798 127.487 52.1901 127.414 51.748 127.414H49.5195V126.047H51.748C52.4089 126.047 53.0127 126.159 53.5596 126.382C54.1064 126.601 54.5781 126.917 54.9746 127.332C55.3757 127.747 55.6833 128.243 55.8975 128.822C56.1117 129.401 56.2188 130.048 56.2188 130.764V131.29C56.2188 132.006 56.1117 132.653 55.8975 133.231C55.6833 133.81 55.3757 134.307 54.9746 134.722C54.5736 135.132 54.0951 135.449 53.5391 135.672C52.9876 135.891 52.3701 136 51.6865 136ZM50.5107 126.047V136H48.7949V126.047H50.5107ZM59.7734 126.047V136H58.0576V126.047H59.7734ZM65.9053 127.373L62.9316 136H61.1338L64.8799 126.047H66.0283L65.9053 127.373ZM68.3936 136L65.4131 127.373L65.2832 126.047H66.4385L70.1982 136H68.3936ZM68.25 132.309V133.669H62.8359V132.309H68.25ZM74.5459 126.047V136H72.8438V126.047H74.5459ZM77.6699 126.047V127.414H69.7471V126.047H77.6699ZM80.8145 126.047V136H79.0986V126.047H80.8145ZM90.8838 130.75V131.297C90.8838 132.049 90.7858 132.723 90.5898 133.32C90.3939 133.917 90.1136 134.425 89.749 134.845C89.389 135.264 88.9561 135.585 88.4502 135.809C87.9443 136.027 87.3838 136.137 86.7686 136.137C86.1579 136.137 85.5996 136.027 85.0938 135.809C84.5924 135.585 84.1572 135.264 83.7881 134.845C83.4189 134.425 83.1318 133.917 82.9268 133.32C82.7262 132.723 82.626 132.049 82.626 131.297V130.75C82.626 129.998 82.7262 129.326 82.9268 128.733C83.1273 128.136 83.4098 127.628 83.7744 127.209C84.1436 126.785 84.5788 126.464 85.0801 126.245C85.5859 126.022 86.1442 125.91 86.7549 125.91C87.3701 125.91 87.9307 126.022 88.4365 126.245C88.9424 126.464 89.3776 126.785 89.7422 127.209C90.1068 127.628 90.387 128.136 90.583 128.733C90.7835 129.326 90.8838 129.998 90.8838 130.75ZM89.168 131.297V130.736C89.168 130.18 89.1133 129.69 89.0039 129.267C88.8991 128.838 88.7419 128.48 88.5322 128.193C88.3271 127.902 88.0742 127.683 87.7734 127.537C87.4727 127.387 87.1331 127.312 86.7549 127.312C86.3766 127.312 86.0394 127.387 85.7432 127.537C85.4469 127.683 85.194 127.902 84.9844 128.193C84.7793 128.48 84.6221 128.838 84.5127 129.267C84.4033 129.69 84.3486 130.18 84.3486 130.736V131.297C84.3486 131.853 84.4033 132.345 84.5127 132.773C84.6221 133.202 84.7816 133.564 84.9912 133.86C85.2054 134.152 85.4606 134.373 85.7568 134.523C86.0531 134.669 86.3903 134.742 86.7686 134.742C87.1514 134.742 87.4909 134.669 87.7871 134.523C88.0833 134.373 88.334 134.152 88.5391 133.86C88.7441 133.564 88.8991 133.202 89.0039 132.773C89.1133 132.345 89.168 131.853 89.168 131.297ZM100.495 126.047V136H98.7793L94.3154 128.87V136H92.5996V126.047H94.3154L98.793 133.19V126.047H100.495ZM109.901 127.373L106.928 136H105.13L108.876 126.047H110.024L109.901 127.373ZM112.39 136L109.409 127.373L109.279 126.047H110.435L114.194 136H112.39ZM112.246 132.309V133.669H106.832V132.309H112.246ZM123.204 126.047V136H121.488L117.024 128.87V136H115.309V126.047H117.024L121.502 133.19V126.047H123.204ZM128.14 136H126.014L126.027 134.64H128.14C128.755 134.64 129.27 134.505 129.685 134.236C130.104 133.967 130.418 133.582 130.628 133.081C130.842 132.58 130.949 131.983 130.949 131.29V130.75C130.949 130.212 130.888 129.736 130.765 129.321C130.646 128.907 130.468 128.558 130.231 128.275C129.999 127.993 129.712 127.779 129.37 127.633C129.033 127.487 128.643 127.414 128.201 127.414H125.973V126.047H128.201C128.862 126.047 129.466 126.159 130.013 126.382C130.56 126.601 131.031 126.917 131.428 127.332C131.829 127.747 132.136 128.243 132.351 128.822C132.565 129.401 132.672 130.048 132.672 130.764V131.29C132.672 132.006 132.565 132.653 132.351 133.231C132.136 133.81 131.829 134.307 131.428 134.722C131.027 135.132 130.548 135.449 129.992 135.672C129.441 135.891 128.823 136 128.14 136ZM126.964 126.047V136H125.248V126.047H126.964ZM45.0215 144.047V154H43.3057V144.047H45.0215ZM55.0498 144.047V154H53.334L48.8701 146.87V154H47.1543V144.047H48.8701L53.3477 151.19V144.047H55.0498ZM62.3301 151.437C62.3301 151.231 62.2982 151.049 62.2344 150.89C62.1751 150.73 62.068 150.584 61.9131 150.452C61.7581 150.32 61.5394 150.192 61.2568 150.069C60.9788 149.942 60.6234 149.812 60.1904 149.68C59.7165 149.534 59.279 149.372 58.8779 149.194C58.4814 149.012 58.1351 148.802 57.8389 148.565C57.5426 148.324 57.3125 148.048 57.1484 147.738C56.9844 147.424 56.9023 147.062 56.9023 146.651C56.9023 146.246 56.9867 145.877 57.1553 145.544C57.3285 145.211 57.5723 144.924 57.8867 144.683C58.2057 144.437 58.5817 144.247 59.0146 144.115C59.4476 143.979 59.9261 143.91 60.4502 143.91C61.1885 143.91 61.8242 144.047 62.3574 144.32C62.8952 144.594 63.3076 144.961 63.5947 145.421C63.8864 145.881 64.0322 146.389 64.0322 146.945H62.3301C62.3301 146.617 62.2594 146.328 62.1182 146.077C61.9814 145.822 61.7718 145.621 61.4893 145.476C61.2113 145.33 60.8581 145.257 60.4297 145.257C60.0241 145.257 59.6868 145.318 59.418 145.441C59.1491 145.564 58.9486 145.731 58.8164 145.94C58.6842 146.15 58.6182 146.387 58.6182 146.651C58.6182 146.838 58.6615 147.009 58.748 147.164C58.8346 147.314 58.9668 147.456 59.1445 147.588C59.3223 147.715 59.5456 147.836 59.8145 147.95C60.0833 148.064 60.4001 148.174 60.7646 148.278C61.3161 148.442 61.7969 148.625 62.207 148.825C62.6172 149.021 62.959 149.244 63.2324 149.495C63.5059 149.746 63.7109 150.031 63.8477 150.35C63.9844 150.664 64.0527 151.022 64.0527 151.423C64.0527 151.842 63.9684 152.22 63.7998 152.558C63.6312 152.89 63.3896 153.175 63.0752 153.412C62.7653 153.645 62.3916 153.825 61.9541 153.952C61.5212 154.075 61.0381 154.137 60.5049 154.137C60.0264 154.137 59.5547 154.073 59.0898 153.945C58.6296 153.818 58.2103 153.624 57.832 153.364C57.4538 153.1 57.153 152.772 56.9297 152.38C56.7064 151.983 56.5947 151.521 56.5947 150.992H58.3105C58.3105 151.316 58.3652 151.591 58.4746 151.819C58.5885 152.047 58.7458 152.234 58.9463 152.38C59.1468 152.521 59.3792 152.626 59.6436 152.694C59.9124 152.763 60.1995 152.797 60.5049 152.797C60.9059 152.797 61.2409 152.74 61.5098 152.626C61.7832 152.512 61.9883 152.353 62.125 152.147C62.2617 151.942 62.3301 151.705 62.3301 151.437ZM71.1553 144.047H72.8643V150.698C72.8643 151.455 72.7002 152.088 72.3721 152.599C72.0439 153.109 71.5973 153.494 71.0322 153.754C70.4717 154.009 69.8451 154.137 69.1523 154.137C68.4368 154.137 67.7988 154.009 67.2383 153.754C66.6777 153.494 66.2357 153.109 65.9121 152.599C65.5931 152.088 65.4336 151.455 65.4336 150.698V144.047H67.1426V150.698C67.1426 151.177 67.2246 151.571 67.3887 151.881C67.5527 152.186 67.7852 152.412 68.0859 152.558C68.3867 152.703 68.7422 152.776 69.1523 152.776C69.5625 152.776 69.9157 152.703 70.2119 152.558C70.5127 152.412 70.7451 152.186 70.9092 151.881C71.0732 151.571 71.1553 151.177 71.1553 150.698V144.047ZM74.7305 144.047H78.251C79.0075 144.047 79.6523 144.161 80.1855 144.389C80.7188 144.617 81.1266 144.954 81.4092 145.4C81.6963 145.842 81.8398 146.389 81.8398 147.041C81.8398 147.538 81.7487 147.975 81.5664 148.354C81.3841 148.732 81.1266 149.051 80.7939 149.311C80.4613 149.566 80.0648 149.764 79.6045 149.905L79.085 150.158H75.9199L75.9062 148.798H78.2783C78.6885 148.798 79.0303 148.725 79.3037 148.579C79.5771 148.433 79.7822 148.235 79.9189 147.984C80.0602 147.729 80.1309 147.442 80.1309 147.123C80.1309 146.777 80.0625 146.476 79.9258 146.221C79.7936 145.961 79.5885 145.763 79.3105 145.626C79.0326 145.485 78.6794 145.414 78.251 145.414H76.4463V154H74.7305V144.047ZM80.4111 154L78.0732 149.529L79.8711 149.522L82.2432 153.911V154H80.4111ZM87.4248 145.373L84.4512 154H82.6533L86.3994 144.047H87.5479L87.4248 145.373ZM89.9131 154L86.9326 145.373L86.8027 144.047H87.958L91.7178 154H89.9131ZM89.7695 150.309V151.669H84.3555V150.309H89.7695ZM100.728 144.047V154H99.0117L94.5479 146.87V154H92.832V144.047H94.5479L99.0254 151.19V144.047H100.728ZM108.65 150.76H110.359C110.305 151.411 110.122 151.993 109.812 152.503C109.503 153.009 109.067 153.408 108.507 153.699C107.946 153.991 107.265 154.137 106.463 154.137C105.848 154.137 105.294 154.027 104.802 153.809C104.31 153.585 103.888 153.271 103.537 152.865C103.186 152.455 102.917 151.961 102.73 151.382C102.548 150.803 102.457 150.156 102.457 149.44V148.613C102.457 147.898 102.55 147.251 102.737 146.672C102.929 146.093 103.202 145.599 103.558 145.188C103.913 144.774 104.339 144.457 104.836 144.238C105.337 144.02 105.9 143.91 106.524 143.91C107.317 143.91 107.987 144.056 108.534 144.348C109.081 144.639 109.505 145.043 109.806 145.558C110.111 146.073 110.298 146.663 110.366 147.328H108.657C108.612 146.9 108.511 146.533 108.356 146.228C108.206 145.922 107.983 145.69 107.687 145.53C107.39 145.366 107.003 145.284 106.524 145.284C106.132 145.284 105.791 145.357 105.499 145.503C105.207 145.649 104.964 145.863 104.768 146.146C104.572 146.428 104.424 146.777 104.323 147.191C104.228 147.602 104.18 148.071 104.18 148.6V149.44C104.18 149.942 104.223 150.397 104.31 150.808C104.401 151.213 104.537 151.562 104.72 151.854C104.907 152.145 105.144 152.371 105.431 152.53C105.718 152.69 106.062 152.77 106.463 152.77C106.951 152.77 107.345 152.692 107.646 152.537C107.951 152.382 108.181 152.157 108.336 151.86C108.495 151.56 108.6 151.193 108.65 150.76ZM118.433 152.64V154H113.148V152.64H118.433ZM113.634 144.047V154H111.918V144.047H113.634ZM117.742 148.203V149.543H113.148V148.203H117.742ZM118.398 144.047V145.414H113.148V144.047H118.398Z" fill="#002E19"/>
<g clip-path="url(#clip0_153_3888)">
<path fill-rule="evenodd" clip-rule="evenodd" d="M100.691 63.0474C100.691 63.4578 100.358 63.7951 99.9425 63.7951H95.1289L94.6284 61.6698H98.559V43.1638C98.559 43.1151 98.5631 43.0663 98.5713 43.0216L80.0735 30.5502L61.2137 43.0257C61.2299 43.0866 61.2381 43.1517 61.2381 43.2167V61.6616H65.2461L64.8717 63.7869H59.8546C59.4436 63.7869 59.1059 63.4537 59.1059 63.0392V43.9969C58.2677 44.3179 57.4905 44.322 56.8395 44.1066C56.3309 43.9359 55.9036 43.6312 55.5903 43.2329C55.277 42.8387 55.0776 42.3552 55.0166 41.8269C54.927 41.002 55.1753 40.0673 55.8751 39.1936C55.9117 39.1489 55.9524 39.1083 55.9972 39.0717L79.4347 23.195C79.6992 22.9512 80.1061 22.9268 80.399 23.1544L103.881 38.9986C103.914 39.023 103.942 39.0514 103.971 39.0799C104.915 40.0958 105.151 41.2214 104.923 42.1764C104.809 42.6437 104.585 43.0704 104.276 43.4158C103.967 43.7653 103.572 44.0335 103.12 44.196C102.404 44.4561 101.558 44.4439 100.695 44.0375C100.691 50.3768 100.691 56.7121 100.691 63.0474ZM77.5507 43.7937C77.0421 42.2983 76.5864 40.7825 76.1998 39.2465C77.6403 37.6698 83.2026 37.877 84.8017 39.2221L83.3206 42.7412C84.1181 41.6969 84.3867 41.2661 84.8587 40.685C85.0581 40.815 85.2452 40.9613 85.4243 41.1239C85.8475 41.5059 86.2218 41.9244 86.2991 42.5137C86.3479 42.8956 86.2381 43.2817 85.9004 43.6759L82.5027 47.6298C82.0633 47.5567 81.636 47.4551 81.221 47.3047C81.4122 46.8536 81.6442 46.3538 81.8395 45.8987L80.6025 47.2316C79.3126 46.9593 78.275 47.1219 77.3107 47.6339L73.8642 43.5011C73.6608 43.2532 73.5672 43.0094 73.5672 42.7615C73.5713 41.7619 75.0605 40.9004 75.8418 40.5753L77.5507 43.7937ZM81.9697 51.2587L81.2983 48.1865C84.1792 48.7229 88.7975 54.5746 90.2908 57.2363C91.0517 58.5936 91.719 60.0931 92.2643 61.7632C93.3507 65.8106 92.305 69.602 87.9064 70.4839C85.1517 71.0365 80.0125 71.0772 77.1113 70.9268C73.9944 70.7642 69.1726 70.7724 67.9153 67.5743C65.8808 62.4175 69.608 56.2732 73.0016 52.5143C73.4492 52.0186 73.909 51.5594 74.3891 51.1327C75.6261 50.0477 76.9567 48.7595 78.5476 48.2231L77.0136 51.0799L79.2435 48.1256H80.4194L81.9697 51.2587ZM80.5374 53.7781V54.3227C81.1152 54.3836 81.6116 54.5015 82.0185 54.6762C82.4336 54.855 82.7916 55.1232 83.1009 55.4808C83.345 55.7571 83.5322 56.0416 83.6624 56.3301C83.7967 56.6227 83.8618 56.8868 83.8618 57.1266C83.8618 57.3948 83.7641 57.6305 83.5688 57.8255C83.3694 58.0206 83.1334 58.1181 82.8527 58.1181C82.3237 58.1181 81.9778 57.8337 81.8232 57.2607C81.6442 56.5902 81.2169 56.1391 80.5374 55.9197V59.2763C81.2047 59.4591 81.7378 59.6257 82.1324 59.7761C82.5312 59.9265 82.8852 60.1418 83.1945 60.4304C83.5281 60.7229 83.7885 61.0805 83.9676 61.491C84.1466 61.9055 84.2361 62.3525 84.2361 62.8442C84.2361 63.4578 84.0937 64.0308 83.8048 64.5631C83.5159 65.0995 83.0927 65.5343 82.5312 65.8757C81.9697 66.2129 81.3064 66.4161 80.5333 66.4771V67.0257C80.5333 67.3426 80.5008 67.5743 80.4397 67.7206C80.3787 67.8669 80.2444 67.94 80.0328 67.94C79.8416 67.94 79.7032 67.8831 79.6259 67.7653C79.5486 67.6474 79.512 67.4646 79.512 67.2167V66.5015C78.8854 66.4324 78.332 66.282 77.86 66.0585C77.388 65.831 76.9933 65.5506 76.68 65.2173C76.3667 64.8801 76.1307 64.5306 75.9842 64.1689C75.8336 63.8073 75.7563 63.4497 75.7563 63.0961C75.7563 62.8401 75.854 62.6044 76.0615 62.4012C76.2609 62.194 76.5131 62.0883 76.8143 62.0883C77.0584 62.0883 77.2618 62.1452 77.4287 62.2549C77.5955 62.3687 77.7094 62.5272 77.7745 62.7304C77.917 63.1693 78.0431 63.5106 78.153 63.7422C78.2628 63.9779 78.4256 64.1892 78.6453 64.3843C78.865 64.5753 79.1539 64.7256 79.512 64.8272V61.0765C78.7877 60.8774 78.1896 60.6539 77.7054 60.41C77.2212 60.1662 76.8265 59.8167 76.5254 59.3657C76.2242 58.9146 76.0737 58.3335 76.0737 57.6224C76.0737 56.6958 76.3667 55.9359 76.9567 55.3467C77.5467 54.7534 78.3971 54.4121 79.512 54.3145V53.7863C79.512 53.3352 79.6829 53.1076 80.0206 53.1076C80.3665 53.1198 80.5374 53.3393 80.5374 53.7781ZM79.512 58.9837V55.8953C79.0603 56.0294 78.7063 56.2082 78.4541 56.4276C78.2018 56.6471 78.0756 56.9844 78.0756 57.4314C78.0756 57.854 78.1936 58.1791 78.4296 58.3945C78.6657 58.6098 79.0278 58.8089 79.512 58.9837ZM80.5374 61.3772V64.9126C81.0786 64.8069 81.4977 64.5875 81.7988 64.2624C82.0918 63.9332 82.2423 63.5512 82.2423 63.1164C82.2423 62.6491 82.0999 62.2874 81.811 62.0314C81.5221 61.7714 81.0989 61.556 80.5374 61.3772Z" fill="#00723F"/>
</g>
<defs>
<clipPath id="clip0_153_3888">
<rect width="50" height="48" fill="white" transform="translate(55 23)"/>
</clipPath>
</defs>
</svg>
