<svg width="161" height="140" viewBox="0 0 161 140" fill="none" xmlns="http://www.w3.org/2000/svg">
<rect x="33.5" width="94" height="94" rx="16" fill="#E5EAE8"/>
<path d="M50.5312 112.203V113.563H45.2471V112.203H50.5312ZM45.6709 108.047V118H43.9551V108.047H45.6709ZM51.8506 108.047V118H50.1416V108.047H51.8506ZM61.8311 112.75V113.297C61.8311 114.049 61.7331 114.723 61.5371 115.32C61.3411 115.917 61.0609 116.425 60.6963 116.845C60.3363 117.264 59.9033 117.585 59.3975 117.809C58.8916 118.027 58.3311 118.137 57.7158 118.137C57.1051 118.137 56.5469 118.027 56.041 117.809C55.5397 117.585 55.1045 117.264 54.7354 116.845C54.3662 116.425 54.0791 115.917 53.874 115.32C53.6735 114.723 53.5732 114.049 53.5732 113.297V112.75C53.5732 111.998 53.6735 111.326 53.874 110.733C54.0745 110.136 54.3571 109.628 54.7217 109.209C55.0908 108.785 55.526 108.464 56.0273 108.245C56.5332 108.022 57.0915 107.91 57.7021 107.91C58.3174 107.91 58.8779 108.022 59.3838 108.245C59.8896 108.464 60.3249 108.785 60.6895 109.209C61.054 109.628 61.3343 110.136 61.5303 110.733C61.7308 111.326 61.8311 111.998 61.8311 112.75ZM60.1152 113.297V112.736C60.1152 112.18 60.0605 111.69 59.9512 111.267C59.8464 110.838 59.6891 110.48 59.4795 110.193C59.2744 109.902 59.0215 109.683 58.7207 109.537C58.4199 109.387 58.0804 109.312 57.7021 109.312C57.3239 109.312 56.9867 109.387 56.6904 109.537C56.3942 109.683 56.1413 109.902 55.9316 110.193C55.7266 110.48 55.5693 110.838 55.46 111.267C55.3506 111.69 55.2959 112.18 55.2959 112.736V113.297C55.2959 113.853 55.3506 114.345 55.46 114.773C55.5693 115.202 55.7288 115.564 55.9385 115.86C56.1527 116.152 56.4079 116.373 56.7041 116.523C57.0003 116.669 57.3376 116.742 57.7158 116.742C58.0986 116.742 58.4382 116.669 58.7344 116.523C59.0306 116.373 59.2812 116.152 59.4863 115.86C59.6914 115.564 59.8464 115.202 59.9512 114.773C60.0605 114.345 60.1152 113.853 60.1152 113.297ZM67.2998 108.047V118H65.5977V108.047H67.2998ZM70.4238 108.047V109.414H62.501V108.047H70.4238ZM78.251 116.64V118H72.9668V116.64H78.251ZM73.4521 108.047V118H71.7363V108.047H73.4521ZM77.5605 112.203V113.543H72.9668V112.203H77.5605ZM78.2168 108.047V109.414H72.9668V108.047H78.2168ZM85.8867 116.64V118H80.8896V116.64H85.8867ZM81.3682 108.047V118H79.6523V108.047H81.3682ZM94.5752 109.373L91.6016 118H89.8037L93.5498 108.047H94.6982L94.5752 109.373ZM97.0635 118L94.083 109.373L93.9531 108.047H95.1084L98.8682 118H97.0635ZM96.9199 114.309V115.669H91.5059V114.309H96.9199ZM107.878 108.047V118H106.162L101.698 110.87V118H99.9824V108.047H101.698L106.176 115.19V108.047H107.878ZM112.813 118H110.688L110.701 116.64H112.813C113.429 116.64 113.944 116.505 114.358 116.236C114.778 115.967 115.092 115.582 115.302 115.081C115.516 114.58 115.623 113.983 115.623 113.29V112.75C115.623 112.212 115.562 111.736 115.438 111.321C115.32 110.907 115.142 110.558 114.905 110.275C114.673 109.993 114.386 109.779 114.044 109.633C113.707 109.487 113.317 109.414 112.875 109.414H110.646V108.047H112.875C113.536 108.047 114.14 108.159 114.687 108.382C115.233 108.601 115.705 108.917 116.102 109.332C116.503 109.747 116.81 110.243 117.024 110.822C117.239 111.401 117.346 112.048 117.346 112.764V113.29C117.346 114.006 117.239 114.653 117.024 115.231C116.81 115.81 116.503 116.307 116.102 116.722C115.701 117.132 115.222 117.449 114.666 117.672C114.115 117.891 113.497 118 112.813 118ZM111.638 108.047V118H109.922V108.047H111.638ZM33.4414 126.047H36.9619C37.7184 126.047 38.3633 126.161 38.8965 126.389C39.4297 126.617 39.8376 126.954 40.1201 127.4C40.4072 127.842 40.5508 128.389 40.5508 129.041C40.5508 129.538 40.4596 129.975 40.2773 130.354C40.0951 130.732 39.8376 131.051 39.5049 131.311C39.1722 131.566 38.7757 131.764 38.3154 131.905L37.7959 132.158H34.6309L34.6172 130.798H36.9893C37.3994 130.798 37.7412 130.725 38.0146 130.579C38.2881 130.433 38.4932 130.235 38.6299 129.984C38.7712 129.729 38.8418 129.442 38.8418 129.123C38.8418 128.777 38.7734 128.476 38.6367 128.221C38.5046 127.961 38.2995 127.763 38.0215 127.626C37.7435 127.485 37.3903 127.414 36.9619 127.414H35.1572V136H33.4414V126.047ZM39.1221 136L36.7842 131.529L38.582 131.522L40.9541 135.911V136H39.1221ZM48.7744 134.64V136H43.4902V134.64H48.7744ZM43.9756 126.047V136H42.2598V126.047H43.9756ZM48.084 130.203V131.543H43.4902V130.203H48.084ZM48.7402 126.047V127.414H43.4902V126.047H48.7402ZM55.4121 133.437C55.4121 133.231 55.3802 133.049 55.3164 132.89C55.2572 132.73 55.1501 132.584 54.9951 132.452C54.8402 132.32 54.6214 132.192 54.3389 132.069C54.0609 131.942 53.7054 131.812 53.2725 131.68C52.7985 131.534 52.361 131.372 51.96 131.194C51.5635 131.012 51.2171 130.802 50.9209 130.565C50.6247 130.324 50.3945 130.048 50.2305 129.738C50.0664 129.424 49.9844 129.062 49.9844 128.651C49.9844 128.246 50.0687 127.877 50.2373 127.544C50.4105 127.211 50.6543 126.924 50.9688 126.683C51.2878 126.437 51.6637 126.247 52.0967 126.115C52.5296 125.979 53.0081 125.91 53.5322 125.91C54.2705 125.91 54.9062 126.047 55.4395 126.32C55.9772 126.594 56.3896 126.961 56.6768 127.421C56.9684 127.881 57.1143 128.389 57.1143 128.945H55.4121C55.4121 128.617 55.3415 128.328 55.2002 128.077C55.0635 127.822 54.8538 127.621 54.5713 127.476C54.2933 127.33 53.9401 127.257 53.5117 127.257C53.1061 127.257 52.7689 127.318 52.5 127.441C52.2311 127.564 52.0306 127.731 51.8984 127.94C51.7663 128.15 51.7002 128.387 51.7002 128.651C51.7002 128.838 51.7435 129.009 51.8301 129.164C51.9167 129.314 52.0488 129.456 52.2266 129.588C52.4043 129.715 52.6276 129.836 52.8965 129.95C53.1654 130.064 53.4821 130.174 53.8467 130.278C54.3981 130.442 54.8789 130.625 55.2891 130.825C55.6992 131.021 56.041 131.244 56.3145 131.495C56.5879 131.746 56.793 132.031 56.9297 132.35C57.0664 132.664 57.1348 133.022 57.1348 133.423C57.1348 133.842 57.0505 134.22 56.8818 134.558C56.7132 134.89 56.4717 135.175 56.1572 135.412C55.8473 135.645 55.4736 135.825 55.0361 135.952C54.6032 136.075 54.1201 136.137 53.5869 136.137C53.1084 136.137 52.6367 136.073 52.1719 135.945C51.7116 135.818 51.2923 135.624 50.9141 135.364C50.5358 135.1 50.235 134.772 50.0117 134.38C49.7884 133.983 49.6768 133.521 49.6768 132.992H51.3926C51.3926 133.316 51.4473 133.591 51.5566 133.819C51.6706 134.047 51.8278 134.234 52.0283 134.38C52.2288 134.521 52.4613 134.626 52.7256 134.694C52.9945 134.763 53.2816 134.797 53.5869 134.797C53.988 134.797 54.3229 134.74 54.5918 134.626C54.8652 134.512 55.0703 134.353 55.207 134.147C55.3438 133.942 55.4121 133.705 55.4121 133.437ZM62.7471 126.047V136H61.0449V126.047H62.7471ZM65.8711 126.047V127.414H57.9482V126.047H65.8711ZM70.4033 127.373L67.4297 136H65.6318L69.3779 126.047H70.5264L70.4033 127.373ZM72.8916 136L69.9111 127.373L69.7812 126.047H70.9365L74.6963 136H72.8916ZM72.748 132.309V133.669H67.334V132.309H72.748ZM81.2725 126.047H82.9814V132.698C82.9814 133.455 82.8174 134.088 82.4893 134.599C82.1611 135.109 81.7145 135.494 81.1494 135.754C80.5889 136.009 79.9622 136.137 79.2695 136.137C78.554 136.137 77.916 136.009 77.3555 135.754C76.7949 135.494 76.3529 135.109 76.0293 134.599C75.7103 134.088 75.5508 133.455 75.5508 132.698V126.047H77.2598V132.698C77.2598 133.177 77.3418 133.571 77.5059 133.881C77.6699 134.186 77.9023 134.412 78.2031 134.558C78.5039 134.703 78.8594 134.776 79.2695 134.776C79.6797 134.776 80.0329 134.703 80.3291 134.558C80.6299 134.412 80.8623 134.186 81.0264 133.881C81.1904 133.571 81.2725 133.177 81.2725 132.698V126.047ZM84.8477 126.047H88.3682C89.1247 126.047 89.7695 126.161 90.3027 126.389C90.8359 126.617 91.2438 126.954 91.5264 127.4C91.8135 127.842 91.957 128.389 91.957 129.041C91.957 129.538 91.8659 129.975 91.6836 130.354C91.5013 130.732 91.2438 131.051 90.9111 131.311C90.5785 131.566 90.182 131.764 89.7217 131.905L89.2021 132.158H86.0371L86.0234 130.798H88.3955C88.8057 130.798 89.1475 130.725 89.4209 130.579C89.6943 130.433 89.8994 130.235 90.0361 129.984C90.1774 129.729 90.248 129.442 90.248 129.123C90.248 128.777 90.1797 128.476 90.043 128.221C89.9108 127.961 89.7057 127.763 89.4277 127.626C89.1497 127.485 88.7965 127.414 88.3682 127.414H86.5635V136H84.8477V126.047ZM90.5283 136L88.1904 131.529L89.9883 131.522L92.3604 135.911V136H90.5283ZM97.542 127.373L94.5684 136H92.7705L96.5166 126.047H97.665L97.542 127.373ZM100.03 136L97.0498 127.373L96.9199 126.047H98.0752L101.835 136H100.03ZM99.8867 132.309V133.669H94.4727V132.309H99.8867ZM110.845 126.047V136H109.129L104.665 128.87V136H102.949V126.047H104.665L109.143 133.19V126.047H110.845ZM116.778 126.047V136H115.076V126.047H116.778ZM119.902 126.047V127.414H111.979V126.047H119.902ZM126.342 133.437C126.342 133.231 126.31 133.049 126.246 132.89C126.187 132.73 126.08 132.584 125.925 132.452C125.77 132.32 125.551 132.192 125.269 132.069C124.991 131.942 124.635 131.812 124.202 131.68C123.728 131.534 123.291 131.372 122.89 131.194C122.493 131.012 122.147 130.802 121.851 130.565C121.554 130.324 121.324 130.048 121.16 129.738C120.996 129.424 120.914 129.062 120.914 128.651C120.914 128.246 120.998 127.877 121.167 127.544C121.34 127.211 121.584 126.924 121.898 126.683C122.217 126.437 122.593 126.247 123.026 126.115C123.459 125.979 123.938 125.91 124.462 125.91C125.2 125.91 125.836 126.047 126.369 126.32C126.907 126.594 127.319 126.961 127.606 127.421C127.898 127.881 128.044 128.389 128.044 128.945H126.342C126.342 128.617 126.271 128.328 126.13 128.077C125.993 127.822 125.784 127.621 125.501 127.476C125.223 127.33 124.87 127.257 124.441 127.257C124.036 127.257 123.699 127.318 123.43 127.441C123.161 127.564 122.96 127.731 122.828 127.94C122.696 128.15 122.63 128.387 122.63 128.651C122.63 128.838 122.673 129.009 122.76 129.164C122.846 129.314 122.979 129.456 123.156 129.588C123.334 129.715 123.557 129.836 123.826 129.95C124.095 130.064 124.412 130.174 124.776 130.278C125.328 130.442 125.809 130.625 126.219 130.825C126.629 131.021 126.971 131.244 127.244 131.495C127.518 131.746 127.723 132.031 127.859 132.35C127.996 132.664 128.064 133.022 128.064 133.423C128.064 133.842 127.98 134.22 127.812 134.558C127.643 134.89 127.401 135.175 127.087 135.412C126.777 135.645 126.403 135.825 125.966 135.952C125.533 136.075 125.05 136.137 124.517 136.137C124.038 136.137 123.566 136.073 123.102 135.945C122.641 135.818 122.222 135.624 121.844 135.364C121.465 135.1 121.165 134.772 120.941 134.38C120.718 133.983 120.606 133.521 120.606 132.992H122.322C122.322 133.316 122.377 133.591 122.486 133.819C122.6 134.047 122.757 134.234 122.958 134.38C123.159 134.521 123.391 134.626 123.655 134.694C123.924 134.763 124.211 134.797 124.517 134.797C124.918 134.797 125.253 134.74 125.521 134.626C125.795 134.512 126 134.353 126.137 134.147C126.273 133.942 126.342 133.705 126.342 133.437Z" fill="#002E19"/>
<g clip-path="url(#clip0_705_1528)">
<path d="M66.7419 61.7435V62.8861C66.7419 62.9919 66.8314 63.0807 66.9379 63.0807H70.2274C70.334 63.0807 70.4234 62.9919 70.4234 62.8861V59.5895C70.4234 59.4837 70.334 59.3949 70.2274 59.3949H66.9379C66.8314 59.3949 66.7419 59.4837 66.7419 59.5895V61.7435ZM61.3901 67.3294V33.7757H59.6304C59.4258 33.7757 59.2597 33.6107 59.2597 33.4076V21.9437C59.2597 21.6855 59.3662 21.4486 59.5409 21.2793C59.7113 21.1058 59.9499 21 60.2099 21C65.0248 21 72.5795 21.0085 80.1172 21.0169C86.2487 21.0254 92.3419 21.0296 99.7901 21.0296C100.05 21.0296 100.289 21.1354 100.459 21.3047C100.63 21.4782 100.736 21.7109 100.736 21.9691V33.4033C100.736 33.6064 100.57 33.7715 100.365 33.7715H98.6099V67.3294H104.004V73H56V67.3294H61.3901ZM62.5364 67.3294H97.4594L97.4636 33.8138L62.5364 33.7926V67.3294ZM89.6447 39.387H92.9342C93.0407 39.387 93.1302 39.4759 93.1302 39.5817V42.8783C93.1302 42.9841 93.0407 43.0729 92.9342 43.0729H89.6447C89.5382 43.0729 89.4487 42.9841 89.4487 42.8783V39.5817C89.4487 39.4717 89.5382 39.387 89.6447 39.387ZM83.8967 39.387H87.1862C87.2927 39.387 87.3822 39.4759 87.3822 39.5817V42.8783C87.3822 42.9841 87.2927 43.0729 87.1862 43.0729H83.8967C83.7901 43.0729 83.7007 42.9841 83.7007 42.8783V39.5817C83.7007 39.4717 83.7901 39.387 83.8967 39.387ZM89.6447 59.3949H92.9342C93.0407 59.3949 93.1302 59.4837 93.1302 59.5895V62.8861C93.1302 62.9919 93.0407 63.0807 92.9342 63.0807H89.6447C89.5382 63.0807 89.4487 62.9919 89.4487 62.8861V59.5895C89.4487 59.4837 89.5382 59.3949 89.6447 59.3949ZM83.8967 59.3949H87.1862C87.2927 59.3949 87.3822 59.4837 87.3822 59.5895V62.8861C87.3822 62.9919 87.2927 63.0807 87.1862 63.0807H83.8967C83.7901 63.0807 83.7007 62.9919 83.7007 62.8861V59.5895C83.7007 59.4837 83.7901 59.3949 83.8967 59.3949ZM89.6447 52.7256H92.9342C93.0407 52.7256 93.1302 52.8145 93.1302 52.9202V56.2168C93.1302 56.3226 93.0407 56.4115 92.9342 56.4115H89.6447C89.5382 56.4115 89.4487 56.3226 89.4487 56.2168V52.9202C89.4487 52.8145 89.5382 52.7256 89.6447 52.7256ZM83.8967 52.7256H87.1862C87.2927 52.7256 87.3822 52.8145 87.3822 52.9202V56.2168C87.3822 56.3226 87.2927 56.4115 87.1862 56.4115H83.8967C83.7901 56.4115 83.7007 56.3226 83.7007 56.2168V52.9202C83.7007 52.8145 83.7901 52.7256 83.8967 52.7256ZM89.6447 46.0563H92.9342C93.0407 46.0563 93.1302 46.1452 93.1302 46.251V49.5475C93.1302 49.6533 93.0407 49.7422 92.9342 49.7422H89.6447C89.5382 49.7422 89.4487 49.6533 89.4487 49.5475V46.251C89.4487 46.1452 89.5382 46.0563 89.6447 46.0563ZM83.8967 46.0563H87.1862C87.2927 46.0563 87.3822 46.1452 87.3822 46.251V49.5475C87.3822 49.6533 87.2927 49.7422 87.1862 49.7422H83.8967C83.7901 49.7422 83.7007 49.6533 83.7007 49.5475V46.251C83.7007 46.1452 83.7901 46.0563 83.8967 46.0563ZM72.8181 39.387H76.1076C76.2141 39.387 76.3036 39.4759 76.3036 39.5817V42.8783C76.3036 42.9841 76.2141 43.0729 76.1076 43.0729H72.8181C72.7116 43.0729 72.6221 42.9841 72.6221 42.8783V39.5817C72.6221 39.4717 72.7116 39.387 72.8181 39.387ZM67.07 39.387H70.3595C70.466 39.387 70.5555 39.4759 70.5555 39.5817V42.8783C70.5555 42.9841 70.466 43.0729 70.3595 43.0729H67.07C66.9635 43.0729 66.874 42.9841 66.874 42.8783V39.5817C66.874 39.4717 66.9593 39.387 67.07 39.387ZM72.686 59.3949H75.9755C76.082 59.3949 76.1715 59.4837 76.1715 59.5895V62.8861C76.1715 62.9919 76.082 63.0807 75.9755 63.0807H72.686C72.5795 63.0807 72.49 62.9919 72.49 62.8861V59.5895C72.49 59.4837 72.5795 59.3949 72.686 59.3949ZM72.686 52.7256H75.9755C76.082 52.7256 76.1715 52.8145 76.1715 52.9202V56.2168C76.1715 56.3226 76.082 56.4115 75.9755 56.4115H72.686C72.5795 56.4115 72.49 56.3226 72.49 56.2168V52.9202C72.49 52.8145 72.5795 52.7256 72.686 52.7256ZM66.9337 52.7256H70.2232C70.3297 52.7256 70.4192 52.8145 70.4192 52.9202V56.2168C70.4192 56.3226 70.3297 56.4115 70.2232 56.4115H66.9337C66.8272 56.4115 66.7377 56.3226 66.7377 56.2168V52.9202C66.7419 52.8145 66.8272 52.7256 66.9337 52.7256ZM72.686 46.0563H75.9755C76.082 46.0563 76.1715 46.1452 76.1715 46.251V49.5475C76.1715 49.6533 76.082 49.7422 75.9755 49.7422H72.686C72.5795 49.7422 72.49 49.6533 72.49 49.5475V46.251C72.49 46.1452 72.5795 46.0563 72.686 46.0563ZM66.9337 46.0563H70.2232C70.3297 46.0563 70.4192 46.1452 70.4192 46.251V49.5475C70.4192 49.6533 70.3297 49.7422 70.2232 49.7422H66.9337C66.8272 49.7422 66.7377 49.6533 66.7377 49.5475V46.251C66.7419 46.1452 66.8272 46.0563 66.9337 46.0563ZM64.4836 24.3389H66.3244V26.4674H68.3398V24.3389H70.1891V30.4368H68.3398V27.9655H66.3244V30.4368H64.4836V24.3389ZM71.3353 27.39C71.3353 26.3955 71.608 25.6211 72.1491 25.0667C72.6903 24.5124 73.4487 24.2331 74.416 24.2331C75.4088 24.2331 76.1758 24.5039 76.7127 25.0498C77.2495 25.5957 77.518 26.3574 77.518 27.3392C77.518 28.0501 77.4029 28.6341 77.1686 29.0911C76.9342 29.5482 76.5933 29.9036 76.1502 30.1576C75.7071 30.4115 75.1531 30.5384 74.4927 30.5384C73.8194 30.5384 73.2655 30.4284 72.8224 30.2083C72.3835 29.9883 72.0256 29.6413 71.7486 29.1673C71.4759 28.6976 71.3353 28.1051 71.3353 27.39ZM73.1803 27.3942C73.1803 28.0078 73.2911 28.4521 73.5169 28.7188C73.7427 28.9854 74.0453 29.1208 74.433 29.1208C74.8293 29.1208 75.1361 28.9896 75.3534 28.7272C75.5707 28.4648 75.6815 27.9909 75.6815 27.3096C75.6815 26.734 75.5664 26.3151 75.3406 26.0527C75.1148 25.7861 74.808 25.6549 74.416 25.6549C74.0453 25.6549 73.7427 25.7904 73.5169 26.057C73.2911 26.3278 73.1803 26.7764 73.1803 27.3942ZM78.0336 24.3389H83.641V25.8454H81.7577V30.4368H79.9169V25.8454H78.0336V24.3389ZM84.621 24.3389H89.5553V25.6423H86.4746V26.6156H89.3337V27.8597H86.4746V29.0615H89.649V30.4411H84.621V24.3389ZM90.7909 24.3389H92.6317V28.9388H95.5164V30.4368H90.7909V24.3389ZM60.4059 22.3499V32.6331H99.5899V22.3796C99.5899 22.3203 99.5686 22.2695 99.5302 22.2314C99.4919 22.1934 99.4407 22.1722 99.3811 22.1722C94.7153 22.1722 87.6165 22.1637 80.1172 22.1553C73.9387 22.1468 68.1438 22.1426 60.6189 22.1426C60.5593 22.1426 60.5081 22.168 60.4698 22.2061C60.4314 22.2399 60.4059 22.2907 60.4059 22.3499ZM81.681 35.8112H95.1457C95.3758 35.8112 95.5803 35.917 95.7252 36.0905C95.853 36.2428 95.934 36.4502 95.934 36.6745V65.3659C95.934 65.5902 95.853 65.7975 95.7252 65.9499C95.7166 65.9583 95.7081 65.971 95.6996 65.9795C95.559 66.1318 95.363 66.2292 95.1499 66.2292H81.6852C81.4551 66.2292 81.2549 66.1234 81.11 65.9499C80.9779 65.7975 80.8969 65.5902 80.8969 65.3659V36.6745C80.8969 36.4502 80.9779 36.2428 81.1057 36.0905C81.2463 35.917 81.4509 35.8112 81.681 35.8112ZM94.7366 36.9495H82.09C82.09 36.9495 82.0858 36.9538 82.0772 36.9622C82.0559 36.9876 82.0431 37.0299 82.0431 37.0765V64.9554C82.0431 65.002 82.0559 65.0443 82.0772 65.0697C82.0858 65.0781 82.09 65.0824 82.09 65.0824H94.7366C94.7366 65.0824 94.7366 65.0824 94.7409 65.0824L95.1585 65.0697C95.1798 65.0443 94.7835 65.002 94.7835 64.9554V37.0765C94.7835 37.0299 95.1798 36.9876 95.1585 36.9622C95.1499 36.9538 94.7366 36.9495 94.7366 36.9495ZM64.7904 35.7816H78.2509C78.481 35.7816 78.6855 35.8874 78.8304 36.0566C78.9582 36.209 79.0391 36.4163 79.0391 36.6406V65.3617C79.0391 65.5859 78.9582 65.7933 78.8304 65.9456C78.6855 66.1149 78.481 66.2207 78.2509 66.2207H64.7904C64.5646 66.2207 64.3601 66.1149 64.2152 65.9414C64.0831 65.7891 64.0021 65.5817 64.0021 65.3574V36.6406C64.0021 36.4163 64.0831 36.209 64.2152 36.0566C64.3601 35.8874 64.5646 35.7816 64.7904 35.7816ZM77.8461 36.9199H65.1995C65.1995 36.9199 65.1909 36.9242 65.1867 36.9326C65.1654 36.958 65.1526 36.9961 65.1526 37.0469V64.9554C65.1526 65.002 65.1654 65.0443 65.1867 65.0697C65.1952 65.0781 65.1995 65.0824 65.1995 65.0824H77.8418C77.8418 65.0824 77.8461 65.0781 77.8546 65.0697C77.8759 65.0443 77.8887 65.002 77.8887 64.9554V37.0469C77.8887 37.0003 77.8759 36.958 77.8546 36.9326C77.8503 36.9242 77.8461 36.9199 77.8461 36.9199Z" fill="#00723F"/>
</g>
<defs>
<clipPath id="clip0_705_1528">
<rect width="48" height="52" fill="white" transform="translate(56 21)"/>
</clipPath>
</defs>
</svg>
