<svg width="162" height="119" viewBox="0 0 162 119" fill="none" xmlns="http://www.w3.org/2000/svg">
<rect x="34" width="94" height="94" rx="16" fill="#E5EAE8"/>
<path d="M50.3438 106.047V116H48.6279V106.047H50.3438ZM53.1738 106.047H54.7051L57.583 113.724L60.4541 106.047H61.9854L58.1846 116H56.9678L53.1738 106.047ZM52.4766 106.047H53.9326L54.1855 112.691V116H52.4766V106.047ZM61.2266 106.047H62.6895V116H60.9736V112.691L61.2266 106.047ZM68.5068 112.288H65.916V110.928H68.5068C68.958 110.928 69.3226 110.855 69.6006 110.709C69.8786 110.563 70.0814 110.363 70.209 110.107C70.3411 109.848 70.4072 109.551 70.4072 109.219C70.4072 108.904 70.3411 108.61 70.209 108.337C70.0814 108.059 69.8786 107.836 69.6006 107.667C69.3226 107.498 68.958 107.414 68.5068 107.414H66.4424V116H64.7266V106.047H68.5068C69.277 106.047 69.931 106.184 70.4688 106.457C71.0111 106.726 71.4235 107.1 71.7061 107.578C71.9886 108.052 72.1299 108.594 72.1299 109.205C72.1299 109.848 71.9886 110.399 71.7061 110.859C71.4235 111.32 71.0111 111.673 70.4688 111.919C69.931 112.165 69.277 112.288 68.5068 112.288ZM81.6045 110.75V111.297C81.6045 112.049 81.5065 112.723 81.3105 113.32C81.1146 113.917 80.8343 114.425 80.4697 114.845C80.1097 115.264 79.6768 115.585 79.1709 115.809C78.665 116.027 78.1045 116.137 77.4893 116.137C76.8786 116.137 76.3203 116.027 75.8145 115.809C75.3132 115.585 74.8779 115.264 74.5088 114.845C74.1396 114.425 73.8525 113.917 73.6475 113.32C73.4469 112.723 73.3467 112.049 73.3467 111.297V110.75C73.3467 109.998 73.4469 109.326 73.6475 108.733C73.848 108.136 74.1305 107.628 74.4951 107.209C74.8643 106.785 75.2995 106.464 75.8008 106.245C76.3066 106.022 76.8649 105.91 77.4756 105.91C78.0908 105.91 78.6514 106.022 79.1572 106.245C79.6631 106.464 80.0983 106.785 80.4629 107.209C80.8275 107.628 81.1077 108.136 81.3037 108.733C81.5042 109.326 81.6045 109.998 81.6045 110.75ZM79.8887 111.297V110.736C79.8887 110.18 79.834 109.69 79.7246 109.267C79.6198 108.838 79.4626 108.48 79.2529 108.193C79.0479 107.902 78.7949 107.683 78.4941 107.537C78.1934 107.387 77.8538 107.312 77.4756 107.312C77.0973 107.312 76.7601 107.387 76.4639 107.537C76.1676 107.683 75.9147 107.902 75.7051 108.193C75.5 108.48 75.3428 108.838 75.2334 109.267C75.124 109.69 75.0693 110.18 75.0693 110.736V111.297C75.0693 111.853 75.124 112.345 75.2334 112.773C75.3428 113.202 75.5023 113.564 75.7119 113.86C75.9261 114.152 76.1813 114.373 76.4775 114.523C76.7738 114.669 77.111 114.742 77.4893 114.742C77.8721 114.742 78.2116 114.669 78.5078 114.523C78.804 114.373 79.0547 114.152 79.2598 113.86C79.4648 113.564 79.6198 113.202 79.7246 112.773C79.834 112.345 79.8887 111.853 79.8887 111.297ZM83.3203 106.047H86.8408C87.5973 106.047 88.2422 106.161 88.7754 106.389C89.3086 106.617 89.7165 106.954 89.999 107.4C90.2861 107.842 90.4297 108.389 90.4297 109.041C90.4297 109.538 90.3385 109.975 90.1562 110.354C89.974 110.732 89.7165 111.051 89.3838 111.311C89.0511 111.566 88.6546 111.764 88.1943 111.905L87.6748 112.158H84.5098L84.4961 110.798H86.8682C87.2783 110.798 87.6201 110.725 87.8936 110.579C88.167 110.433 88.3721 110.235 88.5088 109.984C88.6501 109.729 88.7207 109.442 88.7207 109.123C88.7207 108.777 88.6523 108.476 88.5156 108.221C88.3835 107.961 88.1784 107.763 87.9004 107.626C87.6224 107.485 87.2692 107.414 86.8408 107.414H85.0361V116H83.3203V106.047ZM89.001 116L86.6631 111.529L88.4609 111.522L90.833 115.911V116H89.001ZM95.7686 106.047V116H94.0664V106.047H95.7686ZM98.8926 106.047V107.414H90.9697V106.047H98.8926Z" fill="#002E19"/>
<g clip-path="url(#clip0_705_1536)">
<path d="M95.9723 32.4965C96.308 32.8322 96.7477 33 97.1875 33C97.6273 33 98.067 32.8322 98.4027 32.4965C99.0741 31.8251 99.0741 30.7374 98.4027 30.066L97.8992 29.5625H102.344C103.294 29.5625 104.062 28.7929 104.062 27.8438C104.062 26.8946 103.294 26.125 102.344 26.125H97.8992L98.4027 25.6215C99.0741 24.9501 99.0741 23.8624 98.4027 23.191C97.7313 22.5197 96.6437 22.5197 95.9723 23.191L92.5348 26.6285C91.8634 27.2999 91.8634 28.3876 92.5348 29.059L95.9723 32.4965Z" fill="#00723F"/>
<path d="M100.121 35.2223C99.4501 34.5509 98.3624 34.5509 97.691 35.2223C97.0197 35.8937 97.0197 36.9813 97.691 37.6527L98.1946 38.1562H93.75C92.8 38.1562 92.0312 38.9258 92.0312 39.875C92.0312 40.8242 92.8 41.5938 93.75 41.5938H98.1946L97.691 42.0973C97.0197 42.7687 97.0197 43.8563 97.691 44.5277C98.0267 44.8634 98.4665 45.0312 98.9062 45.0312C99.346 45.0312 99.7858 44.8634 100.121 44.5277L103.559 41.0902C104.23 40.4188 104.23 39.3312 103.559 38.6598L100.121 35.2223Z" fill="#00723F"/>
<path d="M62.7585 65.6562H100.42L103.687 61.5734C104.099 61.0581 104.178 60.3506 103.893 59.7556C103.606 59.1597 103.005 58.7812 102.344 58.7812H73.6454L68.9222 55.6324C68.6402 55.4445 68.3079 55.3438 67.9688 55.3438H57.6563C56.9849 55.3438 56.3756 55.7348 56.0945 56.3441C55.8142 56.9542 55.9149 57.6718 56.3513 58.1812L62.7585 65.6562Z" fill="#00723F"/>
<path d="M64.2314 67.375L66.6635 70.2124C66.99 70.5935 67.4667 70.8125 67.9686 70.8125H95.4686C95.9906 70.8125 96.484 70.575 96.8113 70.1671L99.0451 67.375H64.2314Z" fill="#00723F"/>
<path d="M102.344 48.4688H93.75V57.0625H102.344V48.4688Z" fill="#00723F"/>
<path d="M92.0312 48.4688H83.4375V57.0625H92.0312V48.4688Z" fill="#00723F"/>
<path d="M81.7188 48.4688H73.125V57.0625H81.7188V48.4688Z" fill="#00723F"/>
<path d="M64.5312 36.4375C59.7851 36.4375 55.9375 40.2851 55.9375 45.0312C55.9375 49.7774 59.7851 53.625 64.5312 53.625C69.2774 53.625 73.125 49.7774 73.125 45.0312C73.125 40.2851 69.2774 36.4375 64.5312 36.4375ZM64.5312 44.1719C66.4262 44.1719 67.9688 45.7135 67.9688 47.6094C67.9688 49.2066 66.8687 50.5405 65.3906 50.9248V51.0469C65.3906 51.5219 65.0063 51.9062 64.5312 51.9062C64.0562 51.9062 63.6719 51.5219 63.6719 51.0469V50.9248C62.1938 50.5405 61.0938 49.2066 61.0938 47.6094C61.0938 47.1344 61.4781 46.75 61.9531 46.75C62.4281 46.75 62.8125 47.1344 62.8125 47.6094C62.8125 48.5569 63.5829 49.3281 64.5312 49.3281C65.4796 49.3281 66.25 48.5569 66.25 47.6094C66.25 46.6619 65.4796 45.8906 64.5312 45.8906C62.6363 45.8906 61.0938 44.349 61.0938 42.4531C61.0938 40.8559 62.1938 39.522 63.6719 39.1377V39.0156C63.6719 38.5406 64.0562 38.1562 64.5312 38.1562C65.0063 38.1562 65.3906 38.5406 65.3906 39.0156V39.1377C66.8687 39.522 67.9688 40.8559 67.9688 42.4531C67.9688 42.9281 67.5844 43.3125 67.1094 43.3125C66.6344 43.3125 66.25 42.9281 66.25 42.4531C66.25 41.5056 65.4796 40.7344 64.5312 40.7344C63.5829 40.7344 62.8125 41.5056 62.8125 42.4531C62.8125 43.4006 63.5829 44.1719 64.5312 44.1719Z" fill="#00723F"/>
<path d="M69.6875 32.9998C69.6875 34.0057 71.6481 35.2769 75.0016 35.9553C74.8997 34.9802 74.8438 33.9856 74.8438 32.9998C74.8438 32.0139 74.8997 31.0193 75.0016 30.0442C71.6481 30.7226 69.6875 31.9938 69.6875 32.9998Z" fill="#00723F"/>
<path d="M80.0005 27.8438C80.9864 27.8438 81.981 27.8997 82.9561 28.0016C82.2776 24.6481 81.0064 22.6875 80.0005 22.6875C78.9946 22.6875 77.7233 24.6481 77.0449 28.0016C78.02 27.8997 79.0146 27.8438 80.0005 27.8438Z" fill="#00723F"/>
<path d="M83.2326 29.7673C82.2338 29.6479 81.1746 29.5625 80 29.5625C78.8255 29.5625 77.7663 29.648 76.7674 29.7674C76.648 30.7663 76.5625 31.8255 76.5625 33C76.5625 34.1745 76.648 35.2337 76.7674 36.2326C77.7663 36.352 78.8255 36.4375 80 36.4375C81.1746 36.4375 82.2338 36.3521 83.2326 36.2327C83.352 35.2338 83.4375 34.1746 83.4375 33C83.4375 31.8254 83.352 30.7662 83.2326 29.7673Z" fill="#00723F"/>
<path d="M80.0005 38.1564C79.0146 38.1564 78.02 38.1005 77.0449 37.9985C77.7233 41.3521 78.9946 43.3127 80.0005 43.3127C81.0064 43.3127 82.2776 41.3521 82.9561 37.9985C81.981 38.1005 80.9864 38.1564 80.0005 38.1564Z" fill="#00723F"/>
<path d="M75.2522 28.252C75.6016 26.2624 76.1721 24.4598 76.9568 23.1453C73.7094 24.1472 71.1474 26.7092 70.1455 29.9566C71.4601 29.1719 73.2626 28.6013 75.2522 28.252Z" fill="#00723F"/>
<path d="M75.2522 37.748C73.2626 37.3987 71.4601 36.8281 70.1455 36.0435C71.1474 39.2909 73.7094 41.8528 76.9568 42.8548C76.1721 41.5402 75.6016 39.7377 75.2522 37.748Z" fill="#00723F"/>
<path d="M84.748 37.748C84.3985 39.7378 83.8277 41.5404 83.043 42.8549C86.2906 41.8533 88.8529 39.2911 89.8548 36.0435C88.5403 36.8281 86.7376 37.3987 84.748 37.748Z" fill="#00723F"/>
<path d="M90.3123 32.9999C90.3123 31.9938 88.3519 30.7225 84.998 30.0442C85.1 31.0193 85.156 32.014 85.156 32.9999C85.156 33.9858 85.1 34.9805 84.998 35.9555C88.3519 35.2772 90.3123 34.0059 90.3123 32.9999Z" fill="#00723F"/>
<path d="M84.748 28.2516C86.7376 28.6009 88.5403 29.1715 89.8548 29.9562C88.8529 26.7086 86.2906 24.1464 83.043 23.1448C83.8277 24.4592 84.3985 26.2619 84.748 28.2516Z" fill="#00723F"/>
</g>
<defs>
<clipPath id="clip0_705_1536">
<rect width="55" height="68.75" fill="white" transform="translate(51.5 19.25)"/>
</clipPath>
</defs>
</svg>
