<svg width="162" height="119" viewBox="0 0 162 119" fill="none" xmlns="http://www.w3.org/2000/svg">
<rect x="34" width="94" height="94" rx="16" fill="#E5EAE8"/>
<path d="M56.3438 106.047V116H54.6279V106.047H56.3438ZM59.96 110.107V116H58.3125V108.604H59.8643L59.96 110.107ZM59.6934 112.028L59.1328 112.021C59.1328 111.511 59.1966 111.039 59.3242 110.606C59.4518 110.174 59.6387 109.798 59.8848 109.479C60.1309 109.155 60.4362 108.907 60.8008 108.733C61.1699 108.556 61.596 108.467 62.0791 108.467C62.4163 108.467 62.724 108.517 63.002 108.617C63.2845 108.713 63.5283 108.866 63.7334 109.075C63.943 109.285 64.1025 109.554 64.2119 109.882C64.3258 110.21 64.3828 110.606 64.3828 111.071V116H62.7354V111.215C62.7354 110.855 62.6807 110.572 62.5713 110.367C62.4665 110.162 62.3138 110.016 62.1133 109.93C61.9173 109.839 61.6826 109.793 61.4092 109.793C61.0993 109.793 60.835 109.852 60.6162 109.971C60.402 110.089 60.2266 110.251 60.0898 110.456C59.9531 110.661 59.8529 110.898 59.7891 111.167C59.7253 111.436 59.6934 111.723 59.6934 112.028ZM64.2803 111.591L63.5078 111.762C63.5078 111.315 63.5693 110.894 63.6924 110.497C63.82 110.096 64.0046 109.745 64.2461 109.444C64.4922 109.139 64.7952 108.9 65.1553 108.727C65.5153 108.553 65.9277 108.467 66.3926 108.467C66.7708 108.467 67.1081 108.519 67.4043 108.624C67.7051 108.724 67.9603 108.884 68.1699 109.103C68.3796 109.321 68.5391 109.606 68.6484 109.957C68.7578 110.303 68.8125 110.723 68.8125 111.215V116H67.1582V111.208C67.1582 110.834 67.1035 110.545 66.9941 110.34C66.8893 110.135 66.7389 109.993 66.543 109.916C66.347 109.834 66.1123 109.793 65.8389 109.793C65.5837 109.793 65.3581 109.841 65.1621 109.937C64.9707 110.028 64.8089 110.158 64.6768 110.326C64.5446 110.49 64.4443 110.679 64.376 110.894C64.3122 111.108 64.2803 111.34 64.2803 111.591ZM72.1621 110.025V118.844H70.5146V108.604H72.0322L72.1621 110.025ZM76.9814 112.233V112.377C76.9814 112.915 76.9176 113.414 76.79 113.874C76.667 114.33 76.4824 114.729 76.2363 115.07C75.9948 115.408 75.6963 115.67 75.3408 115.856C74.9854 116.043 74.5752 116.137 74.1104 116.137C73.6501 116.137 73.2467 116.052 72.9004 115.884C72.5586 115.711 72.2692 115.467 72.0322 115.152C71.7952 114.838 71.6038 114.469 71.458 114.045C71.3167 113.617 71.2165 113.147 71.1572 112.637V112.083C71.2165 111.541 71.3167 111.049 71.458 110.606C71.6038 110.164 71.7952 109.784 72.0322 109.465C72.2692 109.146 72.5586 108.9 72.9004 108.727C73.2422 108.553 73.641 108.467 74.0967 108.467C74.5615 108.467 74.974 108.558 75.334 108.74C75.694 108.918 75.9971 109.173 76.2432 109.506C76.4893 109.834 76.6738 110.23 76.7969 110.695C76.9199 111.156 76.9814 111.668 76.9814 112.233ZM75.334 112.377V112.233C75.334 111.892 75.3021 111.575 75.2383 111.283C75.1745 110.987 75.0742 110.727 74.9375 110.504C74.8008 110.281 74.6253 110.107 74.4111 109.984C74.2015 109.857 73.9486 109.793 73.6523 109.793C73.3607 109.793 73.11 109.843 72.9004 109.943C72.6908 110.039 72.5153 110.174 72.374 110.347C72.2327 110.52 72.1234 110.723 72.0459 110.955C71.9684 111.183 71.9137 111.431 71.8818 111.7V113.026C71.9365 113.354 72.0299 113.655 72.1621 113.929C72.2943 114.202 72.4811 114.421 72.7227 114.585C72.9688 114.744 73.2832 114.824 73.666 114.824C73.9622 114.824 74.2152 114.76 74.4248 114.633C74.6344 114.505 74.8053 114.33 74.9375 114.106C75.0742 113.879 75.1745 113.617 75.2383 113.32C75.3021 113.024 75.334 112.71 75.334 112.377ZM78.0684 112.384V112.227C78.0684 111.693 78.1458 111.199 78.3008 110.743C78.4557 110.283 78.679 109.884 78.9707 109.547C79.2669 109.205 79.627 108.941 80.0508 108.754C80.4792 108.562 80.9622 108.467 81.5 108.467C82.0423 108.467 82.5254 108.562 82.9492 108.754C83.3776 108.941 83.7399 109.205 84.0361 109.547C84.3324 109.884 84.5579 110.283 84.7129 110.743C84.8678 111.199 84.9453 111.693 84.9453 112.227V112.384C84.9453 112.917 84.8678 113.411 84.7129 113.867C84.5579 114.323 84.3324 114.722 84.0361 115.063C83.7399 115.401 83.3799 115.665 82.9561 115.856C82.5322 116.043 82.0514 116.137 81.5137 116.137C80.9714 116.137 80.486 116.043 80.0576 115.856C79.6338 115.665 79.2738 115.401 78.9775 115.063C78.6813 114.722 78.4557 114.323 78.3008 113.867C78.1458 113.411 78.0684 112.917 78.0684 112.384ZM79.7158 112.227V112.384C79.7158 112.716 79.75 113.031 79.8184 113.327C79.8867 113.623 79.9938 113.883 80.1396 114.106C80.2855 114.33 80.4723 114.505 80.7002 114.633C80.9281 114.76 81.1992 114.824 81.5137 114.824C81.819 114.824 82.0833 114.76 82.3066 114.633C82.5345 114.505 82.7214 114.33 82.8672 114.106C83.013 113.883 83.1201 113.623 83.1885 113.327C83.2614 113.031 83.2979 112.716 83.2979 112.384V112.227C83.2979 111.898 83.2614 111.589 83.1885 111.297C83.1201 111.001 83.0107 110.739 82.8604 110.511C82.7145 110.283 82.5277 110.105 82.2998 109.978C82.0765 109.845 81.8099 109.779 81.5 109.779C81.1901 109.779 80.9212 109.845 80.6934 109.978C80.4701 110.105 80.2855 110.283 80.1396 110.511C79.9938 110.739 79.8867 111.001 79.8184 111.297C79.75 111.589 79.7158 111.898 79.7158 112.227ZM87.9805 110.012V116H86.333V108.604H87.9053L87.9805 110.012ZM90.2432 108.556L90.2295 110.087C90.1292 110.069 90.0199 110.055 89.9014 110.046C89.7874 110.037 89.6735 110.032 89.5596 110.032C89.277 110.032 89.0286 110.073 88.8145 110.155C88.6003 110.233 88.4202 110.347 88.2744 110.497C88.1331 110.643 88.0238 110.821 87.9463 111.03C87.8688 111.24 87.8232 111.475 87.8096 111.734L87.4336 111.762C87.4336 111.297 87.4792 110.866 87.5703 110.47C87.6615 110.073 87.7982 109.725 87.9805 109.424C88.1673 109.123 88.3997 108.888 88.6777 108.72C88.9603 108.551 89.2861 108.467 89.6553 108.467C89.7555 108.467 89.8626 108.476 89.9766 108.494C90.0951 108.512 90.1839 108.533 90.2432 108.556ZM95.0078 108.604V109.807H90.8379V108.604H95.0078ZM92.041 106.792H93.6885V113.956C93.6885 114.184 93.7204 114.359 93.7842 114.482C93.8525 114.601 93.946 114.681 94.0645 114.722C94.1829 114.763 94.3219 114.783 94.4814 114.783C94.5954 114.783 94.7048 114.776 94.8096 114.763C94.9144 114.749 94.9987 114.735 95.0625 114.722L95.0693 115.979C94.9326 116.021 94.7731 116.057 94.5908 116.089C94.4131 116.121 94.208 116.137 93.9756 116.137C93.5973 116.137 93.2624 116.071 92.9707 115.938C92.679 115.802 92.4512 115.581 92.2871 115.275C92.123 114.97 92.041 114.564 92.041 114.059V106.792ZM99.54 116.137C98.9932 116.137 98.4987 116.048 98.0566 115.87C97.6191 115.688 97.2454 115.435 96.9355 115.111C96.6302 114.788 96.3955 114.407 96.2314 113.97C96.0674 113.532 95.9854 113.061 95.9854 112.555V112.281C95.9854 111.702 96.0697 111.178 96.2383 110.709C96.4069 110.24 96.6416 109.839 96.9424 109.506C97.2432 109.169 97.5986 108.911 98.0088 108.733C98.4189 108.556 98.8633 108.467 99.3418 108.467C99.8704 108.467 100.333 108.556 100.729 108.733C101.126 108.911 101.454 109.162 101.714 109.485C101.978 109.804 102.174 110.185 102.302 110.627C102.434 111.069 102.5 111.557 102.5 112.09V112.794H96.7852V111.611H100.873V111.481C100.864 111.185 100.805 110.907 100.695 110.647C100.59 110.388 100.429 110.178 100.21 110.019C99.9912 109.859 99.6995 109.779 99.335 109.779C99.0615 109.779 98.8177 109.839 98.6035 109.957C98.3939 110.071 98.2184 110.237 98.0771 110.456C97.9359 110.675 97.8265 110.939 97.749 111.249C97.6761 111.554 97.6396 111.898 97.6396 112.281V112.555C97.6396 112.878 97.6829 113.179 97.7695 113.457C97.8607 113.73 97.9928 113.97 98.166 114.175C98.3392 114.38 98.5488 114.542 98.7949 114.66C99.041 114.774 99.3213 114.831 99.6357 114.831C100.032 114.831 100.385 114.751 100.695 114.592C101.005 114.432 101.274 114.207 101.502 113.915L102.37 114.756C102.211 114.988 102.003 115.212 101.748 115.426C101.493 115.635 101.181 115.806 100.812 115.938C100.447 116.071 100.023 116.137 99.54 116.137ZM105.439 110.012V116H103.792V108.604H105.364L105.439 110.012ZM107.702 108.556L107.688 110.087C107.588 110.069 107.479 110.055 107.36 110.046C107.246 110.037 107.132 110.032 107.019 110.032C106.736 110.032 106.488 110.073 106.273 110.155C106.059 110.233 105.879 110.347 105.733 110.497C105.592 110.643 105.483 110.821 105.405 111.03C105.328 111.24 105.282 111.475 105.269 111.734L104.893 111.762C104.893 111.297 104.938 110.866 105.029 110.47C105.12 110.073 105.257 109.725 105.439 109.424C105.626 109.123 105.859 108.888 106.137 108.72C106.419 108.551 106.745 108.467 107.114 108.467C107.215 108.467 107.322 108.476 107.436 108.494C107.554 108.512 107.643 108.533 107.702 108.556Z" fill="#002E19"/>
<g clip-path="url(#clip0_705_1604)">
<path d="M83.9723 32.4965C84.308 32.8322 84.7477 33 85.1875 33C85.6273 33 86.067 32.8322 86.4027 32.4965C87.0741 31.8251 87.0741 30.7374 86.4027 30.066L85.8992 29.5625H90.3438C91.2938 29.5625 92.0625 28.7929 92.0625 27.8438C92.0625 26.8946 91.2938 26.125 90.3438 26.125H85.8992L86.4027 25.6215C87.0741 24.9501 87.0741 23.8624 86.4027 23.191C85.7313 22.5197 84.6437 22.5197 83.9723 23.191L80.5348 26.6285C79.8634 27.2999 79.8634 28.3876 80.5348 29.059L83.9723 32.4965Z" fill="#00723F"/>
<path d="M88.1215 35.2223C87.4501 34.5509 86.3624 34.5509 85.691 35.2223C85.0197 35.8937 85.0197 36.9813 85.691 37.6527L86.1946 38.1562H81.75C80.8 38.1562 80.0312 38.9258 80.0312 39.875C80.0312 40.8242 80.8 41.5938 81.75 41.5938H86.1946L85.691 42.0973C85.0197 42.7687 85.0197 43.8563 85.691 44.5277C86.0267 44.8634 86.4665 45.0312 86.9062 45.0312C87.346 45.0312 87.7858 44.8634 88.1215 44.5277L91.559 41.0902C92.2303 40.4188 92.2303 39.3312 91.559 38.6598L88.1215 35.2223Z" fill="#00723F"/>
<path d="M50.7585 65.6562H88.4203L91.6866 61.5734C92.0995 61.0581 92.1784 60.3506 91.893 59.7556C91.606 59.1597 91.0051 58.7812 90.3438 58.7812H61.6454L56.9222 55.6324C56.6402 55.4445 56.3079 55.3438 55.9688 55.3438H45.6563C44.9849 55.3438 44.3756 55.7348 44.0945 56.3441C43.8142 56.9542 43.9149 57.6718 44.3513 58.1812L50.7585 65.6562Z" fill="#00723F"/>
<path d="M52.2314 67.375L54.6635 70.2124C54.99 70.5935 55.4667 70.8125 55.9686 70.8125H83.4686C83.9906 70.8125 84.484 70.575 84.8113 70.1671L87.0451 67.375H52.2314Z" fill="#00723F"/>
<path d="M90.3438 48.4688H81.75V57.0625H90.3438V48.4688Z" fill="#00723F"/>
<path d="M80.0312 48.4688H71.4375V57.0625H80.0312V48.4688Z" fill="#00723F"/>
<path d="M69.7188 48.4688H61.125V57.0625H69.7188V48.4688Z" fill="#00723F"/>
<path d="M52.5312 36.4375C47.7851 36.4375 43.9375 40.2851 43.9375 45.0312C43.9375 49.7774 47.7851 53.625 52.5312 53.625C57.2774 53.625 61.125 49.7774 61.125 45.0312C61.125 40.2851 57.2774 36.4375 52.5312 36.4375ZM52.5312 44.1719C54.4262 44.1719 55.9688 45.7135 55.9688 47.6094C55.9688 49.2066 54.8687 50.5405 53.3906 50.9248V51.0469C53.3906 51.5219 53.0063 51.9062 52.5312 51.9062C52.0562 51.9062 51.6719 51.5219 51.6719 51.0469V50.9248C50.1938 50.5405 49.0938 49.2066 49.0938 47.6094C49.0938 47.1344 49.4781 46.75 49.9531 46.75C50.4281 46.75 50.8125 47.1344 50.8125 47.6094C50.8125 48.5569 51.5829 49.3281 52.5312 49.3281C53.4796 49.3281 54.25 48.5569 54.25 47.6094C54.25 46.6619 53.4796 45.8906 52.5312 45.8906C50.6363 45.8906 49.0938 44.349 49.0938 42.4531C49.0938 40.8559 50.1938 39.522 51.6719 39.1377V39.0156C51.6719 38.5406 52.0562 38.1562 52.5312 38.1562C53.0063 38.1562 53.3906 38.5406 53.3906 39.0156V39.1377C54.8687 39.522 55.9688 40.8559 55.9688 42.4531C55.9688 42.9281 55.5844 43.3125 55.1094 43.3125C54.6344 43.3125 54.25 42.9281 54.25 42.4531C54.25 41.5056 53.4796 40.7344 52.5312 40.7344C51.5829 40.7344 50.8125 41.5056 50.8125 42.4531C50.8125 43.4006 51.5829 44.1719 52.5312 44.1719Z" fill="#00723F"/>
<path d="M57.6875 32.9998C57.6875 34.0057 59.6481 35.2769 63.0016 35.9553C62.8997 34.9802 62.8438 33.9856 62.8438 32.9998C62.8438 32.0139 62.8997 31.0193 63.0016 30.0442C59.6481 30.7226 57.6875 31.9938 57.6875 32.9998Z" fill="#00723F"/>
<path d="M68.0005 27.8438C68.9864 27.8438 69.981 27.8997 70.9561 28.0016C70.2776 24.6481 69.0064 22.6875 68.0005 22.6875C66.9946 22.6875 65.7233 24.6481 65.0449 28.0016C66.02 27.8997 67.0146 27.8438 68.0005 27.8438Z" fill="#00723F"/>
<path d="M71.2326 29.7673C70.2338 29.6479 69.1746 29.5625 68 29.5625C66.8255 29.5625 65.7663 29.648 64.7674 29.7674C64.648 30.7663 64.5625 31.8255 64.5625 33C64.5625 34.1745 64.648 35.2337 64.7674 36.2326C65.7663 36.352 66.8255 36.4375 68 36.4375C69.1746 36.4375 70.2338 36.3521 71.2326 36.2327C71.352 35.2338 71.4375 34.1746 71.4375 33C71.4375 31.8254 71.352 30.7662 71.2326 29.7673Z" fill="#00723F"/>
<path d="M68.0005 38.1564C67.0146 38.1564 66.02 38.1005 65.0449 37.9985C65.7233 41.3521 66.9946 43.3127 68.0005 43.3127C69.0064 43.3127 70.2776 41.3521 70.9561 37.9985C69.981 38.1005 68.9864 38.1564 68.0005 38.1564Z" fill="#00723F"/>
<path d="M63.2522 28.252C63.6016 26.2624 64.1721 24.4598 64.9568 23.1453C61.7094 24.1472 59.1474 26.7092 58.1455 29.9566C59.4601 29.1719 61.2626 28.6013 63.2522 28.252Z" fill="#00723F"/>
<path d="M63.2522 37.748C61.2626 37.3987 59.4601 36.8281 58.1455 36.0435C59.1474 39.2909 61.7094 41.8528 64.9568 42.8548C64.1721 41.5402 63.6016 39.7377 63.2522 37.748Z" fill="#00723F"/>
<path d="M72.748 37.748C72.3985 39.7378 71.8277 41.5404 71.043 42.8549C74.2906 41.8533 76.8529 39.2911 77.8548 36.0435C76.5403 36.8281 74.7376 37.3987 72.748 37.748Z" fill="#00723F"/>
<path d="M78.3123 32.9999C78.3123 31.9938 76.3519 30.7225 72.998 30.0442C73.1 31.0193 73.156 32.014 73.156 32.9999C73.156 33.9858 73.1 34.9805 72.998 35.9555C76.3519 35.2772 78.3123 34.0059 78.3123 32.9999Z" fill="#00723F"/>
<path d="M72.748 28.2516C74.7376 28.6009 76.5403 29.1715 77.8548 29.9562C76.8529 26.7086 74.2906 24.1464 71.043 23.1448C71.8277 24.4592 72.3985 26.2619 72.748 28.2516Z" fill="#00723F"/>
</g>
<defs>
<clipPath id="clip0_705_1604">
<rect width="55" height="68.75" fill="white" transform="translate(40.5 19.25)"/>
</clipPath>
</defs>
</svg>
