<svg width="161" height="140" viewBox="0 0 161 140" fill="none" xmlns="http://www.w3.org/2000/svg">
<rect x="33.5" width="94" height="94" rx="16" fill="#E5EAE8"/>
<path d="M31.3906 108.047H32.9219L35.7998 115.724L38.6709 108.047H40.2021L36.4014 118H35.1846L31.3906 108.047ZM30.6934 108.047H32.1494L32.4023 114.691V118H30.6934V108.047ZM39.4434 108.047H40.9062V118H39.1904V114.691L39.4434 108.047ZM46.9424 109.373L43.9688 118H42.1709L45.917 108.047H47.0654L46.9424 109.373ZM49.4307 118L46.4502 109.373L46.3203 108.047H47.4756L51.2354 118H49.4307ZM49.2871 114.309V115.669H43.873V114.309H49.2871ZM54.1816 108.047V118H52.4658V108.047H54.1816ZM64.21 108.047V118H62.4941L58.0303 110.87V118H56.3145V108.047H58.0303L62.5078 115.19V108.047H64.21ZM70.1436 108.047V118H68.4414V108.047H70.1436ZM73.2676 108.047V109.414H65.3447V108.047H73.2676ZM81.0947 116.64V118H75.8105V116.64H81.0947ZM76.2959 108.047V118H74.5801V108.047H76.2959ZM80.4043 112.203V113.543H75.8105V112.203H80.4043ZM81.0605 108.047V109.414H75.8105V108.047H81.0605ZM90.3916 108.047V118H88.6758L84.2119 110.87V118H82.4961V108.047H84.2119L88.6895 115.19V108.047H90.3916ZM96.4346 109.373L93.4609 118H91.6631L95.4092 108.047H96.5576L96.4346 109.373ZM98.9229 118L95.9424 109.373L95.8125 108.047H96.9678L100.728 118H98.9229ZM98.7793 114.309V115.669H93.3652V114.309H98.7793ZM109.737 108.047V118H108.021L103.558 110.87V118H101.842V108.047H103.558L108.035 115.19V108.047H109.737ZM117.66 114.76H119.369C119.314 115.411 119.132 115.993 118.822 116.503C118.512 117.009 118.077 117.408 117.517 117.699C116.956 117.991 116.275 118.137 115.473 118.137C114.857 118.137 114.304 118.027 113.812 117.809C113.319 117.585 112.898 117.271 112.547 116.865C112.196 116.455 111.927 115.961 111.74 115.382C111.558 114.803 111.467 114.156 111.467 113.44V112.613C111.467 111.898 111.56 111.251 111.747 110.672C111.938 110.093 112.212 109.599 112.567 109.188C112.923 108.774 113.349 108.457 113.846 108.238C114.347 108.02 114.91 107.91 115.534 107.91C116.327 107.91 116.997 108.056 117.544 108.348C118.091 108.639 118.515 109.043 118.815 109.558C119.121 110.073 119.308 110.663 119.376 111.328H117.667C117.621 110.9 117.521 110.533 117.366 110.228C117.216 109.922 116.993 109.69 116.696 109.53C116.4 109.366 116.013 109.284 115.534 109.284C115.142 109.284 114.8 109.357 114.509 109.503C114.217 109.649 113.973 109.863 113.777 110.146C113.581 110.428 113.433 110.777 113.333 111.191C113.237 111.602 113.189 112.071 113.189 112.6V113.44C113.189 113.942 113.233 114.397 113.319 114.808C113.41 115.213 113.547 115.562 113.729 115.854C113.916 116.145 114.153 116.371 114.44 116.53C114.728 116.69 115.072 116.77 115.473 116.77C115.96 116.77 116.354 116.692 116.655 116.537C116.961 116.382 117.191 116.157 117.346 115.86C117.505 115.56 117.61 115.193 117.66 114.76ZM127.442 116.64V118H122.158V116.64H127.442ZM122.644 108.047V118H120.928V108.047H122.644ZM126.752 112.203V113.543H122.158V112.203H126.752ZM127.408 108.047V109.414H122.158V108.047H127.408ZM46.1084 127.373L43.1348 136H41.3369L45.083 126.047H46.2314L46.1084 127.373ZM48.5967 136L45.6162 127.373L45.4863 126.047H46.6416L50.4014 136H48.5967ZM48.4531 132.309V133.669H43.0391V132.309H48.4531ZM59.4111 126.047V136H57.6953L53.2314 128.87V136H51.5156V126.047H53.2314L57.709 133.19V126.047H59.4111ZM64.3467 136H62.2207L62.2344 134.64H64.3467C64.9619 134.64 65.4769 134.505 65.8916 134.236C66.3109 133.967 66.6253 133.582 66.835 133.081C67.0492 132.58 67.1562 131.983 67.1562 131.29V130.75C67.1562 130.212 67.0947 129.736 66.9717 129.321C66.8532 128.907 66.6755 128.558 66.4385 128.275C66.2061 127.993 65.9189 127.779 65.5771 127.633C65.2399 127.487 64.8503 127.414 64.4082 127.414H62.1797V126.047H64.4082C65.069 126.047 65.6729 126.159 66.2197 126.382C66.7666 126.601 67.2383 126.917 67.6348 127.332C68.0358 127.747 68.3434 128.243 68.5576 128.822C68.7718 129.401 68.8789 130.048 68.8789 130.764V131.29C68.8789 132.006 68.7718 132.653 68.5576 133.231C68.3434 133.81 68.0358 134.307 67.6348 134.722C67.2337 135.132 66.7552 135.449 66.1992 135.672C65.6478 135.891 65.0303 136 64.3467 136ZM63.1709 126.047V136H61.4551V126.047H63.1709ZM74.0879 126.047H77.6084C78.3649 126.047 79.0098 126.161 79.543 126.389C80.0762 126.617 80.484 126.954 80.7666 127.4C81.0537 127.842 81.1973 128.389 81.1973 129.041C81.1973 129.538 81.1061 129.975 80.9238 130.354C80.7415 130.732 80.484 131.051 80.1514 131.311C79.8187 131.566 79.4222 131.764 78.9619 131.905L78.4424 132.158H75.2773L75.2637 130.798H77.6357C78.0459 130.798 78.3877 130.725 78.6611 130.579C78.9346 130.433 79.1396 130.235 79.2764 129.984C79.4176 129.729 79.4883 129.442 79.4883 129.123C79.4883 128.777 79.4199 128.476 79.2832 128.221C79.151 127.961 78.946 127.763 78.668 127.626C78.39 127.485 78.0368 127.414 77.6084 127.414H75.8037V136H74.0879V126.047ZM79.7686 136L77.4307 131.529L79.2285 131.522L81.6006 135.911V136H79.7686ZM89.4209 134.64V136H84.1367V134.64H89.4209ZM84.6221 126.047V136H82.9062V126.047H84.6221ZM88.7305 130.203V131.543H84.1367V130.203H88.7305ZM89.3867 126.047V127.414H84.1367V126.047H89.3867ZM94.6025 132.288H92.0117V130.928H94.6025C95.0537 130.928 95.4183 130.855 95.6963 130.709C95.9743 130.563 96.1771 130.363 96.3047 130.107C96.4368 129.848 96.5029 129.551 96.5029 129.219C96.5029 128.904 96.4368 128.61 96.3047 128.337C96.1771 128.059 95.9743 127.836 95.6963 127.667C95.4183 127.498 95.0537 127.414 94.6025 127.414H92.5381V136H90.8223V126.047H94.6025C95.3727 126.047 96.0267 126.184 96.5645 126.457C97.1068 126.726 97.5192 127.1 97.8018 127.578C98.0843 128.052 98.2256 128.594 98.2256 129.205C98.2256 129.848 98.0843 130.399 97.8018 130.859C97.5192 131.32 97.1068 131.673 96.5645 131.919C96.0267 132.165 95.3727 132.288 94.6025 132.288ZM102.601 127.373L99.627 136H97.8291L101.575 126.047H102.724L102.601 127.373ZM105.089 136L102.108 127.373L101.979 126.047H103.134L106.894 136H105.089ZM104.945 132.309V133.669H99.5312V132.309H104.945ZM109.84 126.047V136H108.124V126.047H109.84ZM111.973 126.047H115.493C116.25 126.047 116.895 126.161 117.428 126.389C117.961 126.617 118.369 126.954 118.651 127.4C118.938 127.842 119.082 128.389 119.082 129.041C119.082 129.538 118.991 129.975 118.809 130.354C118.626 130.732 118.369 131.051 118.036 131.311C117.703 131.566 117.307 131.764 116.847 131.905L116.327 132.158H113.162L113.148 130.798H115.521C115.931 130.798 116.272 130.725 116.546 130.579C116.819 130.433 117.024 130.235 117.161 129.984C117.302 129.729 117.373 129.442 117.373 129.123C117.373 128.777 117.305 128.476 117.168 128.221C117.036 127.961 116.831 127.763 116.553 127.626C116.275 127.485 115.922 127.414 115.493 127.414H113.688V136H111.973V126.047ZM117.653 136L115.315 131.529L117.113 131.522L119.485 135.911V136H117.653Z" fill="#002E19"/>
<g clip-path="url(#clip0_705_1571)">
<path d="M82.1857 29.4773C81.851 29.1113 81.4587 28.9308 81.0042 28.9308C80.5501 28.9308 80.1523 29.1113 79.8231 29.4773L78.0225 31.4397C77.5396 31.0982 77.0289 30.7998 76.4948 30.5328C75.9612 30.2658 75.4157 30.0368 74.8647 29.8378V26.819C74.8647 26.31 74.7061 25.8815 74.3819 25.5275C74.059 25.1735 73.6672 25 73.2012 25H69.7367C69.2936 25 68.9081 25.1735 68.5729 25.5275C68.2437 25.8815 68.0787 26.31 68.0787 26.819V29.5828C67.4998 29.7314 66.9374 29.9178 66.3974 30.1478C65.8528 30.3773 65.3361 30.6388 64.8473 30.9303L62.8537 28.7814C62.5414 28.4214 62.161 28.2349 61.701 28.2349C61.2461 28.2349 60.8546 28.4214 60.5195 28.7814L58.0947 31.4397C57.7599 31.8058 57.5949 32.2347 57.5949 32.7307C57.5949 33.2277 57.7599 33.6627 58.0947 34.0227L59.8898 35.9916C59.5775 36.5191 59.3049 37.078 59.0608 37.6611C58.8162 38.245 58.6067 38.8419 58.4243 39.4439H55.6644C55.198 39.4439 54.8062 39.6175 54.4828 39.9714C54.1591 40.3259 54 40.7544 54 41.2638V45.0522C54 45.5357 54.1591 45.9586 54.4824 46.3251C54.8057 46.6847 55.198 46.8651 55.6639 46.8651H58.1907C58.327 47.4977 58.4971 48.1126 58.7078 48.7026C58.9186 49.299 59.1568 49.8765 59.4234 50.435L57.4582 52.5774C57.1285 52.9194 56.9584 53.3354 56.9584 53.8388C56.9584 54.3353 57.1285 54.7643 57.4582 55.1308L59.8894 57.8197C60.2241 58.1611 60.616 58.3296 61.0709 58.3296C61.5245 58.3296 61.9219 58.1616 62.252 57.8197L64.0521 55.8202C64.5346 56.1613 65.0462 56.4592 65.5798 56.7272C66.1139 56.9932 66.6589 57.2237 67.2099 57.4222V60.4405C67.2099 60.9495 67.369 61.3775 67.6923 61.7311C68.016 62.086 68.4083 62.26 68.8738 62.26H72.338C72.781 62.26 73.167 62.086 73.5021 61.7311C73.8309 61.3775 73.996 60.9495 73.996 60.4405V57.6767C74.5753 57.5281 75.1373 57.3417 75.6768 57.1112C76.2223 56.8817 76.7508 56.6203 77.2612 56.3288L79.2205 58.4781C79.5332 58.8381 79.9188 59.0246 80.3855 59.0246C80.8561 59.0246 81.2424 58.8386 81.5556 58.4781L84.0147 55.8202C84.327 55.4533 84.481 55.0248 84.481 54.5283C84.481 54.0318 84.3274 53.5968 84.0147 53.2368L82.1861 51.2679C82.4984 50.74 82.771 50.1815 83.0156 49.598C83.2589 49.0145 83.4692 48.4176 83.6512 47.8156H86.4116C86.8771 47.8156 87.2685 47.6406 87.5918 47.2876C87.916 46.9331 88.0751 46.5051 88.0751 45.9957V42.2078C88.0751 41.7233 87.916 41.3018 87.5918 40.9344C87.2685 40.5744 86.8771 40.3944 86.4116 40.3944H83.8839C83.7477 39.7859 83.5771 39.1774 83.3668 38.5754C83.1569 37.9665 82.9178 37.3955 82.6512 36.8606L84.6169 34.6816C84.9461 34.3401 85.1166 33.9236 85.1166 33.4211C85.1166 32.9237 84.9465 32.4957 84.6169 32.1292L82.1857 29.4773ZM101.361 49.8247C101.147 49.6604 100.919 49.6031 100.673 49.6507C100.426 49.6975 100.225 49.8363 100.08 50.069L99.2723 51.3193C98.9812 51.1842 98.679 51.0759 98.365 50.9857C98.0532 50.8959 97.737 50.827 97.4209 50.777L97.1603 49.1399C97.1158 48.8641 96.9931 48.648 96.7862 48.4893C96.5805 48.3306 96.3528 48.2769 96.1002 48.3255L94.2209 48.6836C93.9813 48.7294 93.7871 48.8641 93.6356 49.0904C93.4875 49.3157 93.4346 49.5656 93.4795 49.8423L93.7181 51.3406C93.4164 51.4808 93.1278 51.6404 92.8561 51.8209C92.5794 52.0023 92.3216 52.1966 92.0826 52.4058L90.8151 51.4466C90.6137 51.2837 90.3924 51.2226 90.1423 51.2693C89.8956 51.317 89.6996 51.4577 89.549 51.6876L88.464 53.3807C88.3142 53.614 88.2613 53.8638 88.3044 54.1317C88.3476 54.4024 88.4745 54.6208 88.6874 54.7814L89.8312 55.6638C89.7077 55.9817 89.6082 56.3126 89.5261 56.6559C89.4436 56.9974 89.381 57.3426 89.3349 57.6882L87.8377 57.9733C87.5854 58.0214 87.3878 58.1565 87.2427 58.3823C87.0971 58.6072 87.0489 58.8566 87.0929 59.1324L87.42 61.1874C87.4619 61.4493 87.5842 61.6621 87.7924 61.8273C87.9985 61.9893 88.227 62.0466 88.4796 61.9981L89.8503 61.7371C89.9789 62.067 90.1245 62.3821 90.2896 62.6806C90.4554 62.9823 90.6344 63.2701 90.8278 63.5454L89.9472 64.9114C89.7978 65.1312 89.742 65.3736 89.7851 65.6471C89.8283 65.9169 89.9569 66.1316 90.1677 66.2958L91.7186 67.5022C91.9298 67.6525 92.157 67.7039 92.4033 67.6567C92.65 67.61 92.8515 67.4767 93 67.2578L93.8036 65.9872C94.0948 66.1228 94.3973 66.2315 94.7109 66.3208C95.0232 66.4106 95.3389 66.4795 95.6546 66.5291L95.9161 68.1671C95.9601 68.4433 96.0837 68.659 96.2898 68.8168C96.4954 68.9759 96.7235 69.0296 96.9757 68.9815L98.8542 68.6229C99.095 68.5766 99.2893 68.4429 99.4408 68.2161C99.5884 67.9903 99.6413 67.7419 99.5965 67.4647L99.3574 65.965C99.6591 65.8248 99.9481 65.6661 100.221 65.4851C100.496 65.3033 100.76 65.1085 101.012 64.8975L102.261 65.8604C102.462 66.0233 102.687 66.0839 102.94 66.0353C103.195 65.9872 103.389 65.8461 103.527 65.6184L104.631 63.9225C104.768 63.6912 104.815 63.4431 104.772 63.1738C104.729 62.9041 104.608 62.6838 104.408 62.5214L103.245 61.6427C103.369 61.3243 103.468 60.9935 103.55 60.6506C103.632 60.3091 103.695 59.9639 103.742 59.6178L105.238 59.3328C105.491 59.2846 105.688 59.1505 105.833 58.9242C105.978 58.6984 106.027 58.4503 105.983 58.1741L105.655 56.1191C105.613 55.8568 105.49 55.6448 105.283 55.4787C105.077 55.3163 104.849 55.2599 104.596 55.308L103.225 55.5694C103.099 55.2529 102.954 54.941 102.787 54.6361C102.62 54.3275 102.442 54.0424 102.251 53.7801L103.129 52.3942C103.278 52.1744 103.334 51.9324 103.29 51.6585C103.247 51.3887 103.118 51.1749 102.907 51.0102L101.361 49.8247ZM95.9622 55.0442C96.4155 54.9572 96.8585 54.9693 97.294 55.0789C97.7277 55.1928 98.1204 55.3829 98.4691 55.6486C98.8183 55.9179 99.1136 56.2575 99.3582 56.6656C99.6007 57.077 99.7603 57.5286 99.8402 58.0242C99.9194 58.5202 99.9079 59.0047 99.8081 59.4818C99.704 59.9551 99.5309 60.3836 99.2863 60.7663C99.04 61.1471 98.7302 61.4706 98.357 61.738C97.9808 62.0031 97.5678 62.1781 97.1141 62.265C96.6613 62.3511 96.2183 62.3386 95.782 62.2294C95.3482 62.1156 94.9568 61.9263 94.6068 61.6593C94.259 61.39 93.9627 61.0513 93.7181 60.6432C93.4761 60.2318 93.3153 59.7798 93.2366 59.2842C93.157 58.7891 93.168 58.3046 93.2683 57.8275C93.3724 57.3532 93.5463 56.9247 93.7892 56.5421C94.0359 56.1622 94.3461 55.8383 94.7194 55.5708C95.0964 55.3057 95.5094 55.1308 95.9622 55.0442ZM71.038 36.209C71.9694 36.209 72.8492 36.402 73.6837 36.7865C74.5135 37.178 75.235 37.7055 75.8482 38.3695C76.4555 39.04 76.9379 39.8299 77.2959 40.7354C77.6484 41.6484 77.824 42.6113 77.824 43.6293C77.824 44.6477 77.6484 45.6107 77.2959 46.5232C76.9379 47.4296 76.4555 48.2195 75.8482 48.89C75.235 49.5545 74.5135 50.0815 73.6837 50.473C72.8492 50.8584 71.9694 51.0505 71.038 51.0505C70.1065 51.0505 69.2259 50.8584 68.391 50.473C67.5624 50.0815 66.8405 49.5545 66.2277 48.89C65.6196 48.2195 65.1372 47.4301 64.7792 46.5232C64.4275 45.6107 64.251 44.6477 64.251 43.6293C64.251 42.6113 64.4275 41.6484 64.7792 40.7354C65.1372 39.8294 65.6196 39.04 66.2277 38.3695C66.8405 37.7055 67.5624 37.1775 68.391 36.7865C69.2255 36.402 70.1065 36.209 71.038 36.209Z" fill="#00723F"/>
</g>
<defs>
<clipPath id="clip0_705_1571">
<rect width="52" height="44" fill="white" transform="translate(54 25)"/>
</clipPath>
</defs>
</svg>
