<svg width="162" height="119" viewBox="0 0 162 119" fill="none" xmlns="http://www.w3.org/2000/svg">
<rect x="34" width="94" height="94" rx="16" fill="#E5EAE8"/>
<path d="M24.709 106.047H26.2402L29.1182 113.724L31.9893 106.047H33.5205L29.7197 116H28.5029L24.709 106.047ZM24.0117 106.047H25.4678L25.7207 112.691V116H24.0117V106.047ZM32.7617 106.047H34.2246V116H32.5088V112.691L32.7617 106.047ZM40.2607 107.373L37.2871 116H35.4893L39.2354 106.047H40.3838L40.2607 107.373ZM42.749 116L39.7686 107.373L39.6387 106.047H40.7939L44.5537 116H42.749ZM42.6055 112.309V113.669H37.1914V112.309H42.6055ZM53.5635 106.047V116H51.8477L47.3838 108.87V116H45.668V106.047H47.3838L51.8613 113.19V106.047H53.5635ZM61.1924 106.047H62.9014V112.698C62.9014 113.455 62.7373 114.088 62.4092 114.599C62.0811 115.109 61.6344 115.494 61.0693 115.754C60.5088 116.009 59.8822 116.137 59.1895 116.137C58.474 116.137 57.8359 116.009 57.2754 115.754C56.7148 115.494 56.2728 115.109 55.9492 114.599C55.6302 114.088 55.4707 113.455 55.4707 112.698V106.047H57.1797V112.698C57.1797 113.177 57.2617 113.571 57.4258 113.881C57.5898 114.186 57.8223 114.412 58.123 114.558C58.4238 114.703 58.7793 114.776 59.1895 114.776C59.5996 114.776 59.9528 114.703 60.249 114.558C60.5498 114.412 60.7822 114.186 60.9463 113.881C61.1104 113.571 61.1924 113.177 61.1924 112.698V106.047ZM66.4834 106.047V116H64.7676V106.047H66.4834ZM70.5439 110.401V111.762H66.0459V110.401H70.5439ZM71.1113 106.047V107.414H66.0459V106.047H71.1113ZM75.1377 107.373L72.1641 116H70.3662L74.1123 106.047H75.2607L75.1377 107.373ZM77.626 116L74.6455 107.373L74.5156 106.047H75.6709L79.4307 116H77.626ZM77.4824 112.309V113.669H72.0684V112.309H77.4824ZM86.3145 112.76H88.0234C87.9688 113.411 87.7865 113.993 87.4766 114.503C87.1667 115.009 86.7314 115.408 86.1709 115.699C85.6104 115.991 84.929 116.137 84.127 116.137C83.5117 116.137 82.958 116.027 82.4658 115.809C81.9736 115.585 81.5521 115.271 81.2012 114.865C80.8503 114.455 80.5814 113.961 80.3945 113.382C80.2122 112.803 80.1211 112.156 80.1211 111.44V110.613C80.1211 109.898 80.2145 109.251 80.4014 108.672C80.5928 108.093 80.8662 107.599 81.2217 107.188C81.5771 106.774 82.0033 106.457 82.5 106.238C83.0013 106.02 83.5641 105.91 84.1885 105.91C84.9814 105.91 85.6514 106.056 86.1982 106.348C86.7451 106.639 87.1689 107.043 87.4697 107.558C87.7751 108.073 87.9619 108.663 88.0303 109.328H86.3213C86.2757 108.9 86.1755 108.533 86.0205 108.228C85.8701 107.922 85.6468 107.69 85.3506 107.53C85.0544 107.366 84.667 107.284 84.1885 107.284C83.7965 107.284 83.4548 107.357 83.1631 107.503C82.8714 107.649 82.6276 107.863 82.4316 108.146C82.2357 108.428 82.0876 108.777 81.9873 109.191C81.8916 109.602 81.8438 110.071 81.8438 110.6V111.44C81.8438 111.942 81.887 112.397 81.9736 112.808C82.0648 113.213 82.2015 113.562 82.3838 113.854C82.5706 114.145 82.8076 114.371 83.0947 114.53C83.3818 114.69 83.7259 114.77 84.127 114.77C84.6146 114.77 85.0088 114.692 85.3096 114.537C85.6149 114.382 85.8451 114.157 86 113.86C86.1595 113.56 86.2643 113.193 86.3145 112.76ZM93.4717 106.047V116H91.7695V106.047H93.4717ZM96.5957 106.047V107.414H88.6729V106.047H96.5957ZM103.493 106.047H105.202V112.698C105.202 113.455 105.038 114.088 104.71 114.599C104.382 115.109 103.935 115.494 103.37 115.754C102.81 116.009 102.183 116.137 101.49 116.137C100.775 116.137 100.137 116.009 99.5762 115.754C99.0156 115.494 98.5736 115.109 98.25 114.599C97.931 114.088 97.7715 113.455 97.7715 112.698V106.047H99.4805V112.698C99.4805 113.177 99.5625 113.571 99.7266 113.881C99.8906 114.186 100.123 114.412 100.424 114.558C100.725 114.703 101.08 114.776 101.49 114.776C101.9 114.776 102.254 114.703 102.55 114.558C102.851 114.412 103.083 114.186 103.247 113.881C103.411 113.571 103.493 113.177 103.493 112.698V106.047ZM107.068 106.047H110.589C111.345 106.047 111.99 106.161 112.523 106.389C113.057 106.617 113.465 106.954 113.747 107.4C114.034 107.842 114.178 108.389 114.178 109.041C114.178 109.538 114.087 109.975 113.904 110.354C113.722 110.732 113.465 111.051 113.132 111.311C112.799 111.566 112.403 111.764 111.942 111.905L111.423 112.158H108.258L108.244 110.798H110.616C111.026 110.798 111.368 110.725 111.642 110.579C111.915 110.433 112.12 110.235 112.257 109.984C112.398 109.729 112.469 109.442 112.469 109.123C112.469 108.777 112.4 108.476 112.264 108.221C112.132 107.961 111.926 107.763 111.648 107.626C111.37 107.485 111.017 107.414 110.589 107.414H108.784V116H107.068V106.047ZM112.749 116L110.411 111.529L112.209 111.522L114.581 115.911V116H112.749ZM117.719 106.047V116H116.003V106.047H117.719ZM127.747 106.047V116H126.031L121.567 108.87V116H119.852V106.047H121.567L126.045 113.19V106.047H127.747ZM137.434 110.914V114.715C137.292 114.902 137.071 115.107 136.771 115.33C136.474 115.549 136.08 115.738 135.588 115.897C135.096 116.057 134.483 116.137 133.749 116.137C133.125 116.137 132.553 116.032 132.033 115.822C131.514 115.608 131.065 115.296 130.687 114.886C130.313 114.476 130.023 113.977 129.818 113.389C129.613 112.796 129.511 112.122 129.511 111.365V110.675C129.511 109.923 129.604 109.253 129.791 108.665C129.982 108.073 130.256 107.571 130.611 107.161C130.967 106.751 131.395 106.441 131.896 106.231C132.402 106.017 132.974 105.91 133.612 105.91C134.428 105.91 135.103 106.047 135.636 106.32C136.174 106.589 136.588 106.963 136.88 107.441C137.172 107.92 137.356 108.467 137.434 109.082H135.752C135.697 108.736 135.59 108.426 135.431 108.152C135.276 107.879 135.052 107.665 134.761 107.51C134.474 107.35 134.1 107.271 133.64 107.271C133.243 107.271 132.895 107.346 132.594 107.496C132.293 107.646 132.042 107.868 131.842 108.159C131.646 108.451 131.498 108.806 131.397 109.226C131.297 109.645 131.247 110.123 131.247 110.661V111.365C131.247 111.912 131.304 112.397 131.418 112.821C131.536 113.245 131.705 113.603 131.924 113.895C132.147 114.186 132.418 114.407 132.737 114.558C133.056 114.703 133.416 114.776 133.817 114.776C134.209 114.776 134.531 114.744 134.781 114.681C135.032 114.612 135.23 114.533 135.376 114.441C135.526 114.346 135.643 114.255 135.725 114.168V112.192H133.653V110.914H137.434Z" fill="#002E19"/>
<g clip-path="url(#clip0_705_1579)">
<path d="M70.6219 33.6863C70.6774 33.9101 70.5279 34.1298 70.2974 34.1786C70.0625 34.2275 69.832 34.0891 69.7807 33.8694C69.6825 33.4665 69.7039 33.1044 69.8064 32.7707C69.9088 32.4452 70.0882 32.1563 70.3145 31.8918C70.4639 31.7169 70.7372 31.6884 70.9208 31.8308C70.9421 31.8471 70.9635 31.8674 70.9805 31.8878C71.6253 32.5347 72.3682 32.9172 73.0727 33.019C73.41 33.0678 73.7388 33.0515 74.042 32.9701C74.3409 32.8888 74.6098 32.7463 74.8447 32.5429C75.229 32.197 75.515 31.6721 75.6303 30.9519C75.6645 30.7281 75.8865 30.5694 76.1213 30.606C76.211 30.6182 76.2879 30.6549 76.3476 30.7078C76.9625 31.192 77.5645 31.4443 78.1538 31.4687C78.7473 31.4931 79.3536 31.2896 79.9641 30.8624C80.152 30.7322 80.4125 30.7688 80.5534 30.9356C81.3561 31.8878 82.1289 32.2947 82.8761 32.2214C83.6532 32.1441 84.4559 31.5582 85.2843 30.5328C85.3782 30.4148 85.5319 30.3578 85.6771 30.3741C87.4448 30.5735 88.508 30.0811 89.0075 29.3609C89.2851 28.9581 89.3918 28.482 89.3491 28.01C89.3064 27.5339 89.1143 27.0741 88.794 26.712C88.2603 26.1098 87.3594 25.7761 86.1852 26.1179C86.0187 26.1667 85.8436 26.1138 85.7326 25.9958C85.0921 25.3 84.4559 24.8077 83.8454 24.5229C83.3586 24.2909 82.8932 24.1933 82.4662 24.2299C82.0521 24.2624 81.6678 24.4252 81.3219 24.7141C81.0188 24.9664 80.7455 25.3204 80.5107 25.7721C80.4082 25.9674 80.1691 26.0528 79.9641 25.9714C79.6354 25.8453 79.3109 25.7639 78.9906 25.7232C78.6704 25.6825 78.3502 25.6825 78.0299 25.7232C77.825 25.7476 77.6371 25.6378 77.5688 25.4628C77.1247 24.356 76.5312 23.8311 75.8481 23.6887C75.1308 23.5382 74.2597 23.7742 73.3246 24.1851C73.141 24.2665 72.9276 24.2136 72.808 24.0671C72.095 23.351 71.2495 22.9604 70.434 22.8546C69.832 22.7773 69.247 22.8505 68.7432 23.058C68.2479 23.2615 67.8295 23.5951 67.5476 24.0427C67.2317 24.5473 67.0865 25.2024 67.2061 25.9877C67.2402 26.2115 67.0737 26.4231 66.8389 26.4556H66.8261C65.5964 26.5899 64.7552 27.2369 64.4051 27.9856C64.2727 28.2704 64.2087 28.5715 64.2258 28.8604C64.2386 29.1412 64.3282 29.4097 64.4948 29.6498C64.8918 30.2195 65.7501 30.6182 67.142 30.5613C67.3811 30.5531 67.5818 30.7281 67.5903 30.956C67.5946 31.0658 67.5519 31.1716 67.4793 31.2489C67.1975 31.5541 66.9584 31.8674 66.7705 32.1889C66.5869 32.5022 66.4546 32.8277 66.3777 33.1654C66.3308 33.3892 66.1002 33.5317 65.8654 33.4869C65.6305 33.4421 65.4811 33.2224 65.528 32.9986C65.622 32.5795 65.7842 32.1767 66.0105 31.7901C66.0959 31.6436 66.1856 31.5053 66.2881 31.3629C65.0498 31.2449 64.2258 30.7525 63.7689 30.1055C63.5127 29.7393 63.3761 29.3243 63.3547 28.8971C63.3334 28.482 63.4188 28.0507 63.6109 27.6479C64.0336 26.7486 64.9602 25.9633 66.3009 25.6988C66.2539 24.8891 66.4418 24.1892 66.8004 23.6195C67.1762 23.0214 67.7355 22.5738 68.3931 22.3012C69.0421 22.0326 69.785 21.939 70.5408 22.0367C71.4673 22.1588 72.4152 22.5697 73.2307 23.3144C74.2213 22.9075 75.1692 22.6999 76.0274 22.879C76.9283 23.0702 77.6884 23.6643 78.2477 24.8728C78.5338 24.8565 78.8198 24.8687 79.1017 24.9054C79.3749 24.942 79.6482 24.9989 79.9172 25.0803C80.1648 24.6816 80.4424 24.352 80.7541 24.0915C81.2408 23.6846 81.7959 23.4568 82.3936 23.4039C82.9786 23.3551 83.5977 23.4812 84.2296 23.7782C84.8787 24.0834 85.5447 24.5758 86.2023 25.2594C87.6327 24.9338 88.7599 25.3936 89.4558 26.183C89.8956 26.6794 90.1561 27.3061 90.2159 27.9449C90.2714 28.5878 90.1219 29.2511 89.7334 29.8166C89.0972 30.7403 87.8333 31.3873 85.8265 31.2205C84.9 32.315 83.9521 32.9457 82.9743 33.0434C82.0094 33.141 81.0657 32.726 80.1435 31.7454C79.4774 32.136 78.807 32.3232 78.1239 32.2947C77.5218 32.2703 76.9241 32.079 76.3348 31.7209C76.1427 32.3191 75.8267 32.7952 75.4339 33.1451C75.0966 33.4462 74.7038 33.6537 74.2768 33.7677C73.8541 33.8816 73.4058 33.906 72.9446 33.8368C72.1932 33.727 71.4203 33.3811 70.7244 32.7952C70.6902 32.8643 70.6603 32.9335 70.639 33.0027C70.5706 33.2061 70.5578 33.434 70.6219 33.6863ZM58.5 69.9127H98.5248V72.0001H58.5V69.9127ZM78.5082 40.3106L78.0342 44.6563H83.1579L82.684 40.3106H78.5082ZM65.037 34.7239L64.3752 40.7948H71.5313L70.8695 34.7239H65.037ZM64.2514 41.9504L63.9269 44.929H71.9839L71.6594 41.9504H64.2514ZM63.8031 46.0886L63.3206 50.3977L60.3061 49.8687V68.871H96.7187V56.2408L83.9991 54.0151L83.5678 48.4446H77.6243L77.334 52.8472L72.7738 52.0497L72.1078 46.0886H63.8031ZM77.9445 45.4864L77.714 47.6186H83.4782L83.2476 45.4864H77.9445ZM82.5004 58.9263H88.5848V65.8925H82.5004V58.9263ZM74.691 58.9263H80.7754V65.8925H74.691V58.9263ZM66.8816 58.9263H72.966V65.8925H66.8816V58.9263ZM91.279 29.9469C91.0613 29.8573 90.9588 29.6132 91.057 29.4057C91.1509 29.1982 91.4071 29.1005 91.6249 29.1941C91.7829 29.2592 91.9152 29.3446 92.0476 29.4342C92.2824 28.8971 92.6155 28.4535 93.004 28.1158C93.4865 27.7008 94.0587 27.4485 94.6564 27.3834C95.2542 27.3183 95.8776 27.4363 96.4583 27.7618C96.9749 28.0507 97.4574 28.5024 97.8545 29.129C99.699 28.7546 100.988 29.2714 101.74 30.13C102.274 30.7403 102.521 31.5216 102.5 32.2784C102.479 33.0474 102.18 33.7961 101.616 34.3414C100.882 35.0494 99.7161 35.4075 98.1534 34.9802C97.7776 35.6638 97.2226 36.1846 96.5906 36.5102C96.1722 36.7299 95.7196 36.8601 95.2713 36.9008C94.8101 36.9415 94.3533 36.8845 93.9263 36.7177C93.4481 36.5346 93.0126 36.2172 92.671 35.7574C91.9921 35.9934 91.3303 36.144 90.6855 36.1643C90.0451 36.1846 89.426 36.0748 88.8367 35.8022C88.1279 36.8276 87.2953 37.446 86.3304 37.6373C85.4593 37.8082 84.5072 37.621 83.4696 37.0554V39.2161C83.4696 39.4439 83.2775 39.6311 83.0341 39.6311H79.7336C79.4945 39.6311 79.2981 39.448 79.2981 39.2161V35.4156C78.8711 35.379 78.4526 35.2691 78.047 35.0982C77.5133 34.8704 77.0052 34.5326 76.5142 34.085C76.3391 33.9263 76.3348 33.6659 76.4971 33.5032C76.6636 33.3363 76.9369 33.3323 77.1077 33.4869C77.5261 33.8694 77.9573 34.1583 78.3971 34.3455C78.8156 34.5245 79.2426 34.6099 79.6823 34.6059C79.708 34.614 79.7208 34.614 79.7378 34.614C79.977 34.614 80.1734 34.7971 80.1734 35.029V38.8132H82.6071V36.3067C82.6071 36.2253 82.6328 36.1399 82.6883 36.0666C82.8249 35.8795 83.0982 35.8388 83.2903 35.969C84.3876 36.7177 85.3441 36.9985 86.1596 36.8357C86.9708 36.677 87.6839 36.0707 88.3115 35.0453L88.3201 35.0331C88.4482 34.8419 88.7172 34.7849 88.9179 34.907C89.4601 35.2366 90.0451 35.3627 90.6599 35.3464C91.2961 35.3261 91.9707 35.1552 92.6667 34.8826C92.8717 34.793 93.1193 34.8663 93.2303 35.0575C93.4908 35.5092 93.8494 35.8022 94.2508 35.9568C94.5497 36.0707 94.8699 36.1114 95.1944 36.0829C95.5275 36.0544 95.8648 35.9527 96.1807 35.79C96.7443 35.497 97.2311 35.0006 97.5172 34.3373C97.5983 34.1257 97.8417 34.0159 98.068 34.0891C99.4514 34.557 100.429 34.317 101.001 33.7636C101.407 33.373 101.62 32.8236 101.638 32.2581C101.655 31.6843 101.471 31.1025 101.078 30.6549C100.485 29.9753 99.3916 29.5929 97.7648 29.9916C97.5684 30.0486 97.3549 29.9672 97.2567 29.7882C96.9066 29.1534 96.4796 28.7221 96.0228 28.4657C95.6129 28.2338 95.1731 28.1484 94.7546 28.1972C94.3362 28.2419 93.9306 28.425 93.5847 28.718C93.1919 29.0557 92.8759 29.544 92.6966 30.1625C92.6923 30.1829 92.6838 30.1991 92.6753 30.2195C92.577 30.427 92.3251 30.5206 92.1074 30.4311C91.9195 30.3538 91.7701 30.248 91.6206 30.1462C91.4968 30.0689 91.3815 29.9916 91.279 29.9469Z" fill="#00723F"/>
</g>
<defs>
<clipPath id="clip0_705_1579">
<rect width="44" height="50" fill="white" transform="translate(58.5 22)"/>
</clipPath>
</defs>
</svg>
