<svg width="161" height="144" viewBox="0 0 161 144" fill="none" xmlns="http://www.w3.org/2000/svg">
<rect x="33.5" width="94" height="94" rx="16" fill="#E5EAE8"/>
<path d="M46.9805 109.047H48.5117L51.3896 116.724L54.2607 109.047H55.792L51.9912 119H50.7744L46.9805 109.047ZM46.2832 109.047H47.7393L47.9922 115.691V119H46.2832V109.047ZM55.0332 109.047H56.4961V119H54.7803V115.691L55.0332 109.047ZM60.3652 109.047V119H58.6494V109.047H60.3652ZM70.3936 109.047V119H68.6777L64.2139 111.87V119H62.498V109.047H64.2139L68.6914 116.19V109.047H70.3936ZM74.2695 109.047V119H72.5537V109.047H74.2695ZM84.2979 109.047V119H82.582L78.1182 111.87V119H76.4023V109.047H78.1182L82.5957 116.19V109.047H84.2979ZM93.9844 113.914V117.715C93.8431 117.902 93.6221 118.107 93.3213 118.33C93.0251 118.549 92.6309 118.738 92.1387 118.897C91.6465 119.057 91.0335 119.137 90.2998 119.137C89.6755 119.137 89.1035 119.032 88.584 118.822C88.0645 118.608 87.6156 118.296 87.2373 117.886C86.8636 117.476 86.5742 116.977 86.3691 116.389C86.1641 115.796 86.0615 115.122 86.0615 114.365V113.675C86.0615 112.923 86.1549 112.253 86.3418 111.665C86.5332 111.073 86.8066 110.571 87.1621 110.161C87.5176 109.751 87.946 109.441 88.4473 109.231C88.9531 109.017 89.5251 108.91 90.1631 108.91C90.9788 108.91 91.6533 109.047 92.1865 109.32C92.7243 109.589 93.139 109.963 93.4307 110.441C93.7223 110.92 93.9069 111.467 93.9844 112.082H92.3027C92.248 111.736 92.141 111.426 91.9814 111.152C91.8265 110.879 91.6032 110.665 91.3115 110.51C91.0244 110.35 90.6507 110.271 90.1904 110.271C89.7939 110.271 89.4453 110.346 89.1445 110.496C88.8438 110.646 88.5931 110.868 88.3926 111.159C88.1966 111.451 88.0485 111.806 87.9482 112.226C87.848 112.645 87.7979 113.123 87.7979 113.661V114.365C87.7979 114.912 87.8548 115.397 87.9688 115.821C88.0872 116.245 88.2559 116.603 88.4746 116.895C88.6979 117.186 88.9691 117.407 89.2881 117.558C89.6071 117.703 89.9671 117.776 90.3682 117.776C90.7601 117.776 91.0814 117.744 91.332 117.681C91.5827 117.612 91.7809 117.533 91.9268 117.441C92.0771 117.346 92.1934 117.255 92.2754 117.168V115.192H90.2041V113.914H93.9844ZM103.247 110.373L100.273 119H98.4756L102.222 109.047H103.37L103.247 110.373ZM105.735 119L102.755 110.373L102.625 109.047H103.78L107.54 119H105.735ZM105.592 115.309V116.669H100.178V115.309H105.592ZM116.55 109.047V119H114.834L110.37 111.87V119H108.654V109.047H110.37L114.848 116.19V109.047H116.55ZM121.485 119H119.359L119.373 117.64H121.485C122.101 117.64 122.616 117.505 123.03 117.236C123.45 116.967 123.764 116.582 123.974 116.081C124.188 115.58 124.295 114.983 124.295 114.29V113.75C124.295 113.212 124.233 112.736 124.11 112.321C123.992 111.907 123.814 111.558 123.577 111.275C123.345 110.993 123.058 110.779 122.716 110.633C122.379 110.487 121.989 110.414 121.547 110.414H119.318V109.047H121.547C122.208 109.047 122.812 109.159 123.358 109.382C123.905 109.601 124.377 109.917 124.773 110.332C125.174 110.747 125.482 111.243 125.696 111.822C125.91 112.401 126.018 113.048 126.018 113.764V114.29C126.018 115.006 125.91 115.653 125.696 116.231C125.482 116.81 125.174 117.307 124.773 117.722C124.372 118.132 123.894 118.449 123.338 118.672C122.786 118.891 122.169 119 121.485 119ZM120.31 109.047V119H118.594V109.047H120.31ZM53.6523 137.674L56.2705 139.752L55.1562 140.729L52.5859 138.672L53.6523 137.674ZM56.291 133.75V134.297C56.291 135.049 56.193 135.723 55.9971 136.32C55.8011 136.917 55.5208 137.425 55.1562 137.845C54.7917 138.264 54.3564 138.585 53.8506 138.809C53.3447 139.027 52.7842 139.137 52.1689 139.137C51.5583 139.137 51 139.027 50.4941 138.809C49.9928 138.585 49.5576 138.264 49.1885 137.845C48.8193 137.425 48.5322 136.917 48.3271 136.32C48.1266 135.723 48.0264 135.049 48.0264 134.297V133.75C48.0264 132.998 48.1266 132.326 48.3271 131.733C48.5277 131.136 48.8102 130.628 49.1748 130.209C49.5439 129.785 49.9792 129.464 50.4805 129.245C50.9863 129.022 51.5446 128.91 52.1553 128.91C52.7705 128.91 53.3311 129.022 53.8369 129.245C54.3473 129.464 54.7848 129.785 55.1494 130.209C55.514 130.628 55.7943 131.136 55.9902 131.733C56.1908 132.326 56.291 132.998 56.291 133.75ZM54.5684 134.297V133.736C54.5684 133.18 54.5137 132.69 54.4043 132.267C54.2995 131.838 54.1423 131.48 53.9326 131.193C53.7275 130.902 53.4746 130.683 53.1738 130.537C52.8776 130.387 52.5381 130.312 52.1553 130.312C51.7816 130.312 51.4466 130.387 51.1504 130.537C50.8542 130.683 50.6012 130.902 50.3916 131.193C50.182 131.48 50.0225 131.838 49.9131 132.267C49.8037 132.69 49.749 133.18 49.749 133.736V134.297C49.749 134.853 49.8037 135.345 49.9131 135.773C50.0225 136.202 50.182 136.564 50.3916 136.86C50.6058 137.152 50.861 137.373 51.1572 137.523C51.458 137.669 51.7952 137.742 52.1689 137.742C52.5518 137.742 52.8913 137.669 53.1875 137.523C53.4837 137.373 53.7344 137.152 53.9395 136.86C54.1445 136.564 54.2995 136.202 54.4043 135.773C54.5137 135.345 54.5684 134.853 54.5684 134.297ZM63.6191 129.047H65.3281V135.698C65.3281 136.455 65.1641 137.088 64.8359 137.599C64.5078 138.109 64.0612 138.494 63.4961 138.754C62.9355 139.009 62.3089 139.137 61.6162 139.137C60.9007 139.137 60.2627 139.009 59.7021 138.754C59.1416 138.494 58.6995 138.109 58.376 137.599C58.057 137.088 57.8975 136.455 57.8975 135.698V129.047H59.6064V135.698C59.6064 136.177 59.6885 136.571 59.8525 136.881C60.0166 137.186 60.249 137.412 60.5498 137.558C60.8506 137.703 61.2061 137.776 61.6162 137.776C62.0264 137.776 62.3796 137.703 62.6758 137.558C62.9766 137.412 63.209 137.186 63.373 136.881C63.5371 136.571 63.6191 136.177 63.6191 135.698V129.047ZM70.9199 130.373L67.9463 139H66.1484L69.8945 129.047H71.043L70.9199 130.373ZM73.4082 139L70.4277 130.373L70.2979 129.047H71.4531L75.2129 139H73.4082ZM73.2646 135.309V136.669H67.8506V135.309H73.2646ZM76.3271 129.047H79.8477C80.6042 129.047 81.249 129.161 81.7822 129.389C82.3154 129.617 82.7233 129.954 83.0059 130.4C83.293 130.842 83.4365 131.389 83.4365 132.041C83.4365 132.538 83.3454 132.975 83.1631 133.354C82.9808 133.732 82.7233 134.051 82.3906 134.311C82.0579 134.566 81.6615 134.764 81.2012 134.905L80.6816 135.158H77.5166L77.5029 133.798H79.875C80.2852 133.798 80.627 133.725 80.9004 133.579C81.1738 133.433 81.3789 133.235 81.5156 132.984C81.6569 132.729 81.7275 132.442 81.7275 132.123C81.7275 131.777 81.6592 131.476 81.5225 131.221C81.3903 130.961 81.1852 130.763 80.9072 130.626C80.6292 130.485 80.276 130.414 79.8477 130.414H78.043V139H76.3271V129.047ZM82.0078 139L79.6699 134.529L81.4678 134.522L83.8398 138.911V139H82.0078ZM85.1455 129.047H88.666C89.4225 129.047 90.0674 129.161 90.6006 129.389C91.1338 129.617 91.5417 129.954 91.8242 130.4C92.1113 130.842 92.2549 131.389 92.2549 132.041C92.2549 132.538 92.1637 132.975 91.9814 133.354C91.7992 133.732 91.5417 134.051 91.209 134.311C90.8763 134.566 90.4798 134.764 90.0195 134.905L89.5 135.158H86.335L86.3213 133.798H88.6934C89.1035 133.798 89.4453 133.725 89.7188 133.579C89.9922 133.433 90.1973 133.235 90.334 132.984C90.4753 132.729 90.5459 132.442 90.5459 132.123C90.5459 131.777 90.4775 131.476 90.3408 131.221C90.2087 130.961 90.0036 130.763 89.7256 130.626C89.4476 130.485 89.0944 130.414 88.666 130.414H86.8613V139H85.1455V129.047ZM90.8262 139L88.4883 134.529L90.2861 134.522L92.6582 138.911V139H90.8262ZM94.5859 129.047L96.8965 133.798L99.207 129.047H101.107L97.7578 135.336V139H96.0283V135.336L92.6787 129.047H94.5859ZM104.026 129.047V139H102.311V129.047H104.026ZM114.055 129.047V139H112.339L107.875 131.87V139H106.159V129.047H107.875L112.353 136.19V129.047H114.055ZM123.741 133.914V137.715C123.6 137.902 123.379 138.107 123.078 138.33C122.782 138.549 122.388 138.738 121.896 138.897C121.403 139.057 120.79 139.137 120.057 139.137C119.432 139.137 118.86 139.032 118.341 138.822C117.821 138.608 117.372 138.296 116.994 137.886C116.62 137.476 116.331 136.977 116.126 136.389C115.921 135.796 115.818 135.122 115.818 134.365V133.675C115.818 132.923 115.912 132.253 116.099 131.665C116.29 131.073 116.563 130.571 116.919 130.161C117.274 129.751 117.703 129.441 118.204 129.231C118.71 129.017 119.282 128.91 119.92 128.91C120.736 128.91 121.41 129.047 121.943 129.32C122.481 129.589 122.896 129.963 123.188 130.441C123.479 130.92 123.664 131.467 123.741 132.082H122.06C122.005 131.736 121.898 131.426 121.738 131.152C121.583 130.879 121.36 130.665 121.068 130.51C120.781 130.35 120.408 130.271 119.947 130.271C119.551 130.271 119.202 130.346 118.901 130.496C118.601 130.646 118.35 130.868 118.149 131.159C117.953 131.451 117.805 131.806 117.705 132.226C117.605 132.645 117.555 133.123 117.555 133.661V134.365C117.555 134.912 117.612 135.397 117.726 135.821C117.844 136.245 118.013 136.603 118.231 136.895C118.455 137.186 118.726 137.407 119.045 137.558C119.364 137.703 119.724 137.776 120.125 137.776C120.517 137.776 120.838 137.744 121.089 137.681C121.34 137.612 121.538 137.533 121.684 137.441C121.834 137.346 121.95 137.255 122.032 137.168V135.192H119.961V133.914H123.741Z" fill="#002E19"/>
<g clip-path="url(#clip0_705_1587)">
<path fill-rule="evenodd" clip-rule="evenodd" d="M82.2059 34.7778C86.0792 39.6148 87.9683 45.329 87.7228 50.5608C85.9327 46.1425 83.1525 41.6644 79.4653 37.5412L78.2297 38.7853C78.0911 38.9249 77.8614 38.9249 77.7228 38.7853L73.8139 34.8496C73.6752 34.71 73.6752 34.4787 73.8139 34.3391L75.0139 33.1309C70.8119 29.4662 66.2812 26.7427 61.8416 25.0519C67.0772 24.6572 72.8554 26.4755 77.7624 30.3595L78.301 29.8172C78.4396 29.6776 78.6693 29.6776 78.8079 29.8172L82.7168 33.753C82.8554 33.8925 82.8554 34.1238 82.7168 34.2634L82.2059 34.7778ZM75.5327 48.4035V46.7885L83.101 47.602L75.5327 48.4035ZM78.903 54.6521L77.7663 53.5077L83.6911 48.6946L78.903 54.6521ZM100.265 39.0286L101.184 41.0304L91.3426 44.38L100.265 39.0286ZM92.5386 33.2266L94.5941 33.9882L89.9881 43.3631L92.5386 33.2266ZM96.6733 47.9689L104 52.5427V74.0001H66.1901C73.8891 66.2481 84.4238 63.7878 90.5149 53.1687C92.8277 49.1332 92.0436 44.8186 96.6733 47.9689ZM73.6634 36.0897L76.8277 39.2758L59.8178 56.4067C58.9465 57.284 57.5208 57.284 56.6535 56.4067C55.7822 55.5294 55.7822 54.0939 56.6535 53.2206L73.6634 36.0897Z" fill="#00723F"/>
</g>
<defs>
<clipPath id="clip0_705_1587">
<rect width="48" height="49" fill="white" transform="translate(56 25)"/>
</clipPath>
</defs>
</svg>
