<svg width="161" height="140" viewBox="0 0 161 140" fill="none" xmlns="http://www.w3.org/2000/svg">
<rect x="33.5" width="94" height="94" rx="16" fill="#E5EAE8"/>
<path d="M22.4834 108.047H26.0039C26.7604 108.047 27.4053 108.161 27.9385 108.389C28.4717 108.617 28.8796 108.954 29.1621 109.4C29.4492 109.842 29.5928 110.389 29.5928 111.041C29.5928 111.538 29.5016 111.975 29.3193 112.354C29.137 112.732 28.8796 113.051 28.5469 113.311C28.2142 113.566 27.8177 113.764 27.3574 113.905L26.8379 114.158H23.6729L23.6592 112.798H26.0312C26.4414 112.798 26.7832 112.725 27.0566 112.579C27.3301 112.433 27.5352 112.235 27.6719 111.984C27.8132 111.729 27.8838 111.442 27.8838 111.123C27.8838 110.777 27.8154 110.476 27.6787 110.221C27.5465 109.961 27.3415 109.763 27.0635 109.626C26.7855 109.485 26.4323 109.414 26.0039 109.414H24.1992V118H22.4834V108.047ZM28.1641 118L25.8262 113.529L27.624 113.522L29.9961 117.911V118H28.1641ZM37.8164 116.64V118H32.5322V116.64H37.8164ZM33.0176 108.047V118H31.3018V108.047H33.0176ZM37.126 112.203V113.543H32.5322V112.203H37.126ZM37.7822 108.047V109.414H32.5322V108.047H37.7822ZM43.0938 109.373L40.1201 118H38.3223L42.0684 108.047H43.2168L43.0938 109.373ZM45.582 118L42.6016 109.373L42.4717 108.047H43.627L47.3867 118H45.582ZM45.4385 114.309V115.669H40.0244V114.309H45.4385ZM54.7354 116.64V118H49.7383V116.64H54.7354ZM50.2168 108.047V118H48.501V108.047H50.2168ZM66.0625 116.64V118H60.7783V116.64H66.0625ZM61.2637 108.047V118H59.5479V108.047H61.2637ZM65.3721 112.203V113.543H60.7783V112.203H65.3721ZM66.0283 108.047V109.414H60.7783V108.047H66.0283ZM72.7002 115.437C72.7002 115.231 72.6683 115.049 72.6045 114.89C72.5452 114.73 72.4382 114.584 72.2832 114.452C72.1283 114.32 71.9095 114.192 71.627 114.069C71.349 113.942 70.9935 113.812 70.5605 113.68C70.0866 113.534 69.6491 113.372 69.248 113.194C68.8516 113.012 68.5052 112.802 68.209 112.565C67.9128 112.324 67.6826 112.048 67.5186 111.738C67.3545 111.424 67.2725 111.062 67.2725 110.651C67.2725 110.246 67.3568 109.877 67.5254 109.544C67.6986 109.211 67.9424 108.924 68.2568 108.683C68.5758 108.437 68.9518 108.247 69.3848 108.115C69.8177 107.979 70.2962 107.91 70.8203 107.91C71.5586 107.91 72.1943 108.047 72.7275 108.32C73.2653 108.594 73.6777 108.961 73.9648 109.421C74.2565 109.881 74.4023 110.389 74.4023 110.945H72.7002C72.7002 110.617 72.6296 110.328 72.4883 110.077C72.3516 109.822 72.1419 109.621 71.8594 109.476C71.5814 109.33 71.2282 109.257 70.7998 109.257C70.3942 109.257 70.057 109.318 69.7881 109.441C69.5192 109.564 69.3187 109.731 69.1865 109.94C69.0544 110.15 68.9883 110.387 68.9883 110.651C68.9883 110.838 69.0316 111.009 69.1182 111.164C69.2048 111.314 69.3369 111.456 69.5146 111.588C69.6924 111.715 69.9157 111.836 70.1846 111.95C70.4535 112.064 70.7702 112.174 71.1348 112.278C71.6862 112.442 72.167 112.625 72.5771 112.825C72.9873 113.021 73.3291 113.244 73.6025 113.495C73.876 113.746 74.0811 114.031 74.2178 114.35C74.3545 114.664 74.4229 115.022 74.4229 115.423C74.4229 115.842 74.3385 116.22 74.1699 116.558C74.0013 116.89 73.7598 117.175 73.4453 117.412C73.1354 117.645 72.7617 117.825 72.3242 117.952C71.8913 118.075 71.4082 118.137 70.875 118.137C70.3965 118.137 69.9248 118.073 69.46 117.945C68.9997 117.818 68.5804 117.624 68.2021 117.364C67.8239 117.1 67.5231 116.772 67.2998 116.38C67.0765 115.983 66.9648 115.521 66.9648 114.992H68.6807C68.6807 115.316 68.7354 115.591 68.8447 115.819C68.9587 116.047 69.1159 116.234 69.3164 116.38C69.5169 116.521 69.7493 116.626 70.0137 116.694C70.2826 116.763 70.5697 116.797 70.875 116.797C71.276 116.797 71.611 116.74 71.8799 116.626C72.1533 116.512 72.3584 116.353 72.4951 116.147C72.6318 115.942 72.7002 115.705 72.7002 115.437ZM80.0352 108.047V118H78.333V108.047H80.0352ZM83.1592 108.047V109.414H75.2363V108.047H83.1592ZM87.6914 109.373L84.7178 118H82.9199L86.666 108.047H87.8145L87.6914 109.373ZM90.1797 118L87.1992 109.373L87.0693 108.047H88.2246L91.9844 118H90.1797ZM90.0361 114.309V115.669H84.6221V114.309H90.0361ZM96.332 108.047V118H94.6299V108.047H96.332ZM99.4561 108.047V109.414H91.5332V108.047H99.4561ZM107.283 116.64V118H101.999V116.64H107.283ZM102.484 108.047V118H100.769V108.047H102.484ZM106.593 112.203V113.543H101.999V112.203H106.593ZM107.249 108.047V109.414H101.999V108.047H107.249ZM116.047 109.373L113.073 118H111.275L115.021 108.047H116.17L116.047 109.373ZM118.535 118L115.555 109.373L115.425 108.047H116.58L120.34 118H118.535ZM118.392 114.309V115.669H112.978V114.309H118.392ZM129.35 108.047V118H127.634L123.17 110.87V118H121.454V108.047H123.17L127.647 115.19V108.047H129.35ZM134.285 118H132.159L132.173 116.64H134.285C134.9 116.64 135.415 116.505 135.83 116.236C136.249 115.967 136.564 115.582 136.773 115.081C136.988 114.58 137.095 113.983 137.095 113.29V112.75C137.095 112.212 137.033 111.736 136.91 111.321C136.792 110.907 136.614 110.558 136.377 110.275C136.145 109.993 135.857 109.779 135.516 109.633C135.178 109.487 134.789 109.414 134.347 109.414H132.118V108.047H134.347C135.007 108.047 135.611 108.159 136.158 108.382C136.705 108.601 137.177 108.917 137.573 109.332C137.974 109.747 138.282 110.243 138.496 110.822C138.71 111.401 138.817 112.048 138.817 112.764V113.29C138.817 114.006 138.71 114.653 138.496 115.231C138.282 115.81 137.974 116.307 137.573 116.722C137.172 117.132 136.694 117.449 136.138 117.672C135.586 117.891 134.969 118 134.285 118ZM133.109 108.047V118H131.394V108.047H133.109ZM23.3037 131.502H20.7676L20.7539 130.251H22.9688C23.3424 130.251 23.6592 130.196 23.9189 130.087C24.1833 129.973 24.3838 129.811 24.5205 129.602C24.6572 129.387 24.7256 129.13 24.7256 128.829C24.7256 128.496 24.6618 128.225 24.5342 128.016C24.4066 127.806 24.2106 127.653 23.9463 127.558C23.6865 127.462 23.3538 127.414 22.9482 127.414H21.2871V136H19.5713V126.047H22.9482C23.4951 126.047 23.9827 126.099 24.4111 126.204C24.8441 126.309 25.2109 126.473 25.5117 126.696C25.8171 126.915 26.0472 127.193 26.2021 127.53C26.3617 127.868 26.4414 128.269 26.4414 128.733C26.4414 129.144 26.3434 129.52 26.1475 129.861C25.9515 130.199 25.6621 130.474 25.2793 130.688C24.8965 130.903 24.4202 131.03 23.8506 131.071L23.3037 131.502ZM23.2285 136H20.2275L21 134.64H23.2285C23.6159 134.64 23.9395 134.576 24.1992 134.448C24.459 134.316 24.6527 134.136 24.7803 133.908C24.9124 133.676 24.9785 133.405 24.9785 133.095C24.9785 132.771 24.9215 132.491 24.8076 132.254C24.6937 132.012 24.5137 131.828 24.2676 131.7C24.0215 131.568 23.7002 131.502 23.3037 131.502H21.376L21.3896 130.251H23.8984L24.2881 130.723C24.835 130.741 25.2839 130.862 25.6348 131.085C25.9902 131.308 26.2546 131.598 26.4277 131.953C26.6009 132.309 26.6875 132.691 26.6875 133.102C26.6875 133.735 26.5485 134.266 26.2705 134.694C25.9971 135.123 25.6029 135.449 25.0879 135.672C24.5729 135.891 23.9531 136 23.2285 136ZM34.002 126.047H35.7109V132.698C35.7109 133.455 35.5469 134.088 35.2188 134.599C34.8906 135.109 34.444 135.494 33.8789 135.754C33.3184 136.009 32.6917 136.137 31.999 136.137C31.2835 136.137 30.6455 136.009 30.085 135.754C29.5244 135.494 29.0824 135.109 28.7588 134.599C28.4398 134.088 28.2803 133.455 28.2803 132.698V126.047H29.9893V132.698C29.9893 133.177 30.0713 133.571 30.2354 133.881C30.3994 134.186 30.6318 134.412 30.9326 134.558C31.2334 134.703 31.5889 134.776 31.999 134.776C32.4092 134.776 32.7624 134.703 33.0586 134.558C33.3594 134.412 33.5918 134.186 33.7559 133.881C33.9199 133.571 34.002 133.177 34.002 132.698V126.047ZM42.8135 133.437C42.8135 133.231 42.7816 133.049 42.7178 132.89C42.6585 132.73 42.5514 132.584 42.3965 132.452C42.2415 132.32 42.0228 132.192 41.7402 132.069C41.4622 131.942 41.1068 131.812 40.6738 131.68C40.1999 131.534 39.7624 131.372 39.3613 131.194C38.9648 131.012 38.6185 130.802 38.3223 130.565C38.026 130.324 37.7959 130.048 37.6318 129.738C37.4678 129.424 37.3857 129.062 37.3857 128.651C37.3857 128.246 37.4701 127.877 37.6387 127.544C37.8118 127.211 38.0557 126.924 38.3701 126.683C38.6891 126.437 39.0651 126.247 39.498 126.115C39.931 125.979 40.4095 125.91 40.9336 125.91C41.6719 125.91 42.3076 126.047 42.8408 126.32C43.3786 126.594 43.791 126.961 44.0781 127.421C44.3698 127.881 44.5156 128.389 44.5156 128.945H42.8135C42.8135 128.617 42.7428 128.328 42.6016 128.077C42.4648 127.822 42.2552 127.621 41.9727 127.476C41.6947 127.33 41.3415 127.257 40.9131 127.257C40.5075 127.257 40.1702 127.318 39.9014 127.441C39.6325 127.564 39.432 127.731 39.2998 127.94C39.1676 128.15 39.1016 128.387 39.1016 128.651C39.1016 128.838 39.1449 129.009 39.2314 129.164C39.318 129.314 39.4502 129.456 39.6279 129.588C39.8057 129.715 40.029 129.836 40.2979 129.95C40.5667 130.064 40.8835 130.174 41.248 130.278C41.7995 130.442 42.2803 130.625 42.6904 130.825C43.1006 131.021 43.4424 131.244 43.7158 131.495C43.9893 131.746 44.1943 132.031 44.3311 132.35C44.4678 132.664 44.5361 133.022 44.5361 133.423C44.5361 133.842 44.4518 134.22 44.2832 134.558C44.1146 134.89 43.873 135.175 43.5586 135.412C43.2487 135.645 42.875 135.825 42.4375 135.952C42.0046 136.075 41.5215 136.137 40.9883 136.137C40.5098 136.137 40.0381 136.073 39.5732 135.945C39.113 135.818 38.6937 135.624 38.3154 135.364C37.9372 135.1 37.6364 134.772 37.4131 134.38C37.1898 133.983 37.0781 133.521 37.0781 132.992H38.7939C38.7939 133.316 38.8486 133.591 38.958 133.819C39.0719 134.047 39.2292 134.234 39.4297 134.38C39.6302 134.521 39.8626 134.626 40.127 134.694C40.3958 134.763 40.6829 134.797 40.9883 134.797C41.3893 134.797 41.7243 134.74 41.9932 134.626C42.2666 134.512 42.4717 134.353 42.6084 134.147C42.7451 133.942 42.8135 133.705 42.8135 133.437ZM47.8857 126.047V136H46.1699V126.047H47.8857ZM57.9141 126.047V136H56.1982L51.7344 128.87V136H50.0186V126.047H51.7344L56.2119 133.19V126.047H57.9141ZM66.4727 134.64V136H61.1885V134.64H66.4727ZM61.6738 126.047V136H59.958V126.047H61.6738ZM65.7822 130.203V131.543H61.1885V130.203H65.7822ZM66.4385 126.047V127.414H61.1885V126.047H66.4385ZM73.1104 133.437C73.1104 133.231 73.0785 133.049 73.0146 132.89C72.9554 132.73 72.8483 132.584 72.6934 132.452C72.5384 132.32 72.3197 132.192 72.0371 132.069C71.7591 131.942 71.4036 131.812 70.9707 131.68C70.4967 131.534 70.0592 131.372 69.6582 131.194C69.2617 131.012 68.9154 130.802 68.6191 130.565C68.3229 130.324 68.0928 130.048 67.9287 129.738C67.7646 129.424 67.6826 129.062 67.6826 128.651C67.6826 128.246 67.7669 127.877 67.9355 127.544C68.1087 127.211 68.3525 126.924 68.667 126.683C68.986 126.437 69.362 126.247 69.7949 126.115C70.2279 125.979 70.7064 125.91 71.2305 125.91C71.9688 125.91 72.6045 126.047 73.1377 126.32C73.6755 126.594 74.0879 126.961 74.375 127.421C74.6667 127.881 74.8125 128.389 74.8125 128.945H73.1104C73.1104 128.617 73.0397 128.328 72.8984 128.077C72.7617 127.822 72.5521 127.621 72.2695 127.476C71.9915 127.33 71.6383 127.257 71.21 127.257C70.8044 127.257 70.4671 127.318 70.1982 127.441C69.9294 127.564 69.7288 127.731 69.5967 127.94C69.4645 128.15 69.3984 128.387 69.3984 128.651C69.3984 128.838 69.4417 129.009 69.5283 129.164C69.6149 129.314 69.7471 129.456 69.9248 129.588C70.1025 129.715 70.3258 129.836 70.5947 129.95C70.8636 130.064 71.1803 130.174 71.5449 130.278C72.0964 130.442 72.5771 130.625 72.9873 130.825C73.3975 131.021 73.7393 131.244 74.0127 131.495C74.2861 131.746 74.4912 132.031 74.6279 132.35C74.7646 132.664 74.833 133.022 74.833 133.423C74.833 133.842 74.7487 134.22 74.5801 134.558C74.4115 134.89 74.1699 135.175 73.8555 135.412C73.5456 135.645 73.1719 135.825 72.7344 135.952C72.3014 136.075 71.8184 136.137 71.2852 136.137C70.8066 136.137 70.335 136.073 69.8701 135.945C69.4098 135.818 68.9906 135.624 68.6123 135.364C68.234 135.1 67.9333 134.772 67.71 134.38C67.4867 133.983 67.375 133.521 67.375 132.992H69.0908C69.0908 133.316 69.1455 133.591 69.2549 133.819C69.3688 134.047 69.526 134.234 69.7266 134.38C69.9271 134.521 70.1595 134.626 70.4238 134.694C70.6927 134.763 70.9798 134.797 71.2852 134.797C71.6862 134.797 72.0212 134.74 72.29 134.626C72.5635 134.512 72.7686 134.353 72.9053 134.147C73.042 133.942 73.1104 133.705 73.1104 133.437ZM81.5869 133.437C81.5869 133.231 81.555 133.049 81.4912 132.89C81.432 132.73 81.3249 132.584 81.1699 132.452C81.015 132.32 80.7962 132.192 80.5137 132.069C80.2357 131.942 79.8802 131.812 79.4473 131.68C78.9733 131.534 78.5358 131.372 78.1348 131.194C77.7383 131.012 77.3919 130.802 77.0957 130.565C76.7995 130.324 76.5693 130.048 76.4053 129.738C76.2412 129.424 76.1592 129.062 76.1592 128.651C76.1592 128.246 76.2435 127.877 76.4121 127.544C76.5853 127.211 76.8291 126.924 77.1436 126.683C77.4626 126.437 77.8385 126.247 78.2715 126.115C78.7044 125.979 79.1829 125.91 79.707 125.91C80.4453 125.91 81.0811 126.047 81.6143 126.32C82.152 126.594 82.5645 126.961 82.8516 127.421C83.1432 127.881 83.2891 128.389 83.2891 128.945H81.5869C81.5869 128.617 81.5163 128.328 81.375 128.077C81.2383 127.822 81.0286 127.621 80.7461 127.476C80.4681 127.33 80.1149 127.257 79.6865 127.257C79.2809 127.257 78.9437 127.318 78.6748 127.441C78.4059 127.564 78.2054 127.731 78.0732 127.94C77.9411 128.15 77.875 128.387 77.875 128.651C77.875 128.838 77.9183 129.009 78.0049 129.164C78.0915 129.314 78.2236 129.456 78.4014 129.588C78.5791 129.715 78.8024 129.836 79.0713 129.95C79.3402 130.064 79.6569 130.174 80.0215 130.278C80.5729 130.442 81.0537 130.625 81.4639 130.825C81.874 131.021 82.2158 131.244 82.4893 131.495C82.7627 131.746 82.9678 132.031 83.1045 132.35C83.2412 132.664 83.3096 133.022 83.3096 133.423C83.3096 133.842 83.2253 134.22 83.0566 134.558C82.888 134.89 82.6465 135.175 82.332 135.412C82.0221 135.645 81.6484 135.825 81.2109 135.952C80.778 136.075 80.2949 136.137 79.7617 136.137C79.2832 136.137 78.8115 136.073 78.3467 135.945C77.8864 135.818 77.4671 135.624 77.0889 135.364C76.7106 135.1 76.4098 134.772 76.1865 134.38C75.9632 133.983 75.8516 133.521 75.8516 132.992H77.5674C77.5674 133.316 77.6221 133.591 77.7314 133.819C77.8454 134.047 78.0026 134.234 78.2031 134.38C78.4036 134.521 78.6361 134.626 78.9004 134.694C79.1693 134.763 79.4564 134.797 79.7617 134.797C80.1628 134.797 80.4977 134.74 80.7666 134.626C81.04 134.512 81.2451 134.353 81.3818 134.147C81.5186 133.942 81.5869 133.705 81.5869 133.437ZM93.5498 133.437C93.5498 133.231 93.5179 133.049 93.4541 132.89C93.3949 132.73 93.2878 132.584 93.1328 132.452C92.9779 132.32 92.7591 132.192 92.4766 132.069C92.1986 131.942 91.8431 131.812 91.4102 131.68C90.9362 131.534 90.4987 131.372 90.0977 131.194C89.7012 131.012 89.3548 130.802 89.0586 130.565C88.7624 130.324 88.5322 130.048 88.3682 129.738C88.2041 129.424 88.1221 129.062 88.1221 128.651C88.1221 128.246 88.2064 127.877 88.375 127.544C88.5482 127.211 88.792 126.924 89.1064 126.683C89.4255 126.437 89.8014 126.247 90.2344 126.115C90.6673 125.979 91.1458 125.91 91.6699 125.91C92.4082 125.91 93.0439 126.047 93.5771 126.32C94.1149 126.594 94.5273 126.961 94.8145 127.421C95.1061 127.881 95.252 128.389 95.252 128.945H93.5498C93.5498 128.617 93.4792 128.328 93.3379 128.077C93.2012 127.822 92.9915 127.621 92.709 127.476C92.431 127.33 92.0778 127.257 91.6494 127.257C91.2438 127.257 90.9066 127.318 90.6377 127.441C90.3688 127.564 90.1683 127.731 90.0361 127.94C89.904 128.15 89.8379 128.387 89.8379 128.651C89.8379 128.838 89.8812 129.009 89.9678 129.164C90.0544 129.314 90.1865 129.456 90.3643 129.588C90.542 129.715 90.7653 129.836 91.0342 129.95C91.3031 130.064 91.6198 130.174 91.9844 130.278C92.5358 130.442 93.0166 130.625 93.4268 130.825C93.8369 131.021 94.1787 131.244 94.4521 131.495C94.7256 131.746 94.9307 132.031 95.0674 132.35C95.2041 132.664 95.2725 133.022 95.2725 133.423C95.2725 133.842 95.1882 134.22 95.0195 134.558C94.8509 134.89 94.6094 135.175 94.2949 135.412C93.985 135.645 93.6113 135.825 93.1738 135.952C92.7409 136.075 92.2578 136.137 91.7246 136.137C91.2461 136.137 90.7744 136.073 90.3096 135.945C89.8493 135.818 89.43 135.624 89.0518 135.364C88.6735 135.1 88.3727 134.772 88.1494 134.38C87.9261 133.983 87.8145 133.521 87.8145 132.992H89.5303C89.5303 133.316 89.585 133.591 89.6943 133.819C89.8083 134.047 89.9655 134.234 90.166 134.38C90.3665 134.521 90.599 134.626 90.8633 134.694C91.1322 134.763 91.4193 134.797 91.7246 134.797C92.1257 134.797 92.4606 134.74 92.7295 134.626C93.0029 134.512 93.208 134.353 93.3447 134.147C93.4814 133.942 93.5498 133.705 93.5498 133.437ZM103.305 134.64V136H98.0205V134.64H103.305ZM98.5059 126.047V136H96.79V126.047H98.5059ZM102.614 130.203V131.543H98.0205V130.203H102.614ZM103.271 126.047V127.414H98.0205V126.047H103.271ZM104.706 126.047H108.227C108.983 126.047 109.628 126.161 110.161 126.389C110.694 126.617 111.102 126.954 111.385 127.4C111.672 127.842 111.815 128.389 111.815 129.041C111.815 129.538 111.724 129.975 111.542 130.354C111.36 130.732 111.102 131.051 110.77 131.311C110.437 131.566 110.04 131.764 109.58 131.905L109.061 132.158H105.896L105.882 130.798H108.254C108.664 130.798 109.006 130.725 109.279 130.579C109.553 130.433 109.758 130.235 109.895 129.984C110.036 129.729 110.106 129.442 110.106 129.123C110.106 128.777 110.038 128.476 109.901 128.221C109.769 127.961 109.564 127.763 109.286 127.626C109.008 127.485 108.655 127.414 108.227 127.414H106.422V136H104.706V126.047ZM110.387 136L108.049 131.529L109.847 131.522L112.219 135.911V136H110.387ZM116.799 134.182L119.417 126.047H121.311L117.742 136H116.464L116.799 134.182ZM114.379 126.047L116.977 134.182L117.332 136H116.047L112.492 126.047H114.379ZM124.257 126.047V136H122.541V126.047H124.257ZM132.269 132.76H133.978C133.923 133.411 133.741 133.993 133.431 134.503C133.121 135.009 132.686 135.408 132.125 135.699C131.564 135.991 130.883 136.137 130.081 136.137C129.466 136.137 128.912 136.027 128.42 135.809C127.928 135.585 127.506 135.271 127.155 134.865C126.804 134.455 126.535 133.961 126.349 133.382C126.166 132.803 126.075 132.156 126.075 131.44V130.613C126.075 129.898 126.169 129.251 126.355 128.672C126.547 128.093 126.82 127.599 127.176 127.188C127.531 126.774 127.957 126.457 128.454 126.238C128.955 126.02 129.518 125.91 130.143 125.91C130.936 125.91 131.605 126.056 132.152 126.348C132.699 126.639 133.123 127.043 133.424 127.558C133.729 128.073 133.916 128.663 133.984 129.328H132.275C132.23 128.9 132.13 128.533 131.975 128.228C131.824 127.922 131.601 127.69 131.305 127.53C131.008 127.366 130.621 127.284 130.143 127.284C129.751 127.284 129.409 127.357 129.117 127.503C128.826 127.649 128.582 127.863 128.386 128.146C128.19 128.428 128.042 128.777 127.941 129.191C127.846 129.602 127.798 130.071 127.798 130.6V131.44C127.798 131.942 127.841 132.397 127.928 132.808C128.019 133.213 128.156 133.562 128.338 133.854C128.525 134.145 128.762 134.371 129.049 134.53C129.336 134.69 129.68 134.77 130.081 134.77C130.569 134.77 130.963 134.692 131.264 134.537C131.569 134.382 131.799 134.157 131.954 133.86C132.114 133.56 132.218 133.193 132.269 132.76ZM142.051 134.64V136H136.767V134.64H142.051ZM137.252 126.047V136H135.536V126.047H137.252ZM141.36 130.203V131.543H136.767V130.203H141.36ZM142.017 126.047V127.414H136.767V126.047H142.017Z" fill="#002E19"/>
<g clip-path="url(#clip0_705_1596)">
<path d="M61.9625 64.8006H66.0393C66.1117 65.3006 66.2778 65.7835 66.5276 66.2239L66.834 66.8612H59.6948V65.8271H59.6842V48.3696C58.7324 48.7263 57.8409 48.7346 57.1007 48.4886C56.5229 48.2982 56.0346 47.9569 55.6765 47.5165C55.3184 47.0765 55.091 46.5408 55.0214 45.9496C54.9156 45.033 55.1964 43.9978 55.998 43.0252C56.0387 42.9776 56.0834 42.93 56.1363 42.8903L79.3522 25.2189C79.6533 24.9491 80.1168 24.9213 80.4505 25.1753L103.72 42.8149C103.757 42.8427 103.789 42.8705 103.821 42.9062C104.9 44.037 105.168 45.2905 104.908 46.3499C104.778 46.8737 104.522 47.3419 104.168 47.7304C103.814 48.1192 103.362 48.4208 102.849 48.5989C102.035 48.885 101.067 48.8767 100.087 48.4247V64.8003H100.088V66.8608H86.4919L86.6319 66.3509L86.6258 66.3493C86.7067 66.0537 86.7531 65.7506 86.7649 65.447C86.8776 65.2427 86.9741 65.0264 87.0514 64.8003H97.8081V47.449C97.8081 47.0483 81.8462 34.745 80.0847 33.4078C78.2173 34.7926 61.9625 46.9967 61.9625 47.5125V64.8006ZM93.1489 26.4093L100.135 26.687V35.8878L93.1489 31.3926V26.4093ZM83.9279 51.2423C83.569 51.4328 83.121 51.3035 82.9277 50.9555C82.7328 50.6055 82.8655 50.1686 83.2244 49.9806C84.9212 49.0826 85.7114 47.922 85.8709 46.7868C85.9552 46.1805 85.8587 45.5718 85.6252 45.008C85.3863 44.437 85.0079 43.9176 84.5285 43.4994C83.5959 42.6864 82.2873 42.2586 80.9209 42.59C80.3666 42.7237 79.8873 42.9943 79.4678 43.3748C79.0218 43.7791 78.6365 44.3081 78.2987 44.933C78.1087 45.2857 77.6627 45.4195 77.3034 45.2361C76.9421 45.0504 76.8045 44.616 76.9925 44.2656C77.4072 43.4994 77.8914 42.8415 78.4652 42.3197C79.0653 41.7769 79.762 41.3869 80.5713 41.1917C82.4508 40.7381 84.2417 41.3163 85.5141 42.4257C86.1598 42.9895 86.6734 43.6922 86.9965 44.4676C87.3216 45.25 87.4542 46.1103 87.3313 46.982C87.112 48.5374 86.0899 50.098 83.9279 51.2423ZM78.2743 56.9224C75.4788 53.2608 75.4113 49.7921 78.8045 46.5682L76.361 45.252C74.4038 44.5096 70.8132 49.9829 72.2012 51.4443L74.1051 54.1984L73.7124 54.9976C73.6038 55.2352 73.71 55.4019 73.9753 55.517L74.2333 55.5852L70.2179 64.2289L71.2205 66.3136L73.2258 65.7379L73.7413 64.7602L73.2473 63.8579L74.3366 63.6301L74.5897 63.1508L74.0209 62.3044L74.3944 61.5974L75.4813 61.4633L75.8357 60.7935L75.2286 60.0205L75.6164 59.2873L76.7252 59.1111L77.2965 57.2168L77.5516 57.3533C77.9948 57.6156 78.2239 57.4466 78.2743 56.9224ZM83.5353 59.2182L83.7346 60.9883L82.7105 61.3831L82.496 62.1656L83.2431 62.7838L83.0482 63.496L82.0362 63.8436L81.8287 64.5959L82.5542 65.2891L82.4142 65.799L81.4189 66.2386L82.0842 67.0024L81.7973 68.0432L80.0021 68.9999L78.5994 67.2064L80.3369 58.3842L79.6891 58.2151C79.5565 58.1798 79.4747 58.0457 79.5109 57.914L79.7831 56.9248C77.8214 55.4749 76.8501 52.9652 77.5248 50.5043C78.3923 47.3435 81.6647 45.4353 84.909 46.1452C84.9232 46.3142 84.9208 46.4856 84.8968 46.6574C84.837 47.0852 84.6465 47.5248 84.2946 47.9502C84.2465 48.0065 84.1957 48.0653 84.1428 48.1216C83.1064 48.0557 82.1351 48.7092 81.8559 49.7246C81.7351 50.1619 81.7619 50.6035 81.904 51.0007C81.9377 51.1416 81.9931 51.2781 82.0651 51.4118C82.2364 51.7177 82.4867 51.9498 82.7809 52.0978C82.9737 52.222 83.1906 52.3165 83.4246 52.3799C84.5884 52.6831 85.7814 52.0296 86.1285 50.9134C86.4805 50.6103 86.7865 50.2908 87.0493 49.9619C87.5604 49.3203 87.9096 48.639 88.1171 47.9454C89.5246 49.4258 90.1435 51.5578 89.5677 53.654C88.8931 56.1145 86.76 57.816 84.321 58.1143L84.0484 59.1035C84.0126 59.2329 83.875 59.3127 83.7399 59.2773L83.5353 59.2182Z" fill="#00723F"/>
</g>
<defs>
<clipPath id="clip0_705_1596">
<rect width="50" height="44" fill="white" transform="translate(55 25)"/>
</clipPath>
</defs>
</svg>
