<svg width="161" height="164" viewBox="0 0 161 164" fill="none" xmlns="http://www.w3.org/2000/svg">
<rect x="33.5" width="94" height="94" rx="16" fill="#E5EAE8"/>
<path d="M50.0703 109.047V119H48.3682V109.047H50.0703ZM53.1943 109.047V110.414H45.2715V109.047H53.1943ZM54.5068 109.047H58.0273C58.7839 109.047 59.4287 109.161 59.9619 109.389C60.4951 109.617 60.903 109.954 61.1855 110.4C61.4727 110.842 61.6162 111.389 61.6162 112.041C61.6162 112.538 61.5251 112.975 61.3428 113.354C61.1605 113.732 60.903 114.051 60.5703 114.311C60.2376 114.566 59.8411 114.764 59.3809 114.905L58.8613 115.158H55.6963L55.6826 113.798H58.0547C58.4648 113.798 58.8066 113.725 59.0801 113.579C59.3535 113.433 59.5586 113.235 59.6953 112.984C59.8366 112.729 59.9072 112.442 59.9072 112.123C59.9072 111.777 59.8389 111.476 59.7021 111.221C59.57 110.961 59.3649 110.763 59.0869 110.626C58.8089 110.485 58.4557 110.414 58.0273 110.414H56.2227V119H54.5068V109.047ZM60.1875 119L57.8496 114.529L59.6475 114.522L62.0195 118.911V119H60.1875ZM67.2012 110.373L64.2275 119H62.4297L66.1758 109.047H67.3242L67.2012 110.373ZM69.6895 119L66.709 110.373L66.5791 109.047H67.7344L71.4941 119H69.6895ZM69.5459 115.309V116.669H64.1318V115.309H69.5459ZM80.5039 109.047V119H78.7881L74.3242 111.87V119H72.6084V109.047H74.3242L78.8018 116.19V109.047H80.5039ZM87.7842 116.437C87.7842 116.231 87.7523 116.049 87.6885 115.89C87.6292 115.73 87.5221 115.584 87.3672 115.452C87.2122 115.32 86.9935 115.192 86.7109 115.069C86.4329 114.942 86.0775 114.812 85.6445 114.68C85.1706 114.534 84.7331 114.372 84.332 114.194C83.9355 114.012 83.5892 113.802 83.293 113.565C82.9967 113.324 82.7666 113.048 82.6025 112.738C82.4385 112.424 82.3564 112.062 82.3564 111.651C82.3564 111.246 82.4408 110.877 82.6094 110.544C82.7826 110.211 83.0264 109.924 83.3408 109.683C83.6598 109.437 84.0358 109.247 84.4688 109.115C84.9017 108.979 85.3802 108.91 85.9043 108.91C86.6426 108.91 87.2783 109.047 87.8115 109.32C88.3493 109.594 88.7617 109.961 89.0488 110.421C89.3405 110.881 89.4863 111.389 89.4863 111.945H87.7842C87.7842 111.617 87.7135 111.328 87.5723 111.077C87.4355 110.822 87.2259 110.621 86.9434 110.476C86.6654 110.33 86.3122 110.257 85.8838 110.257C85.4782 110.257 85.141 110.318 84.8721 110.441C84.6032 110.564 84.4027 110.731 84.2705 110.94C84.1383 111.15 84.0723 111.387 84.0723 111.651C84.0723 111.838 84.1156 112.009 84.2021 112.164C84.2887 112.314 84.4209 112.456 84.5986 112.588C84.7764 112.715 84.9997 112.836 85.2686 112.95C85.5374 113.064 85.8542 113.174 86.2188 113.278C86.7702 113.442 87.251 113.625 87.6611 113.825C88.0713 114.021 88.4131 114.244 88.6865 114.495C88.96 114.746 89.165 115.031 89.3018 115.35C89.4385 115.664 89.5068 116.022 89.5068 116.423C89.5068 116.842 89.4225 117.22 89.2539 117.558C89.0853 117.89 88.8438 118.175 88.5293 118.412C88.2194 118.645 87.8457 118.825 87.4082 118.952C86.9753 119.075 86.4922 119.137 85.959 119.137C85.4805 119.137 85.0088 119.073 84.5439 118.945C84.0837 118.818 83.6644 118.624 83.2861 118.364C82.9079 118.1 82.6071 117.772 82.3838 117.38C82.1605 116.983 82.0488 116.521 82.0488 115.992H83.7646C83.7646 116.316 83.8193 116.591 83.9287 116.819C84.0426 117.047 84.1999 117.234 84.4004 117.38C84.6009 117.521 84.8333 117.626 85.0977 117.694C85.3665 117.763 85.6536 117.797 85.959 117.797C86.36 117.797 86.695 117.74 86.9639 117.626C87.2373 117.512 87.4424 117.353 87.5791 117.147C87.7158 116.942 87.7842 116.705 87.7842 116.437ZM94.8047 115.288H92.2139V113.928H94.8047C95.2559 113.928 95.6204 113.855 95.8984 113.709C96.1764 113.563 96.3792 113.363 96.5068 113.107C96.639 112.848 96.7051 112.551 96.7051 112.219C96.7051 111.904 96.639 111.61 96.5068 111.337C96.3792 111.059 96.1764 110.836 95.8984 110.667C95.6204 110.498 95.2559 110.414 94.8047 110.414H92.7402V119H91.0244V109.047H94.8047C95.5749 109.047 96.2288 109.184 96.7666 109.457C97.3089 109.726 97.7214 110.1 98.0039 110.578C98.2865 111.052 98.4277 111.594 98.4277 112.205C98.4277 112.848 98.2865 113.399 98.0039 113.859C97.7214 114.32 97.3089 114.673 96.7666 114.919C96.2288 115.165 95.5749 115.288 94.8047 115.288ZM107.902 113.75V114.297C107.902 115.049 107.804 115.723 107.608 116.32C107.412 116.917 107.132 117.425 106.768 117.845C106.408 118.264 105.975 118.585 105.469 118.809C104.963 119.027 104.402 119.137 103.787 119.137C103.176 119.137 102.618 119.027 102.112 118.809C101.611 118.585 101.176 118.264 100.807 117.845C100.438 117.425 100.15 116.917 99.9453 116.32C99.7448 115.723 99.6445 115.049 99.6445 114.297V113.75C99.6445 112.998 99.7448 112.326 99.9453 111.733C100.146 111.136 100.428 110.628 100.793 110.209C101.162 109.785 101.597 109.464 102.099 109.245C102.604 109.022 103.163 108.91 103.773 108.91C104.389 108.91 104.949 109.022 105.455 109.245C105.961 109.464 106.396 109.785 106.761 110.209C107.125 110.628 107.406 111.136 107.602 111.733C107.802 112.326 107.902 112.998 107.902 113.75ZM106.187 114.297V113.736C106.187 113.18 106.132 112.69 106.022 112.267C105.918 111.838 105.76 111.48 105.551 111.193C105.346 110.902 105.093 110.683 104.792 110.537C104.491 110.387 104.152 110.312 103.773 110.312C103.395 110.312 103.058 110.387 102.762 110.537C102.465 110.683 102.213 110.902 102.003 111.193C101.798 111.48 101.641 111.838 101.531 112.267C101.422 112.69 101.367 113.18 101.367 113.736V114.297C101.367 114.853 101.422 115.345 101.531 115.773C101.641 116.202 101.8 116.564 102.01 116.86C102.224 117.152 102.479 117.373 102.775 117.523C103.072 117.669 103.409 117.742 103.787 117.742C104.17 117.742 104.509 117.669 104.806 117.523C105.102 117.373 105.353 117.152 105.558 116.86C105.763 116.564 105.918 116.202 106.022 115.773C106.132 115.345 106.187 114.853 106.187 114.297ZM109.618 109.047H113.139C113.895 109.047 114.54 109.161 115.073 109.389C115.606 109.617 116.014 109.954 116.297 110.4C116.584 110.842 116.728 111.389 116.728 112.041C116.728 112.538 116.636 112.975 116.454 113.354C116.272 113.732 116.014 114.051 115.682 114.311C115.349 114.566 114.952 114.764 114.492 114.905L113.973 115.158H110.808L110.794 113.798H113.166C113.576 113.798 113.918 113.725 114.191 113.579C114.465 113.433 114.67 113.235 114.807 112.984C114.948 112.729 115.019 112.442 115.019 112.123C115.019 111.777 114.95 111.476 114.813 111.221C114.681 110.961 114.476 110.763 114.198 110.626C113.92 110.485 113.567 110.414 113.139 110.414H111.334V119H109.618V109.047ZM115.299 119L112.961 114.529L114.759 114.522L117.131 118.911V119H115.299ZM122.066 109.047V119H120.364V109.047H122.066ZM125.19 109.047V110.414H117.268V109.047H125.19ZM126.298 117.414L126.291 118.59C126.291 119.055 126.175 119.533 125.942 120.025C125.71 120.518 125.402 120.923 125.02 121.242L124.138 120.729C124.265 120.524 124.382 120.317 124.486 120.107C124.591 119.898 124.675 119.674 124.739 119.438C124.803 119.201 124.835 118.938 124.835 118.651V117.414H126.298ZM45.3604 136.437C45.3604 136.231 45.3285 136.049 45.2646 135.89C45.2054 135.73 45.0983 135.584 44.9434 135.452C44.7884 135.32 44.5697 135.192 44.2871 135.069C44.0091 134.942 43.6536 134.812 43.2207 134.68C42.7467 134.534 42.3092 134.372 41.9082 134.194C41.5117 134.012 41.1654 133.802 40.8691 133.565C40.5729 133.324 40.3428 133.048 40.1787 132.738C40.0146 132.424 39.9326 132.062 39.9326 131.651C39.9326 131.246 40.0169 130.877 40.1855 130.544C40.3587 130.211 40.6025 129.924 40.917 129.683C41.236 129.437 41.612 129.247 42.0449 129.115C42.4779 128.979 42.9564 128.91 43.4805 128.91C44.2188 128.91 44.8545 129.047 45.3877 129.32C45.9255 129.594 46.3379 129.961 46.625 130.421C46.9167 130.881 47.0625 131.389 47.0625 131.945H45.3604C45.3604 131.617 45.2897 131.328 45.1484 131.077C45.0117 130.822 44.8021 130.621 44.5195 130.476C44.2415 130.33 43.8883 130.257 43.46 130.257C43.0544 130.257 42.7171 130.318 42.4482 130.441C42.1794 130.564 41.9788 130.731 41.8467 130.94C41.7145 131.15 41.6484 131.387 41.6484 131.651C41.6484 131.838 41.6917 132.009 41.7783 132.164C41.8649 132.314 41.9971 132.456 42.1748 132.588C42.3525 132.715 42.5758 132.836 42.8447 132.95C43.1136 133.064 43.4303 133.174 43.7949 133.278C44.3464 133.442 44.8271 133.625 45.2373 133.825C45.6475 134.021 45.9893 134.244 46.2627 134.495C46.5361 134.746 46.7412 135.031 46.8779 135.35C47.0146 135.664 47.083 136.022 47.083 136.423C47.083 136.842 46.9987 137.22 46.8301 137.558C46.6615 137.89 46.4199 138.175 46.1055 138.412C45.7956 138.645 45.4219 138.825 44.9844 138.952C44.5514 139.075 44.0684 139.137 43.5352 139.137C43.0566 139.137 42.585 139.073 42.1201 138.945C41.6598 138.818 41.2406 138.624 40.8623 138.364C40.484 138.1 40.1833 137.772 39.96 137.38C39.7367 136.983 39.625 136.521 39.625 135.992H41.3408C41.3408 136.316 41.3955 136.591 41.5049 136.819C41.6188 137.047 41.776 137.234 41.9766 137.38C42.1771 137.521 42.4095 137.626 42.6738 137.694C42.9427 137.763 43.2298 137.797 43.5352 137.797C43.9362 137.797 44.2712 137.74 44.54 137.626C44.8135 137.512 45.0186 137.353 45.1553 137.147C45.292 136.942 45.3604 136.705 45.3604 136.437ZM52.6953 129.047V139H50.9932V129.047H52.6953ZM55.8193 129.047V130.414H47.8965V129.047H55.8193ZM64.877 133.75V134.297C64.877 135.049 64.779 135.723 64.583 136.32C64.387 136.917 64.1068 137.425 63.7422 137.845C63.3822 138.264 62.9492 138.585 62.4434 138.809C61.9375 139.027 61.377 139.137 60.7617 139.137C60.151 139.137 59.5928 139.027 59.0869 138.809C58.5856 138.585 58.1504 138.264 57.7812 137.845C57.4121 137.425 57.125 136.917 56.9199 136.32C56.7194 135.723 56.6191 135.049 56.6191 134.297V133.75C56.6191 132.998 56.7194 132.326 56.9199 131.733C57.1204 131.136 57.403 130.628 57.7676 130.209C58.1367 129.785 58.5719 129.464 59.0732 129.245C59.5791 129.022 60.1374 128.91 60.748 128.91C61.3633 128.91 61.9238 129.022 62.4297 129.245C62.9355 129.464 63.3708 129.785 63.7354 130.209C64.0999 130.628 64.3802 131.136 64.5762 131.733C64.7767 132.326 64.877 132.998 64.877 133.75ZM63.1611 134.297V133.736C63.1611 133.18 63.1064 132.69 62.9971 132.267C62.8923 131.838 62.735 131.48 62.5254 131.193C62.3203 130.902 62.0674 130.683 61.7666 130.537C61.4658 130.387 61.1263 130.312 60.748 130.312C60.3698 130.312 60.0326 130.387 59.7363 130.537C59.4401 130.683 59.1872 130.902 58.9775 131.193C58.7725 131.48 58.6152 131.838 58.5059 132.267C58.3965 132.69 58.3418 133.18 58.3418 133.736V134.297C58.3418 134.853 58.3965 135.345 58.5059 135.773C58.6152 136.202 58.7747 136.564 58.9844 136.86C59.1986 137.152 59.4538 137.373 59.75 137.523C60.0462 137.669 60.3835 137.742 60.7617 137.742C61.1445 137.742 61.484 137.669 61.7803 137.523C62.0765 137.373 62.3271 137.152 62.5322 136.86C62.7373 136.564 62.8923 136.202 62.9971 135.773C63.1064 135.345 63.1611 134.853 63.1611 134.297ZM66.5928 129.047H70.1133C70.8698 129.047 71.5146 129.161 72.0479 129.389C72.5811 129.617 72.9889 129.954 73.2715 130.4C73.5586 130.842 73.7021 131.389 73.7021 132.041C73.7021 132.538 73.611 132.975 73.4287 133.354C73.2464 133.732 72.9889 134.051 72.6562 134.311C72.3236 134.566 71.9271 134.764 71.4668 134.905L70.9473 135.158H67.7822L67.7686 133.798H70.1406C70.5508 133.798 70.8926 133.725 71.166 133.579C71.4395 133.433 71.6445 133.235 71.7812 132.984C71.9225 132.729 71.9932 132.442 71.9932 132.123C71.9932 131.777 71.9248 131.476 71.7881 131.221C71.6559 130.961 71.4508 130.763 71.1729 130.626C70.8949 130.485 70.5417 130.414 70.1133 130.414H68.3086V139H66.5928V129.047ZM72.2734 139L69.9355 134.529L71.7334 134.522L74.1055 138.911V139H72.2734ZM79.2871 130.373L76.3135 139H74.5156L78.2617 129.047H79.4102L79.2871 130.373ZM81.7754 139L78.7949 130.373L78.665 129.047H79.8203L83.5801 139H81.7754ZM81.6318 135.309V136.669H76.2178V135.309H81.6318ZM92.2275 133.914V137.715C92.0863 137.902 91.8652 138.107 91.5645 138.33C91.2682 138.549 90.874 138.738 90.3818 138.897C89.8896 139.057 89.2767 139.137 88.543 139.137C87.9186 139.137 87.3467 139.032 86.8271 138.822C86.3076 138.608 85.8587 138.296 85.4805 137.886C85.1068 137.476 84.8174 136.977 84.6123 136.389C84.4072 135.796 84.3047 135.122 84.3047 134.365V133.675C84.3047 132.923 84.3981 132.253 84.585 131.665C84.7764 131.073 85.0498 130.571 85.4053 130.161C85.7607 129.751 86.1891 129.441 86.6904 129.231C87.1963 129.017 87.7682 128.91 88.4062 128.91C89.222 128.91 89.8965 129.047 90.4297 129.32C90.9674 129.589 91.3822 129.963 91.6738 130.441C91.9655 130.92 92.1501 131.467 92.2275 132.082H90.5459C90.4912 131.736 90.3841 131.426 90.2246 131.152C90.0697 130.879 89.8464 130.665 89.5547 130.51C89.2676 130.35 88.8939 130.271 88.4336 130.271C88.0371 130.271 87.6885 130.346 87.3877 130.496C87.0869 130.646 86.8363 130.868 86.6357 131.159C86.4398 131.451 86.2917 131.806 86.1914 132.226C86.0911 132.645 86.041 133.123 86.041 133.661V134.365C86.041 134.912 86.098 135.397 86.2119 135.821C86.3304 136.245 86.499 136.603 86.7178 136.895C86.9411 137.186 87.2122 137.407 87.5312 137.558C87.8503 137.703 88.2103 137.776 88.6113 137.776C89.0033 137.776 89.3245 137.744 89.5752 137.681C89.8258 137.612 90.0241 137.533 90.1699 137.441C90.3203 137.346 90.4365 137.255 90.5186 137.168V135.192H88.4473V133.914H92.2275ZM100.643 137.64V139H95.3584V137.64H100.643ZM95.8438 129.047V139H94.1279V129.047H95.8438ZM99.9521 133.203V134.543H95.3584V133.203H99.9521ZM100.608 129.047V130.414H95.3584V129.047H100.608ZM109.406 130.373L106.433 139H104.635L108.381 129.047H109.529L109.406 130.373ZM111.895 139L108.914 130.373L108.784 129.047H109.939L113.699 139H111.895ZM111.751 135.309V136.669H106.337V135.309H111.751ZM122.709 129.047V139H120.993L116.529 131.87V139H114.813V129.047H116.529L121.007 136.19V129.047H122.709ZM127.645 139H125.519L125.532 137.64H127.645C128.26 137.64 128.775 137.505 129.189 137.236C129.609 136.967 129.923 136.582 130.133 136.081C130.347 135.58 130.454 134.983 130.454 134.29V133.75C130.454 133.212 130.393 132.736 130.27 132.321C130.151 131.907 129.973 131.558 129.736 131.275C129.504 130.993 129.217 130.779 128.875 130.633C128.538 130.487 128.148 130.414 127.706 130.414H125.478V129.047H127.706C128.367 129.047 128.971 129.159 129.518 129.382C130.064 129.601 130.536 129.917 130.933 130.332C131.334 130.747 131.641 131.243 131.855 131.822C132.07 132.401 132.177 133.048 132.177 133.764V134.29C132.177 135.006 132.07 135.653 131.855 136.231C131.641 136.81 131.334 137.307 130.933 137.722C130.532 138.132 130.053 138.449 129.497 138.672C128.946 138.891 128.328 139 127.645 139ZM126.469 129.047V139H124.753V129.047H126.469ZM34.8809 155.76H36.5898C36.5352 156.411 36.3529 156.993 36.043 157.503C35.7331 158.009 35.2979 158.408 34.7373 158.699C34.1768 158.991 33.4954 159.137 32.6934 159.137C32.0781 159.137 31.5244 159.027 31.0322 158.809C30.54 158.585 30.1185 158.271 29.7676 157.865C29.4167 157.455 29.1478 156.961 28.9609 156.382C28.7786 155.803 28.6875 155.156 28.6875 154.44V153.613C28.6875 152.898 28.7809 152.251 28.9678 151.672C29.1592 151.093 29.4326 150.599 29.7881 150.188C30.1436 149.774 30.5697 149.457 31.0664 149.238C31.5677 149.02 32.1305 148.91 32.7549 148.91C33.5479 148.91 34.2178 149.056 34.7646 149.348C35.3115 149.639 35.7354 150.043 36.0361 150.558C36.3415 151.073 36.5283 151.663 36.5967 152.328H34.8877C34.8421 151.9 34.7419 151.533 34.5869 151.228C34.4365 150.922 34.2132 150.69 33.917 150.53C33.6208 150.366 33.2334 150.284 32.7549 150.284C32.363 150.284 32.0212 150.357 31.7295 150.503C31.4378 150.649 31.194 150.863 30.998 151.146C30.8021 151.428 30.654 151.777 30.5537 152.191C30.458 152.602 30.4102 153.071 30.4102 153.6V154.44C30.4102 154.942 30.4535 155.397 30.54 155.808C30.6312 156.213 30.7679 156.562 30.9502 156.854C31.137 157.145 31.374 157.371 31.6611 157.53C31.9482 157.69 32.2923 157.77 32.6934 157.77C33.181 157.77 33.5752 157.692 33.876 157.537C34.1813 157.382 34.4115 157.157 34.5664 156.86C34.7259 156.56 34.8307 156.193 34.8809 155.76ZM46.085 153.75V154.297C46.085 155.049 45.987 155.723 45.791 156.32C45.5951 156.917 45.3148 157.425 44.9502 157.845C44.5902 158.264 44.1572 158.585 43.6514 158.809C43.1455 159.027 42.585 159.137 41.9697 159.137C41.359 159.137 40.8008 159.027 40.2949 158.809C39.7936 158.585 39.3584 158.264 38.9893 157.845C38.6201 157.425 38.333 156.917 38.1279 156.32C37.9274 155.723 37.8271 155.049 37.8271 154.297V153.75C37.8271 152.998 37.9274 152.326 38.1279 151.733C38.3285 151.136 38.611 150.628 38.9756 150.209C39.3447 149.785 39.7799 149.464 40.2812 149.245C40.7871 149.022 41.3454 148.91 41.9561 148.91C42.5713 148.91 43.1318 149.022 43.6377 149.245C44.1436 149.464 44.5788 149.785 44.9434 150.209C45.3079 150.628 45.5882 151.136 45.7842 151.733C45.9847 152.326 46.085 152.998 46.085 153.75ZM44.3691 154.297V153.736C44.3691 153.18 44.3145 152.69 44.2051 152.267C44.1003 151.838 43.943 151.48 43.7334 151.193C43.5283 150.902 43.2754 150.683 42.9746 150.537C42.6738 150.387 42.3343 150.312 41.9561 150.312C41.5778 150.312 41.2406 150.387 40.9443 150.537C40.6481 150.683 40.3952 150.902 40.1855 151.193C39.9805 151.48 39.8232 151.838 39.7139 152.267C39.6045 152.69 39.5498 153.18 39.5498 153.736V154.297C39.5498 154.853 39.6045 155.345 39.7139 155.773C39.8232 156.202 39.9827 156.564 40.1924 156.86C40.4066 157.152 40.6618 157.373 40.958 157.523C41.2542 157.669 41.5915 157.742 41.9697 157.742C42.3525 157.742 42.6921 157.669 42.9883 157.523C43.2845 157.373 43.5352 157.152 43.7402 156.86C43.9453 156.564 44.1003 156.202 44.2051 155.773C44.3145 155.345 44.3691 154.853 44.3691 154.297ZM48.498 149.047H50.0293L52.9072 156.724L55.7783 149.047H57.3096L53.5088 159H52.292L48.498 149.047ZM47.8008 149.047H49.2568L49.5098 155.691V159H47.8008V149.047ZM56.5508 149.047H58.0137V159H56.2979V155.691L56.5508 149.047ZM60.748 149.047H62.2793L65.1572 156.724L68.0283 149.047H69.5596L65.7588 159H64.542L60.748 149.047ZM60.0508 149.047H61.5068L61.7598 155.691V159H60.0508V149.047ZM68.8008 149.047H70.2637V159H68.5479V155.691L68.8008 149.047ZM77.8857 149.047H79.5947V155.698C79.5947 156.455 79.4307 157.088 79.1025 157.599C78.7744 158.109 78.3278 158.494 77.7627 158.754C77.2021 159.009 76.5755 159.137 75.8828 159.137C75.1673 159.137 74.5293 159.009 73.9688 158.754C73.4082 158.494 72.9661 158.109 72.6426 157.599C72.3236 157.088 72.1641 156.455 72.1641 155.698V149.047H73.873V155.698C73.873 156.177 73.9551 156.571 74.1191 156.881C74.2832 157.186 74.5156 157.412 74.8164 157.558C75.1172 157.703 75.4727 157.776 75.8828 157.776C76.293 157.776 76.6462 157.703 76.9424 157.558C77.2432 157.412 77.4756 157.186 77.6396 156.881C77.8037 156.571 77.8857 156.177 77.8857 155.698V149.047ZM89.3564 149.047V159H87.6406L83.1768 151.87V159H81.4609V149.047H83.1768L87.6543 156.19V149.047H89.3564ZM93.2324 149.047V159H91.5166V149.047H93.2324ZM101.244 155.76H102.953C102.898 156.411 102.716 156.993 102.406 157.503C102.096 158.009 101.661 158.408 101.101 158.699C100.54 158.991 99.8587 159.137 99.0566 159.137C98.4414 159.137 97.8877 159.027 97.3955 158.809C96.9033 158.585 96.4818 158.271 96.1309 157.865C95.7799 157.455 95.5111 156.961 95.3242 156.382C95.1419 155.803 95.0508 155.156 95.0508 154.44V153.613C95.0508 152.898 95.1442 152.251 95.3311 151.672C95.5225 151.093 95.7959 150.599 96.1514 150.188C96.5068 149.774 96.9329 149.457 97.4297 149.238C97.931 149.02 98.4938 148.91 99.1182 148.91C99.9111 148.91 100.581 149.056 101.128 149.348C101.675 149.639 102.099 150.043 102.399 150.558C102.705 151.073 102.892 151.663 102.96 152.328H101.251C101.205 151.9 101.105 151.533 100.95 151.228C100.8 150.922 100.576 150.69 100.28 150.53C99.984 150.366 99.5967 150.284 99.1182 150.284C98.7262 150.284 98.3844 150.357 98.0928 150.503C97.8011 150.649 97.5573 150.863 97.3613 151.146C97.1654 151.428 97.0173 151.777 96.917 152.191C96.8213 152.602 96.7734 153.071 96.7734 153.6V154.44C96.7734 154.942 96.8167 155.397 96.9033 155.808C96.9945 156.213 97.1312 156.562 97.3135 156.854C97.5003 157.145 97.7373 157.371 98.0244 157.53C98.3115 157.69 98.6556 157.77 99.0566 157.77C99.5443 157.77 99.9385 157.692 100.239 157.537C100.545 157.382 100.775 157.157 100.93 156.86C101.089 156.56 101.194 156.193 101.244 155.76ZM108.388 150.373L105.414 159H103.616L107.362 149.047H108.511L108.388 150.373ZM110.876 159L107.896 150.373L107.766 149.047H108.921L112.681 159H110.876ZM110.732 155.309V156.669H105.318V155.309H110.732ZM117.028 149.047V159H115.326V149.047H117.028ZM120.152 149.047V150.414H112.229V149.047H120.152ZM123.297 149.047V159H121.581V149.047H123.297ZM133.366 153.75V154.297C133.366 155.049 133.268 155.723 133.072 156.32C132.876 156.917 132.596 157.425 132.231 157.845C131.871 158.264 131.438 158.585 130.933 158.809C130.427 159.027 129.866 159.137 129.251 159.137C128.64 159.137 128.082 159.027 127.576 158.809C127.075 158.585 126.64 158.264 126.271 157.845C125.901 157.425 125.614 156.917 125.409 156.32C125.209 155.723 125.108 155.049 125.108 154.297V153.75C125.108 152.998 125.209 152.326 125.409 151.733C125.61 151.136 125.892 150.628 126.257 150.209C126.626 149.785 127.061 149.464 127.562 149.245C128.068 149.022 128.627 148.91 129.237 148.91C129.853 148.91 130.413 149.022 130.919 149.245C131.425 149.464 131.86 149.785 132.225 150.209C132.589 150.628 132.869 151.136 133.065 151.733C133.266 152.326 133.366 152.998 133.366 153.75ZM131.65 154.297V153.736C131.65 153.18 131.596 152.69 131.486 152.267C131.382 151.838 131.224 151.48 131.015 151.193C130.81 150.902 130.557 150.683 130.256 150.537C129.955 150.387 129.616 150.312 129.237 150.312C128.859 150.312 128.522 150.387 128.226 150.537C127.929 150.683 127.676 150.902 127.467 151.193C127.262 151.48 127.104 151.838 126.995 152.267C126.886 152.69 126.831 153.18 126.831 153.736V154.297C126.831 154.853 126.886 155.345 126.995 155.773C127.104 156.202 127.264 156.564 127.474 156.86C127.688 157.152 127.943 157.373 128.239 157.523C128.535 157.669 128.873 157.742 129.251 157.742C129.634 157.742 129.973 157.669 130.27 157.523C130.566 157.373 130.816 157.152 131.021 156.86C131.227 156.564 131.382 156.202 131.486 155.773C131.596 155.345 131.65 154.853 131.65 154.297ZM142.978 149.047V159H141.262L136.798 151.87V159H135.082V149.047H136.798L141.275 156.19V149.047H142.978Z" fill="#002E19"/>
<g clip-path="url(#clip0_705_1630)">
<path fill-rule="evenodd" clip-rule="evenodd" d="M97.9281 64.5238H95.4622V68.3055C95.4633 68.6604 95.3927 69.012 95.2544 69.3403C95.1162 69.6686 94.9129 69.9671 94.6564 70.2188C94.3998 70.4704 94.095 70.6704 93.7592 70.8071C93.4234 70.9439 93.0633 71.0148 92.6994 71.0159H91.0718C90.34 71.0127 89.6391 70.7278 89.1217 70.2232C88.6043 69.7186 88.3121 69.0351 88.3089 68.3214V64.5397H71.6097V68.3214C71.6065 69.0371 71.3127 69.7224 70.7926 70.2274C70.2725 70.7324 69.5685 71.0159 68.8346 71.0159H67.207C66.4756 71.0127 65.7752 70.7277 65.2584 70.223C64.7416 69.7182 64.4504 69.0347 64.4482 68.3214V64.5397H62.3649C60.9245 64.5159 60.2327 63.746 60.127 62.4405V31.5397C59.3132 31.619 58.9266 31.8016 58.7313 32.2063V41.0357H56.9816C56.4564 41.0347 55.953 40.8307 55.5816 40.4685C55.2102 40.1063 55.0011 39.6154 55 39.1032V33.8889C55.0018 33.3864 55.2034 32.9042 55.5624 32.5438C55.9214 32.1834 56.4097 31.9728 56.9246 31.9563C57.0915 30.4405 57.7629 30 60.1799 29.8889C60.5244 27.2434 62.373 25.287 65.7259 24.0198C72.9403 22.7302 86.6284 22.6032 94.2741 24.0198C97.6432 25.2857 99.4824 27.2421 99.8161 29.8889C102.257 30.0079 102.913 30.4524 103.071 31.9563C103.586 31.9728 104.075 32.1834 104.434 32.5438C104.792 32.9042 104.994 33.3864 104.996 33.8889V39.1032C104.995 39.6154 104.786 40.1063 104.414 40.4685C104.043 40.8307 103.54 41.0347 103.014 41.0357H101.265V32.1825C101.069 31.7857 100.667 31.6111 99.869 31.5357V62.123C99.869 63.8928 99.283 64.504 97.924 64.504L97.9281 64.5238ZM61.5633 56.6786L61.6772 54.0238C61.7424 53.5595 61.9946 53.3532 62.4463 53.4286C64.7269 54.6158 66.9151 55.9647 68.9933 57.4643C69.4368 57.75 69.2619 58.3016 68.6759 58.1984L62.5195 57.7619C62.2528 57.7245 62.009 57.5942 61.8332 57.395C61.6574 57.1959 61.5616 56.9413 61.5633 56.6786ZM76.1589 60.0833H84.012C84.1135 60.0833 84.2108 60.1226 84.2825 60.1926C84.3542 60.2625 84.3945 60.3574 84.3945 60.4563V61.7421C84.3945 61.841 84.3542 61.9359 84.2825 62.0058C84.2108 62.0758 84.1135 62.1151 84.012 62.1151H76.1589C76.0574 62.1151 75.9601 62.0758 75.8884 62.0058C75.8167 61.9359 75.7764 61.841 75.7764 61.7421V60.4563C75.7764 60.3574 75.8167 60.2625 75.8884 60.1926C75.9601 60.1226 76.0574 60.0833 76.1589 60.0833ZM96.6463 60.0833C96.8473 60.0849 97.0433 60.1443 97.2098 60.254C97.3763 60.3637 97.5059 60.5189 97.5824 60.7001C97.659 60.8813 97.679 61.0805 97.6399 61.2727C97.6009 61.465 97.5046 61.6417 97.3631 61.7808C97.2215 61.92 97.0411 62.0153 96.8443 62.0548C96.6474 62.0944 96.443 62.0765 96.2566 62.0033C96.0702 61.9301 95.9101 61.8049 95.7963 61.6434C95.6825 61.4819 95.6201 61.2912 95.6169 61.0952C95.6169 60.8318 95.7239 60.579 95.9146 60.3923C96.1052 60.2057 96.364 60.1002 96.6341 60.0992L96.6463 60.0833ZM63.016 60.0833C63.2167 60.0857 63.4123 60.1457 63.5783 60.2559C63.7443 60.3661 63.8733 60.5215 63.9492 60.7028C64.0251 60.8841 64.0445 61.0831 64.005 61.2751C63.9655 61.4671 63.8689 61.6435 63.7272 61.7822C63.5855 61.9209 63.405 62.0159 63.2083 62.0551C63.0116 62.0943 62.8074 62.0762 62.6213 62.0029C62.4351 61.9296 62.2752 61.8044 62.1616 61.643C62.0479 61.4815 61.9856 61.291 61.9824 61.0952C61.9824 60.8311 62.09 60.5777 62.2816 60.3909C62.4731 60.2041 62.7329 60.0992 63.0037 60.0992L63.016 60.0833ZM98.4489 56.6587L98.335 54.004C98.2699 53.5397 98.0176 53.3333 97.57 53.4087C95.2875 54.5951 93.0979 55.944 91.0189 57.4444C90.5754 57.7302 90.7503 58.2817 91.3363 58.1786L97.4927 57.7421C97.7598 57.7055 98.004 57.5754 98.18 57.376C98.3559 57.1767 98.4515 56.9217 98.4489 56.6587ZM74.6086 25.4246H85.3914C85.5659 25.4256 85.733 25.4937 85.8564 25.614C85.9798 25.7344 86.0496 25.8973 86.0506 26.0675V27.7619C86.0496 27.9321 85.9798 28.095 85.8564 28.2153C85.733 28.3356 85.5659 28.4037 85.3914 28.4048H74.6086C74.4341 28.4037 74.267 28.3356 74.1436 28.2153C74.0202 28.095 73.9504 27.9321 73.9494 27.7619V26.0675C73.9504 25.8973 74.0202 25.7344 74.1436 25.614C74.267 25.4937 74.4341 25.4256 74.6086 25.4246ZM63.2682 30.504H96.5853C96.8011 30.504 97.0081 30.5876 97.1607 30.7364C97.3134 30.8853 97.3991 31.0871 97.3991 31.2976V48.4325C97.3991 48.8611 97.0369 49.1032 96.5853 49.2262C85.1554 52.6111 74.694 52.4722 63.2682 49.2262C62.8166 49.1071 62.4544 48.869 62.4544 48.4325V31.2897C62.4544 31.0792 62.5402 30.8773 62.6928 30.7285C62.8454 30.5796 63.0524 30.496 63.2682 30.496V30.504Z" fill="#00723F"/>
</g>
<defs>
<clipPath id="clip0_705_1630">
<rect width="50" height="48" fill="white" transform="translate(55 23)"/>
</clipPath>
</defs>
</svg>
