<svg width="161" height="140" viewBox="0 0 161 140" fill="none" xmlns="http://www.w3.org/2000/svg">
<rect x="33.5" width="94" height="94" rx="16" fill="#E5EAE8"/>
<path d="M27.7607 115.765L29.7432 108.047H30.7822L30.666 110.036L28.5469 118H27.4668L27.7607 115.765ZM26.2773 108.047L27.8838 115.703L28.0273 118H26.8789L24.5752 108.047H26.2773ZM33.0312 115.683L34.6172 108.047H36.3262L34.0225 118H32.874L33.0312 115.683ZM31.1855 108.047L33.1475 115.785L33.4346 118H32.3545L30.2695 110.036L30.1602 108.047H31.1855ZM44.1738 112.203V113.563H38.8896V112.203H44.1738ZM39.3135 108.047V118H37.5977V108.047H39.3135ZM45.4932 108.047V118H43.7842V108.047H45.4932ZM55.4736 112.75V113.297C55.4736 114.049 55.3757 114.723 55.1797 115.32C54.9837 115.917 54.7035 116.425 54.3389 116.845C53.9788 117.264 53.5459 117.585 53.04 117.809C52.5342 118.027 51.9736 118.137 51.3584 118.137C50.7477 118.137 50.1895 118.027 49.6836 117.809C49.1823 117.585 48.7471 117.264 48.3779 116.845C48.0088 116.425 47.7217 115.917 47.5166 115.32C47.3161 114.723 47.2158 114.049 47.2158 113.297V112.75C47.2158 111.998 47.3161 111.326 47.5166 110.733C47.7171 110.136 47.9997 109.628 48.3643 109.209C48.7334 108.785 49.1686 108.464 49.6699 108.245C50.1758 108.022 50.734 107.91 51.3447 107.91C51.96 107.91 52.5205 108.022 53.0264 108.245C53.5322 108.464 53.9674 108.785 54.332 109.209C54.6966 109.628 54.9769 110.136 55.1729 110.733C55.3734 111.326 55.4736 111.998 55.4736 112.75ZM53.7578 113.297V112.736C53.7578 112.18 53.7031 111.69 53.5938 111.267C53.4889 110.838 53.3317 110.48 53.1221 110.193C52.917 109.902 52.6641 109.683 52.3633 109.537C52.0625 109.387 51.723 109.312 51.3447 109.312C50.9665 109.312 50.6292 109.387 50.333 109.537C50.0368 109.683 49.7839 109.902 49.5742 110.193C49.3691 110.48 49.2119 110.838 49.1025 111.267C48.9932 111.69 48.9385 112.18 48.9385 112.736V113.297C48.9385 113.853 48.9932 114.345 49.1025 114.773C49.2119 115.202 49.3714 115.564 49.5811 115.86C49.7952 116.152 50.0505 116.373 50.3467 116.523C50.6429 116.669 50.9801 116.742 51.3584 116.742C51.7412 116.742 52.0807 116.669 52.377 116.523C52.6732 116.373 52.9238 116.152 53.1289 115.86C53.334 115.564 53.4889 115.202 53.5938 114.773C53.7031 114.345 53.7578 113.853 53.7578 113.297ZM63.4238 116.64V118H58.4268V116.64H63.4238ZM58.9053 108.047V118H57.1895V108.047H58.9053ZM71.2646 116.64V118H65.9805V116.64H71.2646ZM66.4658 108.047V118H64.75V108.047H66.4658ZM70.5742 112.203V113.543H65.9805V112.203H70.5742ZM71.2305 108.047V109.414H65.9805V108.047H71.2305ZM77.9023 115.437C77.9023 115.231 77.8704 115.049 77.8066 114.89C77.7474 114.73 77.6403 114.584 77.4854 114.452C77.3304 114.32 77.1117 114.192 76.8291 114.069C76.5511 113.942 76.1956 113.812 75.7627 113.68C75.2887 113.534 74.8512 113.372 74.4502 113.194C74.0537 113.012 73.7074 112.802 73.4111 112.565C73.1149 112.324 72.8848 112.048 72.7207 111.738C72.5566 111.424 72.4746 111.062 72.4746 110.651C72.4746 110.246 72.5589 109.877 72.7275 109.544C72.9007 109.211 73.1445 108.924 73.459 108.683C73.778 108.437 74.154 108.247 74.5869 108.115C75.0199 107.979 75.4984 107.91 76.0225 107.91C76.7607 107.91 77.3965 108.047 77.9297 108.32C78.4674 108.594 78.8799 108.961 79.167 109.421C79.4587 109.881 79.6045 110.389 79.6045 110.945H77.9023C77.9023 110.617 77.8317 110.328 77.6904 110.077C77.5537 109.822 77.3441 109.621 77.0615 109.476C76.7835 109.33 76.4303 109.257 76.002 109.257C75.5964 109.257 75.2591 109.318 74.9902 109.441C74.7214 109.564 74.5208 109.731 74.3887 109.94C74.2565 110.15 74.1904 110.387 74.1904 110.651C74.1904 110.838 74.2337 111.009 74.3203 111.164C74.4069 111.314 74.5391 111.456 74.7168 111.588C74.8945 111.715 75.1178 111.836 75.3867 111.95C75.6556 112.064 75.9723 112.174 76.3369 112.278C76.8883 112.442 77.3691 112.625 77.7793 112.825C78.1895 113.021 78.5312 113.244 78.8047 113.495C79.0781 113.746 79.2832 114.031 79.4199 114.35C79.5566 114.664 79.625 115.022 79.625 115.423C79.625 115.842 79.5407 116.22 79.3721 116.558C79.2035 116.89 78.9619 117.175 78.6475 117.412C78.3376 117.645 77.9639 117.825 77.5264 117.952C77.0934 118.075 76.6104 118.137 76.0771 118.137C75.5986 118.137 75.127 118.073 74.6621 117.945C74.2018 117.818 73.7826 117.624 73.4043 117.364C73.026 117.1 72.7253 116.772 72.502 116.38C72.2786 115.983 72.167 115.521 72.167 114.992H73.8828C73.8828 115.316 73.9375 115.591 74.0469 115.819C74.1608 116.047 74.318 116.234 74.5186 116.38C74.7191 116.521 74.9515 116.626 75.2158 116.694C75.4847 116.763 75.7718 116.797 76.0771 116.797C76.4782 116.797 76.8132 116.74 77.082 116.626C77.3555 116.512 77.5605 116.353 77.6973 116.147C77.834 115.942 77.9023 115.705 77.9023 115.437ZM85.0186 109.373L82.0449 118H80.2471L83.9932 108.047H85.1416L85.0186 109.373ZM87.5068 118L84.5264 109.373L84.3965 108.047H85.5518L89.3115 118H87.5068ZM87.3633 114.309V115.669H81.9492V114.309H87.3633ZM96.6602 116.64V118H91.6631V116.64H96.6602ZM92.1416 108.047V118H90.4258V108.047H92.1416ZM104.501 116.64V118H99.2168V116.64H104.501ZM99.7021 108.047V118H97.9863V108.047H99.7021ZM103.811 112.203V113.543H99.2168V112.203H103.811ZM104.467 108.047V109.414H99.2168V108.047H104.467ZM113.265 109.373L110.291 118H108.493L112.239 108.047H113.388L113.265 109.373ZM115.753 118L112.772 109.373L112.643 108.047H113.798L117.558 118H115.753ZM115.609 114.309V115.669H110.195V114.309H115.609ZM126.567 108.047V118H124.852L120.388 110.87V118H118.672V108.047H120.388L124.865 115.19V108.047H126.567ZM131.503 118H129.377L129.391 116.64H131.503C132.118 116.64 132.633 116.505 133.048 116.236C133.467 115.967 133.782 115.582 133.991 115.081C134.205 114.58 134.312 113.983 134.312 113.29V112.75C134.312 112.212 134.251 111.736 134.128 111.321C134.009 110.907 133.832 110.558 133.595 110.275C133.362 109.993 133.075 109.779 132.733 109.633C132.396 109.487 132.007 109.414 131.564 109.414H129.336V108.047H131.564C132.225 108.047 132.829 108.159 133.376 108.382C133.923 108.601 134.395 108.917 134.791 109.332C135.192 109.747 135.5 110.243 135.714 110.822C135.928 111.401 136.035 112.048 136.035 112.764V113.29C136.035 114.006 135.928 114.653 135.714 115.231C135.5 115.81 135.192 116.307 134.791 116.722C134.39 117.132 133.911 117.449 133.355 117.672C132.804 117.891 132.187 118 131.503 118ZM130.327 108.047V118H128.611V108.047H130.327ZM58.7344 126.047H62.2549C63.0114 126.047 63.6562 126.161 64.1895 126.389C64.7227 126.617 65.1305 126.954 65.4131 127.4C65.7002 127.842 65.8438 128.389 65.8438 129.041C65.8438 129.538 65.7526 129.975 65.5703 130.354C65.388 130.732 65.1305 131.051 64.7979 131.311C64.4652 131.566 64.0687 131.764 63.6084 131.905L63.0889 132.158H59.9238L59.9102 130.798H62.2822C62.6924 130.798 63.0342 130.725 63.3076 130.579C63.5811 130.433 63.7861 130.235 63.9229 129.984C64.0641 129.729 64.1348 129.442 64.1348 129.123C64.1348 128.777 64.0664 128.476 63.9297 128.221C63.7975 127.961 63.5924 127.763 63.3145 127.626C63.0365 127.485 62.6833 127.414 62.2549 127.414H60.4502V136H58.7344V126.047ZM64.415 136L62.0771 131.529L63.875 131.522L66.2471 135.911V136H64.415ZM74.0674 134.64V136H68.7832V134.64H74.0674ZM69.2686 126.047V136H67.5527V126.047H69.2686ZM73.377 130.203V131.543H68.7832V130.203H73.377ZM74.0332 126.047V127.414H68.7832V126.047H74.0332ZM79.7002 126.047V136H77.998V126.047H79.7002ZM82.8242 126.047V127.414H74.9014V126.047H82.8242ZM87.3564 127.373L84.3828 136H82.585L86.3311 126.047H87.4795L87.3564 127.373ZM89.8447 136L86.8643 127.373L86.7344 126.047H87.8896L91.6494 136H89.8447ZM89.7012 132.309V133.669H84.2871V132.309H89.7012ZM94.5957 126.047V136H92.8799V126.047H94.5957ZM102.963 134.64V136H97.9658V134.64H102.963ZM98.4443 126.047V136H96.7285V126.047H98.4443Z" fill="#002E19"/>
<g clip-path="url(#clip0_705_1562)">
<path fill-rule="evenodd" clip-rule="evenodd" d="M64.8723 27.9219H101.452C103.843 27.9219 103.714 28.8867 103.506 31.3477L102.146 48.625C101.914 51.3789 102.11 50.7109 99.1816 51.1289L72.2784 54.5391L73.7015 58.6523C85.3732 58.6523 91.0149 58.6523 102.679 58.6523C103.071 60.1133 103.604 62.4922 103.996 64.1211H99.1816L98.7189 62.457C88.9958 62.457 85.2909 62.457 75.5638 62.457C70.2514 62.3672 70.7846 63.8008 69.5104 59.2266L60.3832 26.168H56V23H63.6883C64.0451 24.332 64.5391 26.5742 64.8723 27.9219ZM77.0497 63.5938C79.1002 63.5938 80.7665 65.2539 80.7665 67.2969C80.7665 69.3438 79.1041 71 77.0497 71C74.9953 71 73.333 69.3438 73.333 67.2969C73.333 65.2539 74.9953 63.5938 77.0497 63.5938ZM92.3793 63.5938C94.4298 63.5938 96.0961 65.2539 96.0961 67.2969C96.0961 69.3438 94.4298 71 92.3793 71C90.3249 71 88.6626 69.3438 88.6626 67.2969C88.6626 65.2539 90.3249 63.5938 92.3793 63.5938ZM68.0755 39.8242H73.9956L71.8471 30.875C69.73 30.875 67.6442 30.8711 65.6016 30.8711L66.323 33.5508L66.3465 33.5469L68.0755 39.8242ZM74.9405 30.8789L77.0889 39.8242H82.7895L80.6332 30.8867L74.9405 30.8789ZM83.7344 30.8906L85.8907 39.8242H91.3443L89.1958 30.8984L83.7344 30.8906ZM92.297 30.9023L94.4455 39.8281H99.903L100.507 32.6562C100.675 30.6562 101.028 30.9102 99.0836 30.9102C96.8645 30.9062 94.5945 30.9023 92.297 30.9023ZM99.7109 42.0977H94.9904L96.5469 48.5664L96.9311 48.5156C99.311 48.1758 99.1541 48.7188 99.3423 46.4805L99.7109 42.0977ZM93.5477 48.9766L91.8932 42.0977H86.4435L88.2744 49.6914L93.5477 48.9766ZM85.2713 50.0977L83.3384 42.0938H77.6339L79.7393 50.8477L85.2713 50.0977ZM76.74 51.2578L74.5406 42.0977H68.7028L71.4315 51.9805L76.74 51.2578Z" fill="#00723F"/>
</g>
<defs>
<clipPath id="clip0_705_1562">
<rect width="48" height="48" fill="white" transform="translate(56 23)"/>
</clipPath>
</defs>
</svg>
