<svg width="39" height="38" viewBox="0 0 39 38" fill="none" xmlns="http://www.w3.org/2000/svg">
<g filter="url(#filter0_d_943_664)">
<path d="M31.3639 -0.00646973C32.248 -0.00646973 33.0958 0.34472 33.721 0.969841C34.3461 1.59496 34.6973 2.44281 34.6973 3.32686V26.6602C34.6973 27.5443 34.3461 28.3921 33.721 29.0172C33.0958 29.6423 32.248 29.9935 31.3639 29.9935H8.0306C7.14654 29.9935 6.2987 29.6423 5.67358 29.0172C5.04845 28.3921 4.69727 27.5443 4.69727 26.6602V3.32686C4.69727 2.44281 5.04845 1.59496 5.67358 0.969841C6.2987 0.34472 7.14654 -0.00646973 8.0306 -0.00646973H31.3639ZM30.5306 25.8269V16.9935C30.5306 15.5525 29.9582 14.1705 28.9392 13.1516C27.9203 12.1326 26.5383 11.5602 25.0973 11.5602C23.6806 11.5602 22.0306 12.4269 21.2306 13.7269V11.8769H16.5806V25.8269H21.2306V17.6102C21.2306 16.3269 22.2639 15.2769 23.5473 15.2769C24.1661 15.2769 24.7596 15.5227 25.1972 15.9603C25.6348 16.3979 25.8806 16.9914 25.8806 17.6102V25.8269H30.5306ZM11.1639 9.2602C11.9065 9.2602 12.6187 8.9652 13.1438 8.4401C13.6689 7.91499 13.9639 7.2028 13.9639 6.4602C13.9639 4.9102 12.7139 3.64353 11.1639 3.64353C10.4169 3.64353 9.70048 3.94029 9.17225 4.46851C8.64402 4.99674 8.34727 5.71317 8.34727 6.4602C8.34727 8.0102 9.61393 9.2602 11.1639 9.2602ZM13.4806 25.8269V11.8769H8.86393V25.8269H13.4806Z" fill="#00723F"/>
</g>
<defs>
<filter id="filter0_d_943_664" x="0.697266" y="-0.00646973" width="38" height="38" filterUnits="userSpaceOnUse" color-interpolation-filters="sRGB">
<feFlood flood-opacity="0" result="BackgroundImageFix"/>
<feColorMatrix in="SourceAlpha" type="matrix" values="0 0 0 0 0 0 0 0 0 0 0 0 0 0 0 0 0 0 127 0" result="hardAlpha"/>
<feOffset dy="4"/>
<feGaussianBlur stdDeviation="2"/>
<feComposite in2="hardAlpha" operator="out"/>
<feColorMatrix type="matrix" values="0 0 0 0 0 0 0 0 0 0 0 0 0 0 0 0 0 0 0.25 0"/>
<feBlend mode="normal" in2="BackgroundImageFix" result="effect1_dropShadow_943_664"/>
<feBlend mode="normal" in="SourceGraphic" in2="effect1_dropShadow_943_664" result="shape"/>
</filter>
</defs>
</svg>
