<svg width="31" height="32" viewBox="0 0 31 32" fill="none" xmlns="http://www.w3.org/2000/svg">
<g clip-path="url(#clip0_213_1241)">
<path d="M15.6084 0.904541C23.942 0.904541 30.6973 7.65984 30.6973 15.9934C30.6973 24.327 23.942 31.0823 15.6084 31.0823C7.27483 31.0823 0.519531 24.327 0.519531 15.9934C0.519531 7.65984 7.27483 0.904541 15.6084 0.904541ZM22.3109 9.95787C21.736 9.96844 20.8533 10.2702 16.6088 12.013C13.6295 13.2568 10.6584 14.5202 7.69581 15.8033C6.97154 16.0885 6.59432 16.3661 6.55961 16.6377C6.49322 17.1598 7.2537 17.3213 8.21034 17.6291C8.99043 17.8795 10.0406 18.1723 10.5868 18.1843C11.0818 18.1949 11.634 17.9927 12.2436 17.5808C16.4081 14.8044 18.5553 13.4027 18.6911 13.3725C18.7861 13.3514 18.9174 13.3242 19.0079 13.4027C19.097 13.4811 19.0879 13.629 19.0774 13.6697C19.0019 13.9881 15.0924 17.4993 14.8676 17.7302L14.7589 17.8388C13.929 18.6581 13.0916 19.1938 14.5371 20.1338C15.8438 20.9833 16.6043 21.525 17.9472 22.3972C18.8073 22.9524 19.4817 23.6118 20.369 23.5318C20.7779 23.4941 21.1989 23.1154 21.4146 21.9837C21.9201 19.313 22.916 13.5219 23.1453 11.1348C23.1592 10.9368 23.1506 10.7379 23.1197 10.5418C23.101 10.3835 23.0235 10.2381 22.9024 10.1344C22.7198 9.98654 22.4361 9.95637 22.3109 9.95787Z" fill="#00723F"/>
</g>
<defs>
<clipPath id="clip0_213_1241">
<rect width="30.1778" height="30.1778" fill="white" transform="translate(0.519531 0.904541)"/>
</clipPath>
</defs>
</svg>
