<svg width="100" height="99" viewBox="0 0 100 99" fill="none" xmlns="http://www.w3.org/2000/svg">
<path fill-rule="evenodd" clip-rule="evenodd" d="M13.8604 53.2701L40.4604 0.0700684L45.5804 10.3101C40.3228 16.7597 37.4575 24.8291 37.4704 33.1501C37.472 34.7517 37.5756 36.3516 37.7803 37.9401C28.813 41.3018 20.6604 46.5267 13.8604 53.2701Z" fill="#00723F"/>
<path fill-rule="evenodd" clip-rule="evenodd" d="M59.8101 43.51C61.2447 45.435 63.0639 47.0407 65.1521 48.2252C67.2404 49.4097 69.5521 50.1471 71.9405 50.3907C74.3289 50.6342 76.7419 50.3786 79.0262 49.6399C81.3106 48.9013 83.4164 47.6958 85.2101 46.1L92.3901 60.44C88.7117 62.9577 84.5625 64.706 80.1916 65.5799C75.8206 66.4538 71.3182 66.4354 66.9545 65.5257C62.5909 64.616 58.4561 62.8338 54.7985 60.2861C51.1409 57.7384 48.036 54.4777 45.6701 50.7C50.0513 47.6919 54.8043 45.265 59.8101 43.48M73.7001 0.0399933C80.3727 0.0324322 86.8903 2.05153 92.3901 5.82999L85.2101 20.18C82.7138 17.9622 79.6299 16.5129 76.3294 16.0063C73.0289 15.4996 69.6523 15.9573 66.6057 17.3242C63.5592 18.6912 60.9724 20.9092 59.1566 23.7114C57.3407 26.5137 56.3731 29.7808 56.3701 33.12C56.3701 33.36 56.3701 33.59 56.3701 33.82C51.0877 34.2118 45.8691 35.2186 40.8201 36.82C40.2965 32.1906 40.756 27.5028 42.1688 23.0632C43.5815 18.6236 45.9155 14.5322 49.0181 11.0567C52.1208 7.58122 55.9222 4.79985 60.1737 2.89452C64.4253 0.9892 69.0311 0.00285669 73.69 0L73.7001 0.0399933Z" fill="#FDB813"/>
<path fill-rule="evenodd" clip-rule="evenodd" d="M61.5199 36.8101C64.6824 36.8112 67.8407 37.0418 70.9698 37.5001C61.9042 38.8422 53.2279 42.0982 45.5175 47.0517C37.8071 52.0052 31.2391 58.5428 26.2498 66.2301H7.33984C13.1989 57.195 21.2258 49.7698 30.6891 44.6312C40.1525 39.4925 50.7514 36.8038 61.5199 36.8101Z" fill="#00723F"/>
<path fill-rule="evenodd" clip-rule="evenodd" d="M58.8998 66.2301H30.0498C33.6726 61.0362 38.0782 56.435 43.1098 52.5901C46.9257 58.5795 52.4112 63.3211 58.8898 66.2301" fill="#00723F"/>
<path fill-rule="evenodd" clip-rule="evenodd" d="M38.1104 66.2301H30.1104C33.7149 61.0407 38.1001 56.4397 43.1104 52.5901C40.2844 56.6238 38.5608 61.3256 38.1104 66.2301Z" fill="#00582D"/>
<path fill-rule="evenodd" clip-rule="evenodd" d="M15.0098 66.2302H7.33984C14.6028 55.0658 25.1258 46.4072 37.4798 41.4302C32.2241 43.787 27.514 47.2075 23.6465 51.476C19.7791 55.7444 16.8383 60.7682 15.0098 66.2302Z" fill="#00582D"/>
<path d="M76.31 65.57H76.25C76.65 65.57 77.05 65.52 77.44 65.48C74.4104 65.1928 71.4297 64.5208 68.57 63.48C64.1948 61.7075 60.1407 59.2278 56.57 56.14C54.3102 54.0648 52.3212 51.7129 50.65 49.14C53.5481 46.7149 56.7317 44.6529 60.13 43C56.5515 44.2798 53.0999 45.8901 49.82 47.81C49.19 48.17 48.57 48.55 47.95 48.94L47.87 48.99C47.24 49.39 46.62 49.8 46 50.22C48.9739 54.9621 53.1029 58.8718 58.0001 61.5827C62.8973 64.2937 68.4025 65.7172 74 65.72C74.55 65.72 75.09 65.72 75.64 65.72H75.83L76.31 65.57Z" fill="#D09910"/>
<path d="M51.04 9.06006C47.292 12.586 44.4177 16.9372 42.6454 21.7682C40.873 26.5992 40.2514 31.7769 40.83 36.8901C42.18 36.4501 43.56 36.0601 44.94 35.7101C44.6309 33.7854 44.4738 31.8394 44.47 29.8901C44.4638 22.436 46.7582 15.1616 51.04 9.06006Z" fill="#D09910"/>
<path d="M1.47 96.25H3.75L2.63 93.25L1.47 96.25ZM2.35001 92.71H2.97L5.25 98.53H4.66L3.95 96.72H1.28999L0.589996 98.53H0L2.35001 92.71Z" fill="#00582D"/>
<path d="M9.5002 98.0602H10.6902C11.3484 98.1182 12.0027 97.9132 12.5102 97.4902C12.8886 96.94 13.0912 96.288 13.0912 95.6202C13.0912 94.9524 12.8886 94.3004 12.5102 93.7502C12.0027 93.3272 11.3484 93.1222 10.6902 93.1802H9.5002V98.0602ZM8.9502 92.7102H10.9502C11.3172 92.6819 11.686 92.7334 12.0313 92.8611C12.3765 92.9888 12.69 93.1898 12.9502 93.4502C13.3932 94.0871 13.6307 94.8444 13.6307 95.6202C13.6307 96.396 13.3932 97.1533 12.9502 97.7902C12.69 98.0506 12.3765 98.2516 12.0313 98.3793C11.686 98.507 11.3172 98.5585 10.9502 98.5302H8.9502V92.7102Z" fill="#00582D"/>
<path d="M18.2602 98.0602H19.4402C19.7722 98.1205 20.1139 98.0986 20.4355 97.9966C20.7572 97.8947 21.049 97.7156 21.2856 97.475C21.5222 97.2345 21.6964 96.9397 21.7931 96.6164C21.8898 96.2932 21.9059 95.9512 21.8402 95.6202C21.9029 94.9462 21.6981 94.2746 21.2702 93.7502C20.7596 93.3256 20.1016 93.1206 19.4402 93.1802H18.2602V98.0602ZM17.7002 92.7102H19.7002C20.0672 92.6819 20.436 92.7334 20.7813 92.8611C21.1265 92.9888 21.44 93.1898 21.7002 93.4502C22.1487 94.0849 22.3896 94.843 22.3896 95.6202C22.3896 96.3974 22.1487 97.1555 21.7002 97.7902C21.44 98.0506 21.1265 98.2516 20.7813 98.3793C20.436 98.507 20.0672 98.5585 19.7002 98.5302H17.7002V92.7102Z" fill="#00582D"/>
<path d="M27.06 92.71H26.5V98.54H27.06V92.71Z" fill="#00582D"/>
<path d="M31.6903 96.54C31.6661 96.7766 31.701 97.0155 31.7917 97.2354C31.8825 97.4553 32.0263 97.6492 32.2103 97.8C32.6206 98.0729 33.1081 98.2062 33.6003 98.18C33.9552 98.1673 34.3004 98.0603 34.6003 97.87C34.7529 97.7819 34.8795 97.655 34.9673 97.5022C35.0551 97.3495 35.101 97.1762 35.1003 97C35.1083 96.8668 35.0811 96.7338 35.0214 96.6144C34.9617 96.495 34.8717 96.3935 34.7603 96.32C34.4991 96.1442 34.2075 96.0187 33.9003 95.95L32.6003 95.63C32.2482 95.5584 31.9208 95.3964 31.6503 95.16C31.526 95.0407 31.4294 94.8955 31.3672 94.7349C31.305 94.5742 31.2787 94.4019 31.2903 94.23C31.2941 93.8114 31.4588 93.4104 31.7503 93.11C31.9554 92.9186 32.1986 92.7724 32.4639 92.6811C32.7292 92.5898 33.0108 92.5554 33.2903 92.58C33.8412 92.5643 34.381 92.7372 34.8203 93.07C35.0271 93.2292 35.1923 93.436 35.302 93.6727C35.4117 93.9095 35.4626 94.1693 35.4503 94.43H34.8903C34.8989 94.2387 34.8617 94.0481 34.7817 93.8741C34.7017 93.7002 34.5812 93.5479 34.4303 93.43C34.1051 93.1858 33.7068 93.0589 33.3003 93.07C32.9481 93.0635 32.6013 93.1571 32.3003 93.34C32.1613 93.4407 32.0506 93.5755 31.9788 93.7313C31.907 93.8872 31.8765 94.0589 31.8903 94.23C31.8842 94.3361 31.9016 94.4422 31.9414 94.5408C31.9812 94.6393 32.0422 94.7278 32.1203 94.8C32.3118 94.9516 32.5333 95.0607 32.7703 95.12L34.1903 95.47C34.5994 95.5581 34.9827 95.7395 35.3103 96C35.4449 96.1277 35.5497 96.2835 35.6171 96.4564C35.6845 96.6292 35.7129 96.8149 35.7003 97C35.6847 97.4112 35.5254 97.804 35.2503 98.11C35.0111 98.3251 34.7281 98.4858 34.4208 98.5807C34.1134 98.6757 33.7891 98.7027 33.4703 98.66C32.8599 98.6935 32.2574 98.5092 31.7703 98.14C31.556 97.9371 31.3894 97.6893 31.2822 97.4144C31.175 97.1395 31.1299 96.8443 31.1503 96.55L31.6903 96.54Z" fill="#00582D"/>
<path d="M46.0403 94.43C45.9566 94.0295 45.7289 93.6737 45.4003 93.43C45.0695 93.1807 44.6643 93.0504 44.2503 93.06C43.9364 93.0412 43.6227 93.0997 43.3368 93.2305C43.0508 93.3612 42.8013 93.5602 42.6103 93.81C42.2366 94.3382 42.0436 94.9731 42.0603 95.62C42.0436 96.2668 42.2366 96.9018 42.6103 97.43C42.8025 97.6784 43.0522 97.8765 43.3378 98.0071C43.6235 98.1378 43.9366 98.1971 44.2503 98.18C44.4903 98.186 44.729 98.142 44.9511 98.0507C45.1732 97.9595 45.3738 97.823 45.5403 97.65C45.8805 97.2863 46.0853 96.8167 46.1203 96.32H46.6803C46.6401 96.9617 46.3661 97.5665 45.9103 98.02C45.6901 98.2312 45.4297 98.3958 45.1444 98.504C44.8592 98.6123 44.5551 98.6619 44.2503 98.65C43.871 98.6646 43.4935 98.5919 43.1468 98.4376C42.8 98.2833 42.4933 98.0515 42.2503 97.76C41.783 97.1406 41.5303 96.3859 41.5303 95.61C41.5303 94.8341 41.783 94.0794 42.2503 93.46C42.4938 93.1697 42.8009 92.9394 43.1477 92.7868C43.4945 92.6342 43.8718 92.5635 44.2503 92.58C44.8086 92.5768 45.354 92.7481 45.8103 93.07C46.03 93.2277 46.2134 93.4307 46.348 93.6653C46.4825 93.8999 46.5652 94.1607 46.5903 94.43H46.0403Z" fill="#00582D"/>
<path d="M50.6895 92.71H51.2395V95.24H54.6995V92.71H55.2595V98.54H54.6995V95.71H51.2395V98.54H50.6895V92.71Z" fill="#00582D"/>
<path d="M60.4202 96.25H62.7102L61.5902 93.25L60.4202 96.25ZM61.3002 92.71H61.9202L64.2102 98.53H63.6102L62.9002 96.72H60.2502L59.5402 98.53H58.9502L61.3002 92.71Z" fill="#00582D"/>
<path d="M67.8896 92.71H68.6996L70.7197 97.82L72.7296 92.71H73.5396V98.54H72.9896V93.5L70.9796 98.54H70.4697L68.4596 93.49L68.4396 98.54H67.8896V92.71Z" fill="#00582D"/>
<path d="M78.4201 95.2601H80.3301C80.6845 95.2874 81.0376 95.1921 81.3301 94.9901C81.4376 94.9042 81.5234 94.7943 81.5807 94.6693C81.638 94.5443 81.6652 94.4075 81.6601 94.2701C81.6601 93.5401 81.2301 93.1801 80.3501 93.1801H78.4401L78.4201 95.2601ZM78.4201 98.0601H80.3301C80.7185 98.0799 81.1042 97.9861 81.4401 97.7901C81.5871 97.687 81.7037 97.5463 81.7776 97.3827C81.8516 97.219 81.88 97.0385 81.8601 96.8601C81.8665 96.6981 81.8334 96.5371 81.7637 96.3907C81.6941 96.2444 81.5899 96.1172 81.4601 96.0201C81.1232 95.8073 80.7279 95.7059 80.3301 95.7301H78.4201V98.0601ZM77.8701 92.7101H80.3301C80.8025 92.6875 81.2714 92.8021 81.6801 93.0401C81.8562 93.1588 81.9972 93.3225 82.0887 93.5142C82.1801 93.7059 82.2186 93.9185 82.2001 94.1301C82.2045 94.2831 82.1808 94.4356 82.1301 94.5801C82.0663 94.7535 81.9752 94.9155 81.8601 95.0601C81.6923 95.2663 81.4532 95.4019 81.1901 95.4401C81.5367 95.484 81.856 95.6508 82.0901 95.9101C82.319 96.1917 82.4364 96.5476 82.4201 96.9101C82.4222 97.3313 82.2732 97.7394 82.0001 98.0601C81.7731 98.257 81.5068 98.4035 81.2189 98.4897C80.931 98.5759 80.628 98.5999 80.3301 98.5601H77.8701V92.7101Z" fill="#00582D"/>
<path d="M86.4697 92.71H90.4997V93.18H87.0297V95.29H90.2797V95.76H87.0297V98.06H90.5397V98.54H86.4697V92.71Z" fill="#00582D"/>
<path d="M95.0305 95.47H97.1105C97.4321 95.4791 97.7456 95.3686 97.9905 95.16C98.1119 95.0617 98.2086 94.9363 98.2729 94.7939C98.3371 94.6515 98.3671 94.496 98.3605 94.34C98.3671 94.184 98.3421 94.0284 98.2871 93.8823C98.2321 93.7363 98.1482 93.6028 98.0405 93.49C97.7833 93.2683 97.4492 93.1569 97.1105 93.18H95.0305V95.47ZM94.4805 92.71H97.1105C97.5681 92.6863 98.0199 92.8204 98.3905 93.09C98.5553 93.2265 98.6856 93.4 98.7707 93.5963C98.8559 93.7927 98.8935 94.0063 98.8805 94.22C98.895 94.5759 98.7932 94.927 98.5905 95.22C98.3799 95.491 98.0777 95.6758 97.7405 95.74C97.8929 95.7502 98.0415 95.793 98.176 95.8654C98.3105 95.9379 98.428 96.0383 98.5205 96.16C98.6899 96.4324 98.7735 96.7494 98.7605 97.07C98.7613 97.364 98.778 97.6577 98.8105 97.95C98.8221 98.1705 98.8986 98.3828 99.0305 98.56H98.4205C98.3695 98.4552 98.3325 98.3443 98.3105 98.23C98.3105 98.13 98.3105 98.05 98.3105 97.98C98.3105 97.91 98.3105 97.81 98.3105 97.66C98.3619 97.1924 98.2564 96.721 98.0105 96.32C97.9012 96.2031 97.7674 96.1121 97.6187 96.0533C97.47 95.9945 97.3101 95.9694 97.1505 95.98H95.0405V98.56H94.4905L94.4805 92.71Z" fill="#00582D"/>
<path fill-rule="evenodd" clip-rule="evenodd" d="M73.28 80.19C73.28 78.93 73.28 77.38 72.14 76.62C71.8911 76.4564 71.6222 76.3253 71.34 76.23C71.0137 76.1319 70.6789 76.0649 70.34 76.03C70.06 76.03 69.77 75.98 69.48 75.97V80.19H73.28ZM63.54 80.19V75.96C63.0369 75.9787 62.5357 76.0321 62.04 76.12C59.96 76.47 59.28 78.3 59.44 80.19H63.54ZM15.17 76.09V80.18H19.51C19.5166 79.4551 19.4292 78.7324 19.25 78.03C19.1614 77.742 19.0299 77.4689 18.86 77.22C18.11 76.1 16.44 76.05 15.17 76.1V76.09ZM62.83 82.36H57.39L57.25 82.24V82.15C57.2 81.72 57.15 81.29 57.12 80.86C57.09 80.43 57.12 80.08 57.12 79.69C57.121 78.7686 57.3269 77.8589 57.723 77.027C58.1191 76.195 58.6953 75.4616 59.41 74.88C59.8707 74.568 60.3766 74.3286 60.91 74.17C61.4564 73.9997 62.0197 73.8891 62.59 73.84C63.18 73.79 63.77 73.76 64.36 73.76H68.77C69.341 73.7567 69.9118 73.7834 70.48 73.84C71.0284 73.8814 71.5712 73.9786 72.1 74.13C72.6029 74.2798 73.0813 74.5022 73.52 74.79C73.9714 75.0912 74.3588 75.4786 74.66 75.93C74.9923 76.4542 75.2387 77.0281 75.39 77.63C75.5762 78.4059 75.6635 79.2022 75.65 80C75.65 80.36 75.65 80.72 75.65 81.07C75.65 81.42 75.58 81.79 75.53 82.16V82.25L75.39 82.36H67.39L67.25 82.22V75.96H65.93V81.85V81.91L62.65 87.55L62.54 87.61H60.11L59.97 87.37L62.83 82.36ZM76.83 80.08C76.7116 78.3313 77.1796 76.5929 78.16 75.14C78.6602 74.5843 79.2803 74.1497 79.9733 73.8691C80.6663 73.5884 81.4141 73.469 82.16 73.52C82.8734 73.4723 83.5884 73.588 84.2504 73.8584C84.9123 74.1287 85.5039 74.5465 85.98 75.08C86.9158 76.4761 87.3624 78.143 87.25 79.82V87.44L87.11 87.58H85.11L84.97 87.44V79.95C85.0492 78.8034 84.7883 77.659 84.22 76.66C83.9689 76.3246 83.6379 76.0574 83.2572 75.8828C82.8764 75.7081 82.4579 75.6315 82.04 75.66C81.6343 75.6378 81.2295 75.7177 80.8626 75.8924C80.4957 76.0671 80.1785 76.331 79.94 76.66C79.3976 77.6209 79.1474 78.719 79.22 79.82V87.48L79.08 87.62H77.03L76.89 87.48L76.83 80.08ZM4.38 77.56H7.27L7.41 77.82L7.33 77.94C6.95 78.4867 6.58 79.0467 6.22 79.62C5.93 80.11 5.64 80.62 5.36 81.1H8.63L8.75999 81.2L10.36 87.44L10.22 87.62H8.22L8.09 87.52L7.00999 83.17H4.39C3.86998 84.1984 3.42872 85.2648 3.07001 86.36C2.96001 86.71 2.86 87.08 2.77 87.44V87.52L2.64 87.62H0.639999L0.5 87.44V87.32C0.765625 86.2987 1.09971 85.2964 1.5 84.32C2.13297 82.6957 2.91287 81.1325 3.83 79.65H1.97L1.83 79.51V77.79V77.72L4.53999 73.84L4.64999 73.79H6.73L6.87 74.05L4.38 77.56ZM19.7 85.62H13.83C13.7216 86.3145 13.5092 86.9887 13.2 87.62V87.7L13.03 87.77L11.17 87.01L11.1 86.81L11.11 86.7C11.5209 85.8096 11.69 84.8266 11.6 83.85V83.7L11.74 83.55H13.11C13.11 80.41 13.11 77.27 13.11 74.13V74.04L13.23 73.91H13.31C13.68 73.91 14.04 73.83 14.4 73.8C14.76 73.77 15.11 73.75 15.47 73.75C16.2678 73.7358 17.0642 73.8232 17.84 74.01C18.4425 74.1595 19.0167 74.406 19.54 74.74C19.9914 75.0412 20.3788 75.4286 20.68 75.88C20.9678 76.3187 21.1902 76.7971 21.34 77.3C21.4899 77.8296 21.5904 78.3719 21.64 78.92C21.69 79.53 21.71 80.17 21.71 80.78V82.21L21.57 82.35H15.42V83.57H21.5H21.6L21.74 83.71V85.49H24.11L24.25 85.64V85.75C24.1561 86.7364 24.3252 87.7301 24.74 88.63L24.79 88.72L24.72 88.92L22.86 89.67L22.68 89.61V89.53C22.3698 88.8992 22.1573 88.2248 22.05 87.53H19.89L19.75 87.39L19.7 85.62ZM28.9 76.02L27.53 74.02L27.66 73.76H30.04L30.14 73.82L31.48 75.82C32.1231 75.8462 32.7526 76.0129 33.3244 76.3083C33.8963 76.6037 34.3965 77.0207 34.79 77.53C35.6294 78.9005 36.0274 80.4958 35.93 82.1V87.49L35.79 87.63H33.74L33.6 87.49V82.22C33.6729 81.0752 33.4161 79.9334 32.86 78.93C32.6074 78.5938 32.2747 78.3262 31.8921 78.1516C31.5096 77.9769 31.0895 77.9007 30.67 77.93C30.2696 77.901 29.8682 77.9717 29.5017 78.1357C29.1352 78.2998 28.8151 78.552 28.57 78.87C28.0277 79.8308 27.7774 80.9291 27.85 82.03V87.47L27.71 87.61H25.66L25.52 87.47V82.33C25.4505 80.8317 25.7673 79.3406 26.44 78C26.9714 77.0434 27.8591 76.3353 28.91 76.03L28.9 76.02ZM95.84 75.96L91.84 76.04C91.5587 76.0426 91.2896 76.1548 91.0897 76.3527C90.8899 76.5507 90.7752 76.8188 90.77 77.1V84.27C90.77 84.5521 90.8813 84.8227 91.0798 85.0231C91.2784 85.2235 91.548 85.3374 91.83 85.34H97.83L97.97 85.48V85.58C97.9867 86.2258 98.0638 86.8686 98.2 87.5C98.28 87.9017 98.4111 88.2916 98.59 88.66V88.75L98.51 88.95L96.66 89.7L96.48 89.64V89.56C96.3092 89.2197 96.1687 88.865 96.06 88.5C95.978 88.207 95.9113 87.9099 95.86 87.61C94.52 87.61 93.19 87.61 91.86 87.61C90.9775 87.6021 90.1336 87.2474 89.5105 86.6225C88.8874 85.9975 88.5352 85.1525 88.53 84.27V77.1C88.5326 76.2167 88.884 75.3702 89.5076 74.7447C90.1313 74.1192 90.9767 73.7653 91.86 73.76H97.92L98.07 73.91V74.02C98.0435 74.623 98.0872 75.2271 98.2 75.82C98.2798 76.2346 98.4108 76.6377 98.59 77.02L98.64 77.11L98.56 77.3L96.71 78.08L96.53 78.01V77.93C96.3507 77.5901 96.2098 77.2312 96.11 76.86C95.97 76.57 95.9 76.27 95.85 75.97L95.84 75.96ZM53.11 75.82H50.5V80.2H55.71L55.85 80.34V82.24L55.71 82.38H50.51V87.5L50.37 87.64H45.59C45.54 87.81 45.49 88.02 45.45 88.17C45.41 88.32 45.36 88.49 45.31 88.65C45.2016 88.9701 45.0678 89.2811 44.91 89.58V89.67L44.73 89.73L42.87 88.98L42.8 88.78V88.69C43.2425 87.7857 43.4846 86.7965 43.51 85.79V85.7L43.66 85.56H48.16V82.38H42.99L42.85 82.24V80.34L42.99 80.2H48.11V75.82H45.51C45.4591 76.1307 45.3889 76.438 45.3 76.74C45.1984 77.1041 45.0575 77.4562 44.88 77.79V77.87L44.71 77.94L42.85 77.18L42.78 76.99V76.89C42.9695 76.5251 43.1043 76.1342 43.18 75.73C43.26 75.3148 43.3002 74.8929 43.3 74.47C43.3 74.32 43.3 74.17 43.3 74.03V73.92L43.44 73.77H55.2L55.34 73.92V74.03C55.34 74.17 55.34 74.32 55.34 74.47C55.3398 74.8929 55.38 75.3148 55.46 75.73C55.5369 76.1325 55.6681 76.5228 55.85 76.89L55.9 76.99L55.83 77.18L53.97 77.94L53.8 77.87L53.75 77.79C53.5799 77.454 53.4426 77.1024 53.34 76.74C53.2443 76.4384 53.1675 76.1311 53.11 75.82Z" fill="#00582D"/>
</svg>
