<svg width="120" height="158" viewBox="0 0 120 158" fill="none" xmlns="http://www.w3.org/2000/svg">
<g filter="url(#filter0_d_670_511)">
<rect x="13" width="94" height="94" rx="16" fill="#E5EAE8"/>
</g>
<path d="M36.4297 114.875H33.9375V113.242H36.4297C36.8047 113.242 37.112 113.188 37.3516 113.078C37.5911 112.969 37.7682 112.82 37.8828 112.633C37.9974 112.44 38.0547 112.224 38.0547 111.984C38.0547 111.724 37.9974 111.484 37.8828 111.266C37.7682 111.047 37.5911 110.87 37.3516 110.734C37.112 110.599 36.8047 110.531 36.4297 110.531H34.6797V118H32.6094V108.898H36.4297C37.2005 108.898 37.8594 109.031 38.4062 109.297C38.9583 109.562 39.3802 109.927 39.6719 110.391C39.9688 110.849 40.1172 111.375 40.1172 111.969C40.1172 112.406 40.0339 112.805 39.8672 113.164C39.7005 113.518 39.4583 113.823 39.1406 114.078C38.8229 114.333 38.4349 114.531 37.9766 114.672C37.5234 114.807 37.0078 114.875 36.4297 114.875ZM43.7109 108.898V118H41.6406V108.898H43.7109ZM53.6328 113.25V113.656C53.6328 114.349 53.5312 114.971 53.3281 115.523C53.1302 116.07 52.8464 116.539 52.4766 116.93C52.1068 117.315 51.6667 117.612 51.1562 117.82C50.6458 118.023 50.0807 118.125 49.4609 118.125C48.8411 118.125 48.276 118.023 47.7656 117.82C47.2552 117.612 46.8125 117.315 46.4375 116.93C46.0625 116.539 45.7734 116.07 45.5703 115.523C45.3672 114.971 45.2656 114.349 45.2656 113.656V113.25C45.2656 112.557 45.3672 111.938 45.5703 111.391C45.7734 110.839 46.0599 110.367 46.4297 109.977C46.7995 109.586 47.2396 109.289 47.75 109.086C48.2604 108.878 48.8255 108.773 49.4453 108.773C50.0651 108.773 50.6302 108.878 51.1406 109.086C51.651 109.289 52.0911 109.586 52.4609 109.977C52.8359 110.367 53.125 110.839 53.3281 111.391C53.5312 111.938 53.6328 112.557 53.6328 113.25ZM51.5625 113.656V113.234C51.5625 112.781 51.513 112.38 51.4141 112.031C51.3203 111.677 51.1823 111.38 51 111.141C50.8229 110.901 50.6016 110.719 50.3359 110.594C50.0755 110.464 49.7786 110.398 49.4453 110.398C49.112 110.398 48.8125 110.464 48.5469 110.594C48.2865 110.719 48.0651 110.901 47.8828 111.141C47.7057 111.38 47.5703 111.677 47.4766 112.031C47.3828 112.38 47.3359 112.781 47.3359 113.234V113.656C47.3359 114.109 47.3828 114.513 47.4766 114.867C47.5703 115.216 47.7083 115.513 47.8906 115.758C48.0781 116.003 48.3021 116.19 48.5625 116.32C48.8281 116.445 49.1276 116.508 49.4609 116.508C49.7943 116.508 50.0911 116.445 50.3516 116.32C50.612 116.19 50.8307 116.003 51.0078 115.758C51.1901 115.513 51.3281 115.216 51.4219 114.867C51.5156 114.513 51.5625 114.109 51.5625 113.656ZM63.0391 108.898V118H60.9688L57.1172 111.961V118H55.0469V108.898H57.1172L60.9688 114.938V108.898H63.0391ZM71.3438 116.375V118H66.125V116.375H71.3438ZM66.8203 108.898V118H64.75V108.898H66.8203ZM70.6719 112.484V114.109H66.125V112.484H70.6719ZM71.3438 108.898V110.531H66.125V108.898H71.3438ZM79.0781 116.375V118H73.8594V116.375H79.0781ZM74.5547 108.898V118H72.4844V108.898H74.5547ZM78.4062 112.484V114.109H73.8594V112.484H78.4062ZM79.0781 108.898V110.531H73.8594V108.898H79.0781ZM80.2109 108.898H83.9062C84.4635 108.898 84.9661 108.958 85.4141 109.078C85.8672 109.193 86.25 109.367 86.5625 109.602C86.8802 109.831 87.1224 110.117 87.2891 110.461C87.4557 110.799 87.5391 111.193 87.5391 111.641C87.5391 112.151 87.4505 112.583 87.2734 112.938C87.0964 113.292 86.849 113.583 86.5312 113.812C86.2135 114.036 85.8411 114.221 85.4141 114.367L84.7422 114.75H81.5469L81.5312 113.117H83.9297C84.2682 113.117 84.5521 113.065 84.7812 112.961C85.0104 112.857 85.1823 112.708 85.2969 112.516C85.4115 112.323 85.4688 112.096 85.4688 111.836C85.4688 111.565 85.4089 111.333 85.2891 111.141C85.1745 110.943 85 110.792 84.7656 110.688C84.5365 110.583 84.25 110.531 83.9062 110.531H82.2891V118H80.2109V108.898ZM85.6719 118L83.4531 113.977L85.6406 113.961L87.8984 117.906V118H85.6719ZM23.4844 136H21.3438L21.3516 134.375H23.4844C24.0521 134.375 24.513 134.273 24.8672 134.07C25.2214 133.862 25.4792 133.555 25.6406 133.148C25.8073 132.742 25.8906 132.245 25.8906 131.656V131.234C25.8906 130.797 25.8438 130.409 25.75 130.07C25.6615 129.732 25.5208 129.451 25.3281 129.227C25.1354 128.997 24.8854 128.826 24.5781 128.711C24.276 128.591 23.9115 128.531 23.4844 128.531H21.2969V126.898H23.4844C24.1458 126.898 24.75 127.005 25.2969 127.219C25.8438 127.427 26.3151 127.724 26.7109 128.109C27.112 128.495 27.4219 128.953 27.6406 129.484C27.8594 130.016 27.9688 130.604 27.9688 131.25V131.656C27.9688 132.51 27.776 133.266 27.3906 133.922C27.0104 134.573 26.4844 135.083 25.8125 135.453C25.1406 135.818 24.3646 136 23.4844 136ZM22.5156 126.898V136H20.4453V126.898H22.5156ZM31.5938 126.898V136H29.5234V126.898H31.5938ZM37.2891 129.016L34.7109 136H32.6172L36.25 126.898H37.6562L37.2891 129.016ZM39.7422 136L37.1328 129.008L36.7656 126.898H38.1875L41.8281 136H39.7422ZM39.6562 132.617V134.125H34.5391V132.617H39.6562ZM50.3984 131.172V134.875C50.2422 135.047 50.0026 135.232 49.6797 135.43C49.362 135.622 48.9505 135.786 48.4453 135.922C47.9401 136.057 47.3307 136.125 46.6172 136.125C45.987 136.125 45.4115 136.029 44.8906 135.836C44.3698 135.643 43.9219 135.359 43.5469 134.984C43.1719 134.604 42.8828 134.141 42.6797 133.594C42.4766 133.047 42.375 132.422 42.375 131.719V131.18C42.375 130.477 42.474 129.854 42.6719 129.312C42.8698 128.766 43.151 128.302 43.5156 127.922C43.8802 127.542 44.3125 127.255 44.8125 127.062C45.3177 126.865 45.875 126.766 46.4844 126.766C47.349 126.766 48.0547 126.898 48.6016 127.164C49.1536 127.424 49.5729 127.786 49.8594 128.25C50.1458 128.714 50.3229 129.245 50.3906 129.844H48.3906C48.3438 129.542 48.25 129.284 48.1094 129.07C47.974 128.852 47.7786 128.685 47.5234 128.57C47.2734 128.456 46.9479 128.398 46.5469 128.398C46.224 128.398 45.9323 128.456 45.6719 128.57C45.4115 128.685 45.1901 128.859 45.0078 129.094C44.8255 129.323 44.6875 129.609 44.5938 129.953C44.5 130.297 44.4531 130.701 44.4531 131.164V131.719C44.4531 132.177 44.5 132.581 44.5938 132.93C44.6927 133.279 44.8385 133.57 45.0312 133.805C45.224 134.034 45.4635 134.208 45.75 134.328C46.0417 134.448 46.375 134.508 46.75 134.508C47.2031 134.508 47.5521 134.461 47.7969 134.367C48.0417 134.268 48.2161 134.18 48.3203 134.102V132.625H46.4609V131.172H50.3984ZM59.8906 126.898V136H57.8203L53.9688 129.961V136H51.8984V126.898H53.9688L57.8203 132.938V126.898H59.8906ZM69.6719 131.25V131.656C69.6719 132.349 69.5703 132.971 69.3672 133.523C69.1693 134.07 68.8854 134.539 68.5156 134.93C68.1458 135.315 67.7057 135.612 67.1953 135.82C66.6849 136.023 66.1198 136.125 65.5 136.125C64.8802 136.125 64.3151 136.023 63.8047 135.82C63.2943 135.612 62.8516 135.315 62.4766 134.93C62.1016 134.539 61.8125 134.07 61.6094 133.523C61.4062 132.971 61.3047 132.349 61.3047 131.656V131.25C61.3047 130.557 61.4062 129.938 61.6094 129.391C61.8125 128.839 62.099 128.367 62.4688 127.977C62.8385 127.586 63.2786 127.289 63.7891 127.086C64.2995 126.878 64.8646 126.773 65.4844 126.773C66.1042 126.773 66.6693 126.878 67.1797 127.086C67.6901 127.289 68.1302 127.586 68.5 127.977C68.875 128.367 69.1641 128.839 69.3672 129.391C69.5703 129.938 69.6719 130.557 69.6719 131.25ZM67.6016 131.656V131.234C67.6016 130.781 67.5521 130.38 67.4531 130.031C67.3594 129.677 67.2214 129.38 67.0391 129.141C66.862 128.901 66.6406 128.719 66.375 128.594C66.1146 128.464 65.8177 128.398 65.4844 128.398C65.151 128.398 64.8516 128.464 64.5859 128.594C64.3255 128.719 64.1042 128.901 63.9219 129.141C63.7448 129.38 63.6094 129.677 63.5156 130.031C63.4219 130.38 63.375 130.781 63.375 131.234V131.656C63.375 132.109 63.4219 132.513 63.5156 132.867C63.6094 133.216 63.7474 133.513 63.9297 133.758C64.1172 134.003 64.3411 134.19 64.6016 134.32C64.8672 134.445 65.1667 134.508 65.5 134.508C65.8333 134.508 66.1302 134.445 66.3906 134.32C66.651 134.19 66.8698 134.003 67.0469 133.758C67.2292 133.513 67.3672 133.216 67.4609 132.867C67.5547 132.513 67.6016 132.109 67.6016 131.656ZM76.1875 133.594C76.1875 133.432 76.1562 133.286 76.0938 133.156C76.0365 133.026 75.9401 132.909 75.8047 132.805C75.6693 132.701 75.4818 132.602 75.2422 132.508C75.0078 132.414 74.7135 132.326 74.3594 132.242C73.8021 132.107 73.3151 131.958 72.8984 131.797C72.4818 131.635 72.1328 131.445 71.8516 131.227C71.5755 131.008 71.3672 130.75 71.2266 130.453C71.0911 130.151 71.0234 129.799 71.0234 129.398C71.0234 129.013 71.1068 128.661 71.2734 128.344C71.4453 128.021 71.6849 127.742 71.9922 127.508C72.3047 127.273 72.6719 127.094 73.0938 126.969C73.5208 126.839 73.987 126.773 74.4922 126.773C75.2266 126.773 75.8698 126.891 76.4219 127.125C76.9792 127.359 77.4115 127.688 77.7188 128.109C78.026 128.526 78.1797 129.021 78.1797 129.594H76.1094C76.1094 129.354 76.0469 129.138 75.9219 128.945C75.8021 128.747 75.6224 128.589 75.3828 128.469C75.1432 128.349 74.8464 128.289 74.4922 128.289C74.1536 128.289 73.8724 128.341 73.6484 128.445C73.4297 128.544 73.2656 128.674 73.1562 128.836C73.0521 128.992 73 129.159 73 129.336C73 129.482 73.0312 129.615 73.0938 129.734C73.1615 129.849 73.2656 129.956 73.4062 130.055C73.5521 130.148 73.7422 130.24 73.9766 130.328C74.2109 130.411 74.4948 130.497 74.8281 130.586C75.3802 130.711 75.8646 130.859 76.2812 131.031C76.7031 131.198 77.0521 131.398 77.3281 131.633C77.6094 131.867 77.8203 132.141 77.9609 132.453C78.1016 132.766 78.1719 133.128 78.1719 133.539C78.1719 133.945 78.0885 134.31 77.9219 134.633C77.7552 134.951 77.513 135.221 77.1953 135.445C76.8828 135.664 76.5078 135.833 76.0703 135.953C75.638 136.068 75.1536 136.125 74.6172 136.125C74.138 136.125 73.6667 136.068 73.2031 135.953C72.7396 135.839 72.3203 135.661 71.9453 135.422C71.5703 135.177 71.2708 134.867 71.0469 134.492C70.8229 134.117 70.7109 133.669 70.7109 133.148H72.7891C72.7891 133.409 72.8307 133.633 72.9141 133.82C73.0026 134.008 73.1276 134.161 73.2891 134.281C73.4557 134.396 73.6589 134.482 73.8984 134.539C74.138 134.591 74.4089 134.617 74.7109 134.617C75.0651 134.617 75.3516 134.568 75.5703 134.469C75.7891 134.37 75.9453 134.242 76.0391 134.086C76.138 133.93 76.1875 133.766 76.1875 133.594ZM84.0391 126.898V136H81.9688V126.898H84.0391ZM87.0391 126.898V128.531H79.0234V126.898H87.0391ZM90.3906 126.898V136H88.3203V126.898H90.3906ZM97.8906 132.93H99.9688C99.9219 133.565 99.737 134.122 99.4141 134.602C99.0911 135.081 98.6406 135.456 98.0625 135.727C97.4896 135.992 96.8047 136.125 96.0078 136.125C95.3724 136.125 94.8047 136.023 94.3047 135.82C93.8047 135.617 93.3776 135.326 93.0234 134.945C92.6745 134.56 92.4062 134.096 92.2188 133.555C92.0365 133.013 91.9453 132.401 91.9453 131.719V131.188C91.9453 130.505 92.0417 129.893 92.2344 129.352C92.4271 128.805 92.7005 128.341 93.0547 127.961C93.4089 127.576 93.8333 127.281 94.3281 127.078C94.8281 126.87 95.388 126.766 96.0078 126.766C96.8307 126.766 97.5234 126.906 98.0859 127.188C98.6536 127.469 99.0938 127.857 99.4062 128.352C99.724 128.841 99.9141 129.398 99.9766 130.023H97.9062C97.8802 129.711 97.8021 129.432 97.6719 129.188C97.5417 128.943 97.3411 128.75 97.0703 128.609C96.8047 128.469 96.4505 128.398 96.0078 128.398C95.6797 128.398 95.3906 128.458 95.1406 128.578C94.8906 128.693 94.6823 128.867 94.5156 129.102C94.349 129.331 94.224 129.62 94.1406 129.969C94.0573 130.312 94.0156 130.716 94.0156 131.18V131.719C94.0156 132.177 94.0521 132.581 94.125 132.93C94.2031 133.273 94.3229 133.562 94.4844 133.797C94.6458 134.031 94.8516 134.208 95.1016 134.328C95.3568 134.448 95.6589 134.508 96.0078 134.508C96.4193 134.508 96.7578 134.451 97.0234 134.336C97.2891 134.221 97.4922 134.047 97.6328 133.812C97.7786 133.573 97.8646 133.279 97.8906 132.93ZM26.0859 150.93H28.1641C28.1172 151.565 27.9323 152.122 27.6094 152.602C27.2865 153.081 26.8359 153.456 26.2578 153.727C25.6849 153.992 25 154.125 24.2031 154.125C23.5677 154.125 23 154.023 22.5 153.82C22 153.617 21.5729 153.326 21.2188 152.945C20.8698 152.56 20.6016 152.096 20.4141 151.555C20.2318 151.013 20.1406 150.401 20.1406 149.719V149.188C20.1406 148.505 20.237 147.893 20.4297 147.352C20.6224 146.805 20.8958 146.341 21.25 145.961C21.6042 145.576 22.0286 145.281 22.5234 145.078C23.0234 144.87 23.5833 144.766 24.2031 144.766C25.026 144.766 25.7188 144.906 26.2812 145.188C26.849 145.469 27.2891 145.857 27.6016 146.352C27.9193 146.841 28.1094 147.398 28.1719 148.023H26.1016C26.0755 147.711 25.9974 147.432 25.8672 147.188C25.737 146.943 25.5365 146.75 25.2656 146.609C25 146.469 24.6458 146.398 24.2031 146.398C23.875 146.398 23.5859 146.458 23.3359 146.578C23.0859 146.693 22.8776 146.867 22.7109 147.102C22.5443 147.331 22.4193 147.62 22.3359 147.969C22.2526 148.312 22.2109 148.716 22.2109 149.18V149.719C22.2109 150.177 22.2474 150.581 22.3203 150.93C22.3984 151.273 22.5182 151.562 22.6797 151.797C22.8411 152.031 23.0469 152.208 23.2969 152.328C23.5521 152.448 23.8542 152.508 24.2031 152.508C24.6146 152.508 24.9531 152.451 25.2188 152.336C25.4844 152.221 25.6875 152.047 25.8281 151.812C25.974 151.573 26.0599 151.279 26.0859 150.93ZM36.0469 152.375V154H30.8281V152.375H36.0469ZM31.5234 144.898V154H29.4531V144.898H31.5234ZM35.375 148.484V150.109H30.8281V148.484H35.375ZM36.0469 144.898V146.531H30.8281V144.898H36.0469ZM45.1797 144.898V154H43.1094L39.2578 147.961V154H37.1875V144.898H39.2578L43.1094 150.938V144.898H45.1797ZM51.3281 144.898V154H49.2578V144.898H51.3281ZM54.3281 144.898V146.531H46.3125V144.898H54.3281ZM62.0625 152.375V154H56.8438V152.375H62.0625ZM57.5391 144.898V154H55.4688V144.898H57.5391ZM61.3906 148.484V150.109H56.8438V148.484H61.3906ZM62.0625 144.898V146.531H56.8438V144.898H62.0625ZM63.1953 144.898H66.8906C67.4479 144.898 67.9505 144.958 68.3984 145.078C68.8516 145.193 69.2344 145.367 69.5469 145.602C69.8646 145.831 70.1068 146.117 70.2734 146.461C70.4401 146.799 70.5234 147.193 70.5234 147.641C70.5234 148.151 70.4349 148.583 70.2578 148.938C70.0807 149.292 69.8333 149.583 69.5156 149.812C69.1979 150.036 68.8255 150.221 68.3984 150.367L67.7266 150.75H64.5312L64.5156 149.117H66.9141C67.2526 149.117 67.5365 149.065 67.7656 148.961C67.9948 148.857 68.1667 148.708 68.2812 148.516C68.3958 148.323 68.4531 148.096 68.4531 147.836C68.4531 147.565 68.3932 147.333 68.2734 147.141C68.1589 146.943 67.9844 146.792 67.75 146.688C67.5208 146.583 67.2344 146.531 66.8906 146.531H65.2734V154H63.1953V144.898ZM68.6562 154L66.4375 149.977L68.625 149.961L70.8828 153.906V154H68.6562ZM79.8828 150.875H77.3906V149.242H79.8828C80.2578 149.242 80.5651 149.188 80.8047 149.078C81.0443 148.969 81.2214 148.82 81.3359 148.633C81.4505 148.44 81.5078 148.224 81.5078 147.984C81.5078 147.724 81.4505 147.484 81.3359 147.266C81.2214 147.047 81.0443 146.87 80.8047 146.734C80.5651 146.599 80.2578 146.531 79.8828 146.531H78.1328V154H76.0625V144.898H79.8828C80.6536 144.898 81.3125 145.031 81.8594 145.297C82.4115 145.562 82.8333 145.927 83.125 146.391C83.4219 146.849 83.5703 147.375 83.5703 147.969C83.5703 148.406 83.487 148.805 83.3203 149.164C83.1536 149.518 82.9115 149.823 82.5938 150.078C82.276 150.333 81.888 150.531 81.4297 150.672C80.9766 150.807 80.4609 150.875 79.8828 150.875ZM91.2656 152.375V154H86.3281V152.375H91.2656ZM87.0234 144.898V154H84.9531V144.898H87.0234ZM97.8984 150.93H99.9766C99.9297 151.565 99.7448 152.122 99.4219 152.602C99.099 153.081 98.6484 153.456 98.0703 153.727C97.4974 153.992 96.8125 154.125 96.0156 154.125C95.3802 154.125 94.8125 154.023 94.3125 153.82C93.8125 153.617 93.3854 153.326 93.0312 152.945C92.6823 152.56 92.4141 152.096 92.2266 151.555C92.0443 151.013 91.9531 150.401 91.9531 149.719V149.188C91.9531 148.505 92.0495 147.893 92.2422 147.352C92.4349 146.805 92.7083 146.341 93.0625 145.961C93.4167 145.576 93.8411 145.281 94.3359 145.078C94.8359 144.87 95.3958 144.766 96.0156 144.766C96.8385 144.766 97.5312 144.906 98.0938 145.188C98.6615 145.469 99.1016 145.857 99.4141 146.352C99.7318 146.841 99.9219 147.398 99.9844 148.023H97.9141C97.888 147.711 97.8099 147.432 97.6797 147.188C97.5495 146.943 97.349 146.75 97.0781 146.609C96.8125 146.469 96.4583 146.398 96.0156 146.398C95.6875 146.398 95.3984 146.458 95.1484 146.578C94.8984 146.693 94.6901 146.867 94.5234 147.102C94.3568 147.331 94.2318 147.62 94.1484 147.969C94.0651 148.312 94.0234 148.716 94.0234 149.18V149.719C94.0234 150.177 94.0599 150.581 94.1328 150.93C94.2109 151.273 94.3307 151.562 94.4922 151.797C94.6536 152.031 94.8594 152.208 95.1094 152.328C95.3646 152.448 95.6667 152.508 96.0156 152.508C96.4271 152.508 96.7656 152.451 97.0312 152.336C97.2969 152.221 97.5 152.047 97.6406 151.812C97.7865 151.573 97.8724 151.279 97.8984 150.93Z" fill="#002E19"/>
<path fill-rule="evenodd" clip-rule="evenodd" d="M35.3811 39.7119L59.9994 21L84.7437 39.7119H35.3811ZM34.21 67.0171H38.0213V64.1691H38.5754V62.8104H40.1914V46.5101H36.888V42.6048H83.1067V46.5101H79.8075V62.8104H81.4235V64.1691H81.9776V67.0171H85.7889V70H34.21V67.0171ZM47.8896 64.1691H49.7533V62.8104H51.3694V46.5101H46.2736V62.8104H47.8896V64.1691ZM59.0676 64.1691H60.9355V62.8104H62.5473V46.5101H57.4515V62.8104H59.0676V64.1691ZM70.2455 64.1691H72.1134V62.8104H73.7295V46.5101H68.6295V62.8104H70.2455V64.1691ZM51.7094 34.9923L60.0372 28.1446L68.4112 34.9923H51.7094Z" fill="#00723F"/>
<defs>
<filter id="filter0_d_670_511" x="9" y="0" width="102" height="102" filterUnits="userSpaceOnUse" color-interpolation-filters="sRGB">
<feFlood flood-opacity="0" result="BackgroundImageFix"/>
<feColorMatrix in="SourceAlpha" type="matrix" values="0 0 0 0 0 0 0 0 0 0 0 0 0 0 0 0 0 0 127 0" result="hardAlpha"/>
<feOffset dy="4"/>
<feGaussianBlur stdDeviation="2"/>
<feComposite in2="hardAlpha" operator="out"/>
<feColorMatrix type="matrix" values="0 0 0 0 0 0 0 0 0 0 0 0 0 0 0 0 0 0 0.05 0"/>
<feBlend mode="normal" in2="BackgroundImageFix" result="effect1_dropShadow_670_511"/>
<feBlend mode="normal" in="SourceGraphic" in2="effect1_dropShadow_670_511" result="shape"/>
</filter>
</defs>
</svg>
