<svg width="138" height="176" viewBox="0 0 138 176" fill="none" xmlns="http://www.w3.org/2000/svg">
<rect x="22" width="94" height="94" rx="16" fill="#E5EAE8"/>
<path d="M4.42969 108.898H6.17188L8.625 115.328L11.0703 108.898H12.8125L9.32031 118H7.92969L4.42969 108.898ZM3.46094 108.898H5.21094L5.53125 115.766V118H3.46094V108.898ZM12.0469 108.898H13.8047V118H11.7266V115.766L12.0469 108.898ZM19.3516 111.016L16.7734 118H14.6797L18.3125 108.898H19.7188L19.3516 111.016ZM21.8047 118L19.1953 111.008L18.8281 108.898H20.25L23.8906 118H21.8047ZM21.7188 114.617V116.125H16.6016V114.617H21.7188ZM27.2109 113.898L29.6875 108.898H31.9375L28.5859 115H27.4453L27.2109 113.898ZM25.6719 108.898L28.1641 113.945L27.9062 115H26.7734L23.4219 108.898H25.6719ZM28.6875 113.727V118H26.6172V113.727H28.6875ZM40.8125 108.898V118H38.7422L34.8906 111.961V118H32.8203V108.898H34.8906L38.7422 114.938V108.898H40.8125ZM46.3672 111.016L43.7891 118H41.6953L45.3281 108.898H46.7344L46.3672 111.016ZM48.8203 118L46.2109 111.008L45.8438 108.898H47.2656L50.9062 118H48.8203ZM48.7344 114.617V116.125H43.6172V114.617H48.7344ZM59.5938 114.875H57.1016V113.242H59.5938C59.9688 113.242 60.276 113.188 60.5156 113.078C60.7552 112.969 60.9323 112.82 61.0469 112.633C61.1615 112.44 61.2188 112.224 61.2188 111.984C61.2188 111.724 61.1615 111.484 61.0469 111.266C60.9323 111.047 60.7552 110.87 60.5156 110.734C60.276 110.599 59.9688 110.531 59.5938 110.531H57.8438V118H55.7734V108.898H59.5938C60.3646 108.898 61.0234 109.031 61.5703 109.297C62.1224 109.562 62.5443 109.927 62.8359 110.391C63.1328 110.849 63.2812 111.375 63.2812 111.969C63.2812 112.406 63.1979 112.805 63.0312 113.164C62.8646 113.518 62.6224 113.823 62.3047 114.078C61.987 114.333 61.599 114.531 61.1406 114.672C60.6875 114.807 60.1719 114.875 59.5938 114.875ZM64.6562 108.898H68.3516C68.9089 108.898 69.4115 108.958 69.8594 109.078C70.3125 109.193 70.6953 109.367 71.0078 109.602C71.3255 109.831 71.5677 110.117 71.7344 110.461C71.901 110.799 71.9844 111.193 71.9844 111.641C71.9844 112.151 71.8958 112.583 71.7188 112.938C71.5417 113.292 71.2943 113.583 70.9766 113.812C70.6589 114.036 70.2865 114.221 69.8594 114.367L69.1875 114.75H65.9922L65.9766 113.117H68.375C68.7135 113.117 68.9974 113.065 69.2266 112.961C69.4557 112.857 69.6276 112.708 69.7422 112.516C69.8568 112.323 69.9141 112.096 69.9141 111.836C69.9141 111.565 69.8542 111.333 69.7344 111.141C69.6198 110.943 69.4453 110.792 69.2109 110.688C68.9818 110.583 68.6953 110.531 68.3516 110.531H66.7344V118H64.6562V108.898ZM70.1172 118L67.8984 113.977L70.0859 113.961L72.3438 117.906V118H70.1172ZM81.6094 113.25V113.656C81.6094 114.349 81.5078 114.971 81.3047 115.523C81.1068 116.07 80.8229 116.539 80.4531 116.93C80.0833 117.315 79.6432 117.612 79.1328 117.82C78.6224 118.023 78.0573 118.125 77.4375 118.125C76.8177 118.125 76.2526 118.023 75.7422 117.82C75.2318 117.612 74.7891 117.315 74.4141 116.93C74.0391 116.539 73.75 116.07 73.5469 115.523C73.3438 114.971 73.2422 114.349 73.2422 113.656V113.25C73.2422 112.557 73.3438 111.938 73.5469 111.391C73.75 110.839 74.0365 110.367 74.4062 109.977C74.776 109.586 75.2161 109.289 75.7266 109.086C76.237 108.878 76.8021 108.773 77.4219 108.773C78.0417 108.773 78.6068 108.878 79.1172 109.086C79.6276 109.289 80.0677 109.586 80.4375 109.977C80.8125 110.367 81.1016 110.839 81.3047 111.391C81.5078 111.938 81.6094 112.557 81.6094 113.25ZM79.5391 113.656V113.234C79.5391 112.781 79.4896 112.38 79.3906 112.031C79.2969 111.677 79.1589 111.38 78.9766 111.141C78.7995 110.901 78.5781 110.719 78.3125 110.594C78.0521 110.464 77.7552 110.398 77.4219 110.398C77.0885 110.398 76.7891 110.464 76.5234 110.594C76.263 110.719 76.0417 110.901 75.8594 111.141C75.6823 111.38 75.5469 111.677 75.4531 112.031C75.3594 112.38 75.3125 112.781 75.3125 113.234V113.656C75.3125 114.109 75.3594 114.513 75.4531 114.867C75.5469 115.216 75.6849 115.513 75.8672 115.758C76.0547 116.003 76.2786 116.19 76.5391 116.32C76.8047 116.445 77.1042 116.508 77.4375 116.508C77.7708 116.508 78.0677 116.445 78.3281 116.32C78.5885 116.19 78.8073 116.003 78.9844 115.758C79.1667 115.513 79.3047 115.216 79.3984 114.867C79.4922 114.513 79.5391 114.109 79.5391 113.656ZM83.9922 108.898H85.7344L88.1875 115.328L90.6328 108.898H92.375L88.8828 118H87.4922L83.9922 108.898ZM83.0234 108.898H84.7734L85.0938 115.766V118H83.0234V108.898ZM91.6094 108.898H93.3672V118H91.2891V115.766L91.6094 108.898ZM103.141 113.25V113.656C103.141 114.349 103.039 114.971 102.836 115.523C102.638 116.07 102.354 116.539 101.984 116.93C101.615 117.315 101.174 117.612 100.664 117.82C100.154 118.023 99.5885 118.125 98.9688 118.125C98.349 118.125 97.7839 118.023 97.2734 117.82C96.763 117.612 96.3203 117.315 95.9453 116.93C95.5703 116.539 95.2812 116.07 95.0781 115.523C94.875 114.971 94.7734 114.349 94.7734 113.656V113.25C94.7734 112.557 94.875 111.938 95.0781 111.391C95.2812 110.839 95.5677 110.367 95.9375 109.977C96.3073 109.586 96.7474 109.289 97.2578 109.086C97.7682 108.878 98.3333 108.773 98.9531 108.773C99.5729 108.773 100.138 108.878 100.648 109.086C101.159 109.289 101.599 109.586 101.969 109.977C102.344 110.367 102.633 110.839 102.836 111.391C103.039 111.938 103.141 112.557 103.141 113.25ZM101.07 113.656V113.234C101.07 112.781 101.021 112.38 100.922 112.031C100.828 111.677 100.69 111.38 100.508 111.141C100.331 110.901 100.109 110.719 99.8438 110.594C99.5833 110.464 99.2865 110.398 98.9531 110.398C98.6198 110.398 98.3203 110.464 98.0547 110.594C97.7943 110.719 97.5729 110.901 97.3906 111.141C97.2135 111.38 97.0781 111.677 96.9844 112.031C96.8906 112.38 96.8438 112.781 96.8438 113.234V113.656C96.8438 114.109 96.8906 114.513 96.9844 114.867C97.0781 115.216 97.2161 115.513 97.3984 115.758C97.5859 116.003 97.8099 116.19 98.0703 116.32C98.3359 116.445 98.6354 116.508 98.9688 116.508C99.3021 116.508 99.599 116.445 99.8594 116.32C100.12 116.19 100.339 116.003 100.516 115.758C100.698 115.513 100.836 115.216 100.93 114.867C101.023 114.513 101.07 114.109 101.07 113.656ZM108.852 108.898V118H106.781V108.898H108.852ZM111.852 108.898V110.531H103.836V108.898H111.852ZM115.203 108.898V118H113.133V108.898H115.203ZM125.125 113.25V113.656C125.125 114.349 125.023 114.971 124.82 115.523C124.622 116.07 124.339 116.539 123.969 116.93C123.599 117.315 123.159 117.612 122.648 117.82C122.138 118.023 121.573 118.125 120.953 118.125C120.333 118.125 119.768 118.023 119.258 117.82C118.747 117.612 118.305 117.315 117.93 116.93C117.555 116.539 117.266 116.07 117.062 115.523C116.859 114.971 116.758 114.349 116.758 113.656V113.25C116.758 112.557 116.859 111.938 117.062 111.391C117.266 110.839 117.552 110.367 117.922 109.977C118.292 109.586 118.732 109.289 119.242 109.086C119.753 108.878 120.318 108.773 120.938 108.773C121.557 108.773 122.122 108.878 122.633 109.086C123.143 109.289 123.583 109.586 123.953 109.977C124.328 110.367 124.617 110.839 124.82 111.391C125.023 111.938 125.125 112.557 125.125 113.25ZM123.055 113.656V113.234C123.055 112.781 123.005 112.38 122.906 112.031C122.812 111.677 122.674 111.38 122.492 111.141C122.315 110.901 122.094 110.719 121.828 110.594C121.568 110.464 121.271 110.398 120.938 110.398C120.604 110.398 120.305 110.464 120.039 110.594C119.779 110.719 119.557 110.901 119.375 111.141C119.198 111.38 119.062 111.677 118.969 112.031C118.875 112.38 118.828 112.781 118.828 113.234V113.656C118.828 114.109 118.875 114.513 118.969 114.867C119.062 115.216 119.201 115.513 119.383 115.758C119.57 116.003 119.794 116.19 120.055 116.32C120.32 116.445 120.62 116.508 120.953 116.508C121.286 116.508 121.583 116.445 121.844 116.32C122.104 116.19 122.323 116.003 122.5 115.758C122.682 115.513 122.82 115.216 122.914 114.867C123.008 114.513 123.055 114.109 123.055 113.656ZM134.531 108.898V118H132.461L128.609 111.961V118H126.539V108.898H128.609L132.461 114.938V108.898H134.531ZM59.7422 129.016L57.1641 136H55.0703L58.7031 126.898H60.1094L59.7422 129.016ZM62.1953 136L59.5859 129.008L59.2188 126.898H60.6406L64.2812 136H62.1953ZM62.1094 132.617V134.125H56.9922V132.617H62.1094ZM73.1562 126.898V136H71.0859L67.2344 129.961V136H65.1641V126.898H67.2344L71.0859 132.938V126.898H73.1562ZM77.9062 136H75.7656L75.7734 134.375H77.9062C78.474 134.375 78.9349 134.273 79.2891 134.07C79.6432 133.862 79.901 133.555 80.0625 133.148C80.2292 132.742 80.3125 132.245 80.3125 131.656V131.234C80.3125 130.797 80.2656 130.409 80.1719 130.07C80.0833 129.732 79.9427 129.451 79.75 129.227C79.5573 128.997 79.3073 128.826 79 128.711C78.6979 128.591 78.3333 128.531 77.9062 128.531H75.7188V126.898H77.9062C78.5677 126.898 79.1719 127.005 79.7188 127.219C80.2656 127.427 80.737 127.724 81.1328 128.109C81.5339 128.495 81.8438 128.953 82.0625 129.484C82.2812 130.016 82.3906 130.604 82.3906 131.25V131.656C82.3906 132.51 82.1979 133.266 81.8125 133.922C81.4323 134.573 80.9062 135.083 80.2344 135.453C79.5625 135.818 78.7865 136 77.9062 136ZM76.9375 126.898V136H74.8672V126.898H76.9375ZM20.3516 152.375V154H15.1328V152.375H20.3516ZM15.8281 144.898V154H13.7578V144.898H15.8281ZM19.6797 148.484V150.109H15.1328V148.484H19.6797ZM20.3516 144.898V146.531H15.1328V144.898H20.3516ZM29.4844 144.898V154H27.4141L23.5625 147.961V154H21.4922V144.898H23.5625L27.4141 150.938V144.898H29.4844ZM35.6328 144.898V154H33.5625V144.898H35.6328ZM38.6328 144.898V146.531H30.6172V144.898H38.6328ZM46.3672 152.375V154H41.1484V152.375H46.3672ZM41.8438 144.898V154H39.7734V144.898H41.8438ZM45.6953 148.484V150.109H41.1484V148.484H45.6953ZM46.3672 144.898V146.531H41.1484V144.898H46.3672ZM47.5 144.898H51.1953C51.7526 144.898 52.2552 144.958 52.7031 145.078C53.1562 145.193 53.5391 145.367 53.8516 145.602C54.1693 145.831 54.4115 146.117 54.5781 146.461C54.7448 146.799 54.8281 147.193 54.8281 147.641C54.8281 148.151 54.7396 148.583 54.5625 148.938C54.3854 149.292 54.138 149.583 53.8203 149.812C53.5026 150.036 53.1302 150.221 52.7031 150.367L52.0312 150.75H48.8359L48.8203 149.117H51.2188C51.5573 149.117 51.8411 149.065 52.0703 148.961C52.2995 148.857 52.4714 148.708 52.5859 148.516C52.7005 148.323 52.7578 148.096 52.7578 147.836C52.7578 147.565 52.6979 147.333 52.5781 147.141C52.4635 146.943 52.2891 146.792 52.0547 146.688C51.8255 146.583 51.5391 146.531 51.1953 146.531H49.5781V154H47.5V144.898ZM52.9609 154L50.7422 149.977L52.9297 149.961L55.1875 153.906V154H52.9609ZM60.7109 144.898V154H58.6406V144.898H60.7109ZM63.7109 144.898V146.531H55.6953V144.898H63.7109ZM68.6953 147.016L66.1172 154H64.0234L67.6562 144.898H69.0625L68.6953 147.016ZM71.1484 154L68.5391 147.008L68.1719 144.898H69.5938L73.2344 154H71.1484ZM71.0625 150.617V152.125H65.9453V150.617H71.0625ZM76.3281 144.898V154H74.2578V144.898H76.3281ZM86.1719 144.898V154H84.1016L80.25 147.961V154H78.1797V144.898H80.25L84.1016 150.938V144.898H86.1719ZM88.8516 144.898H90.5938L93.0469 151.328L95.4922 144.898H97.2344L93.7422 154H92.3516L88.8516 144.898ZM87.8828 144.898H89.6328L89.9531 151.766V154H87.8828V144.898ZM96.4688 144.898H98.2266V154H96.1484V151.766L96.4688 144.898ZM106.523 152.375V154H101.305V152.375H106.523ZM102 144.898V154H99.9297V144.898H102ZM105.852 148.484V150.109H101.305V148.484H105.852ZM106.523 144.898V146.531H101.305V144.898H106.523ZM115.656 144.898V154H113.586L109.734 147.961V154H107.664V144.898H109.734L113.586 150.938V144.898H115.656ZM121.805 144.898V154H119.734V144.898H121.805ZM124.805 144.898V146.531H116.789V144.898H124.805ZM61.0703 168.875H58.5781V167.242H61.0703C61.4453 167.242 61.7526 167.188 61.9922 167.078C62.2318 166.969 62.4089 166.82 62.5234 166.633C62.638 166.44 62.6953 166.224 62.6953 165.984C62.6953 165.724 62.638 165.484 62.5234 165.266C62.4089 165.047 62.2318 164.87 61.9922 164.734C61.7526 164.599 61.4453 164.531 61.0703 164.531H59.3203V172H57.25V162.898H61.0703C61.8411 162.898 62.5 163.031 63.0469 163.297C63.599 163.562 64.0208 163.927 64.3125 164.391C64.6094 164.849 64.7578 165.375 64.7578 165.969C64.7578 166.406 64.6745 166.805 64.5078 167.164C64.3411 167.518 64.099 167.823 63.7812 168.078C63.4635 168.333 63.0755 168.531 62.6172 168.672C62.1641 168.807 61.6484 168.875 61.0703 168.875ZM72.4531 170.375V172H67.5156V170.375H72.4531ZM68.2109 162.898V172H66.1406V162.898H68.2109ZM79.0859 168.93H81.1641C81.1172 169.565 80.9323 170.122 80.6094 170.602C80.2865 171.081 79.8359 171.456 79.2578 171.727C78.6849 171.992 78 172.125 77.2031 172.125C76.5677 172.125 76 172.023 75.5 171.82C75 171.617 74.5729 171.326 74.2188 170.945C73.8698 170.56 73.6016 170.096 73.4141 169.555C73.2318 169.013 73.1406 168.401 73.1406 167.719V167.188C73.1406 166.505 73.237 165.893 73.4297 165.352C73.6224 164.805 73.8958 164.341 74.25 163.961C74.6042 163.576 75.0286 163.281 75.5234 163.078C76.0234 162.87 76.5833 162.766 77.2031 162.766C78.026 162.766 78.7188 162.906 79.2812 163.188C79.849 163.469 80.2891 163.857 80.6016 164.352C80.9193 164.841 81.1094 165.398 81.1719 166.023H79.1016C79.0755 165.711 78.9974 165.432 78.8672 165.188C78.737 164.943 78.5365 164.75 78.2656 164.609C78 164.469 77.6458 164.398 77.2031 164.398C76.875 164.398 76.5859 164.458 76.3359 164.578C76.0859 164.693 75.8776 164.867 75.7109 165.102C75.5443 165.331 75.4193 165.62 75.3359 165.969C75.2526 166.312 75.2109 166.716 75.2109 167.18V167.719C75.2109 168.177 75.2474 168.581 75.3203 168.93C75.3984 169.273 75.5182 169.562 75.6797 169.797C75.8411 170.031 76.0469 170.208 76.2969 170.328C76.5521 170.448 76.8542 170.508 77.2031 170.508C77.6146 170.508 77.9531 170.451 78.2188 170.336C78.4844 170.221 78.6875 170.047 78.8281 169.812C78.974 169.573 79.0599 169.279 79.0859 168.93Z" fill="#002E19"/>
<g clip-path="url(#clip0_670_518)">
<path d="M81.9723 32.4965C82.308 32.8322 82.7477 33 83.1875 33C83.6273 33 84.067 32.8322 84.4027 32.4965C85.0741 31.8251 85.0741 30.7374 84.4027 30.066L83.8992 29.5625H88.3438C89.2938 29.5625 90.0625 28.7929 90.0625 27.8438C90.0625 26.8946 89.2938 26.125 88.3438 26.125H83.8992L84.4027 25.6215C85.0741 24.9501 85.0741 23.8624 84.4027 23.191C83.7313 22.5197 82.6437 22.5197 81.9723 23.191L78.5348 26.6285C77.8634 27.2999 77.8634 28.3876 78.5348 29.059L81.9723 32.4965Z" fill="#00723F"/>
<path d="M86.1215 35.2223C85.4501 34.5509 84.3624 34.5509 83.691 35.2223C83.0197 35.8937 83.0197 36.9813 83.691 37.6527L84.1946 38.1562H79.75C78.8 38.1562 78.0312 38.9258 78.0312 39.875C78.0312 40.8242 78.8 41.5938 79.75 41.5938H84.1946L83.691 42.0973C83.0197 42.7687 83.0197 43.8563 83.691 44.5277C84.0267 44.8634 84.4665 45.0312 84.9062 45.0312C85.346 45.0312 85.7858 44.8634 86.1215 44.5277L89.559 41.0902C90.2303 40.4188 90.2303 39.3312 89.559 38.6598L86.1215 35.2223Z" fill="#00723F"/>
<path d="M48.7585 65.6562H86.4203L89.6866 61.5734C90.0995 61.0581 90.1784 60.3506 89.893 59.7556C89.606 59.1597 89.0051 58.7812 88.3438 58.7812H59.6454L54.9222 55.6324C54.6402 55.4445 54.3079 55.3438 53.9688 55.3438H43.6563C42.9849 55.3438 42.3756 55.7348 42.0945 56.3441C41.8142 56.9542 41.9149 57.6718 42.3513 58.1812L48.7585 65.6562Z" fill="#00723F"/>
<path d="M50.2314 67.375L52.6635 70.2124C52.99 70.5935 53.4667 70.8125 53.9686 70.8125H81.4686C81.9906 70.8125 82.484 70.575 82.8113 70.1671L85.0451 67.375H50.2314Z" fill="#00723F"/>
<path d="M88.3438 48.4688H79.75V57.0625H88.3438V48.4688Z" fill="#00723F"/>
<path d="M78.0312 48.4688H69.4375V57.0625H78.0312V48.4688Z" fill="#00723F"/>
<path d="M67.7188 48.4688H59.125V57.0625H67.7188V48.4688Z" fill="#00723F"/>
<path d="M50.5312 36.4375C45.7851 36.4375 41.9375 40.2851 41.9375 45.0312C41.9375 49.7774 45.7851 53.625 50.5312 53.625C55.2774 53.625 59.125 49.7774 59.125 45.0312C59.125 40.2851 55.2774 36.4375 50.5312 36.4375ZM50.5312 44.1719C52.4262 44.1719 53.9688 45.7135 53.9688 47.6094C53.9688 49.2066 52.8687 50.5405 51.3906 50.9248V51.0469C51.3906 51.5219 51.0063 51.9062 50.5312 51.9062C50.0562 51.9062 49.6719 51.5219 49.6719 51.0469V50.9248C48.1938 50.5405 47.0938 49.2066 47.0938 47.6094C47.0938 47.1344 47.4781 46.75 47.9531 46.75C48.4281 46.75 48.8125 47.1344 48.8125 47.6094C48.8125 48.5569 49.5829 49.3281 50.5312 49.3281C51.4796 49.3281 52.25 48.5569 52.25 47.6094C52.25 46.6619 51.4796 45.8906 50.5312 45.8906C48.6363 45.8906 47.0938 44.349 47.0938 42.4531C47.0938 40.8559 48.1938 39.522 49.6719 39.1377V39.0156C49.6719 38.5406 50.0562 38.1562 50.5312 38.1562C51.0063 38.1562 51.3906 38.5406 51.3906 39.0156V39.1377C52.8687 39.522 53.9688 40.8559 53.9688 42.4531C53.9688 42.9281 53.5844 43.3125 53.1094 43.3125C52.6344 43.3125 52.25 42.9281 52.25 42.4531C52.25 41.5056 51.4796 40.7344 50.5312 40.7344C49.5829 40.7344 48.8125 41.5056 48.8125 42.4531C48.8125 43.4006 49.5829 44.1719 50.5312 44.1719Z" fill="#00723F"/>
<path d="M55.6875 32.9998C55.6875 34.0057 57.6481 35.2769 61.0016 35.9553C60.8997 34.9802 60.8438 33.9856 60.8438 32.9998C60.8438 32.0139 60.8997 31.0193 61.0016 30.0442C57.6481 30.7226 55.6875 31.9938 55.6875 32.9998Z" fill="#00723F"/>
<path d="M66.0005 27.8438C66.9864 27.8438 67.981 27.8997 68.9561 28.0016C68.2776 24.6481 67.0064 22.6875 66.0005 22.6875C64.9946 22.6875 63.7233 24.6481 63.0449 28.0016C64.02 27.8997 65.0146 27.8438 66.0005 27.8438Z" fill="#00723F"/>
<path d="M69.2326 29.7673C68.2338 29.6479 67.1746 29.5625 66 29.5625C64.8255 29.5625 63.7663 29.648 62.7674 29.7674C62.648 30.7663 62.5625 31.8255 62.5625 33C62.5625 34.1745 62.648 35.2337 62.7674 36.2326C63.7663 36.352 64.8255 36.4375 66 36.4375C67.1746 36.4375 68.2338 36.3521 69.2326 36.2327C69.352 35.2338 69.4375 34.1746 69.4375 33C69.4375 31.8254 69.352 30.7662 69.2326 29.7673Z" fill="#00723F"/>
<path d="M66.0005 38.1564C65.0146 38.1564 64.02 38.1005 63.0449 37.9985C63.7233 41.3521 64.9946 43.3127 66.0005 43.3127C67.0064 43.3127 68.2776 41.3521 68.9561 37.9985C67.981 38.1005 66.9864 38.1564 66.0005 38.1564Z" fill="#00723F"/>
<path d="M61.2522 28.252C61.6016 26.2624 62.1721 24.4598 62.9568 23.1453C59.7094 24.1472 57.1474 26.7092 56.1455 29.9566C57.4601 29.1719 59.2626 28.6013 61.2522 28.252Z" fill="#00723F"/>
<path d="M61.2522 37.748C59.2626 37.3987 57.4601 36.8281 56.1455 36.0435C57.1474 39.2909 59.7094 41.8528 62.9568 42.8548C62.1721 41.5402 61.6016 39.7377 61.2522 37.748Z" fill="#00723F"/>
<path d="M70.748 37.748C70.3985 39.7378 69.8277 41.5404 69.043 42.8549C72.2906 41.8533 74.8529 39.2911 75.8548 36.0435C74.5403 36.8281 72.7376 37.3987 70.748 37.748Z" fill="#00723F"/>
<path d="M76.3123 32.9999C76.3123 31.9938 74.3519 30.7225 70.998 30.0442C71.1 31.0193 71.156 32.014 71.156 32.9999C71.156 33.9858 71.1 34.9805 70.998 35.9555C74.3519 35.2772 76.3123 34.0059 76.3123 32.9999Z" fill="#00723F"/>
<path d="M70.748 28.2516C72.7376 28.6009 74.5403 29.1715 75.8548 29.9562C74.8529 26.7086 72.2906 24.1464 69.043 23.1448C69.8277 24.4592 70.3985 26.2619 70.748 28.2516Z" fill="#00723F"/>
</g>
<defs>
<clipPath id="clip0_670_518">
<rect width="55" height="68.75" fill="white" transform="translate(38.5 19.25)"/>
</clipPath>
</defs>
</svg>
