<svg width="116" height="158" viewBox="0 0 116 158" fill="none" xmlns="http://www.w3.org/2000/svg">
<rect x="11" width="94" height="94" rx="16" fill="#E5EAE8"/>
<path d="M43.4688 111.016L40.8906 118H38.7969L42.4297 108.898H43.8359L43.4688 111.016ZM45.9219 118L43.3125 111.008L42.9453 108.898H44.3672L48.0078 118H45.9219ZM45.8359 114.617V116.125H40.7188V114.617H45.8359ZM48.8828 108.898H52.5781C53.1354 108.898 53.638 108.958 54.0859 109.078C54.5391 109.193 54.9219 109.367 55.2344 109.602C55.5521 109.831 55.7943 110.117 55.9609 110.461C56.1276 110.799 56.2109 111.193 56.2109 111.641C56.2109 112.151 56.1224 112.583 55.9453 112.938C55.7682 113.292 55.5208 113.583 55.2031 113.812C54.8854 114.036 54.513 114.221 54.0859 114.367L53.4141 114.75H50.2188L50.2031 113.117H52.6016C52.9401 113.117 53.224 113.065 53.4531 112.961C53.6823 112.857 53.8542 112.708 53.9688 112.516C54.0833 112.323 54.1406 112.096 54.1406 111.836C54.1406 111.565 54.0807 111.333 53.9609 111.141C53.8464 110.943 53.6719 110.792 53.4375 110.688C53.2083 110.583 52.9219 110.531 52.5781 110.531H50.9609V118H48.8828V108.898ZM54.3438 118L52.125 113.977L54.3125 113.961L56.5703 117.906V118H54.3438ZM59.9766 108.898V118H57.9062V108.898H59.9766ZM66.9297 115.594C66.9297 115.432 66.8984 115.286 66.8359 115.156C66.7786 115.026 66.6823 114.909 66.5469 114.805C66.4115 114.701 66.224 114.602 65.9844 114.508C65.75 114.414 65.4557 114.326 65.1016 114.242C64.5443 114.107 64.0573 113.958 63.6406 113.797C63.224 113.635 62.875 113.445 62.5938 113.227C62.3177 113.008 62.1094 112.75 61.9688 112.453C61.8333 112.151 61.7656 111.799 61.7656 111.398C61.7656 111.013 61.849 110.661 62.0156 110.344C62.1875 110.021 62.4271 109.742 62.7344 109.508C63.0469 109.273 63.4141 109.094 63.8359 108.969C64.263 108.839 64.7292 108.773 65.2344 108.773C65.9688 108.773 66.612 108.891 67.1641 109.125C67.7214 109.359 68.1536 109.688 68.4609 110.109C68.7682 110.526 68.9219 111.021 68.9219 111.594H66.8516C66.8516 111.354 66.7891 111.138 66.6641 110.945C66.5443 110.747 66.3646 110.589 66.125 110.469C65.8854 110.349 65.5885 110.289 65.2344 110.289C64.8958 110.289 64.6146 110.341 64.3906 110.445C64.1719 110.544 64.0078 110.674 63.8984 110.836C63.7943 110.992 63.7422 111.159 63.7422 111.336C63.7422 111.482 63.7734 111.615 63.8359 111.734C63.9036 111.849 64.0078 111.956 64.1484 112.055C64.2943 112.148 64.4844 112.24 64.7188 112.328C64.9531 112.411 65.237 112.497 65.5703 112.586C66.1224 112.711 66.6068 112.859 67.0234 113.031C67.4453 113.198 67.7943 113.398 68.0703 113.633C68.3516 113.867 68.5625 114.141 68.7031 114.453C68.8438 114.766 68.9141 115.128 68.9141 115.539C68.9141 115.945 68.8307 116.31 68.6641 116.633C68.4974 116.951 68.2552 117.221 67.9375 117.445C67.625 117.664 67.25 117.833 66.8125 117.953C66.3802 118.068 65.8958 118.125 65.3594 118.125C64.8802 118.125 64.4089 118.068 63.9453 117.953C63.4818 117.839 63.0625 117.661 62.6875 117.422C62.3125 117.177 62.013 116.867 61.7891 116.492C61.5651 116.117 61.4531 115.669 61.4531 115.148H63.5312C63.5312 115.409 63.5729 115.633 63.6562 115.82C63.7448 116.008 63.8698 116.161 64.0312 116.281C64.1979 116.396 64.401 116.482 64.6406 116.539C64.8802 116.591 65.151 116.617 65.4531 116.617C65.8073 116.617 66.0938 116.568 66.3125 116.469C66.5312 116.37 66.6875 116.242 66.7812 116.086C66.8802 115.93 66.9297 115.766 66.9297 115.594ZM76.9375 116.375V118H71.7188V116.375H76.9375ZM72.4141 108.898V118H70.3438V108.898H72.4141ZM76.2656 112.484V114.109H71.7188V112.484H76.2656ZM76.9375 108.898V110.531H71.7188V108.898H76.9375ZM24.6797 131.172V134.875C24.5234 135.047 24.2839 135.232 23.9609 135.43C23.6432 135.622 23.2318 135.786 22.7266 135.922C22.2214 136.057 21.612 136.125 20.8984 136.125C20.2682 136.125 19.6927 136.029 19.1719 135.836C18.651 135.643 18.2031 135.359 17.8281 134.984C17.4531 134.604 17.1641 134.141 16.9609 133.594C16.7578 133.047 16.6562 132.422 16.6562 131.719V131.18C16.6562 130.477 16.7552 129.854 16.9531 129.312C17.151 128.766 17.4323 128.302 17.7969 127.922C18.1615 127.542 18.5938 127.255 19.0938 127.062C19.599 126.865 20.1562 126.766 20.7656 126.766C21.6302 126.766 22.3359 126.898 22.8828 127.164C23.4349 127.424 23.8542 127.786 24.1406 128.25C24.4271 128.714 24.6042 129.245 24.6719 129.844H22.6719C22.625 129.542 22.5312 129.284 22.3906 129.07C22.2552 128.852 22.0599 128.685 21.8047 128.57C21.5547 128.456 21.2292 128.398 20.8281 128.398C20.5052 128.398 20.2135 128.456 19.9531 128.57C19.6927 128.685 19.4714 128.859 19.2891 129.094C19.1068 129.323 18.9688 129.609 18.875 129.953C18.7812 130.297 18.7344 130.701 18.7344 131.164V131.719C18.7344 132.177 18.7812 132.581 18.875 132.93C18.974 133.279 19.1198 133.57 19.3125 133.805C19.5052 134.034 19.7448 134.208 20.0312 134.328C20.3229 134.448 20.6562 134.508 21.0312 134.508C21.4844 134.508 21.8333 134.461 22.0781 134.367C22.3229 134.268 22.4974 134.18 22.6016 134.102V132.625H20.7422V131.172H24.6797ZM32.7734 134.375V136H27.5547V134.375H32.7734ZM28.25 126.898V136H26.1797V126.898H28.25ZM32.1016 130.484V132.109H27.5547V130.484H32.1016ZM32.7734 126.898V128.531H27.5547V126.898H32.7734ZM41.9062 126.898V136H39.8359L35.9844 129.961V136H33.9141V126.898H35.9844L39.8359 132.938V126.898H41.9062ZM50.2109 134.375V136H44.9922V134.375H50.2109ZM45.6875 126.898V136H43.6172V126.898H45.6875ZM49.5391 130.484V132.109H44.9922V130.484H49.5391ZM50.2109 126.898V128.531H44.9922V126.898H50.2109ZM51.3438 126.898H55.0391C55.5964 126.898 56.099 126.958 56.5469 127.078C57 127.193 57.3828 127.367 57.6953 127.602C58.013 127.831 58.2552 128.117 58.4219 128.461C58.5885 128.799 58.6719 129.193 58.6719 129.641C58.6719 130.151 58.5833 130.583 58.4062 130.938C58.2292 131.292 57.9818 131.583 57.6641 131.812C57.3464 132.036 56.974 132.221 56.5469 132.367L55.875 132.75H52.6797L52.6641 131.117H55.0625C55.401 131.117 55.6849 131.065 55.9141 130.961C56.1432 130.857 56.3151 130.708 56.4297 130.516C56.5443 130.323 56.6016 130.096 56.6016 129.836C56.6016 129.565 56.5417 129.333 56.4219 129.141C56.3073 128.943 56.1328 128.792 55.8984 128.688C55.6693 128.583 55.3828 128.531 55.0391 128.531H53.4219V136H51.3438V126.898ZM56.8047 136L54.5859 131.977L56.7734 131.961L59.0312 135.906V136H56.8047ZM64.0703 129.016L61.4922 136H59.3984L63.0312 126.898H64.4375L64.0703 129.016ZM66.5234 136L63.9141 129.008L63.5469 126.898H64.9688L68.6094 136H66.5234ZM66.4375 132.617V134.125H61.3203V132.617H66.4375ZM73.4297 126.898V136H71.3594V126.898H73.4297ZM76.4297 126.898V128.531H68.4141V126.898H76.4297ZM79.7812 126.898V136H77.7109V126.898H79.7812ZM89.7031 131.25V131.656C89.7031 132.349 89.6016 132.971 89.3984 133.523C89.2005 134.07 88.9167 134.539 88.5469 134.93C88.1771 135.315 87.737 135.612 87.2266 135.82C86.7161 136.023 86.151 136.125 85.5312 136.125C84.9115 136.125 84.3464 136.023 83.8359 135.82C83.3255 135.612 82.8828 135.315 82.5078 134.93C82.1328 134.539 81.8438 134.07 81.6406 133.523C81.4375 132.971 81.3359 132.349 81.3359 131.656V131.25C81.3359 130.557 81.4375 129.938 81.6406 129.391C81.8438 128.839 82.1302 128.367 82.5 127.977C82.8698 127.586 83.3099 127.289 83.8203 127.086C84.3307 126.878 84.8958 126.773 85.5156 126.773C86.1354 126.773 86.7005 126.878 87.2109 127.086C87.7214 127.289 88.1615 127.586 88.5312 127.977C88.9062 128.367 89.1953 128.839 89.3984 129.391C89.6016 129.938 89.7031 130.557 89.7031 131.25ZM87.6328 131.656V131.234C87.6328 130.781 87.5833 130.38 87.4844 130.031C87.3906 129.677 87.2526 129.38 87.0703 129.141C86.8932 128.901 86.6719 128.719 86.4062 128.594C86.1458 128.464 85.849 128.398 85.5156 128.398C85.1823 128.398 84.8828 128.464 84.6172 128.594C84.3568 128.719 84.1354 128.901 83.9531 129.141C83.776 129.38 83.6406 129.677 83.5469 130.031C83.4531 130.38 83.4062 130.781 83.4062 131.234V131.656C83.4062 132.109 83.4531 132.513 83.5469 132.867C83.6406 133.216 83.7786 133.513 83.9609 133.758C84.1484 134.003 84.3724 134.19 84.6328 134.32C84.8984 134.445 85.1979 134.508 85.5312 134.508C85.8646 134.508 86.1615 134.445 86.4219 134.32C86.6823 134.19 86.901 134.003 87.0781 133.758C87.2604 133.513 87.3984 133.216 87.4922 132.867C87.5859 132.513 87.6328 132.109 87.6328 131.656ZM99.1094 126.898V136H97.0391L93.1875 129.961V136H91.1172V126.898H93.1875L97.0391 132.938V126.898H99.1094ZM54.0234 149.25V149.656C54.0234 150.349 53.9219 150.971 53.7188 151.523C53.5208 152.07 53.237 152.539 52.8672 152.93C52.4974 153.315 52.0573 153.612 51.5469 153.82C51.0365 154.023 50.4714 154.125 49.8516 154.125C49.2318 154.125 48.6667 154.023 48.1562 153.82C47.6458 153.612 47.2031 153.315 46.8281 152.93C46.4531 152.539 46.1641 152.07 45.9609 151.523C45.7578 150.971 45.6562 150.349 45.6562 149.656V149.25C45.6562 148.557 45.7578 147.938 45.9609 147.391C46.1641 146.839 46.4505 146.367 46.8203 145.977C47.1901 145.586 47.6302 145.289 48.1406 145.086C48.651 144.878 49.2161 144.773 49.8359 144.773C50.4557 144.773 51.0208 144.878 51.5312 145.086C52.0417 145.289 52.4818 145.586 52.8516 145.977C53.2266 146.367 53.5156 146.839 53.7188 147.391C53.9219 147.938 54.0234 148.557 54.0234 149.25ZM51.9531 149.656V149.234C51.9531 148.781 51.9036 148.38 51.8047 148.031C51.7109 147.677 51.5729 147.38 51.3906 147.141C51.2135 146.901 50.9922 146.719 50.7266 146.594C50.4661 146.464 50.1693 146.398 49.8359 146.398C49.5026 146.398 49.2031 146.464 48.9375 146.594C48.6771 146.719 48.4557 146.901 48.2734 147.141C48.0964 147.38 47.9609 147.677 47.8672 148.031C47.7734 148.38 47.7266 148.781 47.7266 149.234V149.656C47.7266 150.109 47.7734 150.513 47.8672 150.867C47.9609 151.216 48.099 151.513 48.2812 151.758C48.4688 152.003 48.6927 152.19 48.9531 152.32C49.2188 152.445 49.5182 152.508 49.8516 152.508C50.1849 152.508 50.4818 152.445 50.7422 152.32C51.0026 152.19 51.2214 152.003 51.3984 151.758C51.5807 151.513 51.7188 151.216 51.8125 150.867C51.9062 150.513 51.9531 150.109 51.9531 149.656ZM61.75 152.375V154H56.8125V152.375H61.75ZM57.5078 144.898V154H55.4375V144.898H57.5078ZM68.3828 150.93H70.4609C70.4141 151.565 70.2292 152.122 69.9062 152.602C69.5833 153.081 69.1328 153.456 68.5547 153.727C67.9818 153.992 67.2969 154.125 66.5 154.125C65.8646 154.125 65.2969 154.023 64.7969 153.82C64.2969 153.617 63.8698 153.326 63.5156 152.945C63.1667 152.56 62.8984 152.096 62.7109 151.555C62.5286 151.013 62.4375 150.401 62.4375 149.719V149.188C62.4375 148.505 62.5339 147.893 62.7266 147.352C62.9193 146.805 63.1927 146.341 63.5469 145.961C63.901 145.576 64.3255 145.281 64.8203 145.078C65.3203 144.87 65.8802 144.766 66.5 144.766C67.3229 144.766 68.0156 144.906 68.5781 145.188C69.1458 145.469 69.5859 145.857 69.8984 146.352C70.2161 146.841 70.4062 147.398 70.4688 148.023H68.3984C68.3724 147.711 68.2943 147.432 68.1641 147.188C68.0339 146.943 67.8333 146.75 67.5625 146.609C67.2969 146.469 66.9427 146.398 66.5 146.398C66.1719 146.398 65.8828 146.458 65.6328 146.578C65.3828 146.693 65.1745 146.867 65.0078 147.102C64.8411 147.331 64.7161 147.62 64.6328 147.969C64.5495 148.312 64.5078 148.716 64.5078 149.18V149.719C64.5078 150.177 64.5443 150.581 64.6172 150.93C64.6953 151.273 64.8151 151.562 64.9766 151.797C65.138 152.031 65.3438 152.208 65.5938 152.328C65.849 152.448 66.151 152.508 66.5 152.508C66.9115 152.508 67.25 152.451 67.5156 152.336C67.7812 152.221 67.9844 152.047 68.125 151.812C68.2708 151.573 68.3568 151.279 68.3828 150.93Z" fill="#002E19"/>
<g clip-path="url(#clip0_670_544)">
<path d="M81.4723 32.4965C81.808 32.8322 82.2477 33 82.6875 33C83.1273 33 83.567 32.8322 83.9027 32.4965C84.5741 31.8251 84.5741 30.7374 83.9027 30.066L83.3992 29.5625H87.8438C88.7938 29.5625 89.5625 28.7929 89.5625 27.8438C89.5625 26.8946 88.7938 26.125 87.8438 26.125H83.3992L83.9027 25.6215C84.5741 24.9501 84.5741 23.8624 83.9027 23.191C83.2313 22.5197 82.1437 22.5197 81.4723 23.191L78.0348 26.6285C77.3634 27.2999 77.3634 28.3876 78.0348 29.059L81.4723 32.4965Z" fill="#00723F"/>
<path d="M85.6215 35.2223C84.9501 34.5509 83.8624 34.5509 83.191 35.2223C82.5197 35.8937 82.5197 36.9813 83.191 37.6527L83.6946 38.1562H79.25C78.3 38.1562 77.5312 38.9258 77.5312 39.875C77.5312 40.8242 78.3 41.5938 79.25 41.5938H83.6946L83.191 42.0973C82.5197 42.7687 82.5197 43.8563 83.191 44.5277C83.5267 44.8634 83.9665 45.0312 84.4062 45.0312C84.846 45.0312 85.2858 44.8634 85.6215 44.5277L89.059 41.0902C89.7303 40.4188 89.7303 39.3312 89.059 38.6598L85.6215 35.2223Z" fill="#00723F"/>
<path d="M48.2585 65.6562H85.9203L89.1866 61.5734C89.5995 61.0581 89.6784 60.3506 89.393 59.7556C89.106 59.1597 88.5051 58.7812 87.8438 58.7812H59.1454L54.4222 55.6324C54.1402 55.4445 53.8079 55.3438 53.4688 55.3438H43.1563C42.4849 55.3438 41.8756 55.7348 41.5945 56.3441C41.3142 56.9542 41.4149 57.6718 41.8513 58.1812L48.2585 65.6562Z" fill="#00723F"/>
<path d="M49.7314 67.375L52.1635 70.2124C52.49 70.5935 52.9667 70.8125 53.4686 70.8125H80.9686C81.4906 70.8125 81.984 70.575 82.3113 70.1671L84.5451 67.375H49.7314Z" fill="#00723F"/>
<path d="M87.8438 48.4688H79.25V57.0625H87.8438V48.4688Z" fill="#00723F"/>
<path d="M77.5312 48.4688H68.9375V57.0625H77.5312V48.4688Z" fill="#00723F"/>
<path d="M67.2188 48.4688H58.625V57.0625H67.2188V48.4688Z" fill="#00723F"/>
<path d="M50.0312 36.4375C45.2851 36.4375 41.4375 40.2851 41.4375 45.0312C41.4375 49.7774 45.2851 53.625 50.0312 53.625C54.7774 53.625 58.625 49.7774 58.625 45.0312C58.625 40.2851 54.7774 36.4375 50.0312 36.4375ZM50.0312 44.1719C51.9262 44.1719 53.4688 45.7135 53.4688 47.6094C53.4688 49.2066 52.3687 50.5405 50.8906 50.9248V51.0469C50.8906 51.5219 50.5063 51.9062 50.0312 51.9062C49.5562 51.9062 49.1719 51.5219 49.1719 51.0469V50.9248C47.6938 50.5405 46.5938 49.2066 46.5938 47.6094C46.5938 47.1344 46.9781 46.75 47.4531 46.75C47.9281 46.75 48.3125 47.1344 48.3125 47.6094C48.3125 48.5569 49.0829 49.3281 50.0312 49.3281C50.9796 49.3281 51.75 48.5569 51.75 47.6094C51.75 46.6619 50.9796 45.8906 50.0312 45.8906C48.1363 45.8906 46.5938 44.349 46.5938 42.4531C46.5938 40.8559 47.6938 39.522 49.1719 39.1377V39.0156C49.1719 38.5406 49.5562 38.1562 50.0312 38.1562C50.5063 38.1562 50.8906 38.5406 50.8906 39.0156V39.1377C52.3687 39.522 53.4688 40.8559 53.4688 42.4531C53.4688 42.9281 53.0844 43.3125 52.6094 43.3125C52.1344 43.3125 51.75 42.9281 51.75 42.4531C51.75 41.5056 50.9796 40.7344 50.0312 40.7344C49.0829 40.7344 48.3125 41.5056 48.3125 42.4531C48.3125 43.4006 49.0829 44.1719 50.0312 44.1719Z" fill="#00723F"/>
<path d="M55.1875 32.9998C55.1875 34.0057 57.1481 35.2769 60.5016 35.9553C60.3997 34.9802 60.3438 33.9856 60.3438 32.9998C60.3438 32.0139 60.3997 31.0193 60.5016 30.0442C57.1481 30.7226 55.1875 31.9938 55.1875 32.9998Z" fill="#00723F"/>
<path d="M65.5005 27.8438C66.4864 27.8438 67.481 27.8997 68.4561 28.0016C67.7776 24.6481 66.5064 22.6875 65.5005 22.6875C64.4946 22.6875 63.2233 24.6481 62.5449 28.0016C63.52 27.8997 64.5146 27.8438 65.5005 27.8438Z" fill="#00723F"/>
<path d="M68.7326 29.7673C67.7338 29.6479 66.6746 29.5625 65.5 29.5625C64.3255 29.5625 63.2663 29.648 62.2674 29.7674C62.148 30.7663 62.0625 31.8255 62.0625 33C62.0625 34.1745 62.148 35.2337 62.2674 36.2326C63.2663 36.352 64.3255 36.4375 65.5 36.4375C66.6746 36.4375 67.7338 36.3521 68.7326 36.2327C68.852 35.2338 68.9375 34.1746 68.9375 33C68.9375 31.8254 68.852 30.7662 68.7326 29.7673Z" fill="#00723F"/>
<path d="M65.5005 38.1564C64.5146 38.1564 63.52 38.1005 62.5449 37.9985C63.2233 41.3521 64.4946 43.3127 65.5005 43.3127C66.5064 43.3127 67.7776 41.3521 68.4561 37.9985C67.481 38.1005 66.4864 38.1564 65.5005 38.1564Z" fill="#00723F"/>
<path d="M60.7522 28.252C61.1016 26.2624 61.6721 24.4598 62.4568 23.1453C59.2094 24.1472 56.6474 26.7092 55.6455 29.9566C56.9601 29.1719 58.7626 28.6013 60.7522 28.252Z" fill="#00723F"/>
<path d="M60.7522 37.748C58.7626 37.3987 56.9601 36.8281 55.6455 36.0435C56.6474 39.2909 59.2094 41.8528 62.4568 42.8548C61.6721 41.5402 61.1016 39.7377 60.7522 37.748Z" fill="#00723F"/>
<path d="M70.248 37.748C69.8985 39.7378 69.3277 41.5404 68.543 42.8549C71.7906 41.8533 74.3529 39.2911 75.3548 36.0435C74.0403 36.8281 72.2376 37.3987 70.248 37.748Z" fill="#00723F"/>
<path d="M75.8123 32.9999C75.8123 31.9938 73.8519 30.7225 70.498 30.0442C70.6 31.0193 70.656 32.014 70.656 32.9999C70.656 33.9858 70.6 34.9805 70.498 35.9555C73.8519 35.2772 75.8123 34.0059 75.8123 32.9999Z" fill="#00723F"/>
<path d="M70.248 28.2516C72.2376 28.6009 74.0403 29.1715 75.3548 29.9562C74.3529 26.7086 71.7906 24.1464 68.543 23.1448C69.3277 24.4592 69.8985 26.2619 70.248 28.2516Z" fill="#00723F"/>
</g>
<defs>
<clipPath id="clip0_670_544">
<rect width="55" height="68.75" fill="white" transform="translate(38 19.25)"/>
</clipPath>
</defs>
</svg>
