<svg width="117" height="158" viewBox="0 0 117 158" fill="none" xmlns="http://www.w3.org/2000/svg">
<rect x="11.5" width="94" height="94" rx="16" fill="#E5EAE8"/>
<path d="M34.9375 111.016L32.3594 118H30.2656L33.8984 108.898H35.3047L34.9375 111.016ZM37.3906 118L34.7812 111.008L34.4141 108.898H35.8359L39.4766 118H37.3906ZM37.3047 114.617V116.125H32.1875V114.617H37.3047ZM45.4609 115.594C45.4609 115.432 45.4297 115.286 45.3672 115.156C45.3099 115.026 45.2135 114.909 45.0781 114.805C44.9427 114.701 44.7552 114.602 44.5156 114.508C44.2812 114.414 43.987 114.326 43.6328 114.242C43.0755 114.107 42.5885 113.958 42.1719 113.797C41.7552 113.635 41.4062 113.445 41.125 113.227C40.849 113.008 40.6406 112.75 40.5 112.453C40.3646 112.151 40.2969 111.799 40.2969 111.398C40.2969 111.013 40.3802 110.661 40.5469 110.344C40.7188 110.021 40.9583 109.742 41.2656 109.508C41.5781 109.273 41.9453 109.094 42.3672 108.969C42.7943 108.839 43.2604 108.773 43.7656 108.773C44.5 108.773 45.1432 108.891 45.6953 109.125C46.2526 109.359 46.6849 109.688 46.9922 110.109C47.2995 110.526 47.4531 111.021 47.4531 111.594H45.3828C45.3828 111.354 45.3203 111.138 45.1953 110.945C45.0755 110.747 44.8958 110.589 44.6562 110.469C44.4167 110.349 44.1198 110.289 43.7656 110.289C43.4271 110.289 43.1458 110.341 42.9219 110.445C42.7031 110.544 42.5391 110.674 42.4297 110.836C42.3255 110.992 42.2734 111.159 42.2734 111.336C42.2734 111.482 42.3047 111.615 42.3672 111.734C42.4349 111.849 42.5391 111.956 42.6797 112.055C42.8255 112.148 43.0156 112.24 43.25 112.328C43.4844 112.411 43.7682 112.497 44.1016 112.586C44.6536 112.711 45.138 112.859 45.5547 113.031C45.9766 113.198 46.3255 113.398 46.6016 113.633C46.8828 113.867 47.0938 114.141 47.2344 114.453C47.375 114.766 47.4453 115.128 47.4453 115.539C47.4453 115.945 47.362 116.31 47.1953 116.633C47.0286 116.951 46.7865 117.221 46.4688 117.445C46.1562 117.664 45.7812 117.833 45.3438 117.953C44.9115 118.068 44.4271 118.125 43.8906 118.125C43.4115 118.125 42.9401 118.068 42.4766 117.953C42.013 117.839 41.5938 117.661 41.2188 117.422C40.8438 117.177 40.5443 116.867 40.3203 116.492C40.0964 116.117 39.9844 115.669 39.9844 115.148H42.0625C42.0625 115.409 42.1042 115.633 42.1875 115.82C42.276 116.008 42.401 116.161 42.5625 116.281C42.7292 116.396 42.9323 116.482 43.1719 116.539C43.4115 116.591 43.6823 116.617 43.9844 116.617C44.3385 116.617 44.625 116.568 44.8438 116.469C45.0625 116.37 45.2188 116.242 45.3125 116.086C45.4115 115.93 45.4609 115.766 45.4609 115.594ZM55.4219 112.711V114.344H50.3047V112.711H55.4219ZM50.9453 108.898V118H48.875V108.898H50.9453ZM56.875 108.898V118H54.8125V108.898H56.875ZM65.1719 116.375V118H59.9531V116.375H65.1719ZM60.6484 108.898V118H58.5781V108.898H60.6484ZM64.5 112.484V114.109H59.9531V112.484H64.5ZM65.1719 108.898V110.531H59.9531V108.898H65.1719ZM68.6953 116.695L70.5625 108.898H71.6875L71.8828 110.266L69.9453 118H68.7656L68.6953 116.695ZM67.7422 108.898L69.2734 116.633L69.1641 118H67.8906L65.7344 108.898H67.7422ZM73.6875 116.625L75.2188 108.898H77.2109L75.0625 118H73.7969L73.6875 116.625ZM72.3906 108.898L74.2734 116.703L74.1953 118H73.0156L71.0547 110.266L71.2656 108.898H72.3906ZM82.1875 111.016L79.6094 118H77.5156L81.1484 108.898H82.5547L82.1875 111.016ZM84.6406 118L82.0312 111.008L81.6641 108.898H83.0859L86.7266 118H84.6406ZM84.5547 114.617V116.125H79.4375V114.617H84.5547ZM19.3594 126.898V136H17.2891V126.898H19.3594ZM22.3594 126.898V128.531H14.3438V126.898H22.3594ZM30.0938 134.375V136H24.875V134.375H30.0938ZM25.5703 126.898V136H23.5V126.898H25.5703ZM29.4219 130.484V132.109H24.875V130.484H29.4219ZM30.0938 126.898V128.531H24.875V126.898H30.0938ZM36.8828 132.93H38.9609C38.9141 133.565 38.7292 134.122 38.4062 134.602C38.0833 135.081 37.6328 135.456 37.0547 135.727C36.4818 135.992 35.7969 136.125 35 136.125C34.3646 136.125 33.7969 136.023 33.2969 135.82C32.7969 135.617 32.3698 135.326 32.0156 134.945C31.6667 134.56 31.3984 134.096 31.2109 133.555C31.0286 133.013 30.9375 132.401 30.9375 131.719V131.188C30.9375 130.505 31.0339 129.893 31.2266 129.352C31.4193 128.805 31.6927 128.341 32.0469 127.961C32.401 127.576 32.8255 127.281 33.3203 127.078C33.8203 126.87 34.3802 126.766 35 126.766C35.8229 126.766 36.5156 126.906 37.0781 127.188C37.6458 127.469 38.0859 127.857 38.3984 128.352C38.7161 128.841 38.9062 129.398 38.9688 130.023H36.8984C36.8724 129.711 36.7943 129.432 36.6641 129.188C36.5339 128.943 36.3333 128.75 36.0625 128.609C35.7969 128.469 35.4427 128.398 35 128.398C34.6719 128.398 34.3828 128.458 34.1328 128.578C33.8828 128.693 33.6745 128.867 33.5078 129.102C33.3411 129.331 33.2161 129.62 33.1328 129.969C33.0495 130.312 33.0078 130.716 33.0078 131.18V131.719C33.0078 132.177 33.0443 132.581 33.1172 132.93C33.1953 133.273 33.3151 133.562 33.4766 133.797C33.638 134.031 33.8438 134.208 34.0938 134.328C34.349 134.448 34.651 134.508 35 134.508C35.4115 134.508 35.75 134.451 36.0156 134.336C36.2812 134.221 36.4844 134.047 36.625 133.812C36.7708 133.573 36.8568 133.279 36.8828 132.93ZM46.7969 130.711V132.344H41.6797V130.711H46.7969ZM42.3203 126.898V136H40.25V126.898H42.3203ZM48.25 126.898V136H46.1875V126.898H48.25ZM57.9453 126.898V136H55.875L52.0234 129.961V136H49.9531V126.898H52.0234L55.875 132.938V126.898H57.9453ZM67.7266 131.25V131.656C67.7266 132.349 67.625 132.971 67.4219 133.523C67.224 134.07 66.9401 134.539 66.5703 134.93C66.2005 135.315 65.7604 135.612 65.25 135.82C64.7396 136.023 64.1745 136.125 63.5547 136.125C62.9349 136.125 62.3698 136.023 61.8594 135.82C61.349 135.612 60.9062 135.315 60.5312 134.93C60.1562 134.539 59.8672 134.07 59.6641 133.523C59.4609 132.971 59.3594 132.349 59.3594 131.656V131.25C59.3594 130.557 59.4609 129.938 59.6641 129.391C59.8672 128.839 60.1536 128.367 60.5234 127.977C60.8932 127.586 61.3333 127.289 61.8438 127.086C62.3542 126.878 62.9193 126.773 63.5391 126.773C64.1589 126.773 64.724 126.878 65.2344 127.086C65.7448 127.289 66.1849 127.586 66.5547 127.977C66.9297 128.367 67.2188 128.839 67.4219 129.391C67.625 129.938 67.7266 130.557 67.7266 131.25ZM65.6562 131.656V131.234C65.6562 130.781 65.6068 130.38 65.5078 130.031C65.4141 129.677 65.276 129.38 65.0938 129.141C64.9167 128.901 64.6953 128.719 64.4297 128.594C64.1693 128.464 63.8724 128.398 63.5391 128.398C63.2057 128.398 62.9062 128.464 62.6406 128.594C62.3802 128.719 62.1589 128.901 61.9766 129.141C61.7995 129.38 61.6641 129.677 61.5703 130.031C61.4766 130.38 61.4297 130.781 61.4297 131.234V131.656C61.4297 132.109 61.4766 132.513 61.5703 132.867C61.6641 133.216 61.8021 133.513 61.9844 133.758C62.1719 134.003 62.3958 134.19 62.6562 134.32C62.9219 134.445 63.2214 134.508 63.5547 134.508C63.888 134.508 64.1849 134.445 64.4453 134.32C64.7057 134.19 64.9245 134.003 65.1016 133.758C65.2839 133.513 65.4219 133.216 65.5156 132.867C65.6094 132.513 65.6562 132.109 65.6562 131.656ZM75.4531 134.375V136H70.5156V134.375H75.4531ZM71.2109 126.898V136H69.1406V126.898H71.2109ZM84.5078 131.25V131.656C84.5078 132.349 84.4062 132.971 84.2031 133.523C84.0052 134.07 83.7214 134.539 83.3516 134.93C82.9818 135.315 82.5417 135.612 82.0312 135.82C81.5208 136.023 80.9557 136.125 80.3359 136.125C79.7161 136.125 79.151 136.023 78.6406 135.82C78.1302 135.612 77.6875 135.315 77.3125 134.93C76.9375 134.539 76.6484 134.07 76.4453 133.523C76.2422 132.971 76.1406 132.349 76.1406 131.656V131.25C76.1406 130.557 76.2422 129.938 76.4453 129.391C76.6484 128.839 76.9349 128.367 77.3047 127.977C77.6745 127.586 78.1146 127.289 78.625 127.086C79.1354 126.878 79.7005 126.773 80.3203 126.773C80.9401 126.773 81.5052 126.878 82.0156 127.086C82.526 127.289 82.9661 127.586 83.3359 127.977C83.7109 128.367 84 128.839 84.2031 129.391C84.4062 129.938 84.5078 130.557 84.5078 131.25ZM82.4375 131.656V131.234C82.4375 130.781 82.388 130.38 82.2891 130.031C82.1953 129.677 82.0573 129.38 81.875 129.141C81.6979 128.901 81.4766 128.719 81.2109 128.594C80.9505 128.464 80.6536 128.398 80.3203 128.398C79.987 128.398 79.6875 128.464 79.4219 128.594C79.1615 128.719 78.9401 128.901 78.7578 129.141C78.5807 129.38 78.4453 129.677 78.3516 130.031C78.2578 130.38 78.2109 130.781 78.2109 131.234V131.656C78.2109 132.109 78.2578 132.513 78.3516 132.867C78.4453 133.216 78.5833 133.513 78.7656 133.758C78.9531 134.003 79.1771 134.19 79.4375 134.32C79.7031 134.445 80.0026 134.508 80.3359 134.508C80.6693 134.508 80.9661 134.445 81.2266 134.32C81.487 134.19 81.7057 134.003 81.8828 133.758C82.0651 133.513 82.2031 133.216 82.2969 132.867C82.3906 132.513 82.4375 132.109 82.4375 131.656ZM93.7188 131.172V134.875C93.5625 135.047 93.3229 135.232 93 135.43C92.6823 135.622 92.2708 135.786 91.7656 135.922C91.2604 136.057 90.651 136.125 89.9375 136.125C89.3073 136.125 88.7318 136.029 88.2109 135.836C87.6901 135.643 87.2422 135.359 86.8672 134.984C86.4922 134.604 86.2031 134.141 86 133.594C85.7969 133.047 85.6953 132.422 85.6953 131.719V131.18C85.6953 130.477 85.7943 129.854 85.9922 129.312C86.1901 128.766 86.4714 128.302 86.8359 127.922C87.2005 127.542 87.6328 127.255 88.1328 127.062C88.638 126.865 89.1953 126.766 89.8047 126.766C90.6693 126.766 91.375 126.898 91.9219 127.164C92.474 127.424 92.8932 127.786 93.1797 128.25C93.4661 128.714 93.6432 129.245 93.7109 129.844H91.7109C91.6641 129.542 91.5703 129.284 91.4297 129.07C91.2943 128.852 91.099 128.685 90.8438 128.57C90.5938 128.456 90.2682 128.398 89.8672 128.398C89.5443 128.398 89.2526 128.456 88.9922 128.57C88.7318 128.685 88.5104 128.859 88.3281 129.094C88.1458 129.323 88.0078 129.609 87.9141 129.953C87.8203 130.297 87.7734 130.701 87.7734 131.164V131.719C87.7734 132.177 87.8203 132.581 87.9141 132.93C88.013 133.279 88.1589 133.57 88.3516 133.805C88.5443 134.034 88.7839 134.208 89.0703 134.328C89.362 134.448 89.6953 134.508 90.0703 134.508C90.5234 134.508 90.8724 134.461 91.1172 134.367C91.362 134.268 91.5365 134.18 91.6406 134.102V132.625H89.7812V131.172H93.7188ZM98.1719 131.898L100.648 126.898H102.898L99.5469 133H98.4062L98.1719 131.898ZM96.6328 126.898L99.125 131.945L98.8672 133H97.7344L94.3828 126.898H96.6328ZM99.6484 131.727V136H97.5781V131.727H99.6484ZM18.3125 151.594C18.3125 151.432 18.2812 151.286 18.2188 151.156C18.1615 151.026 18.0651 150.909 17.9297 150.805C17.7943 150.701 17.6068 150.602 17.3672 150.508C17.1328 150.414 16.8385 150.326 16.4844 150.242C15.9271 150.107 15.4401 149.958 15.0234 149.797C14.6068 149.635 14.2578 149.445 13.9766 149.227C13.7005 149.008 13.4922 148.75 13.3516 148.453C13.2161 148.151 13.1484 147.799 13.1484 147.398C13.1484 147.013 13.2318 146.661 13.3984 146.344C13.5703 146.021 13.8099 145.742 14.1172 145.508C14.4297 145.273 14.7969 145.094 15.2188 144.969C15.6458 144.839 16.112 144.773 16.6172 144.773C17.3516 144.773 17.9948 144.891 18.5469 145.125C19.1042 145.359 19.5365 145.688 19.8438 146.109C20.151 146.526 20.3047 147.021 20.3047 147.594H18.2344C18.2344 147.354 18.1719 147.138 18.0469 146.945C17.9271 146.747 17.7474 146.589 17.5078 146.469C17.2682 146.349 16.9714 146.289 16.6172 146.289C16.2786 146.289 15.9974 146.341 15.7734 146.445C15.5547 146.544 15.3906 146.674 15.2812 146.836C15.1771 146.992 15.125 147.159 15.125 147.336C15.125 147.482 15.1562 147.615 15.2188 147.734C15.2865 147.849 15.3906 147.956 15.5312 148.055C15.6771 148.148 15.8672 148.24 16.1016 148.328C16.3359 148.411 16.6198 148.497 16.9531 148.586C17.5052 148.711 17.9896 148.859 18.4062 149.031C18.8281 149.198 19.1771 149.398 19.4531 149.633C19.7344 149.867 19.9453 150.141 20.0859 150.453C20.2266 150.766 20.2969 151.128 20.2969 151.539C20.2969 151.945 20.2135 152.31 20.0469 152.633C19.8802 152.951 19.638 153.221 19.3203 153.445C19.0078 153.664 18.6328 153.833 18.1953 153.953C17.763 154.068 17.2786 154.125 16.7422 154.125C16.263 154.125 15.7917 154.068 15.3281 153.953C14.8646 153.839 14.4453 153.661 14.0703 153.422C13.6953 153.177 13.3958 152.867 13.1719 152.492C12.9479 152.117 12.8359 151.669 12.8359 151.148H14.9141C14.9141 151.409 14.9557 151.633 15.0391 151.82C15.1276 152.008 15.2526 152.161 15.4141 152.281C15.5807 152.396 15.7839 152.482 16.0234 152.539C16.263 152.591 16.5339 152.617 16.8359 152.617C17.1901 152.617 17.4766 152.568 17.6953 152.469C17.9141 152.37 18.0703 152.242 18.1641 152.086C18.263 151.93 18.3125 151.766 18.3125 151.594ZM29.7969 149.25V149.656C29.7969 150.349 29.6953 150.971 29.4922 151.523C29.2943 152.07 29.0104 152.539 28.6406 152.93C28.2708 153.315 27.8307 153.612 27.3203 153.82C26.8099 154.023 26.2448 154.125 25.625 154.125C25.0052 154.125 24.4401 154.023 23.9297 153.82C23.4193 153.612 22.9766 153.315 22.6016 152.93C22.2266 152.539 21.9375 152.07 21.7344 151.523C21.5312 150.971 21.4297 150.349 21.4297 149.656V149.25C21.4297 148.557 21.5312 147.938 21.7344 147.391C21.9375 146.839 22.224 146.367 22.5938 145.977C22.9635 145.586 23.4036 145.289 23.9141 145.086C24.4245 144.878 24.9896 144.773 25.6094 144.773C26.2292 144.773 26.7943 144.878 27.3047 145.086C27.8151 145.289 28.2552 145.586 28.625 145.977C29 146.367 29.2891 146.839 29.4922 147.391C29.6953 147.938 29.7969 148.557 29.7969 149.25ZM27.7266 149.656V149.234C27.7266 148.781 27.6771 148.38 27.5781 148.031C27.4844 147.677 27.3464 147.38 27.1641 147.141C26.987 146.901 26.7656 146.719 26.5 146.594C26.2396 146.464 25.9427 146.398 25.6094 146.398C25.276 146.398 24.9766 146.464 24.7109 146.594C24.4505 146.719 24.2292 146.901 24.0469 147.141C23.8698 147.38 23.7344 147.677 23.6406 148.031C23.5469 148.38 23.5 148.781 23.5 149.234V149.656C23.5 150.109 23.5469 150.513 23.6406 150.867C23.7344 151.216 23.8724 151.513 24.0547 151.758C24.2422 152.003 24.4661 152.19 24.7266 152.32C24.9922 152.445 25.2917 152.508 25.625 152.508C25.9583 152.508 26.2552 152.445 26.5156 152.32C26.776 152.19 26.9948 152.003 27.1719 151.758C27.3542 151.513 27.4922 151.216 27.5859 150.867C27.6797 150.513 27.7266 150.109 27.7266 149.656ZM37.5234 152.375V154H32.5859V152.375H37.5234ZM33.2812 144.898V154H31.2109V144.898H33.2812ZM43.8828 144.898H45.9609V150.859C45.9609 151.562 45.7995 152.159 45.4766 152.648C45.1589 153.133 44.7161 153.5 44.1484 153.75C43.5859 154 42.9349 154.125 42.1953 154.125C41.4557 154.125 40.8021 154 40.2344 153.75C39.6667 153.5 39.2214 153.133 38.8984 152.648C38.5807 152.159 38.4219 151.562 38.4219 150.859V144.898H40.4844V150.859C40.4844 151.24 40.5521 151.552 40.6875 151.797C40.8281 152.042 41.026 152.221 41.2812 152.336C41.5365 152.451 41.8411 152.508 42.1953 152.508C42.5547 152.508 42.8594 152.451 43.1094 152.336C43.3594 152.221 43.5495 152.042 43.6797 151.797C43.8151 151.552 43.8828 151.24 43.8828 150.859V144.898ZM52.0391 144.898V154H49.9688V144.898H52.0391ZM55.0391 144.898V146.531H47.0234V144.898H55.0391ZM58.3906 144.898V154H56.3203V144.898H58.3906ZM68.3125 149.25V149.656C68.3125 150.349 68.2109 150.971 68.0078 151.523C67.8099 152.07 67.526 152.539 67.1562 152.93C66.7865 153.315 66.3464 153.612 65.8359 153.82C65.3255 154.023 64.7604 154.125 64.1406 154.125C63.5208 154.125 62.9557 154.023 62.4453 153.82C61.9349 153.612 61.4922 153.315 61.1172 152.93C60.7422 152.539 60.4531 152.07 60.25 151.523C60.0469 150.971 59.9453 150.349 59.9453 149.656V149.25C59.9453 148.557 60.0469 147.938 60.25 147.391C60.4531 146.839 60.7396 146.367 61.1094 145.977C61.4792 145.586 61.9193 145.289 62.4297 145.086C62.9401 144.878 63.5052 144.773 64.125 144.773C64.7448 144.773 65.3099 144.878 65.8203 145.086C66.3307 145.289 66.7708 145.586 67.1406 145.977C67.5156 146.367 67.8047 146.839 68.0078 147.391C68.2109 147.938 68.3125 148.557 68.3125 149.25ZM66.2422 149.656V149.234C66.2422 148.781 66.1927 148.38 66.0938 148.031C66 147.677 65.862 147.38 65.6797 147.141C65.5026 146.901 65.2812 146.719 65.0156 146.594C64.7552 146.464 64.4583 146.398 64.125 146.398C63.7917 146.398 63.4922 146.464 63.2266 146.594C62.9661 146.719 62.7448 146.901 62.5625 147.141C62.3854 147.38 62.25 147.677 62.1562 148.031C62.0625 148.38 62.0156 148.781 62.0156 149.234V149.656C62.0156 150.109 62.0625 150.513 62.1562 150.867C62.25 151.216 62.388 151.513 62.5703 151.758C62.7578 152.003 62.9818 152.19 63.2422 152.32C63.5078 152.445 63.8073 152.508 64.1406 152.508C64.474 152.508 64.7708 152.445 65.0312 152.32C65.2917 152.19 65.5104 152.003 65.6875 151.758C65.8698 151.513 66.0078 151.216 66.1016 150.867C66.1953 150.513 66.2422 150.109 66.2422 149.656ZM77.7188 144.898V154H75.6484L71.7969 147.961V154H69.7266V144.898H71.7969L75.6484 150.938V144.898H77.7188ZM88.5156 151.594C88.5156 151.432 88.4844 151.286 88.4219 151.156C88.3646 151.026 88.2682 150.909 88.1328 150.805C87.9974 150.701 87.8099 150.602 87.5703 150.508C87.3359 150.414 87.0417 150.326 86.6875 150.242C86.1302 150.107 85.6432 149.958 85.2266 149.797C84.8099 149.635 84.4609 149.445 84.1797 149.227C83.9036 149.008 83.6953 148.75 83.5547 148.453C83.4193 148.151 83.3516 147.799 83.3516 147.398C83.3516 147.013 83.4349 146.661 83.6016 146.344C83.7734 146.021 84.013 145.742 84.3203 145.508C84.6328 145.273 85 145.094 85.4219 144.969C85.849 144.839 86.3151 144.773 86.8203 144.773C87.5547 144.773 88.1979 144.891 88.75 145.125C89.3073 145.359 89.7396 145.688 90.0469 146.109C90.3542 146.526 90.5078 147.021 90.5078 147.594H88.4375C88.4375 147.354 88.375 147.138 88.25 146.945C88.1302 146.747 87.9505 146.589 87.7109 146.469C87.4714 146.349 87.1745 146.289 86.8203 146.289C86.4818 146.289 86.2005 146.341 85.9766 146.445C85.7578 146.544 85.5938 146.674 85.4844 146.836C85.3802 146.992 85.3281 147.159 85.3281 147.336C85.3281 147.482 85.3594 147.615 85.4219 147.734C85.4896 147.849 85.5938 147.956 85.7344 148.055C85.8802 148.148 86.0703 148.24 86.3047 148.328C86.5391 148.411 86.8229 148.497 87.1562 148.586C87.7083 148.711 88.1927 148.859 88.6094 149.031C89.0312 149.198 89.3802 149.398 89.6562 149.633C89.9375 149.867 90.1484 150.141 90.2891 150.453C90.4297 150.766 90.5 151.128 90.5 151.539C90.5 151.945 90.4167 152.31 90.25 152.633C90.0833 152.951 89.8411 153.221 89.5234 153.445C89.2109 153.664 88.8359 153.833 88.3984 153.953C87.9661 154.068 87.4818 154.125 86.9453 154.125C86.4661 154.125 85.9948 154.068 85.5312 153.953C85.0677 153.839 84.6484 153.661 84.2734 153.422C83.8984 153.177 83.599 152.867 83.375 152.492C83.151 152.117 83.0391 151.669 83.0391 151.148H85.1172C85.1172 151.409 85.1589 151.633 85.2422 151.82C85.3307 152.008 85.4557 152.161 85.6172 152.281C85.7839 152.396 85.987 152.482 86.2266 152.539C86.4661 152.591 86.737 152.617 87.0391 152.617C87.3932 152.617 87.6797 152.568 87.8984 152.469C88.1172 152.37 88.2734 152.242 88.3672 152.086C88.4661 151.93 88.5156 151.766 88.5156 151.594ZM92.0938 152.992C92.0938 152.68 92.2005 152.417 92.4141 152.203C92.6276 151.99 92.9167 151.883 93.2812 151.883C93.6458 151.883 93.9349 151.99 94.1484 152.203C94.362 152.417 94.4688 152.68 94.4688 152.992C94.4688 153.299 94.362 153.56 94.1484 153.773C93.9349 153.982 93.6458 154.086 93.2812 154.086C92.9167 154.086 92.6276 153.982 92.4141 153.773C92.2005 153.56 92.0938 153.299 92.0938 152.992ZM102.125 150.93H104.203C104.156 151.565 103.971 152.122 103.648 152.602C103.326 153.081 102.875 153.456 102.297 153.727C101.724 153.992 101.039 154.125 100.242 154.125C99.6068 154.125 99.0391 154.023 98.5391 153.82C98.0391 153.617 97.612 153.326 97.2578 152.945C96.9089 152.56 96.6406 152.096 96.4531 151.555C96.2708 151.013 96.1797 150.401 96.1797 149.719V149.188C96.1797 148.505 96.276 147.893 96.4688 147.352C96.6615 146.805 96.9349 146.341 97.2891 145.961C97.6432 145.576 98.0677 145.281 98.5625 145.078C99.0625 144.87 99.6224 144.766 100.242 144.766C101.065 144.766 101.758 144.906 102.32 145.188C102.888 145.469 103.328 145.857 103.641 146.352C103.958 146.841 104.148 147.398 104.211 148.023H102.141C102.115 147.711 102.036 147.432 101.906 147.188C101.776 146.943 101.576 146.75 101.305 146.609C101.039 146.469 100.685 146.398 100.242 146.398C99.9141 146.398 99.625 146.458 99.375 146.578C99.125 146.693 98.9167 146.867 98.75 147.102C98.5833 147.331 98.4583 147.62 98.375 147.969C98.2917 148.312 98.25 148.716 98.25 149.18V149.719C98.25 150.177 98.2865 150.581 98.3594 150.93C98.4375 151.273 98.5573 151.562 98.7188 151.797C98.8802 152.031 99.0859 152.208 99.3359 152.328C99.5911 152.448 99.8932 152.508 100.242 152.508C100.654 152.508 100.992 152.451 101.258 152.336C101.523 152.221 101.727 152.047 101.867 151.812C102.013 151.573 102.099 151.279 102.125 150.93Z" fill="#002E19"/>
<path d="M46.8694 62.5326L47.037 63.7603C47.0558 63.8986 47.016 64.039 46.9364 64.1542C46.8568 64.2695 46.7395 64.3575 46.6054 64.391L42.7565 65.3171C42.7419 65.3213 42.7251 65.3234 42.7084 65.3255C42.5994 65.3401 42.4967 65.315 42.415 65.2605C42.3354 65.206 42.2747 65.1201 42.2495 65.0154C42.2453 65.0028 42.2432 64.986 42.2411 64.9672L40.6111 53.0771C40.5922 52.9388 40.632 52.7984 40.7116 52.6832C40.7913 52.568 40.9086 52.48 41.0427 52.4464L44.8915 51.5203C44.9062 51.5162 44.9229 51.5141 44.9397 51.512C45.0487 51.4973 45.1513 51.5224 45.233 51.5769C45.3127 51.6314 45.3734 51.7173 45.3985 51.8221C45.4027 51.8346 45.4048 51.8514 45.4069 51.8702L45.5494 52.9053C45.5515 52.9157 45.5515 52.9262 45.5536 52.9346L46.8673 62.5157L46.8693 62.524L46.8714 62.5303L46.8694 62.5326ZM55.994 30.9858C56.962 32.641 57.9027 34.2521 59.0404 35.0441C59.0802 35.0714 59.1137 35.0944 59.1409 35.1112C59.7423 35.482 60.5887 35.6182 61.4372 35.4506C62.0595 35.327 62.6776 35.0357 63.2014 34.5518C65.2609 37.6903 65.944 40.6717 65.7889 45.7714C65.7889 45.7819 65.7931 45.7903 65.7952 45.8028C64.2846 45.8887 62.8976 46.4251 61.7704 47.2904C60.5866 48.1976 59.6878 49.4589 59.231 50.915C59.6459 50.9632 60.0502 50.9779 60.4462 50.9674C61.2591 50.9465 62.0427 50.8207 62.7991 50.6552C62.8116 50.6531 62.8221 50.651 62.8347 50.6489C63.6455 50.5358 64.5862 50.3137 65.527 50.0916C66.4802 49.8653 67.4357 49.6411 68.2842 49.5238C68.5147 49.4924 68.7367 49.4882 68.9421 49.5112C69.3905 49.5615 69.7781 49.7396 70.0735 50.0371C70.3647 50.3325 70.5596 50.7411 70.6308 51.2607C70.6685 51.5393 70.6706 51.8474 70.6329 52.1889V52.191C70.568 52.7378 70.2621 53.2847 69.8347 53.7707C70.9786 53.3056 72.1456 52.7839 73.3147 52.2664L73.4803 52.193C73.2603 50.408 72.395 48.8219 71.1274 47.6758C69.9289 46.5906 68.3639 45.9033 66.6416 45.8048C66.6416 45.8027 66.6437 45.8006 66.6437 45.7986C66.6689 44.9856 66.6689 44.2272 66.65 43.5085C66.65 43.5023 66.6542 43.496 66.6542 43.4897C66.6437 39.2616 67.75 38.0928 68.8185 36.9654C68.9254 36.8522 69.0343 36.7328 69.1412 36.6134C69.3884 36.9381 69.7132 37.1979 70.0756 37.3969C71.0478 37.9333 72.2693 38.0674 72.9838 37.971C74.2555 37.7992 75.4078 36.7894 76.6294 35.7166C78.1002 34.426 79.6716 33.0495 81.75 32.8169C80.2561 31.3336 78.2133 30.2588 76.1643 29.7056C73.8994 29.0959 71.6366 29.1253 70.1093 29.9465C69.2 30.4368 68.3975 31.1994 68.121 32.2785C67.9156 33.0851 67.9995 34.0741 68.5379 35.2746C68.6615 35.1614 68.7893 35.0525 68.9192 34.9477C70.2937 33.8373 72.0033 33.1375 73.9099 32.4733C74.044 32.4251 74.1928 32.4985 74.2389 32.6325C74.2871 32.7666 74.2137 32.9154 74.0796 32.9615C72.2191 33.6089 70.5577 34.2898 69.2419 35.35C69.068 35.4903 68.9025 35.637 68.7412 35.79C68.7433 35.7941 68.7433 35.7983 68.7454 35.8025C68.7244 35.8193 68.6993 35.8319 68.6804 35.8528C68.5275 36.0288 68.3682 36.1964 68.2006 36.3745C67.4862 37.1287 66.7131 37.948 66.2437 39.6031C65.8079 37.4723 65.0097 35.6852 63.7463 33.8185C63.74 33.8101 63.7317 33.8059 63.7275 33.7996C62.4201 31.6562 60.5973 29.7455 58.2882 28.0546C58.173 27.9708 58.1478 27.8074 58.2316 27.6942C58.3154 27.579 58.4789 27.5539 58.592 27.6377C60.9532 29.3704 62.8242 31.3273 64.1675 33.5269C65.544 32.6302 66.1328 31.6434 66.2606 30.6985C66.3905 29.7452 66.0573 28.8191 65.6006 28.067L65.5922 28.0523C65.5754 28.023 65.5503 27.9853 65.5189 27.9371C65.4832 27.8805 65.4455 27.8281 65.4099 27.7758C64.289 26.2044 61.8921 25.1212 59.2583 24.7566C56.6687 24.3962 53.8652 24.7357 51.8308 25.9865C53.5719 26.8455 54.7997 28.947 55.9918 30.9835L55.994 30.9858ZM82.3262 50.8377C82.2487 50.6491 82.1041 50.4857 81.8946 50.36C81.3583 50.0436 80.4301 49.9912 79.152 50.4249C77.4801 50.9906 75.6824 51.7805 73.8722 52.585C73.868 52.5871 73.8638 52.5892 73.8596 52.5913L73.5286 52.738C71.8545 53.4838 70.1742 54.2297 68.5839 54.8143C68.1251 55.0971 67.6474 55.3046 67.2137 55.401C66.6585 55.5246 66.1891 55.6231 65.7576 55.7152C64.4691 55.9855 63.5367 56.1804 62.1204 56.6916C61.9863 56.7398 61.8396 56.6706 61.7914 56.5366C61.7433 56.4025 61.8124 56.2558 61.9465 56.2076C63.4026 55.6838 64.3455 55.4848 65.6529 55.2103C66.0887 55.1181 66.5663 55.0196 67.1006 54.8981C67.484 54.8122 67.9093 54.6257 68.32 54.3722C68.3305 54.3638 68.3409 54.3576 68.3535 54.3513C68.628 54.1795 68.8941 53.9762 69.135 53.752C69.6609 53.2639 70.0548 52.6877 70.1218 52.1325C70.1553 51.835 70.1532 51.5668 70.1218 51.3321C70.0673 50.9299 69.9207 50.6198 69.7069 50.4019C69.4974 50.1903 69.2167 50.0645 68.8878 50.0268C68.7201 50.008 68.5421 50.0122 68.3556 50.0373C67.5406 50.1483 66.5935 50.3725 65.6465 50.5967C64.6995 50.8209 63.7525 51.0451 62.9081 51.1624C62.1287 51.3321 61.3158 51.462 60.461 51.4851C59.9455 51.4977 59.4155 51.4725 58.8728 51.3908C58.8666 51.3908 58.8603 51.3887 58.8561 51.3887C58.4978 51.3342 58.1332 51.2567 57.7624 51.1499C57.3412 51.0304 56.8992 50.8859 56.4487 50.7371C54.9821 50.2573 53.4023 49.7398 51.8771 49.8802C50.8903 49.9703 49.9076 50.3369 48.9334 50.8921C47.9801 51.4348 47.0309 52.1618 46.0881 52.9915L47.3515 62.2019C50.18 61.808 52.9855 61.4351 54.9904 61.8625C55.7614 62.026 56.4025 62.3046 57.0353 62.5791C58.0577 63.0232 59.0487 63.4527 60.5091 63.304C62.1182 63.1385 63.3711 62.4387 65.2421 61.3932C66.1053 60.9113 67.0984 60.3561 68.3241 59.7422L68.3304 59.738C69.4827 59.078 71.4815 58.0011 73.7192 56.8278C75.9736 55.6441 78.4543 54.3681 80.5369 53.3289C81.6285 52.7842 82.2172 52.0969 82.3639 51.4894C82.4205 51.2526 82.4079 51.0326 82.3304 50.842L82.3262 50.8377Z" fill="#00723F"/>
</svg>
