<svg width="138" height="140" viewBox="0 0 138 140" fill="none" xmlns="http://www.w3.org/2000/svg">
<rect x="22" width="94" height="94" rx="16" fill="#E5EAE8"/>
<path d="M28.0078 113.172V116.875C27.8516 117.047 27.612 117.232 27.2891 117.43C26.9714 117.622 26.5599 117.786 26.0547 117.922C25.5495 118.057 24.9401 118.125 24.2266 118.125C23.5964 118.125 23.0208 118.029 22.5 117.836C21.9792 117.643 21.5312 117.359 21.1562 116.984C20.7812 116.604 20.4922 116.141 20.2891 115.594C20.0859 115.047 19.9844 114.422 19.9844 113.719V113.18C19.9844 112.477 20.0833 111.854 20.2812 111.312C20.4792 110.766 20.7604 110.302 21.125 109.922C21.4896 109.542 21.9219 109.255 22.4219 109.062C22.9271 108.865 23.4844 108.766 24.0938 108.766C24.9583 108.766 25.6641 108.898 26.2109 109.164C26.763 109.424 27.1823 109.786 27.4688 110.25C27.7552 110.714 27.9323 111.245 28 111.844H26C25.9531 111.542 25.8594 111.284 25.7188 111.07C25.5833 110.852 25.388 110.685 25.1328 110.57C24.8828 110.456 24.5573 110.398 24.1562 110.398C23.8333 110.398 23.5417 110.456 23.2812 110.57C23.0208 110.685 22.7995 110.859 22.6172 111.094C22.4349 111.323 22.2969 111.609 22.2031 111.953C22.1094 112.297 22.0625 112.701 22.0625 113.164V113.719C22.0625 114.177 22.1094 114.581 22.2031 114.93C22.3021 115.279 22.4479 115.57 22.6406 115.805C22.8333 116.034 23.0729 116.208 23.3594 116.328C23.651 116.448 23.9844 116.508 24.3594 116.508C24.8125 116.508 25.1615 116.461 25.4062 116.367C25.651 116.268 25.8255 116.18 25.9297 116.102V114.625H24.0703V113.172H28.0078ZM31.7188 108.898V118H29.6484V108.898H31.7188ZM37.4297 114.102H34.9062L34.8906 112.711H37.1328C37.4557 112.711 37.7266 112.672 37.9453 112.594C38.1693 112.51 38.3359 112.391 38.4453 112.234C38.5547 112.073 38.6094 111.878 38.6094 111.648C38.6094 111.383 38.5547 111.169 38.4453 111.008C38.3359 110.841 38.1719 110.721 37.9531 110.648C37.7344 110.57 37.4609 110.531 37.1328 110.531H35.6406V118H33.5703V108.898H36.9922C37.5703 108.898 38.0859 108.951 38.5391 109.055C38.9922 109.154 39.3776 109.307 39.6953 109.516C40.0182 109.719 40.263 109.979 40.4297 110.297C40.5964 110.609 40.6797 110.979 40.6797 111.406C40.6797 111.776 40.5911 112.122 40.4141 112.445C40.237 112.768 39.9531 113.031 39.5625 113.234C39.1771 113.438 38.6667 113.542 38.0312 113.547L37.4297 114.102ZM37.3359 118H34.3594L35.1328 116.375H37.3359C37.6849 116.375 37.9688 116.328 38.1875 116.234C38.4062 116.135 38.5677 116.003 38.6719 115.836C38.7812 115.669 38.8359 115.482 38.8359 115.273C38.8359 115.034 38.7891 114.828 38.6953 114.656C38.6016 114.479 38.4505 114.344 38.2422 114.25C38.0339 114.151 37.763 114.102 37.4297 114.102H35.4844L35.4922 112.711H37.8984L38.375 113.266C38.9844 113.24 39.474 113.333 39.8438 113.547C40.2135 113.755 40.4818 114.026 40.6484 114.359C40.8203 114.693 40.9062 115.036 40.9062 115.391C40.9062 115.839 40.8281 116.227 40.6719 116.555C40.5156 116.878 40.2839 117.148 39.9766 117.367C39.6745 117.581 39.3021 117.74 38.8594 117.844C38.4167 117.948 37.9089 118 37.3359 118ZM47.4688 115.594C47.4688 115.432 47.4375 115.286 47.375 115.156C47.3177 115.026 47.2214 114.909 47.0859 114.805C46.9505 114.701 46.763 114.602 46.5234 114.508C46.2891 114.414 45.9948 114.326 45.6406 114.242C45.0833 114.107 44.5964 113.958 44.1797 113.797C43.763 113.635 43.4141 113.445 43.1328 113.227C42.8568 113.008 42.6484 112.75 42.5078 112.453C42.3724 112.151 42.3047 111.799 42.3047 111.398C42.3047 111.013 42.388 110.661 42.5547 110.344C42.7266 110.021 42.9661 109.742 43.2734 109.508C43.5859 109.273 43.9531 109.094 44.375 108.969C44.8021 108.839 45.2682 108.773 45.7734 108.773C46.5078 108.773 47.151 108.891 47.7031 109.125C48.2604 109.359 48.6927 109.688 49 110.109C49.3073 110.526 49.4609 111.021 49.4609 111.594H47.3906C47.3906 111.354 47.3281 111.138 47.2031 110.945C47.0833 110.747 46.9036 110.589 46.6641 110.469C46.4245 110.349 46.1276 110.289 45.7734 110.289C45.4349 110.289 45.1536 110.341 44.9297 110.445C44.7109 110.544 44.5469 110.674 44.4375 110.836C44.3333 110.992 44.2812 111.159 44.2812 111.336C44.2812 111.482 44.3125 111.615 44.375 111.734C44.4427 111.849 44.5469 111.956 44.6875 112.055C44.8333 112.148 45.0234 112.24 45.2578 112.328C45.4922 112.411 45.776 112.497 46.1094 112.586C46.6615 112.711 47.1458 112.859 47.5625 113.031C47.9844 113.198 48.3333 113.398 48.6094 113.633C48.8906 113.867 49.1016 114.141 49.2422 114.453C49.3828 114.766 49.4531 115.128 49.4531 115.539C49.4531 115.945 49.3698 116.31 49.2031 116.633C49.0365 116.951 48.7943 117.221 48.4766 117.445C48.1641 117.664 47.7891 117.833 47.3516 117.953C46.9193 118.068 46.4349 118.125 45.8984 118.125C45.4193 118.125 44.9479 118.068 44.4844 117.953C44.0208 117.839 43.6016 117.661 43.2266 117.422C42.8516 117.177 42.5521 116.867 42.3281 116.492C42.1042 116.117 41.9922 115.669 41.9922 115.148H44.0703C44.0703 115.409 44.112 115.633 44.1953 115.82C44.2839 116.008 44.4089 116.161 44.5703 116.281C44.737 116.396 44.9401 116.482 45.1797 116.539C45.4193 116.591 45.6901 116.617 45.9922 116.617C46.3464 116.617 46.6328 116.568 46.8516 116.469C47.0703 116.37 47.2266 116.242 47.3203 116.086C47.4193 115.93 47.4688 115.766 47.4688 115.594ZM58.9531 113.25V113.656C58.9531 114.349 58.8516 114.971 58.6484 115.523C58.4505 116.07 58.1667 116.539 57.7969 116.93C57.4271 117.315 56.987 117.612 56.4766 117.82C55.9661 118.023 55.401 118.125 54.7812 118.125C54.1615 118.125 53.5964 118.023 53.0859 117.82C52.5755 117.612 52.1328 117.315 51.7578 116.93C51.3828 116.539 51.0938 116.07 50.8906 115.523C50.6875 114.971 50.5859 114.349 50.5859 113.656V113.25C50.5859 112.557 50.6875 111.938 50.8906 111.391C51.0938 110.839 51.3802 110.367 51.75 109.977C52.1198 109.586 52.5599 109.289 53.0703 109.086C53.5807 108.878 54.1458 108.773 54.7656 108.773C55.3854 108.773 55.9505 108.878 56.4609 109.086C56.9714 109.289 57.4115 109.586 57.7812 109.977C58.1562 110.367 58.4453 110.839 58.6484 111.391C58.8516 111.938 58.9531 112.557 58.9531 113.25ZM56.8828 113.656V113.234C56.8828 112.781 56.8333 112.38 56.7344 112.031C56.6406 111.677 56.5026 111.38 56.3203 111.141C56.1432 110.901 55.9219 110.719 55.6562 110.594C55.3958 110.464 55.099 110.398 54.7656 110.398C54.4323 110.398 54.1328 110.464 53.8672 110.594C53.6068 110.719 53.3854 110.901 53.2031 111.141C53.026 111.38 52.8906 111.677 52.7969 112.031C52.7031 112.38 52.6562 112.781 52.6562 113.234V113.656C52.6562 114.109 52.7031 114.513 52.7969 114.867C52.8906 115.216 53.0286 115.513 53.2109 115.758C53.3984 116.003 53.6224 116.19 53.8828 116.32C54.1484 116.445 54.4479 116.508 54.7812 116.508C55.1146 116.508 55.4115 116.445 55.6719 116.32C55.9323 116.19 56.151 116.003 56.3281 115.758C56.5104 115.513 56.6484 115.216 56.7422 114.867C56.8359 114.513 56.8828 114.109 56.8828 113.656ZM68.3594 108.898V118H66.2891L62.4375 111.961V118H60.3672V108.898H62.4375L66.2891 114.938V108.898H68.3594ZM77.0078 113.898L79.4844 108.898H81.7344L78.3828 115H77.2422L77.0078 113.898ZM75.4688 108.898L77.9609 113.945L77.7031 115H76.5703L73.2188 108.898H75.4688ZM78.4844 113.727V118H76.4141V113.727H78.4844ZM90.6875 113.25V113.656C90.6875 114.349 90.5859 114.971 90.3828 115.523C90.1849 116.07 89.901 116.539 89.5312 116.93C89.1615 117.315 88.7214 117.612 88.2109 117.82C87.7005 118.023 87.1354 118.125 86.5156 118.125C85.8958 118.125 85.3307 118.023 84.8203 117.82C84.3099 117.612 83.8672 117.315 83.4922 116.93C83.1172 116.539 82.8281 116.07 82.625 115.523C82.4219 114.971 82.3203 114.349 82.3203 113.656V113.25C82.3203 112.557 82.4219 111.938 82.625 111.391C82.8281 110.839 83.1146 110.367 83.4844 109.977C83.8542 109.586 84.2943 109.289 84.8047 109.086C85.3151 108.878 85.8802 108.773 86.5 108.773C87.1198 108.773 87.6849 108.878 88.1953 109.086C88.7057 109.289 89.1458 109.586 89.5156 109.977C89.8906 110.367 90.1797 110.839 90.3828 111.391C90.5859 111.938 90.6875 112.557 90.6875 113.25ZM88.6172 113.656V113.234C88.6172 112.781 88.5677 112.38 88.4688 112.031C88.375 111.677 88.237 111.38 88.0547 111.141C87.8776 110.901 87.6562 110.719 87.3906 110.594C87.1302 110.464 86.8333 110.398 86.5 110.398C86.1667 110.398 85.8672 110.464 85.6016 110.594C85.3411 110.719 85.1198 110.901 84.9375 111.141C84.7604 111.38 84.625 111.677 84.5312 112.031C84.4375 112.38 84.3906 112.781 84.3906 113.234V113.656C84.3906 114.109 84.4375 114.513 84.5312 114.867C84.625 115.216 84.763 115.513 84.9453 115.758C85.1328 116.003 85.3568 116.19 85.6172 116.32C85.8828 116.445 86.1823 116.508 86.5156 116.508C86.849 116.508 87.1458 116.445 87.4062 116.32C87.6667 116.19 87.8854 116.003 88.0625 115.758C88.2448 115.513 88.3828 115.216 88.4766 114.867C88.5703 114.513 88.6172 114.109 88.6172 113.656ZM97.4922 108.898H99.5703V114.859C99.5703 115.562 99.4089 116.159 99.0859 116.648C98.7682 117.133 98.3255 117.5 97.7578 117.75C97.1953 118 96.5443 118.125 95.8047 118.125C95.0651 118.125 94.4115 118 93.8438 117.75C93.276 117.5 92.8307 117.133 92.5078 116.648C92.1901 116.159 92.0312 115.562 92.0312 114.859V108.898H94.0938V114.859C94.0938 115.24 94.1615 115.552 94.2969 115.797C94.4375 116.042 94.6354 116.221 94.8906 116.336C95.1458 116.451 95.4505 116.508 95.8047 116.508C96.1641 116.508 96.4688 116.451 96.7188 116.336C96.9688 116.221 97.1589 116.042 97.2891 115.797C97.4245 115.552 97.4922 115.24 97.4922 114.859V108.898ZM105.648 108.898V118H103.578V108.898H105.648ZM108.648 108.898V110.531H100.633V108.898H108.648ZM116.336 112.711V114.344H111.219V112.711H116.336ZM111.859 108.898V118H109.789V108.898H111.859ZM117.789 108.898V118H115.727V108.898H117.789ZM22.125 129.016L19.5469 136H17.4531L21.0859 126.898H22.4922L22.125 129.016ZM24.5781 136L21.9688 129.008L21.6016 126.898H23.0234L26.6641 136H24.5781ZM24.4922 132.617V134.125H19.375V132.617H24.4922ZM33.0859 132.93H35.1641C35.1172 133.565 34.9323 134.122 34.6094 134.602C34.2865 135.081 33.8359 135.456 33.2578 135.727C32.6849 135.992 32 136.125 31.2031 136.125C30.5677 136.125 30 136.023 29.5 135.82C29 135.617 28.5729 135.326 28.2188 134.945C27.8698 134.56 27.6016 134.096 27.4141 133.555C27.2318 133.013 27.1406 132.401 27.1406 131.719V131.188C27.1406 130.505 27.237 129.893 27.4297 129.352C27.6224 128.805 27.8958 128.341 28.25 127.961C28.6042 127.576 29.0286 127.281 29.5234 127.078C30.0234 126.87 30.5833 126.766 31.2031 126.766C32.026 126.766 32.7188 126.906 33.2812 127.188C33.849 127.469 34.2891 127.857 34.6016 128.352C34.9193 128.841 35.1094 129.398 35.1719 130.023H33.1016C33.0755 129.711 32.9974 129.432 32.8672 129.188C32.737 128.943 32.5365 128.75 32.2656 128.609C32 128.469 31.6458 128.398 31.2031 128.398C30.875 128.398 30.5859 128.458 30.3359 128.578C30.0859 128.693 29.8776 128.867 29.7109 129.102C29.5443 129.331 29.4193 129.62 29.3359 129.969C29.2526 130.312 29.2109 130.716 29.2109 131.18V131.719C29.2109 132.177 29.2474 132.581 29.3203 132.93C29.3984 133.273 29.5182 133.562 29.6797 133.797C29.8411 134.031 30.0469 134.208 30.2969 134.328C30.5521 134.448 30.8542 134.508 31.2031 134.508C31.6146 134.508 31.9531 134.451 32.2188 134.336C32.4844 134.221 32.6875 134.047 32.8281 133.812C32.974 133.573 33.0599 133.279 33.0859 132.93ZM40.2969 129.016L37.7188 136H35.625L39.2578 126.898H40.6641L40.2969 129.016ZM42.75 136L40.1406 129.008L39.7734 126.898H41.1953L44.8359 136H42.75ZM42.6641 132.617V134.125H37.5469V132.617H42.6641ZM48.7578 136H46.6172L46.625 134.375H48.7578C49.3255 134.375 49.7865 134.273 50.1406 134.07C50.4948 133.862 50.7526 133.555 50.9141 133.148C51.0807 132.742 51.1641 132.245 51.1641 131.656V131.234C51.1641 130.797 51.1172 130.409 51.0234 130.07C50.9349 129.732 50.7943 129.451 50.6016 129.227C50.4089 128.997 50.1589 128.826 49.8516 128.711C49.5495 128.591 49.1849 128.531 48.7578 128.531H46.5703V126.898H48.7578C49.4193 126.898 50.0234 127.005 50.5703 127.219C51.1172 127.427 51.5885 127.724 51.9844 128.109C52.3854 128.495 52.6953 128.953 52.9141 129.484C53.1328 130.016 53.2422 130.604 53.2422 131.25V131.656C53.2422 132.51 53.0495 133.266 52.6641 133.922C52.2839 134.573 51.7578 135.083 51.0859 135.453C50.4141 135.818 49.638 136 48.7578 136ZM47.7891 126.898V136H45.7188V126.898H47.7891ZM61.25 134.375V136H56.0312V134.375H61.25ZM56.7266 126.898V136H54.6562V126.898H56.7266ZM60.5781 130.484V132.109H56.0312V130.484H60.5781ZM61.25 126.898V128.531H56.0312V126.898H61.25ZM63.3594 126.898H65.1016L67.5547 133.328L70 126.898H71.7422L68.25 136H66.8594L63.3594 126.898ZM62.3906 126.898H64.1406L64.4609 133.766V136H62.3906V126.898ZM70.9766 126.898H72.7344V136H70.6562V133.766L70.9766 126.898ZM77.3906 131.898L79.8672 126.898H82.1172L78.7656 133H77.625L77.3906 131.898ZM75.8516 126.898L78.3438 131.945L78.0859 133H76.9531L73.6016 126.898H75.8516ZM78.8672 131.727V136H76.7969V131.727H78.8672ZM90.8047 132.875H88.3125V131.242H90.8047C91.1797 131.242 91.487 131.188 91.7266 131.078C91.9661 130.969 92.1432 130.82 92.2578 130.633C92.3724 130.44 92.4297 130.224 92.4297 129.984C92.4297 129.724 92.3724 129.484 92.2578 129.266C92.1432 129.047 91.9661 128.87 91.7266 128.734C91.487 128.599 91.1797 128.531 90.8047 128.531H89.0547V136H86.9844V126.898H90.8047C91.5755 126.898 92.2344 127.031 92.7812 127.297C93.3333 127.562 93.7552 127.927 94.0469 128.391C94.3438 128.849 94.4922 129.375 94.4922 129.969C94.4922 130.406 94.4089 130.805 94.2422 131.164C94.0755 131.518 93.8333 131.823 93.5156 132.078C93.1979 132.333 92.8099 132.531 92.3516 132.672C91.8984 132.807 91.3828 132.875 90.8047 132.875ZM96.0391 134.992C96.0391 134.68 96.1458 134.417 96.3594 134.203C96.5729 133.99 96.862 133.883 97.2266 133.883C97.5911 133.883 97.8802 133.99 98.0938 134.203C98.3073 134.417 98.4141 134.68 98.4141 134.992C98.4141 135.299 98.3073 135.56 98.0938 135.773C97.8802 135.982 97.5911 136.086 97.2266 136.086C96.862 136.086 96.5729 135.982 96.3594 135.773C96.1458 135.56 96.0391 135.299 96.0391 134.992ZM106.734 134.375V136H101.797V134.375H106.734ZM102.492 126.898V136H100.422V126.898H102.492ZM108.023 134.992C108.023 134.68 108.13 134.417 108.344 134.203C108.557 133.99 108.846 133.883 109.211 133.883C109.576 133.883 109.865 133.99 110.078 134.203C110.292 134.417 110.398 134.68 110.398 134.992C110.398 135.299 110.292 135.56 110.078 135.773C109.865 135.982 109.576 136.086 109.211 136.086C108.846 136.086 108.557 135.982 108.344 135.773C108.13 135.56 108.023 135.299 108.023 134.992ZM118.055 132.93H120.133C120.086 133.565 119.901 134.122 119.578 134.602C119.255 135.081 118.805 135.456 118.227 135.727C117.654 135.992 116.969 136.125 116.172 136.125C115.536 136.125 114.969 136.023 114.469 135.82C113.969 135.617 113.542 135.326 113.188 134.945C112.839 134.56 112.57 134.096 112.383 133.555C112.201 133.013 112.109 132.401 112.109 131.719V131.188C112.109 130.505 112.206 129.893 112.398 129.352C112.591 128.805 112.865 128.341 113.219 127.961C113.573 127.576 113.997 127.281 114.492 127.078C114.992 126.87 115.552 126.766 116.172 126.766C116.995 126.766 117.688 126.906 118.25 127.188C118.818 127.469 119.258 127.857 119.57 128.352C119.888 128.841 120.078 129.398 120.141 130.023H118.07C118.044 129.711 117.966 129.432 117.836 129.188C117.706 128.943 117.505 128.75 117.234 128.609C116.969 128.469 116.615 128.398 116.172 128.398C115.844 128.398 115.555 128.458 115.305 128.578C115.055 128.693 114.846 128.867 114.68 129.102C114.513 129.331 114.388 129.62 114.305 129.969C114.221 130.312 114.18 130.716 114.18 131.18V131.719C114.18 132.177 114.216 132.581 114.289 132.93C114.367 133.273 114.487 133.562 114.648 133.797C114.81 134.031 115.016 134.208 115.266 134.328C115.521 134.448 115.823 134.508 116.172 134.508C116.583 134.508 116.922 134.451 117.188 134.336C117.453 134.221 117.656 134.047 117.797 133.812C117.943 133.573 118.029 133.279 118.055 132.93Z" fill="#002E19"/>
<g clip-path="url(#clip0_670_578)">
<path d="M76.9723 32.4965C77.308 32.8322 77.7477 33 78.1875 33C78.6273 33 79.067 32.8322 79.4027 32.4965C80.0741 31.8251 80.0741 30.7374 79.4027 30.066L78.8992 29.5625H83.3438C84.2938 29.5625 85.0625 28.7929 85.0625 27.8438C85.0625 26.8946 84.2938 26.125 83.3438 26.125H78.8992L79.4027 25.6215C80.0741 24.9501 80.0741 23.8624 79.4027 23.191C78.7313 22.5197 77.6437 22.5197 76.9723 23.191L73.5348 26.6285C72.8634 27.2999 72.8634 28.3876 73.5348 29.059L76.9723 32.4965Z" fill="#00723F"/>
<path d="M81.1215 35.2223C80.4501 34.5509 79.3624 34.5509 78.691 35.2223C78.0197 35.8937 78.0197 36.9813 78.691 37.6527L79.1946 38.1562H74.75C73.8 38.1562 73.0312 38.9258 73.0312 39.875C73.0312 40.8242 73.8 41.5938 74.75 41.5938H79.1946L78.691 42.0973C78.0197 42.7687 78.0197 43.8563 78.691 44.5277C79.0267 44.8634 79.4665 45.0312 79.9062 45.0312C80.346 45.0312 80.7858 44.8634 81.1215 44.5277L84.559 41.0902C85.2303 40.4188 85.2303 39.3312 84.559 38.6598L81.1215 35.2223Z" fill="#00723F"/>
<path d="M43.7585 65.6562H81.4203L84.6866 61.5734C85.0995 61.0581 85.1784 60.3506 84.893 59.7556C84.606 59.1597 84.0051 58.7812 83.3438 58.7812H54.6454L49.9222 55.6324C49.6402 55.4445 49.3079 55.3438 48.9688 55.3438H38.6563C37.9849 55.3438 37.3756 55.7348 37.0945 56.3441C36.8142 56.9542 36.9149 57.6718 37.3513 58.1812L43.7585 65.6562Z" fill="#00723F"/>
<path d="M45.2314 67.375L47.6635 70.2124C47.99 70.5935 48.4667 70.8125 48.9686 70.8125H76.4686C76.9906 70.8125 77.484 70.575 77.8113 70.1671L80.0451 67.375H45.2314Z" fill="#00723F"/>
<path d="M83.3438 48.4688H74.75V57.0625H83.3438V48.4688Z" fill="#00723F"/>
<path d="M73.0312 48.4688H64.4375V57.0625H73.0312V48.4688Z" fill="#00723F"/>
<path d="M62.7188 48.4688H54.125V57.0625H62.7188V48.4688Z" fill="#00723F"/>
<path d="M45.5312 36.4375C40.7851 36.4375 36.9375 40.2851 36.9375 45.0312C36.9375 49.7774 40.7851 53.625 45.5312 53.625C50.2774 53.625 54.125 49.7774 54.125 45.0312C54.125 40.2851 50.2774 36.4375 45.5312 36.4375ZM45.5312 44.1719C47.4262 44.1719 48.9688 45.7135 48.9688 47.6094C48.9688 49.2066 47.8687 50.5405 46.3906 50.9248V51.0469C46.3906 51.5219 46.0063 51.9062 45.5312 51.9062C45.0562 51.9062 44.6719 51.5219 44.6719 51.0469V50.9248C43.1938 50.5405 42.0938 49.2066 42.0938 47.6094C42.0938 47.1344 42.4781 46.75 42.9531 46.75C43.4281 46.75 43.8125 47.1344 43.8125 47.6094C43.8125 48.5569 44.5829 49.3281 45.5312 49.3281C46.4796 49.3281 47.25 48.5569 47.25 47.6094C47.25 46.6619 46.4796 45.8906 45.5312 45.8906C43.6363 45.8906 42.0938 44.349 42.0938 42.4531C42.0938 40.8559 43.1938 39.522 44.6719 39.1377V39.0156C44.6719 38.5406 45.0562 38.1562 45.5312 38.1562C46.0063 38.1562 46.3906 38.5406 46.3906 39.0156V39.1377C47.8687 39.522 48.9688 40.8559 48.9688 42.4531C48.9688 42.9281 48.5844 43.3125 48.1094 43.3125C47.6344 43.3125 47.25 42.9281 47.25 42.4531C47.25 41.5056 46.4796 40.7344 45.5312 40.7344C44.5829 40.7344 43.8125 41.5056 43.8125 42.4531C43.8125 43.4006 44.5829 44.1719 45.5312 44.1719Z" fill="#00723F"/>
<path d="M50.6875 32.9998C50.6875 34.0057 52.6481 35.2769 56.0016 35.9553C55.8997 34.9802 55.8438 33.9856 55.8438 32.9998C55.8438 32.0139 55.8997 31.0193 56.0016 30.0442C52.6481 30.7226 50.6875 31.9938 50.6875 32.9998Z" fill="#00723F"/>
<path d="M61.0005 27.8438C61.9864 27.8438 62.981 27.8997 63.9561 28.0016C63.2776 24.6481 62.0064 22.6875 61.0005 22.6875C59.9946 22.6875 58.7233 24.6481 58.0449 28.0016C59.02 27.8997 60.0146 27.8438 61.0005 27.8438Z" fill="#00723F"/>
<path d="M64.2326 29.7673C63.2338 29.6479 62.1746 29.5625 61 29.5625C59.8255 29.5625 58.7663 29.648 57.7674 29.7674C57.648 30.7663 57.5625 31.8255 57.5625 33C57.5625 34.1745 57.648 35.2337 57.7674 36.2326C58.7663 36.352 59.8255 36.4375 61 36.4375C62.1746 36.4375 63.2338 36.3521 64.2326 36.2327C64.352 35.2338 64.4375 34.1746 64.4375 33C64.4375 31.8254 64.352 30.7662 64.2326 29.7673Z" fill="#00723F"/>
<path d="M61.0005 38.1564C60.0146 38.1564 59.02 38.1005 58.0449 37.9985C58.7233 41.3521 59.9946 43.3127 61.0005 43.3127C62.0064 43.3127 63.2776 41.3521 63.9561 37.9985C62.981 38.1005 61.9864 38.1564 61.0005 38.1564Z" fill="#00723F"/>
<path d="M56.2522 28.252C56.6016 26.2624 57.1721 24.4598 57.9568 23.1453C54.7094 24.1472 52.1474 26.7092 51.1455 29.9566C52.4601 29.1719 54.2626 28.6013 56.2522 28.252Z" fill="#00723F"/>
<path d="M56.2522 37.748C54.2626 37.3987 52.4601 36.8281 51.1455 36.0435C52.1474 39.2909 54.7094 41.8528 57.9568 42.8548C57.1721 41.5402 56.6016 39.7377 56.2522 37.748Z" fill="#00723F"/>
<path d="M65.748 37.748C65.3985 39.7378 64.8277 41.5404 64.043 42.8549C67.2906 41.8533 69.8529 39.2911 70.8548 36.0435C69.5403 36.8281 67.7376 37.3987 65.748 37.748Z" fill="#00723F"/>
<path d="M71.3123 32.9999C71.3123 31.9938 69.3519 30.7225 65.998 30.0442C66.1 31.0193 66.156 32.014 66.156 32.9999C66.156 33.9858 66.1 34.9805 65.998 35.9555C69.3519 35.2772 71.3123 34.0059 71.3123 32.9999Z" fill="#00723F"/>
<path d="M65.748 28.2516C67.7376 28.6009 69.5403 29.1715 70.8548 29.9562C69.8529 26.7086 67.2906 24.1464 64.043 23.1448C64.8277 24.4592 65.3985 26.2619 65.748 28.2516Z" fill="#00723F"/>
</g>
<defs>
<clipPath id="clip0_670_578">
<rect width="55" height="68.75" fill="white" transform="translate(33.5 19.25)"/>
</clipPath>
</defs>
</svg>
