<svg width="119" height="158" viewBox="0 0 119 158" fill="none" xmlns="http://www.w3.org/2000/svg">
<rect x="12.5" width="94" height="94" rx="16" fill="#E5EAE8"/>
<path d="M20.8984 111.711V113.344H15.7812V111.711H20.8984ZM16.4219 107.898V117H14.3516V107.898H16.4219ZM22.3516 107.898V117H20.2891V107.898H22.3516ZM26.2656 107.898V117H24.1953V107.898H26.2656ZM34.4297 115.375V117H29.4922V115.375H34.4297ZM30.1875 107.898V117H28.1172V107.898H30.1875ZM41.8672 115.375V117H36.9297V115.375H41.8672ZM37.625 107.898V117H35.5547V107.898H37.625ZM52.0781 114.594C52.0781 114.432 52.0469 114.286 51.9844 114.156C51.9271 114.026 51.8307 113.909 51.6953 113.805C51.5599 113.701 51.3724 113.602 51.1328 113.508C50.8984 113.414 50.6042 113.326 50.25 113.242C49.6927 113.107 49.2057 112.958 48.7891 112.797C48.3724 112.635 48.0234 112.445 47.7422 112.227C47.4661 112.008 47.2578 111.75 47.1172 111.453C46.9818 111.151 46.9141 110.799 46.9141 110.398C46.9141 110.013 46.9974 109.661 47.1641 109.344C47.3359 109.021 47.5755 108.742 47.8828 108.508C48.1953 108.273 48.5625 108.094 48.9844 107.969C49.4115 107.839 49.8776 107.773 50.3828 107.773C51.1172 107.773 51.7604 107.891 52.3125 108.125C52.8698 108.359 53.3021 108.688 53.6094 109.109C53.9167 109.526 54.0703 110.021 54.0703 110.594H52C52 110.354 51.9375 110.138 51.8125 109.945C51.6927 109.747 51.513 109.589 51.2734 109.469C51.0339 109.349 50.737 109.289 50.3828 109.289C50.0443 109.289 49.763 109.341 49.5391 109.445C49.3203 109.544 49.1562 109.674 49.0469 109.836C48.9427 109.992 48.8906 110.159 48.8906 110.336C48.8906 110.482 48.9219 110.615 48.9844 110.734C49.0521 110.849 49.1562 110.956 49.2969 111.055C49.4427 111.148 49.6328 111.24 49.8672 111.328C50.1016 111.411 50.3854 111.497 50.7188 111.586C51.2708 111.711 51.7552 111.859 52.1719 112.031C52.5938 112.198 52.9427 112.398 53.2188 112.633C53.5 112.867 53.7109 113.141 53.8516 113.453C53.9922 113.766 54.0625 114.128 54.0625 114.539C54.0625 114.945 53.9792 115.31 53.8125 115.633C53.6458 115.951 53.4036 116.221 53.0859 116.445C52.7734 116.664 52.3984 116.833 51.9609 116.953C51.5286 117.068 51.0443 117.125 50.5078 117.125C50.0286 117.125 49.5573 117.068 49.0938 116.953C48.6302 116.839 48.2109 116.661 47.8359 116.422C47.4609 116.177 47.1615 115.867 46.9375 115.492C46.7135 115.117 46.6016 114.669 46.6016 114.148H48.6797C48.6797 114.409 48.7214 114.633 48.8047 114.82C48.8932 115.008 49.0182 115.161 49.1797 115.281C49.3464 115.396 49.5495 115.482 49.7891 115.539C50.0286 115.591 50.2995 115.617 50.6016 115.617C50.9557 115.617 51.2422 115.568 51.4609 115.469C51.6797 115.37 51.8359 115.242 51.9297 115.086C52.0286 114.93 52.0781 114.766 52.0781 114.594ZM57.7031 107.898V117H55.6328V107.898H57.7031ZM62.5938 117H60.4531L60.4609 115.375H62.5938C63.1615 115.375 63.6224 115.273 63.9766 115.07C64.3307 114.862 64.5885 114.555 64.75 114.148C64.9167 113.742 65 113.245 65 112.656V112.234C65 111.797 64.9531 111.409 64.8594 111.07C64.7708 110.732 64.6302 110.451 64.4375 110.227C64.2448 109.997 63.9948 109.826 63.6875 109.711C63.3854 109.591 63.0208 109.531 62.5938 109.531H60.4062V107.898H62.5938C63.2552 107.898 63.8594 108.005 64.4062 108.219C64.9531 108.427 65.4245 108.724 65.8203 109.109C66.2214 109.495 66.5312 109.953 66.75 110.484C66.9688 111.016 67.0781 111.604 67.0781 112.25V112.656C67.0781 113.51 66.8854 114.266 66.5 114.922C66.1198 115.573 65.5938 116.083 64.9219 116.453C64.25 116.818 63.474 117 62.5938 117ZM61.625 107.898V117H59.5547V107.898H61.625ZM75.0859 115.375V117H69.8672V115.375H75.0859ZM70.5625 107.898V117H68.4922V107.898H70.5625ZM74.4141 111.484V113.109H69.8672V111.484H74.4141ZM75.0859 107.898V109.531H69.8672V107.898H75.0859ZM84.0312 113.875H81.5391V112.242H84.0312C84.4062 112.242 84.7135 112.188 84.9531 112.078C85.1927 111.969 85.3698 111.82 85.4844 111.633C85.599 111.44 85.6562 111.224 85.6562 110.984C85.6562 110.724 85.599 110.484 85.4844 110.266C85.3698 110.047 85.1927 109.87 84.9531 109.734C84.7135 109.599 84.4062 109.531 84.0312 109.531H82.2812V117H80.2109V107.898H84.0312C84.8021 107.898 85.4609 108.031 86.0078 108.297C86.5599 108.562 86.9818 108.927 87.2734 109.391C87.5703 109.849 87.7188 110.375 87.7188 110.969C87.7188 111.406 87.6354 111.805 87.4688 112.164C87.3021 112.518 87.0599 112.823 86.7422 113.078C86.4245 113.333 86.0365 113.531 85.5781 113.672C85.125 113.807 84.6094 113.875 84.0312 113.875ZM95.4141 115.375V117H90.4766V115.375H95.4141ZM91.1719 107.898V117H89.1016V107.898H91.1719ZM102.047 113.93H104.125C104.078 114.565 103.893 115.122 103.57 115.602C103.247 116.081 102.797 116.456 102.219 116.727C101.646 116.992 100.961 117.125 100.164 117.125C99.5286 117.125 98.9609 117.023 98.4609 116.82C97.9609 116.617 97.5339 116.326 97.1797 115.945C96.8307 115.56 96.5625 115.096 96.375 114.555C96.1927 114.013 96.1016 113.401 96.1016 112.719V112.188C96.1016 111.505 96.1979 110.893 96.3906 110.352C96.5833 109.805 96.8568 109.341 97.2109 108.961C97.5651 108.576 97.9896 108.281 98.4844 108.078C98.9844 107.87 99.5443 107.766 100.164 107.766C100.987 107.766 101.68 107.906 102.242 108.188C102.81 108.469 103.25 108.857 103.562 109.352C103.88 109.841 104.07 110.398 104.133 111.023H102.062C102.036 110.711 101.958 110.432 101.828 110.188C101.698 109.943 101.497 109.75 101.227 109.609C100.961 109.469 100.607 109.398 100.164 109.398C99.8359 109.398 99.5469 109.458 99.2969 109.578C99.0469 109.693 98.8385 109.867 98.6719 110.102C98.5052 110.331 98.3802 110.62 98.2969 110.969C98.2135 111.312 98.1719 111.716 98.1719 112.18V112.719C98.1719 113.177 98.2083 113.581 98.2812 113.93C98.3594 114.273 98.4792 114.562 98.6406 114.797C98.8021 115.031 99.0078 115.208 99.2578 115.328C99.513 115.448 99.8151 115.508 100.164 115.508C100.576 115.508 100.914 115.451 101.18 115.336C101.445 115.221 101.648 115.047 101.789 114.812C101.935 114.573 102.021 114.279 102.047 113.93Z" fill="#002E19"/>
<g clip-path="url(#clip0_670_604)">
<path d="M79.4723 32.4965C79.808 32.8322 80.2477 33 80.6875 33C81.1273 33 81.567 32.8322 81.9027 32.4965C82.5741 31.8251 82.5741 30.7374 81.9027 30.066L81.3992 29.5625H85.8438C86.7938 29.5625 87.5625 28.7929 87.5625 27.8438C87.5625 26.8946 86.7938 26.125 85.8438 26.125H81.3992L81.9027 25.6215C82.5741 24.9501 82.5741 23.8624 81.9027 23.191C81.2313 22.5197 80.1437 22.5197 79.4723 23.191L76.0348 26.6285C75.3634 27.2999 75.3634 28.3876 76.0348 29.059L79.4723 32.4965Z" fill="#00723F"/>
<path d="M83.6215 35.2223C82.9501 34.5509 81.8624 34.5509 81.191 35.2223C80.5197 35.8937 80.5197 36.9813 81.191 37.6527L81.6946 38.1562H77.25C76.3 38.1562 75.5312 38.9258 75.5312 39.875C75.5312 40.8242 76.3 41.5938 77.25 41.5938H81.6946L81.191 42.0973C80.5197 42.7687 80.5197 43.8563 81.191 44.5277C81.5267 44.8634 81.9665 45.0312 82.4062 45.0312C82.846 45.0312 83.2858 44.8634 83.6215 44.5277L87.059 41.0902C87.7303 40.4188 87.7303 39.3312 87.059 38.6598L83.6215 35.2223Z" fill="#00723F"/>
<path d="M46.2585 65.6562H83.9203L87.1866 61.5734C87.5995 61.0581 87.6784 60.3506 87.393 59.7556C87.106 59.1597 86.5051 58.7812 85.8438 58.7812H57.1454L52.4222 55.6324C52.1402 55.4445 51.8079 55.3438 51.4688 55.3438H41.1563C40.4849 55.3438 39.8756 55.7348 39.5945 56.3441C39.3142 56.9542 39.4149 57.6718 39.8513 58.1812L46.2585 65.6562Z" fill="#00723F"/>
<path d="M47.7314 67.375L50.1635 70.2124C50.49 70.5935 50.9667 70.8125 51.4686 70.8125H78.9686C79.4906 70.8125 79.984 70.575 80.3113 70.1671L82.5451 67.375H47.7314Z" fill="#00723F"/>
<path d="M85.8438 48.4688H77.25V57.0625H85.8438V48.4688Z" fill="#00723F"/>
<path d="M75.5312 48.4688H66.9375V57.0625H75.5312V48.4688Z" fill="#00723F"/>
<path d="M65.2188 48.4688H56.625V57.0625H65.2188V48.4688Z" fill="#00723F"/>
<path d="M48.0312 36.4375C43.2851 36.4375 39.4375 40.2851 39.4375 45.0312C39.4375 49.7774 43.2851 53.625 48.0312 53.625C52.7774 53.625 56.625 49.7774 56.625 45.0312C56.625 40.2851 52.7774 36.4375 48.0312 36.4375ZM48.0312 44.1719C49.9262 44.1719 51.4688 45.7135 51.4688 47.6094C51.4688 49.2066 50.3687 50.5405 48.8906 50.9248V51.0469C48.8906 51.5219 48.5063 51.9062 48.0312 51.9062C47.5562 51.9062 47.1719 51.5219 47.1719 51.0469V50.9248C45.6938 50.5405 44.5938 49.2066 44.5938 47.6094C44.5938 47.1344 44.9781 46.75 45.4531 46.75C45.9281 46.75 46.3125 47.1344 46.3125 47.6094C46.3125 48.5569 47.0829 49.3281 48.0312 49.3281C48.9796 49.3281 49.75 48.5569 49.75 47.6094C49.75 46.6619 48.9796 45.8906 48.0312 45.8906C46.1363 45.8906 44.5938 44.349 44.5938 42.4531C44.5938 40.8559 45.6938 39.522 47.1719 39.1377V39.0156C47.1719 38.5406 47.5562 38.1562 48.0312 38.1562C48.5063 38.1562 48.8906 38.5406 48.8906 39.0156V39.1377C50.3687 39.522 51.4688 40.8559 51.4688 42.4531C51.4688 42.9281 51.0844 43.3125 50.6094 43.3125C50.1344 43.3125 49.75 42.9281 49.75 42.4531C49.75 41.5056 48.9796 40.7344 48.0312 40.7344C47.0829 40.7344 46.3125 41.5056 46.3125 42.4531C46.3125 43.4006 47.0829 44.1719 48.0312 44.1719Z" fill="#00723F"/>
<path d="M53.1875 32.9998C53.1875 34.0057 55.1481 35.2769 58.5016 35.9553C58.3997 34.9802 58.3438 33.9856 58.3438 32.9998C58.3438 32.0139 58.3997 31.0193 58.5016 30.0442C55.1481 30.7226 53.1875 31.9938 53.1875 32.9998Z" fill="#00723F"/>
<path d="M63.5005 27.8438C64.4864 27.8438 65.481 27.8997 66.4561 28.0016C65.7776 24.6481 64.5064 22.6875 63.5005 22.6875C62.4946 22.6875 61.2233 24.6481 60.5449 28.0016C61.52 27.8997 62.5146 27.8438 63.5005 27.8438Z" fill="#00723F"/>
<path d="M66.7326 29.7673C65.7338 29.6479 64.6746 29.5625 63.5 29.5625C62.3255 29.5625 61.2663 29.648 60.2674 29.7674C60.148 30.7663 60.0625 31.8255 60.0625 33C60.0625 34.1745 60.148 35.2337 60.2674 36.2326C61.2663 36.352 62.3255 36.4375 63.5 36.4375C64.6746 36.4375 65.7338 36.3521 66.7326 36.2327C66.852 35.2338 66.9375 34.1746 66.9375 33C66.9375 31.8254 66.852 30.7662 66.7326 29.7673Z" fill="#00723F"/>
<path d="M63.5005 38.1564C62.5146 38.1564 61.52 38.1005 60.5449 37.9985C61.2233 41.3521 62.4946 43.3127 63.5005 43.3127C64.5064 43.3127 65.7776 41.3521 66.4561 37.9985C65.481 38.1005 64.4864 38.1564 63.5005 38.1564Z" fill="#00723F"/>
<path d="M58.7522 28.252C59.1016 26.2624 59.6721 24.4598 60.4568 23.1453C57.2094 24.1472 54.6474 26.7092 53.6455 29.9566C54.9601 29.1719 56.7626 28.6013 58.7522 28.252Z" fill="#00723F"/>
<path d="M58.7522 37.748C56.7626 37.3987 54.9601 36.8281 53.6455 36.0435C54.6474 39.2909 57.2094 41.8528 60.4568 42.8548C59.6721 41.5402 59.1016 39.7377 58.7522 37.748Z" fill="#00723F"/>
<path d="M68.248 37.748C67.8985 39.7378 67.3277 41.5404 66.543 42.8549C69.7906 41.8533 72.3529 39.2911 73.3548 36.0435C72.0403 36.8281 70.2376 37.3987 68.248 37.748Z" fill="#00723F"/>
<path d="M73.8123 32.9999C73.8123 31.9938 71.8519 30.7225 68.498 30.0442C68.6 31.0193 68.656 32.014 68.656 32.9999C68.656 33.9858 68.6 34.9805 68.498 35.9555C71.8519 35.2772 73.8123 34.0059 73.8123 32.9999Z" fill="#00723F"/>
<path d="M68.248 28.2516C70.2376 28.6009 72.0403 29.1715 73.3548 29.9562C72.3529 26.7086 69.7906 24.1464 66.543 23.1448C67.3277 24.4592 67.8985 26.2619 68.248 28.2516Z" fill="#00723F"/>
</g>
<defs>
<clipPath id="clip0_670_604">
<rect width="55" height="68.75" fill="white" transform="translate(36 19.25)"/>
</clipPath>
</defs>
</svg>
