<svg width="387" height="133" viewBox="0 0 387 133" fill="none" xmlns="http://www.w3.org/2000/svg">
<rect width="387" height="133" rx="16" fill="#E5EAE8"/>
<path d="M21.1641 15.8984V25H19.2812V15.8984H21.1641ZM24.1953 15.8984V17.3984H16.2891V15.8984H24.1953ZM33.3594 20.2344V20.6719C33.3594 21.3646 33.2604 21.9844 33.0625 22.5312C32.8646 23.0781 32.5833 23.5469 32.2188 23.9375C31.8594 24.3229 31.4271 24.6172 30.9219 24.8203C30.4167 25.0234 29.8594 25.125 29.25 25.125C28.6406 25.125 28.0833 25.0234 27.5781 24.8203C27.0729 24.6172 26.6354 24.3229 26.2656 23.9375C25.8958 23.5469 25.6094 23.0781 25.4062 22.5312C25.2083 21.9844 25.1094 21.3646 25.1094 20.6719V20.2344C25.1094 19.5417 25.2083 18.9219 25.4062 18.375C25.6094 17.8281 25.8932 17.3594 26.2578 16.9688C26.6224 16.5781 27.0573 16.2812 27.5625 16.0781C28.0677 15.875 28.625 15.7734 29.2344 15.7734C29.849 15.7734 30.4062 15.875 30.9062 16.0781C31.4115 16.2812 31.8464 16.5781 32.2109 16.9688C32.5807 17.3594 32.8646 17.8281 33.0625 18.375C33.2604 18.9219 33.3594 19.5417 33.3594 20.2344ZM31.4766 20.6719V20.2188C31.4766 19.7448 31.4271 19.3255 31.3281 18.9609C31.2292 18.5964 31.0807 18.2891 30.8828 18.0391C30.6901 17.7891 30.4557 17.599 30.1797 17.4688C29.9036 17.3385 29.5885 17.2734 29.2344 17.2734C28.8854 17.2734 28.5703 17.3385 28.2891 17.4688C28.013 17.599 27.7786 17.7891 27.5859 18.0391C27.3984 18.2891 27.2526 18.5964 27.1484 18.9609C27.0495 19.3255 27 19.7448 27 20.2188V20.6719C27 21.1406 27.0495 21.5599 27.1484 21.9297C27.2526 22.2943 27.401 22.6042 27.5938 22.8594C27.7917 23.1094 28.0286 23.3021 28.3047 23.4375C28.5859 23.5677 28.901 23.6328 29.25 23.6328C29.6042 23.6328 29.9167 23.5677 30.1875 23.4375C30.4635 23.3021 30.6979 23.1094 30.8906 22.8594C31.0833 22.6042 31.2292 22.2943 31.3281 21.9297C31.4271 21.5599 31.4766 21.1406 31.4766 20.6719ZM35.7422 15.8984H37.3672L40 22.5312L42.625 15.8984H44.25L40.6406 25H39.3516L35.7422 15.8984ZM34.9062 15.8984H36.5L36.7891 22.5V25H34.9062V15.8984ZM43.5 15.8984H45.1016V25H43.2188V22.5L43.5 15.8984ZM54.8906 20.2344V20.6719C54.8906 21.3646 54.7917 21.9844 54.5938 22.5312C54.3958 23.0781 54.1146 23.5469 53.75 23.9375C53.3906 24.3229 52.9583 24.6172 52.4531 24.8203C51.9479 25.0234 51.3906 25.125 50.7812 25.125C50.1719 25.125 49.6146 25.0234 49.1094 24.8203C48.6042 24.6172 48.1667 24.3229 47.7969 23.9375C47.4271 23.5469 47.1406 23.0781 46.9375 22.5312C46.7396 21.9844 46.6406 21.3646 46.6406 20.6719V20.2344C46.6406 19.5417 46.7396 18.9219 46.9375 18.375C47.1406 17.8281 47.4245 17.3594 47.7891 16.9688C48.1536 16.5781 48.5885 16.2812 49.0938 16.0781C49.599 15.875 50.1562 15.7734 50.7656 15.7734C51.3802 15.7734 51.9375 15.875 52.4375 16.0781C52.9427 16.2812 53.3776 16.5781 53.7422 16.9688C54.112 17.3594 54.3958 17.8281 54.5938 18.375C54.7917 18.9219 54.8906 19.5417 54.8906 20.2344ZM53.0078 20.6719V20.2188C53.0078 19.7448 52.9583 19.3255 52.8594 18.9609C52.7604 18.5964 52.612 18.2891 52.4141 18.0391C52.2214 17.7891 51.987 17.599 51.7109 17.4688C51.4349 17.3385 51.1198 17.2734 50.7656 17.2734C50.4167 17.2734 50.1016 17.3385 49.8203 17.4688C49.5443 17.599 49.3099 17.7891 49.1172 18.0391C48.9297 18.2891 48.7839 18.5964 48.6797 18.9609C48.5807 19.3255 48.5312 19.7448 48.5312 20.2188V20.6719C48.5312 21.1406 48.5807 21.5599 48.6797 21.9297C48.7839 22.2943 48.9323 22.6042 49.125 22.8594C49.3229 23.1094 49.5599 23.3021 49.8359 23.4375C50.1172 23.5677 50.4323 23.6328 50.7812 23.6328C51.1354 23.6328 51.4479 23.5677 51.7188 23.4375C51.9948 23.3021 52.2292 23.1094 52.4219 22.8594C52.6146 22.6042 52.7604 22.2943 52.8594 21.9297C52.9583 21.5599 53.0078 21.1406 53.0078 20.6719ZM62.1406 21.9688H64.0312C63.9844 22.5885 63.8021 23.1354 63.4844 23.6094C63.1719 24.0833 62.7344 24.4557 62.1719 24.7266C61.6094 24.9922 60.9297 25.125 60.1328 25.125C59.513 25.125 58.9557 25.0234 58.4609 24.8203C57.9714 24.6172 57.5521 24.3281 57.2031 23.9531C56.8594 23.5729 56.5938 23.1146 56.4062 22.5781C56.224 22.0365 56.1328 21.4297 56.1328 20.7578V20.1484C56.1328 19.4766 56.2266 18.8724 56.4141 18.3359C56.6016 17.7943 56.8724 17.3333 57.2266 16.9531C57.5807 16.5677 58.0026 16.276 58.4922 16.0781C58.987 15.875 59.5417 15.7734 60.1562 15.7734C60.9635 15.7734 61.6432 15.9115 62.1953 16.1875C62.7474 16.4583 63.1771 16.8359 63.4844 17.3203C63.7917 17.8047 63.9766 18.3594 64.0391 18.9844H62.1562C62.125 18.6458 62.0391 18.349 61.8984 18.0938C61.7578 17.8333 61.5469 17.6302 61.2656 17.4844C60.9844 17.3385 60.6146 17.2656 60.1562 17.2656C59.8021 17.2656 59.4922 17.3281 59.2266 17.4531C58.9609 17.5729 58.737 17.7552 58.5547 18C58.3776 18.2448 58.2422 18.5469 58.1484 18.9062C58.0599 19.2604 58.0156 19.6719 58.0156 20.1406V20.7578C58.0156 21.2161 58.0547 21.625 58.1328 21.9844C58.2161 22.3385 58.3438 22.638 58.5156 22.8828C58.6875 23.1276 58.9062 23.3151 59.1719 23.4453C59.4427 23.5703 59.763 23.6328 60.1328 23.6328C60.5755 23.6328 60.9375 23.5729 61.2188 23.4531C61.5 23.3281 61.7161 23.1406 61.8672 22.8906C62.0182 22.6406 62.1094 22.3333 62.1406 21.9688ZM69.2188 17.7656L66.4844 25H64.5781L68.2422 15.8984H69.5078L69.2188 17.7656ZM71.7422 25L68.9922 17.75L68.7031 15.8984H69.9922L73.6484 25H71.7422ZM71.625 21.625V23.0391H66.4219V21.625H71.625ZM78.7109 20.5078V20.375C78.7109 19.2604 78.8307 18.25 79.0703 17.3438C79.3151 16.4323 79.6328 15.6354 80.0234 14.9531C80.4141 14.2656 80.8307 13.6979 81.2734 13.25C81.7214 12.7969 82.151 12.4714 82.5625 12.2734L82.9375 13.3516C82.6354 13.5755 82.3333 13.8854 82.0312 14.2812C81.7344 14.6771 81.4609 15.1641 81.2109 15.7422C80.9661 16.3151 80.7682 16.987 80.6172 17.7578C80.4714 18.5234 80.3984 19.3906 80.3984 20.3594V20.5234C80.3984 21.4922 80.4714 22.362 80.6172 23.1328C80.7682 23.8984 80.9661 24.5703 81.2109 25.1484C81.4609 25.7266 81.7344 26.2161 82.0312 26.6172C82.3333 27.0234 82.6354 27.3464 82.9375 27.5859L82.5625 28.6172C82.151 28.4141 81.7214 28.0859 81.2734 27.6328C80.8307 27.1849 80.4141 26.6172 80.0234 25.9297C79.6328 25.2474 79.3151 24.4531 79.0703 23.5469C78.8307 22.6354 78.7109 21.6224 78.7109 20.5078ZM89.875 21.9688H91.7656C91.7188 22.5885 91.5365 23.1354 91.2188 23.6094C90.9062 24.0833 90.4688 24.4557 89.9062 24.7266C89.3438 24.9922 88.6641 25.125 87.8672 25.125C87.2474 25.125 86.6901 25.0234 86.1953 24.8203C85.7057 24.6172 85.2865 24.3281 84.9375 23.9531C84.5938 23.5729 84.3281 23.1146 84.1406 22.5781C83.9583 22.0365 83.8672 21.4297 83.8672 20.7578V20.1484C83.8672 19.4766 83.9609 18.8724 84.1484 18.3359C84.3359 17.7943 84.6068 17.3333 84.9609 16.9531C85.3151 16.5677 85.737 16.276 86.2266 16.0781C86.7214 15.875 87.276 15.7734 87.8906 15.7734C88.6979 15.7734 89.3776 15.9115 89.9297 16.1875C90.4818 16.4583 90.9115 16.8359 91.2188 17.3203C91.526 17.8047 91.7109 18.3594 91.7734 18.9844H89.8906C89.8594 18.6458 89.7734 18.349 89.6328 18.0938C89.4922 17.8333 89.2812 17.6302 89 17.4844C88.7188 17.3385 88.349 17.2656 87.8906 17.2656C87.5365 17.2656 87.2266 17.3281 86.9609 17.4531C86.6953 17.5729 86.4714 17.7552 86.2891 18C86.112 18.2448 85.9766 18.5469 85.8828 18.9062C85.7943 19.2604 85.75 19.6719 85.75 20.1406V20.7578C85.75 21.2161 85.7891 21.625 85.8672 21.9844C85.9505 22.3385 86.0781 22.638 86.25 22.8828C86.4219 23.1276 86.6406 23.3151 86.9062 23.4453C87.1771 23.5703 87.4974 23.6328 87.8672 23.6328C88.3099 23.6328 88.6719 23.5729 88.9531 23.4531C89.2344 23.3281 89.4505 23.1406 89.6016 22.8906C89.7526 22.6406 89.8438 22.3333 89.875 21.9688ZM101.109 20.2344V20.6719C101.109 21.3646 101.01 21.9844 100.812 22.5312C100.615 23.0781 100.333 23.5469 99.9688 23.9375C99.6094 24.3229 99.1771 24.6172 98.6719 24.8203C98.1667 25.0234 97.6094 25.125 97 25.125C96.3906 25.125 95.8333 25.0234 95.3281 24.8203C94.8229 24.6172 94.3854 24.3229 94.0156 23.9375C93.6458 23.5469 93.3594 23.0781 93.1562 22.5312C92.9583 21.9844 92.8594 21.3646 92.8594 20.6719V20.2344C92.8594 19.5417 92.9583 18.9219 93.1562 18.375C93.3594 17.8281 93.6432 17.3594 94.0078 16.9688C94.3724 16.5781 94.8073 16.2812 95.3125 16.0781C95.8177 15.875 96.375 15.7734 96.9844 15.7734C97.599 15.7734 98.1562 15.875 98.6562 16.0781C99.1615 16.2812 99.5964 16.5781 99.9609 16.9688C100.331 17.3594 100.615 17.8281 100.812 18.375C101.01 18.9219 101.109 19.5417 101.109 20.2344ZM99.2266 20.6719V20.2188C99.2266 19.7448 99.1771 19.3255 99.0781 18.9609C98.9792 18.5964 98.8307 18.2891 98.6328 18.0391C98.4401 17.7891 98.2057 17.599 97.9297 17.4688C97.6536 17.3385 97.3385 17.2734 96.9844 17.2734C96.6354 17.2734 96.3203 17.3385 96.0391 17.4688C95.763 17.599 95.5286 17.7891 95.3359 18.0391C95.1484 18.2891 95.0026 18.5964 94.8984 18.9609C94.7995 19.3255 94.75 19.7448 94.75 20.2188V20.6719C94.75 21.1406 94.7995 21.5599 94.8984 21.9297C95.0026 22.2943 95.151 22.6042 95.3438 22.8594C95.5417 23.1094 95.7786 23.3021 96.0547 23.4375C96.3359 23.5677 96.651 23.6328 97 23.6328C97.3542 23.6328 97.6667 23.5677 97.9375 23.4375C98.2135 23.3021 98.4479 23.1094 98.6406 22.8594C98.8333 22.6042 98.9792 22.2943 99.0781 21.9297C99.1771 21.5599 99.2266 21.1406 99.2266 20.6719ZM104.539 15.8984V25H102.656V15.8984H104.539ZM108.484 19.7656V21.2656H104.031V19.7656H108.484ZM108.992 15.8984V17.3984H104.031V15.8984H108.992ZM112.102 15.8984V25H110.219V15.8984H112.102ZM116.047 19.7656V21.2656H111.594V19.7656H116.047ZM116.555 15.8984V17.3984H111.594V15.8984H116.555ZM124.281 23.5078V25H119.07V23.5078H124.281ZM119.664 15.8984V25H117.781V15.8984H119.664ZM123.609 19.5469V21.0391H119.07V19.5469H123.609ZM124.266 15.8984V17.3984H119.07V15.8984H124.266ZM132.031 23.5078V25H126.82V23.5078H132.031ZM127.414 15.8984V25H125.531V15.8984H127.414ZM131.359 19.5469V21.0391H126.82V19.5469H131.359ZM132.016 15.8984V17.3984H126.82V15.8984H132.016ZM136.961 20.375V20.5078C136.961 21.6068 136.836 22.6094 136.586 23.5156C136.341 24.4219 136.021 25.2188 135.625 25.9062C135.234 26.5938 134.81 27.1667 134.352 27.625C133.898 28.0833 133.464 28.4141 133.047 28.6172L132.664 27.5859C132.966 27.3568 133.266 27.0417 133.562 26.6406C133.865 26.2448 134.138 25.7526 134.383 25.1641C134.633 24.5807 134.831 23.9036 134.977 23.1328C135.128 22.362 135.203 21.4922 135.203 20.5234V20.3594C135.203 19.3906 135.125 18.5208 134.969 17.75C134.818 16.974 134.615 16.2969 134.359 15.7188C134.104 15.1354 133.828 14.6432 133.531 14.2422C133.234 13.8411 132.945 13.5286 132.664 13.3047L133.047 12.2734C133.464 12.4714 133.898 12.7995 134.352 13.2578C134.81 13.7161 135.234 14.2917 135.625 14.9844C136.021 15.6719 136.341 16.4688 136.586 17.375C136.836 18.2812 136.961 19.2812 136.961 20.375ZM146.625 21.7891H144.109V20.2891H146.625C147.031 20.2891 147.362 20.2292 147.617 20.1094C147.878 19.9896 148.068 19.8281 148.188 19.625C148.312 19.4167 148.375 19.1823 148.375 18.9219C148.375 18.651 148.312 18.401 148.188 18.1719C148.068 17.9427 147.878 17.7578 147.617 17.6172C147.362 17.4714 147.031 17.3984 146.625 17.3984H144.742V25H142.859V15.8984H146.625C147.391 15.8984 148.044 16.0286 148.586 16.2891C149.128 16.5495 149.539 16.9062 149.82 17.3594C150.107 17.8073 150.25 18.3229 150.25 18.9062C150.25 19.3438 150.169 19.7396 150.008 20.0938C149.846 20.4479 149.609 20.7526 149.297 21.0078C148.984 21.2578 148.604 21.4505 148.156 21.5859C147.708 21.7214 147.198 21.7891 146.625 21.7891ZM151.828 24.0625C151.828 23.7708 151.927 23.526 152.125 23.3281C152.323 23.125 152.591 23.0234 152.93 23.0234C153.273 23.0234 153.542 23.125 153.734 23.3281C153.932 23.526 154.031 23.7708 154.031 24.0625C154.031 24.3542 153.932 24.599 153.734 24.7969C153.542 24.9948 153.273 25.0938 152.93 25.0938C152.591 25.0938 152.323 24.9948 152.125 24.7969C151.927 24.599 151.828 24.3542 151.828 24.0625ZM162.375 23.5078V25H157.445V23.5078H162.375ZM158.039 15.8984V25H156.156V15.8984H158.039ZM163.719 24.0625C163.719 23.7708 163.818 23.526 164.016 23.3281C164.214 23.125 164.482 23.0234 164.82 23.0234C165.164 23.0234 165.432 23.125 165.625 23.3281C165.823 23.526 165.922 23.7708 165.922 24.0625C165.922 24.3542 165.823 24.599 165.625 24.7969C165.432 24.9948 165.164 25.0938 164.82 25.0938C164.482 25.0938 164.214 24.9948 164.016 24.7969C163.818 24.599 163.719 24.3542 163.719 24.0625ZM173.75 21.9688H175.641C175.594 22.5885 175.411 23.1354 175.094 23.6094C174.781 24.0833 174.344 24.4557 173.781 24.7266C173.219 24.9922 172.539 25.125 171.742 25.125C171.122 25.125 170.565 25.0234 170.07 24.8203C169.581 24.6172 169.161 24.3281 168.812 23.9531C168.469 23.5729 168.203 23.1146 168.016 22.5781C167.833 22.0365 167.742 21.4297 167.742 20.7578V20.1484C167.742 19.4766 167.836 18.8724 168.023 18.3359C168.211 17.7943 168.482 17.3333 168.836 16.9531C169.19 16.5677 169.612 16.276 170.102 16.0781C170.596 15.875 171.151 15.7734 171.766 15.7734C172.573 15.7734 173.253 15.9115 173.805 16.1875C174.357 16.4583 174.786 16.8359 175.094 17.3203C175.401 17.8047 175.586 18.3594 175.648 18.9844H173.766C173.734 18.6458 173.648 18.349 173.508 18.0938C173.367 17.8333 173.156 17.6302 172.875 17.4844C172.594 17.3385 172.224 17.2656 171.766 17.2656C171.411 17.2656 171.102 17.3281 170.836 17.4531C170.57 17.5729 170.346 17.7552 170.164 18C169.987 18.2448 169.852 18.5469 169.758 18.9062C169.669 19.2604 169.625 19.6719 169.625 20.1406V20.7578C169.625 21.2161 169.664 21.625 169.742 21.9844C169.826 22.3385 169.953 22.638 170.125 22.8828C170.297 23.1276 170.516 23.3151 170.781 23.4453C171.052 23.5703 171.372 23.6328 171.742 23.6328C172.185 23.6328 172.547 23.5729 172.828 23.4531C173.109 23.3281 173.326 23.1406 173.477 22.8906C173.628 22.6406 173.719 22.3333 173.75 21.9688Z" fill="black"/>
<rect x="16" y="46" width="33" height="33" rx="16.5" fill="#004224"/>
<path d="M26.54 55.5C26.6 56.39 26.75 57.26 26.99 58.09L25.79 59.29C25.38 58.09 25.12 56.82 25.03 55.5H26.54ZM36.4 67.52C37.25 67.76 38.12 67.91 39 67.97V69.46C37.68 69.37 36.41 69.11 35.2 68.71L36.4 67.52ZM27.5 53.5H24C23.45 53.5 23 53.95 23 54.5C23 63.89 30.61 71.5 40 71.5C40.55 71.5 41 71.05 41 70.5V67.01C41 66.46 40.55 66.01 40 66.01C38.76 66.01 37.55 65.81 36.43 65.44C36.3307 65.404 36.2256 65.387 36.12 65.39C35.86 65.39 35.61 65.49 35.41 65.68L33.21 67.88C30.3754 66.4304 28.0696 64.1246 26.62 61.29L28.82 59.09C29.1 58.81 29.18 58.42 29.07 58.07C28.6907 56.9181 28.4982 55.7128 28.5 54.5C28.5 53.95 28.05 53.5 27.5 53.5Z" fill="#E5EAE8"/>
<path d="M64.0752 61.7305V63.248C64.0752 64.0638 64.0023 64.752 63.8564 65.3125C63.7106 65.873 63.501 66.3242 63.2275 66.666C62.9541 67.0078 62.6237 67.2562 62.2363 67.4111C61.8535 67.5615 61.4206 67.6367 60.9375 67.6367C60.5547 67.6367 60.2015 67.5889 59.8779 67.4932C59.5544 67.3975 59.2627 67.2448 59.0029 67.0352C58.7477 66.821 58.529 66.543 58.3467 66.2012C58.1644 65.8594 58.0254 65.4447 57.9297 64.957C57.834 64.4694 57.7861 63.8997 57.7861 63.248V61.7305C57.7861 60.9147 57.859 60.2311 58.0049 59.6797C58.1553 59.1283 58.3672 58.6862 58.6406 58.3535C58.9141 58.0163 59.2422 57.7747 59.625 57.6289C60.0124 57.4831 60.4453 57.4102 60.9238 57.4102C61.3112 57.4102 61.6667 57.458 61.9902 57.5537C62.3184 57.6449 62.61 57.793 62.8652 57.998C63.1204 58.1986 63.3369 58.4674 63.5146 58.8047C63.6969 59.1374 63.8359 59.5452 63.9316 60.0283C64.0273 60.5114 64.0752 61.0788 64.0752 61.7305ZM62.8037 63.4531V61.5186C62.8037 61.0719 62.7764 60.68 62.7217 60.3428C62.6715 60.001 62.5964 59.7093 62.4961 59.4678C62.3958 59.2262 62.2682 59.0303 62.1133 58.8799C61.9629 58.7295 61.7874 58.6201 61.5869 58.5518C61.391 58.4788 61.1699 58.4424 60.9238 58.4424C60.623 58.4424 60.3564 58.4993 60.124 58.6133C59.8916 58.7227 59.6956 58.8981 59.5361 59.1396C59.3812 59.3812 59.2627 59.6979 59.1807 60.0898C59.0986 60.4818 59.0576 60.958 59.0576 61.5186V63.4531C59.0576 63.8997 59.0827 64.2939 59.1328 64.6357C59.1875 64.9775 59.2673 65.2738 59.3721 65.5244C59.4769 65.7705 59.6045 65.9733 59.7549 66.1328C59.9053 66.2923 60.0785 66.4108 60.2744 66.4883C60.4749 66.5612 60.696 66.5977 60.9375 66.5977C61.2474 66.5977 61.5186 66.5384 61.751 66.4199C61.9834 66.3014 62.1771 66.1169 62.332 65.8662C62.4915 65.611 62.61 65.2852 62.6875 64.8887C62.765 64.4876 62.8037 64.0091 62.8037 63.4531ZM69.8584 57.4922V67.5H68.5938V59.0713L66.0439 60.001V58.8594L69.6602 57.4922H69.8584ZM77.7334 57.4922V67.5H76.4688V59.0713L73.9189 60.001V58.8594L77.5352 57.4922H77.7334ZM85.6084 57.4922V67.5H84.3438V59.0713L81.7939 60.001V58.8594L85.4102 57.4922H85.6084ZM93.4834 57.4922V67.5H92.2188V59.0713L89.6689 60.001V58.8594L93.2852 57.4922H93.4834ZM101.358 57.4922V67.5H100.094V59.0713L97.5439 60.001V58.8594L101.16 57.4922H101.358ZM109.233 57.4922V67.5H107.969V59.0713L105.419 60.001V58.8594L109.035 57.4922H109.233ZM119.385 57.5469V58.2578L115.263 67.5H113.93L118.045 58.5859H112.658V57.5469H119.385ZM127.103 64.8066C127.103 65.4128 126.961 65.9277 126.679 66.3516C126.401 66.7708 126.022 67.0898 125.544 67.3086C125.07 67.5273 124.535 67.6367 123.938 67.6367C123.34 67.6367 122.803 67.5273 122.324 67.3086C121.846 67.0898 121.467 66.7708 121.189 66.3516C120.911 65.9277 120.772 65.4128 120.772 64.8066C120.772 64.4102 120.848 64.0479 120.998 63.7197C121.153 63.387 121.369 63.0977 121.647 62.8516C121.93 62.6055 122.263 62.4163 122.646 62.2842C123.033 62.1475 123.459 62.0791 123.924 62.0791C124.535 62.0791 125.079 62.1976 125.558 62.4346C126.036 62.667 126.412 62.9883 126.686 63.3984C126.964 63.8086 127.103 64.278 127.103 64.8066ZM125.831 64.7793C125.831 64.4102 125.751 64.0843 125.592 63.8018C125.432 63.5146 125.209 63.2913 124.922 63.1318C124.635 62.9723 124.302 62.8926 123.924 62.8926C123.536 62.8926 123.201 62.9723 122.919 63.1318C122.641 63.2913 122.424 63.5146 122.27 63.8018C122.115 64.0843 122.037 64.4102 122.037 64.7793C122.037 65.1621 122.112 65.4902 122.263 65.7637C122.418 66.0326 122.636 66.2399 122.919 66.3857C123.206 66.527 123.546 66.5977 123.938 66.5977C124.329 66.5977 124.667 66.527 124.949 66.3857C125.232 66.2399 125.448 66.0326 125.599 65.7637C125.754 65.4902 125.831 65.1621 125.831 64.7793ZM126.87 60.1377C126.87 60.6208 126.743 61.056 126.487 61.4434C126.232 61.8307 125.883 62.1361 125.441 62.3594C124.999 62.5827 124.498 62.6943 123.938 62.6943C123.368 62.6943 122.86 62.5827 122.413 62.3594C121.971 62.1361 121.625 61.8307 121.374 61.4434C121.123 61.056 120.998 60.6208 120.998 60.1377C120.998 59.5589 121.123 59.0667 121.374 58.6611C121.629 58.2555 121.978 57.9456 122.42 57.7314C122.862 57.5173 123.366 57.4102 123.931 57.4102C124.5 57.4102 125.006 57.5173 125.448 57.7314C125.89 57.9456 126.237 58.2555 126.487 58.6611C126.743 59.0667 126.87 59.5589 126.87 60.1377ZM125.605 60.1582C125.605 59.8255 125.535 59.5316 125.394 59.2764C125.252 59.0212 125.056 58.8206 124.806 58.6748C124.555 58.5244 124.263 58.4492 123.931 58.4492C123.598 58.4492 123.306 58.5199 123.056 58.6611C122.81 58.7979 122.616 58.9938 122.475 59.249C122.338 59.5042 122.27 59.8073 122.27 60.1582C122.27 60.5 122.338 60.7985 122.475 61.0537C122.616 61.3089 122.812 61.5072 123.062 61.6484C123.313 61.7897 123.605 61.8604 123.938 61.8604C124.27 61.8604 124.56 61.7897 124.806 61.6484C125.056 61.5072 125.252 61.3089 125.394 61.0537C125.535 60.7985 125.605 60.5 125.605 60.1582ZM132.858 57.4922V67.5H131.594V59.0713L129.044 60.001V58.8594L132.66 57.4922H132.858Z" fill="black"/>
<rect x="16" y="90" width="33" height="33" rx="16.5" fill="#004224"/>
<path d="M26 115.5C25.3053 115.5 24.7153 115.257 24.23 114.77C23.7433 114.285 23.5 113.695 23.5 113V106C23.5 105.305 23.7433 104.715 24.23 104.23C24.7147 103.743 25.3047 103.5 26 103.5C26.4113 103.5 26.7887 103.592 27.132 103.775C27.4753 103.958 27.7693 104.2 28.014 104.5H29.5V99.8459H38.5V104.5H40C40.6947 104.5 41.2847 104.743 41.77 105.23C42.2567 105.715 42.5 106.305 42.5 107V114.5H28.014C27.7687 114.8 27.4747 115.042 27.132 115.225C26.7893 115.408 26.412 115.5 26 115.5ZM26 114.5C26.4113 114.5 26.7643 114.353 27.059 114.059C27.353 113.764 27.5 113.411 27.5 113V106C27.5 105.589 27.353 105.236 27.059 104.941C26.7643 104.647 26.4113 104.5 26 104.5C25.5887 104.5 25.2357 104.647 24.941 104.941C24.647 105.236 24.5 105.589 24.5 106V113C24.5 113.411 24.647 113.764 24.941 114.059C25.2357 114.353 25.5887 114.5 26 114.5ZM30.5 104.5H37.5V100.846H30.5V104.5ZM28.5 113.5H41.5V107C41.5 106.589 41.353 106.236 41.059 105.941C40.7643 105.647 40.4113 105.5 40 105.5H28.5V113.5ZM36 109C36.2833 109 36.521 108.904 36.713 108.712C36.905 108.52 37.0007 108.283 37 108C36.9993 107.717 36.9033 107.48 36.712 107.288C36.5207 107.096 36.2833 107 36 107C35.7167 107 35.4793 107.096 35.288 107.288C35.0967 107.48 35.0007 107.717 35 108C34.9993 108.283 35.0953 108.52 35.288 108.713C35.4807 108.906 35.718 109.001 36 109ZM39 109C39.2833 109 39.521 108.904 39.713 108.712C39.905 108.52 40.0007 108.283 40 108C39.9993 107.717 39.9033 107.48 39.712 107.288C39.5207 107.096 39.2833 107 39 107C38.7167 107 38.4793 107.096 38.288 107.288C38.0967 107.48 38.0007 107.717 38 108C37.9993 108.283 38.0953 108.52 38.288 108.713C38.4807 108.906 38.718 109.001 39 109ZM36 112C36.2833 112 36.521 111.904 36.713 111.712C36.905 111.52 37.0007 111.283 37 111C36.9993 110.717 36.9033 110.48 36.712 110.288C36.5207 110.096 36.2833 110 36 110C35.7167 110 35.4793 110.096 35.288 110.288C35.0967 110.48 35.0007 110.717 35 111C34.9993 111.283 35.0953 111.52 35.288 111.713C35.4807 111.906 35.718 112.001 36 112ZM39 112C39.2833 112 39.521 111.904 39.713 111.712C39.905 111.52 40.0007 111.283 40 111C39.9993 110.717 39.9033 110.48 39.712 110.288C39.5207 110.096 39.2833 110 39 110C38.7167 110 38.4793 110.096 38.288 110.288C38.0967 110.48 38.0007 110.717 38 111C37.9993 111.283 38.0953 111.52 38.288 111.713C38.4807 111.906 38.718 112.001 39 112ZM30 112H34V107H30V112Z" fill="#E5EAE8"/>
<path d="M64.0752 105.73V107.248C64.0752 108.064 64.0023 108.752 63.8564 109.312C63.7106 109.873 63.501 110.324 63.2275 110.666C62.9541 111.008 62.6237 111.256 62.2363 111.411C61.8535 111.562 61.4206 111.637 60.9375 111.637C60.5547 111.637 60.2015 111.589 59.8779 111.493C59.5544 111.397 59.2627 111.245 59.0029 111.035C58.7477 110.821 58.529 110.543 58.3467 110.201C58.1644 109.859 58.0254 109.445 57.9297 108.957C57.834 108.469 57.7861 107.9 57.7861 107.248V105.73C57.7861 104.915 57.859 104.231 58.0049 103.68C58.1553 103.128 58.3672 102.686 58.6406 102.354C58.9141 102.016 59.2422 101.775 59.625 101.629C60.0124 101.483 60.4453 101.41 60.9238 101.41C61.3112 101.41 61.6667 101.458 61.9902 101.554C62.3184 101.645 62.61 101.793 62.8652 101.998C63.1204 102.199 63.3369 102.467 63.5146 102.805C63.6969 103.137 63.8359 103.545 63.9316 104.028C64.0273 104.511 64.0752 105.079 64.0752 105.73ZM62.8037 107.453V105.519C62.8037 105.072 62.7764 104.68 62.7217 104.343C62.6715 104.001 62.5964 103.709 62.4961 103.468C62.3958 103.226 62.2682 103.03 62.1133 102.88C61.9629 102.729 61.7874 102.62 61.5869 102.552C61.391 102.479 61.1699 102.442 60.9238 102.442C60.623 102.442 60.3564 102.499 60.124 102.613C59.8916 102.723 59.6956 102.898 59.5361 103.14C59.3812 103.381 59.2627 103.698 59.1807 104.09C59.0986 104.482 59.0576 104.958 59.0576 105.519V107.453C59.0576 107.9 59.0827 108.294 59.1328 108.636C59.1875 108.978 59.2673 109.274 59.3721 109.524C59.4769 109.771 59.6045 109.973 59.7549 110.133C59.9053 110.292 60.0785 110.411 60.2744 110.488C60.4749 110.561 60.696 110.598 60.9375 110.598C61.2474 110.598 61.5186 110.538 61.751 110.42C61.9834 110.301 62.1771 110.117 62.332 109.866C62.4915 109.611 62.61 109.285 62.6875 108.889C62.765 108.488 62.8037 108.009 62.8037 107.453ZM69.8584 101.492V111.5H68.5938V103.071L66.0439 104.001V102.859L69.6602 101.492H69.8584ZM77.7334 101.492V111.5H76.4688V103.071L73.9189 104.001V102.859L77.5352 101.492H77.7334ZM85.6084 101.492V111.5H84.3438V103.071L81.7939 104.001V102.859L85.4102 101.492H85.6084ZM93.4834 101.492V111.5H92.2188V103.071L89.6689 104.001V102.859L93.2852 101.492H93.4834ZM101.358 101.492V111.5H100.094V103.071L97.5439 104.001V102.859L101.16 101.492H101.358ZM109.233 101.492V111.5H107.969V103.071L105.419 104.001V102.859L109.035 101.492H109.233ZM119.228 108.807C119.228 109.413 119.086 109.928 118.804 110.352C118.526 110.771 118.147 111.09 117.669 111.309C117.195 111.527 116.66 111.637 116.062 111.637C115.465 111.637 114.928 111.527 114.449 111.309C113.971 111.09 113.592 110.771 113.314 110.352C113.036 109.928 112.897 109.413 112.897 108.807C112.897 108.41 112.973 108.048 113.123 107.72C113.278 107.387 113.494 107.098 113.772 106.852C114.055 106.605 114.388 106.416 114.771 106.284C115.158 106.147 115.584 106.079 116.049 106.079C116.66 106.079 117.204 106.198 117.683 106.435C118.161 106.667 118.537 106.988 118.811 107.398C119.089 107.809 119.228 108.278 119.228 108.807ZM117.956 108.779C117.956 108.41 117.876 108.084 117.717 107.802C117.557 107.515 117.334 107.291 117.047 107.132C116.76 106.972 116.427 106.893 116.049 106.893C115.661 106.893 115.326 106.972 115.044 107.132C114.766 107.291 114.549 107.515 114.395 107.802C114.24 108.084 114.162 108.41 114.162 108.779C114.162 109.162 114.237 109.49 114.388 109.764C114.543 110.033 114.761 110.24 115.044 110.386C115.331 110.527 115.671 110.598 116.062 110.598C116.454 110.598 116.792 110.527 117.074 110.386C117.357 110.24 117.573 110.033 117.724 109.764C117.879 109.49 117.956 109.162 117.956 108.779ZM118.995 104.138C118.995 104.621 118.868 105.056 118.612 105.443C118.357 105.831 118.008 106.136 117.566 106.359C117.124 106.583 116.623 106.694 116.062 106.694C115.493 106.694 114.985 106.583 114.538 106.359C114.096 106.136 113.75 105.831 113.499 105.443C113.248 105.056 113.123 104.621 113.123 104.138C113.123 103.559 113.248 103.067 113.499 102.661C113.754 102.256 114.103 101.946 114.545 101.731C114.987 101.517 115.491 101.41 116.056 101.41C116.625 101.41 117.131 101.517 117.573 101.731C118.015 101.946 118.362 102.256 118.612 102.661C118.868 103.067 118.995 103.559 118.995 104.138ZM117.73 104.158C117.73 103.826 117.66 103.532 117.519 103.276C117.377 103.021 117.181 102.821 116.931 102.675C116.68 102.524 116.388 102.449 116.056 102.449C115.723 102.449 115.431 102.52 115.181 102.661C114.935 102.798 114.741 102.994 114.6 103.249C114.463 103.504 114.395 103.807 114.395 104.158C114.395 104.5 114.463 104.799 114.6 105.054C114.741 105.309 114.937 105.507 115.188 105.648C115.438 105.79 115.73 105.86 116.062 105.86C116.395 105.86 116.685 105.79 116.931 105.648C117.181 105.507 117.377 105.309 117.519 105.054C117.66 104.799 117.73 104.5 117.73 104.158ZM122.427 106.763L121.415 106.503L121.914 101.547H127.021V102.716H122.987L122.687 105.423C122.869 105.318 123.099 105.22 123.377 105.129C123.66 105.038 123.983 104.992 124.348 104.992C124.808 104.992 125.22 105.072 125.585 105.231C125.95 105.386 126.259 105.61 126.515 105.901C126.774 106.193 126.973 106.544 127.109 106.954C127.246 107.364 127.314 107.822 127.314 108.328C127.314 108.807 127.248 109.246 127.116 109.647C126.989 110.049 126.795 110.399 126.535 110.7C126.275 110.996 125.947 111.227 125.551 111.391C125.159 111.555 124.696 111.637 124.163 111.637C123.762 111.637 123.382 111.582 123.021 111.473C122.666 111.359 122.347 111.188 122.064 110.96C121.786 110.728 121.559 110.44 121.381 110.099C121.208 109.752 121.098 109.347 121.053 108.882H122.256C122.311 109.256 122.42 109.57 122.584 109.825C122.748 110.08 122.962 110.274 123.227 110.406C123.495 110.534 123.808 110.598 124.163 110.598C124.464 110.598 124.73 110.545 124.963 110.44C125.195 110.336 125.391 110.185 125.551 109.989C125.71 109.793 125.831 109.556 125.913 109.278C126 109 126.043 108.688 126.043 108.342C126.043 108.027 126 107.736 125.913 107.467C125.826 107.198 125.697 106.963 125.523 106.763C125.355 106.562 125.147 106.407 124.901 106.298C124.655 106.184 124.373 106.127 124.054 106.127C123.63 106.127 123.309 106.184 123.09 106.298C122.876 106.412 122.655 106.567 122.427 106.763ZM129.96 110.44H130.09C130.819 110.44 131.411 110.338 131.867 110.133C132.323 109.928 132.674 109.652 132.92 109.306C133.166 108.959 133.335 108.57 133.426 108.137C133.517 107.699 133.562 107.25 133.562 106.79V105.266C133.562 104.814 133.51 104.413 133.405 104.062C133.305 103.712 133.164 103.418 132.981 103.181C132.804 102.944 132.601 102.764 132.373 102.641C132.145 102.518 131.904 102.456 131.648 102.456C131.357 102.456 131.095 102.515 130.862 102.634C130.634 102.748 130.441 102.91 130.281 103.119C130.126 103.329 130.008 103.575 129.926 103.857C129.844 104.14 129.803 104.448 129.803 104.78C129.803 105.076 129.839 105.364 129.912 105.642C129.985 105.92 130.097 106.17 130.247 106.394C130.397 106.617 130.584 106.795 130.808 106.927C131.035 107.054 131.302 107.118 131.607 107.118C131.89 107.118 132.154 107.063 132.4 106.954C132.651 106.84 132.872 106.688 133.063 106.496C133.259 106.3 133.414 106.079 133.528 105.833C133.647 105.587 133.715 105.329 133.733 105.061H134.335C134.335 105.439 134.26 105.812 134.109 106.182C133.964 106.546 133.758 106.879 133.494 107.18C133.23 107.48 132.92 107.722 132.564 107.904C132.209 108.082 131.822 108.171 131.402 108.171C130.91 108.171 130.484 108.075 130.124 107.884C129.764 107.692 129.468 107.437 129.235 107.118C129.007 106.799 128.837 106.444 128.723 106.052C128.613 105.655 128.559 105.254 128.559 104.849C128.559 104.375 128.625 103.93 128.757 103.516C128.889 103.101 129.085 102.736 129.345 102.422C129.604 102.103 129.926 101.854 130.309 101.677C130.696 101.499 131.143 101.41 131.648 101.41C132.218 101.41 132.703 101.524 133.104 101.752C133.506 101.98 133.831 102.285 134.082 102.668C134.337 103.051 134.524 103.481 134.643 103.96C134.761 104.438 134.82 104.931 134.82 105.437V105.895C134.82 106.41 134.786 106.934 134.718 107.467C134.654 107.995 134.529 108.501 134.342 108.984C134.16 109.467 133.893 109.9 133.542 110.283C133.191 110.661 132.733 110.962 132.168 111.186C131.607 111.404 130.915 111.514 130.09 111.514H129.96V110.44Z" fill="black"/>
<rect x="198" y="46" width="33" height="33" rx="16.5" fill="#004224"/>
<g clip-path="url(#clip0_705_1706)">
<path d="M215 50.5C216.102 50.5 217.164 50.6406 218.188 50.9219C219.211 51.2031 220.168 51.6055 221.059 52.1289C221.949 52.6523 222.758 53.2773 223.484 54.0039C224.211 54.7305 224.836 55.543 225.359 56.4414C225.883 57.3398 226.285 58.2969 226.566 59.3125C226.848 60.3281 226.992 61.3906 227 62.5C227 63.6016 226.859 64.6641 226.578 65.6875C226.297 66.7109 225.895 67.668 225.371 68.5586C224.848 69.4492 224.223 70.2578 223.496 70.9844C222.77 71.7109 221.957 72.3359 221.059 72.8594C220.16 73.3828 219.203 73.7852 218.188 74.0664C217.172 74.3477 216.109 74.4922 215 74.5C213.898 74.5 212.836 74.3594 211.812 74.0781C210.789 73.7969 209.832 73.3945 208.941 72.8711C208.051 72.3477 207.242 71.7227 206.516 70.9961C205.789 70.2695 205.164 69.457 204.641 68.5586C204.117 67.6602 203.715 66.707 203.434 65.6992C203.152 64.6914 203.008 63.625 203 62.5C203 61.3984 203.141 60.3359 203.422 59.3125C203.703 58.2891 204.105 57.332 204.629 56.4414C205.152 55.5508 205.777 54.7422 206.504 54.0156C207.23 53.2891 208.043 52.6641 208.941 52.1406C209.84 51.6172 210.793 51.2148 211.801 50.9336C212.809 50.6523 213.875 50.5078 215 50.5ZM215 73C215.961 73 216.887 72.875 217.777 72.625C218.668 72.375 219.504 72.0234 220.285 71.5703C221.066 71.1172 221.777 70.5664 222.418 69.918C223.059 69.2695 223.605 68.5625 224.059 67.7969C224.512 67.0312 224.867 66.1953 225.125 65.2891C225.383 64.3828 225.508 63.4531 225.5 62.5C225.5 61.5391 225.375 60.6133 225.125 59.7227C224.875 58.832 224.523 57.9961 224.07 57.2148C223.617 56.4336 223.066 55.7227 222.418 55.082C221.77 54.4414 221.062 53.8945 220.297 53.4414C219.531 52.9883 218.695 52.6328 217.789 52.375C216.883 52.1172 215.953 51.9922 215 52C214.039 52 213.113 52.125 212.223 52.375C211.332 52.625 210.496 52.9766 209.715 53.4297C208.934 53.8828 208.223 54.4336 207.582 55.082C206.941 55.7305 206.395 56.4375 205.941 57.2031C205.488 57.9688 205.133 58.8047 204.875 59.7109C204.617 60.6172 204.492 61.5469 204.5 62.5C204.5 63.4609 204.625 64.3867 204.875 65.2773C205.125 66.168 205.477 67.0039 205.93 67.7852C206.383 68.5664 206.934 69.2773 207.582 69.918C208.23 70.5586 208.938 71.1055 209.703 71.5586C210.469 72.0117 211.305 72.3672 212.211 72.625C213.117 72.8828 214.047 73.0078 215 73ZM221.996 62.6875L222.559 61H223.438L222.441 64H221.562L221 62.3125L220.438 64H219.559L218.562 61H219.441L220.004 62.6875L220.566 61H221.434L221.996 62.6875ZM216.559 61H217.438L216.441 64H215.562L215 62.3125L214.438 64H213.559L212.562 61H213.441L214.004 62.6875L214.566 61H215.434L215.996 62.6875L216.559 61ZM210.559 61H211.438L210.441 64H209.562L209 62.3125L208.438 64H207.559L206.562 61H207.441L208.004 62.6875L208.566 61H209.434L209.996 62.6875L210.559 61Z" fill="#E5EAE8"/>
</g>
<path d="M243.061 60.1035V61.0742H239.062V60.1035H243.061ZM240.415 58.3057H241.68V65.668C241.68 65.9186 241.718 66.1077 241.796 66.2354C241.873 66.363 241.974 66.4473 242.097 66.4883C242.22 66.5293 242.352 66.5498 242.493 66.5498C242.598 66.5498 242.707 66.5407 242.821 66.5225C242.94 66.4997 243.029 66.4814 243.088 66.4678L243.095 67.5C242.994 67.5319 242.862 67.5615 242.698 67.5889C242.539 67.6208 242.345 67.6367 242.117 67.6367C241.807 67.6367 241.522 67.5752 241.263 67.4521C241.003 67.3291 240.796 67.124 240.641 66.8369C240.49 66.5452 240.415 66.1533 240.415 65.6611V58.3057ZM244.072 63.8838V63.7266C244.072 63.1934 244.15 62.6989 244.305 62.2432C244.46 61.7829 244.683 61.3841 244.975 61.0469C245.266 60.7051 245.619 60.4408 246.034 60.2539C246.449 60.0625 246.914 59.9668 247.429 59.9668C247.948 59.9668 248.415 60.0625 248.83 60.2539C249.249 60.4408 249.605 60.7051 249.896 61.0469C250.193 61.3841 250.418 61.7829 250.573 62.2432C250.728 62.6989 250.806 63.1934 250.806 63.7266V63.8838C250.806 64.417 250.728 64.9115 250.573 65.3672C250.418 65.8229 250.193 66.2217 249.896 66.5635C249.605 66.9007 249.252 67.165 248.837 67.3564C248.427 67.5433 247.962 67.6367 247.442 67.6367C246.923 67.6367 246.456 67.5433 246.041 67.3564C245.626 67.165 245.271 66.9007 244.975 66.5635C244.683 66.2217 244.46 65.8229 244.305 65.3672C244.15 64.9115 244.072 64.417 244.072 63.8838ZM245.337 63.7266V63.8838C245.337 64.2529 245.38 64.6016 245.467 64.9297C245.553 65.2533 245.683 65.5404 245.856 65.791C246.034 66.0417 246.255 66.2399 246.52 66.3857C246.784 66.527 247.091 66.5977 247.442 66.5977C247.789 66.5977 248.092 66.527 248.352 66.3857C248.616 66.2399 248.835 66.0417 249.008 65.791C249.181 65.5404 249.311 65.2533 249.397 64.9297C249.489 64.6016 249.534 64.2529 249.534 63.8838V63.7266C249.534 63.362 249.489 63.0179 249.397 62.6943C249.311 62.3662 249.179 62.0768 249.001 61.8262C248.828 61.571 248.609 61.3704 248.345 61.2246C248.085 61.0788 247.78 61.0059 247.429 61.0059C247.082 61.0059 246.777 61.0788 246.513 61.2246C246.253 61.3704 246.034 61.571 245.856 61.8262C245.683 62.0768 245.553 62.3662 245.467 62.6943C245.38 63.0179 245.337 63.362 245.337 63.7266ZM253.649 61.5732V67.5H252.378V60.1035H253.581L253.649 61.5732ZM253.39 63.5215L252.802 63.501C252.806 62.9951 252.872 62.528 253 62.0996C253.128 61.6667 253.317 61.2907 253.567 60.9717C253.818 60.6527 254.13 60.4066 254.504 60.2334C254.878 60.0557 255.311 59.9668 255.803 59.9668C256.149 59.9668 256.468 60.0169 256.76 60.1172C257.051 60.2129 257.304 60.3656 257.519 60.5752C257.733 60.7848 257.899 61.0537 258.018 61.3818C258.136 61.71 258.195 62.1064 258.195 62.5713V67.5H256.931V62.6328C256.931 62.2454 256.865 61.9355 256.732 61.7031C256.605 61.4707 256.423 61.3021 256.186 61.1973C255.949 61.0879 255.671 61.0332 255.352 61.0332C254.978 61.0332 254.666 61.0993 254.415 61.2314C254.164 61.3636 253.964 61.5459 253.813 61.7783C253.663 62.0107 253.554 62.2773 253.485 62.5781C253.422 62.8743 253.39 63.1888 253.39 63.5215ZM258.182 62.8242L257.334 63.084C257.339 62.6784 257.405 62.2887 257.532 61.915C257.664 61.5413 257.854 61.2087 258.1 60.917C258.35 60.6253 258.658 60.3952 259.022 60.2266C259.387 60.0534 259.804 59.9668 260.273 59.9668C260.67 59.9668 261.021 60.0192 261.326 60.124C261.636 60.2288 261.896 60.3906 262.105 60.6094C262.32 60.8236 262.481 61.0993 262.591 61.4365C262.7 61.7738 262.755 62.1748 262.755 62.6396V67.5H261.483V62.626C261.483 62.2113 261.417 61.89 261.285 61.6621C261.158 61.4297 260.975 61.2679 260.738 61.1768C260.506 61.0811 260.228 61.0332 259.904 61.0332C259.626 61.0332 259.38 61.0811 259.166 61.1768C258.952 61.2725 258.772 61.4046 258.626 61.5732C258.48 61.7373 258.368 61.9264 258.291 62.1406C258.218 62.3548 258.182 62.5827 258.182 62.8242ZM264.334 63.8838V63.7266C264.334 63.1934 264.411 62.6989 264.566 62.2432C264.721 61.7829 264.945 61.3841 265.236 61.0469C265.528 60.7051 265.881 60.4408 266.296 60.2539C266.711 60.0625 267.175 59.9668 267.69 59.9668C268.21 59.9668 268.677 60.0625 269.092 60.2539C269.511 60.4408 269.867 60.7051 270.158 61.0469C270.454 61.3841 270.68 61.7829 270.835 62.2432C270.99 62.6989 271.067 63.1934 271.067 63.7266V63.8838C271.067 64.417 270.99 64.9115 270.835 65.3672C270.68 65.8229 270.454 66.2217 270.158 66.5635C269.867 66.9007 269.513 67.165 269.099 67.3564C268.688 67.5433 268.224 67.6367 267.704 67.6367C267.185 67.6367 266.717 67.5433 266.303 67.3564C265.888 67.165 265.533 66.9007 265.236 66.5635C264.945 66.2217 264.721 65.8229 264.566 65.3672C264.411 64.9115 264.334 64.417 264.334 63.8838ZM265.599 63.7266V63.8838C265.599 64.2529 265.642 64.6016 265.729 64.9297C265.815 65.2533 265.945 65.5404 266.118 65.791C266.296 66.0417 266.517 66.2399 266.781 66.3857C267.046 66.527 267.353 66.5977 267.704 66.5977C268.05 66.5977 268.354 66.527 268.613 66.3857C268.878 66.2399 269.096 66.0417 269.27 65.791C269.443 65.5404 269.573 65.2533 269.659 64.9297C269.75 64.6016 269.796 64.2529 269.796 63.8838V63.7266C269.796 63.362 269.75 63.0179 269.659 62.6943C269.573 62.3662 269.44 62.0768 269.263 61.8262C269.09 61.571 268.871 61.3704 268.606 61.2246C268.347 61.0788 268.041 61.0059 267.69 61.0059C267.344 61.0059 267.039 61.0788 266.774 61.2246C266.515 61.3704 266.296 61.571 266.118 61.8262C265.945 62.0768 265.815 62.3662 265.729 62.6943C265.642 63.0179 265.599 63.362 265.599 63.7266ZM275.613 66.5977C275.914 66.5977 276.192 66.5361 276.447 66.4131C276.702 66.29 276.912 66.1214 277.076 65.9072C277.24 65.6885 277.334 65.4401 277.356 65.1621H278.56C278.537 65.5996 278.389 66.0075 278.115 66.3857C277.846 66.7594 277.493 67.0625 277.056 67.2949C276.618 67.5228 276.137 67.6367 275.613 67.6367C275.057 67.6367 274.572 67.5387 274.157 67.3428C273.747 67.1468 273.405 66.8779 273.132 66.5361C272.863 66.1943 272.66 65.8024 272.523 65.3604C272.391 64.9137 272.325 64.4421 272.325 63.9453V63.6582C272.325 63.1615 272.391 62.6921 272.523 62.25C272.66 61.8034 272.863 61.4092 273.132 61.0674C273.405 60.7256 273.747 60.4567 274.157 60.2607C274.572 60.0648 275.057 59.9668 275.613 59.9668C276.192 59.9668 276.698 60.0853 277.131 60.3223C277.564 60.5547 277.903 60.8737 278.149 61.2793C278.4 61.6803 278.537 62.1361 278.56 62.6465H277.356C277.334 62.3411 277.247 62.0654 277.097 61.8193C276.951 61.5732 276.75 61.3773 276.495 61.2314C276.244 61.0811 275.951 61.0059 275.613 61.0059C275.226 61.0059 274.9 61.0833 274.636 61.2383C274.376 61.3887 274.169 61.5938 274.014 61.8535C273.863 62.1087 273.754 62.3936 273.686 62.708C273.622 63.0179 273.59 63.3346 273.59 63.6582V63.9453C273.59 64.2689 273.622 64.5879 273.686 64.9023C273.749 65.2168 273.856 65.5016 274.007 65.7568C274.162 66.012 274.369 66.2171 274.629 66.3721C274.893 66.5225 275.221 66.5977 275.613 66.5977ZM284.343 66.2354V62.4277C284.343 62.1361 284.284 61.8831 284.165 61.6689C284.051 61.4502 283.878 61.2816 283.646 61.1631C283.413 61.0446 283.126 60.9854 282.784 60.9854C282.465 60.9854 282.185 61.04 281.943 61.1494C281.706 61.2588 281.52 61.4023 281.383 61.5801C281.251 61.7578 281.185 61.9492 281.185 62.1543H279.92C279.92 61.89 279.988 61.6279 280.125 61.3682C280.262 61.1084 280.458 60.8737 280.713 60.6641C280.973 60.4499 281.283 60.2812 281.643 60.1582C282.007 60.0306 282.413 59.9668 282.859 59.9668C283.397 59.9668 283.871 60.0579 284.281 60.2402C284.696 60.4225 285.02 60.6982 285.252 61.0674C285.489 61.432 285.607 61.89 285.607 62.4414V65.8867C285.607 66.1328 285.628 66.3949 285.669 66.6729C285.715 66.9508 285.781 67.1901 285.867 67.3906V67.5H284.548C284.484 67.3542 284.434 67.1605 284.397 66.9189C284.361 66.6729 284.343 66.445 284.343 66.2354ZM284.562 63.0156L284.575 63.9043H283.297C282.937 63.9043 282.616 63.9339 282.333 63.9932C282.05 64.0479 281.813 64.1322 281.622 64.2461C281.431 64.36 281.285 64.5036 281.185 64.6768C281.084 64.8454 281.034 65.0436 281.034 65.2715C281.034 65.5039 281.087 65.7158 281.191 65.9072C281.296 66.0986 281.453 66.2513 281.663 66.3652C281.877 66.4746 282.139 66.5293 282.449 66.5293C282.837 66.5293 283.178 66.4473 283.475 66.2832C283.771 66.1191 284.006 65.9186 284.179 65.6816C284.356 65.4447 284.452 65.2145 284.466 64.9912L285.006 65.5996C284.974 65.791 284.887 66.0029 284.746 66.2354C284.605 66.4678 284.416 66.6911 284.179 66.9053C283.946 67.1149 283.668 67.2904 283.345 67.4316C283.026 67.5684 282.666 67.6367 282.265 67.6367C281.763 67.6367 281.324 67.5387 280.945 67.3428C280.572 67.1468 280.28 66.8848 280.07 66.5566C279.865 66.224 279.763 65.8525 279.763 65.4424C279.763 65.0459 279.84 64.6973 279.995 64.3965C280.15 64.0911 280.373 63.8382 280.665 63.6377C280.957 63.4326 281.308 63.2777 281.718 63.1729C282.128 63.068 282.586 63.0156 283.092 63.0156H284.562ZM290.557 66.5977C290.857 66.5977 291.135 66.5361 291.391 66.4131C291.646 66.29 291.855 66.1214 292.02 65.9072C292.184 65.6885 292.277 65.4401 292.3 65.1621H293.503C293.48 65.5996 293.332 66.0075 293.059 66.3857C292.79 66.7594 292.437 67.0625 291.999 67.2949C291.562 67.5228 291.081 67.6367 290.557 67.6367C290.001 67.6367 289.515 67.5387 289.101 67.3428C288.69 67.1468 288.349 66.8779 288.075 66.5361C287.806 66.1943 287.604 65.8024 287.467 65.3604C287.335 64.9137 287.269 64.4421 287.269 63.9453V63.6582C287.269 63.1615 287.335 62.6921 287.467 62.25C287.604 61.8034 287.806 61.4092 288.075 61.0674C288.349 60.7256 288.69 60.4567 289.101 60.2607C289.515 60.0648 290.001 59.9668 290.557 59.9668C291.135 59.9668 291.641 60.0853 292.074 60.3223C292.507 60.5547 292.847 60.8737 293.093 61.2793C293.343 61.6803 293.48 62.1361 293.503 62.6465H292.3C292.277 62.3411 292.19 62.0654 292.04 61.8193C291.894 61.5732 291.694 61.3773 291.438 61.2314C291.188 61.0811 290.894 61.0059 290.557 61.0059C290.169 61.0059 289.843 61.0833 289.579 61.2383C289.319 61.3887 289.112 61.5938 288.957 61.8535C288.807 62.1087 288.697 62.3936 288.629 62.708C288.565 63.0179 288.533 63.3346 288.533 63.6582V63.9453C288.533 64.2689 288.565 64.5879 288.629 64.9023C288.693 65.2168 288.8 65.5016 288.95 65.7568C289.105 66.012 289.312 66.2171 289.572 66.3721C289.837 66.5225 290.165 66.5977 290.557 66.5977ZM294.59 63.8838V63.7266C294.59 63.1934 294.667 62.6989 294.822 62.2432C294.977 61.7829 295.201 61.3841 295.492 61.0469C295.784 60.7051 296.137 60.4408 296.552 60.2539C296.966 60.0625 297.431 59.9668 297.946 59.9668C298.466 59.9668 298.933 60.0625 299.348 60.2539C299.767 60.4408 300.122 60.7051 300.414 61.0469C300.71 61.3841 300.936 61.7829 301.091 62.2432C301.246 62.6989 301.323 63.1934 301.323 63.7266V63.8838C301.323 64.417 301.246 64.9115 301.091 65.3672C300.936 65.8229 300.71 66.2217 300.414 66.5635C300.122 66.9007 299.769 67.165 299.354 67.3564C298.944 67.5433 298.479 67.6367 297.96 67.6367C297.44 67.6367 296.973 67.5433 296.559 67.3564C296.144 67.165 295.788 66.9007 295.492 66.5635C295.201 66.2217 294.977 65.8229 294.822 65.3672C294.667 64.9115 294.59 64.417 294.59 63.8838ZM295.854 63.7266V63.8838C295.854 64.2529 295.898 64.6016 295.984 64.9297C296.071 65.2533 296.201 65.5404 296.374 65.791C296.552 66.0417 296.773 66.2399 297.037 66.3857C297.301 66.527 297.609 66.5977 297.96 66.5977C298.306 66.5977 298.609 66.527 298.869 66.3857C299.133 66.2399 299.352 66.0417 299.525 65.791C299.699 65.5404 299.828 65.2533 299.915 64.9297C300.006 64.6016 300.052 64.2529 300.052 63.8838V63.7266C300.052 63.362 300.006 63.0179 299.915 62.6943C299.828 62.3662 299.696 62.0768 299.519 61.8262C299.345 61.571 299.127 61.3704 298.862 61.2246C298.603 61.0788 298.297 61.0059 297.946 61.0059C297.6 61.0059 297.295 61.0788 297.03 61.2246C296.771 61.3704 296.552 61.571 296.374 61.8262C296.201 62.0768 296.071 62.3662 295.984 62.6943C295.898 63.0179 295.854 63.362 295.854 63.7266ZM304.796 67.5H303.531V59.3242C303.531 58.791 303.627 58.3421 303.818 57.9775C304.014 57.6084 304.295 57.3304 304.659 57.1436C305.024 56.9521 305.457 56.8564 305.958 56.8564C306.104 56.8564 306.25 56.8656 306.396 56.8838C306.546 56.902 306.692 56.9294 306.833 56.9658L306.765 57.998C306.669 57.9753 306.56 57.9593 306.437 57.9502C306.318 57.9411 306.2 57.9365 306.081 57.9365C305.812 57.9365 305.58 57.9912 305.384 58.1006C305.192 58.2054 305.047 58.3604 304.946 58.5654C304.846 58.7705 304.796 59.0234 304.796 59.3242V67.5ZM306.368 60.1035V61.0742H302.362V60.1035H306.368ZM309.663 67.5H308.398V59.3242C308.398 58.791 308.494 58.3421 308.686 57.9775C308.882 57.6084 309.162 57.3304 309.526 57.1436C309.891 56.9521 310.324 56.8564 310.825 56.8564C310.971 56.8564 311.117 56.8656 311.263 56.8838C311.413 56.902 311.559 56.9294 311.7 56.9658L311.632 57.998C311.536 57.9753 311.427 57.9593 311.304 57.9502C311.185 57.9411 311.067 57.9365 310.948 57.9365C310.679 57.9365 310.447 57.9912 310.251 58.1006C310.06 58.2054 309.914 58.3604 309.813 58.5654C309.713 58.7705 309.663 59.0234 309.663 59.3242V67.5ZM311.235 60.1035V61.0742H307.229V60.1035H311.235ZM315.549 67.6367C315.034 67.6367 314.567 67.5501 314.147 67.377C313.733 67.1992 313.375 66.9508 313.074 66.6318C312.778 66.3128 312.55 65.9346 312.391 65.4971C312.231 65.0596 312.151 64.5811 312.151 64.0615V63.7744C312.151 63.1729 312.24 62.6374 312.418 62.168C312.596 61.694 312.837 61.293 313.143 60.9648C313.448 60.6367 313.794 60.3883 314.182 60.2197C314.569 60.0511 314.97 59.9668 315.385 59.9668C315.913 59.9668 316.369 60.0579 316.752 60.2402C317.139 60.4225 317.456 60.6777 317.702 61.0059C317.948 61.3294 318.131 61.7122 318.249 62.1543C318.368 62.5918 318.427 63.0703 318.427 63.5898V64.1572H312.903V63.125H317.162V63.0293C317.144 62.7012 317.076 62.3822 316.957 62.0723C316.843 61.7624 316.661 61.5072 316.41 61.3066C316.16 61.1061 315.818 61.0059 315.385 61.0059C315.098 61.0059 314.833 61.0674 314.592 61.1904C314.35 61.3089 314.143 61.4867 313.97 61.7236C313.797 61.9606 313.662 62.25 313.566 62.5918C313.471 62.9336 313.423 63.3278 313.423 63.7744V64.0615C313.423 64.4124 313.471 64.7428 313.566 65.0527C313.667 65.3581 313.81 65.627 313.997 65.8594C314.188 66.0918 314.419 66.2741 314.688 66.4062C314.961 66.5384 315.271 66.6045 315.617 66.6045C316.064 66.6045 316.442 66.5133 316.752 66.3311C317.062 66.1488 317.333 65.9049 317.565 65.5996L318.331 66.208C318.172 66.4495 317.969 66.6797 317.723 66.8984C317.477 67.1172 317.174 67.2949 316.813 67.4316C316.458 67.5684 316.036 67.6367 315.549 67.6367ZM322.973 67.6367C322.458 67.6367 321.991 67.5501 321.571 67.377C321.157 67.1992 320.799 66.9508 320.498 66.6318C320.202 66.3128 319.974 65.9346 319.814 65.4971C319.655 65.0596 319.575 64.5811 319.575 64.0615V63.7744C319.575 63.1729 319.664 62.6374 319.842 62.168C320.02 61.694 320.261 61.293 320.566 60.9648C320.872 60.6367 321.218 60.3883 321.605 60.2197C321.993 60.0511 322.394 59.9668 322.809 59.9668C323.337 59.9668 323.793 60.0579 324.176 60.2402C324.563 60.4225 324.88 60.6777 325.126 61.0059C325.372 61.3294 325.554 61.7122 325.673 62.1543C325.791 62.5918 325.851 63.0703 325.851 63.5898V64.1572H320.327V63.125H324.586V63.0293C324.568 62.7012 324.499 62.3822 324.381 62.0723C324.267 61.7624 324.085 61.5072 323.834 61.3066C323.583 61.1061 323.242 61.0059 322.809 61.0059C322.521 61.0059 322.257 61.0674 322.016 61.1904C321.774 61.3089 321.567 61.4867 321.394 61.7236C321.22 61.9606 321.086 62.25 320.99 62.5918C320.895 62.9336 320.847 63.3278 320.847 63.7744V64.0615C320.847 64.4124 320.895 64.7428 320.99 65.0527C321.09 65.3581 321.234 65.627 321.421 65.8594C321.612 66.0918 321.842 66.2741 322.111 66.4062C322.385 66.5384 322.695 66.6045 323.041 66.6045C323.488 66.6045 323.866 66.5133 324.176 66.3311C324.486 66.1488 324.757 65.9049 324.989 65.5996L325.755 66.208C325.595 66.4495 325.393 66.6797 325.146 66.8984C324.9 67.1172 324.597 67.2949 324.237 67.4316C323.882 67.5684 323.46 67.6367 322.973 67.6367ZM327.348 66.8301C327.348 66.6159 327.414 66.4359 327.546 66.29C327.683 66.1396 327.879 66.0645 328.134 66.0645C328.389 66.0645 328.583 66.1396 328.715 66.29C328.852 66.4359 328.92 66.6159 328.92 66.8301C328.92 67.0397 328.852 67.2174 328.715 67.3633C328.583 67.5091 328.389 67.582 328.134 67.582C327.879 67.582 327.683 67.5091 327.546 67.3633C327.414 67.2174 327.348 67.0397 327.348 66.8301ZM333.979 66.5977C334.279 66.5977 334.557 66.5361 334.812 66.4131C335.068 66.29 335.277 66.1214 335.441 65.9072C335.605 65.6885 335.699 65.4401 335.722 65.1621H336.925C336.902 65.5996 336.754 66.0075 336.48 66.3857C336.212 66.7594 335.858 67.0625 335.421 67.2949C334.983 67.5228 334.503 67.6367 333.979 67.6367C333.423 67.6367 332.937 67.5387 332.522 67.3428C332.112 67.1468 331.771 66.8779 331.497 66.5361C331.228 66.1943 331.025 65.8024 330.889 65.3604C330.757 64.9137 330.69 64.4421 330.69 63.9453V63.6582C330.69 63.1615 330.757 62.6921 330.889 62.25C331.025 61.8034 331.228 61.4092 331.497 61.0674C331.771 60.7256 332.112 60.4567 332.522 60.2607C332.937 60.0648 333.423 59.9668 333.979 59.9668C334.557 59.9668 335.063 60.0853 335.496 60.3223C335.929 60.5547 336.269 60.8737 336.515 61.2793C336.765 61.6803 336.902 62.1361 336.925 62.6465H335.722C335.699 62.3411 335.612 62.0654 335.462 61.8193C335.316 61.5732 335.116 61.3773 334.86 61.2314C334.61 61.0811 334.316 61.0059 333.979 61.0059C333.591 61.0059 333.265 61.0833 333.001 61.2383C332.741 61.3887 332.534 61.5938 332.379 61.8535C332.229 62.1087 332.119 62.3936 332.051 62.708C331.987 63.0179 331.955 63.3346 331.955 63.6582V63.9453C331.955 64.2689 331.987 64.5879 332.051 64.9023C332.115 65.2168 332.222 65.5016 332.372 65.7568C332.527 66.012 332.734 66.2171 332.994 66.3721C333.258 66.5225 333.587 66.5977 333.979 66.5977ZM338.012 63.8838V63.7266C338.012 63.1934 338.089 62.6989 338.244 62.2432C338.399 61.7829 338.622 61.3841 338.914 61.0469C339.206 60.7051 339.559 60.4408 339.974 60.2539C340.388 60.0625 340.853 59.9668 341.368 59.9668C341.888 59.9668 342.355 60.0625 342.77 60.2539C343.189 60.4408 343.544 60.7051 343.836 61.0469C344.132 61.3841 344.358 61.7829 344.513 62.2432C344.668 62.6989 344.745 63.1934 344.745 63.7266V63.8838C344.745 64.417 344.668 64.9115 344.513 65.3672C344.358 65.8229 344.132 66.2217 343.836 66.5635C343.544 66.9007 343.191 67.165 342.776 67.3564C342.366 67.5433 341.901 67.6367 341.382 67.6367C340.862 67.6367 340.395 67.5433 339.98 67.3564C339.566 67.165 339.21 66.9007 338.914 66.5635C338.622 66.2217 338.399 65.8229 338.244 65.3672C338.089 64.9115 338.012 64.417 338.012 63.8838ZM339.276 63.7266V63.8838C339.276 64.2529 339.32 64.6016 339.406 64.9297C339.493 65.2533 339.623 65.5404 339.796 65.791C339.974 66.0417 340.195 66.2399 340.459 66.3857C340.723 66.527 341.031 66.5977 341.382 66.5977C341.728 66.5977 342.031 66.527 342.291 66.3857C342.555 66.2399 342.774 66.0417 342.947 65.791C343.12 65.5404 343.25 65.2533 343.337 64.9297C343.428 64.6016 343.474 64.2529 343.474 63.8838V63.7266C343.474 63.362 343.428 63.0179 343.337 62.6943C343.25 62.3662 343.118 62.0768 342.94 61.8262C342.767 61.571 342.549 61.3704 342.284 61.2246C342.024 61.0788 341.719 61.0059 341.368 61.0059C341.022 61.0059 340.716 61.0788 340.452 61.2246C340.192 61.3704 339.974 61.571 339.796 61.8262C339.623 62.0768 339.493 62.3662 339.406 62.6943C339.32 63.0179 339.276 63.362 339.276 63.7266ZM347.589 61.5732V67.5H346.317V60.1035H347.521L347.589 61.5732ZM347.329 63.5215L346.741 63.501C346.746 62.9951 346.812 62.528 346.939 62.0996C347.067 61.6667 347.256 61.2907 347.507 60.9717C347.757 60.6527 348.07 60.4066 348.443 60.2334C348.817 60.0557 349.25 59.9668 349.742 59.9668C350.089 59.9668 350.408 60.0169 350.699 60.1172C350.991 60.2129 351.244 60.3656 351.458 60.5752C351.672 60.7848 351.839 61.0537 351.957 61.3818C352.076 61.71 352.135 62.1064 352.135 62.5713V67.5H350.87V62.6328C350.87 62.2454 350.804 61.9355 350.672 61.7031C350.544 61.4707 350.362 61.3021 350.125 61.1973C349.888 61.0879 349.61 61.0332 349.291 61.0332C348.917 61.0332 348.605 61.0993 348.354 61.2314C348.104 61.3636 347.903 61.5459 347.753 61.7783C347.603 62.0107 347.493 62.2773 347.425 62.5781C347.361 62.8743 347.329 63.1888 347.329 63.5215ZM352.121 62.8242L351.273 63.084C351.278 62.6784 351.344 62.2887 351.472 61.915C351.604 61.5413 351.793 61.2087 352.039 60.917C352.29 60.6253 352.597 60.3952 352.962 60.2266C353.326 60.0534 353.743 59.9668 354.213 59.9668C354.609 59.9668 354.96 60.0192 355.266 60.124C355.576 60.2288 355.835 60.3906 356.045 60.6094C356.259 60.8236 356.421 61.0993 356.53 61.4365C356.64 61.7738 356.694 62.1748 356.694 62.6396V67.5H355.423V62.626C355.423 62.2113 355.357 61.89 355.225 61.6621C355.097 61.4297 354.915 61.2679 354.678 61.1768C354.445 61.0811 354.167 61.0332 353.844 61.0332C353.566 61.0332 353.32 61.0811 353.105 61.1768C352.891 61.2725 352.711 61.4046 352.565 61.5732C352.42 61.7373 352.308 61.9264 352.23 62.1406C352.158 62.3548 352.121 62.5827 352.121 62.8242Z" fill="black"/>
<rect x="198" y="86.5" width="33" height="33" rx="16.5" fill="#004224"/>
<path d="M225 97C225 95.9 224.1 95 223 95H207C205.9 95 205 95.9 205 97V109C205 110.1 205.9 111 207 111H223C224.1 111 225 110.1 225 109V97ZM223 97L215 102L207 97H223ZM223 109H207V99L215 104L223 99V109Z" fill="#E5EAE8"/>
<path d="M241.837 96.6875L243.737 90.6035H244.571L244.407 91.8135L242.473 98H241.659L241.837 96.6875ZM240.559 90.6035L242.179 96.7559L242.295 98H241.44L239.294 90.6035H240.559ZM246.39 96.708L247.935 90.6035H249.192L247.046 98H246.198L246.39 96.708ZM244.756 90.6035L246.615 96.585L246.827 98H246.021L244.031 91.7998L243.867 90.6035H244.756ZM250.156 94.3838V94.2266C250.156 93.6934 250.234 93.1989 250.389 92.7432C250.544 92.2829 250.767 91.8841 251.059 91.5469C251.35 91.2051 251.703 90.9408 252.118 90.7539C252.533 90.5625 252.998 90.4668 253.513 90.4668C254.032 90.4668 254.499 90.5625 254.914 90.7539C255.333 90.9408 255.689 91.2051 255.98 91.5469C256.277 91.8841 256.502 92.2829 256.657 92.7432C256.812 93.1989 256.89 93.6934 256.89 94.2266V94.3838C256.89 94.917 256.812 95.4115 256.657 95.8672C256.502 96.3229 256.277 96.7217 255.98 97.0635C255.689 97.4007 255.336 97.665 254.921 97.8564C254.511 98.0433 254.046 98.1367 253.526 98.1367C253.007 98.1367 252.54 98.0433 252.125 97.8564C251.71 97.665 251.355 97.4007 251.059 97.0635C250.767 96.7217 250.544 96.3229 250.389 95.8672C250.234 95.4115 250.156 94.917 250.156 94.3838ZM251.421 94.2266V94.3838C251.421 94.7529 251.464 95.1016 251.551 95.4297C251.637 95.7533 251.767 96.0404 251.94 96.291C252.118 96.5417 252.339 96.7399 252.604 96.8857C252.868 97.027 253.175 97.0977 253.526 97.0977C253.873 97.0977 254.176 97.027 254.436 96.8857C254.7 96.7399 254.919 96.5417 255.092 96.291C255.265 96.0404 255.395 95.7533 255.481 95.4297C255.573 95.1016 255.618 94.7529 255.618 94.3838V94.2266C255.618 93.862 255.573 93.5179 255.481 93.1943C255.395 92.8662 255.263 92.5768 255.085 92.3262C254.912 92.071 254.693 91.8704 254.429 91.7246C254.169 91.5788 253.864 91.5059 253.513 91.5059C253.166 91.5059 252.861 91.5788 252.597 91.7246C252.337 91.8704 252.118 92.071 251.94 92.3262C251.767 92.5768 251.637 92.8662 251.551 93.1943C251.464 93.5179 251.421 93.862 251.421 94.2266ZM259.74 92.1826V98H258.476V90.6035H259.672L259.74 92.1826ZM259.439 94.0215L258.913 94.001C258.918 93.4951 258.993 93.028 259.139 92.5996C259.285 92.1667 259.49 91.7907 259.754 91.4717C260.018 91.1527 260.333 90.9066 260.697 90.7334C261.066 90.5557 261.474 90.4668 261.921 90.4668C262.285 90.4668 262.614 90.5169 262.905 90.6172C263.197 90.7129 263.445 90.8678 263.65 91.082C263.86 91.2962 264.02 91.5742 264.129 91.916C264.238 92.2533 264.293 92.6657 264.293 93.1533V98H263.021V93.1396C263.021 92.7523 262.965 92.4424 262.851 92.21C262.737 91.973 262.57 91.8021 262.352 91.6973C262.133 91.5879 261.864 91.5332 261.545 91.5332C261.23 91.5332 260.943 91.5993 260.684 91.7314C260.428 91.8636 260.207 92.0459 260.021 92.2783C259.838 92.5107 259.695 92.7773 259.59 93.0781C259.49 93.3743 259.439 93.6888 259.439 94.0215ZM270.876 96.5645V87.5H272.147V98H270.985L270.876 96.5645ZM265.899 94.3838V94.2402C265.899 93.6751 265.968 93.1624 266.104 92.7021C266.246 92.2373 266.444 91.8385 266.699 91.5059C266.959 91.1732 267.267 90.918 267.622 90.7402C267.982 90.5579 268.383 90.4668 268.825 90.4668C269.29 90.4668 269.696 90.5488 270.042 90.7129C270.393 90.8724 270.689 91.1071 270.931 91.417C271.177 91.7223 271.37 92.0915 271.512 92.5244C271.653 92.9574 271.751 93.4473 271.806 93.9941V94.623C271.756 95.1654 271.658 95.653 271.512 96.0859C271.37 96.5189 271.177 96.888 270.931 97.1934C270.689 97.4987 270.393 97.7334 270.042 97.8975C269.691 98.057 269.281 98.1367 268.812 98.1367C268.379 98.1367 267.982 98.0433 267.622 97.8564C267.267 97.6696 266.959 97.4076 266.699 97.0703C266.444 96.7331 266.246 96.3366 266.104 95.8809C265.968 95.4206 265.899 94.9215 265.899 94.3838ZM267.171 94.2402V94.3838C267.171 94.7529 267.207 95.0993 267.28 95.4229C267.358 95.7464 267.476 96.0312 267.636 96.2773C267.795 96.5234 267.998 96.7171 268.244 96.8584C268.49 96.9951 268.784 97.0635 269.126 97.0635C269.545 97.0635 269.889 96.9746 270.158 96.7969C270.432 96.6191 270.65 96.3844 270.814 96.0928C270.979 95.8011 271.106 95.4844 271.197 95.1426V93.4951C271.143 93.2445 271.063 93.0029 270.958 92.7705C270.858 92.5335 270.726 92.3239 270.562 92.1416C270.402 91.9548 270.204 91.8066 269.967 91.6973C269.734 91.5879 269.459 91.5332 269.14 91.5332C268.793 91.5332 268.495 91.6061 268.244 91.752C267.998 91.8932 267.795 92.0892 267.636 92.3398C267.476 92.5859 267.358 92.873 267.28 93.2012C267.207 93.5247 267.171 93.8711 267.171 94.2402ZM275.989 96.6875L277.89 90.6035H278.724L278.56 91.8135L276.625 98H275.812L275.989 96.6875ZM274.711 90.6035L276.331 96.7559L276.447 98H275.593L273.446 90.6035H274.711ZM280.542 96.708L282.087 90.6035H283.345L281.198 98H280.351L280.542 96.708ZM278.908 90.6035L280.768 96.585L280.979 98H280.173L278.184 91.7998L278.02 90.6035H278.908ZM284.309 94.3838V94.2266C284.309 93.6934 284.386 93.1989 284.541 92.7432C284.696 92.2829 284.919 91.8841 285.211 91.5469C285.503 91.2051 285.856 90.9408 286.271 90.7539C286.685 90.5625 287.15 90.4668 287.665 90.4668C288.185 90.4668 288.652 90.5625 289.066 90.7539C289.486 90.9408 289.841 91.2051 290.133 91.5469C290.429 91.8841 290.655 92.2829 290.81 92.7432C290.965 93.1989 291.042 93.6934 291.042 94.2266V94.3838C291.042 94.917 290.965 95.4115 290.81 95.8672C290.655 96.3229 290.429 96.7217 290.133 97.0635C289.841 97.4007 289.488 97.665 289.073 97.8564C288.663 98.0433 288.198 98.1367 287.679 98.1367C287.159 98.1367 286.692 98.0433 286.277 97.8564C285.863 97.665 285.507 97.4007 285.211 97.0635C284.919 96.7217 284.696 96.3229 284.541 95.8672C284.386 95.4115 284.309 94.917 284.309 94.3838ZM285.573 94.2266V94.3838C285.573 94.7529 285.617 95.1016 285.703 95.4297C285.79 95.7533 285.92 96.0404 286.093 96.291C286.271 96.5417 286.492 96.7399 286.756 96.8857C287.02 97.027 287.328 97.0977 287.679 97.0977C288.025 97.0977 288.328 97.027 288.588 96.8857C288.852 96.7399 289.071 96.5417 289.244 96.291C289.417 96.0404 289.547 95.7533 289.634 95.4297C289.725 95.1016 289.771 94.7529 289.771 94.3838V94.2266C289.771 93.862 289.725 93.5179 289.634 93.1943C289.547 92.8662 289.415 92.5768 289.237 92.3262C289.064 92.071 288.845 91.8704 288.581 91.7246C288.321 91.5788 288.016 91.5059 287.665 91.5059C287.319 91.5059 287.013 91.5788 286.749 91.7246C286.489 91.8704 286.271 92.071 286.093 92.3262C285.92 92.5768 285.79 92.8662 285.703 93.1943C285.617 93.5179 285.573 93.862 285.573 94.2266ZM296.935 96.0381C296.935 95.8558 296.894 95.6872 296.812 95.5322C296.734 95.3727 296.572 95.2292 296.326 95.1016C296.085 94.9694 295.72 94.8555 295.232 94.7598C294.822 94.6732 294.451 94.5706 294.118 94.4521C293.79 94.3337 293.51 94.1901 293.277 94.0215C293.049 93.8529 292.874 93.6546 292.751 93.4268C292.628 93.1989 292.566 92.9323 292.566 92.627C292.566 92.3353 292.63 92.0596 292.758 91.7998C292.89 91.54 293.075 91.3099 293.312 91.1094C293.553 90.9089 293.842 90.7516 294.18 90.6377C294.517 90.5238 294.893 90.4668 295.308 90.4668C295.9 90.4668 296.406 90.5716 296.825 90.7812C297.244 90.9909 297.566 91.2712 297.789 91.6221C298.012 91.9684 298.124 92.3535 298.124 92.7773H296.859C296.859 92.5723 296.798 92.374 296.675 92.1826C296.556 91.9867 296.381 91.8249 296.148 91.6973C295.921 91.5697 295.64 91.5059 295.308 91.5059C294.957 91.5059 294.672 91.5605 294.453 91.6699C294.239 91.7747 294.082 91.9092 293.981 92.0732C293.886 92.2373 293.838 92.4105 293.838 92.5928C293.838 92.7295 293.861 92.8525 293.906 92.9619C293.956 93.0667 294.043 93.1647 294.166 93.2559C294.289 93.3424 294.462 93.4245 294.686 93.502C294.909 93.5794 295.194 93.6569 295.54 93.7344C296.146 93.8711 296.645 94.0352 297.037 94.2266C297.429 94.418 297.721 94.6527 297.912 94.9307C298.104 95.2087 298.199 95.5459 298.199 95.9424C298.199 96.266 298.131 96.5622 297.994 96.8311C297.862 97.0999 297.668 97.3324 297.413 97.5283C297.162 97.7197 296.862 97.8701 296.511 97.9795C296.164 98.0843 295.775 98.1367 295.342 98.1367C294.69 98.1367 294.139 98.0205 293.688 97.7881C293.236 97.5557 292.895 97.2549 292.662 96.8857C292.43 96.5166 292.313 96.127 292.313 95.7168H293.585C293.603 96.0632 293.703 96.3389 293.886 96.5439C294.068 96.7445 294.291 96.888 294.556 96.9746C294.82 97.0566 295.082 97.0977 295.342 97.0977C295.688 97.0977 295.978 97.0521 296.21 96.9609C296.447 96.8698 296.627 96.7445 296.75 96.585C296.873 96.4255 296.935 96.2432 296.935 96.0381ZM304.167 96.0381C304.167 95.8558 304.126 95.6872 304.044 95.5322C303.966 95.3727 303.805 95.2292 303.559 95.1016C303.317 94.9694 302.952 94.8555 302.465 94.7598C302.055 94.6732 301.683 94.5706 301.351 94.4521C301.022 94.3337 300.742 94.1901 300.51 94.0215C300.282 93.8529 300.106 93.6546 299.983 93.4268C299.86 93.1989 299.799 92.9323 299.799 92.627C299.799 92.3353 299.863 92.0596 299.99 91.7998C300.122 91.54 300.307 91.3099 300.544 91.1094C300.785 90.9089 301.075 90.7516 301.412 90.6377C301.749 90.5238 302.125 90.4668 302.54 90.4668C303.132 90.4668 303.638 90.5716 304.058 90.7812C304.477 90.9909 304.798 91.2712 305.021 91.6221C305.245 91.9684 305.356 92.3535 305.356 92.7773H304.092C304.092 92.5723 304.03 92.374 303.907 92.1826C303.789 91.9867 303.613 91.8249 303.381 91.6973C303.153 91.5697 302.873 91.5059 302.54 91.5059C302.189 91.5059 301.904 91.5605 301.686 91.6699C301.471 91.7747 301.314 91.9092 301.214 92.0732C301.118 92.2373 301.07 92.4105 301.07 92.5928C301.07 92.7295 301.093 92.8525 301.139 92.9619C301.189 93.0667 301.275 93.1647 301.398 93.2559C301.521 93.3424 301.695 93.4245 301.918 93.502C302.141 93.5794 302.426 93.6569 302.772 93.7344C303.379 93.8711 303.878 94.0352 304.27 94.2266C304.661 94.418 304.953 94.6527 305.145 94.9307C305.336 95.2087 305.432 95.5459 305.432 95.9424C305.432 96.266 305.363 96.5622 305.227 96.8311C305.094 97.0999 304.901 97.3324 304.646 97.5283C304.395 97.7197 304.094 97.8701 303.743 97.9795C303.397 98.0843 303.007 98.1367 302.574 98.1367C301.923 98.1367 301.371 98.0205 300.92 97.7881C300.469 97.5557 300.127 97.2549 299.895 96.8857C299.662 96.5166 299.546 96.127 299.546 95.7168H300.817C300.836 96.0632 300.936 96.3389 301.118 96.5439C301.3 96.7445 301.524 96.888 301.788 96.9746C302.052 97.0566 302.314 97.0977 302.574 97.0977C302.921 97.0977 303.21 97.0521 303.442 96.9609C303.679 96.8698 303.859 96.7445 303.982 96.585C304.105 96.4255 304.167 96.2432 304.167 96.0381ZM310.162 98.1367C309.647 98.1367 309.18 98.0501 308.761 97.877C308.346 97.6992 307.988 97.4508 307.688 97.1318C307.391 96.8128 307.163 96.4346 307.004 95.9971C306.844 95.5596 306.765 95.0811 306.765 94.5615V94.2744C306.765 93.6729 306.854 93.1374 307.031 92.668C307.209 92.194 307.451 91.793 307.756 91.4648C308.061 91.1367 308.408 90.8883 308.795 90.7197C309.182 90.5511 309.583 90.4668 309.998 90.4668C310.527 90.4668 310.982 90.5579 311.365 90.7402C311.753 90.9225 312.069 91.1777 312.315 91.5059C312.562 91.8294 312.744 92.2122 312.862 92.6543C312.981 93.0918 313.04 93.5703 313.04 94.0898V94.6572H307.517V93.625H311.775V93.5293C311.757 93.2012 311.689 92.8822 311.57 92.5723C311.456 92.2624 311.274 92.0072 311.023 91.8066C310.773 91.6061 310.431 91.5059 309.998 91.5059C309.711 91.5059 309.447 91.5674 309.205 91.6904C308.964 91.8089 308.756 91.9867 308.583 92.2236C308.41 92.4606 308.275 92.75 308.18 93.0918C308.084 93.4336 308.036 93.8278 308.036 94.2744V94.5615C308.036 94.9124 308.084 95.2428 308.18 95.5527C308.28 95.8581 308.424 96.127 308.61 96.3594C308.802 96.5918 309.032 96.7741 309.301 96.9062C309.574 97.0384 309.884 97.1045 310.23 97.1045C310.677 97.1045 311.055 97.0133 311.365 96.8311C311.675 96.6488 311.946 96.4049 312.179 96.0996L312.944 96.708C312.785 96.9495 312.582 97.1797 312.336 97.3984C312.09 97.6172 311.787 97.7949 311.427 97.9316C311.071 98.0684 310.65 98.1367 310.162 98.1367ZM315.781 92.1826V98H314.517V90.6035H315.713L315.781 92.1826ZM315.48 94.0215L314.954 94.001C314.959 93.4951 315.034 93.028 315.18 92.5996C315.326 92.1667 315.531 91.7907 315.795 91.4717C316.059 91.1527 316.374 90.9066 316.738 90.7334C317.107 90.5557 317.515 90.4668 317.962 90.4668C318.326 90.4668 318.655 90.5169 318.946 90.6172C319.238 90.7129 319.486 90.8678 319.691 91.082C319.901 91.2962 320.061 91.5742 320.17 91.916C320.279 92.2533 320.334 92.6657 320.334 93.1533V98H319.062V93.1396C319.062 92.7523 319.006 92.4424 318.892 92.21C318.778 91.973 318.611 91.8021 318.393 91.6973C318.174 91.5879 317.905 91.5332 317.586 91.5332C317.271 91.5332 316.984 91.5993 316.725 91.7314C316.469 91.8636 316.248 92.0459 316.062 92.2783C315.879 92.5107 315.736 92.7773 315.631 93.0781C315.531 93.3743 315.48 93.6888 315.48 94.0215ZM333.158 94.5615C333.14 94.9808 333.076 95.4023 332.967 95.8262C332.857 96.2454 332.693 96.6305 332.475 96.9814C332.256 97.3324 331.971 97.6149 331.62 97.8291C331.274 98.0387 330.854 98.1436 330.362 98.1436C330.048 98.1436 329.772 98.0889 329.535 97.9795C329.303 97.8656 329.111 97.7038 328.961 97.4941C328.815 97.2845 328.713 97.0316 328.653 96.7354C328.599 96.4391 328.59 96.1087 328.626 95.7441L328.975 91.957H329.979L329.631 95.7441C329.604 96.0768 329.61 96.348 329.651 96.5576C329.697 96.7673 329.765 96.929 329.856 97.043C329.948 97.1523 330.05 97.2275 330.164 97.2686C330.283 97.3096 330.396 97.3301 330.506 97.3301C330.779 97.3301 331.023 97.2594 331.237 97.1182C331.451 96.9723 331.632 96.7741 331.777 96.5234C331.928 96.2682 332.044 95.9743 332.126 95.6416C332.208 95.3044 332.258 94.9443 332.276 94.5615C332.308 93.8825 332.276 93.2581 332.181 92.6885C332.09 92.1188 331.932 91.613 331.709 91.1709C331.49 90.7288 331.203 90.3551 330.848 90.0498C330.492 89.7445 330.068 89.512 329.576 89.3525C329.084 89.193 328.521 89.1133 327.888 89.1133C327.313 89.1133 326.783 89.2021 326.295 89.3799C325.812 89.5531 325.377 89.8037 324.989 90.1318C324.606 90.46 324.276 90.8542 323.998 91.3145C323.725 91.7747 323.508 92.2943 323.349 92.873C323.194 93.4473 323.103 94.0671 323.075 94.7324C323.043 95.416 323.08 96.0449 323.185 96.6191C323.289 97.1888 323.458 97.6969 323.69 98.1436C323.927 98.5947 324.226 98.9753 324.586 99.2852C324.946 99.5996 325.363 99.8366 325.837 99.9961C326.311 100.16 326.84 100.242 327.423 100.242C327.824 100.242 328.229 100.194 328.64 100.099C329.054 100.003 329.401 99.873 329.679 99.709L329.938 100.488C329.619 100.693 329.221 100.846 328.742 100.946C328.268 101.047 327.819 101.097 327.396 101.097C326.703 101.097 326.069 101.001 325.495 100.81C324.925 100.623 324.42 100.347 323.978 99.9824C323.54 99.6224 323.175 99.1826 322.884 98.6631C322.592 98.1481 322.378 97.5602 322.241 96.8994C322.104 96.2386 322.052 95.5163 322.084 94.7324C322.116 93.985 322.228 93.2809 322.419 92.6201C322.615 91.9593 322.882 91.36 323.219 90.8223C323.556 90.2845 323.957 89.8219 324.422 89.4346C324.891 89.0426 325.418 88.7419 326.001 88.5322C326.589 88.3226 327.227 88.2178 327.915 88.2178C328.617 88.2178 329.253 88.3135 329.822 88.5049C330.392 88.6963 330.891 88.972 331.319 89.332C331.752 89.6921 332.11 90.1318 332.393 90.6514C332.675 91.1709 332.88 91.7588 333.008 92.415C333.14 93.0713 333.19 93.7868 333.158 94.5615ZM326.138 95.1426C326.106 95.4616 326.106 95.7464 326.138 95.9971C326.17 96.2477 326.231 96.4596 326.322 96.6328C326.413 96.806 326.532 96.9382 326.678 97.0293C326.828 97.1159 327.004 97.1592 327.204 97.1592C327.336 97.1592 327.475 97.1273 327.621 97.0635C327.767 96.9951 327.91 96.8903 328.052 96.749C328.193 96.6077 328.325 96.4232 328.448 96.1953C328.571 95.9674 328.674 95.694 328.756 95.375L329.207 95.8672C329.102 96.2409 328.965 96.569 328.797 96.8516C328.633 97.1341 328.448 97.3711 328.243 97.5625C328.038 97.7539 327.819 97.8997 327.587 98C327.359 98.0957 327.127 98.1436 326.89 98.1436C326.557 98.1436 326.265 98.0729 326.015 97.9316C325.764 97.7858 325.561 97.5807 325.406 97.3164C325.251 97.0521 325.142 96.7376 325.078 96.373C325.019 96.0039 325.01 95.5938 325.051 95.1426C325.092 94.6641 325.176 94.222 325.304 93.8164C325.431 93.4108 325.589 93.0485 325.775 92.7295C325.967 92.4105 326.181 92.1393 326.418 91.916C326.66 91.6927 326.915 91.5241 327.184 91.4102C327.452 91.2917 327.728 91.2324 328.011 91.2324C328.503 91.2324 328.89 91.3053 329.173 91.4512C329.455 91.5924 329.724 91.7611 329.979 91.957L329.398 92.6338C329.266 92.5062 329.093 92.3877 328.879 92.2783C328.665 92.1689 328.412 92.1143 328.12 92.1143C327.869 92.1143 327.635 92.1781 327.416 92.3057C327.197 92.4333 326.999 92.6247 326.821 92.8799C326.648 93.1351 326.502 93.4518 326.384 93.8301C326.265 94.2038 326.183 94.6413 326.138 95.1426ZM337.93 90.6035V91.5742H333.931V90.6035H337.93ZM335.284 88.8057H336.549V96.168C336.549 96.4186 336.588 96.6077 336.665 96.7354C336.743 96.863 336.843 96.9473 336.966 96.9883C337.089 97.0293 337.221 97.0498 337.362 97.0498C337.467 97.0498 337.576 97.0407 337.69 97.0225C337.809 96.9997 337.898 96.9814 337.957 96.9678L337.964 98C337.864 98.0319 337.731 98.0615 337.567 98.0889C337.408 98.1208 337.214 98.1367 336.986 98.1367C336.676 98.1367 336.392 98.0752 336.132 97.9521C335.872 97.8291 335.665 97.624 335.51 97.3369C335.359 97.0452 335.284 96.6533 335.284 96.1611V88.8057ZM338.941 94.3838V94.2266C338.941 93.6934 339.019 93.1989 339.174 92.7432C339.329 92.2829 339.552 91.8841 339.844 91.5469C340.135 91.2051 340.489 90.9408 340.903 90.7539C341.318 90.5625 341.783 90.4668 342.298 90.4668C342.817 90.4668 343.285 90.5625 343.699 90.7539C344.118 90.9408 344.474 91.2051 344.766 91.5469C345.062 91.8841 345.287 92.2829 345.442 92.7432C345.597 93.1989 345.675 93.6934 345.675 94.2266V94.3838C345.675 94.917 345.597 95.4115 345.442 95.8672C345.287 96.3229 345.062 96.7217 344.766 97.0635C344.474 97.4007 344.121 97.665 343.706 97.8564C343.296 98.0433 342.831 98.1367 342.312 98.1367C341.792 98.1367 341.325 98.0433 340.91 97.8564C340.495 97.665 340.14 97.4007 339.844 97.0635C339.552 96.7217 339.329 96.3229 339.174 95.8672C339.019 95.4115 338.941 94.917 338.941 94.3838ZM340.206 94.2266V94.3838C340.206 94.7529 340.249 95.1016 340.336 95.4297C340.423 95.7533 340.552 96.0404 340.726 96.291C340.903 96.5417 341.124 96.7399 341.389 96.8857C341.653 97.027 341.961 97.0977 342.312 97.0977C342.658 97.0977 342.961 97.027 343.221 96.8857C343.485 96.7399 343.704 96.5417 343.877 96.291C344.05 96.0404 344.18 95.7533 344.267 95.4297C344.358 95.1016 344.403 94.7529 344.403 94.3838V94.2266C344.403 93.862 344.358 93.5179 344.267 93.1943C344.18 92.8662 344.048 92.5768 343.87 92.3262C343.697 92.071 343.478 91.8704 343.214 91.7246C342.954 91.5788 342.649 91.5059 342.298 91.5059C341.951 91.5059 341.646 91.5788 341.382 91.7246C341.122 91.8704 340.903 92.071 340.726 92.3262C340.552 92.5768 340.423 92.8662 340.336 93.1943C340.249 93.5179 340.206 93.862 340.206 94.2266ZM348.519 92.0732V98H347.247V90.6035H348.45L348.519 92.0732ZM348.259 94.0215L347.671 94.001C347.675 93.4951 347.742 93.028 347.869 92.5996C347.997 92.1667 348.186 91.7907 348.437 91.4717C348.687 91.1527 348.999 90.9066 349.373 90.7334C349.747 90.5557 350.18 90.4668 350.672 90.4668C351.018 90.4668 351.337 90.5169 351.629 90.6172C351.921 90.7129 352.174 90.8656 352.388 91.0752C352.602 91.2848 352.768 91.5537 352.887 91.8818C353.005 92.21 353.064 92.6064 353.064 93.0713V98H351.8V93.1328C351.8 92.7454 351.734 92.4355 351.602 92.2031C351.474 91.9707 351.292 91.8021 351.055 91.6973C350.818 91.5879 350.54 91.5332 350.221 91.5332C349.847 91.5332 349.535 91.5993 349.284 91.7314C349.034 91.8636 348.833 92.0459 348.683 92.2783C348.532 92.5107 348.423 92.7773 348.354 93.0781C348.291 93.3743 348.259 93.6888 348.259 94.0215ZM353.051 93.3242L352.203 93.584C352.208 93.1784 352.274 92.7887 352.401 92.415C352.534 92.0413 352.723 91.7087 352.969 91.417C353.219 91.1253 353.527 90.8952 353.892 90.7266C354.256 90.5534 354.673 90.4668 355.143 90.4668C355.539 90.4668 355.89 90.5192 356.195 90.624C356.505 90.7288 356.765 90.8906 356.975 91.1094C357.189 91.3236 357.351 91.5993 357.46 91.9365C357.569 92.2738 357.624 92.6748 357.624 93.1396V98H356.353V93.126C356.353 92.7113 356.286 92.39 356.154 92.1621C356.027 91.9297 355.844 91.7679 355.607 91.6768C355.375 91.5811 355.097 91.5332 354.773 91.5332C354.495 91.5332 354.249 91.5811 354.035 91.6768C353.821 91.7725 353.641 91.9046 353.495 92.0732C353.349 92.2373 353.238 92.4264 353.16 92.6406C353.087 92.8548 353.051 93.0827 353.051 93.3242ZM359.203 94.3838V94.2266C359.203 93.6934 359.281 93.1989 359.436 92.7432C359.59 92.2829 359.814 91.8841 360.105 91.5469C360.397 91.2051 360.75 90.9408 361.165 90.7539C361.58 90.5625 362.045 90.4668 362.56 90.4668C363.079 90.4668 363.546 90.5625 363.961 90.7539C364.38 90.9408 364.736 91.2051 365.027 91.5469C365.324 91.8841 365.549 92.2829 365.704 92.7432C365.859 93.1989 365.937 93.6934 365.937 94.2266V94.3838C365.937 94.917 365.859 95.4115 365.704 95.8672C365.549 96.3229 365.324 96.7217 365.027 97.0635C364.736 97.4007 364.382 97.665 363.968 97.8564C363.558 98.0433 363.093 98.1367 362.573 98.1367C362.054 98.1367 361.587 98.0433 361.172 97.8564C360.757 97.665 360.402 97.4007 360.105 97.0635C359.814 96.7217 359.59 96.3229 359.436 95.8672C359.281 95.4115 359.203 94.917 359.203 94.3838ZM360.468 94.2266V94.3838C360.468 94.7529 360.511 95.1016 360.598 95.4297C360.684 95.7533 360.814 96.0404 360.987 96.291C361.165 96.5417 361.386 96.7399 361.65 96.8857C361.915 97.027 362.222 97.0977 362.573 97.0977C362.92 97.0977 363.223 97.027 363.482 96.8857C363.747 96.7399 363.965 96.5417 364.139 96.291C364.312 96.0404 364.442 95.7533 364.528 95.4297C364.619 95.1016 364.665 94.7529 364.665 94.3838V94.2266C364.665 93.862 364.619 93.5179 364.528 93.1943C364.442 92.8662 364.31 92.5768 364.132 92.3262C363.959 92.071 363.74 91.8704 363.476 91.7246C363.216 91.5788 362.91 91.5059 362.56 91.5059C362.213 91.5059 361.908 91.5788 361.644 91.7246C361.384 91.8704 361.165 92.071 360.987 92.3262C360.814 92.5768 360.684 92.8662 360.598 93.1943C360.511 93.5179 360.468 93.862 360.468 94.2266ZM242.924 117.098C243.225 117.098 243.503 117.036 243.758 116.913C244.013 116.79 244.223 116.621 244.387 116.407C244.551 116.188 244.644 115.94 244.667 115.662H245.87C245.847 116.1 245.699 116.507 245.426 116.886C245.157 117.259 244.804 117.562 244.366 117.795C243.929 118.023 243.448 118.137 242.924 118.137C242.368 118.137 241.882 118.039 241.468 117.843C241.058 117.647 240.716 117.378 240.442 117.036C240.174 116.694 239.971 116.302 239.834 115.86C239.702 115.414 239.636 114.942 239.636 114.445V114.158C239.636 113.661 239.702 113.192 239.834 112.75C239.971 112.303 240.174 111.909 240.442 111.567C240.716 111.226 241.058 110.957 241.468 110.761C241.882 110.565 242.368 110.467 242.924 110.467C243.503 110.467 244.008 110.585 244.441 110.822C244.874 111.055 245.214 111.374 245.46 111.779C245.711 112.18 245.847 112.636 245.87 113.146H244.667C244.644 112.841 244.558 112.565 244.407 112.319C244.261 112.073 244.061 111.877 243.806 111.731C243.555 111.581 243.261 111.506 242.924 111.506C242.536 111.506 242.211 111.583 241.946 111.738C241.687 111.889 241.479 112.094 241.324 112.354C241.174 112.609 241.064 112.894 240.996 113.208C240.932 113.518 240.9 113.835 240.9 114.158V114.445C240.9 114.769 240.932 115.088 240.996 115.402C241.06 115.717 241.167 116.002 241.317 116.257C241.472 116.512 241.68 116.717 241.939 116.872C242.204 117.022 242.532 117.098 242.924 117.098ZM251.653 116.735V112.928C251.653 112.636 251.594 112.383 251.476 112.169C251.362 111.95 251.188 111.782 250.956 111.663C250.724 111.545 250.437 111.485 250.095 111.485C249.776 111.485 249.495 111.54 249.254 111.649C249.017 111.759 248.83 111.902 248.693 112.08C248.561 112.258 248.495 112.449 248.495 112.654H247.23C247.23 112.39 247.299 112.128 247.436 111.868C247.572 111.608 247.768 111.374 248.023 111.164C248.283 110.95 248.593 110.781 248.953 110.658C249.318 110.531 249.723 110.467 250.17 110.467C250.708 110.467 251.182 110.558 251.592 110.74C252.007 110.923 252.33 111.198 252.562 111.567C252.799 111.932 252.918 112.39 252.918 112.941V116.387C252.918 116.633 252.938 116.895 252.979 117.173C253.025 117.451 253.091 117.69 253.178 117.891V118H251.858C251.795 117.854 251.744 117.66 251.708 117.419C251.672 117.173 251.653 116.945 251.653 116.735ZM251.872 113.516L251.886 114.404H250.607C250.247 114.404 249.926 114.434 249.644 114.493C249.361 114.548 249.124 114.632 248.933 114.746C248.741 114.86 248.595 115.004 248.495 115.177C248.395 115.345 248.345 115.544 248.345 115.771C248.345 116.004 248.397 116.216 248.502 116.407C248.607 116.599 248.764 116.751 248.974 116.865C249.188 116.975 249.45 117.029 249.76 117.029C250.147 117.029 250.489 116.947 250.785 116.783C251.081 116.619 251.316 116.419 251.489 116.182C251.667 115.945 251.763 115.715 251.776 115.491L252.316 116.1C252.285 116.291 252.198 116.503 252.057 116.735C251.915 116.968 251.726 117.191 251.489 117.405C251.257 117.615 250.979 117.79 250.655 117.932C250.336 118.068 249.976 118.137 249.575 118.137C249.074 118.137 248.634 118.039 248.256 117.843C247.882 117.647 247.59 117.385 247.381 117.057C247.176 116.724 247.073 116.353 247.073 115.942C247.073 115.546 247.151 115.197 247.306 114.896C247.461 114.591 247.684 114.338 247.976 114.138C248.267 113.933 248.618 113.778 249.028 113.673C249.438 113.568 249.896 113.516 250.402 113.516H251.872ZM257.867 117.098C258.168 117.098 258.446 117.036 258.701 116.913C258.956 116.79 259.166 116.621 259.33 116.407C259.494 116.188 259.588 115.94 259.61 115.662H260.813C260.791 116.1 260.643 116.507 260.369 116.886C260.1 117.259 259.747 117.562 259.31 117.795C258.872 118.023 258.391 118.137 257.867 118.137C257.311 118.137 256.826 118.039 256.411 117.843C256.001 117.647 255.659 117.378 255.386 117.036C255.117 116.694 254.914 116.302 254.777 115.86C254.645 115.414 254.579 114.942 254.579 114.445V114.158C254.579 113.661 254.645 113.192 254.777 112.75C254.914 112.303 255.117 111.909 255.386 111.567C255.659 111.226 256.001 110.957 256.411 110.761C256.826 110.565 257.311 110.467 257.867 110.467C258.446 110.467 258.952 110.585 259.385 110.822C259.818 111.055 260.157 111.374 260.403 111.779C260.654 112.18 260.791 112.636 260.813 113.146H259.61C259.588 112.841 259.501 112.565 259.351 112.319C259.205 112.073 259.004 111.877 258.749 111.731C258.498 111.581 258.204 111.506 257.867 111.506C257.48 111.506 257.154 111.583 256.89 111.738C256.63 111.889 256.423 112.094 256.268 112.354C256.117 112.609 256.008 112.894 255.939 113.208C255.876 113.518 255.844 113.835 255.844 114.158V114.445C255.844 114.769 255.876 115.088 255.939 115.402C256.003 115.717 256.11 116.002 256.261 116.257C256.416 116.512 256.623 116.717 256.883 116.872C257.147 117.022 257.475 117.098 257.867 117.098ZM261.9 114.384V114.227C261.9 113.693 261.978 113.199 262.133 112.743C262.288 112.283 262.511 111.884 262.803 111.547C263.094 111.205 263.448 110.941 263.862 110.754C264.277 110.562 264.742 110.467 265.257 110.467C265.776 110.467 266.243 110.562 266.658 110.754C267.077 110.941 267.433 111.205 267.725 111.547C268.021 111.884 268.246 112.283 268.401 112.743C268.556 113.199 268.634 113.693 268.634 114.227V114.384C268.634 114.917 268.556 115.411 268.401 115.867C268.246 116.323 268.021 116.722 267.725 117.063C267.433 117.401 267.08 117.665 266.665 117.856C266.255 118.043 265.79 118.137 265.271 118.137C264.751 118.137 264.284 118.043 263.869 117.856C263.454 117.665 263.099 117.401 262.803 117.063C262.511 116.722 262.288 116.323 262.133 115.867C261.978 115.411 261.9 114.917 261.9 114.384ZM263.165 114.227V114.384C263.165 114.753 263.208 115.102 263.295 115.43C263.382 115.753 263.511 116.04 263.685 116.291C263.862 116.542 264.083 116.74 264.348 116.886C264.612 117.027 264.92 117.098 265.271 117.098C265.617 117.098 265.92 117.027 266.18 116.886C266.444 116.74 266.663 116.542 266.836 116.291C267.009 116.04 267.139 115.753 267.226 115.43C267.317 115.102 267.362 114.753 267.362 114.384V114.227C267.362 113.862 267.317 113.518 267.226 113.194C267.139 112.866 267.007 112.577 266.829 112.326C266.656 112.071 266.437 111.87 266.173 111.725C265.913 111.579 265.608 111.506 265.257 111.506C264.91 111.506 264.605 111.579 264.341 111.725C264.081 111.87 263.862 112.071 263.685 112.326C263.511 112.577 263.382 112.866 263.295 113.194C263.208 113.518 263.165 113.862 263.165 114.227ZM272.106 118H270.842V109.824C270.842 109.291 270.938 108.842 271.129 108.478C271.325 108.108 271.605 107.83 271.97 107.644C272.334 107.452 272.767 107.356 273.269 107.356C273.414 107.356 273.56 107.366 273.706 107.384C273.856 107.402 274.002 107.429 274.144 107.466L274.075 108.498C273.979 108.475 273.87 108.459 273.747 108.45C273.629 108.441 273.51 108.437 273.392 108.437C273.123 108.437 272.89 108.491 272.694 108.601C272.503 108.705 272.357 108.86 272.257 109.065C272.157 109.271 272.106 109.523 272.106 109.824V118ZM273.679 110.604V111.574H269.673V110.604H273.679ZM276.974 118H275.709V109.824C275.709 109.291 275.805 108.842 275.996 108.478C276.192 108.108 276.472 107.83 276.837 107.644C277.201 107.452 277.634 107.356 278.136 107.356C278.282 107.356 278.427 107.366 278.573 107.384C278.724 107.402 278.869 107.429 279.011 107.466L278.942 108.498C278.847 108.475 278.737 108.459 278.614 108.45C278.496 108.441 278.377 108.437 278.259 108.437C277.99 108.437 277.757 108.491 277.562 108.601C277.37 108.705 277.224 108.86 277.124 109.065C277.024 109.271 276.974 109.523 276.974 109.824V118ZM278.546 110.604V111.574H274.54V110.604H278.546ZM282.859 118.137C282.344 118.137 281.877 118.05 281.458 117.877C281.043 117.699 280.686 117.451 280.385 117.132C280.089 116.813 279.861 116.435 279.701 115.997C279.542 115.56 279.462 115.081 279.462 114.562V114.274C279.462 113.673 279.551 113.137 279.729 112.668C279.906 112.194 280.148 111.793 280.453 111.465C280.758 111.137 281.105 110.888 281.492 110.72C281.88 110.551 282.281 110.467 282.695 110.467C283.224 110.467 283.68 110.558 284.062 110.74C284.45 110.923 284.767 111.178 285.013 111.506C285.259 111.829 285.441 112.212 285.56 112.654C285.678 113.092 285.737 113.57 285.737 114.09V114.657H280.214V113.625H284.473V113.529C284.454 113.201 284.386 112.882 284.268 112.572C284.154 112.262 283.971 112.007 283.721 111.807C283.47 111.606 283.128 111.506 282.695 111.506C282.408 111.506 282.144 111.567 281.902 111.69C281.661 111.809 281.453 111.987 281.28 112.224C281.107 112.461 280.973 112.75 280.877 113.092C280.781 113.434 280.733 113.828 280.733 114.274V114.562C280.733 114.912 280.781 115.243 280.877 115.553C280.977 115.858 281.121 116.127 281.308 116.359C281.499 116.592 281.729 116.774 281.998 116.906C282.271 117.038 282.581 117.104 282.928 117.104C283.374 117.104 283.753 117.013 284.062 116.831C284.372 116.649 284.644 116.405 284.876 116.1L285.642 116.708C285.482 116.95 285.279 117.18 285.033 117.398C284.787 117.617 284.484 117.795 284.124 117.932C283.769 118.068 283.347 118.137 282.859 118.137ZM290.283 118.137C289.768 118.137 289.301 118.05 288.882 117.877C288.467 117.699 288.109 117.451 287.809 117.132C287.512 116.813 287.285 116.435 287.125 115.997C286.965 115.56 286.886 115.081 286.886 114.562V114.274C286.886 113.673 286.975 113.137 287.152 112.668C287.33 112.194 287.572 111.793 287.877 111.465C288.182 111.137 288.529 110.888 288.916 110.72C289.303 110.551 289.704 110.467 290.119 110.467C290.648 110.467 291.104 110.558 291.486 110.74C291.874 110.923 292.19 111.178 292.437 111.506C292.683 111.829 292.865 112.212 292.983 112.654C293.102 113.092 293.161 113.57 293.161 114.09V114.657H287.638V113.625H291.896V113.529C291.878 113.201 291.81 112.882 291.691 112.572C291.577 112.262 291.395 112.007 291.145 111.807C290.894 111.606 290.552 111.506 290.119 111.506C289.832 111.506 289.568 111.567 289.326 111.69C289.085 111.809 288.877 111.987 288.704 112.224C288.531 112.461 288.396 112.75 288.301 113.092C288.205 113.434 288.157 113.828 288.157 114.274V114.562C288.157 114.912 288.205 115.243 288.301 115.553C288.401 115.858 288.545 116.127 288.731 116.359C288.923 116.592 289.153 116.774 289.422 116.906C289.695 117.038 290.005 117.104 290.352 117.104C290.798 117.104 291.176 117.013 291.486 116.831C291.796 116.649 292.067 116.405 292.3 116.1L293.065 116.708C292.906 116.95 292.703 117.18 292.457 117.398C292.211 117.617 291.908 117.795 291.548 117.932C291.192 118.068 290.771 118.137 290.283 118.137ZM294.658 117.33C294.658 117.116 294.724 116.936 294.856 116.79C294.993 116.64 295.189 116.564 295.444 116.564C295.7 116.564 295.893 116.64 296.025 116.79C296.162 116.936 296.23 117.116 296.23 117.33C296.23 117.54 296.162 117.717 296.025 117.863C295.893 118.009 295.7 118.082 295.444 118.082C295.189 118.082 294.993 118.009 294.856 117.863C294.724 117.717 294.658 117.54 294.658 117.33ZM301.289 117.098C301.59 117.098 301.868 117.036 302.123 116.913C302.378 116.79 302.588 116.621 302.752 116.407C302.916 116.188 303.009 115.94 303.032 115.662H304.235C304.213 116.1 304.064 116.507 303.791 116.886C303.522 117.259 303.169 117.562 302.731 117.795C302.294 118.023 301.813 118.137 301.289 118.137C300.733 118.137 300.248 118.039 299.833 117.843C299.423 117.647 299.081 117.378 298.808 117.036C298.539 116.694 298.336 116.302 298.199 115.86C298.067 115.414 298.001 114.942 298.001 114.445V114.158C298.001 113.661 298.067 113.192 298.199 112.75C298.336 112.303 298.539 111.909 298.808 111.567C299.081 111.226 299.423 110.957 299.833 110.761C300.248 110.565 300.733 110.467 301.289 110.467C301.868 110.467 302.374 110.585 302.807 110.822C303.24 111.055 303.579 111.374 303.825 111.779C304.076 112.18 304.213 112.636 304.235 113.146H303.032C303.009 112.841 302.923 112.565 302.772 112.319C302.627 112.073 302.426 111.877 302.171 111.731C301.92 111.581 301.626 111.506 301.289 111.506C300.902 111.506 300.576 111.583 300.312 111.738C300.052 111.889 299.844 112.094 299.689 112.354C299.539 112.609 299.43 112.894 299.361 113.208C299.298 113.518 299.266 113.835 299.266 114.158V114.445C299.266 114.769 299.298 115.088 299.361 115.402C299.425 115.717 299.532 116.002 299.683 116.257C299.838 116.512 300.045 116.717 300.305 116.872C300.569 117.022 300.897 117.098 301.289 117.098ZM305.322 114.384V114.227C305.322 113.693 305.4 113.199 305.555 112.743C305.71 112.283 305.933 111.884 306.225 111.547C306.516 111.205 306.869 110.941 307.284 110.754C307.699 110.562 308.164 110.467 308.679 110.467C309.198 110.467 309.665 110.562 310.08 110.754C310.499 110.941 310.855 111.205 311.146 111.547C311.443 111.884 311.668 112.283 311.823 112.743C311.978 113.199 312.056 113.693 312.056 114.227V114.384C312.056 114.917 311.978 115.411 311.823 115.867C311.668 116.323 311.443 116.722 311.146 117.063C310.855 117.401 310.502 117.665 310.087 117.856C309.677 118.043 309.212 118.137 308.692 118.137C308.173 118.137 307.706 118.043 307.291 117.856C306.876 117.665 306.521 117.401 306.225 117.063C305.933 116.722 305.71 116.323 305.555 115.867C305.4 115.411 305.322 114.917 305.322 114.384ZM306.587 114.227V114.384C306.587 114.753 306.63 115.102 306.717 115.43C306.803 115.753 306.933 116.04 307.106 116.291C307.284 116.542 307.505 116.74 307.77 116.886C308.034 117.027 308.341 117.098 308.692 117.098C309.039 117.098 309.342 117.027 309.602 116.886C309.866 116.74 310.085 116.542 310.258 116.291C310.431 116.04 310.561 115.753 310.647 115.43C310.739 115.102 310.784 114.753 310.784 114.384V114.227C310.784 113.862 310.739 113.518 310.647 113.194C310.561 112.866 310.429 112.577 310.251 112.326C310.078 112.071 309.859 111.87 309.595 111.725C309.335 111.579 309.03 111.506 308.679 111.506C308.332 111.506 308.027 111.579 307.763 111.725C307.503 111.87 307.284 112.071 307.106 112.326C306.933 112.577 306.803 112.866 306.717 113.194C306.63 113.518 306.587 113.862 306.587 114.227ZM314.899 112.073V118H313.628V110.604H314.831L314.899 112.073ZM314.64 114.021L314.052 114.001C314.056 113.495 314.122 113.028 314.25 112.6C314.378 112.167 314.567 111.791 314.817 111.472C315.068 111.153 315.38 110.907 315.754 110.733C316.128 110.556 316.561 110.467 317.053 110.467C317.399 110.467 317.718 110.517 318.01 110.617C318.301 110.713 318.554 110.866 318.769 111.075C318.983 111.285 319.149 111.554 319.268 111.882C319.386 112.21 319.445 112.606 319.445 113.071V118H318.181V113.133C318.181 112.745 318.115 112.436 317.982 112.203C317.855 111.971 317.673 111.802 317.436 111.697C317.199 111.588 316.921 111.533 316.602 111.533C316.228 111.533 315.916 111.599 315.665 111.731C315.414 111.864 315.214 112.046 315.063 112.278C314.913 112.511 314.804 112.777 314.735 113.078C314.672 113.374 314.64 113.689 314.64 114.021ZM319.432 113.324L318.584 113.584C318.589 113.178 318.655 112.789 318.782 112.415C318.914 112.041 319.104 111.709 319.35 111.417C319.6 111.125 319.908 110.895 320.272 110.727C320.637 110.553 321.054 110.467 321.523 110.467C321.92 110.467 322.271 110.519 322.576 110.624C322.886 110.729 323.146 110.891 323.355 111.109C323.57 111.324 323.731 111.599 323.841 111.937C323.95 112.274 324.005 112.675 324.005 113.14V118H322.733V113.126C322.733 112.711 322.667 112.39 322.535 112.162C322.408 111.93 322.225 111.768 321.988 111.677C321.756 111.581 321.478 111.533 321.154 111.533C320.876 111.533 320.63 111.581 320.416 111.677C320.202 111.772 320.022 111.905 319.876 112.073C319.73 112.237 319.618 112.426 319.541 112.641C319.468 112.855 319.432 113.083 319.432 113.324Z" fill="black"/>
<defs>
<clipPath id="clip0_705_1706">
<rect width="24" height="24" fill="white" transform="translate(203 50.5)"/>
</clipPath>
</defs>
</svg>
