<svg width="24" height="24" viewBox="0 0 24 24" fill="none" xmlns="http://www.w3.org/2000/svg">
<rect width="24" height="24" rx="12" fill="#00723F"/>
<path d="M6.32683 10.9089H7.63592V15.2727H6.76319C6.64746 15.2727 6.53647 15.3302 6.45464 15.4325C6.3728 15.5347 6.32683 15.6735 6.32683 15.8182C6.32683 15.9628 6.3728 16.1016 6.45464 16.2039C6.53647 16.3062 6.64746 16.3636 6.76319 16.3636H17.2359C17.3517 16.3636 17.4626 16.3062 17.5445 16.2039C17.6263 16.1016 17.6723 15.9628 17.6723 15.8182C17.6723 15.6735 17.6263 15.5347 17.5445 15.4325C17.4626 15.3302 17.3517 15.2727 17.2359 15.2727H16.3632V10.9089H17.6723C17.7672 10.9088 17.8595 10.87 17.9352 10.7984C18.0109 10.7267 18.0659 10.6262 18.0917 10.512C18.1176 10.3978 18.1129 10.2761 18.0785 10.1655C18.044 10.055 17.9817 9.96142 17.9008 9.89914L12.2281 5.53539C12.1594 5.48256 12.0802 5.45459 11.9996 5.45459C11.9189 5.45459 11.8398 5.48256 11.771 5.53539L6.09828 9.89914C6.01746 9.96142 5.9551 10.055 5.92065 10.1655C5.88619 10.2761 5.88154 10.3978 5.90739 10.512C5.93323 10.6262 5.98817 10.7267 6.06387 10.7984C6.13956 10.87 6.23188 10.9088 6.32683 10.9089ZM8.50865 10.9089H10.2541V15.2727H8.50865V10.9089ZM12.8723 10.9089V15.2727H11.1268V10.9089H12.8723ZM15.4905 15.2727H13.745V10.9089H15.4905V15.2727ZM11.9996 6.63996L16.1308 9.818H7.86828L11.9996 6.63996ZM18.545 18C18.545 18.1447 18.499 18.2834 18.4172 18.3857C18.3354 18.488 18.2244 18.5455 18.1086 18.5455H5.89047C5.77473 18.5455 5.66374 18.488 5.58191 18.3857C5.50008 18.2834 5.4541 18.1447 5.4541 18C5.4541 17.8554 5.50008 17.7166 5.58191 17.6143C5.66374 17.512 5.77473 17.4546 5.89047 17.4546H18.1086C18.2244 17.4546 18.3354 17.512 18.4172 17.6143C18.499 17.7166 18.545 17.8554 18.545 18Z" fill="#FDB813"/>
</svg>
